<svg width="154" height="24" viewBox="0 0 154 24" fill="none" xmlns="http://www.w3.org/2000/svg">
<g clip-path="url(#clip0_8099_108663)">
<path d="M37.2792 17.9316C33.6304 17.9316 30.957 15.2823 30.957 11.742C30.957 8.22565 33.6545 5.5523 37.3032 5.5523C40.952 5.5523 43.6495 8.26178 43.6495 11.742C43.6374 15.2583 40.9159 17.9316 37.2792 17.9316ZM37.2912 15.764C39.5912 15.764 41.241 14.054 41.241 11.742C41.241 9.45395 39.5912 7.71988 37.2912 7.71988C34.9671 7.71988 33.3173 9.46599 33.3173 11.742C33.3173 14.054 34.9671 15.764 37.2912 15.764ZM46.0699 21.6286V8.73142H48.2736V9.87543H48.3941C48.6349 9.50212 49.4538 8.51466 51.1156 8.51466C53.6444 8.51466 55.3785 10.3932 55.3785 13.187C55.3785 15.9808 53.6565 17.9316 51.1878 17.9316C49.5862 17.9316 48.7312 17.0405 48.4422 16.5468H48.3218V21.6286H46.0699ZM50.6821 15.9206C52.1271 15.9206 53.1025 14.8127 53.1025 13.2231C53.1025 11.5854 52.1271 10.5257 50.658 10.5257C49.1768 10.5257 48.2496 11.7058 48.2496 13.2231C48.2616 14.897 49.2852 15.9206 50.6821 15.9206ZM61.7608 17.9316C59.0995 17.9316 57.2089 15.9567 57.2089 13.2713C57.2089 10.4414 59.1116 8.51466 61.7608 8.51466C64.663 8.51466 66.2526 10.6461 66.2526 13.175V13.8734H59.3765C59.4487 15.2342 60.388 16.1614 61.8331 16.1614C62.9289 16.1614 63.7719 15.6436 64.085 14.9211H66.1683C65.7227 16.7394 64.1091 17.9316 61.7608 17.9316ZM59.4126 12.2959H64.1211C64.0127 11.0796 63.0734 10.2849 61.7608 10.2849C60.5085 10.2849 59.5451 11.176 59.4126 12.2959ZM68.661 17.7149V8.73142H70.7924V9.82726H70.9129C71.2741 9.16494 72.1653 8.51466 73.4538 8.51466C75.4768 8.51466 76.7172 9.93564 76.7172 11.8383V17.7028H74.4773V12.4163C74.4773 11.3205 73.7669 10.5859 72.7433 10.5859C71.6595 10.5859 70.8888 11.4409 70.8888 12.5608V17.6908H68.661V17.7149ZM78.9329 17.7149V15.6797L85.1949 7.85235V7.73192H79.1617V5.76906H88.0488V7.78009L81.7869 15.6075V15.7399H88.0729V17.7028H78.9329V17.7149ZM94.1301 17.9316C91.4688 17.9316 89.5782 15.9567 89.5782 13.2713C89.5782 10.4414 91.4809 8.51466 94.1301 8.51466C97.0323 8.51466 98.6218 10.6461 98.6218 13.175V13.8734H91.7458C91.818 15.2342 92.7573 16.1614 94.2024 16.1614C95.2982 16.1614 96.1412 15.6436 96.4543 14.9211H98.5376C98.0799 16.7394 96.4663 17.9316 94.1301 17.9316ZM91.7699 12.2959H96.4783C96.37 11.0796 95.4307 10.2849 94.1181 10.2849C92.8777 10.2849 91.9144 11.176 91.7699 12.2959ZM101.018 21.6286V8.73142H103.222V9.87543H103.342C103.583 9.50212 104.402 8.51466 106.064 8.51466C108.593 8.51466 110.327 10.3932 110.327 13.187C110.327 15.9808 108.605 17.9316 106.136 17.9316C104.535 17.9316 103.68 17.0405 103.391 16.5468H103.27V21.6286H101.018ZM105.63 15.9206C107.075 15.9206 108.051 14.8127 108.051 13.2231C108.051 11.5854 107.075 10.5257 105.606 10.5257C104.125 10.5257 103.198 11.7058 103.198 13.2231C103.198 14.897 104.233 15.9206 105.63 15.9206ZM112.723 21.6286V8.73142H114.927V9.87543H115.047C115.288 9.50212 116.107 8.51466 117.769 8.51466C120.298 8.51466 122.032 10.3932 122.032 13.187C122.032 15.9808 120.31 17.9316 117.841 17.9316C116.24 17.9316 115.385 17.0405 115.096 16.5468H114.975V21.6286H112.723ZM117.335 15.9206C118.78 15.9206 119.756 14.8127 119.756 13.2231C119.756 11.5854 118.78 10.5257 117.311 10.5257C115.83 10.5257 114.903 11.7058 114.903 13.2231C114.903 14.897 115.938 15.9206 117.335 15.9206ZM128.414 17.9316C125.753 17.9316 123.862 15.9567 123.862 13.2713C123.862 10.4414 125.765 8.51466 128.414 8.51466C131.316 8.51466 132.906 10.6461 132.906 13.175V13.8734H126.03C126.102 15.2342 127.041 16.1614 128.486 16.1614C129.582 16.1614 130.425 15.6436 130.738 14.9211H132.822C132.376 16.7394 130.75 17.9316 128.414 17.9316ZM126.066 12.2959H130.774C130.666 11.0796 129.727 10.2849 128.414 10.2849C127.162 10.2849 126.198 11.176 126.066 12.2959ZM137.506 17.7149C135.928 17.7149 135.025 16.7756 135.025 15.186V4.91406H137.265V14.9813C137.265 15.4991 137.518 15.764 137.988 15.764H138.349V17.7149H137.506ZM141.612 7.53925C140.805 7.53925 140.24 7.04552 140.24 6.2387C140.24 5.468 140.805 4.96223 141.612 4.96223C142.419 4.96223 142.985 5.48004 142.985 6.2387C142.985 7.04552 142.419 7.53925 141.612 7.53925ZM140.504 17.7149V8.73142H142.744V17.7028H140.504V17.7149ZM145.454 17.7149V8.73142H147.585V9.82726H147.706C148.067 9.16494 148.958 8.51466 150.247 8.51466C152.27 8.51466 153.51 9.93564 153.51 11.8383V17.7028H151.27V12.4163C151.27 11.3205 150.56 10.5859 149.536 10.5859C148.452 10.5859 147.682 11.4409 147.682 12.5608V17.6908H145.454V17.7149Z" fill="white"/>
<path fill-rule="evenodd" clip-rule="evenodd" d="M22.0561 24H8.4966L10.7124 20.3151C11.6637 18.7255 13.3857 17.7622 15.2402 17.7622H22.0681V24H22.0561ZM0.332031 0H22.0561L18.3109 6.24987H0.332031V0ZM8.94216 9.76618C9.98983 8.03211 11.8684 6.9724 13.9035 6.9724H17.9376L7.6657 24H0.356116L8.94216 9.76618Z" fill="white"/>
</g>
<defs>
<clipPath id="clip0_8099_108663">
<rect width="153.273" height="24" fill="white" transform="translate(0.332031)"/>
</clipPath>
</defs>
</svg>
