<svg width="136" height="28" viewBox="0 0 136 28" fill="none" xmlns="http://www.w3.org/2000/svg">
<g clip-path="url(#clip0_8099_108622)">
<path d="M28 0H0V28H28V0Z" fill="#F26625"/>
<path d="M13.0682 15.8658L8.21484 6.8125H10.4548L13.2548 12.5058C13.2548 12.5992 13.3482 12.6925 13.4415 12.7858C13.5348 12.8792 13.5348 12.9725 13.6282 13.1592L13.7215 13.2525V13.3458C13.8148 13.5325 13.8148 13.6258 13.9082 13.8125C14.0015 13.9058 14.0015 14.0925 14.0948 14.1858C14.1882 13.9058 14.3748 13.7192 14.4682 13.3458C14.5615 13.0658 14.7482 12.7858 14.9348 12.5058L17.7348 6.8125H19.7882L14.9348 15.9592V21.7458H13.0682V15.8658Z" fill="white"/>
<path d="M40.7867 5.41016C42.1867 5.41016 43.4 5.78349 44.3333 6.53016L43.4 7.65016C42.56 7.09016 41.72 6.71682 40.6933 6.71682C39.1067 6.71682 37.8933 7.55682 37.24 9.14349C36.8667 10.0768 36.68 11.2902 36.68 12.8768C36.68 14.0902 36.8667 15.1168 37.1467 15.8635C37.8933 17.6368 39.1067 18.4768 40.9733 18.4768C42 18.4768 42.9333 18.1968 43.7733 17.5435L44.7067 18.7568C43.4933 19.5035 42.1867 19.8768 40.7867 19.8768C39.1067 19.8768 37.7067 19.2235 36.5867 17.8235C35.4667 16.5168 35 14.7435 35 12.5968C35 10.4502 35.56 8.77016 36.68 7.37016C37.7067 6.15682 39.1067 5.41016 40.7867 5.41016Z" fill="#F26625"/>
<path d="M46.1055 14.6516C46.1055 12.9716 46.4788 11.6649 47.3188 10.7316C48.1588 9.79828 49.1855 9.23828 50.4921 9.23828C51.9855 9.23828 53.1988 9.79828 54.0388 11.0116C54.6921 11.9449 54.9721 13.2516 54.9721 14.8383C54.9721 16.7049 54.4121 18.1983 53.3855 19.1316C52.6388 19.7849 51.7055 20.1583 50.5855 20.1583C49.1855 20.1583 48.1588 19.6916 47.3188 18.6649C46.4788 17.7316 46.1055 16.3316 46.1055 14.6516ZM52.6388 11.9449C52.1721 11.1049 51.5188 10.6383 50.4921 10.6383C49.4655 10.6383 48.8121 11.0116 48.3455 11.7583C47.9721 12.3183 47.8788 13.2516 47.8788 14.4649C47.8788 16.0516 48.0655 17.1716 48.5321 17.8249C48.9988 18.4783 49.6521 18.8516 50.5855 18.8516C51.7055 18.8516 52.4521 18.2916 52.8255 17.2649C53.0121 16.7049 53.1055 15.9583 53.1055 15.0249C53.1988 13.6249 53.0121 12.5983 52.6388 11.9449Z" fill="#F26625"/>
<path d="M57.9593 12.1316C57.9593 11.1049 57.8659 10.2649 57.5859 9.61162L59.1726 9.23828C59.4526 9.70495 59.5459 10.2649 59.5459 10.7316V10.8249C59.9193 10.4516 60.2926 10.0783 60.8526 9.79828C61.5059 9.42495 62.0659 9.23828 62.6259 9.23828C63.4659 9.23828 64.2126 9.61161 64.6793 10.2649C64.7726 10.4516 64.9593 10.7316 65.0526 10.9183C66.1726 9.79828 67.1993 9.23828 68.3193 9.23828C69.0659 9.23828 69.7193 9.51828 70.1859 9.98495C70.6526 10.5449 70.9326 11.1983 70.9326 11.9449V19.6916H69.2526V12.0383C69.2526 11.0116 68.7859 10.5449 67.9459 10.5449C67.4793 10.5449 66.9193 10.7316 66.4526 11.1049C66.2659 11.2916 65.8926 11.5716 65.4259 11.9449L65.2393 12.1316V19.6916H63.4659V12.4116C63.4659 11.7583 63.3726 11.2916 63.1859 11.1049C62.9059 10.8249 62.6259 10.7316 62.1593 10.7316C61.4126 10.7316 60.5726 11.1983 59.5459 12.1316V19.7849H57.9593V12.1316Z" fill="#F26625"/>
<path d="M73.8242 5.0374L75.5042 4.66406C75.6909 5.41073 75.7842 6.25073 75.7842 7.2774V9.61073C75.7842 10.1707 75.7842 10.5441 75.7842 10.7307C76.7176 9.7974 77.7442 9.33073 78.7709 9.33073C79.9842 9.33073 81.0109 9.7974 81.6642 10.7307C82.4109 11.6641 82.7842 12.9707 82.7842 14.5574C82.7842 16.2374 82.4109 17.5441 81.6642 18.5707C80.9176 19.5974 79.8909 20.0641 78.6776 20.0641C78.1176 20.0641 77.6509 19.9707 77.0909 19.6907C76.5309 19.4107 76.1576 19.1307 75.8776 18.7574C75.7842 19.2241 75.6909 19.5974 75.5976 19.8774H74.0109C74.1976 19.4107 74.2909 18.5707 74.2909 17.2641V7.46406C74.1976 6.34406 74.1042 5.50406 73.8242 5.0374ZM76.5309 11.3841C76.2509 11.5707 75.9709 11.8507 75.7842 12.1307V17.4507C76.4376 18.2907 77.2776 18.6641 78.3042 18.6641C79.1442 18.6641 79.7976 18.3841 80.1709 17.7307C80.6376 16.9841 80.9176 15.9574 80.9176 14.4641C80.9176 13.1574 80.7309 12.2241 80.2642 11.6641C79.8909 11.1041 79.2376 10.8241 78.3042 10.8241C77.7442 10.7307 77.0909 10.9174 76.5309 11.3841Z" fill="#F26625"/>
<path d="M85.2148 6.34182C85.2148 5.96849 85.3082 5.68849 85.5882 5.40849C85.8682 5.12849 86.1482 5.03516 86.5215 5.03516C86.8948 5.03516 87.1748 5.12849 87.4548 5.40849C87.7348 5.68849 87.8282 5.96849 87.8282 6.34182C87.8282 6.71516 87.7348 6.99516 87.4548 7.27516C87.1748 7.55516 86.8948 7.64849 86.5215 7.64849C86.1482 7.64849 85.8682 7.55516 85.5882 7.27516C85.3082 6.99516 85.2148 6.71516 85.2148 6.34182ZM85.5882 19.7818V9.51516L87.2682 9.23516V19.7818H85.5882Z" fill="#F26625"/>
<path d="M90.9081 12.1316C90.9081 11.3849 90.9081 10.9183 90.8147 10.7316C90.8147 10.4516 90.6281 10.1716 90.4414 9.70495L92.0281 9.23828C92.3081 9.79828 92.4014 10.2649 92.4014 10.8249C93.4281 9.79828 94.5481 9.23828 95.6681 9.23828C96.2281 9.23828 96.6947 9.33162 97.1614 9.61162C97.6281 9.89162 98.0014 10.2649 98.1881 10.7316C98.3747 11.1049 98.4681 11.4783 98.4681 11.9449V19.7849H96.8814V12.7849C96.8814 11.9449 96.7881 11.3849 96.5081 11.1049C96.2281 10.8249 95.8547 10.6383 95.3881 10.6383C95.0147 10.6383 94.4547 10.8249 93.8947 11.1049C93.3347 11.3849 92.8681 11.7583 92.4947 12.1316V19.7849H90.9081V12.1316Z" fill="#F26625"/>
<path d="M102.201 11.7583L101.361 10.6383C102.761 9.70495 104.161 9.23828 105.655 9.23828C107.148 9.23828 108.081 9.79828 108.548 10.8249C108.735 11.1983 108.735 11.7583 108.735 12.5983V13.1583L108.641 16.5183C108.641 16.6116 108.641 16.7983 108.641 16.9849C108.641 17.5449 108.641 17.9183 108.735 18.1983C108.828 18.5716 109.108 18.8516 109.481 19.0383L108.641 20.1583C107.895 19.8783 107.428 19.4116 107.241 18.6649C106.308 19.5983 105.281 20.0649 104.255 20.0649C103.228 20.0649 102.388 19.7849 101.735 19.2249C101.175 18.7583 100.895 18.0116 100.895 17.0783C100.895 15.8649 101.361 15.0249 102.295 14.3716C103.228 13.7183 104.628 13.4383 106.308 13.4383C106.588 13.4383 106.775 13.4383 107.055 13.4383V12.6916C107.055 11.8516 106.961 11.2916 106.681 11.1049C106.308 10.7316 105.935 10.5449 105.281 10.5449C104.721 10.5449 104.068 10.7316 103.321 11.0116C103.041 11.1983 102.668 11.4783 102.201 11.7583ZM107.148 17.2649L107.241 14.5583C106.775 14.5583 106.495 14.5583 106.401 14.5583C104.908 14.5583 103.975 14.8383 103.415 15.3983C103.041 15.7716 102.855 16.3316 102.855 17.0783C102.855 18.2916 103.415 18.9449 104.628 18.9449C105.748 18.8516 106.588 18.2916 107.148 17.2649Z" fill="#F26625"/>
<path d="M114.053 9.51792H116.666L116.2 10.8246H114.053V17.4513C114.053 18.0113 114.146 18.3846 114.333 18.6646C114.52 18.8513 114.893 19.0379 115.36 19.0379C115.733 19.0379 116.106 18.9446 116.386 18.8513L116.573 19.8779C116.013 20.1579 115.453 20.2513 114.8 20.2513C113.213 20.2513 112.466 19.5046 112.466 17.9179V10.8246H111.066V9.51792H112.373V9.33125C112.373 9.14458 112.466 8.39792 112.56 7.18458V6.90458L114.24 6.53125C114.053 7.65125 114.053 8.67792 114.053 9.51792Z" fill="#F26625"/>
<path d="M118.348 14.6516C118.348 12.9716 118.721 11.6649 119.561 10.7316C120.308 9.79828 121.428 9.23828 122.734 9.23828C124.228 9.23828 125.441 9.79828 126.281 11.0116C126.934 11.9449 127.214 13.2516 127.214 14.8383C127.214 16.7049 126.654 18.1983 125.628 19.1316C124.881 19.7849 123.948 20.1583 122.828 20.1583C121.428 20.1583 120.401 19.6916 119.561 18.6649C118.814 17.7316 118.348 16.3316 118.348 14.6516ZM124.974 11.9449C124.508 11.1049 123.854 10.6383 122.828 10.6383C121.801 10.6383 121.148 11.0116 120.681 11.7583C120.308 12.3183 120.214 13.2516 120.214 14.4649C120.214 16.0516 120.401 17.1716 120.868 17.8249C121.334 18.4783 121.988 18.8516 122.921 18.8516C124.041 18.8516 124.788 18.2916 125.161 17.2649C125.348 16.7049 125.441 15.9583 125.441 15.0249C125.441 13.6249 125.254 12.5983 124.974 11.9449Z" fill="#F26625"/>
<path d="M130.295 11.9449C130.295 11.0116 130.202 10.2649 129.922 9.70495L131.509 9.23828C131.789 9.79828 131.882 10.2649 131.882 10.8249V11.0116C132.722 9.89162 133.655 9.33161 134.775 9.33161C134.962 9.33161 135.149 9.33162 135.335 9.42495L134.682 11.1983C134.495 11.1049 134.309 11.1049 134.215 11.1049C133.842 11.1049 133.375 11.1983 133.002 11.4783C132.629 11.7583 132.255 12.0383 132.069 12.4116C131.975 12.6916 131.882 13.0649 131.882 13.5316V19.9716H130.295V11.9449Z" fill="#F26625"/>
</g>
<defs>
<clipPath id="clip0_8099_108622">
<rect width="135.333" height="28" fill="white"/>
</clipPath>
</defs>
</svg>
