<svg width="45" height="40" viewBox="0 0 45 40" fill="none" xmlns="http://www.w3.org/2000/svg">
<g clip-path="url(#clip0_8099_108583)">
<path d="M44.616 0H0.953125V40H44.616V0Z" fill="#DC0606"/>
<path d="M37.2909 29.3047L36.0838 29.055V32.1351L31.7134 29.4296V34.2163L32.9621 34.466V31.8021L37.3325 34.6325V29.3047H37.2909ZM39.2056 26.5159L31.6717 23.5191V24.9759L35.3346 26.3495L31.6717 27.6398V29.2215L36.9995 27.1819L39.1639 28.1393V26.5159H39.2056ZM37.2909 18.1497H33.3783C32.2128 18.1497 31.5885 18.9405 31.5885 19.8562C31.5885 20.7303 32.0047 21.2714 32.5042 21.646L31.7134 21.7293V23.1028H37.3325V21.646H33.7113C33.1702 21.2298 32.9621 20.7303 32.9621 20.3141C32.9621 19.8978 33.1702 19.5649 33.8778 19.5649H37.3325V18.1497H37.2909ZM39.0391 16.9426C39.1639 16.5264 39.2888 15.9436 39.2888 14.9863C39.2888 13.3214 38.3731 12.5305 36.5 12.5305H31.6717V13.8625L32.0464 13.9041C31.755 14.1955 31.5469 14.7366 31.5469 15.2777C31.5469 16.8177 32.6707 17.6502 34.4189 17.6502C36.0422 17.6502 37.166 16.8593 37.166 15.4441C37.166 14.903 36.9163 14.3203 36.4584 13.9873H36.7914C37.499 13.9873 37.9985 14.3619 37.9985 15.236C37.9985 15.9436 37.8736 16.3599 37.7487 16.7345L39.0391 16.9426ZM32.7956 15.0279C32.7956 14.6533 32.9621 14.2371 33.1702 13.9457H35.3346C35.6676 14.2371 35.8757 14.6533 35.8757 15.1944C35.8757 15.6939 35.5427 16.1101 34.4189 16.1101C33.4199 16.1101 32.7956 15.8188 32.7956 15.0279ZM37.2909 6.82812H31.6717V8.16007L32.0464 8.20169C31.755 8.49306 31.5469 9.03416 31.5469 9.57526C31.5469 11.1153 32.7539 11.9478 34.5438 11.9478C36.1671 11.9478 37.4158 11.1569 37.4158 9.74176C37.4158 9.20065 37.166 8.61793 36.7082 8.28494L37.2909 8.20169V6.82812ZM32.7956 9.36715C32.7956 8.99254 32.9621 8.5763 33.1702 8.28494H35.5427C35.8757 8.5763 36.0838 8.99254 36.0838 9.53364C36.0838 10.0331 35.626 10.4494 34.5021 10.4494C33.5032 10.4494 32.7956 10.158 32.7956 9.36715Z" fill="white"/>
<path d="M35.125 4.99627C35.125 4.41354 35.5829 3.91406 36.2072 3.91406C36.8316 3.91406 37.2894 4.41354 37.2894 4.99627C37.2894 5.579 36.8316 6.07847 36.2072 6.07847C35.6245 6.07847 35.125 5.579 35.125 4.99627ZM37.1645 4.99627C37.1645 4.49679 36.7483 4.12218 36.2488 4.12218C35.7077 4.12218 35.3331 4.49679 35.3331 4.99627C35.3331 5.49575 35.7494 5.91198 36.2488 5.91198C36.7483 5.87036 37.1645 5.49575 37.1645 4.99627ZM35.5829 5.4125V4.91302C35.5829 4.62166 35.7077 4.45517 35.9575 4.45517C36.2072 4.45517 36.2905 4.62166 36.2905 4.78815L36.8732 4.41354V4.62166L36.3321 4.99627V5.20439H36.8732V5.4125H35.5829ZM36.1656 5.20439V4.99627C36.1656 4.82978 36.1656 4.66328 35.9575 4.66328C35.791 4.66328 35.7493 4.82978 35.7493 4.95465V5.20439H36.1656Z" fill="white"/>
<path d="M25.9287 7.03296C26.3449 6.53348 26.9693 6.07562 27.8433 6.82484C28.6758 7.57406 29.425 8.24004 29.1753 8.48978C29.0088 8.65627 28.6342 8.44815 28.4261 8.32328C28.1347 8.48978 27.9682 8.69789 27.885 9.03088C27.8017 9.40549 27.6768 9.7801 27.5104 9.86335C27.7185 10.8623 27.5936 12.777 27.2606 13.3597V14.4419C28.1763 16.1068 28.8007 20.6022 27.5936 22.6833C27.5936 22.6833 27.5936 25.3472 27.0525 26.5127C27.0525 26.5127 26.4698 29.0517 26.6363 30.3836C26.9276 30.5085 27.5936 30.9247 27.7185 31.1329C27.8433 31.341 27.885 31.7156 27.885 31.7988C27.552 32.3816 25.8038 32.4232 25.013 31.7988C24.8465 31.2577 25.1378 29.0933 25.0546 27.803C24.9713 26.5127 24.8465 26.0132 24.5967 24.265C23.5145 24.5147 22.3074 24.598 21.0171 24.4731C20.6841 25.9299 20.1014 28.0527 20.0182 29.3431C19.9765 30.3004 19.8933 33.0059 19.8933 33.0059C19.9349 33.2973 20.1014 33.5054 20.1014 33.6719C20.143 33.9216 20.1847 34.2962 20.1014 34.5043C19.6435 35.3784 17.6456 35.2536 17.3543 34.546C17.3543 34.3379 17.3959 33.88 17.5208 33.7135C17.6456 33.5054 18.0619 33.214 18.1867 32.9643C18.3116 32.0486 18.3948 28.6771 18.1451 27.8862C17.7705 27.1786 17.5208 25.264 17.4375 23.5574C17.2294 23.4742 16.1888 22.8914 15.2315 22.2671C14.8985 23.3909 14.1493 23.9736 14.1493 23.9736L14.4823 25.5553C14.732 25.597 15.4396 25.8883 15.5645 26.0964C15.6893 26.3046 15.6893 26.5127 15.6893 26.6792C15.4812 27.0538 13.9828 27.0121 13.6914 26.6375L12.6092 23.5158C12.6092 23.5158 12.9838 22.4752 12.8173 21.06C9.61233 21.393 8.65499 25.5137 8.28038 27.47L8.36363 27.7614C8.36363 27.8446 8.36363 28.136 8.36363 28.2608C8.07227 28.7603 6.57383 28.6771 6.19922 28.2608C6.19922 28.0944 6.24084 27.8446 6.36571 27.6781C6.49058 27.5116 7.03168 27.137 7.15655 27.0121L7.86415 24.1818C7.98902 21.0184 8.77986 18.0215 10.0702 16.4398C8.28038 14.2338 8.4885 11.778 9.90369 10.4877C10.0702 10.3628 10.3199 10.1963 10.4032 10.238C10.528 10.3212 10.4864 10.4044 10.3199 10.6542C9.32097 12.1526 9.48746 14.1922 11.3605 15.2744C13.5249 13.9424 19.7268 13.6511 19.7268 13.6511L19.8933 13.0683C19.7684 12.8602 19.5603 11.778 19.6019 11.1953C19.5187 11.1537 19.3106 10.9456 19.1024 10.7374C18.8527 10.5293 18.5613 10.5293 18.4365 10.3628C17.7289 11.2369 17.937 10.1131 18.0202 9.69685C18.1867 8.90601 18.3116 7.74056 19.5603 7.65731C19.8517 7.61569 20.4344 7.65731 20.6841 7.94867C20.8922 7.61569 22.6821 7.24108 23.015 7.2827C23.4313 6.99134 25.7622 6.90809 25.9287 7.03296Z" fill="white"/>
</g>
<defs>
<clipPath id="clip0_8099_108583">
<rect width="43.6628" height="40" fill="white" transform="translate(0.953125)"/>
</clipPath>
</defs>
</svg>
