<svg viewBox="0 0 32 24" fill="none" xmlns="http://www.w3.org/2000/svg">
<path d="M25.5907 6.71397C24.6001 5.01775 23.2566 3.67485 21.5596 2.68497C19.8623 1.69503 18.0094 1.2002 15.9996 1.2002C13.99 1.2002 12.1365 1.69519 10.4396 2.68497C8.74249 3.6748 7.39896 5.01775 6.40843 6.71397C5.41806 8.41013 4.92285 10.2624 4.92285 12.2706C4.92285 14.683 5.62705 16.8522 7.03579 18.7789C8.44439 20.7057 10.2641 22.0391 12.4947 22.779C12.7544 22.8271 12.9466 22.7933 13.0716 22.6782C13.1966 22.563 13.259 22.4187 13.259 22.2459C13.259 22.2171 13.2566 21.9577 13.2518 21.4675C13.2468 20.9773 13.2445 20.5497 13.2445 20.1848L12.9128 20.2422C12.7012 20.2809 12.4344 20.2973 12.1123 20.2926C11.7903 20.2882 11.456 20.2544 11.1099 20.1917C10.7637 20.1296 10.4416 19.9854 10.1436 19.7596C9.84561 19.5338 9.6341 19.2381 9.50907 18.8732L9.36485 18.5415C9.26871 18.3207 9.11737 18.0753 8.9106 17.8064C8.70384 17.5373 8.49475 17.3548 8.28324 17.2587L8.18226 17.1865C8.11497 17.1385 8.05253 17.0806 7.99479 17.0134C7.9371 16.9462 7.89391 16.8789 7.86507 16.8116C7.83617 16.7442 7.86012 16.6889 7.93716 16.6455C8.01419 16.6021 8.15342 16.5811 8.35543 16.5811L8.64378 16.6241C8.83609 16.6627 9.07397 16.7777 9.35772 16.97C9.64132 17.1622 9.87445 17.412 10.0572 17.7194C10.2784 18.1135 10.545 18.4138 10.8577 18.6205C11.17 18.8271 11.485 18.9303 11.8023 18.9303C12.1195 18.9303 12.3935 18.9062 12.6244 18.8584C12.855 18.8104 13.0713 18.7381 13.2733 18.6421C13.3599 17.9979 13.5955 17.5031 13.98 17.1572C13.432 17.0996 12.9393 17.013 12.5017 16.8977C12.0643 16.7823 11.6123 16.595 11.146 16.3352C10.6795 16.0759 10.2925 15.7538 9.98493 15.3696C9.67729 14.9852 9.42481 14.4805 9.22785 13.856C9.03078 13.2312 8.93222 12.5106 8.93222 11.6938C8.93222 10.5308 9.31211 9.54108 10.0717 8.72417C9.71588 7.84981 9.74948 6.86962 10.1726 5.78371C10.4514 5.69712 10.865 5.7621 11.413 5.97824C11.9611 6.19449 12.3624 6.37973 12.6173 6.53332C12.8722 6.68685 13.0764 6.81696 13.2303 6.92248C14.1247 6.67272 15.0477 6.54781 15.9995 6.54781C16.9513 6.54781 17.8745 6.67272 18.7689 6.92248L19.317 6.57669C19.6918 6.34595 20.1344 6.13451 20.6437 5.9423C21.1533 5.75019 21.5429 5.69727 21.8123 5.78386C22.2448 6.86982 22.2834 7.84996 21.9274 8.72432C22.687 9.54123 23.067 10.5312 23.067 11.6939C23.067 12.5107 22.9681 13.2337 22.7713 13.8632C22.5743 14.4929 22.3197 14.997 22.0073 15.3768C21.6945 15.7565 21.3051 16.0761 20.8388 16.3354C20.3724 16.5949 19.9203 16.7822 19.4829 16.8976C19.0454 17.0131 18.5527 17.0998 18.0047 17.1575C18.5045 17.5897 18.7544 18.2721 18.7544 19.2042V22.2455C18.7544 22.4183 18.8146 22.5625 18.9349 22.6778C19.0551 22.7928 19.2449 22.8267 19.5045 22.7785C21.7355 22.0387 23.5552 20.7053 24.9637 18.7785C26.3721 16.8518 27.0765 14.6825 27.0765 12.2702C27.076 10.2622 26.5806 8.41013 25.5907 6.71397Z" fill="#AFACC9"/>
<defs>
<clipPath id="clip0">
<rect width="22.1538" height="21.6" fill="white" transform="translate(4.92285 1.2002)"/>
</clipPath>
</defs>
</svg>
