<svg viewBox="0 0 32 25" fill="none" xmlns="http://www.w3.org/2000/svg">
<path fill-rule="evenodd" clip-rule="evenodd" d="M7.60784 2.46143C6.80603 2.46143 6.15381 3.09206 6.15381 3.87142V20.7437C6.15381 21.5231 6.80603 22.1537 7.60784 22.1537H24.3801C25.1819 22.1537 25.8341 21.5231 25.8341 20.7437V3.87142C25.8341 3.09206 25.1849 2.46143 24.3801 2.46143H7.60784ZM12.1195 10.0528V18.9441H9.14563V10.0528H12.1195ZM12.317 7.3042C12.317 8.15496 11.6707 8.83913 10.6356 8.83913H10.6176C9.62134 8.83913 8.9751 8.15793 8.9751 7.3042C8.9751 6.42965 9.63929 5.7663 10.6565 5.7663C11.6707 5.7663 12.296 6.43263 12.317 7.3042ZM16.7389 18.9471H13.765C13.765 18.9471 13.8039 10.8887 13.768 10.0587H16.7419V11.3145C17.1379 10.7089 17.8442 9.84755 19.4196 9.84755C21.3763 9.84755 22.8423 11.1177 22.8423 13.8485V18.9471H19.8684V14.1906C19.8684 12.9947 19.4376 12.1797 18.3635 12.1797C17.5407 12.1797 17.0531 12.727 16.8377 13.2595C16.7599 13.4469 16.7389 13.7146 16.7389 13.9794V18.9471Z" fill="#AFACC9"/>
<defs>
<clipPath id="clip0">
<rect width="19.6923" height="19.6923" fill="white" transform="translate(6.15381 2.46143)"/>
</clipPath>
</defs>
</svg>
