<svg viewBox="0 0 32 25" fill="none" xmlns="http://www.w3.org/2000/svg">
<path d="M24.3929 7.93997C24.3929 8.10025 24.3929 8.34068 24.3929 8.50097C24.3929 14.2713 20.1781 20.843 12.5148 20.843C10.1392 20.843 7.99348 20.1217 6.1543 18.9196C6.46083 18.9196 6.84399 18.9997 7.15052 18.9997C9.14298 18.9997 10.9055 18.2784 12.2849 17.1564C10.4457 17.1564 8.91308 15.8741 8.37665 14.111C8.60655 14.1911 8.91308 14.1911 9.14298 14.1911C9.52614 14.1911 9.9093 14.111 10.2158 14.0308C8.30002 13.6301 6.84399 11.867 6.84399 9.78326C6.84399 9.78326 6.84399 9.78326 6.84399 9.70312C7.53369 10.0237 8.14675 10.184 8.83644 10.184C7.68695 9.38254 6.99726 8.10025 6.99726 6.57753C6.99726 5.7761 7.22716 5.05482 7.53369 4.41367C9.60277 7.05839 12.6681 8.7414 16.1166 8.98183C16.0399 8.66125 16.0399 8.34068 16.0399 8.02011C16.0399 5.61582 17.8791 3.69238 20.1781 3.69238C21.4042 3.69238 22.4771 4.25338 23.2434 5.05482C24.163 4.89453 25.0826 4.49381 25.9256 4.01296C25.619 5.05482 24.9293 5.85625 24.0864 6.41725C24.9293 6.33711 25.6957 6.09668 26.462 5.69596C25.8489 6.49739 25.1592 7.29882 24.3929 7.93997Z" fill="#AFACC9"/>
</svg>
