<svg viewBox="0 0 32 24" fill="none" xmlns="http://www.w3.org/2000/svg">
<path d="M15.9887 1.2002C9.87424 1.2002 4.92285 6.0386 4.92285 12.0002C4.92285 17.9618 9.87424 22.8002 15.9887 22.8002C22.1142 22.8002 27.0767 17.9618 27.0767 12.0002C27.0767 6.0386 22.1142 1.2002 15.9887 1.2002ZM23.665 7.68019H20.3973C20.0429 6.33019 19.5333 5.0342 18.8687 3.8354C20.9069 4.5158 22.6016 5.89819 23.665 7.68019ZM15.9998 3.4034C16.9192 4.6994 17.6392 6.1358 18.1155 7.68019H13.8841C14.3604 6.1358 15.0804 4.6994 15.9998 3.4034ZM7.42624 14.1602C7.24901 13.469 7.13824 12.7454 7.13824 12.0002C7.13824 11.255 7.24901 10.5314 7.42624 9.84019H11.1702C11.0816 10.553 11.0152 11.2658 11.0152 12.0002C11.0152 12.7346 11.0816 13.4474 11.1702 14.1602H7.42624ZM8.33454 16.3202H11.6022C11.9567 17.6702 12.4662 18.9662 13.1309 20.165C11.0927 19.4846 9.39793 18.113 8.33454 16.3202ZM11.6022 7.68019H8.33454C9.39793 5.88739 11.0927 4.5158 13.1309 3.8354C12.4662 5.0342 11.9567 6.33019 11.6022 7.68019ZM15.9998 20.597C15.0804 19.301 14.3604 17.8646 13.8841 16.3202H18.1155C17.6392 17.8646 16.9192 19.301 15.9998 20.597ZM18.5918 14.1602H13.4078C13.3081 13.4474 13.2305 12.7346 13.2305 12.0002C13.2305 11.2658 13.3081 10.5422 13.4078 9.84019H18.5918C18.6915 10.5422 18.769 11.2658 18.769 12.0002C18.769 12.7346 18.6915 13.4474 18.5918 14.1602ZM18.8687 20.165C19.5333 18.9662 20.0429 17.6702 20.3973 16.3202H23.665C22.6016 18.1022 20.9069 19.4846 18.8687 20.165ZM20.8293 14.1602C20.9179 13.4474 20.9844 12.7346 20.9844 12.0002C20.9844 11.2658 20.9179 10.553 20.8293 9.84019H24.5733C24.7505 10.5314 24.8613 11.255 24.8613 12.0002C24.8613 12.7454 24.7505 13.469 24.5733 14.1602H20.8293Z" fill="#AFACC9"/>
</svg>
