<svg width="60" height="60" viewBox="0 0 60 60" fill="none" xmlns="http://www.w3.org/2000/svg">
<path d="M30 60C46.5685 60 60 46.5685 60 30C60 13.4315 46.5685 0 30 0C13.4315 0 0 13.4315 0 30C0 46.5685 13.4315 60 30 60Z" fill="#231D65"/>
<path d="M8.93567 29.168H8.26367C8.26367 17.272 17.9437 7.59998 29.8317 7.59998C40.4077 7.59998 49.3517 15.16 51.1037 25.568L50.4397 25.68C48.7437 15.592 40.0797 8.27198 29.8317 8.27198C18.3117 8.27198 8.93567 17.648 8.93567 29.168Z" fill="#937DFF"/>
<path d="M8.93567 29.168H8.26367C8.26367 17.272 17.9437 7.59998 29.8317 7.59998C40.4077 7.59998 49.3517 15.16 51.1037 25.568L50.4397 25.68C48.7437 15.592 40.0797 8.27198 29.8317 8.27198C18.3117 8.27198 8.93567 17.648 8.93567 29.168Z" stroke="#937DFF"/>
<path d="M50.9676 26.456L47.4556 24.32L47.8076 23.744L50.7436 25.528L52.5276 22.592L53.1036 22.944L50.9676 26.456Z" fill="#937DFF"/>
<path d="M50.9676 26.456L47.4556 24.32L47.8076 23.744L50.7436 25.528L52.5276 22.592L53.1036 22.944L50.9676 26.456Z" stroke="#937DFF"/>
<path d="M30.0718 51.768C19.4958 51.768 10.5518 44.208 8.7998 33.8L9.4638 33.688C11.1598 43.776 19.8238 51.096 30.0718 51.096C41.5918 51.096 50.9678 41.72 50.9678 30.2H51.6478C51.6398 42.088 41.9678 51.768 30.0718 51.768Z" fill="#937DFF"/>
<path d="M30.0718 51.768C19.4958 51.768 10.5518 44.208 8.7998 33.8L9.4638 33.688C11.1598 43.776 19.8238 51.096 30.0718 51.096C41.5918 51.096 50.9678 41.72 50.9678 30.2H51.6478C51.6398 42.088 41.9678 51.768 30.0718 51.768Z" stroke="#937DFF"/>
<path d="M7.3758 36.768L6.7998 36.416L8.9358 32.904L12.4478 35.04L12.0958 35.616L9.15981 33.832L7.3758 36.768Z" fill="#937DFF"/>
<path d="M7.3758 36.768L6.7998 36.416L8.9358 32.904L12.4478 35.04L12.0958 35.616L9.15981 33.832L7.3758 36.768Z" stroke="#937DFF"/>
<path d="M24.1208 26.6544H19.0439V40.7571H24.1208V26.6544Z" fill="#8676E8"/>
<path d="M32.4788 23.2849H27.4019V40.7571H32.4788V23.2849Z" fill="#8676E8"/>
<path d="M40.8362 18.8H35.7593V40.757H40.8362V18.8Z" fill="#8676E8"/>
<path d="M42.8002 40.322H17.2002V41.2H42.8002V40.322Z" fill="#937DFF"/>
</svg>
