<svg width="40" height="40" viewBox="0 0 40 40" fill="none" xmlns="http://www.w3.org/2000/svg">
<circle cx="20" cy="20" r="20" fill="#937DFF"/>
<path d="M9.1001 15.4802L20.0401 22.0402L31.0001 15.4802L20.0401 8.91016L9.1001 15.4802Z" fill="#AFACC9"/>
<path d="M9.1101 27.3102L20.0401 33.8802V22.0402L9.1001 15.4702L9.1101 27.3102Z" fill="white"/>
<path d="M30.98 27.3L20.04 33.88V22.04L31 15.48L30.98 27.3Z" fill="#38336D"/>
<path d="M20.0502 6C16.5402 6 13.7002 8.84 13.7002 12.35C13.7002 13.51 14.0202 14.6 14.5702 15.54H19.5702V14.55H18.1502V13.59H19.5702H20.5302H20.5402C20.5402 13.59 20.9902 13.57 20.9902 13.18C20.9902 12.95 20.8502 12.72 20.5302 12.71L19.5802 12.7C18.7902 12.69 18.1502 12.06 18.1502 11.29C18.1502 10.38 18.8702 9.84 19.5602 9.84V8.86H20.5202V9.85H21.7102V10.81H20.5202H19.5602C19.4002 10.81 19.1002 10.91 19.1002 11.3C19.1002 11.54 19.3202 11.74 19.5702 11.74L20.5202 11.75C21.3302 11.76 21.9302 12.37 21.9302 13.18C21.9302 14.13 21.1002 14.55 20.5202 14.55H20.5102V15.54H25.5102C26.0602 14.6 26.3802 13.51 26.3802 12.35C26.4002 8.84 23.5502 6 20.0502 6Z" fill="white"/>
<path d="M20.5304 14.5499H20.5404C21.1304 14.5499 21.9504 14.1199 21.9504 13.1799C21.9504 12.3699 21.3404 11.7599 20.5404 11.7499L19.5904 11.7399C19.3304 11.7399 19.1204 11.5299 19.1204 11.2999C19.1204 10.9099 19.4204 10.8099 19.5804 10.8099H20.5404H21.7304V9.83986H20.5404V8.85986H19.5804V9.84986C18.8804 9.84986 18.1704 10.3899 18.1704 11.2999C18.1704 12.0699 18.8104 12.6999 19.6004 12.7099L20.5504 12.7199C20.8704 12.7199 21.0104 12.9599 21.0104 13.1899C21.0104 13.5799 20.5604 13.5999 20.5604 13.5999H20.5504H19.5904H18.1704V14.5599H19.5904V15.5499H20.5504V14.5499H20.5304Z" fill="#38336D"/>
</svg>
