<svg width="1440" height="242" viewBox="0 0 1440 242" fill="none" xmlns="http://www.w3.org/2000/svg">
<path d="M1352.14 26.6057C1288.31 -33.2572 1237.05 26.6057 1237.05 26.6057C1237.05 26.6057 1185.79 86.4687 1121.95 26.6057C1058.11 -33.2572 1006.86 26.6057 1006.86 26.6057C1006.86 26.6057 955.59 86.4687 891.76 26.6057C827.93 -33.2572 776.66 26.6057 776.66 26.6057C776.66 26.6057 725.4 86.4687 661.57 26.6057C640.57 6.97071 621.02 0.226149 604.14 0.016629C569.59 -0.402412 546.45 26.6057 546.45 26.6057C546.45 26.6057 495.19 86.4687 431.35 26.6057C367.51 -33.2572 316.26 26.6057 316.26 26.6057C316.26 26.6057 265 86.4687 201.16 26.6057C137.32 -33.2572 86.07 26.6057 86.07 26.6057C86.07 26.6057 49.66 69.0885 0 46.6499V109.426C49.66 131.875 86.07 89.392 86.07 89.392C86.07 89.392 137.33 29.5291 201.16 89.392C264.99 149.255 316.26 89.392 316.26 89.392C316.26 89.392 367.52 29.5291 431.35 89.392C495.18 149.255 546.45 89.392 546.45 89.392C546.45 89.392 569.59 62.3738 604.14 62.8029C621.02 63.0024 640.61 69.7869 661.57 89.392C725.4 149.255 776.66 89.392 776.66 89.392C776.66 89.392 827.93 29.5291 891.76 89.392C955.59 149.255 1006.86 89.392 1006.86 89.392C1006.86 89.392 1058.12 29.5291 1121.95 89.392C1185.78 149.255 1237.05 89.392 1237.05 89.392C1237.05 89.392 1288.31 29.5291 1352.14 89.392C1387.47 122.496 1418.93 118.954 1440 109.197V46.4204C1418.93 56.2179 1387.47 59.7099 1352.14 26.6057Z" fill="#160E6B"/>
<path d="M1352.14 152.617C1288.31 92.7545 1237.05 152.617 1237.05 152.617C1237.05 152.617 1185.79 212.48 1121.95 152.617C1058.11 92.7545 1006.86 152.617 1006.86 152.617C1006.86 152.617 955.59 212.48 891.76 152.617C827.93 92.7545 776.66 152.617 776.66 152.617C776.66 152.617 725.4 212.48 661.57 152.617C640.57 132.982 621.02 126.228 604.14 126.028C569.59 125.609 546.45 152.617 546.45 152.617C546.45 152.617 495.19 212.48 431.35 152.617C367.51 92.7545 316.26 152.617 316.26 152.617C316.26 152.617 265 212.48 201.16 152.617C137.32 92.7545 86.07 152.617 86.07 152.617C86.07 152.617 49.66 195.1 0 172.662V235.438C49.66 257.886 86.07 215.394 86.07 215.394C86.07 215.394 137.33 155.531 201.16 215.394C264.99 275.257 316.26 215.394 316.26 215.394C316.26 215.394 367.52 155.531 431.35 215.394C495.18 275.257 546.45 215.394 546.45 215.394C546.45 215.394 569.59 188.386 604.14 188.815C621.02 189.014 640.61 195.799 661.57 215.394C725.4 275.257 776.66 215.394 776.66 215.394C776.66 215.394 827.93 155.531 891.76 215.394C955.59 275.257 1006.86 215.394 1006.86 215.394C1006.86 215.394 1058.12 155.531 1121.95 215.394C1185.78 275.257 1237.05 215.394 1237.05 215.394C1237.05 215.394 1288.31 155.531 1352.14 215.394C1387.47 248.508 1418.93 244.966 1440 235.208V172.422C1418.93 182.19 1387.47 185.722 1352.14 152.617Z" fill="#160E6B"/>
</svg>
