<svg width="294" height="135" viewBox="0 0 294 135" fill="none" xmlns="http://www.w3.org/2000/svg">
<path d="M0 73.7154C0 73.7154 121.485 -88.8725 293.3 68.8806C293.3 68.8806 153.46 212.807 0 73.7154Z" fill="#7861D8"/>
<path d="M146.899 118.173C200.14 118.173 243.3 76.2088 243.3 76.2088C243.3 76.2088 200.14 34.2441 146.899 34.2441C93.6588 34.2441 50.499 76.2088 50.499 76.2088C50.499 76.2088 93.6588 118.173 146.899 118.173Z" fill="white"/>
<path d="M104.935 76.2101C104.931 67.9066 107.391 59.7889 112.003 52.8841C116.616 45.9794 123.172 40.5981 130.844 37.4213C138.516 34.2445 146.957 33.415 155.101 35.0378C163.244 36.6606 170.723 40.6627 176.591 46.5377C182.459 52.4126 186.452 59.8963 188.065 68.0416C189.678 76.1869 188.838 84.6275 185.652 92.2954C182.466 99.9632 177.076 106.514 170.166 111.117C163.256 115.721 155.135 118.171 146.832 118.158C135.717 118.14 125.063 113.713 117.208 105.849C109.353 97.9844 104.939 87.3251 104.935 76.2101Z" fill="#FFBE44"/>
<path d="M122.905 76.2091C122.905 71.4606 124.314 66.8188 126.954 62.8715C129.593 58.9242 133.345 55.8489 137.733 54.0348C142.121 52.2207 146.949 51.7496 151.606 52.6809C156.262 53.6122 160.537 55.9042 163.89 59.2666C167.243 62.629 169.523 66.9108 170.441 71.5696C171.359 76.2285 170.874 81.0551 169.048 85.4383C167.222 89.8215 164.136 93.5642 160.181 96.1926C156.226 98.8209 151.58 100.217 146.832 100.203C140.48 100.185 134.394 97.6496 129.909 93.1517C125.424 88.6539 122.905 82.5611 122.905 76.2091Z" fill="#0F0A45"/>
<path d="M135.343 76.2074C135.343 73.9187 136.022 71.6816 137.295 69.7796C138.568 67.8776 140.377 66.3963 142.493 65.5236C144.609 64.6509 146.936 64.426 149.18 64.8775C151.423 65.3289 153.483 66.4364 155.096 68.0595C156.71 69.6825 157.805 71.7482 158.243 73.9945C158.682 76.2408 158.443 78.5667 157.558 80.6773C156.673 82.7878 155.181 84.5881 153.271 85.8499C151.362 87.1116 149.121 87.778 146.832 87.7646C143.779 87.7467 140.857 86.5212 138.704 84.3557C136.551 82.1903 135.343 79.2609 135.343 76.2074Z" fill="#00C7BA"/>
<path d="M243.283 76.2087C243.283 52.2144 198.966 16.9844 146.832 16.9844C94.6976 16.9844 50.3809 52.1975 50.3809 76.2087C105.8 130.662 182.8 133.162 243.283 76.2087Z" fill="#231D65"/>
<path d="M243.202 75.9844C218.219 87.7598 198.885 94.2604 146.751 94.2604C94.6165 94.2604 71.2188 87.7604 50.2998 75.9844C105.719 130.438 182.719 132.938 243.202 75.9844Z" fill="black"/>
<path d="M49.2998 90.9844L56.4998 78.9844L59.2998 81.94L49.2998 90.9844Z" fill="black"/>
<path d="M244.32 90.9844L237.12 78.9844L234.32 81.94L244.32 90.9844Z" fill="black"/>
<path d="M57.2998 99.4844L66.2998 84.9844L69.7998 88.5558L57.2998 99.4844Z" fill="black"/>
<path d="M236.32 99.4844L227.32 84.9844L223.82 88.5558L236.32 99.4844Z" fill="black"/>
<path d="M69.0353 108.581L75.1382 92.6439L79.2491 95.4909L69.0353 108.581Z" fill="black"/>
<path d="M224.585 108.581L218.482 92.6439L214.371 95.4909L224.585 108.581Z" fill="black"/>
<path d="M81.0995 114.624L87.1304 98.6587L91.2542 101.487L81.0995 114.624Z" fill="black"/>
<path d="M212.521 114.624L206.49 98.6587L202.366 101.487L212.521 114.624Z" fill="black"/>
<path d="M94.3603 119.794L100.097 103.721L104.272 106.474L94.3603 119.794Z" fill="black"/>
<path d="M199.26 119.794L193.523 103.721L189.348 106.474L199.26 119.794Z" fill="black"/>
<path d="M111.744 125.115L114.641 108.297L119.226 110.293L111.744 125.115Z" fill="black"/>
<path d="M181.876 125.115L178.979 108.297L174.394 110.293L181.876 125.115Z" fill="black"/>
<path d="M129.217 129.689L130.21 112.652L134.99 114.121L129.217 129.689Z" fill="black"/>
<path d="M164.403 129.689L163.41 112.652L158.631 114.121L164.403 129.689Z" fill="black"/>
<path d="M147.134 131.117L143.914 114.357L148.908 114.608L147.134 131.117Z" fill="black"/>
</svg>
