<svg width="425" height="160" viewBox="0 0 425 160" fill="none" xmlns="http://www.w3.org/2000/svg">
<path d="M69.7002 97.731C69.7002 97.731 191.185 -64.8569 363 92.8962C363 92.8962 223.16 236.822 69.7002 97.731Z" fill="#7861D8"/>
<path d="M312.983 100.047C312.983 76.0523 268.666 40.8223 216.532 40.8223C164.398 40.8223 120.081 76.0354 120.081 100.047H312.983Z" fill="black"/>
<path d="M216.6 142.011C269.84 142.011 313 100.047 313 100.047C313 100.047 269.84 58.082 216.6 58.082C163.36 58.082 120.2 100.047 120.2 100.047C120.2 100.047 163.36 142.011 216.6 142.011Z" fill="white"/>
<path d="M174.635 100.048C174.632 91.7445 177.092 83.6268 181.704 76.722C186.316 69.8173 192.873 64.436 200.545 61.2592C208.216 58.0824 216.658 57.2529 224.801 58.8757C232.945 60.4985 240.424 64.5006 246.291 70.3756C252.159 76.2505 256.152 83.7342 257.765 91.8795C259.378 100.025 258.538 108.465 255.352 116.133C252.166 123.801 246.777 130.351 239.867 134.955C232.956 139.559 224.836 142.009 216.532 141.996C205.417 141.978 194.763 137.551 186.909 129.687C179.054 121.822 174.64 111.163 174.635 100.048Z" fill="#FFBE44"/>
<path d="M192.605 100.047C192.605 95.2985 194.014 90.6567 196.654 86.7094C199.293 82.7621 203.044 79.6868 207.433 77.8727C211.821 76.0586 216.649 75.5874 221.305 76.5188C225.962 77.4501 230.237 79.7421 233.59 83.1045C236.943 86.4669 239.223 90.7486 240.141 95.4075C241.059 100.066 240.574 104.893 238.748 109.276C236.921 113.659 233.835 117.402 229.881 120.03C225.926 122.659 221.28 124.055 216.532 124.041C210.18 124.023 204.094 121.487 199.609 116.99C195.124 112.492 192.605 106.399 192.605 100.047Z" fill="#0F0A45"/>
<path d="M205.042 100.045C205.043 97.7566 205.722 95.5195 206.995 93.6175C208.268 91.7155 210.077 90.2342 212.193 89.3615C214.308 88.4888 216.636 88.2639 218.879 88.7154C221.123 89.1668 223.182 90.2743 224.796 91.8973C226.409 93.5204 227.505 95.5861 227.943 97.8324C228.381 100.079 228.143 102.405 227.258 104.515C226.372 106.626 224.881 108.426 222.971 109.688C221.062 110.949 218.821 111.616 216.532 111.602C213.479 111.585 210.556 110.359 208.403 108.194C206.251 106.028 205.042 103.099 205.042 100.045Z" fill="#00C7BA"/>
<path d="M388.86 9.36002C389.907 9.19307 390.881 8.71984 391.66 8C392.298 7.11806 392.691 6.08305 392.8 5L393.47 5.17999C393.631 6.22691 394.101 7.20189 394.82 7.98001C395.703 8.61507 396.738 9.00805 397.82 9.12L397.63 9.78C396.584 9.95036 395.611 10.4231 394.83 11.14C394.2 12.0261 393.807 13.059 393.69 14.14L393.03 13.96C392.863 12.9129 392.39 11.9386 391.67 11.16C390.788 10.522 389.753 10.1287 388.67 10.02L388.86 9.36002Z" fill="white"/>
<path d="M415.13 22.7409C416.177 22.5739 417.152 22.1007 417.93 21.3809C418.566 20.4976 418.959 19.4633 419.07 18.3809L419.73 18.5609C419.897 19.608 420.37 20.5823 421.09 21.3609C421.973 21.9963 423.008 22.3894 424.09 22.5009L423.91 23.1609C422.863 23.3278 421.889 23.801 421.11 24.5209C420.475 25.4042 420.082 26.4385 419.97 27.5209L419.31 27.3409C419.143 26.2937 418.67 25.3195 417.95 24.5409C417.067 23.9054 416.033 23.5123 414.95 23.4008L415.13 22.7409Z" fill="white"/>
<path d="M379.35 29.6599C380.16 29.5424 380.92 29.1954 381.54 28.6599C382.023 27.9727 382.326 27.1748 382.42 26.3398L382.94 26.4799C383.069 27.2936 383.434 28.0516 383.99 28.6599C384.677 29.1521 385.479 29.4587 386.32 29.5499L386.17 30.0598C385.354 30.1895 384.595 30.5584 383.99 31.1198C383.502 31.8049 383.199 32.6038 383.11 33.4398L382.59 33.2999C382.475 32.4916 382.127 31.7342 381.59 31.1198C380.903 30.6276 380.1 30.321 379.26 30.2299L379.35 29.6599Z" fill="white"/>
<path d="M411.6 122.03C412.647 121.863 413.621 121.39 414.4 120.67C415.033 119.785 415.426 118.752 415.54 117.67L416.2 117.85C416.367 118.897 416.84 119.871 417.56 120.65C418.442 121.288 419.477 121.681 420.56 121.79L420.38 122.45C419.333 122.617 418.359 123.09 417.58 123.81C416.945 124.693 416.552 125.728 416.44 126.81L415.77 126.62C415.609 125.573 415.139 124.598 414.42 123.82C413.536 123.185 412.502 122.792 411.42 122.68L411.6 122.03Z" fill="white"/>
<path d="M372.09 155.62C372.906 155.488 373.666 155.124 374.28 154.57C374.765 153.88 375.068 153.079 375.16 152.24L375.68 152.38C375.812 153.196 376.176 153.957 376.73 154.57C377.42 155.055 378.221 155.358 379.06 155.45L378.91 155.97C378.096 156.099 377.338 156.464 376.73 157.02C376.245 157.71 375.942 158.512 375.85 159.35L375.33 159.2C375.215 158.392 374.868 157.635 374.33 157.02C373.64 156.535 372.838 156.232 372 156.14L372.09 155.62Z" fill="white"/>
<path d="M416.1 86.3395C416.908 86.2246 417.666 85.8772 418.28 85.3395C418.771 84.6555 419.078 83.8565 419.17 83.0195L419.68 83.1595C419.81 83.9751 420.179 84.7338 420.74 85.3395C421.426 85.8267 422.224 86.1328 423.06 86.2295L422.92 86.7395C422.104 86.8692 421.346 87.2381 420.74 87.7995C420.246 88.482 419.939 89.2818 419.85 90.1195L419.34 89.9795C419.21 89.1639 418.841 88.4052 418.28 87.7995C417.598 87.3056 416.798 86.9988 415.96 86.9095L416.1 86.3395Z" fill="white"/>
<path d="M46.9303 9.36002C47.9774 9.19307 48.9518 8.71984 49.7303 8C50.3683 7.11806 50.7615 6.08305 50.8702 5L51.5403 5.17999C51.7015 6.22691 52.1715 7.20189 52.8903 7.98001C53.7738 8.61507 54.808 9.00805 55.8903 9.12L55.7003 9.78C54.6543 9.95036 53.6809 10.4231 52.9003 11.14C52.2701 12.0261 51.8776 13.059 51.7603 14.14L51.1003 13.96C50.9334 12.9129 50.4601 11.9386 49.7402 11.16C48.8583 10.522 47.8233 10.1287 46.7402 10.02L46.9303 9.36002Z" fill="white"/>
<path d="M76.9203 4.36002C77.9674 4.19307 78.9416 3.71984 79.7202 3C80.3557 2.11671 80.7487 1.0824 80.8602 0L81.5203 0.179993C81.6872 1.22713 82.1604 2.20142 82.8802 2.98001C83.7635 3.61548 84.7979 4.0085 85.8802 4.12L85.7003 4.78C84.6532 4.94695 83.6789 5.42018 82.9003 6.14001C82.2648 7.0233 81.8717 8.05762 81.7603 9.14001L81.1002 8.95999C80.9333 7.91286 80.4601 6.93859 79.7402 6.16C78.8569 5.52454 77.8226 5.13148 76.7402 5.01999L76.9203 4.36002Z" fill="white"/>
<path d="M0.0899658 29.6599C0.900451 29.5424 1.66032 29.1954 2.27991 28.6599C2.76352 27.9727 3.06617 27.1748 3.15991 26.3398L3.67993 26.4799C3.80907 27.2936 4.1742 28.0516 4.72998 28.6599C5.41709 29.1521 6.21961 29.4587 7.05994 29.5499L6.90991 30.0598C6.09431 30.1895 5.33565 30.5584 4.72998 31.1198C4.24246 31.8049 3.93941 32.6038 3.84998 33.4398L3.32996 33.2999C3.21504 32.4916 2.86761 31.7342 2.32996 31.1198C1.64284 30.6276 0.840326 30.321 0 30.2299L0.0899658 29.6599Z" fill="white"/>
<path d="M76.9203 151.36C77.9674 151.193 78.9417 150.72 79.7203 150C80.3533 149.115 80.746 148.082 80.8602 147L81.5203 147.18C81.6872 148.227 82.1604 149.201 82.8802 149.98C83.7622 150.618 84.7972 151.011 85.8802 151.12L85.7003 151.78C84.6532 151.947 83.6789 152.42 82.9003 153.14C82.2652 154.023 81.8722 155.058 81.7603 156.14L81.0903 155.95C80.9291 154.903 80.459 153.928 79.7402 153.15C78.8567 152.515 77.8225 152.122 76.7402 152.01L76.9203 151.36Z" fill="white"/>
<path d="M28.8302 125.38C29.6461 125.248 30.4066 124.884 31.0203 124.33C31.5054 123.64 31.8082 122.838 31.9003 122L32.4202 122.14C32.5519 122.956 32.9166 123.716 33.4702 124.33C34.1602 124.815 34.9617 125.118 35.8002 125.21L35.6503 125.73C34.8365 125.859 34.0785 126.224 33.4702 126.78C32.985 127.47 32.6823 128.272 32.5902 129.11L32.0702 128.96C31.9553 128.152 31.6078 127.394 31.0702 126.78C30.3802 126.295 29.5787 125.992 28.7402 125.9L28.8302 125.38Z" fill="white"/>
<path d="M35.8802 69.32C36.6885 69.2051 37.446 68.8576 38.0603 68.32C38.5514 67.636 38.8578 66.837 38.9502 66L39.4602 66.14C39.5899 66.9556 39.9589 67.7143 40.5203 68.32C41.2064 68.8071 42.0043 69.1133 42.8402 69.21L42.7002 69.72C41.8846 69.8497 41.1259 70.2186 40.5203 70.78C40.0263 71.4625 39.7195 72.2623 39.6302 73.1L39.1202 72.96C38.9906 72.1444 38.6217 71.3857 38.0603 70.78C37.3778 70.2861 36.578 69.9792 35.7402 69.89L35.8802 69.32Z" fill="white"/>
</svg>
