<svg width="680" height="680" viewBox="0 0 680 680" fill="none" xmlns="http://www.w3.org/2000/svg">
<path opacity="0.85" d="M340 271.79L366.76 0L350.671 272.628L419.616 8.3726L361.076 275.129L470.515 24.9112L370.968 279.224L518.199 49.2062L380.094 284.817L561.493 80.6633L388.231 291.769L599.337 118.507L395.183 299.906L630.794 161.801L400.776 309.032L655.089 209.485L404.871 318.924L671.627 260.384L407.369 329.329L680 313.24L408.209 340L680 366.76L407.369 350.671L671.627 419.616L404.871 361.076L655.089 470.515L400.776 370.968L630.794 518.199L395.183 380.091L599.337 561.493L388.231 388.231L561.493 599.337L380.094 395.183L518.199 630.794L370.968 400.776L470.515 655.089L361.076 404.871L419.616 671.627L350.671 407.369L366.76 680L340 408.209L313.24 680L329.329 407.369L260.384 671.627L318.923 404.871L209.485 655.089L309.032 400.776L161.801 630.794L299.906 395.183L118.507 599.337L291.769 388.231L80.6633 561.493L284.817 380.091L49.2062 518.199L279.224 370.968L24.9112 470.515L275.129 361.076L8.37259 419.616L272.631 350.671L0 366.76L271.79 340L0 313.24L272.631 329.329L8.37259 260.384L275.129 318.924L24.9112 209.485L279.224 309.032L49.2062 161.801L284.817 299.906L80.6633 118.507L291.769 291.769L118.507 80.6633L299.906 284.817L161.801 49.2062L309.032 279.224L209.485 24.9112L318.923 275.129L260.384 8.3726L329.329 272.628L313.24 0L340 271.79Z" fill="#4420D8"/>
<path d="M192.7 345.731C192.7 345.731 314.185 183.143 486 340.896C486 340.896 346.16 484.822 192.7 345.731Z" fill="#7861D8"/>
<path d="M435.983 348.047C435.983 324.052 391.666 288.822 339.532 288.822C287.398 288.822 243.081 324.035 243.081 348.047H435.983Z" fill="black"/>
<path d="M339.6 390.011C392.84 390.011 436 348.047 436 348.047C436 348.047 392.84 306.082 339.6 306.082C286.36 306.082 243.2 348.047 243.2 348.047C243.2 348.047 286.36 390.011 339.6 390.011Z" fill="white"/>
<path d="M297.635 348.048C297.632 339.745 300.092 331.627 304.704 324.722C309.316 317.817 315.873 312.436 323.545 309.259C331.216 306.082 339.658 305.253 347.801 306.876C355.945 308.498 363.424 312.501 369.291 318.376C375.159 324.251 379.152 331.734 380.765 339.879C382.378 348.025 381.538 356.465 378.352 364.133C375.166 371.801 369.777 378.351 362.867 382.955C355.956 387.559 347.836 390.009 339.532 389.996C328.417 389.978 317.763 385.551 309.909 377.687C302.054 369.822 297.64 359.163 297.635 348.048Z" fill="#FFBE44"/>
<path d="M315.605 348.047C315.605 343.298 317.014 338.657 319.654 334.709C322.293 330.762 326.044 327.687 330.433 325.873C334.821 324.059 339.649 323.587 344.305 324.519C348.962 325.45 353.237 327.742 356.59 331.104C359.943 334.467 362.223 338.749 363.141 343.408C364.059 348.066 363.574 352.893 361.748 357.276C359.921 361.659 356.835 365.402 352.881 368.03C348.926 370.659 344.28 372.055 339.532 372.041C333.18 372.023 327.094 369.487 322.609 364.99C318.124 360.492 315.605 354.399 315.605 348.047Z" fill="#0F0A45"/>
<path d="M511.86 257.36C512.907 257.193 513.881 256.72 514.66 256C515.298 255.118 515.691 254.083 515.8 253L516.47 253.18C516.631 254.227 517.101 255.202 517.82 255.98C518.703 256.615 519.738 257.008 520.82 257.12L520.63 257.78C519.584 257.95 518.611 258.423 517.83 259.14C517.2 260.026 516.807 261.059 516.69 262.14L516.03 261.96C515.863 260.913 515.39 259.939 514.67 259.16C513.788 258.522 512.753 258.129 511.67 258.02L511.86 257.36Z" fill="white"/>
<path d="M538.13 270.741C539.177 270.574 540.152 270.101 540.93 269.381C541.566 268.498 541.959 267.463 542.07 266.381L542.73 266.561C542.897 267.608 543.37 268.582 544.09 269.361C544.973 269.996 546.008 270.389 547.09 270.501L546.91 271.161C545.863 271.328 544.889 271.801 544.11 272.521C543.475 273.404 543.082 274.438 542.97 275.521L542.31 275.341C542.143 274.294 541.67 273.319 540.95 272.541C540.067 271.905 539.033 271.512 537.95 271.401L538.13 270.741Z" fill="white"/>
<path d="M502.35 277.66C503.16 277.542 503.92 277.195 504.54 276.66C505.023 275.973 505.326 275.175 505.42 274.34L505.94 274.48C506.069 275.294 506.434 276.052 506.99 276.66C507.677 277.152 508.479 277.459 509.32 277.55L509.17 278.06C508.354 278.19 507.595 278.558 506.99 279.12C506.502 279.805 506.199 280.604 506.11 281.44L505.59 281.3C505.475 280.492 505.127 279.734 504.59 279.12C503.903 278.628 503.1 278.321 502.26 278.23L502.35 277.66Z" fill="white"/>
<path d="M534.6 370.03C535.647 369.863 536.621 369.39 537.4 368.67C538.033 367.785 538.426 366.752 538.54 365.67L539.2 365.85C539.367 366.897 539.84 367.871 540.56 368.65C541.442 369.288 542.477 369.681 543.56 369.79L543.38 370.45C542.333 370.617 541.359 371.09 540.58 371.81C539.945 372.693 539.552 373.728 539.44 374.81L538.77 374.62C538.609 373.573 538.139 372.598 537.42 371.82C536.536 371.185 535.502 370.792 534.42 370.68L534.6 370.03Z" fill="white"/>
<path d="M495.09 403.62C495.906 403.488 496.666 403.124 497.28 402.57C497.765 401.88 498.068 401.079 498.16 400.24L498.68 400.38C498.812 401.196 499.176 401.957 499.73 402.57C500.42 403.055 501.221 403.358 502.06 403.45L501.91 403.97C501.096 404.099 500.338 404.464 499.73 405.02C499.245 405.71 498.942 406.512 498.85 407.35L498.33 407.2C498.215 406.392 497.868 405.635 497.33 405.02C496.64 404.535 495.838 404.232 495 404.14L495.09 403.62Z" fill="white"/>
<path d="M539.1 334.34C539.908 334.225 540.666 333.877 541.28 333.34C541.771 332.655 542.078 331.856 542.17 331.02L542.68 331.16C542.81 331.975 543.179 332.734 543.74 333.34C544.426 333.827 545.224 334.133 546.06 334.23L545.92 334.74C545.104 334.869 544.346 335.238 543.74 335.8C543.246 336.482 542.939 337.282 542.85 338.12L542.34 337.98C542.21 337.164 541.841 336.405 541.28 335.8C540.598 335.306 539.798 334.999 538.96 334.91L539.1 334.34Z" fill="white"/>
<path d="M169.93 257.36C170.977 257.193 171.952 256.72 172.73 256C173.368 255.118 173.762 254.083 173.87 253L174.54 253.18C174.701 254.227 175.172 255.202 175.89 255.98C176.774 256.615 177.808 257.008 178.89 257.12L178.7 257.78C177.654 257.95 176.681 258.423 175.9 259.14C175.27 260.026 174.878 261.059 174.76 262.14L174.1 261.96C173.933 260.913 173.46 259.939 172.74 259.16C171.858 258.522 170.823 258.129 169.74 258.02L169.93 257.36Z" fill="white"/>
<path d="M199.92 252.36C200.967 252.193 201.942 251.72 202.72 251C203.356 250.117 203.749 249.082 203.86 248L204.52 248.18C204.687 249.227 205.16 250.201 205.88 250.98C206.764 251.615 207.798 252.009 208.88 252.12L208.7 252.78C207.653 252.947 206.679 253.42 205.9 254.14C205.265 255.023 204.872 256.058 204.76 257.14L204.1 256.96C203.933 255.913 203.46 254.939 202.74 254.16C201.857 253.525 200.823 253.131 199.74 253.02L199.92 252.36Z" fill="white"/>
<path d="M123.09 277.66C123.9 277.542 124.66 277.195 125.28 276.66C125.764 275.973 126.066 275.175 126.16 274.34L126.68 274.48C126.809 275.294 127.174 276.052 127.73 276.66C128.417 277.152 129.22 277.459 130.06 277.55L129.91 278.06C129.094 278.19 128.336 278.558 127.73 279.12C127.242 279.805 126.939 280.604 126.85 281.44L126.33 281.3C126.215 280.492 125.868 279.734 125.33 279.12C124.643 278.628 123.84 278.321 123 278.23L123.09 277.66Z" fill="white"/>
<path d="M199.92 399.36C200.967 399.193 201.942 398.72 202.72 398C203.353 397.115 203.746 396.082 203.86 395L204.52 395.18C204.687 396.227 205.16 397.201 205.88 397.98C206.762 398.618 207.797 399.011 208.88 399.12L208.7 399.78C207.653 399.947 206.679 400.42 205.9 401.14C205.265 402.023 204.872 403.058 204.76 404.14L204.09 403.95C203.929 402.903 203.459 401.928 202.74 401.15C201.857 400.515 200.823 400.122 199.74 400.01L199.92 399.36Z" fill="white"/>
<path d="M151.83 373.38C152.646 373.248 153.407 372.884 154.02 372.33C154.505 371.64 154.808 370.838 154.9 370L155.42 370.14C155.552 370.956 155.917 371.716 156.47 372.33C157.16 372.815 157.962 373.118 158.8 373.21L158.65 373.73C157.837 373.859 157.078 374.224 156.47 374.78C155.985 375.47 155.682 376.272 155.59 377.11L155.07 376.96C154.955 376.152 154.608 375.394 154.07 374.78C153.38 374.295 152.579 373.992 151.74 373.9L151.83 373.38Z" fill="white"/>
<path d="M158.88 317.32C159.689 317.205 160.446 316.858 161.06 316.32C161.551 315.636 161.858 314.837 161.95 314L162.46 314.14C162.59 314.956 162.959 315.714 163.52 316.32C164.206 316.807 165.004 317.113 165.84 317.21L165.7 317.72C164.885 317.85 164.126 318.219 163.52 318.78C163.026 319.462 162.72 320.262 162.63 321.1L162.12 320.96C161.991 320.144 161.622 319.386 161.06 318.78C160.378 318.286 159.578 317.979 158.74 317.89L158.88 317.32Z" fill="white"/>
<path d="M358.5 231.247L339.253 207L320.005 231.247L339.253 255.494L358.5 231.247Z" fill="#FF7364"/>
<path d="M339.25 207V219.484L329.15 232.207L320 231.25L339.25 207Z" fill="#DD2B19"/>
<path d="M339.25 255.5L338.61 244.666L329.15 232.207L320 231.25L339.25 255.5Z" fill="#AA0C0C"/>
<path d="M358.5 231.25L349.09 231.716L338.61 244.666L339.25 255.5L358.5 231.25Z" fill="#FF3F25"/>
<path d="M339.25 219.484L349.09 231.716L358.5 231.25L339.25 207V219.484Z" fill="#FF3F25"/>
<path d="M340.425 518.279L330.425 508.283L340.85 486.531L350.692 508.016L340.425 518.279Z" fill="#FFD55F"/>
<path d="M340.425 518.279L330.425 508.283L340.85 486.531L340.425 518.279Z" fill="#EA9F32"/>
<path d="M340.425 454.748L330.425 444.752L340.85 423L350.692 444.485L340.425 454.748Z" fill="#FFD55F"/>
<path d="M340.425 454.748L330.425 444.752L340.85 423L340.425 454.748Z" fill="#EA9F32"/>
<path d="M340 486.531L330 476.535L340.424 454.783L350.278 476.268L340 486.531Z" fill="#FFD55F"/>
<path d="M340 486.531L330 476.535L340.424 454.783L340 486.531Z" fill="#EA9F32"/>
<path d="M349.693 361.769C349.884 361.561 350.068 361.346 350.24 361.118C357.563 351.798 347.716 335.846 346.139 333.667C346.095 335.648 345.803 337.615 345.268 339.523C342.545 335.379 339.538 331.938 337.386 331C337.321 334.457 336.597 337.87 335.254 341.056C334.798 339.399 334.052 337.837 333.05 336.441C332.043 343.303 329.336 349.287 328.258 351.498C327.464 352.701 327.027 354.105 327 355.546C327 362.28 332.59 365.35 339.499 365.35C343.675 365.35 347.373 364.224 349.641 361.845L349.693 361.769Z" fill="#FF3F25"/>
<path opacity="0.35" d="M340.045 337.527C340.045 341.463 340.68 344.86 339.171 347.199C338.616 345.299 336.527 344.289 335.126 343.858C335.445 349.023 333.329 352.983 331.296 356.176C330.574 357.074 329.939 359.845 329.939 360.635C329.939 364.164 334.822 365.361 339.091 365.361C343.359 365.361 348.674 363.725 349.732 358.903C351.589 350.308 345.112 340.425 340.045 337.527Z" fill="#FFBE44"/>
<path d="M341.215 348.196C340.764 350.348 340.001 352.423 338.951 354.355C338.62 353.026 338.093 351.773 337.258 351.469C337.45 355.082 335.937 358.016 334.731 360.251C334.328 360.749 334.085 361.357 334.032 361.995C334.032 364.47 336.939 365.309 339.478 365.309C342.018 365.309 345.188 364.163 345.807 360.786C346.913 354.762 344.222 350.224 341.215 348.196Z" fill="#FFBE44"/>
</svg>
