<svg width="904" height="145" viewBox="0 0 904 145" fill="none" xmlns="http://www.w3.org/2000/svg">
<path d="M135 84C142.732 84 149 77.732 149 70C149 62.268 142.732 56 135 56C127.268 56 121 62.268 121 70C121 77.732 127.268 84 135 84Z" fill="#FFBE44"/>
<path d="M135 82.2751C141.779 82.2751 147.275 76.7793 147.275 69.9999C147.275 63.2204 141.779 57.7246 135 57.7246C128.22 57.7246 122.725 63.2204 122.725 69.9999C122.725 76.7793 128.22 82.2751 135 82.2751Z" fill="#D59225"/>
<path d="M144.082 66.4969L140.353 67.7089C140.11 67.7872 139.848 67.7841 139.606 67.7C139.365 67.6159 139.158 67.4553 139.017 67.2427C138.924 67.1042 138.823 66.9718 138.714 66.8465C138.541 66.6454 138.441 66.3919 138.429 66.127C138.418 65.862 138.496 65.601 138.651 65.3859L140.982 62.1928C141.079 62.0561 141.205 61.9421 141.35 61.8587C141.495 61.7752 141.657 61.7244 141.824 61.7096C141.991 61.6948 142.159 61.7165 142.317 61.7731C142.475 61.8297 142.618 61.9199 142.738 62.0374C143.562 62.8631 144.249 63.8152 144.773 64.8576C144.85 65.0086 144.893 65.1745 144.899 65.3438C144.905 65.513 144.874 65.6815 144.808 65.8376C144.742 65.9936 144.643 66.1334 144.518 66.2473C144.392 66.3612 144.244 66.4463 144.082 66.4969Z" fill="#FFBE44"/>
<path d="M125.677 73.2471L129.383 72.0429C129.626 71.9645 129.888 71.9677 130.129 72.0518C130.37 72.1359 130.578 72.2965 130.719 72.509C130.813 72.6488 130.914 72.7836 131.022 72.9131C131.193 73.1136 131.292 73.3655 131.303 73.6288C131.315 73.892 131.238 74.1515 131.084 74.3659L128.754 77.559C128.657 77.6957 128.531 77.8097 128.386 77.8932C128.24 77.9766 128.079 78.0274 127.912 78.0422C127.745 78.057 127.576 78.0353 127.419 77.9787C127.261 77.9221 127.117 77.8319 126.998 77.7144C126.174 76.8868 125.484 75.9352 124.955 74.8942C124.878 74.7405 124.837 74.5721 124.833 74.4007C124.829 74.2293 124.862 74.0591 124.931 73.902C125 73.745 125.103 73.605 125.232 73.4919C125.36 73.3787 125.512 73.2952 125.677 73.2471Z" fill="#FFBE44"/>
<path d="M140.974 77.5516L138.644 74.3817C138.491 74.1776 138.409 73.9296 138.409 73.6747C138.409 73.4199 138.491 73.1719 138.644 72.9677C138.747 72.8355 138.842 72.698 138.931 72.556C139.067 72.3302 139.275 72.1568 139.522 72.0637C139.769 71.9707 140.04 71.9635 140.291 72.0432L144.051 73.2474C144.211 73.2966 144.358 73.3799 144.483 73.4916C144.608 73.6032 144.707 73.7406 144.773 73.8942C144.84 74.0478 144.872 74.214 144.868 74.3814C144.864 74.5487 144.824 74.7131 144.75 74.8634C144.224 75.9045 143.537 76.8562 142.715 77.6836C142.596 77.7985 142.455 77.887 142.3 77.9431C142.145 77.9993 141.979 78.0219 141.815 78.0094C141.65 77.997 141.49 77.9497 141.345 77.8707C141.201 77.7918 141.074 77.683 140.974 77.5516Z" fill="#FFBE44"/>
<path d="M128.862 62.1917L131.193 65.3616C131.346 65.5657 131.428 65.8137 131.428 66.0685C131.428 66.3234 131.346 66.5714 131.193 66.7755C131.09 66.9077 130.994 67.0452 130.906 67.1873C130.77 67.4135 130.562 67.5876 130.316 67.682C130.069 67.7763 129.798 67.7854 129.546 67.7078L125.786 66.5036C125.626 66.4535 125.478 66.3693 125.353 66.2569C125.229 66.1445 125.13 66.0065 125.063 65.8523C124.997 65.6981 124.965 65.5314 124.969 65.3636C124.973 65.1957 125.013 65.0307 125.087 64.8799C125.609 63.8367 126.297 62.8845 127.122 62.0597C127.24 61.9448 127.382 61.8563 127.537 61.8001C127.692 61.7439 127.857 61.7213 128.022 61.7338C128.186 61.7463 128.346 61.7936 128.491 61.8725C128.636 61.9514 128.763 62.0603 128.862 62.1917Z" fill="#FFBE44"/>
<path d="M135.373 79.7505L135.264 75.8659C135.26 75.6101 135.338 75.3596 135.488 75.1522C135.638 74.9449 135.851 74.7918 136.096 74.7161C136.255 74.6681 136.411 74.6084 136.562 74.5374C136.804 74.4314 137.074 74.409 137.33 74.4737C137.586 74.5384 137.813 74.6866 137.976 74.8948L140.384 78.0024C140.489 78.1343 140.563 78.2874 140.602 78.4511C140.641 78.6147 140.644 78.7848 140.611 78.9498C140.578 79.1147 140.509 79.2704 140.41 79.406C140.31 79.5416 140.182 79.6539 140.035 79.735C139.007 80.291 137.898 80.6817 136.748 80.8926C136.581 80.9233 136.408 80.9168 136.243 80.8736C136.078 80.8304 135.925 80.7516 135.794 80.6427C135.663 80.5338 135.557 80.3975 135.484 80.2434C135.412 80.0892 135.374 79.9209 135.373 79.7505Z" fill="#FFBE44"/>
<path d="M134.58 60.235L134.689 64.1662C134.695 64.4203 134.618 64.6695 134.469 64.8757C134.321 65.0818 134.109 65.2338 133.866 65.3083L133.392 65.4869C133.151 65.5951 132.881 65.6195 132.624 65.5561C132.368 65.4927 132.14 65.3453 131.978 65.1373L129.577 62.0297C129.474 61.8984 129.4 61.7464 129.361 61.5839C129.322 61.4215 129.319 61.2525 129.351 61.0886C129.384 60.9248 129.451 60.7699 129.549 60.6346C129.647 60.4994 129.773 60.3869 129.919 60.3049C130.942 59.7434 132.049 59.3524 133.197 59.1473C133.361 59.1147 133.531 59.1179 133.693 59.1568C133.856 59.1957 134.008 59.2694 134.139 59.3727C134.271 59.4761 134.378 59.6067 134.454 59.7555C134.531 59.9044 134.574 60.0679 134.58 60.235Z" fill="#FFBE44"/>
<path d="M144.447 72.5024L140.71 71.2671C140.475 71.1815 140.272 71.0233 140.133 70.8152C139.993 70.607 139.923 70.3599 139.933 70.1095C139.933 69.9385 139.933 69.7754 139.933 69.6045C139.909 69.3438 139.972 69.0826 140.113 68.8618C140.254 68.641 140.464 68.4731 140.71 68.3847L144.463 67.1572C144.621 67.1044 144.789 67.0864 144.956 67.1044C145.122 67.1224 145.282 67.176 145.426 67.2615C145.57 67.347 145.693 67.4624 145.789 67.5999C145.884 67.7374 145.948 67.8938 145.978 68.0584C146.16 69.2114 146.16 70.386 145.978 71.539C145.957 71.7109 145.898 71.8761 145.805 72.0224C145.712 72.1687 145.588 72.2925 145.442 72.3848C145.295 72.477 145.13 72.5355 144.958 72.5558C144.786 72.5762 144.611 72.5579 144.447 72.5024Z" fill="#FFBE44"/>
<path d="M125.537 67.1879L129.274 68.3921C129.511 68.4755 129.715 68.6333 129.855 68.8419C129.995 69.0505 130.064 69.2988 130.051 69.5497C130.051 69.7206 130.051 69.8838 130.051 70.0547C130.075 70.3143 130.011 70.5744 129.87 70.7939C129.73 71.0134 129.52 71.1797 129.274 71.2667L125.522 72.502C125.363 72.5548 125.195 72.5727 125.028 72.5548C124.862 72.5368 124.702 72.4832 124.558 72.3977C124.414 72.3122 124.291 72.1968 124.196 72.0593C124.1 71.9218 124.036 71.7654 124.007 71.6008C123.824 70.4478 123.824 69.2732 124.007 68.1202C124.032 67.951 124.093 67.7893 124.188 67.6467C124.282 67.5041 124.407 67.3841 124.553 67.2951C124.699 67.2061 124.863 67.1504 125.033 67.1319C125.203 67.1133 125.375 67.1325 125.537 67.1879Z" fill="#FFBE44"/>
<path d="M129.546 77.9875L131.815 74.7788C131.964 74.5722 132.177 74.4197 132.421 74.3441C132.664 74.2685 132.926 74.2738 133.167 74.3593C133.325 74.4141 133.485 74.4607 133.648 74.4991C133.906 74.5564 134.137 74.6986 134.305 74.9028C134.473 75.107 134.567 75.3615 134.573 75.6256L134.619 79.5724C134.623 79.74 134.59 79.9063 134.524 80.0602C134.457 80.214 134.358 80.3517 134.234 80.4638C134.109 80.5759 133.962 80.6598 133.802 80.7098C133.642 80.7597 133.473 80.7746 133.306 80.7533C132.149 80.5827 131.027 80.2286 129.981 79.7044C129.83 79.6298 129.697 79.5234 129.592 79.3925C129.486 79.2616 129.41 79.1093 129.368 78.9462C129.327 78.783 129.321 78.6128 129.352 78.4473C129.383 78.2818 129.449 78.125 129.546 77.9875Z" fill="#FFBE44"/>
<path d="M140.376 61.8727L138.108 65.0503C137.958 65.2569 137.745 65.4094 137.502 65.485C137.258 65.5607 136.996 65.5553 136.756 65.4698C136.593 65.4154 136.437 65.3688 136.274 65.33C136.016 65.2727 135.785 65.1306 135.617 64.9263C135.45 64.7221 135.355 64.4676 135.35 64.2034L135.303 60.2568C135.299 60.0892 135.332 59.9227 135.399 59.7689C135.465 59.6151 135.564 59.4774 135.689 59.3653C135.813 59.2532 135.961 59.1693 136.121 59.1194C136.281 59.0694 136.45 59.0546 136.616 59.0758C137.773 59.2465 138.896 59.6005 139.941 60.1246C140.097 60.1986 140.234 60.3061 140.343 60.4395C140.452 60.5728 140.53 60.7286 140.572 60.8958C140.614 61.063 140.618 61.2373 140.584 61.4062C140.55 61.5752 140.479 61.7345 140.376 61.8727Z" fill="#FFBE44"/>
<path d="M138.706 69.13C138.706 69.9542 138.378 70.7447 137.796 71.3275C137.213 71.9103 136.422 72.2377 135.598 72.2377C134.911 72.2377 134.252 71.9654 133.766 71.4804C133.28 70.9955 133.005 70.3374 133.003 69.6506C133.003 69.0757 133.232 68.5243 133.638 68.1178C134.045 67.7113 134.596 67.483 135.171 67.483C135.653 67.483 136.115 67.6745 136.456 68.0155C136.797 68.3564 136.989 68.8188 136.989 69.3009H136.119C136.119 69.1765 136.094 69.0532 136.046 68.9382C135.999 68.8232 135.929 68.7187 135.841 68.6307C135.753 68.5427 135.648 68.4729 135.533 68.4253C135.418 68.3777 135.295 68.3531 135.171 68.3531C134.827 68.3531 134.497 68.4898 134.253 68.7331C134.01 68.9765 133.873 69.3065 133.873 69.6506C133.875 70.1074 134.058 70.5449 134.381 70.8679C134.704 71.1909 135.141 71.3733 135.598 71.3753C136.2 71.3753 136.777 71.1363 137.202 70.7109C137.628 70.2854 137.867 69.7084 137.867 69.1067C137.869 68.34 137.606 67.596 137.124 67.0002C136.641 66.4044 135.968 65.9932 135.217 65.8359H135.008C134.187 65.8359 133.384 66.0794 132.702 66.5357C132.019 66.9919 131.488 67.6403 131.174 68.3988C130.86 69.1573 130.778 69.9919 130.939 70.7969C131.1 71.6019 131.496 72.3411 132.077 72.921C132.658 73.5009 133.398 73.8954 134.203 74.0546C135.008 74.2138 135.843 74.1305 136.601 73.8153C137.359 73.5001 138.006 72.9672 138.461 72.2839C138.916 71.6006 139.158 70.7978 139.156 69.9769C139.157 69.1759 138.922 68.3924 138.48 67.7238C138.639 68.1754 138.715 68.6516 138.706 69.13Z" fill="#FFBE44"/>
<path d="M135 77.7379C139.273 77.7379 142.738 74.2734 142.738 69.9998C142.738 65.7262 139.273 62.2617 135 62.2617C130.726 62.2617 127.262 65.7262 127.262 69.9998C127.262 74.2734 130.726 77.7379 135 77.7379Z" fill="#D59225"/>
<path d="M134.992 65.727C135.079 65.7217 135.166 65.7341 135.247 65.7631C135.329 65.7922 135.404 65.8374 135.468 65.8962C135.532 65.9549 135.583 66.026 135.619 66.1051C135.655 66.1841 135.674 66.2696 135.676 66.3563C135.51 67.1297 135.281 67.8883 134.992 68.6249C134.683 67.8935 134.457 67.13 134.316 66.3485C134.316 66.2621 134.334 66.1766 134.368 66.0974C134.403 66.0182 134.454 65.9471 134.517 65.8886C134.581 65.8302 134.656 65.7856 134.738 65.7577C134.82 65.7299 134.906 65.7194 134.992 65.727Z" fill="#FFBE44"/>
<path d="M134.992 74.2573C134.906 74.2626 134.82 74.2503 134.738 74.2211C134.657 74.1919 134.583 74.1465 134.519 74.0877C134.456 74.0288 134.406 73.9577 134.371 73.8787C134.336 73.7997 134.317 73.7144 134.316 73.628C134.482 72.8577 134.708 72.1018 134.992 71.3672C135.304 72.0956 135.533 72.8565 135.676 73.6358C135.675 73.7225 135.657 73.8082 135.621 73.8874C135.586 73.9666 135.534 74.0376 135.47 74.096C135.406 74.1544 135.33 74.1988 135.248 74.2266C135.166 74.2544 135.079 74.2648 134.992 74.2573Z" fill="#FFBE44"/>
<path d="M139.257 69.9923C139.264 70.0792 139.252 70.1664 139.224 70.2486C139.195 70.3309 139.15 70.4063 139.091 70.4704C139.032 70.5345 138.96 70.5858 138.881 70.6211C138.801 70.6565 138.715 70.6752 138.628 70.676C137.857 70.5098 137.101 70.2812 136.367 69.9923C137.096 69.6842 137.857 69.4575 138.636 69.3164C138.722 69.3161 138.808 69.3338 138.887 69.3683C138.966 69.4029 139.037 69.4536 139.096 69.5172C139.154 69.5808 139.199 69.6559 139.227 69.7377C139.254 69.8195 139.265 69.9062 139.257 69.9923Z" fill="#FFBE44"/>
<path d="M130.727 69.9923C130.722 69.9061 130.734 69.8197 130.763 69.7384C130.792 69.6571 130.838 69.5826 130.897 69.5194C130.955 69.4561 131.027 69.4055 131.106 69.3707C131.185 69.3358 131.27 69.3173 131.356 69.3164C132.127 69.4806 132.883 69.7066 133.617 69.9923C132.889 70.3049 132.128 70.5343 131.348 70.676C131.262 70.6753 131.176 70.6566 131.097 70.6211C131.018 70.5857 130.947 70.5343 130.888 70.4701C130.83 70.4059 130.785 70.3303 130.758 70.248C130.73 70.1658 130.719 70.0788 130.727 69.9923Z" fill="#FFBE44"/>
<path d="M138.006 66.9786C138.069 67.0381 138.119 67.1098 138.153 67.1893C138.188 67.2688 138.205 67.3544 138.205 67.4409C138.205 67.5274 138.188 67.613 138.153 67.6925C138.119 67.7719 138.069 67.8436 138.006 67.9032C137.344 68.3322 136.648 68.7064 135.924 69.0219C136.222 68.2884 136.6 67.5901 137.051 66.9398C137.112 66.872 137.187 66.8184 137.271 66.783C137.356 66.7476 137.447 66.7312 137.538 66.7349C137.629 66.7386 137.718 66.7624 137.799 66.8045C137.88 66.8466 137.951 66.9061 138.006 66.9786Z" fill="#FFBE44"/>
<path d="M131.978 73.0062C131.912 72.9493 131.859 72.8798 131.822 72.8018C131.784 72.7237 131.763 72.6388 131.759 72.5523C131.756 72.4658 131.77 72.3794 131.801 72.2985C131.831 72.2176 131.879 72.1438 131.939 72.0816C132.603 71.6556 133.299 71.2816 134.021 70.9629C133.724 71.6991 133.346 72.4 132.894 73.0528C132.833 73.1135 132.76 73.1608 132.679 73.1916C132.598 73.2224 132.512 73.236 132.426 73.2317C132.34 73.2273 132.255 73.2049 132.178 73.1661C132.101 73.1273 132.033 73.0728 131.978 73.0062Z" fill="#FFBE44"/>
<path d="M138.007 73.006C137.947 73.0687 137.875 73.1187 137.796 73.1529C137.717 73.187 137.631 73.2046 137.544 73.2046C137.458 73.2046 137.372 73.187 137.293 73.1529C137.213 73.1187 137.142 73.0687 137.082 73.006C136.654 72.3427 136.28 71.6465 135.963 70.9238C136.7 71.2208 137.401 71.5986 138.053 72.0504C138.121 72.112 138.174 72.1878 138.208 72.2723C138.243 72.3568 138.259 72.4479 138.254 72.5391C138.25 72.6304 138.225 72.7195 138.183 72.8002C138.14 72.8809 138.08 72.9511 138.007 73.006Z" fill="#FFBE44"/>
<path d="M131.978 66.9777C132.037 66.9139 132.108 66.863 132.188 66.8282C132.267 66.7934 132.353 66.7754 132.44 66.7754C132.527 66.7754 132.613 66.7934 132.692 66.8282C132.772 66.863 132.843 66.9139 132.902 66.9777C133.33 67.6384 133.704 68.3321 134.021 69.0521C133.286 68.758 132.587 68.3799 131.939 67.9255C131.871 67.8651 131.818 67.7905 131.782 67.7069C131.747 67.6234 131.731 67.5331 131.734 67.4424C131.738 67.3518 131.762 67.2631 131.804 67.1827C131.846 67.1024 131.905 67.0323 131.978 66.9777Z" fill="#FFBE44"/>
<path d="M135 70.5524C135.304 70.5524 135.551 70.3055 135.551 70.0008C135.551 69.6962 135.304 69.4492 135 69.4492C134.695 69.4492 134.448 69.6962 134.448 70.0008C134.448 70.3055 134.695 70.5524 135 70.5524Z" fill="#FFBE44"/>
<path d="M769 84C776.732 84 783 77.732 783 70C783 62.268 776.732 56 769 56C761.268 56 755 62.268 755 70C755 77.732 761.268 84 769 84Z" fill="#FFBE44"/>
<path d="M769 82.2751C775.779 82.2751 781.275 76.7793 781.275 69.9999C781.275 63.2204 775.779 57.7246 769 57.7246C762.22 57.7246 756.725 63.2204 756.725 69.9999C756.725 76.7793 762.22 82.2751 769 82.2751Z" fill="#D59225"/>
<path d="M778.082 66.4969L774.353 67.7089C774.11 67.7872 773.848 67.7841 773.606 67.7C773.365 67.6159 773.158 67.4553 773.017 67.2427C772.924 67.1042 772.823 66.9718 772.714 66.8465C772.541 66.6454 772.441 66.3919 772.429 66.127C772.418 65.862 772.496 65.601 772.651 65.3859L774.982 62.1928C775.079 62.0561 775.205 61.9421 775.35 61.8587C775.495 61.7752 775.657 61.7244 775.824 61.7096C775.991 61.6948 776.159 61.7165 776.317 61.7731C776.475 61.8297 776.618 61.9199 776.738 62.0374C777.562 62.8631 778.249 63.8152 778.773 64.8576C778.85 65.0086 778.893 65.1745 778.899 65.3438C778.905 65.513 778.874 65.6815 778.808 65.8376C778.742 65.9936 778.643 66.1334 778.518 66.2473C778.392 66.3612 778.244 66.4463 778.082 66.4969Z" fill="#FFBE44"/>
<path d="M759.677 73.2471L763.383 72.0429C763.626 71.9645 763.888 71.9677 764.129 72.0518C764.37 72.1359 764.578 72.2965 764.719 72.509C764.813 72.6488 764.914 72.7836 765.022 72.9131C765.193 73.1136 765.292 73.3655 765.303 73.6288C765.315 73.892 765.238 74.1515 765.084 74.3659L762.754 77.559C762.657 77.6957 762.531 77.8097 762.386 77.8932C762.24 77.9766 762.079 78.0274 761.912 78.0422C761.745 78.057 761.576 78.0353 761.419 77.9787C761.261 77.9221 761.117 77.8319 760.998 77.7144C760.174 76.8868 759.484 75.9352 758.955 74.8942C758.878 74.7405 758.837 74.5721 758.833 74.4007C758.829 74.2293 758.862 74.0591 758.931 73.902C759 73.745 759.103 73.605 759.232 73.4919C759.36 73.3787 759.512 73.2952 759.677 73.2471Z" fill="#FFBE44"/>
<path d="M774.974 77.5516L772.644 74.3817C772.491 74.1776 772.409 73.9296 772.409 73.6747C772.409 73.4199 772.491 73.1719 772.644 72.9677C772.747 72.8355 772.842 72.698 772.931 72.556C773.067 72.3302 773.275 72.1568 773.522 72.0637C773.769 71.9707 774.04 71.9635 774.291 72.0432L778.051 73.2474C778.211 73.2966 778.358 73.3799 778.483 73.4916C778.608 73.6032 778.707 73.7406 778.773 73.8942C778.84 74.0478 778.872 74.214 778.868 74.3814C778.864 74.5487 778.824 74.7131 778.75 74.8634C778.224 75.9045 777.537 76.8562 776.715 77.6836C776.596 77.7985 776.455 77.887 776.3 77.9431C776.145 77.9993 775.979 78.0219 775.815 78.0094C775.65 77.997 775.49 77.9497 775.345 77.8707C775.201 77.7918 775.074 77.683 774.974 77.5516Z" fill="#FFBE44"/>
<path d="M762.862 62.1917L765.193 65.3616C765.346 65.5657 765.428 65.8137 765.428 66.0685C765.428 66.3234 765.346 66.5714 765.193 66.7755C765.09 66.9077 764.994 67.0452 764.906 67.1873C764.77 67.4135 764.562 67.5876 764.316 67.682C764.069 67.7763 763.798 67.7854 763.546 67.7078L759.786 66.5036C759.626 66.4535 759.478 66.3693 759.353 66.2569C759.229 66.1445 759.13 66.0065 759.063 65.8523C758.997 65.6981 758.965 65.5314 758.969 65.3636C758.973 65.1957 759.013 65.0307 759.087 64.8799C759.609 63.8367 760.297 62.8845 761.122 62.0597C761.24 61.9448 761.382 61.8563 761.537 61.8001C761.692 61.7439 761.857 61.7213 762.022 61.7338C762.186 61.7463 762.346 61.7936 762.491 61.8725C762.636 61.9514 762.763 62.0603 762.862 62.1917Z" fill="#FFBE44"/>
<path d="M769.373 79.7505L769.264 75.8659C769.26 75.6101 769.338 75.3596 769.488 75.1522C769.638 74.9449 769.851 74.7918 770.096 74.7161C770.255 74.6681 770.411 74.6084 770.562 74.5374C770.804 74.4314 771.074 74.409 771.33 74.4737C771.586 74.5384 771.813 74.6866 771.976 74.8948L774.384 78.0024C774.489 78.1343 774.563 78.2874 774.602 78.4511C774.641 78.6147 774.644 78.7848 774.611 78.9498C774.578 79.1147 774.509 79.2704 774.41 79.406C774.31 79.5416 774.182 79.6539 774.035 79.735C773.007 80.291 771.898 80.6817 770.748 80.8926C770.581 80.9233 770.408 80.9168 770.243 80.8736C770.078 80.8304 769.925 80.7516 769.794 80.6427C769.663 80.5338 769.557 80.3975 769.484 80.2434C769.412 80.0892 769.374 79.9209 769.373 79.7505Z" fill="#FFBE44"/>
<path d="M768.58 60.235L768.689 64.1662C768.695 64.4203 768.618 64.6695 768.469 64.8757C768.321 65.0818 768.109 65.2338 767.866 65.3083L767.392 65.4869C767.151 65.5951 766.881 65.6195 766.624 65.5561C766.368 65.4927 766.14 65.3453 765.978 65.1373L763.577 62.0297C763.474 61.8984 763.4 61.7464 763.361 61.5839C763.322 61.4215 763.319 61.2525 763.351 61.0886C763.384 60.9248 763.451 60.7699 763.549 60.6346C763.647 60.4994 763.773 60.3869 763.919 60.3049C764.942 59.7434 766.049 59.3524 767.197 59.1473C767.361 59.1147 767.531 59.1179 767.693 59.1568C767.856 59.1957 768.008 59.2694 768.139 59.3727C768.271 59.4761 768.378 59.6067 768.454 59.7555C768.531 59.9044 768.574 60.0679 768.58 60.235Z" fill="#FFBE44"/>
<path d="M778.447 72.5024L774.71 71.2671C774.475 71.1815 774.272 71.0233 774.133 70.8152C773.993 70.607 773.923 70.3599 773.933 70.1095C773.933 69.9385 773.933 69.7754 773.933 69.6045C773.909 69.3438 773.972 69.0826 774.113 68.8618C774.254 68.641 774.464 68.4731 774.71 68.3847L778.463 67.1572C778.621 67.1044 778.789 67.0864 778.956 67.1044C779.122 67.1224 779.282 67.176 779.426 67.2615C779.57 67.347 779.693 67.4624 779.789 67.5999C779.884 67.7374 779.948 67.8938 779.978 68.0584C780.16 69.2114 780.16 70.386 779.978 71.539C779.957 71.7109 779.898 71.8761 779.805 72.0224C779.712 72.1687 779.588 72.2925 779.442 72.3848C779.295 72.477 779.13 72.5355 778.958 72.5558C778.786 72.5762 778.611 72.5579 778.447 72.5024Z" fill="#FFBE44"/>
<path d="M759.537 67.1879L763.274 68.3921C763.511 68.4755 763.715 68.6333 763.855 68.8419C763.995 69.0505 764.064 69.2988 764.051 69.5497C764.051 69.7206 764.051 69.8838 764.051 70.0547C764.075 70.3143 764.011 70.5744 763.87 70.7939C763.73 71.0134 763.52 71.1797 763.274 71.2667L759.522 72.502C759.363 72.5548 759.195 72.5727 759.028 72.5548C758.862 72.5368 758.702 72.4832 758.558 72.3977C758.414 72.3122 758.291 72.1968 758.196 72.0593C758.1 71.9218 758.036 71.7654 758.007 71.6008C757.824 70.4478 757.824 69.2732 758.007 68.1202C758.032 67.951 758.093 67.7893 758.188 67.6467C758.282 67.5041 758.407 67.3841 758.553 67.2951C758.699 67.2061 758.863 67.1504 759.033 67.1319C759.203 67.1133 759.375 67.1325 759.537 67.1879Z" fill="#FFBE44"/>
<path d="M763.546 77.9875L765.815 74.7788C765.964 74.5722 766.177 74.4197 766.421 74.3441C766.664 74.2685 766.926 74.2738 767.167 74.3593C767.325 74.4141 767.485 74.4607 767.648 74.4991C767.906 74.5564 768.137 74.6986 768.305 74.9028C768.473 75.107 768.567 75.3615 768.573 75.6256L768.619 79.5724C768.623 79.74 768.59 79.9063 768.524 80.0602C768.457 80.214 768.358 80.3517 768.234 80.4638C768.109 80.5759 767.962 80.6598 767.802 80.7098C767.642 80.7597 767.473 80.7746 767.306 80.7533C766.149 80.5827 765.027 80.2286 763.981 79.7044C763.83 79.6298 763.697 79.5234 763.592 79.3925C763.486 79.2616 763.41 79.1093 763.368 78.9462C763.327 78.783 763.321 78.6128 763.352 78.4473C763.383 78.2818 763.449 78.125 763.546 77.9875Z" fill="#FFBE44"/>
<path d="M774.376 61.8727L772.108 65.0503C771.958 65.2569 771.745 65.4094 771.502 65.485C771.258 65.5607 770.996 65.5553 770.756 65.4698C770.593 65.4154 770.437 65.3688 770.274 65.33C770.016 65.2727 769.785 65.1306 769.617 64.9263C769.45 64.7221 769.355 64.4676 769.35 64.2034L769.303 60.2568C769.299 60.0892 769.332 59.9227 769.399 59.7689C769.465 59.6151 769.564 59.4774 769.689 59.3653C769.813 59.2532 769.961 59.1693 770.121 59.1194C770.281 59.0694 770.45 59.0546 770.616 59.0758C771.773 59.2465 772.896 59.6005 773.941 60.1246C774.097 60.1986 774.234 60.3061 774.343 60.4395C774.452 60.5728 774.53 60.7286 774.572 60.8958C774.614 61.063 774.618 61.2373 774.584 61.4062C774.55 61.5752 774.479 61.7345 774.376 61.8727Z" fill="#FFBE44"/>
<path d="M772.706 69.13C772.706 69.9542 772.378 70.7447 771.796 71.3275C771.213 71.9103 770.422 72.2377 769.598 72.2377C768.911 72.2377 768.252 71.9654 767.766 71.4804C767.28 70.9955 767.005 70.3374 767.003 69.6506C767.003 69.0757 767.232 68.5243 767.638 68.1178C768.045 67.7113 768.596 67.483 769.171 67.483C769.653 67.483 770.115 67.6745 770.456 68.0155C770.797 68.3564 770.989 68.8188 770.989 69.3009H770.119C770.119 69.1765 770.094 69.0532 770.046 68.9382C769.999 68.8232 769.929 68.7187 769.841 68.6307C769.753 68.5427 769.648 68.4729 769.533 68.4253C769.418 68.3777 769.295 68.3531 769.171 68.3531C768.827 68.3531 768.497 68.4898 768.253 68.7331C768.01 68.9765 767.873 69.3065 767.873 69.6506C767.875 70.1074 768.058 70.5449 768.381 70.8679C768.704 71.1909 769.141 71.3733 769.598 71.3753C770.2 71.3753 770.777 71.1363 771.202 70.7109C771.628 70.2854 771.867 69.7084 771.867 69.1067C771.869 68.34 771.606 67.596 771.124 67.0002C770.641 66.4044 769.968 65.9932 769.217 65.8359H769.008C768.187 65.8359 767.384 66.0794 766.702 66.5357C766.019 66.9919 765.488 67.6403 765.174 68.3988C764.86 69.1573 764.778 69.9919 764.939 70.7969C765.1 71.6019 765.496 72.3411 766.077 72.921C766.658 73.5009 767.398 73.8954 768.203 74.0546C769.008 74.2138 769.843 74.1305 770.601 73.8153C771.359 73.5001 772.006 72.9672 772.461 72.2839C772.916 71.6006 773.158 70.7978 773.156 69.9769C773.157 69.1759 772.922 68.3924 772.48 67.7238C772.639 68.1754 772.715 68.6516 772.706 69.13Z" fill="#FFBE44"/>
<path d="M769 77.7379C773.273 77.7379 776.738 74.2734 776.738 69.9998C776.738 65.7262 773.273 62.2617 769 62.2617C764.726 62.2617 761.262 65.7262 761.262 69.9998C761.262 74.2734 764.726 77.7379 769 77.7379Z" fill="#D59225"/>
<path d="M768.992 65.727C769.079 65.7217 769.166 65.7341 769.247 65.7631C769.329 65.7922 769.404 65.8374 769.468 65.8962C769.532 65.9549 769.583 66.026 769.619 66.1051C769.655 66.1841 769.674 66.2696 769.676 66.3563C769.51 67.1297 769.281 67.8883 768.992 68.6249C768.683 67.8935 768.457 67.13 768.316 66.3485C768.316 66.2621 768.334 66.1766 768.368 66.0974C768.403 66.0182 768.454 65.9471 768.517 65.8886C768.581 65.8302 768.656 65.7856 768.738 65.7577C768.82 65.7299 768.906 65.7194 768.992 65.727Z" fill="#FFBE44"/>
<path d="M768.992 74.2573C768.906 74.2626 768.82 74.2503 768.738 74.2211C768.657 74.1919 768.583 74.1465 768.519 74.0877C768.456 74.0288 768.406 73.9577 768.371 73.8787C768.336 73.7997 768.317 73.7144 768.316 73.628C768.482 72.8577 768.708 72.1018 768.992 71.3672C769.304 72.0956 769.533 72.8565 769.676 73.6358C769.675 73.7225 769.657 73.8082 769.621 73.8874C769.586 73.9666 769.534 74.0376 769.47 74.096C769.406 74.1544 769.33 74.1988 769.248 74.2266C769.166 74.2544 769.079 74.2648 768.992 74.2573Z" fill="#FFBE44"/>
<path d="M773.257 69.9923C773.264 70.0792 773.252 70.1664 773.224 70.2486C773.195 70.3309 773.15 70.4063 773.091 70.4704C773.032 70.5345 772.96 70.5858 772.881 70.6211C772.801 70.6565 772.715 70.6752 772.628 70.676C771.857 70.5098 771.101 70.2812 770.367 69.9923C771.096 69.6842 771.857 69.4575 772.636 69.3164C772.722 69.3161 772.808 69.3338 772.887 69.3683C772.966 69.4029 773.037 69.4536 773.096 69.5172C773.154 69.5808 773.199 69.6559 773.227 69.7377C773.254 69.8195 773.265 69.9062 773.257 69.9923Z" fill="#FFBE44"/>
<path d="M764.727 69.9923C764.722 69.9061 764.734 69.8197 764.763 69.7384C764.792 69.6571 764.838 69.5826 764.897 69.5194C764.955 69.4561 765.027 69.4055 765.106 69.3707C765.185 69.3358 765.27 69.3173 765.356 69.3164C766.127 69.4806 766.883 69.7066 767.617 69.9923C766.889 70.3049 766.128 70.5343 765.348 70.676C765.262 70.6753 765.176 70.6566 765.097 70.6211C765.018 70.5857 764.947 70.5343 764.888 70.4701C764.83 70.4059 764.785 70.3303 764.758 70.248C764.73 70.1658 764.719 70.0788 764.727 69.9923Z" fill="#FFBE44"/>
<path d="M772.006 66.9786C772.069 67.0381 772.119 67.1098 772.153 67.1893C772.188 67.2688 772.205 67.3544 772.205 67.4409C772.205 67.5274 772.188 67.613 772.153 67.6925C772.119 67.7719 772.069 67.8436 772.006 67.9032C771.344 68.3322 770.648 68.7064 769.924 69.0219C770.222 68.2884 770.6 67.5901 771.051 66.9398C771.112 66.872 771.187 66.8184 771.271 66.783C771.356 66.7476 771.447 66.7312 771.538 66.7349C771.629 66.7386 771.718 66.7624 771.799 66.8045C771.88 66.8466 771.951 66.9061 772.006 66.9786Z" fill="#FFBE44"/>
<path d="M765.978 73.0062C765.912 72.9493 765.859 72.8798 765.822 72.8018C765.784 72.7237 765.763 72.6388 765.759 72.5523C765.756 72.4658 765.77 72.3794 765.801 72.2985C765.831 72.2176 765.879 72.1438 765.939 72.0816C766.603 71.6556 767.299 71.2816 768.021 70.9629C767.724 71.6991 767.346 72.4 766.894 73.0528C766.833 73.1135 766.76 73.1608 766.679 73.1916C766.598 73.2224 766.512 73.236 766.426 73.2317C766.34 73.2273 766.255 73.2049 766.178 73.1661C766.101 73.1273 766.033 73.0728 765.978 73.0062Z" fill="#FFBE44"/>
<path d="M772.007 73.006C771.947 73.0687 771.875 73.1187 771.796 73.1529C771.717 73.187 771.631 73.2046 771.544 73.2046C771.458 73.2046 771.372 73.187 771.293 73.1529C771.213 73.1187 771.142 73.0687 771.082 73.006C770.654 72.3427 770.28 71.6465 769.963 70.9238C770.7 71.2208 771.401 71.5986 772.053 72.0504C772.121 72.112 772.174 72.1878 772.208 72.2723C772.243 72.3568 772.259 72.4479 772.254 72.5391C772.25 72.6304 772.225 72.7195 772.183 72.8002C772.14 72.8809 772.08 72.9511 772.007 73.006Z" fill="#FFBE44"/>
<path d="M765.978 66.9777C766.037 66.9139 766.108 66.863 766.188 66.8282C766.267 66.7934 766.353 66.7754 766.44 66.7754C766.527 66.7754 766.613 66.7934 766.692 66.8282C766.772 66.863 766.843 66.9139 766.902 66.9777C767.33 67.6384 767.704 68.3321 768.021 69.0521C767.286 68.758 766.587 68.3799 765.939 67.9255C765.871 67.8651 765.818 67.7905 765.782 67.7069C765.747 67.6234 765.731 67.5331 765.734 67.4424C765.738 67.3518 765.762 67.2631 765.804 67.1827C765.846 67.1024 765.905 67.0323 765.978 66.9777Z" fill="#FFBE44"/>
<path d="M769 70.5524C769.304 70.5524 769.551 70.3055 769.551 70.0008C769.551 69.6962 769.304 69.4492 769 69.4492C768.695 69.4492 768.448 69.6962 768.448 70.0008C768.448 70.3055 768.695 70.5524 769 70.5524Z" fill="#FFBE44"/>
<path d="M817.319 136.617C819.159 136.331 820.87 135.501 822.234 134.234C823.351 132.696 824.041 130.891 824.234 129L825.404 129.319C825.69 131.154 826.512 132.864 827.766 134.234C829.306 135.346 831.111 136.035 833 136.234L832.681 137.404C830.848 137.697 829.14 138.518 827.766 139.766C826.668 141.312 825.987 143.114 825.787 145L824.617 144.681C824.323 142.844 823.494 141.135 822.234 139.766C820.691 138.66 818.888 137.971 817 137.766L817.319 136.617Z" fill="white"/>
<path d="M900 8C902.209 8 904 6.20915 904 4.00001C904 1.79087 902.209 0 900 0C897.791 0 896 1.79087 896 4.00001C896 6.20915 897.791 8 900 8Z" fill="white"/>
<path d="M71.3191 136.617C73.1586 136.331 74.8705 135.501 76.234 134.234C77.3509 132.696 78.041 130.891 78.234 129L79.4042 129.319C79.69 131.154 80.5117 132.864 81.766 134.234C83.3065 135.346 85.1108 136.035 87 136.234L86.6809 137.404C84.848 137.697 83.1401 138.518 81.766 139.766C80.668 141.312 79.9866 143.114 79.7873 145L78.617 144.681C78.3227 142.844 77.4939 141.135 76.234 139.766C74.6907 138.66 72.8879 137.971 71 137.766L71.3191 136.617Z" fill="white"/>
<path d="M3.99999 8C6.20913 8 8 6.20915 8 4.00001C8 1.79087 6.20913 0 3.99999 0C1.79085 0 0 1.79087 0 4.00001C0 6.20915 1.79085 8 3.99999 8Z" fill="white"/>
</svg>
