<svg width="92" height="92" viewBox="0 0 92 92" fill="none" xmlns="http://www.w3.org/2000/svg">
<path d="M45.9999 90.62C70.6429 90.62 90.6199 70.643 90.6199 46C90.6199 21.3571 70.6429 1.38004 45.9999 1.38004C21.357 1.38004 1.37994 21.3571 1.37994 46C1.37994 70.643 21.357 90.62 45.9999 90.62Z" fill="url(#paint0_linear)"/>
<path d="M65.5269 63.779L50.4389 27.301C49.5879 25.415 48.3229 24.495 46.6554 24.495H45.3214C43.6539 24.495 42.3889 25.415 41.5379 27.301L34.9714 43.194H30.0034C28.5199 43.2055 27.3124 44.4015 27.3009 45.8965V45.931C27.3124 47.4145 28.5199 48.622 30.0034 48.6335H32.6714L26.4039 63.779C26.2889 64.1125 26.2199 64.4575 26.2199 64.814C26.2199 65.665 26.4844 66.332 26.9559 66.8495C27.4274 67.367 28.1059 67.62 28.9569 67.62C29.5204 67.6085 30.0609 67.436 30.5094 67.1025C30.9924 66.769 31.3259 66.286 31.5904 65.734L38.4904 48.622H43.2744C44.7579 48.6105 45.9654 47.4145 45.9769 45.9195V45.8505C45.9654 44.367 44.7579 43.1595 43.2744 43.148H40.7214L45.9884 30.0265L60.3404 65.7225C60.6049 66.2745 60.9384 66.7575 61.4214 67.091C61.8699 67.4245 62.4219 67.597 62.9739 67.6085C63.8249 67.6085 64.4919 67.3555 64.9749 66.838C65.4579 66.3205 65.7109 65.6535 65.7109 64.8025C65.7224 64.4575 65.6649 64.101 65.5269 63.779Z" fill="white"/>
<defs>
<linearGradient id="paint0_linear" x1="79.268" y1="18.0075" x2="12.8734" y2="73.8717" gradientUnits="userSpaceOnUse">
<stop stop-color="#B6509E"/>
<stop offset="1" stop-color="#2EBAC6"/>
</linearGradient>
</defs>
</svg>
