<svg width="30" height="30" viewBox="0 0 30 30" fill="none" xmlns="http://www.w3.org/2000/svg">
<path d="M15 28.58C22.5 28.58 28.58 22.5 28.58 15C28.58 7.49999 22.5 1.42001 15 1.42001C7.49996 1.42001 1.41998 7.49999 1.41998 15C1.41998 22.5 7.49996 28.58 15 28.58Z" fill="url(#paint0_linear)"/>
<path d="M20.943 20.411L16.351 9.30899C16.092 8.73499 15.707 8.45499 15.1995 8.45499H14.7935C14.286 8.45499 13.901 8.73499 13.642 9.30899L11.6435 14.146H10.1315C9.67998 14.1495 9.31248 14.5135 9.30898 14.9685V14.979C9.31248 15.4305 9.67998 15.798 10.1315 15.8015H10.9435L9.03598 20.411C9.00098 20.5125 8.97998 20.6175 8.97998 20.726C8.97998 20.985 9.06048 21.188 9.20398 21.3455C9.34748 21.503 9.55398 21.58 9.81298 21.58C9.98448 21.5765 10.149 21.524 10.2855 21.4225C10.4325 21.321 10.534 21.174 10.6145 21.006L12.7145 15.798H14.1705C14.622 15.7945 14.9895 15.4305 14.993 14.9755V14.9545C14.9895 14.503 14.622 14.1355 14.1705 14.132H13.3935L14.9965 10.1385L19.3645 21.0025C19.445 21.1705 19.5465 21.3175 19.6935 21.419C19.83 21.5205 19.998 21.573 20.166 21.5765C20.425 21.5765 20.628 21.4995 20.775 21.342C20.922 21.1845 20.999 20.9815 20.999 20.7225C21.0025 20.6175 20.985 20.509 20.943 20.411Z" fill="white"/>
<path d="M15 29.08C22.7762 29.08 29.08 22.7762 29.08 15C29.08 7.22387 22.7762 0.920044 15 0.920044C7.22387 0.920044 0.920044 7.22387 0.920044 15C0.920044 22.7762 7.22387 29.08 15 29.08Z" stroke="#0F0A45"/>
<defs>
<linearGradient id="paint0_linear" x1="25.125" y1="6.48054" x2="4.91799" y2="23.4827" gradientUnits="userSpaceOnUse">
<stop stop-color="#B6509E"/>
<stop offset="1" stop-color="#2EBAC6"/>
</linearGradient>
</defs>
</svg>
