<svg width="92" height="92" viewBox="0 0 92 92" fill="none" xmlns="http://www.w3.org/2000/svg">
<path d="M46 92C71.4051 92 92 71.4051 92 46C92 20.5949 71.4051 0 46 0C20.5949 0 0 20.5949 0 46C0 71.4051 20.5949 92 46 92Z" fill="#231D65"/>
<path d="M57.3695 41.6569L57.358 66.2554L57.4002 78.5642L68.8197 71.7102L68.7967 34.8029L57.3695 41.6569Z" fill="#937DFF"/>
<path d="M68.7968 34.8029L57.3697 27.9528L46 34.8029L57.431 41.6569L68.7968 34.8029Z" fill="#FFBE44"/>
<path d="M34.6148 27.14L34.5803 41.6722L45.9998 34.8144L45.9768 20.286L34.6148 27.14Z" fill="#937DFF"/>
<path d="M45.977 20.286L34.5498 13.4359L23.1801 20.286L34.615 27.14L45.977 20.286Z" fill="#FFBE44"/>
<path d="M45.9883 34.8335L45.9499 34.8105L34.5803 41.6607L45.9959 48.507L45.9883 34.8335Z" fill="#FFBE44"/>
<path d="M45.9881 59.0717C45.9881 54.9662 43.83 51.1597 40.3071 49.0475C37.7848 47.5372 34.5763 49.3542 34.5763 52.371V69.0537L45.992 62.2035L45.9881 59.0717Z" fill="#937DFF"/>
<path d="M45.9959 62.2036L34.5803 69.0575L45.9959 75.9039V62.2036Z" fill="#FFBE44"/>
</svg>
