<svg width="28" height="28" viewBox="0 0 28 28" fill="none" xmlns="http://www.w3.org/2000/svg">
<path d="M14 28C21.732 28 28 21.732 28 14C28 6.26801 21.732 0 14 0C6.26801 0 0 6.26801 0 14C0 21.732 6.26801 28 14 28Z" fill="#231D65"/>
<path d="M17.4603 12.6782L17.4568 20.1647L17.4696 23.9108L20.9451 21.8249L20.9381 10.5922L17.4603 12.6782Z" fill="#937DFF"/>
<path d="M20.9382 10.5922L17.4603 8.50735L14 10.5922L17.479 12.6782L20.9382 10.5922Z" fill="#FFBE44"/>
<path d="M10.5349 8.26001L10.5244 12.6828L13.9999 10.5957L13.9929 6.17401L10.5349 8.26001Z" fill="#937DFF"/>
<path d="M13.993 6.17401L10.5151 4.08917L7.05481 6.17401L10.535 8.26001L13.993 6.17401Z" fill="#FFBE44"/>
<path d="M13.9964 10.6015L13.9847 10.5945L10.5244 12.6793L13.9987 14.763L13.9964 10.6015Z" fill="#FFBE44"/>
<path d="M13.9964 17.9783C13.9964 16.7288 13.3395 15.5703 12.2674 14.9275C11.4997 14.4678 10.5232 15.0208 10.5232 15.939V21.0163L13.9975 18.9315L13.9964 17.9783Z" fill="#937DFF"/>
<path d="M13.9987 18.9315L10.5244 21.0175L13.9987 23.1012V18.9315Z" fill="#FFBE44"/>
</svg>
