<svg viewBox="0 0 68 68" fill="none" xmlns="http://www.w3.org/2000/svg">
<path fill-rule="evenodd" clip-rule="evenodd" d="M34 0C52.7748 0 68 15.2252 68 34C68 52.7748 52.7748 68 34 68C15.2252 68 0 52.7748 0 34C0 15.2252 15.2252 0 34 0Z" fill="white"/>
<path d="M34.51 48.2122C23.6368 48.2122 14.824 45.0707 14.824 40.8615C14.824 38.6651 17.2244 36.6862 21.0664 35.2922C24.0652 37.2166 29.0972 38.2026 34.8024 38.2026C40.3716 38.2026 45.2948 36.999 48.3208 35.1562C51.9452 36.5366 54.196 38.461 54.196 40.5826C54.196 44.7986 45.3832 48.2122 34.51 48.2122Z" fill="black"/>
<path d="M34.6257 37.2577C26.3841 37.2577 19.6997 34.6737 19.6997 31.4845C19.6997 29.7165 21.7601 28.1321 24.9901 27.0781C27.2953 28.2817 30.7497 29.0501 34.6257 29.0501C38.5017 29.0501 41.9561 28.2817 44.2613 27.0781C47.4981 28.1389 49.5517 29.7165 49.5517 31.4845C49.5585 34.6737 42.8741 37.2577 34.6257 37.2577Z" fill="black"/>
<path d="M34.5711 28.0903C28.1995 28.0903 23.0315 25.9551 23.0315 23.3303C23.0315 20.7055 28.1995 18.5703 34.5711 18.5703C40.9427 18.5703 46.1107 20.7055 46.1107 23.3303C46.1107 25.9551 40.9427 28.0903 34.5711 28.0903Z" fill="black"/>
</svg>
