<svg width="28" height="28" viewBox="0 0 28 28" fill="none" xmlns="http://www.w3.org/2000/svg">
<path fill-rule="evenodd" clip-rule="evenodd" d="M14 0C21.7308 0 28 6.2692 28 14C28 21.7308 21.7308 28 14 28C6.2692 28 0 21.7308 0 14C0 6.2692 6.2692 0 14 0Z" fill="white"/>
<path d="M14.2101 19.8521C9.73293 19.8521 6.10413 18.5585 6.10413 16.8253C6.10413 15.9209 7.09253 15.1061 8.67453 14.5321C9.90933 15.3245 11.9813 15.7305 14.3305 15.7305C16.6237 15.7305 18.6509 15.2349 19.8969 14.4761C21.3893 15.0445 22.3161 15.8369 22.3161 16.7105C22.3161 18.4465 18.6873 19.8521 14.2101 19.8521Z" fill="black"/>
<path d="M14.2577 15.3414C10.8641 15.3414 8.11169 14.2774 8.11169 12.9642C8.11169 12.2362 8.96009 11.5838 10.2901 11.1498C11.2393 11.6454 12.6617 11.9618 14.2577 11.9618C15.8537 11.9618 17.2761 11.6454 18.2253 11.1498C19.5581 11.5866 20.4037 12.2362 20.4037 12.9642C20.4065 14.2774 17.6541 15.3414 14.2577 15.3414Z" fill="black"/>
<path d="M14.2352 11.5666C11.6116 11.5666 9.48364 10.6874 9.48364 9.60658C9.48364 8.52578 11.6116 7.64658 14.2352 7.64658C16.8588 7.64658 18.9868 8.52578 18.9868 9.60658C18.9868 10.6874 16.8588 11.5666 14.2352 11.5666Z" fill="black"/>
<path d="M14 0.5C21.4547 0.5 27.5 6.54534 27.5 14C27.5 21.4547 21.4547 27.5 14 27.5C6.54534 27.5 0.5 21.4547 0.5 14C0.5 6.54534 6.54534 0.5 14 0.5Z" stroke="#0F0A45"/>
</svg>
