<svg width="28" height="28" viewBox="0 0 28 28" fill="none" xmlns="http://www.w3.org/2000/svg">
<path d="M24.3481 16.7308C24.1265 16.8812 23.8678 16.97 23.5993 16.9878C23.3307 17.0055 23.0623 16.9516 22.8223 16.8317C22.2588 16.5181 21.955 15.7827 21.955 14.7805V11.709C21.955 10.2346 21.3623 9.18553 20.3706 8.90073C18.6947 8.41766 17.4433 10.4401 16.9603 11.2007L13.9963 15.9269V10.1589C13.9634 8.82863 13.5243 8.03193 12.6937 7.794C12.1448 7.63538 11.3215 7.70027 10.5201 8.90434L3.89336 19.3841C3.01164 17.7221 2.55447 15.8735 2.56142 13.9982C2.56142 7.68225 7.68427 2.54513 13.9963 2.54513C20.3084 2.54513 25.4496 7.68225 25.4496 13.9982V14.0306C25.4496 14.0306 25.4496 14.0523 25.4496 14.0631C25.5118 15.2852 25.1093 16.2585 24.3518 16.7308H24.3481ZM28.0073 14.0018V13.9405C27.9561 6.24385 21.6916 0 13.9963 0C6.3011 0 0 6.2799 0 13.9982C0 21.7165 6.27914 28 13.9963 28C17.5358 27.9998 20.9406 26.6632 23.5102 24.2652C23.7596 24.0337 23.9064 23.7147 23.9187 23.3773C23.9311 23.0399 23.8079 22.7113 23.5761 22.4627C23.4651 22.3418 23.331 22.2437 23.1814 22.174C23.0318 22.1044 22.8697 22.0646 22.7044 22.0569C22.5391 22.0492 22.3739 22.0737 22.2183 22.1291C22.0627 22.1846 21.9198 22.2698 21.7977 22.3798C20.6914 23.4137 19.3844 24.2167 17.9553 24.7405C16.5261 25.2644 15.0043 25.4983 13.4811 25.4283C11.9579 25.3583 10.4647 24.9857 9.09131 24.333C7.7179 23.6803 6.49252 22.7609 5.48876 21.63L11.4532 12.1849V16.5433C11.4532 18.6378 12.2765 19.3156 12.9681 19.5138C13.6597 19.7121 14.7172 19.5751 15.8259 17.8015L19.1192 12.549C19.2216 12.3796 19.3204 12.2354 19.4083 12.1092V14.7805C19.4083 16.738 20.206 18.3026 21.6038 19.074C22.2394 19.4121 22.9556 19.5754 23.6773 19.5468C24.399 19.5183 25.0997 19.299 25.7057 18.9118C27.2426 17.9276 28.0805 16.1468 27.9927 14.0018H28.0073Z" fill="white"/>
</svg>
