<svg width="28" height="28" viewBox="0 0 28 28" fill="none" xmlns="http://www.w3.org/2000/svg">
<g clip-path="url(#clip0_6767_136747)">
<path d="M27.9999 13.9383C28.0121 16.7072 27.2029 19.4175 25.6748 21.7265C24.1466 24.0356 21.9681 25.8396 19.4146 26.9105C16.8612 27.9814 14.0475 28.2711 11.3294 27.7429C8.61135 27.2147 6.11093 25.8924 4.14437 23.9432C2.1778 21.9939 0.833422 19.5053 0.281226 16.792C-0.270971 14.0787 -0.00618075 11.2625 1.04211 8.69972C2.0904 6.1369 3.87511 3.94249 6.17056 2.39398C8.466 0.845465 11.1691 0.0124038 13.938 0.000137388C15.7765 -0.00800733 17.5986 0.346054 19.3003 1.04211C21.002 1.73816 22.5499 2.76257 23.8556 4.05684C25.1614 5.35112 26.1995 6.88992 26.9105 8.58537C27.6216 10.2808 27.9918 12.0997 27.9999 13.9383Z" fill="#8DC63F"/>
<path d="M26.9505 13.9428C26.9631 16.5038 26.2159 19.0111 24.8035 21.1474C23.3911 23.2838 21.3768 24.9533 19.0154 25.9448C16.6541 26.9363 14.0517 27.2053 11.5375 26.7177C9.02325 26.2301 6.7101 25.0078 4.89058 23.2055C3.07106 21.4031 1.82691 19.1017 1.31548 16.5922C0.804056 14.0827 1.04832 11.4779 2.01739 9.10725C2.98646 6.7366 4.6368 4.70658 6.75969 3.27393C8.88257 1.84129 11.3826 1.07039 13.9437 1.05872C17.3767 1.04361 20.6752 2.39227 23.1142 4.80825C25.5532 7.22423 26.933 10.5098 26.9505 13.9428Z" fill="#F9E988"/>
<path d="M14.2393 1.89473C15.0624 1.74863 15.9048 1.74863 16.7278 1.89473C17.5589 2.02648 18.3622 2.29562 19.1048 2.6911C19.8434 3.0969 20.4815 3.64777 21.1165 4.16415C21.7516 4.68052 22.3836 5.20907 22.9852 5.78734C23.5994 6.35654 24.1353 7.0047 24.579 7.71487C25.0357 8.41947 25.4101 9.17411 25.6949 9.964C26.2357 11.5527 26.4234 13.2641 26.1535 14.8965H26.0734C25.8025 13.2784 25.4352 11.7363 24.856 10.2694C24.584 9.53199 24.2641 8.81321 23.8983 8.11763C23.5167 7.41817 23.0961 6.74077 22.6383 6.08864C22.1729 5.43175 21.6026 4.85593 20.9502 4.38429C20.2928 3.9156 19.537 3.61226 18.8055 3.32415C18.0741 3.03603 17.3487 2.74081 16.5858 2.52168C15.8229 2.30255 15.0478 2.13821 14.2383 1.97893L14.2393 1.89473Z" fill="white"/>
<path d="M20.568 9.37187C19.6286 9.09999 18.6546 8.71448 17.6686 8.32491C17.6117 8.07738 17.3926 7.76897 16.9493 7.39259C16.3051 6.83361 15.0948 6.84781 14.0488 7.09535C12.8944 6.82346 11.7541 6.72708 10.6594 6.9939C1.70653 9.46013 6.78305 15.4771 3.49609 21.5255C3.96377 22.5177 9.00479 28.3064 16.299 26.7532C16.299 26.7532 13.8044 20.7585 19.4338 17.8814C24 15.539 27.2991 11.2051 20.568 9.37187Z" fill="#8BC53F"/>
<path d="M21.6753 13.3092C21.6759 13.4166 21.6447 13.5217 21.5856 13.6113C21.5264 13.7009 21.442 13.7709 21.3431 13.8126C21.2442 13.8542 21.1351 13.8655 21.0297 13.8452C20.9243 13.8248 20.8273 13.7737 20.751 13.6982C20.6746 13.6227 20.6224 13.5263 20.6009 13.4212C20.5793 13.316 20.5895 13.2068 20.63 13.1074C20.6705 13.008 20.7396 12.9228 20.8285 12.8627C20.9174 12.8026 21.0222 12.7701 21.1295 12.7695C21.2734 12.769 21.4116 12.8255 21.5139 12.9266C21.6162 13.0278 21.6743 13.1654 21.6753 13.3092Z" fill="white"/>
<path d="M14.0469 7.09198C14.6992 7.13865 17.0579 7.90357 17.6666 8.32154C17.1593 6.85053 15.4519 6.65473 14.0469 7.09198Z" fill="#009345"/>
<path d="M14.6677 10.8113C14.6679 11.3065 14.5213 11.7907 14.2463 12.2025C13.9713 12.6144 13.5804 12.9355 13.123 13.1252C12.6656 13.3148 12.1622 13.3646 11.6765 13.2682C11.1907 13.1718 10.7445 12.9335 10.3942 12.5835C10.0439 12.2335 9.80527 11.7875 9.70846 11.3018C9.61166 10.8162 9.66104 10.3127 9.85036 9.85515C10.0397 9.39757 10.3604 9.0064 10.7721 8.73112C11.1837 8.45583 11.6677 8.30879 12.1629 8.30859C12.8266 8.30859 13.4631 8.5721 13.9326 9.04121C14.4021 9.51032 14.6661 10.1466 14.6667 10.8103L14.6677 10.8113Z" fill="white"/>
<path d="M13.9286 10.8354C13.9286 11.1837 13.8253 11.5242 13.6318 11.8138C13.4382 12.1035 13.1632 12.3292 12.8414 12.4625C12.5196 12.5958 12.1655 12.6307 11.8238 12.5627C11.4822 12.4947 11.1684 12.327 10.9221 12.0807C10.6758 11.8344 10.508 11.5206 10.4401 11.179C10.3721 10.8373 10.407 10.4832 10.5403 10.1614C10.6736 9.8396 10.8993 9.56455 11.189 9.37103C11.4786 9.17751 11.8191 9.07422 12.1674 9.07422C12.6345 9.07422 13.0825 9.25977 13.4127 9.59005C13.743 9.92033 13.9286 10.3683 13.9286 10.8354Z" fill="#58595B"/>
<path d="M23.7014 14.4132C21.6725 15.8426 19.3655 16.9271 16.0927 16.9271C14.5609 16.9271 14.2504 15.3039 13.238 16.0973C12.7155 16.5092 10.8732 17.4303 9.41128 17.3603C7.9494 17.2903 5.57954 16.4341 4.91911 13.3125C4.65737 16.4341 4.52345 18.7319 3.34766 21.3666C5.68099 25.1029 11.2445 27.9851 16.2946 26.7434C15.7559 22.9542 19.0723 19.2432 20.9329 17.3471C21.643 16.6279 22.9923 15.4541 23.7014 14.4142V14.4132Z" fill="#8BC53F"/>
<path d="M23.6242 14.508C22.9942 15.0822 22.2445 15.5073 21.4816 15.8826C20.7092 16.2489 19.9043 16.542 19.0772 16.7582C18.2494 16.9722 17.3861 17.1335 16.5116 17.0544C15.6371 16.9753 14.7433 16.678 14.1641 16.0226L14.1915 15.9912C14.9016 16.4518 15.7213 16.6141 16.537 16.6374C17.3637 16.6628 18.1907 16.5948 19.0022 16.4345C19.8219 16.2627 20.6238 16.0148 21.3974 15.694C22.1714 15.3744 22.9374 15.0041 23.5968 14.4766L23.6242 14.508Z" fill="#58595B"/>
</g>
<defs>
<clipPath id="clip0_6767_136747">
<rect width="28" height="28" fill="white"/>
</clipPath>
</defs>
</svg>
