<svg width="28" height="28" viewBox="0 0 28 28" fill="none" xmlns="http://www.w3.org/2000/svg">
<path d="M28 14C28 6.26801 21.732 0 14 0C6.26801 0 0 6.26801 0 14C0 21.732 6.26801 28 14 28C21.732 28 28 21.732 28 14Z" fill="white"/>
<path d="M23.4278 7.37708V11.7107H19.1749V9.54532H16.8856V7.37708H12.552V9.54532H10.3434V18.2529H12.552V20.4615H16.8856V18.2932H19.0538V16.0875H23.4278V20.4615H21.2999V22.7076H16.8856V24.9565H12.5116V22.6268H8.21837V20.5797H6.00977V7.37708H8.25585V5.16848H12.552V3.04349H16.9259V5.13099H21.2595V7.37708H23.4278Z" fill="#3A3A3A"/>
<path d="M6.00972 7.37711H4.56519V13.9366H6.00972V7.37711Z" fill="#64D7A8"/>
<path d="M6.00972 13.9366H4.56519V20.5797H6.00972V13.9366Z" fill="#F7B940"/>
<path d="M8.25874 5.17136H6.81421V7.37708H8.25874V5.17136Z" fill="#64D7A8"/>
<path d="M8.21541 20.5797H6.77087V22.6268H8.21541V20.5797Z" fill="#F7B940"/>
<path d="M12.552 3.04349H11.1074V5.17136H12.552V3.04349Z" fill="#1586F3"/>
<path d="M12.5115 22.624H11.067V24.9537H12.5115V22.624Z" fill="#FF545E"/>
<path d="M16.8856 7.37711H15.441V9.54246H16.8856V7.37711Z" fill="#1586F3"/>
<path d="M16.8884 18.2932H15.4438V20.4615H16.8884V18.2932Z" fill="#FF545E"/>
<path d="M19.1719 9.54532H17.7274V11.7136H19.1719V9.54532Z" fill="#1586F3"/>
<path d="M19.0538 16.0875H17.6093V18.2961H19.0538V16.0875Z" fill="#FF545E"/>
</svg>
