<svg width="92" height="92" viewBox="0 0 92 92" fill="none" xmlns="http://www.w3.org/2000/svg">
<path d="M92 46C92 20.5949 71.4051 0 46 0C20.5949 0 0 20.5949 0 46C0 71.4051 20.5949 92 46 92C71.4051 92 92 71.4051 92 46Z" fill="white"/>
<path d="M76.9769 24.2389V38.4779H63.0032V31.3632H55.4811V24.2389H41.2421V31.3632H33.9853V59.9737H41.2421V67.2305H55.4811V60.1063H62.6053V52.8589H76.9769V67.2305H69.9853V74.6105H55.4811V82H41.1095V74.3453H27.0032V67.6189H19.7463V24.2389H27.1263V16.9821H41.2421V10H55.6137V16.8589H69.8527V24.2389H76.9769Z" fill="#3A3A3A"/>
<path d="M19.7463 24.239H15V45.7916H19.7463V24.239Z" fill="#64D7A8"/>
<path d="M19.7463 45.7916H15V67.619H19.7463V45.7916Z" fill="#F7B940"/>
<path d="M27.1358 16.9916H22.3895V24.2389H27.1358V16.9916Z" fill="#64D7A8"/>
<path d="M26.9937 67.619H22.2474V74.3453H26.9937V67.619Z" fill="#F7B940"/>
<path d="M41.2421 10H36.4958V16.9916H41.2421V10Z" fill="#1586F3"/>
<path d="M41.1095 74.3358H36.3632V81.9906H41.1095V74.3358Z" fill="#FF545E"/>
<path d="M55.4811 24.239H50.7347V31.3537H55.4811V24.239Z" fill="#1586F3"/>
<path d="M55.4906 60.1063H50.7443V67.2305H55.4906V60.1063Z" fill="#FF545E"/>
<path d="M62.9937 31.3632H58.2474V38.4874H62.9937V31.3632Z" fill="#1586F3"/>
<path d="M62.6053 52.859H57.859V60.1159H62.6053V52.859Z" fill="#FF545E"/>
</svg>
