<svg width="24" height="24" viewBox="0 0 24 24" fill="none" xmlns="http://www.w3.org/2000/svg">
<path d="M14.0001 0.523438C21.4473 0.523438 27.4768 6.55291 27.4768 14.0001C27.4768 21.4473 21.4473 27.4768 14.0001 27.4768C6.55291 27.4768 0.523438 21.4473 0.523438 14.0001C0.523438 6.55291 6.55291 0.523438 14.0001 0.523438Z" fill="#38336D" stroke="#FFBE44"/>
<path d="M15.4466 9.13477L12.5649 18.8531L15.4466 9.13477Z" fill="#373382"/>
<path d="M10.2668 10.8611L9.57846 10.1494C8.89013 10.8144 6.19513 13.5327 6.07846 13.6494L5.7168 13.9994L9.5668 17.8494L10.2785 17.1377L7.12846 13.9994C7.91013 13.2177 9.7418 11.3861 10.2668 10.8611Z" fill="#FFBE44" stroke="#FFBE44" stroke-width="0.5"/>
<path d="M18.4333 10.1494L17.7217 10.8611L20.8717 13.9994C20.1017 14.7811 18.27 16.6127 17.7333 17.1377L18.4333 17.8494C19.1217 17.1844 21.8167 14.4661 21.9333 14.3494L22.2833 13.9994L18.4333 10.1494Z" fill="#FFBE44" stroke="#FFBE44" stroke-width="0.5"/>
<path d="M15.0989 8.53381L11.938 19.1807L12.8998 19.4662L16.0607 8.81936L15.0989 8.53381Z" fill="#FFBE44" stroke="#FFBE44" stroke-width="0.5"/>
</svg>
