<svg width="28" height="28" viewBox="0 0 28 28" fill="none" xmlns="http://www.w3.org/2000/svg">
<path d="M28 14C28 6.26801 21.732 0 14 0C6.26801 0 0 6.26801 0 14C0 21.732 6.26801 28 14 28C21.732 28 28 21.732 28 14Z" fill="black"/>
<path d="M13.7869 1.82608C16.0787 1.82608 17.6522 3.42086 17.7769 5.44782C17.8236 6.04153 17.7301 6.63791 17.5038 7.1888C17.2775 7.73969 16.9249 8.22965 16.4743 8.61912C16.2702 8.80515 16.1064 9.03111 15.9931 9.28302C15.8798 9.53492 15.8194 9.8074 15.8157 10.0836C15.812 10.3598 15.865 10.6338 15.9715 10.8886C16.078 11.1435 16.2357 11.3738 16.4348 11.5652C16.6324 11.7573 16.8676 11.9064 17.1256 12.0033C17.3837 12.1002 17.6589 12.1426 17.9341 12.1281C18.2093 12.1135 18.4786 12.0422 18.7249 11.9186C18.9713 11.795 19.1894 11.6219 19.3656 11.41C19.933 10.7483 20.7071 10.2975 21.5625 10.1305C22.418 9.96343 23.3048 10.09 24.0794 10.4896C24.854 10.8892 25.4711 11.5385 25.8307 12.3325C26.1904 13.1264 26.2717 14.0185 26.0613 14.8643C25.9033 15.5857 25.5331 16.2434 24.9984 16.7526C24.4636 17.2619 23.7887 17.5996 23.0604 17.7222C21.5752 18.0265 20.3213 17.5274 19.3169 16.4043C19.0868 16.139 18.7843 15.9465 18.4465 15.8503C18.1087 15.7541 17.7502 15.7584 17.4148 15.8626C17.0607 15.9377 16.7359 16.1135 16.4794 16.3689C16.2229 16.6243 16.0457 16.9484 15.9691 17.3022C15.8678 17.6601 15.8713 18.0396 15.9792 18.3957C16.0871 18.7517 16.2949 19.0693 16.5778 19.3109C17.0535 19.7219 17.4256 20.2392 17.6641 20.8208C17.9025 21.4024 18.0006 22.0321 17.9504 22.6587C17.8918 23.2726 17.6877 23.8637 17.3549 24.3829C17.0221 24.9021 16.5702 25.3344 16.0368 25.6439C15.5035 25.9535 14.9039 26.1313 14.288 26.1628C13.6721 26.1942 13.0576 26.0782 12.4955 25.8245C11.9334 25.5708 11.44 25.1867 11.0561 24.7041C10.6722 24.2215 10.4089 23.6542 10.2882 23.0494C10.1675 22.4447 10.1927 21.8198 10.3619 21.2268C10.5311 20.6338 10.8392 20.0896 11.2609 19.6396C11.6126 19.34 11.8915 18.9643 12.0765 18.5409C12.231 18.1134 12.2362 17.6461 12.0912 17.2153C11.9462 16.7845 11.6596 16.4154 11.278 16.1684C10.8965 15.9213 10.4425 15.8107 9.99004 15.8547C9.53759 15.8986 9.11337 16.0945 8.78651 16.4104C8.47761 16.7477 8.13609 17.0535 7.76694 17.3235C7.21641 17.7031 6.57221 17.9243 5.90457 17.963C5.23694 18.0016 4.57151 17.8562 3.98086 17.5426C3.35611 17.2566 2.82349 16.802 2.44285 16.23C2.0622 15.6579 1.84861 14.9911 1.82607 14.3043C1.76657 13.4059 2.02744 12.5154 2.56235 11.791C3.09726 11.0666 3.87159 10.5553 4.74781 10.3478C6.26955 9.97956 7.56303 10.4178 8.62825 11.5652C8.81106 11.7697 9.03386 11.9344 9.28288 12.0494C9.53189 12.1643 9.80184 12.2269 10.076 12.2334C10.3502 12.2399 10.6228 12.19 10.877 12.087C11.1311 11.9839 11.3615 11.8299 11.5537 11.6343C11.746 11.4387 11.8961 11.2057 11.9947 10.9498C12.0934 10.6939 12.1385 10.4205 12.1273 10.1465C12.1161 9.87246 12.0489 9.60363 11.9297 9.35663C11.8105 9.10963 11.6419 8.8897 11.4343 8.71043C10.9503 8.31087 10.5707 7.79952 10.3284 7.2205C10.086 6.64148 9.98827 6.0122 10.0435 5.38695C10.1287 3.98086 11.4952 1.82608 13.7869 1.82608ZM24.5852 13.9483C24.59 13.4944 24.46 13.0493 24.2115 12.6694C23.963 12.2896 23.6073 11.992 23.1896 11.8146C22.7718 11.6371 22.3107 11.5877 21.8648 11.6727C21.4189 11.7576 21.0083 11.973 20.685 12.2916C20.3617 12.6102 20.1403 13.0176 20.0488 13.4622C19.9574 13.9068 20 14.3686 20.1714 14.7889C20.3427 15.2092 20.6349 15.5692 21.0111 15.8232C21.3873 16.0772 21.8304 16.2138 22.2843 16.2156C22.5843 16.2181 22.8819 16.1613 23.16 16.0486C23.438 15.9359 23.6911 15.7695 23.9048 15.5589C24.1185 15.3484 24.2886 15.0977 24.4054 14.8213C24.5221 14.545 24.5832 14.2483 24.5852 13.9483ZM5.68825 16.383C6.1402 16.3848 6.58257 16.2528 6.95973 16.0038C7.33689 15.7548 7.63201 15.3998 7.80796 14.9835C7.98392 14.5672 8.03285 14.1082 7.94862 13.6642C7.86439 13.2201 7.65074 12.8109 7.33455 12.488C7.01837 12.1651 6.61375 11.9428 6.1716 11.8492C5.72944 11.7557 5.26948 11.7949 4.84957 11.962C4.42965 12.1292 4.06853 12.4167 3.81161 12.7885C3.55469 13.1604 3.41345 13.5998 3.40564 14.0517C3.39999 14.3555 3.45479 14.6573 3.56686 14.9397C3.67892 15.2221 3.84602 15.4794 4.05842 15.6966C4.27082 15.9138 4.5243 16.0866 4.8041 16.205C5.0839 16.3234 5.38444 16.3849 5.68825 16.3861V16.383ZM16.3739 22.3209C16.3763 21.8681 16.2445 21.4248 15.9952 21.0469C15.7459 20.669 15.3903 20.3734 14.9732 20.1974C14.556 20.0213 14.0961 19.9728 13.6515 20.0579C13.2068 20.143 12.7973 20.3579 12.4746 20.6755C12.1519 20.9931 11.9306 21.3991 11.8384 21.8424C11.7463 22.2856 11.7875 22.7462 11.9568 23.1661C12.1262 23.586 12.4161 23.9463 12.79 24.2015C13.164 24.4568 13.6051 24.5956 14.0578 24.6004C14.3597 24.6032 14.6591 24.5465 14.939 24.4333C15.2189 24.3202 15.4737 24.153 15.6889 23.9412C15.904 23.7295 16.0753 23.4774 16.1928 23.1993C16.3104 22.9213 16.3719 22.6227 16.3739 22.3209ZM13.8904 8.0013C14.3438 8.0055 14.7882 7.87513 15.1675 7.62668C15.5467 7.37824 15.8438 7.02289 16.021 6.60558C16.1983 6.18828 16.2477 5.72778 16.1632 5.28234C16.0787 4.83691 15.8639 4.42656 15.5461 4.10321C15.2283 3.77986 14.8217 3.55804 14.3778 3.46583C13.9339 3.37361 13.4726 3.41513 13.0523 3.58514C12.632 3.75515 12.2716 4.04601 12.0166 4.42091C11.7616 4.79582 11.6236 5.23793 11.62 5.6913C11.6164 5.99233 11.6723 6.2911 11.7847 6.57042C11.897 6.84973 12.0635 7.10406 12.2745 7.31877C12.4855 7.53347 12.737 7.70432 13.0143 7.82145C13.2916 7.93859 13.5894 7.99971 13.8904 8.0013Z" fill="white"/>
<path d="M23.8639 13.927C23.8639 14.1332 23.8233 14.3374 23.7444 14.5279C23.6654 14.7185 23.5498 14.8916 23.4039 15.0374C23.2581 15.1833 23.085 15.2989 22.8944 15.3779C22.7039 15.4568 22.4997 15.4974 22.2935 15.4974C22.0872 15.4974 21.883 15.4568 21.6925 15.3779C21.5019 15.2989 21.3288 15.1833 21.183 15.0374C21.0372 14.8916 20.9215 14.7185 20.8426 14.5279C20.7636 14.3374 20.723 14.1332 20.723 13.927C20.723 13.7207 20.7636 13.5165 20.8426 13.326C20.9215 13.1355 21.0372 12.9623 21.183 12.8165C21.3288 12.6707 21.5019 12.555 21.6925 12.4761C21.883 12.3972 22.0872 12.3565 22.2935 12.3565C22.4997 12.3565 22.7039 12.3972 22.8944 12.4761C23.085 12.555 23.2581 12.6707 23.4039 12.8165C23.5498 12.9623 23.6654 13.1355 23.7444 13.326C23.8233 13.5165 23.8639 13.7207 23.8639 13.927Z" fill="white"/>
<path d="M4.13 14.0852C4.13123 13.7735 4.22502 13.4692 4.39947 13.2108C4.57391 12.9525 4.82116 12.7518 5.10984 12.6342C5.39853 12.5166 5.71564 12.4874 6.02094 12.5503C6.32625 12.6132 6.606 12.7653 6.8247 12.9875C7.0434 13.2096 7.19119 13.4917 7.24934 13.7979C7.30748 14.1041 7.27335 14.4208 7.15128 14.7076C7.02921 14.9944 6.82469 15.2385 6.56368 15.4089C6.30267 15.5793 5.99692 15.6684 5.68522 15.6648C5.27053 15.6584 4.87499 15.4891 4.58401 15.1936C4.29303 14.8981 4.12996 14.4999 4.13 14.0852Z" fill="white"/>
<path d="M15.6465 22.3148C15.6429 22.6239 15.5478 22.925 15.3732 23.1801C15.1986 23.4352 14.9523 23.6328 14.6654 23.7481C14.3786 23.8633 14.064 23.891 13.7615 23.8276C13.4589 23.7642 13.1819 23.6125 12.9654 23.3918C12.749 23.1711 12.6028 22.8912 12.5453 22.5875C12.4877 22.2838 12.5215 21.9698 12.6423 21.6852C12.7631 21.4007 12.9655 21.1583 13.2239 20.9887C13.4823 20.819 13.7852 20.7298 14.0944 20.7322C14.5098 20.737 14.9064 20.9062 15.1973 21.2029C15.4883 21.4995 15.6498 21.8993 15.6465 22.3148Z" fill="white"/>
<path d="M13.9117 7.27698C13.6016 7.27758 13.2983 7.18617 13.0401 7.01431C12.782 6.84245 12.5806 6.59786 12.4615 6.31151C12.3424 6.02516 12.3109 5.70992 12.3711 5.40567C12.4312 5.10143 12.5802 4.82186 12.7993 4.60235C13.0184 4.38285 13.2977 4.23326 13.6018 4.17254C13.9059 4.11181 14.2212 4.14267 14.5078 4.26122C14.7944 4.37976 15.0394 4.58065 15.2117 4.83847C15.3841 5.0963 15.4761 5.39946 15.4761 5.70959C15.4785 5.91584 15.4398 6.1205 15.362 6.31157C15.2843 6.50264 15.1692 6.67626 15.0235 6.82226C14.8778 6.96825 14.7044 7.08368 14.5135 7.16176C14.3226 7.23985 14.118 7.27902 13.9117 7.27698Z" fill="white"/>
</svg>
