<svg width="92" height="92" viewBox="0 0 92 92" fill="none" xmlns="http://www.w3.org/2000/svg">
<path d="M92 46C92 20.5949 71.4051 0 46 0C20.5949 0 0 20.5949 0 46C0 71.4051 20.5949 92 46 92C71.4051 92 92 71.4051 92 46Z" fill="black"/>
<path d="M45.3 6C52.83 6 58 11.24 58.41 17.9C58.5635 19.8508 58.256 21.8103 57.5126 23.6204C56.7691 25.4304 55.6104 27.0403 54.13 28.32C53.4592 28.9312 52.9209 29.6737 52.5487 30.5014C52.1764 31.329 51.9781 32.2243 51.9659 33.1318C51.9537 34.0393 52.1279 34.9396 52.4778 35.777C52.8277 36.6143 53.3458 37.371 54 38C54.6494 38.6311 55.4222 39.1212 56.27 39.4394C57.1178 39.7577 58.0222 39.8972 58.9265 39.8494C59.8307 39.8015 60.7153 39.5672 61.5248 39.1611C62.3342 38.7551 63.0509 38.1862 63.63 37.49C65.4942 35.316 68.0376 33.8347 70.8484 33.2859C73.6591 32.737 76.5729 33.1528 79.118 34.4658C81.6631 35.7789 83.6907 37.9124 84.8725 40.521C86.0543 43.1297 86.3212 46.0608 85.63 48.84C85.1109 51.2103 83.8946 53.3711 82.1375 55.0444C80.3804 56.7178 78.1628 57.8272 75.77 58.23C70.89 59.23 66.77 57.59 63.47 53.9C62.7138 53.0282 61.72 52.3956 60.61 52.0795C59.5001 51.7634 58.3221 51.7775 57.22 52.12C56.0566 52.3668 54.9893 52.9445 54.1466 53.7837C53.3039 54.6228 52.7217 55.6877 52.47 56.85C52.1372 58.0262 52.1487 59.2731 52.5032 60.443C52.8577 61.6128 53.5403 62.6564 54.47 63.45C56.0328 64.8005 57.2555 66.5001 58.0391 68.4112C58.8226 70.3223 59.145 72.3911 58.98 74.45C58.7875 76.4671 58.1167 78.4093 57.0232 80.1152C55.9297 81.8211 54.4451 83.2415 52.6925 84.2586C50.94 85.2757 48.9701 85.8602 46.9465 85.9634C44.9228 86.0666 42.9037 85.6856 41.0568 84.852C39.2099 84.0185 37.5885 82.7564 36.3271 81.1706C35.0657 79.5848 34.2008 77.721 33.8041 75.7339C33.4074 73.7468 33.4905 71.6938 34.0463 69.7452C34.6021 67.7967 35.6147 66.0088 37 64.53C38.1558 63.5457 39.0723 62.3112 39.68 60.92C40.1878 59.5153 40.2048 57.9801 39.7284 56.5645C39.252 55.149 38.3102 53.9364 37.0565 53.1246C35.8028 52.3128 34.3111 51.9495 32.8245 52.0939C31.3379 52.2383 29.944 52.882 28.87 53.92C27.8551 55.0281 26.7329 56.033 25.52 56.92C23.7111 58.1675 21.5944 58.8943 19.4008 59.0213C17.2071 59.1482 15.0207 58.6704 13.08 57.64C11.0273 56.7002 9.27723 55.2066 8.02655 53.3271C6.77586 51.4475 6.07407 49.2564 6.00001 47C5.80451 44.0478 6.66165 41.1219 8.41921 38.7419C10.1768 36.3618 12.721 34.6818 15.6 34C20.6 32.79 24.85 34.23 28.35 38C28.9507 38.6717 29.6827 39.2132 30.5009 39.5908C31.3191 39.9684 32.2061 40.1742 33.107 40.1955C34.0079 40.2168 34.9035 40.053 35.7386 39.7144C36.5738 39.3758 37.3305 38.8696 37.9622 38.2269C38.5939 37.5842 39.0871 36.8189 39.4113 35.9781C39.7355 35.1372 39.8838 34.2389 39.847 33.3385C39.8103 32.4381 39.5892 31.5548 39.1976 30.7432C38.8059 29.9317 38.252 29.209 37.57 28.62C35.9795 27.3072 34.7323 25.627 33.9361 23.7245C33.1399 21.822 32.8186 19.7544 33 17.7C33.28 13.08 37.77 6 45.3 6ZM80.78 45.83C80.7958 44.3387 80.3685 42.8763 79.5521 41.6281C78.7357 40.38 77.567 39.4025 76.1943 38.8194C74.8216 38.2363 73.3067 38.074 71.8417 38.353C70.3766 38.632 69.0274 39.3398 67.9651 40.3867C66.9028 41.4335 66.1753 42.7722 65.8748 44.233C65.5744 45.6938 65.7145 47.211 66.2774 48.5921C66.8402 49.9732 67.8006 51.156 69.0366 51.9906C70.2726 52.8252 71.7286 53.274 73.22 53.28C74.2058 53.2879 75.1834 53.1014 76.097 52.7312C77.0107 52.3609 77.8423 51.8142 78.5445 51.1223C79.2466 50.4303 79.8055 49.6068 80.1891 48.6987C80.5727 47.7906 80.7735 46.8158 80.78 45.83V45.83ZM18.69 53.83C20.175 53.8357 21.6285 53.4022 22.8677 52.584C24.107 51.7658 25.0767 50.5995 25.6548 49.2316C26.2329 47.8638 26.3937 46.3556 26.1169 44.8966C25.8402 43.4377 25.1382 42.0931 24.0993 41.032C23.0604 39.971 21.731 39.2408 20.2782 38.9333C18.8254 38.6258 17.3141 38.7547 15.9343 39.3038C14.5546 39.853 13.3681 40.7978 12.5239 42.0195C11.6797 43.2412 11.2157 44.6852 11.19 46.17C11.1714 47.1681 11.3515 48.1598 11.7197 49.0877C12.0879 50.0155 12.637 50.8609 13.3349 51.5746C14.0328 52.2883 14.8656 52.8561 15.785 53.245C16.7043 53.634 17.6918 53.8362 18.69 53.84V53.83ZM53.8 73.34C53.8078 71.8524 53.3749 70.3959 52.5558 69.1542C51.7367 67.9124 50.5681 66.9411 49.1976 66.3628C47.827 65.7845 46.3159 65.625 44.8548 65.9046C43.3938 66.1842 42.0483 66.8903 40.9881 67.9338C39.9279 68.9772 39.2005 70.3114 38.8977 71.7678C38.595 73.2242 38.7304 74.7377 39.2868 76.1173C39.8433 77.4968 40.7959 78.6807 42.0245 79.5194C43.2531 80.3581 44.7025 80.8142 46.19 80.83C47.1819 80.8392 48.1658 80.6527 49.0854 80.281C50.005 79.9093 50.8423 79.3599 51.5492 78.6641C52.2561 77.9683 52.8188 77.1399 53.2051 76.2263C53.5913 75.3127 53.7935 74.3319 53.8 73.34ZM45.64 26.29C47.1296 26.3038 48.5899 25.8754 49.836 25.0591C51.0821 24.2428 52.0581 23.0752 52.6405 21.7041C53.2229 20.3329 53.3855 18.8199 53.1077 17.3563C52.83 15.8927 52.1243 14.5444 51.0801 13.482C50.0358 12.4196 48.6999 11.6907 47.2414 11.3877C45.7828 11.0847 44.2672 11.2212 42.8862 11.7798C41.5052 12.3384 40.3209 13.294 39.4832 14.5259C38.6455 15.7577 38.1919 17.2104 38.18 18.7C38.1681 19.6891 38.352 20.6708 38.7211 21.5885C39.0902 22.5063 39.6372 23.3419 40.3306 24.0474C41.0239 24.7529 41.85 25.3142 42.7613 25.6991C43.6725 26.084 44.6508 26.2848 45.64 26.29V26.29Z" fill="white"/>
<path d="M78.41 45.76C78.41 46.4376 78.2765 47.1086 78.0172 47.7347C77.7579 48.3607 77.3778 48.9295 76.8986 49.4087C76.4195 49.8878 75.8507 50.2679 75.2246 50.5272C74.5986 50.7865 73.9276 50.92 73.25 50.92C72.5723 50.92 71.9014 50.7865 71.2753 50.5272C70.6493 50.2679 70.0804 49.8878 69.6013 49.4087C69.1221 48.9295 68.7421 48.3607 68.4827 47.7347C68.2234 47.1086 68.09 46.4376 68.09 45.76C68.09 45.0824 68.2234 44.4114 68.4827 43.7854C68.7421 43.1593 69.1221 42.5905 69.6013 42.1113C70.0804 41.6322 70.6493 41.2521 71.2753 40.9928C71.9014 40.7335 72.5723 40.6 73.25 40.6C73.9276 40.6 74.5986 40.7335 75.2246 40.9928C75.8507 41.2521 76.4195 41.6322 76.8986 42.1113C77.3778 42.5905 77.7579 43.1593 78.0172 43.7854C78.2765 44.4114 78.41 45.0824 78.41 45.76V45.76Z" fill="white"/>
<path d="M13.5699 46.28C13.574 45.2558 13.8821 44.2559 14.4553 43.407C15.0285 42.5582 15.8409 41.8988 16.7894 41.5124C17.7379 41.126 18.7799 41.03 19.783 41.2367C20.7862 41.4433 21.7053 41.9433 22.4239 42.6731C23.1425 43.4029 23.6281 44.3298 23.8192 45.336C24.0102 46.3422 23.8981 47.3826 23.497 48.325C23.0959 49.2674 22.4239 50.0694 21.5663 50.6294C20.7087 51.1893 19.7041 51.4819 18.6799 51.47C17.3174 51.449 16.0177 50.8929 15.0617 49.9219C14.1056 48.9508 13.5698 47.6427 13.5699 46.28V46.28Z" fill="white"/>
<path d="M51.41 73.32C51.3981 74.3356 51.0856 75.325 50.5119 76.1632C49.9381 77.0013 49.1289 77.6507 48.1864 78.0294C47.2439 78.408 46.2103 78.4989 45.2162 78.2906C44.2221 78.0823 43.3119 77.5841 42.6007 76.8589C41.8895 76.1337 41.4091 75.2141 41.2201 74.2161C41.0311 73.2181 41.1421 72.1865 41.5389 71.2516C41.9358 70.3166 42.6008 69.5201 43.4499 68.9628C44.2991 68.4054 45.2943 68.1122 46.31 68.12C47.6751 68.1358 48.9782 68.6919 49.9341 69.6666C50.89 70.6412 51.4207 71.9549 51.41 73.32V73.32Z" fill="white"/>
<path d="M45.7101 23.91C44.6911 23.912 43.6944 23.6116 42.8461 23.0469C41.9979 22.4823 41.3363 21.6786 40.9449 20.7378C40.5536 19.7969 40.4502 18.7611 40.6478 17.7614C40.8454 16.7618 41.3351 15.8432 42.0549 15.122C42.7748 14.4007 43.6924 13.9092 44.6917 13.7097C45.6909 13.5102 46.7269 13.6116 47.6686 14.0011C48.6102 14.3906 49.4151 15.0507 49.9814 15.8978C50.5478 16.7449 50.85 17.741 50.85 18.76C50.8581 19.4377 50.7307 20.1102 50.4753 20.738C50.22 21.3658 49.8418 21.9362 49.3631 22.4159C48.8843 22.8956 48.3146 23.2749 47.6873 23.5314C47.06 23.788 46.3878 23.9167 45.7101 23.91Z" fill="white"/>
</svg>
