<svg width="30" height="30" viewBox="0 0 30 30" fill="none" xmlns="http://www.w3.org/2000/svg">
<path opacity="0.8" fill-rule="evenodd" clip-rule="evenodd" d="M15 1C22.7308 1 29 7.2692 29 15C29 22.7308 22.7308 29 15 29C7.2692 29 1 22.7308 1 15C1 7.2692 7.2692 1 15 1Z" fill="#AFACC9"/>
<g clip-path="url(#clip0)">
<path d="M8.18729 17.2231L8.87518 12.154L2.90857 8.09144L8.36018 9.90262L9.64768 7.96516L14.3489 5.10406L24.7113 10.7036L25.2484 19.2472L20.6318 25.5394L16.9827 26.0878L18.8698 22.7V19.4384L17.4977 16.8912L16.1035 15.9856L13.9589 18.154V20.4486L12.2852 21.9856L10.159 22.2382L9.21728 22.7613L7.67229 22.2778L7.02855 20.0048L8.18729 18.4065V17.2231Z" fill="white"/>
<path d="M17.7148 8.04808C16.5781 7.81717 15.3348 7.87851 15.3348 7.87851C15.3348 7.87851 14.9265 9.72937 12.3956 10.2164C12.414 10.2164 15.7394 11.3313 17.7148 8.04808Z" fill="#94A6C3"/>
<path d="M18.7448 24.8431C20.1169 23.7895 21.1468 22.3391 21.6214 20.6975C21.6435 20.6362 21.8347 20.528 21.9635 20.445C22.1768 20.3187 22.3939 20.2141 22.4343 20.0445C22.5189 19.561 22.5631 19.0559 22.5631 18.5508C22.5631 18.3632 22.3681 18.172 22.1768 17.9844C22.026 17.8581 21.8752 17.7102 21.8752 17.6055C21.6618 15.6897 20.7606 13.9002 19.3223 12.5977L19.1715 12.7457C20.5656 14.0301 21.4669 15.7763 21.6618 17.6272C21.6839 17.7968 21.8531 17.9627 22.026 18.1323C22.1768 18.2586 22.3497 18.4498 22.3497 18.5328C22.3497 19.0162 22.3056 19.4997 22.221 19.9832C22.1989 20.0662 22.0076 20.1527 21.8568 20.2357C21.6435 20.3404 21.4485 20.445 21.408 20.6146C20.893 22.4041 19.7122 23.9627 18.1452 24.9729C18.4247 24.3848 19.3039 22.469 19.7748 21.4985L19.6901 18.3849L16.9643 15.798L15.4194 16.0072L13.7235 18.7024C13.7235 18.7024 14.5181 19.6909 13.3998 20.8491C12.3073 21.9856 11.4465 22.2381 11.4465 22.2381L10.652 21.816C10.8874 21.5201 11.3619 21.08 11.7261 20.7841C12.3478 20.279 12.9694 20.2357 12.9694 19.6909C12.9952 18.5508 11.7482 18.8647 11.7482 18.8647L11.2957 19.2868L11.1044 20.8455L10.1627 22.0036L10.056 21.982L8.51105 21.6464C8.51105 21.6464 9.45643 21.163 9.60725 20.6146C9.75807 20.0878 9.30561 18.3416 9.28354 18.2369C9.30561 18.2586 9.736 18.6158 9.92729 19.2039C10.2694 18.2766 10.7219 17.3927 10.8506 17.3097C10.9794 17.2267 12.7156 16.3211 12.7156 16.3211L12.1381 17.8148L12.5685 17.5839L13.5985 15.1016C13.5985 15.1016 14.6064 14.6182 15.3568 14.6182C16.7068 14.5965 18.7043 12.9766 17.8031 10.0722C18.0605 10.1768 22.5226 12.3668 23.2951 16.6603C23.8727 19.9615 21.9635 23.0535 18.7448 24.8431Z" fill="#94A6C3"/>
<path d="M13.6389 8.50992C14.1319 7.93986 13.9406 7.09921 13.9406 7.09921L12.5022 9.1846C12.4802 9.1846 13.0136 9.20625 13.6389 8.50992Z" fill="#1B314F"/>
<path d="M8.80904 19.8966L8.98193 19.0559C8.98193 19.0559 8.27197 20.2754 8.20943 20.445C8.14322 20.6362 8.25357 20.9718 8.52947 20.9501C8.80904 20.9285 9.15114 20.528 9.15114 20.2357C9.15114 19.8569 8.80904 19.8966 8.80904 19.8966Z" fill="#1B314F"/>
<path d="M21.5552 6.51112C21.5552 6.51112 22.6293 6.55442 23.7439 6.6807C21.2315 4.74323 18.8515 4.17679 16.9202 4.17679C14.2606 4.17679 12.4581 5.25195 12.3478 5.31329L13.1865 4.00721C13.1865 4.00721 9.83902 3.68972 8.6582 7.16416C8.35656 6.42814 8.08067 5.35298 8.08067 5.35298C8.08067 5.35298 6.34071 6.85027 7.15735 9.33253C5.1599 8.61816 2.30902 7.62598 2.19867 7.60794C2.04785 7.58629 2.0037 7.65123 2.0037 7.65123C2.0037 7.65123 1.95956 7.71257 2.08831 7.8208C2.32742 8.00481 6.83364 11.27 7.82317 11.9014C7.60982 12.659 7.60982 13.0162 7.82317 13.3734C8.12481 13.8569 8.1432 14.1094 8.10274 14.4666C8.0586 14.8238 7.67235 17.9194 7.58774 18.2983C7.50314 18.6771 6.60189 20.0229 6.64236 20.4233C6.6865 20.8238 7.24196 22.5268 7.73856 22.718C8.10274 22.8443 9.00399 23.1185 9.60359 23.1185C9.81695 23.1185 10.0119 23.0752 10.0965 22.9922C10.4607 22.6783 10.5674 22.6133 10.8249 22.6133C10.8469 22.6133 10.869 22.6133 10.8874 22.6133C10.9941 22.6133 11.1228 22.635 11.2737 22.635C11.6158 22.635 12.0682 22.5701 12.3883 22.2778C12.8591 21.816 13.6757 21.1846 13.9332 20.8888C14.257 20.4883 14.4262 19.9435 14.3416 19.3951C14.2754 18.89 14.5549 18.4462 14.8786 18.006C15.287 17.4793 16.0374 16.534 16.0374 16.534C17.5198 17.6236 18.4431 19.2868 18.4431 21.1377C18.4431 24.4209 15.5261 27.0728 11.9211 27.0728C11.3619 27.0728 10.8285 27.0114 10.2915 26.8851C11.9431 27.4516 13.3373 27.6428 14.4777 27.6428C16.9018 27.6428 18.1893 26.7805 18.1893 26.7805C18.1893 26.7805 17.7405 27.3506 17.0085 28C17.0306 28 17.0306 28 17.0306 28C21.0439 27.4516 22.9972 24.2117 22.9972 24.2117C22.9972 24.2117 22.8464 25.2652 22.6551 25.9796C27.9927 22.0433 27.0914 17.1185 27.0694 16.9525C27.1135 17.0138 27.6506 17.6452 27.9265 17.9844C28.7872 9.31088 21.5552 6.51112 21.5552 6.51112ZM13.3373 20.362C13.2527 20.4666 12.8885 20.7841 12.631 21.015C12.3735 21.2459 12.094 21.4768 11.8806 21.6897C11.796 21.7727 11.6231 21.816 11.3656 21.816C11.281 21.816 11.1927 21.816 11.1302 21.816C11.086 21.816 11.0456 21.816 11.0014 21.816C10.9573 21.816 10.9352 21.816 10.9168 21.816C10.8506 21.816 10.7881 21.816 10.7219 21.816C11.0456 21.3939 11.9873 20.4269 12.311 20.2177C12.6973 19.9651 12.8922 19.7126 12.6531 19.2724C12.4177 18.8286 11.796 18.9369 11.796 18.9369C11.796 18.9369 12.1602 18.7889 12.4839 18.7889C12.0756 18.6843 11.5606 18.7889 11.3252 19.0198C11.0677 19.2507 11.1118 20.0734 11.0051 20.5965C10.8984 21.1449 10.5343 21.4191 9.97512 21.9242C9.67348 22.1984 9.46013 22.2814 9.28723 22.2814C8.92306 22.2201 8.49267 22.1118 8.19103 22.0072C7.97767 21.733 7.65396 20.8274 7.56935 20.4486C7.63189 20.2393 7.88939 19.7955 8.01813 19.543C8.27563 19.0595 8.42645 18.7853 8.4706 18.5328C8.5552 18.1756 8.83477 15.9639 8.94145 15.0403C9.22102 15.3975 9.60727 15.9892 9.51898 16.368C10.1407 15.5057 9.69187 14.6615 9.47484 14.3259C9.28356 13.9904 9.02606 13.3157 9.23941 12.6013C9.45277 11.8869 10.2253 9.90619 10.2253 9.90619C10.2253 9.90619 10.4828 10.35 10.8469 10.2634C11.2111 10.1804 14.1503 5.84365 14.1503 5.84365C14.1503 5.84365 14.9448 7.5466 14.1061 8.79134C13.249 10.0325 12.4103 10.2634 12.4103 10.2634C12.4103 10.2634 13.5911 10.4726 14.6837 9.69332C15.1325 10.7252 15.5628 11.7968 15.5849 11.9447C15.5187 12.0926 14.6616 14.113 14.577 14.2393C14.5328 14.2826 14.2349 14.3656 14.0179 14.4089C13.6537 14.5135 13.4403 14.5785 13.352 14.6398C13.2012 14.7661 12.5133 16.617 12.1933 17.5225C11.807 17.6272 11.4208 17.84 11.1412 18.2586C11.292 18.1539 11.7629 18.089 12.1087 18.0493C12.4103 18.0277 13.33 18.5111 13.5691 19.4167C13.5691 19.4384 13.5691 19.4384 13.5691 19.46C13.6169 19.7919 13.5102 20.1094 13.3373 20.362ZM11.3215 20.6146C11.5164 20.3403 11.4944 19.8785 11.5164 19.7306C11.5385 19.5827 11.579 19.3085 11.7519 19.2688C11.9248 19.2255 12.3331 19.2904 12.3331 19.5827C12.3331 19.8569 12.0314 19.9182 11.8181 20.1094C11.6636 20.2538 11.3619 20.5713 11.3215 20.6146ZM19.8815 16.5917C20.0948 15.5201 20.1169 14.5929 20.0544 13.8352C20.8894 14.9284 21.4044 16.2562 21.5552 17.6236C21.5773 17.7931 21.7465 17.9591 21.9194 18.1287C22.0702 18.255 22.2431 18.4245 22.2431 18.5292C22.2431 19.0126 22.1989 19.4961 22.1143 19.9832C22.0923 20.0445 21.901 20.1527 21.7502 20.2357C21.5368 20.3403 21.3418 20.445 21.3014 20.6146C20.8305 22.2345 19.8189 23.6669 18.4689 24.6771C20.4627 22.635 21.4265 19.2652 19.8815 16.5917ZM18.5314 24.8647C19.9256 23.8112 20.9997 22.3391 21.4706 20.6759C21.4927 20.6146 21.684 20.5063 21.8127 20.4233C22.0261 20.3187 22.2431 20.1924 22.2836 20.0229C22.3682 19.5394 22.4123 19.0343 22.4123 18.5292C22.4123 18.3416 22.2173 18.1503 22.0261 17.9627C21.9194 17.8364 21.7465 17.6885 21.7465 17.5839C21.5736 16.0469 20.9519 14.5965 19.9881 13.3951C19.5578 10.8695 17.8435 10.0902 17.7994 10.0685C17.8435 10.1335 18.9581 11.7102 18.1856 13.561C17.3911 15.4336 15.3532 15.1413 15.1803 15.1593C15.0074 15.1593 14.3452 16 13.5065 17.5586C13.3999 17.5153 12.9474 17.4107 12.4324 17.4973C12.8186 16.4438 13.3999 14.9501 13.5065 14.8238C13.5507 14.7805 13.8707 14.6975 14.0877 14.6362C14.4961 14.5316 14.6873 14.4666 14.7536 14.3836C14.7977 14.3187 15.0111 13.8352 15.2244 13.3301C15.4194 13.3301 15.9123 13.2868 15.9528 13.2652C15.9969 13.2219 16.4052 12.1936 16.4052 12.0673C16.4052 11.9627 15.5665 9.92062 15.2465 9.14131C15.3973 8.97174 15.5481 8.76248 15.6953 8.53157C20.0948 8.99699 23.5306 12.659 23.5306 17.0968C23.5306 20.5063 21.4927 23.4756 18.5314 24.8647Z" fill="#1B314F"/>
<path d="M12.8223 13.4997C13.2306 13.0379 13.0172 12.1756 12.2631 12.0277C12.4581 11.5875 12.734 10.7036 12.734 10.7036C12.734 10.7036 10.5452 14.0698 10.354 14.1347C10.159 14.1996 9.96771 13.46 9.96771 13.46C9.55939 14.997 10.6556 15.2063 10.7844 14.7228C11.384 14.5713 12.414 13.9399 12.8223 13.4997Z" fill="#1B314F"/>
<path d="M10.9536 14.3187L12.0681 12.4462C12.0681 12.4462 12.7119 12.7637 12.3882 13.2688C11.9835 13.8569 10.9536 14.3187 10.9536 14.3187Z" fill="#FFD923"/>
<path d="M24.7519 22.9922C24.4282 23.4143 24.064 23.8545 23.6373 24.2766C26.4035 19.0559 23.766 14.279 23.6593 14.0914C23.8543 14.2826 24.0456 14.4919 24.2185 14.6795C26.341 16.9922 26.5985 20.4666 24.7519 22.9922Z" fill="#D82122"/>
<path d="M27.3268 16.2778C26.3593 13.7306 24.9872 11.5622 21.9634 9.60673C19.0464 7.71256 15.9122 7.86049 15.7393 7.88214C15.7173 7.88214 15.6952 7.88214 15.6952 7.88214C15.8019 7.83884 15.9085 7.81719 16.0152 7.79915C16.681 7.58989 17.5381 7.42032 18.3989 7.31569C20.6759 6.99458 22.9714 7.75225 24.5384 9.37582C24.5605 9.39747 24.5605 9.39747 24.5826 9.41912C26.363 11.27 27.2863 13.5827 27.3268 16.2778Z" fill="#D82122"/>
<path d="M21.2756 5.85809C18.0789 5.26999 16.019 5.56224 14.5365 6.11065C14.4923 5.94107 14.3415 5.60553 14.2128 5.33133C13.7677 5.85809 13.2931 6.48948 12.9952 6.88996C12.1785 7.43837 11.8364 7.96513 11.8364 7.96513C12.3073 6.38485 13.6831 5.20866 15.3568 4.91281C15.8277 4.82982 16.3427 4.78653 16.9018 4.78653C18.3806 4.80818 19.8594 5.16536 21.2756 5.85809Z" fill="#D82122"/>
<path d="M9.45274 9.89896C6.94397 9.81598 7.779 6.95127 7.82315 6.78531C7.82315 6.80696 7.99236 9.03666 9.45274 9.89896Z" fill="#D82122"/>
<path d="M11.9211 4.74326C9.98981 5.87976 10.3761 8.59293 10.3761 8.59293C8.52942 5.84007 11.7702 4.8082 11.9211 4.74326Z" fill="#D82122"/>
<path d="M8.74647 10.6566C8.87522 10.7613 9.00397 10.9525 8.85315 11.2267C8.76854 11.3746 8.63979 11.353 8.44483 11.27C8.18733 11.1437 6.64234 10.2597 5.24817 9.35416C6.8373 9.90256 8.44483 10.4907 8.70233 10.6169C8.70233 10.6169 8.7244 10.6386 8.74647 10.6566Z" fill="white"/>
</g>
<path d="M29.5 15C29.5 6.99306 23.0069 0.5 15 0.5C6.99306 0.5 0.5 6.99306 0.5 15C0.5 23.0069 6.99306 29.5 15 29.5C23.0069 29.5 29.5 23.0069 29.5 15Z" stroke="#0F0A45"/>
<defs>
<clipPath id="clip0">
<rect width="26" height="24" fill="white" transform="translate(2 4)"/>
</clipPath>
</defs>
</svg>
