<svg width="92" height="92" viewBox="0 0 92 92" fill="none" xmlns="http://www.w3.org/2000/svg">
<path fill-rule="evenodd" clip-rule="evenodd" d="M46 0C71.4012 0 92 20.5988 92 46C92 71.4012 71.4012 92 46 92C20.5988 92 0 71.4012 0 46C0 20.5988 20.5988 0 46 0Z" fill="#BDBDBD"/>
<g clip-path="url(#clip0)">
<path d="M23.6154 53.3045L25.8756 36.6488L6.27106 23.3004L24.1835 29.2515L28.4138 22.8855L43.8606 13.4848L77.9087 31.8832L79.6734 59.955L64.5046 80.6295L52.5147 82.4314L58.7151 71.2999V60.5833L54.2068 52.2139L49.6259 49.2384L42.5794 56.363V63.9026L37.08 68.9527L30.0939 69.7825L26.9997 71.5014L21.9233 69.9129L19.8081 62.4445L23.6154 57.1929V53.3045Z" fill="white"/>
<path d="M54.9201 23.158C51.1853 22.3993 47.1 22.6008 47.1 22.6008C47.1 22.6008 45.7584 28.6822 37.4427 30.2826C37.5032 30.2826 48.4295 33.9457 54.9201 23.158Z" fill="#94A6C3"/>
<path d="M58.3041 78.3415C62.8124 74.8799 66.1967 70.1144 67.7559 64.7205C67.8284 64.519 68.4569 64.1633 68.8799 63.8907C69.581 63.4758 70.2941 63.132 70.427 62.5748C70.705 60.9863 70.8501 59.3266 70.8501 57.667C70.8501 57.0506 70.2095 56.4223 69.581 55.8058C69.0854 55.3909 68.5899 54.9049 68.5899 54.5611C67.8888 48.2663 64.9276 42.3864 60.2017 38.1068L59.7062 38.5929C64.287 42.8131 67.2482 48.5508 67.8888 54.6322C67.9614 55.1894 68.5173 55.7347 69.0854 56.2919C69.581 56.7068 70.149 57.3351 70.149 57.6077C70.149 59.1962 70.004 60.7848 69.726 62.3733C69.6535 62.6459 69.025 62.9305 68.5294 63.2031C67.8284 63.5469 67.1878 63.8907 67.0549 64.4478C65.3627 70.3278 61.4829 75.449 56.334 78.7683C57.2526 76.8359 60.1413 70.5411 61.6884 67.3522L61.4104 57.1217L52.4542 48.6219L47.3778 49.3095L41.8059 58.1649C41.8059 58.1649 44.4166 61.4131 40.7422 65.2184C37.1525 68.9526 34.3242 69.7824 34.3242 69.7824L31.7135 68.3954C32.4871 67.4234 34.0462 65.9771 35.2428 65.005C37.2854 63.3454 39.3281 63.2031 39.3281 61.4131C39.4127 57.667 35.3153 58.6983 35.3153 58.6983L33.8287 60.0853L33.2002 65.2065L30.106 69.0119L29.7555 68.9408L24.6791 67.8383C24.6791 67.8383 27.7853 66.2498 28.2809 64.4478C28.7765 62.7171 27.2898 56.9794 27.2173 56.6356C27.2898 56.7068 28.7039 57.8804 29.3324 59.8127C30.4565 56.766 31.9432 53.8617 32.3662 53.589C32.7892 53.3163 38.4941 50.3408 38.4941 50.3408L36.5965 55.2486L38.0106 54.49L41.3949 46.334C41.3949 46.334 44.7067 44.7454 47.1723 44.7454C51.6081 44.6743 58.1712 39.3516 55.2099 29.8086C56.056 30.1524 70.7171 37.3481 73.2553 51.4552C75.1529 62.3022 68.8799 72.4616 58.3041 78.3415Z" fill="#94A6C3"/>
<path d="M41.5279 24.6754C43.1475 22.8024 42.519 20.0403 42.519 20.0403L37.7931 26.8922C37.7205 26.8922 39.4731 26.9634 41.5279 24.6754Z" fill="#1B314F"/>
<path d="M25.6583 62.0887L26.2264 59.3265C26.2264 59.3265 23.8936 63.3335 23.6881 63.8907C23.4706 64.519 23.8332 65.6215 24.7397 65.5504C25.6583 65.4792 26.7823 64.1634 26.7823 63.2031C26.7823 61.9583 25.6583 62.0887 25.6583 62.0887Z" fill="#1B314F"/>
<path d="M67.5385 18.108C67.5385 18.108 71.0678 18.2502 74.7301 18.6652C66.4749 12.2992 58.6548 10.438 52.3093 10.438C43.5706 10.438 37.6482 13.9707 37.2856 14.1722L40.0413 9.88087C40.0413 9.88087 29.0425 8.83766 25.1626 20.2537C24.1715 17.8353 23.265 14.3027 23.265 14.3027C23.265 14.3027 17.548 19.2223 20.2313 27.3783C13.6682 25.0311 4.30106 21.7711 3.93846 21.7118C3.4429 21.6407 3.29786 21.8541 3.29786 21.8541C3.29786 21.8541 3.15282 22.0556 3.57586 22.4112C4.36149 23.0158 19.1677 33.7443 22.419 35.8188C21.7179 38.3083 21.7179 39.4819 22.419 40.6555C23.4101 42.2441 23.4705 43.0739 23.3376 44.2475C23.1925 45.4211 21.9234 55.5924 21.6454 56.8371C21.3674 58.0819 18.4062 62.5037 18.5392 63.8195C18.6842 65.1354 20.5093 70.7308 22.141 71.3591C23.3376 71.774 26.2988 72.675 28.2689 72.675C28.9699 72.675 29.6105 72.5327 29.8885 72.26C31.0851 71.2287 31.4356 71.0153 32.2817 71.0153C32.3542 71.0153 32.4267 71.0153 32.4872 71.0153C32.8377 71.0153 33.2607 71.0864 33.7563 71.0864C34.8803 71.0864 36.367 70.8731 37.4185 69.9128C38.9656 68.3954 41.6489 66.3209 42.4949 65.3488C43.5586 64.0329 44.1145 62.2429 43.8366 60.441C43.619 58.7813 44.5376 57.3232 45.6012 55.8769C46.9428 54.1461 49.4085 51.0402 49.4085 51.0402C54.2794 54.6203 57.3132 60.0853 57.3132 66.1668C57.3132 76.9545 47.7285 85.6677 35.8835 85.6677C34.0464 85.6677 32.2938 85.4661 30.5291 85.0512C35.956 86.9124 40.5369 87.5407 44.2838 87.5407C52.2489 87.5407 56.4792 84.7074 56.4792 84.7074C56.4792 84.7074 55.0046 86.5805 52.5994 88.7143C52.6719 88.7143 52.6719 88.7143 52.6719 88.7143C65.8585 86.9124 72.2765 76.2669 72.2765 76.2669C72.2765 76.2669 71.7809 79.7285 71.1524 82.0757C88.6902 69.1423 85.7289 52.9607 85.6564 52.4154C85.8015 52.6169 87.5661 54.6915 88.4726 55.8058C91.3009 27.3072 67.5385 18.108 67.5385 18.108ZM40.5369 63.618C40.2589 63.9618 39.0623 65.005 38.2163 65.7637C37.3702 66.5224 36.4516 67.2811 35.7506 67.9805C35.4726 68.2532 34.9045 68.3954 34.0584 68.3954C33.7804 68.3954 33.4904 68.3954 33.2849 68.3954C33.1398 68.3954 33.0069 68.3954 32.8619 68.3954C32.7168 68.3954 32.6443 68.3954 32.5839 68.3954C32.3663 68.3954 32.1608 68.3954 31.9433 68.3954C33.0069 67.0084 36.1011 63.8314 37.1647 63.1438C38.4338 62.314 39.0744 61.4842 38.2888 60.0379C37.5152 58.5798 35.4726 58.9354 35.4726 58.9354C35.4726 58.9354 36.6692 58.4494 37.7328 58.4494C36.3912 58.1056 34.699 58.4494 33.9255 59.2081C33.0794 59.9668 33.2245 62.6696 32.8739 64.3886C32.5234 66.1905 31.3268 67.0914 29.4897 68.7511C28.4986 69.652 27.7975 69.9247 27.2295 69.9247C26.0329 69.7231 24.6187 69.3675 23.6276 69.0237C22.9266 68.1228 21.863 65.1473 21.585 63.9025C21.7905 63.2149 22.6365 61.7568 23.0596 60.927C23.9056 59.3385 24.4012 58.4375 24.5462 57.6077C24.8242 56.4341 25.7428 49.1672 26.0933 46.1324C27.0119 47.306 28.281 49.2502 27.9909 50.4949C30.0336 47.6616 28.559 44.8877 27.8459 43.7852C27.2174 42.6827 26.3713 40.4659 27.0723 38.1186C27.7734 35.7714 30.3116 29.2632 30.3116 29.2632C30.3116 29.2632 31.1576 30.7213 32.3542 30.4368C33.5508 30.1642 43.208 15.9149 43.208 15.9149C43.208 15.9149 45.8188 21.5103 43.063 25.6001C40.2468 29.6781 37.4911 30.4368 37.4911 30.4368C37.4911 30.4368 41.3709 31.1244 44.9606 28.5638C46.4352 31.9542 47.8493 35.4751 47.9218 35.9611C47.7043 36.4471 44.8881 43.0857 44.6101 43.5007C44.4651 43.6429 43.486 43.9156 42.7729 44.0578C41.5763 44.4016 40.8753 44.615 40.5852 44.8165C40.0897 45.2314 37.8295 51.3129 36.7779 54.2884C35.5088 54.6322 34.2397 55.3316 33.3211 56.7067C33.8167 56.363 35.3638 56.1496 36.4999 56.0192C37.4911 55.948 40.5127 57.5366 41.2984 60.5121C41.2984 60.5832 41.2984 60.5832 41.2984 60.6543C41.4555 61.745 41.105 62.7882 40.5369 63.618ZM33.9134 64.4478C34.554 63.5469 34.4815 62.0295 34.554 61.5434C34.6265 61.0574 34.7595 60.1564 35.3275 60.026C35.8956 59.8838 37.2372 60.0972 37.2372 61.0574C37.2372 61.9584 36.2461 62.1599 35.5451 62.7882C35.0375 63.2624 34.0463 64.3056 33.9134 64.4478ZM62.0391 51.2299C62.7401 47.7091 62.8126 44.6624 62.6071 42.1729C65.3508 45.7649 67.043 50.1274 67.5385 54.6203C67.611 55.1775 68.167 55.7228 68.7351 56.28C69.2306 56.6949 69.7987 57.2521 69.7987 57.5958C69.7987 59.1844 69.6537 60.7729 69.3757 62.3733C69.3032 62.5748 68.6747 62.9304 68.1791 63.2031C67.4781 63.5469 66.8375 63.8907 66.7045 64.4478C65.1574 69.7706 61.8336 74.4769 57.3978 77.7962C63.9488 71.0864 67.1155 60.0142 62.0391 51.2299ZM57.6033 78.4126C62.1841 74.951 65.7134 70.1144 67.2605 64.6494C67.333 64.4478 67.9615 64.0922 68.3846 63.8195C69.0856 63.4757 69.7987 63.0608 69.9317 62.5037C70.2097 60.9151 70.3547 59.2555 70.3547 57.5958C70.3547 56.9794 69.7141 56.3511 69.0856 55.7347C68.7351 55.3197 68.167 54.8337 68.167 54.4899C67.5989 49.4398 65.5563 44.6743 62.3896 40.7267C60.9754 32.4284 55.3431 29.8678 55.198 29.7967C55.3431 30.0101 59.0053 35.1905 56.4671 41.272C53.8564 47.4245 47.1604 46.4643 46.5923 46.5236C46.0242 46.5236 43.8486 49.2857 41.0929 54.4069C40.7424 54.2647 39.2557 53.9209 37.5636 54.2054C38.8327 50.7439 40.7424 45.836 41.0929 45.4211C41.2379 45.2789 42.2895 45.0062 43.0026 44.8047C44.3442 44.4609 44.9727 44.2475 45.1903 43.9748C45.3353 43.7615 46.0363 42.1729 46.7374 40.5133C47.3779 40.5133 48.9976 40.371 49.1305 40.2999C49.2756 40.1576 50.6172 36.7791 50.6172 36.3642C50.6172 36.0204 47.8614 29.3106 46.8099 26.75C47.3054 26.1929 47.801 25.5053 48.2844 24.7466C62.7401 26.2758 74.029 38.3083 74.029 52.8895C74.029 64.0922 67.333 73.8486 57.6033 78.4126Z" fill="#1B314F"/>
<path d="M38.8446 41.0705C40.1862 39.5531 39.4852 36.7198 37.0074 36.2338C37.648 34.7875 38.5545 31.8831 38.5545 31.8831C38.5545 31.8831 31.3629 42.9435 30.7344 43.1569C30.0938 43.3703 29.4653 40.9401 29.4653 40.9401C28.1237 45.9901 31.7255 46.6777 32.1485 45.0892C34.1187 44.5913 37.5029 42.5167 38.8446 41.0705Z" fill="#1B314F"/>
<path d="M32.7046 43.7615L36.3668 37.6089C36.3668 37.6089 38.482 38.6522 37.4184 40.3118C36.0888 42.2441 32.7046 43.7615 32.7046 43.7615Z" fill="#FFD923"/>
<path d="M78.0419 72.26C76.9783 73.647 75.7817 75.0933 74.3796 76.4803C83.4688 59.3266 74.8027 43.6311 74.4522 43.0146C75.0927 43.6429 75.7213 44.3305 76.2893 44.9469C83.2633 52.5458 84.1094 63.9618 78.0419 72.26Z" fill="#D82122"/>
<path d="M86.5022 50.1985C83.3234 41.8291 78.8151 34.7045 68.8799 28.2793C59.2951 22.0555 48.9973 22.5416 48.4292 22.6127C48.3567 22.6127 48.2842 22.6127 48.2842 22.6127C48.6347 22.4705 48.9852 22.3993 49.3357 22.3401C51.5234 21.6525 54.3396 21.0953 57.1679 20.7515C64.6495 19.6965 72.1916 22.186 77.3405 27.5206C77.413 27.5917 77.413 27.5917 77.4856 27.6628C83.3355 33.7443 86.3693 41.3431 86.5022 50.1985Z" fill="#D82122"/>
<path d="M66.6198 15.9623C56.1165 14.03 49.3479 14.9902 44.477 16.7921C44.3319 16.235 43.8364 15.1325 43.4134 14.2315C41.9509 15.9623 40.3917 18.0369 39.4127 19.3527C36.7294 21.1547 35.6053 22.8854 35.6053 22.8854C37.1524 17.6931 41.6729 13.8285 47.1723 12.8564C48.7194 12.5837 50.4116 12.4415 52.2487 12.4415C57.1076 12.5126 61.9665 13.6862 66.6198 15.9623Z" fill="#D82122"/>
<path d="M27.7733 29.2394C19.5302 28.9668 22.2739 19.5542 22.4189 19.0089C22.4189 19.08 22.9749 26.4062 27.7733 29.2394Z" fill="#D82122"/>
<path d="M35.8834 12.2993C29.5379 16.0335 30.807 24.9482 30.807 24.9482C24.7395 15.9031 35.3879 12.5127 35.8834 12.2993Z" fill="#D82122"/>
<path d="M25.4527 31.7289C25.8757 32.0727 26.2987 32.701 25.8032 33.6019C25.5252 34.088 25.1022 34.0168 24.4616 33.7442C23.6155 33.3293 18.5391 30.4249 13.9583 27.4494C19.1797 29.2513 24.4616 31.1836 25.3076 31.5985C25.3076 31.5985 25.3802 31.6696 25.4527 31.7289Z" fill="white"/>
</g>
<defs>
<clipPath id="clip0">
<rect width="85.4286" height="78.8571" fill="white" transform="translate(3.28571 9.85715)"/>
</clipPath>
</defs>
</svg>
