<svg width="30" height="30" viewBox="0 0 30 30" fill="none" xmlns="http://www.w3.org/2000/svg">
<g clip-path="url(#clip0)">
<path d="M1 15C1 7.26801 7.26801 1 15 1C22.732 1 29 7.26801 29 15C29 22.732 22.732 29 15 29C7.26801 29 1 22.732 1 15Z" fill="#3291E9"/>
<path d="M1 15C1 7.26801 7.26801 1 15 1C22.732 1 29 7.26801 29 15C29 22.732 22.732 29 15 29C7.26801 29 1 22.732 1 15Z" fill="url(#paint0_linear)"/>
<g opacity="0.5">
<path opacity="0.5" fill-rule="evenodd" clip-rule="evenodd" d="M24.0849 4.40441C23.5419 4.97439 22.8724 5.53187 22.0682 6.06761C19.3735 7.86275 17.2233 10.4273 17.1634 15.5513C17.097 21.2265 19.6648 24.0522 22.7075 26.648C20.4908 28.1337 17.8264 29 14.9601 29C7.25013 29 1 22.732 1 15C1 7.26804 7.25013 1 14.9601 1C18.4484 1 21.638 2.28315 24.0849 4.40441Z" fill="#3291E9"/>
<path opacity="0.5" fill-rule="evenodd" clip-rule="evenodd" d="M24.0849 4.40441C23.5419 4.97439 22.8724 5.53187 22.0682 6.06761C19.3735 7.86275 17.2233 10.4273 17.1634 15.5513C17.097 21.2265 19.6648 24.0522 22.7075 26.648C20.4908 28.1337 17.8264 29 14.9601 29C7.25013 29 1 22.732 1 15C1 7.26804 7.25013 1 14.9601 1C18.4484 1 21.638 2.28315 24.0849 4.40441Z" fill="url(#paint1_linear)"/>
</g>
<g opacity="0.5">
<path opacity="0.5" fill-rule="evenodd" clip-rule="evenodd" d="M18.4524 1.44163C18.0789 2.45682 17.4307 3.52994 16.4715 4.63737C14.3501 7.08677 12.9574 10.1326 14.2561 15.0874C15.898 21.3515 19.8644 23.1223 24.0925 25.01C24.235 25.0736 24.3779 25.1374 24.5209 25.2015C22.0228 27.5569 18.6595 29 14.9601 29C7.25013 29 1 22.732 1 15C1 7.26804 7.25013 1 14.9601 1C16.1661 1 17.3363 1.15334 18.4524 1.44163Z" fill="#3291E9"/>
<path opacity="0.5" fill-rule="evenodd" clip-rule="evenodd" d="M18.4524 1.44163C18.0789 2.45682 17.4307 3.52994 16.4715 4.63737C14.3501 7.08677 12.9574 10.1326 14.2561 15.0874C15.898 21.3515 19.8644 23.1223 24.0925 25.01C24.235 25.0736 24.3779 25.1374 24.5209 25.2015C22.0228 27.5569 18.6595 29 14.9601 29C7.25013 29 1 22.732 1 15C1 7.26804 7.25013 1 14.9601 1C16.1661 1 17.3363 1.15334 18.4524 1.44163Z" fill="url(#paint2_linear)"/>
</g>
<g opacity="0.3">
<path opacity="0.3" fill-rule="evenodd" clip-rule="evenodd" d="M1.98797 9.81686C2.03253 9.99973 2.08188 10.1851 2.1361 10.3729C3.93226 16.5941 8.94051 18.0723 14.2793 19.6481C18.0121 20.7499 21.9064 21.8994 24.9774 24.7509C22.4405 27.3716 18.8899 29 14.9601 29C7.25013 29 1 22.732 1 15.0001C1 13.1689 1.35053 11.42 1.98797 9.81686Z" fill="#3291E9"/>
<path opacity="0.3" fill-rule="evenodd" clip-rule="evenodd" d="M1.98797 9.81686C2.03253 9.99973 2.08188 10.1851 2.1361 10.3729C3.93226 16.5941 8.94051 18.0723 14.2793 19.6481C18.0121 20.7499 21.9064 21.8994 24.9774 24.7509C22.4405 27.3716 18.8899 29 14.9601 29C7.25013 29 1 22.732 1 15.0001C1 13.1689 1.35053 11.42 1.98797 9.81686Z" fill="url(#paint3_linear)"/>
</g>
<path d="M14.9398 25.1894C20.5056 25.1894 25.0175 20.6645 25.0175 15.0829C25.0175 9.50119 20.5056 4.97635 14.9398 4.97635C9.37401 4.97635 4.86206 9.50119 4.86206 15.0829C4.86206 20.6645 9.37401 25.1894 14.9398 25.1894Z" fill="white"/>
<path d="M15.4834 10.063V10.6956L14.8015 10.6036V10.063C14.9035 10.1224 15.0163 10.1549 15.1398 10.1549C15.2633 10.1549 15.3814 10.1224 15.4834 10.063Z" fill="#24D7D0"/>
<path d="M15.4612 16.7404V18.3084H14.7793V16.735C14.9887 16.7242 15.2196 16.7242 15.4612 16.7404Z" fill="#24D7D0"/>
<path d="M15.7994 9.47368C15.7994 9.7278 15.6651 9.94948 15.4611 10.0684C15.3591 10.1279 15.2463 10.1603 15.1229 10.1603C14.9994 10.1603 14.8812 10.1279 14.7846 10.0684C14.5806 9.94948 14.4464 9.7278 14.4464 9.47368C14.4464 9.09521 14.7524 8.78702 15.1282 8.78702C15.5041 8.78702 15.7994 9.09521 15.7994 9.47368Z" fill="#14869F"/>
<path d="M13.4056 13.2368V16.2105C13.4056 16.2538 13.3734 16.2862 13.3304 16.2862H10.5868C10.5331 16.2862 10.4955 16.2321 10.517 16.1781L11.913 12.5771C11.9291 12.5339 11.9774 12.5177 12.015 12.5339L13.3626 13.1665C13.3895 13.1773 13.4056 13.2097 13.4056 13.2368Z" fill="#1EB6D1"/>
<path d="M16.1975 14.1451C16.0203 14.5614 15.768 14.9507 15.4834 15.3076C15.274 15.5671 15.0432 15.8104 14.8016 16.0321C14.5177 16.2979 14.2292 16.5358 13.9489 16.7415C13.9127 16.7681 13.8551 16.7519 13.8781 16.7133C14.0123 16.4268 14.2754 15.6428 14.2271 13.9505C14.1734 12.1176 13.5345 10.9281 13.2875 10.5388C13.2499 10.4847 13.2982 10.4144 13.3626 10.4198L14.8016 10.6091L15.4834 10.701L16.4713 10.8307C16.4829 10.8307 16.4891 10.8409 16.4925 10.8519C16.5444 11.0197 16.9346 12.408 16.1975 14.1451Z" fill="#6BD9FC"/>
<path d="M18.3612 14.6317C18.3612 17.054 17.5076 17.2864 17.2928 17.4595C17.2606 17.4811 17.2176 17.4811 17.1908 17.4541C17.0458 17.3135 16.6646 16.8972 15.8217 16.7782C15.7089 16.762 15.5962 16.7512 15.4834 16.7404C15.2472 16.7241 15.0163 16.7241 14.8015 16.7295C14.4364 16.7458 14.1358 16.789 13.9586 16.816C13.9118 16.8239 13.915 16.761 13.9531 16.7328C14.0426 16.6666 14.1321 16.5971 14.2217 16.5241C14.2539 16.497 14.2861 16.4754 14.3183 16.4484C14.4794 16.3186 14.6405 16.178 14.8015 16.0267C14.8337 15.9997 14.866 15.9672 14.8928 15.9402C14.9197 15.9131 14.9465 15.8861 14.9787 15.8591C14.9906 15.8471 15.0024 15.8368 15.0134 15.8264C15.0308 15.8097 15.0456 15.7924 15.0619 15.7746C15.0783 15.7568 15.0947 15.7369 15.1116 15.7197C15.1353 15.6956 15.159 15.6707 15.1827 15.6428C15.2096 15.6158 15.2311 15.5887 15.2579 15.5617C15.2847 15.5346 15.3116 15.5022 15.3331 15.4752C15.3814 15.4211 15.4297 15.3616 15.478 15.3022C15.4995 15.2697 15.5264 15.2427 15.5478 15.2102C15.5693 15.1778 15.5962 15.1508 15.6176 15.1183C15.6391 15.0859 15.6606 15.0588 15.6821 15.0264C15.7035 14.994 15.725 14.9669 15.7465 14.9345C15.7572 14.9183 15.7733 14.8966 15.7841 14.8804C15.8002 14.8588 15.8109 14.8372 15.827 14.8155C15.8592 14.7669 15.8915 14.7182 15.9183 14.6696C15.929 14.6479 15.9451 14.6263 15.9559 14.6047C15.9781 14.56 16.0072 14.5188 16.0289 14.4738C16.0296 14.4724 16.0303 14.4709 16.0311 14.4695C16.074 14.3938 16.1116 14.3127 16.1492 14.237C16.1653 14.2046 16.1814 14.1721 16.1921 14.1397C16.9388 12.38 16.5287 10.9784 16.4804 10.8357C16.4786 10.8305 16.4821 10.8254 16.486 10.8293C16.4866 10.8298 16.4875 10.8308 16.4883 10.8312C16.6648 10.9222 18.3612 12.4186 18.3612 14.6317Z" fill="#1EB6D1"/>
<path d="M21.4323 16.9674C21.4323 17.0323 21.3947 17.0972 21.3303 17.1296C20.5739 17.4954 20.1023 18.2457 19.8248 19.0386C19.6993 19.3971 19.5382 19.7383 19.3459 20.0586C19.2205 20.2674 18.98 20.3994 18.7585 20.298L18.4149 20.1466C18.1572 20.0331 17.878 20.0331 17.6203 20.1466L17.2767 20.298C17.019 20.4116 16.7397 20.4116 16.482 20.298L16.1384 20.1466C15.8807 20.0331 15.6015 20.0331 15.3438 20.1466L15.0002 20.298C14.7425 20.4116 14.4632 20.4116 14.2055 20.298L13.8619 20.1466C13.6042 20.0331 13.325 20.0331 13.0673 20.1466L12.7237 20.298C12.466 20.4116 12.1814 20.4116 11.929 20.298L11.5854 20.1466C11.3277 20.0331 11.0431 20.0331 10.7908 20.1466L10.474 20.2872C10.3237 20.3534 10.1538 20.2784 10.0648 20.1404C9.51508 19.2882 9.20691 18.2833 9.20691 17.2053C9.20691 17.1296 9.20691 17.0539 9.21228 16.9783C9.21228 16.935 9.24986 16.9026 9.28745 16.9026H12.1975C12.2404 16.9026 12.2727 16.935 12.2727 16.9783V17.3513C12.2727 17.8758 12.6968 18.3029 13.2176 18.3029H17.3518C17.8082 18.3029 18.184 17.9785 18.2753 17.5514C18.2807 17.5189 18.3129 17.4919 18.3505 17.4919C19.2692 17.4919 20.1762 17.2845 21.0036 16.8852L21.1692 16.8052C21.2285 16.7754 21.2978 16.7841 21.3494 16.8207C21.3966 16.8543 21.4323 16.9095 21.4323 16.9674Z" fill="#14869F"/>
</g>
<path d="M29.5 15C29.5 6.99306 23.0069 0.5 15 0.5C6.99306 0.5 0.5 6.99306 0.5 15C0.5 23.0069 6.99306 29.5 15 29.5C23.0069 29.5 29.5 23.0069 29.5 15Z" stroke="#0F0A45"/>
<defs>
<linearGradient id="paint0_linear" x1="-102.733" y1="-20.3796" x2="-107.879" y2="11.3294" gradientUnits="userSpaceOnUse">
<stop offset="0.048" stop-color="#1F66A9"/>
<stop offset="0.685348" stop-color="#3291E9"/>
</linearGradient>
<linearGradient id="paint1_linear" x1="23.3725" y1="-0.497559" x2="-11.344" y2="-0.903924" gradientUnits="userSpaceOnUse">
<stop stop-color="#E9A332" stop-opacity="0"/>
<stop offset="0.0001" stop-color="#23DC7D" stop-opacity="0"/>
<stop offset="1" stop-color="#23DC7D"/>
</linearGradient>
<linearGradient id="paint2_linear" x1="12.7747" y1="-13.2219" x2="-20.8074" y2="-4.41937" gradientUnits="userSpaceOnUse">
<stop stop-color="#E9A332" stop-opacity="0"/>
<stop offset="0.0001" stop-color="#23DC7D" stop-opacity="0"/>
<stop offset="1" stop-color="#23DC7D"/>
</linearGradient>
<linearGradient id="paint3_linear" x1="-11.7392" y1="57.3042" x2="32.7957" y2="63.3571" gradientUnits="userSpaceOnUse">
<stop stop-color="#23DC7D"/>
<stop offset="1" stop-color="#23DC7D" stop-opacity="0"/>
</linearGradient>
<clipPath id="clip0">
<rect width="28" height="28" fill="white" transform="translate(1 1)"/>
</clipPath>
</defs>
</svg>
