<svg width="92" height="92" viewBox="0 0 92 92" fill="none" xmlns="http://www.w3.org/2000/svg">
<g clip-path="url(#clip0)">
<path d="M0 46C0 20.5949 20.5949 0 46 0C71.4051 0 92 20.5949 92 46C92 71.4051 71.4051 92 46 92C20.5949 92 0 71.4051 0 46Z" fill="#3291E9"/>
<path d="M0 46C0 20.5949 20.5949 0 46 0C71.4051 0 92 20.5949 92 46C92 71.4051 71.4051 92 46 92C20.5949 92 0 71.4051 0 46Z" fill="url(#paint0_linear)"/>
<g opacity="0.5">
<path opacity="0.5" fill-rule="evenodd" clip-rule="evenodd" d="M75.8505 11.1859C74.0662 13.0587 71.8664 14.8904 69.224 16.6507C60.3701 22.549 53.3053 30.9754 53.1083 47.8115C52.89 66.4586 61.327 75.7428 71.3246 84.2722C64.0414 89.1537 55.2866 92 45.869 92C20.5361 92 0 71.405 0 46C0 20.595 20.5361 0 45.869 0C57.3306 0 67.8105 4.21607 75.8505 11.1859Z" fill="#3291E9"/>
<path opacity="0.5" fill-rule="evenodd" clip-rule="evenodd" d="M75.8505 11.1859C74.0662 13.0587 71.8664 14.8904 69.224 16.6507C60.3701 22.549 53.3053 30.9754 53.1083 47.8115C52.89 66.4586 61.327 75.7428 71.3246 84.2722C64.0414 89.1537 55.2866 92 45.869 92C20.5361 92 0 71.405 0 46C0 20.595 20.5361 0 45.869 0C57.3306 0 67.8105 4.21607 75.8505 11.1859Z" fill="url(#paint1_linear)"/>
</g>
<g opacity="0.5">
<path opacity="0.5" fill-rule="evenodd" clip-rule="evenodd" d="M57.3436 1.45105C56.1164 4.7867 53.9867 8.31268 50.8351 11.9514C43.8645 19.9994 39.2884 30.0072 43.5557 46.2871C48.9507 66.8691 61.9829 72.6876 75.8754 78.89C76.3437 79.0991 76.813 79.3086 77.2829 79.5191C69.075 87.2584 58.0241 92 45.869 92C20.5361 92 0 71.405 0 46C0 20.595 20.5361 0 45.869 0C49.8313 0 53.6763 0.503822 57.3436 1.45105Z" fill="#3291E9"/>
<path opacity="0.5" fill-rule="evenodd" clip-rule="evenodd" d="M57.3436 1.45105C56.1164 4.7867 53.9867 8.31268 50.8351 11.9514C43.8645 19.9994 39.2884 30.0072 43.5557 46.2871C48.9507 66.8691 61.9829 72.6876 75.8754 78.89C76.3437 79.0991 76.813 79.3086 77.2829 79.5191C69.075 87.2584 58.0241 92 45.869 92C20.5361 92 0 71.405 0 46C0 20.595 20.5361 0 45.869 0C49.8313 0 53.6763 0.503822 57.3436 1.45105Z" fill="url(#paint2_linear)"/>
</g>
<g opacity="0.3">
<path opacity="0.3" fill-rule="evenodd" clip-rule="evenodd" d="M3.24619 28.9697C3.39261 29.5705 3.55474 30.1797 3.73292 30.7968C9.63457 51.2377 26.0902 56.0948 43.632 61.2723C55.8968 64.8925 68.6924 68.6694 78.7829 78.0387C70.4473 86.6496 58.7812 92.0002 45.869 92.0002C20.5361 92.0002 0 71.4052 0 46.0002C0 39.9837 1.15175 34.237 3.24619 28.9697Z" fill="#3291E9"/>
<path opacity="0.3" fill-rule="evenodd" clip-rule="evenodd" d="M3.24619 28.9697C3.39261 29.5705 3.55474 30.1797 3.73292 30.7968C9.63457 51.2377 26.0902 56.0948 43.632 61.2723C55.8968 64.8925 68.6924 68.6694 78.7829 78.0387C70.4473 86.6496 58.7812 92.0002 45.869 92.0002C20.5361 92.0002 0 71.4052 0 46.0002C0 39.9837 1.15175 34.237 3.24619 28.9697Z" fill="url(#paint3_linear)"/>
</g>
<path d="M45.8022 79.4793C64.0898 79.4793 78.9146 64.612 78.9146 46.2722C78.9146 27.9325 64.0898 13.0652 45.8022 13.0652C27.5147 13.0652 12.6897 27.9325 12.6897 46.2722C12.6897 64.612 27.5147 79.4793 45.8022 79.4793Z" fill="white"/>
<path d="M47.5882 29.7783V31.8568L45.3478 31.5548V29.7783C45.683 29.9737 46.0534 30.0803 46.4592 30.0803C46.8649 30.0803 47.253 29.9737 47.5882 29.7783Z" fill="#24D7D0"/>
<path d="M47.5153 51.7184V56.8704H45.2749V51.7007C45.9629 51.6651 46.7215 51.6651 47.5153 51.7184Z" fill="#24D7D0"/>
<path d="M48.6265 27.8421C48.6265 28.6771 48.1855 29.4054 47.5151 29.7963C47.1799 29.9917 46.8095 30.0983 46.4037 30.0983C45.998 30.0983 45.6099 29.9917 45.2923 29.7963C44.6219 29.4054 44.1809 28.6771 44.1809 27.8421C44.1809 26.5985 45.1865 25.5859 46.4213 25.5859C47.6562 25.5859 48.6265 26.5985 48.6265 27.8421Z" fill="#14869F"/>
<path d="M40.7612 40.2065V49.9774C40.7612 50.1195 40.6554 50.2261 40.5142 50.2261H31.4995C31.3231 50.2261 31.1996 50.0485 31.2702 49.8708L35.8569 38.0392C35.9098 37.897 36.0686 37.8437 36.1921 37.897L40.6201 39.9756C40.7083 40.0111 40.7612 40.1177 40.7612 40.2065Z" fill="#1EB6D1"/>
<path d="M49.9347 43.1911C49.3526 44.559 48.5234 45.8381 47.5884 47.0107C46.9004 47.8634 46.1418 48.6629 45.348 49.3913C44.4152 50.2646 43.4672 51.0463 42.5463 51.722C42.4274 51.8094 42.2382 51.7563 42.3137 51.6296C42.7547 50.688 43.6191 48.1121 43.4604 42.5515C43.284 36.5291 41.1846 32.6208 40.3731 31.3417C40.2497 31.164 40.4084 30.9331 40.6201 30.9508L45.348 31.5726L47.5884 31.8746L50.8344 32.301C50.8724 32.301 50.8926 32.3343 50.9039 32.3706C51.0745 32.922 52.3566 37.4833 49.9347 43.1911Z" fill="#6BD9FC"/>
<path d="M57.0441 44.7899C57.0441 52.7487 54.2391 53.5126 53.5334 54.0811C53.4276 54.1522 53.2865 54.1522 53.1983 54.0633C52.7219 53.6014 51.4694 52.2335 48.6997 51.8426C48.3292 51.7893 47.9588 51.7538 47.5883 51.7183C46.8121 51.665 46.0535 51.665 45.3479 51.6828C44.1483 51.736 43.1604 51.8782 42.5782 51.967C42.4246 51.9929 42.4349 51.786 42.5602 51.6935C42.8543 51.4761 43.1485 51.2475 43.4426 51.0077C43.5485 50.9188 43.6543 50.8478 43.7602 50.7589C44.2894 50.3326 44.8186 49.8707 45.3479 49.3734C45.4537 49.2846 45.5596 49.178 45.6478 49.0891C45.736 49.0003 45.8242 48.9115 45.93 48.8227C45.969 48.7833 46.0079 48.7495 46.0439 48.7153C46.1013 48.6604 46.1498 48.6036 46.2035 48.5451C46.2571 48.4865 46.3111 48.4214 46.3667 48.3647C46.4446 48.2854 46.5225 48.2036 46.6004 48.112C46.6886 48.0232 46.7592 47.9343 46.8474 47.8455C46.9356 47.7567 47.0238 47.6501 47.0944 47.5613C47.2531 47.3836 47.4119 47.1882 47.5707 46.9928C47.6412 46.8862 47.7295 46.7974 47.8 46.6908C47.8706 46.5842 47.9588 46.4953 48.0294 46.3888C48.0999 46.2822 48.1705 46.1933 48.2411 46.0867C48.3116 45.9801 48.3822 45.8913 48.4528 45.7847C48.488 45.7314 48.541 45.6604 48.5762 45.6071C48.6292 45.536 48.6644 45.465 48.7174 45.3939C48.8232 45.234 48.9291 45.0741 49.0173 44.9142C49.0525 44.8432 49.1055 44.7721 49.1408 44.701C49.2137 44.5542 49.3095 44.4188 49.3808 44.2712C49.3831 44.2663 49.3854 44.2616 49.3877 44.2569C49.5289 44.0082 49.6524 43.7417 49.7758 43.493C49.8288 43.3864 49.8817 43.2798 49.917 43.1732C52.3703 37.3915 51.0229 32.7861 50.8642 32.3173C50.8584 32.3003 50.8698 32.2835 50.8825 32.2961C50.8844 32.298 50.8876 32.3011 50.8901 32.3023C51.4702 32.6014 57.0441 37.5181 57.0441 44.7899Z" fill="#1EB6D1"/>
<path d="M67.1348 52.4644C67.1348 52.6776 67.0113 52.8908 66.7997 52.9974C64.3144 54.1991 62.7648 56.6643 61.8528 59.2698C61.4405 60.4475 60.9112 61.5687 60.2793 62.6212C59.8673 63.3072 59.0771 63.7409 58.3495 63.4078L57.2204 62.9104C56.3737 62.5374 55.4562 62.5374 54.6095 62.9104L53.4805 63.4078C52.6337 63.7809 51.7163 63.7809 50.8696 63.4078L49.7405 62.9104C48.8938 62.5374 47.9763 62.5374 47.1296 62.9104L46.0005 63.4078C45.1538 63.7809 44.2364 63.7809 43.3896 63.4078L42.2606 62.9104C41.4138 62.5374 40.4965 62.5374 39.6497 62.9104L38.5206 63.4078C37.6739 63.7809 36.7389 63.7809 35.9097 63.4078L34.7807 62.9104C33.9339 62.5374 32.9989 62.5374 32.1698 62.9104L31.1289 63.3723C30.6352 63.5899 30.0768 63.3434 29.7844 62.8899C27.9781 60.0898 26.9656 56.7879 26.9656 53.2461C26.9656 52.9974 26.9656 52.7487 26.9832 52.5C26.9832 52.3579 27.1067 52.2513 27.2302 52.2513H36.7918C36.9329 52.2513 37.0388 52.3579 37.0388 52.5V53.7258C37.0388 55.449 38.4324 56.8525 40.1436 56.8525H53.7274C55.227 56.8525 56.4619 55.7866 56.7617 54.3831C56.7794 54.2765 56.8852 54.1877 57.0087 54.1877C60.0275 54.1877 63.0075 53.5062 65.7263 52.1941L66.2704 51.9315C66.465 51.8335 66.6929 51.8622 66.8622 51.9824C67.0175 52.0928 67.1348 52.2739 67.1348 52.4644Z" fill="#14869F"/>
</g>
<defs>
<linearGradient id="paint0_linear" x1="-340.836" y1="-70.2474" x2="-357.745" y2="33.9395" gradientUnits="userSpaceOnUse">
<stop offset="0.048" stop-color="#1F66A9"/>
<stop offset="0.685348" stop-color="#3291E9"/>
</linearGradient>
<linearGradient id="paint1_linear" x1="73.5096" y1="-4.92055" x2="-40.5588" y2="-6.25575" gradientUnits="userSpaceOnUse">
<stop stop-color="#E9A332" stop-opacity="0"/>
<stop offset="0.0001" stop-color="#23DC7D" stop-opacity="0"/>
<stop offset="1" stop-color="#23DC7D"/>
</linearGradient>
<linearGradient id="paint2_linear" x1="38.6884" y1="-46.729" x2="-71.6528" y2="-17.8065" gradientUnits="userSpaceOnUse">
<stop stop-color="#E9A332" stop-opacity="0"/>
<stop offset="0.0001" stop-color="#23DC7D" stop-opacity="0"/>
<stop offset="1" stop-color="#23DC7D"/>
</linearGradient>
<linearGradient id="paint3_linear" x1="-41.8573" y1="185" x2="104.471" y2="204.888" gradientUnits="userSpaceOnUse">
<stop stop-color="#23DC7D"/>
<stop offset="1" stop-color="#23DC7D" stop-opacity="0"/>
</linearGradient>
<clipPath id="clip0">
<rect width="92" height="92" fill="white"/>
</clipPath>
</defs>
</svg>
