<svg width="28" height="28" viewBox="0 0 28 28" fill="none" xmlns="http://www.w3.org/2000/svg">
<circle cx="14" cy="14" r="14" fill="black"/>
<path d="M10.7269 9.17258H10.7486C9.89571 9.17231 9.06229 8.91772 8.35486 8.44135C7.64742 7.96498 7.09812 7.28846 6.77715 6.49829C6.56722 7.00847 6.45854 7.55461 6.45715 8.10629V19.8857C6.457 20.4486 6.56775 21.0059 6.78308 21.526C6.9984 22.046 7.31408 22.5185 7.71208 22.9165C8.11007 23.3145 8.58258 23.6302 9.10262 23.8455C9.62265 24.0608 10.18 24.1716 10.7429 24.1714C11.3059 24.1717 11.8634 24.0611 12.3836 23.8459C12.9039 23.6306 13.3766 23.315 13.7748 22.917C14.173 22.519 14.4889 22.0464 14.7044 21.5263C14.9199 21.0062 15.0309 20.4487 15.0309 19.8857V13.4731C15.0307 12.9081 14.9193 12.3487 14.7029 11.8268C14.4865 11.3049 14.1694 10.8307 13.7697 10.4313C13.37 10.0319 12.8956 9.71524 12.3735 9.49926C11.8514 9.28328 11.2919 9.17228 10.7269 9.17258Z" fill="#0E560E"/>
<path d="M14.9062 3.88572C14.6195 3.85187 14.331 3.8347 14.0422 3.83429H10.7428C9.8912 3.83425 9.05893 4.08827 8.35247 4.56385C7.64602 5.03944 7.09751 5.71496 6.7771 6.504C7.09858 7.29221 7.64739 7.96689 8.35363 8.44212C9.05987 8.91736 9.89157 9.17164 10.7428 9.17258C11.8799 9.17771 12.9688 9.63288 13.7712 10.4386C14.5737 11.2442 15.0245 12.3349 15.0251 13.472V18.752C16.8316 18.5067 18.4867 17.6112 19.6805 16.2333C20.8742 14.8554 21.5247 13.0896 21.5102 11.2665C21.4956 9.4435 20.8169 7.6883 19.6013 6.32966C18.3857 4.97102 16.7164 4.10213 14.9062 3.88572Z" fill="#48C148"/>
<path d="M7.82173 12.2286C7.77777 12.2286 7.73423 12.2199 7.69364 12.203C7.65304 12.1862 7.61617 12.1614 7.58516 12.1303C7.44676 11.9923 7.33696 11.8283 7.26204 11.6478C7.18712 11.4673 7.14856 11.2737 7.14856 11.0783C7.14856 10.8828 7.18712 10.6893 7.26204 10.5088C7.33696 10.3283 7.44676 10.1643 7.58516 10.0263C7.64874 9.96782 7.73246 9.93619 7.81882 9.938C7.90518 9.93981 7.9875 9.97493 8.04858 10.036C8.10966 10.0971 8.14477 10.1794 8.14658 10.2658C8.14839 10.3521 8.11676 10.4358 8.0583 10.4994C7.98224 10.5754 7.92191 10.6657 7.88074 10.765C7.83958 10.8643 7.81839 10.9708 7.81839 11.0783C7.81839 11.1858 7.83958 11.2923 7.88074 11.3916C7.92191 11.4909 7.98224 11.5811 8.0583 11.6571C8.10505 11.704 8.13687 11.7636 8.14976 11.8285C8.16264 11.8934 8.15601 11.9607 8.1307 12.0218C8.10539 12.0829 8.06254 12.1352 8.00755 12.172C7.95256 12.2088 7.8879 12.2285 7.82173 12.2286Z" fill="#48C148"/>
<path d="M7.82173 15.928C7.77777 15.928 7.73423 15.9193 7.69364 15.9025C7.65304 15.8856 7.61617 15.8609 7.58516 15.8297C7.44676 15.6917 7.33696 15.5277 7.26204 15.3472C7.18712 15.1667 7.14856 14.9732 7.14856 14.7777C7.14856 14.5823 7.18712 14.3887 7.26204 14.2082C7.33696 14.0277 7.44676 13.8637 7.58516 13.7257C7.64874 13.6673 7.73246 13.6356 7.81882 13.6374C7.90518 13.6392 7.9875 13.6744 8.04858 13.7354C8.10966 13.7965 8.14477 13.8788 8.14658 13.9652C8.14839 14.0516 8.11676 14.1353 8.0583 14.1989C7.98224 14.2749 7.92191 14.3651 7.88074 14.4644C7.83958 14.5637 7.81839 14.6702 7.81839 14.7777C7.81839 14.8852 7.83958 14.9917 7.88074 15.091C7.92191 15.1903 7.98224 15.2806 8.0583 15.3566C8.10505 15.4034 8.13687 15.463 8.14976 15.5279C8.16264 15.5928 8.15601 15.6601 8.1307 15.7212C8.10539 15.7824 8.06254 15.8346 8.00755 15.8714C7.95256 15.9082 7.8879 15.9279 7.82173 15.928Z" fill="#48C148"/>
<path d="M7.82169 19.6297C7.7778 19.6299 7.7343 19.6215 7.6937 19.6048C7.65309 19.5881 7.61619 19.5636 7.58512 19.5326C7.44656 19.3945 7.33661 19.2305 7.26159 19.0499C7.18657 18.8693 7.14795 18.6756 7.14795 18.48C7.14795 18.2844 7.18657 18.0908 7.26159 17.9101C7.33661 17.7295 7.44656 17.5655 7.58512 17.4274C7.64871 17.369 7.73243 17.3373 7.81879 17.3392C7.90515 17.341 7.98746 17.3761 8.04854 17.4372C8.10962 17.4982 8.14473 17.5806 8.14655 17.6669C8.14836 17.7533 8.11673 17.837 8.05826 17.9006C7.98217 17.9767 7.92181 18.067 7.88063 18.1664C7.83945 18.2658 7.81825 18.3724 7.81825 18.48C7.81825 18.5876 7.83945 18.6942 7.88063 18.7936C7.92181 18.893 7.98217 18.9833 8.05826 19.0594C8.10558 19.1061 8.1379 19.1657 8.15111 19.2308C8.16431 19.2959 8.1578 19.3634 8.13239 19.4248C8.10699 19.4862 8.06385 19.5386 8.0085 19.5753C7.95315 19.612 7.88811 19.6313 7.82169 19.6309V19.6297Z" fill="#48C148"/>
<path d="M9.52229 14.0766C9.47833 14.0766 9.4348 14.0679 9.3942 14.051C9.3536 14.0342 9.31673 14.0094 9.28572 13.9783C9.14733 13.8403 9.03752 13.6763 8.96261 13.4958C8.88769 13.3153 8.84912 13.1217 8.84912 12.9263C8.84912 12.7308 8.88769 12.5373 8.96261 12.3568C9.03752 12.1763 9.14733 12.0123 9.28572 11.8743C9.34979 11.8221 9.43089 11.7955 9.51342 11.7995C9.59596 11.8035 9.67409 11.8379 9.73281 11.896C9.79152 11.9541 9.82666 12.0319 9.83147 12.1144C9.83628 12.1969 9.81042 12.2783 9.75886 12.3429C9.60581 12.4966 9.51989 12.7048 9.51989 12.9217C9.51989 13.1387 9.60581 13.3468 9.75886 13.5006C9.80561 13.5474 9.83743 13.607 9.85032 13.6719C9.8632 13.7368 9.85657 13.8041 9.83126 13.8652C9.80595 13.9264 9.7631 13.9786 9.70811 14.0154C9.65312 14.0522 9.58846 14.0719 9.52229 14.072V14.0766Z" fill="#48C148"/>
<path d="M9.52226 17.7783C9.47836 17.7785 9.43486 17.77 9.39426 17.7534C9.35366 17.7367 9.31675 17.7121 9.28568 17.6811C9.14712 17.5431 9.03717 17.3791 8.96215 17.1984C8.88713 17.0178 8.84851 16.8242 8.84851 16.6286C8.84851 16.433 8.88713 16.2393 8.96215 16.0587C9.03717 15.8781 9.14712 15.714 9.28568 15.576C9.34927 15.5175 9.43299 15.4859 9.51935 15.4877C9.60571 15.4895 9.68803 15.5246 9.74911 15.5857C9.81018 15.6468 9.8453 15.7291 9.84711 15.8155C9.84892 15.9018 9.81729 15.9856 9.75883 16.0491C9.60571 16.2031 9.51976 16.4114 9.51976 16.6286C9.51976 16.8457 9.60571 17.054 9.75883 17.208C9.80614 17.2546 9.83847 17.3143 9.85167 17.3794C9.86488 17.4445 9.85836 17.512 9.83295 17.5734C9.80755 17.6347 9.76441 17.6871 9.70906 17.7238C9.65371 17.7605 9.58867 17.7799 9.52226 17.7794V17.7783Z" fill="#48C148"/>
</svg>
