<svg width="92" height="92" viewBox="0 0 92 92" fill="none" xmlns="http://www.w3.org/2000/svg">
<circle cx="46" cy="46" r="46" fill="black"/>
<path d="M35.2454 30.1384H35.3167C32.5144 30.1376 29.776 29.3011 27.4516 27.7358C25.1272 26.1706 23.3223 23.9478 22.2677 21.3515C21.578 23.0278 21.2209 24.8223 21.2163 26.6349V65.3388C21.2158 67.1881 21.5797 69.0195 22.2872 70.7282C22.9947 72.4368 24.0319 73.9894 25.3396 75.2971C26.6473 76.6048 28.1999 77.642 29.9086 78.3495C31.6172 79.057 33.4486 79.4209 35.2979 79.4204V79.4204C37.1478 79.4214 38.9797 79.0579 40.6891 78.3507C42.3984 77.6434 43.9516 76.6063 45.26 75.2986C46.5684 73.9909 47.6063 72.4383 48.3145 70.7293C49.0226 69.0204 49.3871 67.1886 49.3871 65.3388V44.2689C49.3866 42.4124 49.0204 40.5743 48.3094 38.8594C47.5984 37.1445 46.5565 35.5865 45.2433 34.2743C43.9301 32.9621 42.3712 31.9215 40.6557 31.2118C38.9403 30.5022 37.1018 30.1375 35.2454 30.1384V30.1384Z" fill="#0E560E"/>
<path d="M48.9777 12.7673C48.0355 12.6561 47.0876 12.5997 46.1389 12.5984H35.2979C32.4997 12.5982 29.7651 13.4329 27.4439 14.9955C25.1227 16.5581 23.3205 18.7777 22.2677 21.3703C23.324 23.9601 25.1272 26.1769 27.4477 27.7384C29.7682 29.2999 32.501 30.1354 35.2979 30.1384V30.1384C39.0342 30.1553 42.6117 31.6509 45.2484 34.2981C47.8851 36.9453 49.3663 40.5288 49.3683 44.2651V61.6137C55.304 60.8076 60.7422 57.8654 64.6645 53.338C68.5869 48.8106 70.7243 43.0086 70.6764 37.0186C70.6285 31.0286 68.3986 25.2615 64.4044 20.7974C60.4102 16.3333 54.9255 13.4784 48.9777 12.7673V12.7673Z" fill="#48C148"/>
<path d="M25.6999 40.1796C25.5554 40.1796 25.4124 40.1511 25.279 40.0957C25.1456 40.0403 25.0245 39.959 24.9226 39.8567C24.4679 39.4032 24.1071 38.8644 23.8609 38.2713C23.6147 37.6782 23.488 37.0423 23.488 36.4001C23.488 35.7579 23.6147 35.122 23.8609 34.5289C24.1071 33.9357 24.4679 33.397 24.9226 32.9435C25.1315 32.7514 25.4066 32.6475 25.6903 32.6534C25.9741 32.6594 26.2446 32.7748 26.4452 32.9755C26.6459 33.1761 26.7613 33.4466 26.7673 33.7304C26.7732 34.0141 26.6693 34.2892 26.4772 34.4981C26.2273 34.7478 26.029 35.0443 25.8938 35.3707C25.7585 35.697 25.6889 36.0468 25.6889 36.4001C25.6889 36.7534 25.7585 37.1032 25.8938 37.4295C26.029 37.7559 26.2273 38.0524 26.4772 38.302C26.6308 38.4559 26.7353 38.6518 26.7777 38.8651C26.82 39.0783 26.7982 39.2993 26.7151 39.5002C26.6319 39.7011 26.4911 39.8728 26.3104 39.9937C26.1297 40.1147 25.9173 40.1793 25.6999 40.1796V40.1796Z" fill="#48C148"/>
<path d="M25.6999 52.3349C25.5554 52.3349 25.4124 52.3064 25.279 52.251C25.1456 52.1955 25.0245 52.1143 24.9226 52.0119C24.4679 51.5584 24.1071 51.0197 23.8609 50.4266C23.6147 49.8334 23.488 49.1975 23.488 48.5553C23.488 47.9132 23.6147 47.2773 23.8609 46.6841C24.1071 46.091 24.4679 45.5523 24.9226 45.0988C25.1315 44.9067 25.4066 44.8028 25.6903 44.8087C25.9741 44.8147 26.2446 44.93 26.4452 45.1307C26.6459 45.3314 26.7613 45.6019 26.7673 45.8856C26.7732 46.1694 26.6693 46.4445 26.4772 46.6534C26.2273 46.9031 26.029 47.1996 25.8938 47.5259C25.7585 47.8523 25.6889 48.2021 25.6889 48.5553C25.6889 48.9086 25.7585 49.2584 25.8938 49.5848C26.029 49.9111 26.2273 50.2076 26.4772 50.4573C26.6308 50.6112 26.7353 50.8071 26.7777 51.0203C26.82 51.2336 26.7982 51.4546 26.7151 51.6555C26.6319 51.8564 26.4911 52.0281 26.3104 52.149C26.1297 52.2699 25.9173 52.3346 25.6999 52.3349V52.3349Z" fill="#48C148"/>
<path d="M25.6999 64.4977C25.5557 64.4984 25.4128 64.4705 25.2794 64.4158C25.146 64.361 25.0247 64.2803 24.9226 64.1785C24.4673 63.7249 24.1061 63.186 23.8596 62.5925C23.6131 61.999 23.4862 61.3627 23.4862 60.72C23.4862 60.0774 23.6131 59.4411 23.8596 58.8476C24.1061 58.2541 24.4673 57.7151 24.9226 57.2616C25.1316 57.0695 25.4066 56.9655 25.6904 56.9715C25.9741 56.9774 26.2446 57.0928 26.4453 57.2935C26.646 57.4942 26.7614 57.7647 26.7673 58.0484C26.7733 58.3322 26.6693 58.6073 26.4772 58.8162C26.2272 59.0662 26.0289 59.363 25.8936 59.6897C25.7583 60.0163 25.6886 60.3664 25.6886 60.72C25.6886 61.0736 25.7583 61.4237 25.8936 61.7504C26.0289 62.077 26.2272 62.3738 26.4772 62.6239C26.6327 62.777 26.7389 62.9731 26.7823 63.1869C26.8257 63.4008 26.8043 63.6227 26.7208 63.8244C26.6373 64.026 26.4956 64.1981 26.3137 64.3187C26.1319 64.4394 25.9182 64.503 25.6999 64.5014V64.4977Z" fill="#48C148"/>
<path d="M31.2875 46.2516C31.1431 46.2516 31 46.2231 30.8667 46.1677C30.7333 46.1123 30.6121 46.031 30.5102 45.9287C30.0555 45.4752 29.6947 44.9364 29.4486 44.3433C29.2024 43.7502 29.0757 43.1143 29.0757 42.4721C29.0757 41.8299 29.2024 41.194 29.4486 40.6009C29.6947 40.0077 30.0555 39.469 30.5102 39.0155C30.7207 38.8441 30.9872 38.7565 31.2584 38.7697C31.5296 38.7828 31.7863 38.8958 31.9792 39.0869C32.1721 39.2779 32.2876 39.5335 32.3034 39.8046C32.3192 40.0756 32.2342 40.3429 32.0648 40.5551C31.562 41.0604 31.2797 41.7442 31.2797 42.4571C31.2797 43.1699 31.562 43.8538 32.0648 44.359C32.2184 44.5129 32.323 44.7088 32.3653 44.9221C32.4077 45.1353 32.3859 45.3563 32.3027 45.5572C32.2196 45.7581 32.0788 45.9298 31.8981 46.0507C31.7174 46.1716 31.5049 46.2363 31.2875 46.2366V46.2516Z" fill="#48C148"/>
<path d="M31.2875 58.4144C31.1432 58.4151 31.0003 58.3873 30.8669 58.3325C30.7335 58.2777 30.6122 58.1971 30.5102 58.0952C30.0549 57.6417 29.6936 57.1027 29.4471 56.5092C29.2006 55.9157 29.0737 55.2794 29.0737 54.6368C29.0737 53.9941 29.2006 53.3578 29.4471 52.7643C29.6936 52.1708 30.0549 51.6319 30.5102 51.1783C30.7191 50.9862 30.9942 50.8823 31.2779 50.8882C31.5617 50.8942 31.8321 51.0096 32.0328 51.2103C32.2335 51.4109 32.3489 51.6814 32.3548 51.9652C32.3608 52.2489 32.2569 52.524 32.0648 52.7329C31.5617 53.2388 31.2793 53.9233 31.2793 54.6368C31.2793 55.3502 31.5617 56.0347 32.0648 56.5406C32.2202 56.6938 32.3264 56.8898 32.3698 57.1037C32.4132 57.3175 32.3918 57.5395 32.3083 57.7411C32.2249 57.9427 32.0831 58.1149 31.9013 58.2355C31.7194 58.3561 31.5057 58.4197 31.2875 58.4182V58.4144Z" fill="#48C148"/>
</svg>
