<svg width="92" height="92" viewBox="0 0 92 92" fill="none" xmlns="http://www.w3.org/2000/svg">
<path fill-rule="evenodd" clip-rule="evenodd" d="M46 0C71.4012 0 92 20.5988 92 46C92 71.4012 71.4012 92 46 92C20.5988 92 0 71.4012 0 46C0 20.5988 20.5988 0 46 0Z" fill="#333333"/>
<g clip-path="url(#clip0)">
<path d="M21.0834 11.4726L87.2905 56.6785L70.9167 80.8833L4.70959 35.3214L21.0834 11.4726Z" fill="url(#paint0_linear)"/>
<path d="M87.2905 56.6786C81.5953 64.8655 62.3738 61.6619 44.2203 48.8476C25.7107 36.3893 15.7441 19.6595 21.0834 11.4726C26.7786 3.28572 46 6.4893 64.1536 19.3036C82.6631 31.406 92.6298 48.4917 87.2905 56.6786Z" fill="url(#paint1_linear)"/>
<path d="M70.9167 80.5274C65.2214 88.7143 46 85.5107 27.8464 72.6964C9.69288 59.8822 -0.62974 43.5083 5.0655 34.9655C10.7607 26.7786 29.9822 29.9822 48.1357 42.7964C66.2893 55.6107 76.256 72.3405 70.9167 80.5274Z" fill="url(#paint2_linear)"/>
<path d="M87.2905 56.6786L70.9167 80.8834C65.2214 89.0703 46 85.5108 27.8464 73.0524C24.2869 70.5608 21.0833 68.0691 17.8798 65.2215C20.3714 64.8655 23.575 63.4417 26.7786 59.8822C32.4738 53.831 35.3214 52.4072 37.8131 52.7631C40.3048 52.7631 43.1524 55.2548 47.7798 61.306C52.4071 67.3572 58.8143 69.137 62.7298 65.9334C63.0857 65.5774 63.4417 65.5774 63.7976 65.2215C67.0012 62.7298 68.069 61.662 74.1202 50.2715C75.544 47.4239 80.5274 42.7965 87.2905 44.9322C89.0702 49.5596 89.0702 53.475 87.2905 56.6786Z" fill="#0E0F23"/>
<path fill-rule="evenodd" clip-rule="evenodd" d="M84.7988 55.2547C79.8155 62.3738 62.3738 58.8142 45.644 47.0678C28.5583 35.3214 18.5916 20.3714 23.575 13.2523C28.5583 6.1333 46 9.69282 62.7297 21.4393C79.4595 33.1857 89.4262 48.1357 84.7988 55.2547ZM69.1369 44.5762C66.6452 48.1357 58.1024 46.3559 49.5595 40.6607C41.3726 34.9654 36.3893 27.4904 38.8809 23.9309C41.3726 20.3714 49.9155 22.1512 58.4583 27.8464C66.6452 33.5416 71.6285 41.0166 69.1369 44.5762Z" fill="white"/>
<path d="M19.6595 19.6595C19.6595 19.3036 19.3036 18.9476 18.9476 19.3036C18.5917 19.6595 18.2357 19.6595 18.2357 20.0155C18.5917 21.0833 18.9476 21.7952 18.9476 22.5071C18.9476 22.8631 19.3036 23.219 19.6595 22.8631C20.0155 22.8631 20.3714 22.5071 20.0155 22.1512C20.0155 21.4393 20.0155 20.7274 19.6595 19.6595Z" fill="white"/>
<path d="M21.4393 25.3548C21.4393 24.9988 21.0834 24.6429 20.7274 24.9988C20.3715 25.3548 20.3715 25.3548 20.3715 25.7107C24.2869 34.6095 32.4738 44.2202 43.1524 51.3393C43.5084 51.6952 43.8643 51.3393 44.2203 51.3393C44.5762 50.9833 44.2203 50.6274 44.2203 50.2714C33.1857 43.1524 25.3548 33.8976 21.4393 25.3548Z" fill="white"/>
<path d="M64.5096 60.2381C64.1537 60.2381 63.7977 60.2381 63.7977 60.594C63.7977 60.95 63.7977 61.3059 64.1537 61.3059C65.2215 61.6619 66.6454 62.0179 67.7132 62.3738C68.0692 62.3738 68.4251 62.3738 68.4251 62.0179C68.4251 61.6619 68.4251 61.3059 68.0692 61.3059C67.0013 60.95 65.5775 60.594 64.5096 60.2381Z" fill="white"/>
<path d="M70.9166 61.662C70.5607 61.662 70.2047 62.0179 70.2047 62.3739C70.2047 62.7298 70.5607 63.0858 70.9166 63.0858C73.7642 63.4417 76.9678 63.7977 79.4595 63.4417C79.8154 63.4417 80.1714 63.0858 80.1714 62.7298C80.1714 62.3739 79.8154 62.0179 79.4595 62.0179C76.6119 62.3739 73.7642 62.0179 70.9166 61.662Z" fill="white"/>
</g>
<defs>
<linearGradient id="paint0_linear" x1="34.055" y1="5.04516" x2="47.1847" y2="50.1308" gradientUnits="userSpaceOnUse">
<stop stop-color="#03B8FF"/>
<stop offset="1" stop-color="#FA52A0"/>
</linearGradient>
<linearGradient id="paint1_linear" x1="44.8674" y1="1.89609" x2="57.9974" y2="46.9821" gradientUnits="userSpaceOnUse">
<stop stop-color="#03B8FF"/>
<stop offset="1" stop-color="#FA52A0"/>
</linearGradient>
<linearGradient id="paint2_linear" x1="23.276" y1="8.18398" x2="36.406" y2="53.27" gradientUnits="userSpaceOnUse">
<stop stop-color="#03B8FF"/>
<stop offset="1" stop-color="#FA52A0"/>
</linearGradient>
<clipPath id="clip0">
<rect width="85.4286" height="85.4286" fill="white" transform="translate(3.28577 3.28571)"/>
</clipPath>
</defs>
</svg>
