<svg viewBox="0 0 28 28" fill="none" xmlns="http://www.w3.org/2000/svg">
<g clip-path="url(#clip0)">
<path d="M5.83334 2.68335L27.5333 17.5L22.1667 25.4333L0.466675 10.5L5.83334 2.68335Z" fill="url(#paint0_linear)"/>
<path d="M27.5333 17.5C25.6667 20.1833 19.3667 19.1333 13.4167 14.9333C7.34999 10.85 4.08332 5.36667 5.83332 2.68334C7.69999 6.55651e-06 14 1.05001 19.95 5.25001C26.0167 9.21667 29.2833 14.8167 27.5333 17.5Z" fill="url(#paint1_linear)"/>
<path d="M22.1667 25.3167C20.3 28 14 26.95 8.04999 22.75C2.09999 18.55 -1.28334 13.1833 0.583322 10.3833C2.44999 7.7 8.74999 8.75 14.7 12.95C20.65 17.15 23.9167 22.6333 22.1667 25.3167Z" fill="url(#paint2_linear)"/>
<path d="M27.5333 17.5L22.1667 25.4333C20.3 28.1167 14 26.95 8.04999 22.8667C6.88333 22.05 5.83333 21.2333 4.78333 20.3C5.59999 20.1833 6.64999 19.7167 7.69999 18.55C9.56666 16.5667 10.5 16.1 11.3167 16.2167C12.1333 16.2167 13.0667 17.0333 14.5833 19.0167C16.1 21 18.2 21.5833 19.4833 20.5333C19.6 20.4167 19.7167 20.4167 19.8333 20.3C20.8833 19.4833 21.2333 19.1333 23.2167 15.4C23.6833 14.4667 25.3167 12.95 27.5333 13.65C28.1167 15.1667 28.1167 16.45 27.5333 17.5Z" fill="#0E0F23"/>
<path fill-rule="evenodd" clip-rule="evenodd" d="M26.7167 17.0333C25.0833 19.3667 19.3667 18.2 13.8833 14.35C8.28335 10.5 5.01668 5.6 6.65001 3.26667C8.28335 0.933336 14 2.1 19.4833 5.95C24.9667 9.8 28.2333 14.7 26.7167 17.0333ZM21.5833 13.5333C20.7667 14.7 17.9667 14.1167 15.1667 12.25C12.4833 10.3833 10.85 7.93334 11.6667 6.76667C12.4833 5.6 15.2833 6.18334 18.0833 8.05C20.7667 9.91667 22.4 12.3667 21.5833 13.5333Z" fill="white"/>
<path d="M5.36663 5.36667C5.36663 5.25 5.24996 5.13333 5.1333 5.25C5.01663 5.36667 4.89996 5.36667 4.89996 5.48333C5.01663 5.83333 5.1333 6.06667 5.1333 6.3C5.1333 6.41667 5.24996 6.53333 5.36663 6.41667C5.4833 6.41667 5.59996 6.3 5.4833 6.18333C5.4833 5.95 5.4833 5.71667 5.36663 5.36667Z" fill="white"/>
<path d="M5.94998 7.23334C5.94998 7.11667 5.83331 7 5.71664 7.11667C5.59998 7.23334 5.59998 7.23334 5.59998 7.35C6.88331 10.2667 9.56664 13.4167 13.0666 15.75C13.1833 15.8667 13.3 15.75 13.4166 15.75C13.5333 15.6333 13.4166 15.5167 13.4166 15.4C9.79998 13.0667 7.23331 10.0333 5.94998 7.23334Z" fill="white"/>
<path d="M20.0666 18.6667C19.95 18.6667 19.8333 18.6667 19.8333 18.7833C19.8333 18.9 19.8333 19.0167 19.95 19.0167C20.3 19.1333 20.7666 19.25 21.1166 19.3667C21.2333 19.3667 21.35 19.3667 21.35 19.25C21.35 19.1333 21.35 19.0167 21.2333 19.0167C20.8833 18.9 20.4166 18.7833 20.0666 18.6667Z" fill="white"/>
<path d="M22.1667 19.1333C22.05 19.1333 21.9333 19.25 21.9333 19.3667C21.9333 19.4833 22.05 19.6 22.1667 19.6C23.1 19.7167 24.15 19.8333 24.9667 19.7167C25.0834 19.7167 25.2 19.6 25.2 19.4833C25.2 19.3667 25.0834 19.25 24.9667 19.25C24.0334 19.3667 23.1 19.25 22.1667 19.1333Z" fill="white"/>
</g>
<defs>
<linearGradient id="paint0_linear" x1="10.0849" y1="0.5767" x2="14.3883" y2="15.3539" gradientUnits="userSpaceOnUse">
<stop stop-color="#03B8FF"/>
<stop offset="1" stop-color="#FA52A0"/>
</linearGradient>
<linearGradient id="paint1_linear" x1="13.6288" y1="-0.45546" x2="17.9322" y2="14.3219" gradientUnits="userSpaceOnUse">
<stop stop-color="#03B8FF"/>
<stop offset="1" stop-color="#FA52A0"/>
</linearGradient>
<linearGradient id="paint2_linear" x1="6.55199" y1="1.60545" x2="10.8555" y2="16.3828" gradientUnits="userSpaceOnUse">
<stop stop-color="#03B8FF"/>
<stop offset="1" stop-color="#FA52A0"/>
</linearGradient>
<clipPath id="clip0">
<rect width="28" height="28" fill="white"/>
</clipPath>
</defs>
</svg>
