<svg width="30" height="30" viewBox="0 0 30 30" fill="none" xmlns="http://www.w3.org/2000/svg">
<path d="M14.9985 28.997C22.7296 28.997 28.997 22.7296 28.997 14.9985C28.997 7.26734 22.7296 1 14.9985 1C7.26734 1 1 7.26734 1 14.9985C1 22.7296 7.26734 28.997 14.9985 28.997Z" fill="url(#paint0_linear)"/>
<path d="M10.3877 11.5182C10.2758 11.3792 10.106 11.3021 9.92466 11.3021H6.18581C6.15494 11.3021 6.12793 11.2905 6.10478 11.2712C6.08549 11.2519 6.07391 11.2288 6.07391 11.2018V8.68218C6.07391 8.65517 6.08549 8.63202 6.10478 8.61273C6.12793 8.58958 6.15494 8.57801 6.18581 8.58186H10.1369C11.1324 8.58186 11.9928 8.99086 12.7182 9.80499L13.6789 10.978L11.8076 13.2583L10.3877 11.5182ZM17.2943 9.79342C18.0158 8.987 18.8801 8.58186 19.8872 8.58186H23.8267C23.8537 8.57801 23.8807 8.58958 23.9 8.60501C23.9193 8.62431 23.927 8.65132 23.9231 8.68218V11.2018C23.9231 11.2288 23.9154 11.2519 23.9 11.2712C23.8807 11.2944 23.8537 11.3059 23.8267 11.3021H20.0878C19.9104 11.2982 19.7406 11.3792 19.6248 11.5182L16.8699 14.8712L19.6364 18.2473C19.7483 18.3746 19.9142 18.4518 20.084 18.4479H23.8228C23.8498 18.4441 23.8807 18.4595 23.8961 18.4788C23.9116 18.502 23.9231 18.5328 23.9193 18.5598V21.0794C23.9193 21.1064 23.9116 21.1296 23.8961 21.1489C23.8768 21.172 23.8498 21.1836 23.8228 21.1797H19.8872C18.8801 21.1797 18.0236 20.7707 17.3059 19.9566L15.014 17.1592L12.722 19.9566C12.0005 20.7707 11.1362 21.1797 10.1292 21.1797H6.18581C6.1588 21.1836 6.12793 21.1682 6.1125 21.1489C6.09321 21.1257 6.08549 21.0948 6.08935 21.0678V18.5483C6.08935 18.5213 6.09706 18.4981 6.1125 18.4788C6.13179 18.4557 6.1588 18.4441 6.18581 18.4479H9.92466C10.1021 18.4479 10.2719 18.3669 10.3877 18.2319L13.0925 14.929L17.2943 9.79342Z" fill="#00D1FF"/>
<path d="M29.5 15C29.5 6.99306 23.0069 0.5 15 0.5C6.99306 0.5 0.5 6.99306 0.5 15C0.5 23.0069 6.99306 29.5 15 29.5C23.0069 29.5 29.5 23.0069 29.5 15Z" stroke="#0F0A45"/>
<defs>
<linearGradient id="paint0_linear" x1="15.0004" y1="0.999919" x2="15.0004" y2="8.40816" gradientUnits="userSpaceOnUse">
<stop stop-color="#090220"/>
<stop offset="1" stop-color="#170659"/>
</linearGradient>
</defs>
</svg>
