<svg width="92" height="92" viewBox="0 0 92 92" fill="none" xmlns="http://www.w3.org/2000/svg">
<path d="M45.995 91.9901C71.3974 91.9901 91.9901 71.3974 91.9901 45.995C91.9901 20.5927 71.3974 0 45.995 0C20.5927 0 0 20.5927 0 45.995C0 71.3974 20.5927 91.9901 45.995 91.9901Z" fill="url(#paint0_linear)"/>
<path d="M30.8452 34.5596C30.4775 34.1032 29.9197 33.8497 29.3238 33.8497H17.039C16.9376 33.8497 16.8489 33.8116 16.7728 33.7482C16.7094 33.6849 16.6714 33.6088 16.6714 33.52V25.2414C16.6714 25.1527 16.7094 25.0766 16.7728 25.0132C16.8489 24.9372 16.9376 24.8991 17.039 24.9118H30.0211C33.292 24.9118 36.1191 26.2557 38.5026 28.9307L41.6593 32.7847L35.5106 40.2773L30.8452 34.5596ZM53.5384 28.8926C55.9092 26.243 58.749 24.9118 62.0579 24.9118H75.0019C75.0907 24.8991 75.1794 24.9372 75.2428 24.9879C75.3062 25.0513 75.3315 25.14 75.3189 25.2414V33.52C75.3189 33.6088 75.2935 33.6849 75.2428 33.7482C75.1794 33.8243 75.0907 33.8623 75.0019 33.8497H62.7171C62.134 33.837 61.5761 34.1032 61.1958 34.5596L52.1439 45.5766L61.2338 56.6697C61.6015 57.0881 62.1466 57.3416 62.7045 57.3289H74.9893C75.078 57.3163 75.1794 57.367 75.2301 57.4304C75.2808 57.5064 75.3189 57.6078 75.3062 57.6966V65.9752C75.3062 66.0639 75.2808 66.14 75.2301 66.2034C75.1667 66.2795 75.078 66.3175 74.9893 66.3048H62.0579C58.749 66.3048 55.9345 64.961 53.5765 62.2859L46.0458 53.0945L38.5152 62.2859C36.1445 64.961 33.3047 66.3048 29.9958 66.3048H17.039C16.9503 66.3175 16.8489 66.2668 16.7982 66.2034C16.7348 66.1273 16.7094 66.0259 16.7221 65.9371V57.6586C16.7221 57.5698 16.7475 57.4937 16.7982 57.4304C16.8616 57.3543 16.9503 57.3163 17.039 57.3289H29.3238C29.907 57.3289 30.4648 57.0627 30.8452 56.619L39.7323 45.7668L53.5384 28.8926Z" fill="#00D1FF"/>
<defs>
<linearGradient id="paint0_linear" x1="46.0014" y1="-0.000266234" x2="46.0014" y2="24.3411" gradientUnits="userSpaceOnUse">
<stop stop-color="#090220"/>
<stop offset="1" stop-color="#170659"/>
</linearGradient>
</defs>
</svg>
