<svg viewBox="0 0 68 68" fill="none" xmlns="http://www.w3.org/2000/svg">
<circle cx="34" cy="34" r="34" fill="#FF2972"/>
<g clip-path="url(#clip0)">
<path d="M27.6862 20.4668C27.1871 20.3956 27.1633 20.3719 27.401 20.3481C27.8526 20.2769 28.8983 20.3719 29.6351 20.538C31.3463 20.9415 32.8912 21.9859 34.5311 23.8136L34.9589 24.312L35.5769 24.2171C38.215 23.7898 40.9244 24.1221 43.1823 25.1665C43.8003 25.4513 44.7747 26.021 44.8935 26.1634C44.9411 26.2109 45.0124 26.5194 45.0599 26.828C45.2263 27.9436 45.155 28.7743 44.7985 29.4152C44.6083 29.7713 44.6083 29.8662 44.7272 30.1748C44.8222 30.4121 45.1075 30.5783 45.3689 30.5783C45.9393 30.5783 46.5335 29.6763 46.8187 28.4183L46.9375 27.9199L47.1514 28.1572C48.3635 29.5102 49.3142 31.3853 49.4568 32.7145L49.5044 33.0705L49.2905 32.762C48.934 32.216 48.6012 31.86 48.1496 31.5514C47.3416 31.0055 46.4859 30.8394 44.2281 30.7207C42.1841 30.602 41.0195 30.4359 39.8787 30.0561C37.9298 29.4152 36.9316 28.5845 34.6262 25.5225C33.6042 24.1696 32.9625 23.4338 32.3208 22.8167C30.9185 21.4637 29.5162 20.7516 27.6862 20.4668Z" fill="white"/>
<path d="M45.3928 23.4819C45.4403 22.5799 45.5592 21.9865 45.8206 21.4406C45.9157 21.227 46.0108 21.0371 46.0345 21.0371C46.0583 21.0371 46.0108 21.2033 45.9395 21.3931C45.7493 21.9153 45.7255 22.6511 45.8444 23.4819C46.0108 24.55 46.0821 24.6924 47.2229 25.8555C47.7458 26.4014 48.3637 27.0897 48.6014 27.3746L49.0054 27.8968L48.6014 27.517C48.1023 27.0423 46.9614 26.1403 46.7 26.0216C46.5336 25.9267 46.5099 25.9267 46.391 26.0454C46.296 26.1403 46.2722 26.2827 46.2722 26.9711C46.2484 28.0392 46.1058 28.7038 45.7493 29.3921C45.5592 29.7481 45.5354 29.6769 45.7018 29.2734C45.8206 28.9649 45.8444 28.8225 45.8444 27.8018C45.8444 25.7368 45.6067 25.2383 44.1569 24.4076C43.8004 24.194 43.1825 23.8854 42.826 23.7193C42.4457 23.5531 42.1605 23.4107 42.1842 23.4107C42.2318 23.3632 43.634 23.7667 44.1807 24.0041C45.0125 24.3364 45.1551 24.3601 45.2502 24.3364C45.3215 24.2652 45.369 24.0753 45.3928 23.4819Z" fill="white"/>
<path d="M28.6607 27.0177C27.6624 25.641 27.0207 23.5048 27.1633 21.9145L27.2109 21.416L27.4485 21.4635C27.8763 21.5347 28.6131 21.8195 28.9696 22.0331C29.9203 22.6028 30.3481 23.3861 30.7522 25.3324C30.871 25.9021 31.0374 26.5667 31.1087 26.7803C31.2275 27.1363 31.6791 27.9671 32.0594 28.4893C32.3208 28.8691 32.1544 29.0589 31.5602 29.0115C30.6571 28.9165 29.445 28.0858 28.6607 27.0177Z" fill="white"/>
<path d="M44.1806 37.3445C39.4747 35.4456 37.811 33.8078 37.811 31.0307C37.811 30.6272 37.8348 30.2949 37.8348 30.2949C37.8586 30.2949 38.0249 30.4373 38.2388 30.6035C39.1895 31.363 40.259 31.6953 43.2299 32.1226C44.9649 32.3837 45.9631 32.5736 46.8663 32.8821C49.7421 33.8316 51.5246 35.7779 51.9524 38.4126C52.0713 39.1721 52 40.62 51.8098 41.3795C51.6435 41.9729 51.1681 43.0648 51.0493 43.0885C51.0255 43.0885 50.978 42.9698 50.978 42.78C50.9305 41.7831 50.4314 40.8336 49.5995 40.0978C48.6013 39.2433 47.3179 38.6025 44.1806 37.3445Z" fill="white"/>
<path d="M40.8532 38.1264C40.8057 37.7703 40.6868 37.3194 40.6155 37.1295L40.4967 36.7734L40.7106 37.0345C41.0196 37.3906 41.2572 37.8178 41.4711 38.4112C41.6375 38.8622 41.6375 39.0046 41.6375 39.7404C41.6375 40.4525 41.6137 40.6186 41.4711 41.0221C41.2335 41.663 40.9483 42.114 40.4729 42.6124C39.6173 43.4907 38.5003 43.9654 36.9079 44.179C36.6227 44.2027 35.8146 44.2739 35.1016 44.3214C33.319 44.4164 32.1307 44.6062 31.0612 44.986C30.9186 45.0335 30.776 45.081 30.7522 45.0572C30.7047 45.0098 31.4414 44.5825 32.0356 44.2977C32.8675 43.8942 33.7231 43.6806 35.6007 43.3483C36.5276 43.2058 37.4783 43.0159 37.7159 42.921C40.0689 42.1852 41.2335 40.3575 40.8532 38.1264Z" fill="white"/>
<path d="M43.0161 41.9478C42.3981 40.5949 42.2555 39.3131 42.5883 38.1026C42.6358 37.9839 42.6833 37.8652 42.7309 37.8652C42.7784 37.8652 42.921 37.9364 43.0636 38.0314C43.3488 38.2213 43.943 38.5536 45.4641 39.3843C47.3892 40.4287 48.4825 41.2357 49.243 42.1614C49.9085 42.9684 50.3126 43.8941 50.5027 45.0334C50.6215 45.6743 50.5502 47.2171 50.3839 47.858C49.861 49.8756 48.6726 51.4896 46.9376 52.4153C46.6762 52.5577 46.4623 52.6526 46.4385 52.6526C46.4148 52.6526 46.5098 52.4153 46.6524 52.1305C47.2228 50.9199 47.2941 49.7569 46.8663 48.4514C46.6049 47.6444 46.0583 46.6712 44.965 45.0334C43.6578 43.1346 43.3488 42.6361 43.0161 41.9478Z" fill="white"/>
<path d="M25.3097 49.211C27.0684 47.7393 29.2312 46.695 31.2277 46.3627C32.0833 46.2202 33.5093 46.2677 34.2936 46.4813C35.5533 46.8136 36.6941 47.5257 37.2883 48.4039C37.8587 49.2584 38.1201 49.9942 38.3816 51.632C38.4766 52.2729 38.5955 52.9375 38.6192 53.0799C38.8094 53.9344 39.1896 54.599 39.665 54.955C40.4018 55.5009 41.6852 55.5247 42.9448 55.05C43.1587 54.9788 43.3489 54.9076 43.3489 54.9313C43.3964 54.9788 42.7547 55.406 42.3269 55.6196C41.7327 55.9282 41.2574 56.0231 40.6157 56.0231C39.4748 56.0231 38.5004 55.4297 37.7161 54.2429C37.5497 54.0056 37.217 53.3173 36.9318 52.6764C36.0999 50.7538 35.6721 50.1841 34.6977 49.5433C33.842 48.9973 32.7488 48.8787 31.9169 49.2822C30.8236 49.8044 30.5384 51.2048 31.299 52.0593C31.6079 52.4153 32.1783 52.7001 32.6537 52.7713C33.5331 52.89 34.2936 52.2017 34.2936 51.3234C34.2936 50.7538 34.0797 50.4215 33.5093 50.1604C32.7488 49.8281 31.9169 50.2079 31.9407 50.9437C31.9407 51.2522 32.0833 51.4421 32.3922 51.5845C32.5824 51.6795 32.5824 51.6795 32.4398 51.6557C31.7505 51.5133 31.5842 50.6588 32.1308 50.1129C32.7963 49.4483 34.1985 49.7331 34.6739 50.6588C34.864 51.0386 34.8878 51.7982 34.7214 52.2729C34.3174 53.3173 33.1766 53.8632 32.012 53.5546C31.2277 53.341 30.8949 53.1274 29.9442 52.1542C28.2805 50.4452 27.6388 50.1129 25.2621 49.7569L24.8105 49.6857L25.3097 49.211Z" fill="white"/>
<path fill-rule="evenodd" clip-rule="evenodd" d="M12.8079 11.0206C18.3456 17.7379 26.878 28.1816 27.3058 28.7513C27.6623 29.226 27.5197 29.677 26.9256 30.0093C26.5928 30.1992 25.9036 30.3891 25.5708 30.3891C25.1906 30.3891 24.739 30.1992 24.43 29.8906C24.2161 29.677 23.2892 28.324 21.1977 25.0722C19.6053 22.58 18.2506 20.515 18.2268 20.4912C18.1317 20.4438 18.1317 20.4438 21.0313 25.6182C22.8614 28.87 23.4556 30.033 23.4556 30.1754C23.4556 30.484 23.3605 30.6502 22.9802 31.0774C22.3385 31.7895 22.0533 32.5965 21.8394 34.2817C21.6017 36.1569 20.96 37.4861 19.13 39.741C18.0604 41.0702 17.8941 41.3075 17.6326 41.8535C17.2999 42.5181 17.2048 42.8978 17.1573 43.7523C17.1098 44.6543 17.2048 45.2239 17.4663 46.0784C17.7039 46.838 17.9654 47.3364 18.6071 48.3096C19.1537 49.1641 19.4865 49.805 19.4865 50.0423C19.4865 50.2322 19.534 50.2322 20.3896 50.0423C22.4336 49.5676 24.121 48.7606 25.048 47.7637C25.6184 47.1465 25.761 46.8142 25.761 45.9598C25.761 45.4138 25.7372 45.2952 25.5946 44.9628C25.3569 44.4407 24.9054 44.0134 23.9309 43.3488C22.6475 42.4706 22.1008 41.7585 21.9582 40.8091C21.8394 40.0021 21.982 39.4561 22.695 37.9608C23.4318 36.418 23.6219 35.7771 23.7408 34.2105C23.8121 33.2136 23.9309 32.8101 24.2161 32.5015C24.5251 32.1692 24.7865 32.0506 25.5233 31.9556C26.7354 31.7895 27.5197 31.4809 28.1377 30.8875C28.6843 30.3891 28.922 29.8906 28.9458 29.1548L28.9695 28.6089L28.6606 28.2766C27.5435 26.9948 12.0711 10 11.9998 10C11.9761 10 12.3563 10.451 12.8079 11.0206ZM20.1044 44.773C20.3658 44.322 20.2232 43.7523 19.7954 43.4675C19.3914 43.2064 18.7735 43.3251 18.7735 43.6811C18.7735 43.7761 18.821 43.871 18.9636 43.9185C19.1775 44.0371 19.2013 44.1558 19.0349 44.4169C18.8685 44.678 18.8685 44.9154 19.0824 45.0815C19.4152 45.3426 19.8667 45.2002 20.1044 44.773Z" fill="white"/>
<path fill-rule="evenodd" clip-rule="evenodd" d="M29.7303 32.2885C29.1599 32.4546 28.6133 33.0718 28.4469 33.6889C28.3518 34.0687 28.3994 34.757 28.5657 34.9706C28.8272 35.3029 29.0648 35.3979 29.7303 35.3979C31.0375 35.3979 32.1546 34.8282 32.2734 34.1399C32.3922 33.5702 31.8931 32.7869 31.2039 32.4309C30.8474 32.241 30.1106 32.1698 29.7303 32.2885ZM31.2514 33.4753C31.4415 33.1905 31.3702 32.8819 31.0137 32.6683C30.372 32.2648 29.3976 32.5971 29.3976 33.2142C29.3976 33.5228 29.8967 33.8551 30.372 33.8551C30.681 33.8551 31.1088 33.6652 31.2514 33.4753Z" fill="white"/>
</g>
<defs>
<clipPath id="clip0">
<rect width="40" height="46" fill="white" transform="translate(12 10)"/>
</clipPath>
</defs>
</svg>
