<svg width="30" height="30" viewBox="0 0 30 30" fill="none" xmlns="http://www.w3.org/2000/svg">
<circle cx="15" cy="15" r="14" fill="#FF2972"/>
<g clip-path="url(#clip0)">
<path d="M12.4003 9.42752C12.1947 9.3982 12.1849 9.38843 12.2828 9.37865C12.4688 9.34933 12.8994 9.38843 13.2027 9.45684C13.9074 9.62299 14.5435 10.053 15.2187 10.8056L15.3949 11.0108L15.6493 10.9717C16.7356 10.7958 17.8513 10.9327 18.781 11.3627C19.0355 11.48 19.4367 11.7145 19.4856 11.7732C19.5052 11.7927 19.5346 11.9198 19.5541 12.0468C19.6226 12.5062 19.5933 12.8483 19.4465 13.1122C19.3682 13.2588 19.3682 13.2979 19.4171 13.4249C19.4563 13.5226 19.5737 13.5911 19.6814 13.5911C19.9162 13.5911 20.1609 13.2197 20.2783 12.7017L20.3273 12.4964L20.4153 12.5942C20.9145 13.1513 21.3059 13.9234 21.3646 14.4707L21.3842 14.6173L21.2961 14.4902C21.1493 14.2654 21.0123 14.1188 20.8264 13.9918C20.4936 13.767 20.1413 13.6986 19.2116 13.6497C18.37 13.6008 17.8904 13.5324 17.4207 13.376C16.6182 13.1122 16.2072 12.7701 15.2579 11.5093C14.8371 10.9522 14.5728 10.6492 14.3086 10.3951C13.7312 9.83801 13.1538 9.54481 12.4003 9.42752Z" fill="white"/>
<path d="M19.6911 10.6691C19.7107 10.2977 19.7596 10.0534 19.8673 9.82857C19.9064 9.7406 19.9456 9.66241 19.9554 9.66241C19.9651 9.66241 19.9456 9.73083 19.9162 9.80902C19.8379 10.024 19.8281 10.327 19.8771 10.6691C19.9456 11.1089 19.9749 11.1675 20.4447 11.6464C20.66 11.8712 20.9144 12.1547 21.0123 12.272L21.1787 12.487L21.0123 12.3306C20.8068 12.1351 20.337 11.7637 20.2294 11.7149C20.1609 11.6758 20.1511 11.6758 20.1022 11.7246C20.063 11.7637 20.0532 11.8224 20.0532 12.1058C20.0434 12.5456 19.9847 12.8193 19.8379 13.1027C19.7596 13.2493 19.7498 13.22 19.8184 13.0538C19.8673 12.9268 19.8771 12.8681 19.8771 12.4479C19.8771 11.5976 19.7792 11.3923 19.1822 11.0503C19.0354 10.9623 18.781 10.8352 18.6342 10.7668C18.4776 10.6984 18.3602 10.6398 18.37 10.6398C18.3895 10.6202 18.9669 10.7864 19.192 10.8841C19.5345 11.0209 19.5933 11.0307 19.6324 11.0209C19.6618 10.9916 19.6813 10.9134 19.6911 10.6691Z" fill="white"/>
<path d="M12.8014 12.1252C12.3904 11.5583 12.1262 10.6787 12.1849 10.0239L12.2045 9.81863L12.3023 9.83818C12.4785 9.8675 12.7819 9.98478 12.9287 10.0727C13.3201 10.3073 13.4963 10.6298 13.6627 11.4313C13.7116 11.6658 13.7801 11.9395 13.8095 12.0275C13.8584 12.1741 14.0443 12.5161 14.2009 12.7312C14.3086 12.8875 14.2401 12.9657 13.9954 12.9462C13.6235 12.9071 13.1244 12.565 12.8014 12.1252Z" fill="white"/>
<path d="M19.192 16.3769C17.2543 15.595 16.5692 14.9207 16.5692 13.7772C16.5692 13.611 16.579 13.4742 16.579 13.4742C16.5888 13.4742 16.6573 13.5328 16.7454 13.6012C17.1368 13.914 17.5772 14.0508 18.8005 14.2267C19.5149 14.3343 19.926 14.4124 20.2978 14.5395C21.482 14.9304 22.216 15.7319 22.3921 16.8167C22.4411 17.1295 22.4117 17.7257 22.3334 18.0384C22.2649 18.2828 22.0692 18.7324 22.0203 18.7421C22.0105 18.7421 21.9909 18.6933 21.9909 18.6151C21.9713 18.2046 21.7658 17.8136 21.4233 17.5107C21.0123 17.1588 20.4838 16.8949 19.192 16.3769Z" fill="white"/>
<path d="M17.8219 16.6993C17.8023 16.5527 17.7534 16.367 17.724 16.2888L17.6751 16.1422L17.7632 16.2497C17.8904 16.3963 17.9883 16.5722 18.0763 16.8166C18.1448 17.0023 18.1448 17.0609 18.1448 17.3639C18.1448 17.6571 18.1351 17.7255 18.0763 17.8916C17.9785 18.1555 17.861 18.3412 17.6653 18.5465C17.313 18.9081 16.853 19.1036 16.1973 19.1915C16.0799 19.2013 15.7472 19.2306 15.4536 19.2502C14.7196 19.2893 14.2303 19.3675 13.7899 19.5238C13.7311 19.5434 13.6724 19.5629 13.6626 19.5532C13.6431 19.5336 13.9465 19.3577 14.1911 19.2404C14.5336 19.0742 14.886 18.9863 15.6591 18.8495C16.0408 18.7908 16.4322 18.7126 16.5301 18.6735C17.4989 18.3706 17.9785 17.618 17.8219 16.6993Z" fill="white"/>
<path d="M18.7126 18.2729C18.4581 17.7158 18.3994 17.188 18.5364 16.6895C18.556 16.6407 18.5756 16.5918 18.5951 16.5918C18.6147 16.5918 18.6734 16.6211 18.7321 16.6602C18.8496 16.7384 19.0942 16.8752 19.7206 17.2173C20.5133 17.6473 20.9634 17.9796 21.2766 18.3608C21.5506 18.6931 21.717 19.0743 21.7953 19.5434C21.8442 19.8073 21.8149 20.4426 21.7464 20.7065C21.5311 21.5372 21.0417 22.2018 20.3273 22.583C20.2197 22.6416 20.1316 22.6807 20.1218 22.6807C20.112 22.6807 20.1512 22.583 20.2099 22.4657C20.4448 21.9673 20.4741 21.4884 20.298 20.9508C20.1903 20.6185 19.9652 20.2178 19.5151 19.5434C18.9768 18.7615 18.8496 18.5563 18.7126 18.2729Z" fill="white"/>
<path d="M11.4216 21.2634C12.1458 20.6574 13.0363 20.2274 13.8584 20.0905C14.2107 20.0319 14.7979 20.0514 15.1209 20.1394C15.6395 20.2762 16.1093 20.5694 16.3539 20.9311C16.5888 21.2829 16.6965 21.5859 16.8041 22.2603C16.8433 22.5241 16.8922 22.7978 16.902 22.8564C16.9803 23.2083 17.1369 23.482 17.3326 23.6286C17.636 23.8534 18.1644 23.8631 18.6831 23.6677C18.7712 23.6383 18.8495 23.609 18.8495 23.6188C18.8691 23.6383 18.6048 23.8143 18.4287 23.9022C18.184 24.0293 17.9883 24.0684 17.7241 24.0684C17.2543 24.0684 16.8531 23.824 16.5301 23.3354C16.4616 23.2376 16.3246 22.9542 16.2072 22.6903C15.8646 21.8986 15.6885 21.6641 15.2872 21.4002C14.9349 21.1754 14.4847 21.1265 14.1422 21.2927C13.692 21.5077 13.5746 22.0843 13.8878 22.4362C14.015 22.5828 14.2499 22.7001 14.4456 22.7294C14.8077 22.7783 15.1209 22.4948 15.1209 22.1332C15.1209 21.8986 15.0328 21.7618 14.7979 21.6543C14.4847 21.5175 14.1422 21.6738 14.152 21.9768C14.152 22.1039 14.2107 22.1821 14.3379 22.2407C14.4162 22.2798 14.4162 22.2798 14.3575 22.27C14.0737 22.2114 14.0052 21.8595 14.2303 21.6348C14.5043 21.3611 15.0817 21.4784 15.2774 21.8595C15.3557 22.0159 15.3655 22.3287 15.297 22.5241C15.1306 22.9542 14.6609 23.179 14.1814 23.0519C13.8584 22.964 13.7214 22.876 13.3299 22.4753C12.6449 21.7716 12.3807 21.6348 11.402 21.4881L11.2161 21.4588L11.4216 21.2634Z" fill="white"/>
<path fill-rule="evenodd" clip-rule="evenodd" d="M6.27312 5.53791C8.55336 8.30383 12.0667 12.6042 12.2428 12.8388C12.3896 13.0342 12.3309 13.2199 12.0863 13.3568C11.9493 13.435 11.6654 13.5131 11.5284 13.5131C11.3719 13.5131 11.1859 13.435 11.0587 13.3079C10.9706 13.2199 10.5889 12.6628 9.72773 11.3239C9.07204 10.2976 8.51421 9.44734 8.50443 9.43756C8.46528 9.41802 8.46528 9.41802 9.65923 11.5487C10.4128 12.8876 10.6574 13.3665 10.6574 13.4252C10.6574 13.5522 10.6183 13.6207 10.4617 13.7966C10.1975 14.0898 10.08 14.4221 9.99196 15.116C9.8941 15.8881 9.62987 16.4354 8.87631 17.3639C8.43592 17.9112 8.36742 18.009 8.25976 18.2338C8.12275 18.5074 8.08361 18.6638 8.06404 19.0157C8.04446 19.3871 8.08361 19.6216 8.19126 19.9735C8.28912 20.2862 8.39677 20.4915 8.66101 20.8922C8.8861 21.244 9.02311 21.5079 9.02311 21.6057C9.02311 21.6838 9.04268 21.6838 9.39499 21.6057C10.2366 21.4102 10.9315 21.0779 11.3131 20.6674C11.548 20.4133 11.6067 20.2765 11.6067 19.9246C11.6067 19.6998 11.5969 19.6509 11.5382 19.5141C11.4404 19.2991 11.2544 19.1232 10.8532 18.8495C10.3247 18.4879 10.0996 18.1947 10.0409 17.8037C9.99196 17.4714 10.0507 17.2466 10.3443 16.6309C10.6477 15.9956 10.7259 15.7317 10.7749 15.0867C10.8042 14.6762 10.8532 14.51 10.9706 14.383C11.0978 14.2462 11.2055 14.1973 11.5089 14.1582C12.008 14.0898 12.3309 13.9627 12.5854 13.7184C12.8105 13.5131 12.9083 13.3079 12.9181 13.0049L12.9279 12.7801L12.8007 12.6433C12.3407 12.1155 5.96974 5.11765 5.94038 5.11765C5.93059 5.11765 6.08717 5.30334 6.27312 5.53791ZM9.27755 19.4359C9.38521 19.2502 9.32649 19.0157 9.15033 18.8984C8.98396 18.7909 8.72951 18.8397 8.72951 18.9863C8.72951 19.0254 8.74909 19.0645 8.80781 19.0841C8.89588 19.1329 8.90567 19.1818 8.83716 19.2893C8.76866 19.3968 8.76866 19.4946 8.85674 19.563C8.99375 19.6705 9.17969 19.6118 9.27755 19.4359Z" fill="white"/>
<path fill-rule="evenodd" clip-rule="evenodd" d="M13.2419 14.295C13.007 14.3634 12.7819 14.6175 12.7134 14.8716C12.6743 15.028 12.6939 15.3115 12.7624 15.3994C12.87 15.5363 12.9679 15.5753 13.2419 15.5753C13.7802 15.5753 14.2401 15.3408 14.289 15.0573C14.338 14.8228 14.1325 14.5003 13.8487 14.3537C13.7019 14.2755 13.3985 14.2461 13.2419 14.295ZM13.8682 14.7837C13.9465 14.6664 13.9172 14.5393 13.7704 14.4514C13.5061 14.2852 13.1049 14.4221 13.1049 14.6762C13.1049 14.8032 13.3104 14.9401 13.5061 14.9401C13.6334 14.9401 13.8095 14.8619 13.8682 14.7837Z" fill="white"/>
</g>
<path d="M29.5 15C29.5 6.99306 23.0069 0.5 15 0.5C6.99306 0.5 0.5 6.99306 0.5 15C0.5 23.0069 6.99306 29.5 15 29.5C23.0069 29.5 29.5 23.0069 29.5 15Z" stroke="#0F0A45"/>
<defs>
<clipPath id="clip0">
<rect width="16.4706" height="18.9412" fill="white" transform="translate(5.94116 5.11765)"/>
</clipPath>
</defs>
</svg>
