<svg width="30" height="30" viewBox="0 0 30 30" fill="none" xmlns="http://www.w3.org/2000/svg">
<path fill-rule="evenodd" clip-rule="evenodd" d="M15 1C22.7308 1 29 7.2692 29 15C29 22.7308 22.7308 29 15 29C7.2692 29 1 22.7308 1 15C1 7.2692 7.2692 1 15 1Z" fill="#006AE3"/>
<path d="M14.4232 20.9024V9.25439H15.6916V20.9024H14.4232Z" fill="white"/>
<path d="M20.88 13.1352L16.9628 14.174L16.0892 10.1084L17.254 9.84519L17.7132 11.7716C17.7132 11.7716 18.7716 10.0356 17.3604 8.23799C16.5288 7.31399 16.134 7.27479 15.2016 7.12919C14.3812 7.01159 12.4744 7.28879 11.906 9.51479C11.6652 10.9484 11.9368 12.0096 13.7848 13.3984L13.6812 14.944C13.6812 14.944 11.6176 13.4908 11.0856 12.4716C10.674 11.6652 9.96843 10.072 11.2424 7.85439C11.9284 6.74559 13.2808 5.68159 15.6636 5.79359C16.862 5.84399 19.788 7.30839 19.3344 10.73C19.256 11.3712 18.9228 12.2252 18.9228 12.2252L20.53 11.8668L20.88 13.1352Z" fill="white"/>
<path d="M18.6428 22.2492C17.926 23.3384 16.5456 24.366 14.1684 24.1924C12.97 24.1112 10.086 22.5684 10.6292 19.1608C10.7244 18.5224 11.08 17.6796 11.08 17.6796L9.46441 17.9932L9.14801 16.7192L13.0932 15.784L13.8604 19.872L12.6872 20.1044L12.2784 18.164C12.2784 18.164 11.1752 19.8692 12.536 21.706C13.3424 22.6524 13.7344 22.7 14.6668 22.8708C15.4816 23.0108 17.3968 22.7812 18.024 20.572C18.3012 19.1468 18.0576 18.0772 16.2488 16.638L16.3944 15.0952C16.3944 15.0952 18.4188 16.6016 18.9228 17.6348C19.3092 18.4552 19.9728 20.068 18.6428 22.2492Z" fill="white"/>
<path d="M29.5 15C29.5 6.99306 23.0069 0.5 15 0.5C6.99306 0.5 0.5 6.99306 0.5 15C0.5 23.0069 6.99306 29.5 15 29.5C23.0069 29.5 29.5 23.0069 29.5 15Z" stroke="#0F0A45"/>
</svg>
