<svg width="92" height="92" viewBox="0 0 92 92" fill="none" xmlns="http://www.w3.org/2000/svg">
<g clip-path="url(#clip0)">
<path fill-rule="evenodd" clip-rule="evenodd" d="M46 0C71.4012 0 92 20.5988 92 46C92 71.4012 71.4012 92 46 92C20.5988 92 0 71.4012 0 46C0 20.5988 20.5988 0 46 0Z" fill="#006AE3"/>
<path d="M44.1049 65.3936V27.1216H48.2725V65.3936H44.1049Z" fill="white"/>
<path d="M65.32 39.8728L52.4492 43.286L49.5788 29.9276L53.406 29.0628L54.9148 35.3924C54.9148 35.3924 58.3924 29.6884 53.7556 23.782C51.0232 20.746 49.726 20.6172 46.6624 20.1388C43.9668 19.7524 37.7016 20.6632 35.834 27.9772C35.0428 32.6876 35.9352 36.1744 42.0072 40.7376L41.6668 45.816C41.6668 45.816 34.8864 41.0412 33.1384 37.6924C31.786 35.0428 29.4676 29.808 33.6536 22.5216C35.9076 18.8784 40.3512 15.3824 48.1804 15.7504C52.118 15.916 61.732 20.7276 60.2416 31.97C59.984 34.0768 58.8892 36.8828 58.8892 36.8828L64.17 35.7052L65.32 39.8728Z" fill="white"/>
<path d="M57.9692 69.8187C55.614 73.3975 51.0784 76.7738 43.2676 76.2034C39.33 75.9366 29.854 70.8675 31.6388 59.6711C31.9516 57.5735 33.12 54.8043 33.12 54.8043L27.8116 55.8347L26.772 51.6487L39.7348 48.5759L42.2556 62.0079L38.4008 62.7715L37.0576 56.3959C37.0576 56.3959 33.4328 61.9987 37.904 68.0339C40.5536 71.1435 41.8416 71.2999 44.9052 71.8611C47.5824 72.3211 53.8752 71.5667 55.936 64.3079C56.8468 59.6251 56.0464 56.1107 50.1032 51.3819L50.5816 46.3127C50.5816 46.3127 57.2332 51.2623 58.8892 54.6571C60.1588 57.3527 62.3392 62.6519 57.9692 69.8187Z" fill="white"/>
</g>
<defs>
<clipPath id="clip0">
<rect width="92" height="92" fill="white"/>
</clipPath>
</defs>
</svg>
