<svg width="24" height="24" viewBox="0 0 24 24" fill="none" xmlns="http://www.w3.org/2000/svg">
<path d="M19.2 0H4.8C2.14903 0 0 2.14903 0 4.8V19.2C0 21.851 2.14903 24 4.8 24H19.2C21.851 24 24 21.851 24 19.2V4.8C24 2.14903 21.851 0 19.2 0Z" fill="url(#paint0_linear_9132_161228)"/>
<path d="M12.0461 14.2926C11.1785 15.5834 10.5612 16.5015 10.5516 16.5152C10.5191 16.5606 10.5516 16.554 10.5516 16.554L15.4081 16.5544C15.4414 16.5544 15.4735 16.5666 15.4979 16.5891L17.7142 18.6141C17.7412 18.6386 17.7564 18.6734 17.7564 18.7096C17.7564 18.7817 17.6972 18.8402 17.6244 18.8402H6.7498C6.55201 18.8402 6.37386 18.6644 6.37386 18.4689C6.37386 18.4689 6.30511 18.1456 6.47234 17.873C6.50617 17.8246 7.60067 16.2287 8.91968 14.3051L12.0461 14.2926ZM12.0425 9.75077C12.9168 8.47534 13.5438 7.5611 13.5607 7.53647C13.6174 7.45373 13.5607 7.45836 13.5607 7.45836L10.574 7.44572H8.54076C8.50556 7.44572 8.47174 7.43182 8.44691 7.40707L6.41261 5.38224C6.32966 5.30003 6.38887 5.16016 6.50617 5.16016H10.574H17.3804C17.5783 5.16016 17.7564 5.33587 17.7564 5.53127C17.7564 5.53127 17.787 5.73118 17.6666 5.91877C17.6107 6.00648 16.4519 7.73312 15.0853 9.76805L12.0425 9.75077Z" fill="white"/>
<defs>
<linearGradient id="paint0_linear_9132_161228" x1="0" y1="24" x2="26.5793" y2="3.31412" gradientUnits="userSpaceOnUse">
<stop stop-color="#2049D1"/>
<stop offset="1" stop-color="#3860E6"/>
</linearGradient>
</defs>
</svg>
