<svg viewBox="0 0 683 138" fill="none" xmlns="http://www.w3.org/2000/svg">
<g clip-path="url(#clip0)">
<path d="M169.229 90.1848C169.229 98.6513 162.558 104.684 153.003 104.684H135.966H131.011V55.4144H140.743H148.497C157.603 55.4144 164.088 60.9997 164.088 69.1025C164.088 72.795 162.735 75.7694 160.393 78.0166C165.898 79.9188 169.229 84.152 169.229 90.1848ZM140.752 64.0674V75.3219H147.694C151.837 75.3219 154.095 72.9815 154.095 69.6434C154.095 66.2213 151.846 64.0581 147.694 64.0581H140.752V64.0674ZM159.311 89.7373C159.311 85.9516 156.698 83.518 152.285 83.518H140.752V95.854H152.285C156.698 95.9473 159.311 93.6069 159.311 89.7373Z" fill="white"/>
<path d="M207.532 82.7067V104.591H198.248V100.992C195.635 103.78 191.763 105.495 186.986 105.495C178.961 105.495 174.184 100.721 174.184 94.4181C174.184 87.6673 179.596 83.7044 188.152 83.7044H197.436V82.082C197.436 78.0259 195.094 75.6016 190.587 75.6016C186.622 75.6016 183.832 77.4944 180.855 80.6461L175.63 74.4267C179.96 69.289 185.278 66.8647 191.763 66.8647C201.131 66.8554 207.532 72.1702 207.532 82.7067ZM197.529 90.8189V90.3713H189.598C186.351 90.3713 184.457 91.6301 184.457 94.0638C184.457 96.5813 186.622 98.1198 189.776 98.1198C194.012 98.1105 197.529 95.1361 197.529 90.8189Z" fill="white"/>
<path d="M255.752 86.222C255.752 97.2993 248.269 105.495 237.819 105.495C232.771 105.495 228.535 103.509 225.922 100.003V104.6H216.638V48.6636H226.734V71.2751C229.253 68.4871 233.135 66.8647 237.819 66.8647C248.269 66.8554 255.752 75.0515 255.752 86.222ZM245.572 86.1288C245.572 79.8255 241.243 75.9466 236.018 75.9466C231.334 75.9466 226.734 79.1915 226.734 86.1288C226.734 93.2432 231.418 96.3109 236.018 96.3109C241.243 96.3109 245.572 92.3481 245.572 86.1288Z" fill="white"/>
<path d="M297.665 67.6666L280.002 107.743C276.671 115.305 272.248 118.82 265.316 118.82C263.244 118.82 260.809 118.456 258.831 117.915V109.449C260.548 109.626 261.985 109.719 263.16 109.719C266.407 109.719 269.02 108.908 270.821 104.768L271.903 102.334L257.749 67.564H268.385L277.399 91.7886L287.047 67.564L297.665 67.6666Z" fill="white"/>
<path d="M311.726 104.591H301.63V48.6636H311.726V104.591Z" fill="white"/>
<path d="M358.23 86.1288C358.23 97.1128 349.31 105.402 338.309 105.402C327.308 105.402 318.575 97.0289 318.575 86.1288C318.575 75.2286 327.317 66.8554 338.309 66.8554C349.216 66.8554 358.23 75.2286 358.23 86.1288ZM328.848 86.222C328.848 92.0777 332.813 96.2177 338.402 96.2177C343.814 96.2177 347.957 91.9844 347.957 86.222C347.957 80.3663 343.814 76.0398 338.402 76.0398C332.72 76.0398 328.848 80.3663 328.848 86.222Z" fill="white"/>
<path d="M398.874 81.7184V104.591H388.872V83.0704C388.872 78.8371 386.082 75.9559 382.023 75.9559C377.964 75.9559 374.997 78.8371 374.997 83.0704V104.6H364.901V67.6759H374.185V71.0979C376.705 68.5804 380.493 66.9579 384.999 66.9579C393.649 66.8554 398.874 72.8882 398.874 81.7184Z" fill="white"/>
<path d="M422.49 98.5581C422.49 102.521 419.607 105.495 415.641 105.495C411.582 105.495 408.615 102.521 408.615 98.5581C408.615 94.6885 411.592 91.6208 415.641 91.6208C419.513 91.6208 422.49 94.6885 422.49 98.5581Z" fill="#937DFF"/>
<path d="M445.835 47.7592C448.177 47.7592 449.978 48.1228 451.331 48.5704V57.0369C450.249 56.8597 449.344 56.8597 448.355 56.8597C443.848 56.8597 441.599 58.3889 441.599 62.6221V67.7598H449.707V76.2263H441.599V104.6H431.503V76.2263H426.278V67.7598H431.503V61.727C431.503 52.1789 437.176 47.7592 445.835 47.7592ZM455.026 54.2489C455.026 50.6497 457.909 47.9457 461.511 47.9457C465.028 47.9457 467.911 50.6497 467.911 54.2489C467.911 57.7642 465.028 60.4682 461.511 60.4682C458.002 60.4589 455.026 57.7642 455.026 54.2489ZM456.472 67.6666H466.568V104.591H456.472V67.6666Z" fill="#937DFF"/>
<path d="M511.271 81.7184V104.591H501.268V83.0704C501.268 78.8371 498.478 75.9559 494.42 75.9559C490.361 75.9559 487.394 78.8371 487.394 83.0704V104.6H477.298V67.6759H486.582V71.0979C489.101 68.5804 492.889 66.9579 497.396 66.9579C506.036 66.8554 511.271 72.8882 511.271 81.7184Z" fill="#937DFF"/>
<path d="M550.739 82.7067V104.591H541.455V100.992C538.843 103.78 534.97 105.495 530.193 105.495C522.169 105.495 517.392 100.721 517.392 94.4181C517.392 87.6673 522.803 83.7044 531.359 83.7044H540.643V82.082C540.643 78.0259 538.302 75.6016 533.795 75.6016C529.829 75.6016 527.039 77.4944 524.063 80.6461L518.838 74.4267C523.167 69.289 528.486 66.8647 534.97 66.8647C544.348 66.8554 550.739 72.1702 550.739 82.7067ZM540.737 90.8189V90.3713H532.806C529.559 90.3713 527.665 91.6301 527.665 94.0638C527.665 96.5813 529.829 98.1198 532.983 98.1198C537.219 98.1105 540.737 95.1361 540.737 90.8189Z" fill="#937DFF"/>
<path d="M592.559 81.7184V104.591H582.556V83.0704C582.556 78.8371 579.766 75.9559 575.708 75.9559C571.649 75.9559 568.682 78.8371 568.682 83.0704V104.6H558.586V67.6759H567.87V71.0979C570.389 68.5804 574.177 66.9579 578.684 66.9579C587.334 66.8554 592.559 72.8882 592.559 81.7184Z" fill="#937DFF"/>
<path d="M633.212 75.9559L626.186 81.364C624.115 78.2124 621.409 75.9559 617.266 75.9559C611.5 75.9559 607.534 80.2824 607.534 86.0448C607.534 91.9005 611.5 96.227 617.266 96.227C621.325 96.227 624.021 93.9798 626.186 90.9121L633.212 96.3203C630.152 101.812 624.469 105.505 617.173 105.505C606.088 105.505 597.438 97.0382 597.438 86.1381C597.438 75.2379 606.181 66.8647 617.173 66.8647C624.553 66.8554 630.142 70.4639 633.212 75.9559Z" fill="#937DFF"/>
<path d="M671.878 89.5508H645.92C647.18 94.2316 651.062 96.8424 656.371 96.8424C660.43 96.8424 663.667 95.3971 666.644 93.15L670.787 99.994C666.644 103.509 661.68 105.486 656.007 105.486C644.288 105.486 635.815 97.0196 635.815 86.2127C635.815 75.4058 644.288 66.9393 655.102 66.9393C665.468 66.9393 672.494 74.5013 672.494 84.0494C672.597 86.1288 672.149 88.292 671.878 89.5508ZM645.92 82.4363H662.772C662.678 77.7555 659.077 74.9582 654.747 74.9582C650.511 75.0515 647.087 77.8488 645.92 82.4363Z" fill="#937DFF"/>
<path d="M78.1531 60.4309L78.0132 108.992L78.0878 133.301L100.659 119.762L100.612 46.892L78.1531 60.4309Z" fill="#937DFF"/>
<path d="M100.612 46.892L78.032 33.3624L55.5732 46.892L78.1533 60.4309L100.612 46.892Z" fill="#FFBE44"/>
<path d="M33.0586 31.7586L33.1146 60.4496L55.676 46.9107L55.6386 18.2197L33.0586 31.7586Z" fill="#937DFF"/>
<path d="M55.5267 18.2291L32.9466 4.69946L10.4785 18.2291L33.0679 31.768L55.5267 18.2291Z" fill="#FFBE44"/>
<path d="M55.6478 46.92L33.0864 60.4589L55.6385 73.9792L55.6478 46.92Z" fill="#FFBE44"/>
<path d="M55.5452 94.8097C55.5452 86.6976 51.2811 79.1915 44.3205 75.0235C39.3379 72.0397 33.0024 75.6296 33.0024 81.5878V114.671L55.5545 128.032L55.5452 94.8097Z" fill="#937DFF"/>
<path d="M55.5545 100.945L33.0024 114.671L55.5638 128.321L55.5545 100.945Z" fill="#FFBE44"/>
<path d="M3773.36 8214.43L11243.3 3735.46L3773.36 -743.512L-3696.62 3735.46L3773.36 8214.43Z" stroke="white" stroke-width="0.5" stroke-miterlimit="10"/>
<path d="M-3637.34 3771.01L3832.64 -707.959" stroke="white" stroke-width="0.5" stroke-miterlimit="10"/>
<path d="M-3578.05 3806.56L3891.92 -672.414" stroke="white" stroke-width="0.5" stroke-miterlimit="10"/>
<path d="M-3518.77 3842.11L3951.21 -636.87" stroke="white" stroke-width="0.5" stroke-miterlimit="10"/>
<path d="M-3459.48 3877.65L4010.5 -601.316" stroke="white" stroke-width="0.5" stroke-miterlimit="10"/>
<path d="M-3400.19 3913.2L4069.78 -565.772" stroke="white" stroke-width="0.5" stroke-miterlimit="10"/>
<path d="M-3340.91 3948.75L4129.07 -530.228" stroke="white" stroke-width="0.5" stroke-miterlimit="10"/>
<path d="M-3281.62 3984.29L4188.36 -494.674" stroke="white" stroke-width="0.5" stroke-miterlimit="10"/>
<path d="M-3222.33 4019.84L4247.64 -459.13" stroke="white" stroke-width="0.5" stroke-miterlimit="10"/>
<path d="M-3163.06 4055.39L4306.93 -423.585" stroke="white" stroke-width="0.5" stroke-miterlimit="10"/>
<path d="M-3103.77 4090.94L4366.21 -388.032" stroke="white" stroke-width="0.5" stroke-miterlimit="10"/>
<path d="M-3044.48 4126.48L4425.5 -352.487" stroke="white" stroke-width="0.5" stroke-miterlimit="10"/>
<path d="M-2985.2 4162.03L4484.78 -316.943" stroke="white" stroke-width="0.5" stroke-miterlimit="10"/>
<path d="M-2925.91 4197.58L4544.07 -281.389" stroke="white" stroke-width="0.5" stroke-miterlimit="10"/>
<path d="M-2866.62 4233.12L4603.35 -245.845" stroke="white" stroke-width="0.5" stroke-miterlimit="10"/>
<path d="M-2807.34 4268.68L4662.64 -210.301" stroke="white" stroke-width="0.5" stroke-miterlimit="10"/>
<path d="M-2748.05 4304.22L4721.93 -174.747" stroke="white" stroke-width="0.5" stroke-miterlimit="10"/>
<path d="M-2688.77 4339.76L4781.22 -139.203" stroke="white" stroke-width="0.5" stroke-miterlimit="10"/>
<path d="M-2629.48 4375.32L4840.49 -103.659" stroke="white" stroke-width="0.5" stroke-miterlimit="10"/>
<path d="M-2570.2 4410.86L4899.78 -68.1049" stroke="white" stroke-width="0.5" stroke-miterlimit="10"/>
<path d="M-2510.91 4446.41L4959.07 -32.5605" stroke="white" stroke-width="0.5" stroke-miterlimit="10"/>
<path d="M-2451.62 4481.96L5018.35 2.98383" stroke="white" stroke-width="0.5" stroke-miterlimit="10"/>
<path d="M-2392.34 4517.5L5077.64 38.5375" stroke="white" stroke-width="0.5" stroke-miterlimit="10"/>
<path d="M-2333.05 4553.05L5136.93 74.0818" stroke="white" stroke-width="0.5" stroke-miterlimit="10"/>
<path d="M-2273.76 4588.6L5196.21 109.626" stroke="white" stroke-width="0.5" stroke-miterlimit="10"/>
<path d="M3714.01 8214.43L11184 3735.46L3714.01 -743.512L-3755.97 3735.46L3714.01 8214.43Z" stroke="white" stroke-width="0.5" stroke-miterlimit="10"/>
<path d="M-3696.68 3771.01L3773.29 -707.959" stroke="white" stroke-width="0.5" stroke-miterlimit="10"/>
<path d="M-3637.4 3806.56L3832.58 -672.414" stroke="white" stroke-width="0.5" stroke-miterlimit="10"/>
<path d="M-3578.11 3842.11L3891.87 -636.87" stroke="white" stroke-width="0.5" stroke-miterlimit="10"/>
<path d="M-3518.82 3877.65L3951.16 -601.316" stroke="white" stroke-width="0.5" stroke-miterlimit="10"/>
<path d="M-3459.53 3913.2L4010.44 -565.772" stroke="white" stroke-width="0.5" stroke-miterlimit="10"/>
<path d="M-3400.25 3948.75L4069.73 -530.228" stroke="white" stroke-width="0.5" stroke-miterlimit="10"/>
<path d="M-3340.97 3984.29L4129.02 -494.674" stroke="white" stroke-width="0.5" stroke-miterlimit="10"/>
<path d="M-3281.68 4019.84L4188.29 -459.13" stroke="white" stroke-width="0.5" stroke-miterlimit="10"/>
<path d="M-3222.4 4055.39L4247.58 -423.585" stroke="white" stroke-width="0.5" stroke-miterlimit="10"/>
<path d="M-3163.11 4090.94L4306.87 -388.032" stroke="white" stroke-width="0.5" stroke-miterlimit="10"/>
<path d="M-3103.82 4126.48L4366.15 -352.487" stroke="white" stroke-width="0.5" stroke-miterlimit="10"/>
<path d="M-3044.54 4162.03L4425.44 -316.943" stroke="white" stroke-width="0.5" stroke-miterlimit="10"/>
<path d="M-2985.25 4197.58L4484.73 -281.389" stroke="white" stroke-width="0.5" stroke-miterlimit="10"/>
<path d="M-2925.96 4233.12L4544.01 -245.845" stroke="white" stroke-width="0.5" stroke-miterlimit="10"/>
<path d="M-2866.68 4268.68L4603.3 -210.301" stroke="white" stroke-width="0.5" stroke-miterlimit="10"/>
<path d="M-2807.4 4304.22L4662.58 -174.747" stroke="white" stroke-width="0.5" stroke-miterlimit="10"/>
<path d="M-2748.11 4339.76L4721.86 -139.203" stroke="white" stroke-width="0.5" stroke-miterlimit="10"/>
<path d="M-2688.83 4375.32L4781.15 -103.659" stroke="white" stroke-width="0.5" stroke-miterlimit="10"/>
<path d="M-2629.54 4410.86L4840.44 -68.1049" stroke="white" stroke-width="0.5" stroke-miterlimit="10"/>
<path d="M-2570.25 4446.41L4899.72 -32.5605" stroke="white" stroke-width="0.5" stroke-miterlimit="10"/>
<path d="M-2510.97 4481.96L4959.01 2.98383" stroke="white" stroke-width="0.5" stroke-miterlimit="10"/>
<path d="M-2451.68 4517.5L5018.3 38.5375" stroke="white" stroke-width="0.5" stroke-miterlimit="10"/>
<path d="M-2392.39 4553.05L5077.58 74.0818" stroke="white" stroke-width="0.5" stroke-miterlimit="10"/>
<path d="M-2333.12 4588.6L5136.87 109.626" stroke="white" stroke-width="0.5" stroke-miterlimit="10"/>
</g>
<defs>
<clipPath id="clip0">
<rect width="683" height="138" fill="white"/>
</clipPath>
</defs>
</svg>
