<svg width="68" height="68" viewBox="0 0 68 68" fill="none" xmlns="http://www.w3.org/2000/svg">
<g clip-path="url(#clip0)">
<path d="M55.8101 55.29L54.8501 54.64L48.6001 57.59L48.3101 58.52L49.5001 59.88L55.8101 55.29Z" fill="#00C7BA"/>
<path d="M68 0H0V68H68V0Z" fill="#937DFF"/>
<path d="M68.05 47.69L34 27.11L-0.0500488 47.55V68.03H68.05V47.69Z" fill="#FF2475"/>
<path opacity="0.3" d="M43.88 60.13L55.28 53.4L32.39 39.52L21.01 46.24L43.88 60.13Z" fill="#160E6B"/>
<path d="M25.9401 37.35L35.0601 42.59L34.0301 43.76L24.3101 37.94L25.9401 37.35Z" fill="#080345"/>
<path d="M24.33 48.39V29.13C24.2999 28.6503 24.4035 28.1717 24.6291 27.7473C24.8546 27.3229 25.1935 26.9693 25.6078 26.7259C26.0222 26.4824 26.496 26.3586 26.9765 26.3681C27.4571 26.3777 27.9256 26.5202 28.33 26.78C29.5982 27.54 30.648 28.6155 31.3771 29.9019C32.1061 31.1882 32.4895 32.6414 32.49 34.12V53.28L34.11 54.28V27.07L22.7 20.23V47.43L24.33 48.39Z" fill="white"/>
<path d="M22.7 20.23L34.07 27.07L45.4399 20.23L34.1199 13.41L22.7 20.23Z" fill="#7AC936"/>
<path d="M25.9998 45.44V30.73C25.9678 30.2495 26.0699 29.7696 26.2947 29.3437C26.5195 28.9178 26.8581 28.5627 27.2729 28.3179C27.6877 28.0732 28.1623 27.9485 28.6437 27.9577C29.1252 27.9669 29.5947 28.1097 29.9998 28.37C30.2598 28.52 30.4898 28.7 30.7298 28.87C30.0821 28.0344 29.2854 27.3258 28.3798 26.78C27.9754 26.5203 27.507 26.3777 27.0264 26.3682C26.5459 26.3586 26.0721 26.4825 25.6577 26.7259C25.2433 26.9694 24.9045 27.3229 24.6789 27.7473C24.4534 28.1717 24.3498 28.6504 24.3798 29.13V48.39L25.9998 47.39V45.39V45.44Z" fill="#080345"/>
<path d="M34.0701 27.07V54.25L35.7001 53.25V38.7C35.7001 33.7 36.1901 28.95 39.8301 26.9C40.237 26.655 40.7025 26.5244 41.1775 26.5219C41.6524 26.5193 42.1193 26.645 42.5288 26.8856C42.9384 27.1262 43.2754 27.4728 43.5044 27.8889C43.7334 28.3051 43.8459 28.7753 43.8301 29.25V48.49L45.4301 47.49V20.23L34.0701 27.07Z" fill="#080345"/>
<path d="M40.55 26.5999C41.0739 26.8049 41.5176 27.1735 41.8149 27.6511C42.1122 28.1286 42.2473 28.6894 42.2001 29.2499V47.4899L43.82 48.4899V29.2499C43.8334 28.8424 43.7522 28.4373 43.5828 28.0665C43.4134 27.6956 43.1604 27.369 42.8436 27.1123C42.5269 26.8556 42.1549 26.6757 41.757 26.5868C41.3591 26.4979 40.946 26.5024 40.55 26.5999Z" fill="#8061DB"/>
<path d="M34.13 54.26V35C34.1 34.5203 34.2035 34.0417 34.4291 33.6173C34.6547 33.1929 34.9935 32.8393 35.4079 32.5959C35.8223 32.3524 36.2961 32.2286 36.7766 32.2381C37.2571 32.2477 37.7256 32.3902 38.13 32.65C39.3923 33.4158 40.4351 34.495 41.157 35.7829C41.8789 37.0708 42.2554 38.5236 42.25 40V59.15L43.87 60.15V32.94L32.5 26.1V53.3L34.13 54.26Z" fill="white"/>
<path d="M32.5 26.1L43.87 32.94L55.24 26.1L43.92 19.28L32.5 26.1Z" fill="#7AC936"/>
<path d="M35.7601 51.31V36.6C35.7281 36.1195 35.8301 35.6396 36.0549 35.2137C36.2797 34.7878 36.6184 34.4327 37.0331 34.1879C37.4479 33.9432 37.9225 33.8185 38.404 33.8277C38.8855 33.8369 39.355 33.9797 39.7601 34.24C40.0101 34.39 40.2501 34.57 40.4801 34.74C39.8324 33.9044 39.0356 33.1958 38.1301 32.65C37.7257 32.3903 37.2572 32.2477 36.7767 32.2382C36.2961 32.2286 35.8224 32.3525 35.408 32.5959C34.9936 32.8394 34.6548 33.1929 34.4292 33.6173C34.2036 34.0417 34.1001 34.5203 34.1301 35V54.26L35.7601 53.26V51.26V51.31Z" fill="#080345"/>
<path d="M43.8701 32.94V60.12L45.5001 59.12V44.57C45.5001 39.57 45.9901 34.82 49.6401 32.77C50.0471 32.525 50.5126 32.3944 50.9875 32.3919C51.4625 32.3893 51.9293 32.515 52.3389 32.7556C52.7484 32.9962 53.0854 33.3428 53.3145 33.7589C53.5435 34.1751 53.656 34.6453 53.6401 35.12V54.36L55.2501 53.36V26.1L43.8701 32.94Z" fill="#080345"/>
<path d="M50.3501 32.47C50.8749 32.6736 51.3195 33.0419 51.6171 33.5198C51.9146 33.9977 52.049 34.5592 52.0001 35.12V53.36L53.6301 54.36V35.12C53.6439 34.7114 53.5626 34.3052 53.3927 33.9334C53.2227 33.5615 52.9687 33.2343 52.6507 32.9773C52.3327 32.7204 51.9594 32.5409 51.5601 32.4528C51.1609 32.3648 50.7467 32.3707 50.3501 32.47Z" fill="#4420D8"/>
<path d="M14.6099 43.7599L24.3199 49.5799L34.0299 43.7599L24.3099 37.9399L14.6099 43.7599Z" fill="#7AC936"/>
<path d="M14.6199 54.2499L24.3099 60.0699L24.3199 49.5799L14.6099 43.7599L14.6199 54.2499Z" fill="white"/>
<path d="M16.5498 55.44L22.3698 58.93V55.36C22.3693 54.325 22.101 53.3078 21.5911 52.4071C21.0812 51.5064 20.347 50.753 19.4598 50.22C19.1682 50.0445 18.8351 49.9496 18.4947 49.9452C18.1543 49.9408 17.8189 50.027 17.5228 50.1949C17.2267 50.3628 16.9805 50.6064 16.8096 50.9007C16.6386 51.1951 16.5489 51.5296 16.5498 51.87V55.44Z" fill="#FF2475"/>
<path opacity="0.3" d="M16.5498 55.44L22.3698 58.93V55.36C22.3693 54.325 22.101 53.3078 21.5911 52.4071C21.0812 51.5064 20.347 50.753 19.4598 50.22C19.1682 50.0445 18.8351 49.9496 18.4947 49.9452C18.1543 49.9408 17.8189 50.027 17.5228 50.1949C17.2267 50.3628 16.9805 50.6064 16.8096 50.9007C16.6386 51.1951 16.5489 51.5296 16.5498 51.87V55.44Z" fill="#160E6B"/>
<path d="M16.5498 55.4399L21.5498 52.4399C21.0406 51.5383 20.3068 50.7839 19.4198 50.2499C19.1281 50.0744 18.795 49.9796 18.4547 49.9751C18.1143 49.9707 17.7789 50.0569 17.4827 50.2248C17.1866 50.3927 16.9405 50.6363 16.7695 50.9306C16.5985 51.225 16.5089 51.5595 16.5098 51.8999L16.5498 55.4399Z" fill="#080345"/>
<path d="M34.0098 54.2399L24.3098 60.0699L24.3198 49.5799L34.0298 43.7599L34.0098 54.2399Z" fill="#080345"/>
<path d="M52.4799 15.96L44.5999 20.72V29.26L52.4799 24.5V15.96Z" fill="#080345"/>
<path d="M52.4799 15.96L44.5999 20.72V11.25L52.4799 15.96Z" fill="#4420D8"/>
<path d="M36.73 15.96L44.6 20.72V29.26L36.73 24.5V15.96Z" fill="white"/>
<path d="M36.73 15.96L44.6 20.72V11.25L36.73 15.96Z" fill="#7AC936"/>
<path d="M39.5798 22.44V24.17L41.2898 25.17V22.26C40.7232 22.3067 40.1532 22.3667 39.5798 22.44Z" fill="#4C1ADC"/>
<path d="M41.2898 23.15L39.5798 24.15V21.05C39.581 20.951 39.6079 20.854 39.6579 20.7685C39.7079 20.683 39.7793 20.6121 39.8651 20.5626C39.9509 20.5132 40.0481 20.4869 40.1471 20.4865C40.2461 20.486 40.3436 20.5113 40.4298 20.56C40.6923 20.715 40.9097 20.9359 41.0605 21.2007C41.2113 21.4655 41.2904 21.7652 41.2898 22.07V23.15Z" fill="#080345"/>
<path d="M28.15 35.43C28.0981 36.4784 27.6451 37.4668 26.8847 38.1905C26.1243 38.9142 25.1147 39.3178 24.065 39.3178C23.0152 39.3178 22.0057 38.9142 21.2453 38.1905C20.4849 37.4668 20.0319 36.4784 19.98 35.43C19.98 33.17 21.81 24.12 24.06 24.12C26.31 24.12 28.15 33.17 28.15 35.43Z" fill="#283410"/>
<path d="M24.7299 39.51H23.3999V44.55H24.7299V39.51Z" fill="#838148"/>
<path d="M31.6 21.3899C31.6297 21.3952 31.6603 21.3906 31.6872 21.3771C31.7142 21.3635 31.736 21.3416 31.7495 21.3147C31.763 21.2877 31.7674 21.2571 31.7621 21.2274C31.7568 21.1977 31.742 21.1706 31.72 21.1499C30.86 20.4899 29.53 19.5599 29.02 19.6699C28.24 19.8399 27.87 20.9499 29.73 21.0499C30.3659 21.0777 30.9951 21.1921 31.6 21.3899Z" fill="#216849"/>
<path d="M31.8201 21.23C31.8334 21.2602 31.8347 21.2943 31.8238 21.3254C31.8128 21.3565 31.7905 21.3823 31.7613 21.3975C31.732 21.4128 31.6981 21.4164 31.6663 21.4075C31.6345 21.3987 31.6073 21.3781 31.5901 21.35C30.8823 20.5845 30.38 19.6521 30.1301 18.64C30.1301 17.87 31.4201 17.5 31.5001 19.36C31.5214 19.9949 31.6291 20.624 31.8201 21.23Z" fill="#216849"/>
<path d="M31.78 21.35C31.7614 21.3741 31.7355 21.3914 31.7061 21.3994C31.6767 21.4074 31.6456 21.4056 31.6173 21.3943C31.589 21.383 31.5652 21.3628 31.5495 21.3368C31.5337 21.3107 31.5269 21.2803 31.53 21.25C31.75 20.18 32.15 18.61 32.61 18.36C33.31 17.99 34.32 18.58 32.97 19.87C32.5071 20.3062 32.1067 20.8042 31.78 21.35Z" fill="#216849"/>
<path d="M31.72 21.41C31.6881 21.4246 31.6518 21.4259 31.619 21.4137C31.5862 21.4015 31.5595 21.3768 31.545 21.345C31.5304 21.3132 31.529 21.2768 31.5412 21.244C31.5534 21.2112 31.5781 21.1846 31.61 21.17C32.51 20.56 33.89 19.7 34.39 19.84C35.15 20.06 35.47 21.18 33.61 21.18C32.9723 21.1675 32.336 21.2449 31.72 21.41Z" fill="#216849"/>
</g>
<defs>
<clipPath id="clip0">
<path d="M0 2C0 0.895432 0.895431 0 2 0H66C67.1046 0 68 0.895431 68 2V66C68 67.1046 67.1046 68 66 68H2C0.895432 68 0 67.1046 0 66V2Z" fill="white"/>
</clipPath>
</defs>
</svg>
