<svg width="762" height="230" viewBox="0 0 762 230" fill="none" xmlns="http://www.w3.org/2000/svg">
<path d="M376.24 114.459C368.32 106.539 358.39 103.179 351.99 105.689L351.98 105.669C351.77 105.749 351.56 105.849 351.36 105.939C351.28 105.979 351.2 106.009 351.12 106.039C350.73 106.229 350.37 106.459 350.01 106.699C349.92 106.759 349.82 106.829 349.73 106.899C349.37 107.159 349.03 107.449 348.71 107.759C348.53 107.939 348.39 108.139 348.23 108.319L344.53 111.979C339.54 116.969 341.09 126.909 347.82 135.629L348.29 164.109C348.3 164.809 348.85 164.879 348.91 164.189L350.54 145.829L351.82 147.429C351.94 147.689 352.06 147.949 352.19 148.209L353.37 193.869C353.39 194.609 353.98 194.599 353.99 193.859L354.81 152.679C355.68 153.909 356.86 155.299 357.84 156.229L359.55 193.959C359.58 194.689 360.17 194.659 360.17 193.919L360.47 158.049C361.54 158.719 362.26 159.029 363.4 159.319L364.98 195.559C365.01 196.289 365.6 196.259 365.6 195.519L365.91 159.629C366.95 159.619 367.96 159.449 368.95 159.129L369.66 192.639C369.68 193.389 370.27 193.379 370.28 192.639L370.87 158.309C371.6 157.919 372.32 157.439 373.01 156.889L374.81 190.129C374.85 190.859 375.43 190.809 375.43 190.069V154.539C376.36 153.469 377.23 152.229 378.05 150.869L379.14 178.979C379.17 179.719 379.76 179.689 379.76 178.949L380.1 146.889L380.15 146.759C380.6 145.719 381.01 144.609 381.4 143.479L382.27 142.619L383.24 160.999C383.28 161.729 383.86 161.679 383.86 160.939V140.849C388.29 134.749 385.12 123.339 376.24 114.459Z" fill="url(#paint0_linear_8699_113815)"/>
<g opacity="0.95">
<path opacity="0.95" d="M378.738 146.13C378.198 146.63 377.618 147.11 377.018 147.54C370.778 151.34 359.818 148.08 351.228 139.51C341.708 130.07 338.788 117.74 344.538 112L349.308 107.27L351.118 109.13C357.318 108.58 365.398 112.02 372.058 118.69C379.018 125.65 382.468 134.18 381.508 140.47L382.918 141.98L378.738 146.13Z" fill="#CC8825"/>
<path opacity="0.95" d="M382.927 141.969C388.677 136.219 385.687 123.899 376.237 114.459C366.787 105.019 354.467 102.019 348.717 107.769C342.967 113.519 345.957 125.839 355.407 135.279C364.857 144.729 377.177 147.719 382.927 141.969Z" fill="#FFBE44"/>
<path opacity="0.95" d="M379.988 138.539C384.198 134.329 381.488 124.809 373.938 117.259C366.388 109.709 356.858 106.999 352.648 111.209C348.438 115.419 351.148 124.939 358.698 132.489C366.248 140.039 375.778 142.749 379.988 138.539Z" stroke="#EFD770" stroke-width="1.3527" stroke-miterlimit="10"/>
<path opacity="0.32" d="M381.306 143.25C375.076 147.16 364.036 143.93 355.396 135.29C345.896 125.85 342.956 113.54 348.716 107.78C349.646 106.86 350.756 106.14 351.976 105.68L381.306 143.25Z" fill="#F9DA58"/>
</g>
<path d="M597.171 8.63039C590.701 2.17039 582.601 -0.579605 577.381 1.47039L577.371 1.46039C577.201 1.53039 577.031 1.61039 576.861 1.68039C576.801 1.71039 576.731 1.73039 576.671 1.77039C576.351 1.93039 576.051 2.11039 575.761 2.31039C575.681 2.36039 575.611 2.42039 575.531 2.47039C575.241 2.69039 574.961 2.92039 574.701 3.17039C574.561 3.31039 574.441 3.48039 574.311 3.63039L571.291 6.62039C567.221 10.6904 568.481 18.8104 573.971 25.9204L574.351 49.1704C574.361 49.7404 574.811 49.8004 574.861 49.2304L576.191 34.2404L577.241 35.5404C577.341 35.7604 577.441 35.9704 577.541 36.1804L578.501 73.4604C578.521 74.0604 579.001 74.0604 579.011 73.4504L579.681 39.8404C580.391 40.8504 581.361 41.9804 582.161 42.7404L583.551 73.5404C583.581 74.1404 584.051 74.1104 584.061 73.5104L584.311 44.2304C585.191 44.7804 585.771 45.0304 586.701 45.2704L587.991 74.8604C588.021 75.4604 588.491 75.4304 588.501 74.8304L588.751 45.5304C589.601 45.5204 590.421 45.3804 591.231 45.1204L591.811 72.4704C591.821 73.0804 592.311 73.0804 592.321 72.4704L592.801 44.4504C593.401 44.1304 593.981 43.7404 594.551 43.2904L596.021 70.4204C596.051 71.0204 596.531 70.9704 596.531 70.3704V41.3604C597.291 40.4804 598.001 39.4804 598.671 38.3704L599.561 61.3204C599.581 61.9204 600.061 61.9004 600.071 61.3004L600.351 35.1304L600.391 35.0204C600.761 34.1704 601.091 33.2704 601.411 32.3404L602.121 31.6404L602.911 46.6504C602.941 47.2504 603.421 47.2104 603.421 46.6004V30.2004C607.011 25.2004 604.421 15.8804 597.171 8.63039Z" fill="url(#paint1_linear_8699_113815)"/>
<g opacity="0.95">
<path opacity="0.95" d="M599.21 34.4898C598.77 34.8998 598.3 35.2898 597.8 35.6398C592.7 38.7398 583.76 36.0798 576.75 29.0798C568.98 21.3698 566.59 11.3098 571.29 6.61977L575.19 2.75977L576.67 4.27977C581.73 3.82977 588.32 6.63977 593.77 12.0798C599.45 17.7598 602.27 24.7198 601.48 29.8598L602.63 31.0898L599.21 34.4898Z" fill="#CC8825"/>
<path opacity="0.95" d="M602.629 31.0897C607.329 26.3997 604.879 16.3398 597.169 8.62975C589.459 0.91975 579.399 -1.52025 574.709 3.16975C570.009 7.85975 572.459 17.9197 580.169 25.6297C587.879 33.3397 597.929 35.7797 602.629 31.0897Z" fill="#FFBE44"/>
<path opacity="0.95" d="M600.229 28.2889C603.659 24.8589 601.449 17.0789 595.289 10.9189C589.129 4.75886 581.349 2.54886 577.909 5.97886C574.479 9.40886 576.689 17.1889 582.849 23.3489C589.009 29.5089 596.789 31.7189 600.229 28.2889Z" stroke="#EFD770" stroke-width="1.1042" stroke-miterlimit="10"/>
<path opacity="0.32" d="M601.309 32.1292C596.229 35.3192 587.209 32.6792 580.159 25.6292C572.399 17.9192 569.999 7.86922 574.709 3.16922C575.469 2.41922 576.369 1.82922 577.369 1.44922L601.309 32.1292Z" fill="#F9DA58"/>
</g>
<path d="M694.61 140.669C687.43 133.489 678.42 130.439 672.62 132.709L672.61 132.689C672.42 132.759 672.23 132.849 672.05 132.939C671.98 132.969 671.9 132.999 671.84 133.029C671.49 133.209 671.16 133.409 670.83 133.629C670.74 133.689 670.66 133.749 670.58 133.809C670.26 134.049 669.94 134.299 669.66 134.589C669.5 134.749 669.37 134.929 669.23 135.099L665.88 138.419C661.35 142.939 662.76 151.959 668.86 159.869L669.28 185.699C669.29 186.339 669.79 186.399 669.84 185.769L671.32 169.119L672.48 170.569C672.59 170.809 672.7 171.049 672.81 171.279L673.88 212.689C673.9 213.359 674.43 213.359 674.45 212.679L675.19 175.339C675.98 176.459 677.05 177.709 677.94 178.559L679.49 212.769C679.52 213.439 680.05 213.399 680.05 212.729L680.32 180.199C681.29 180.809 681.94 181.089 682.98 181.349L684.41 214.219C684.44 214.889 684.97 214.849 684.98 214.189L685.26 181.639C686.2 181.629 687.12 181.469 688.02 181.179L688.67 211.569C688.68 212.249 689.22 212.239 689.24 211.569L689.77 180.439C690.44 180.079 691.09 179.649 691.71 179.149L693.34 209.289C693.38 209.949 693.9 209.899 693.9 209.239V177.009C694.74 176.039 695.54 174.919 696.28 173.689L697.27 199.189C697.3 199.859 697.83 199.829 697.84 199.159L698.15 170.079L698.19 169.959C698.6 169.019 698.97 168.009 699.32 166.979L700.11 166.199L700.99 182.869C701.02 183.529 701.55 183.489 701.55 182.819V164.599C705.55 159.069 702.67 148.719 694.61 140.669Z" fill="url(#paint2_linear_8699_113815)"/>
<g opacity="0.95">
<path opacity="0.95" d="M696.878 169.4C696.388 169.86 695.858 170.29 695.318 170.68C689.658 174.12 679.718 171.17 671.928 163.4C663.298 154.83 660.648 143.66 665.858 138.45L670.188 134.16L671.828 135.85C677.448 135.35 684.778 138.47 690.818 144.52C697.128 150.83 700.258 158.56 699.388 164.28L700.668 165.65L696.878 169.4Z" fill="#CC8825"/>
<path opacity="0.95" d="M700.679 165.62C705.899 160.41 703.179 149.23 694.609 140.67C686.039 132.11 674.869 129.39 669.649 134.6C664.429 139.81 667.149 150.99 675.719 159.55C684.289 168.12 695.459 170.84 700.679 165.62Z" fill="#FFBE44"/>
<path opacity="0.95" d="M698.01 162.509C701.83 158.699 699.37 150.049 692.52 143.209C685.67 136.369 677.03 133.909 673.21 137.719C669.39 141.529 671.85 150.179 678.7 157.019C685.55 163.869 694.19 166.319 698.01 162.509Z" stroke="#EFD770" stroke-width="1.2267" stroke-miterlimit="10"/>
<path opacity="0.32" d="M699.208 166.779C693.558 170.329 683.548 167.389 675.708 159.559C667.088 150.989 664.428 139.829 669.648 134.609C670.488 133.769 671.498 133.119 672.608 132.699L699.208 166.779Z" fill="#F9DA58"/>
</g>
<path opacity="0.85" d="M479.35 28.2797C479.75 28.2797 480.13 28.3397 480.49 28.4697C480.96 26.6597 482.6 25.3097 484.56 25.2997C485.13 25.2997 485.67 25.3997 486.16 25.5997C486.88 23.2497 489.06 21.5297 491.64 21.5197C494.59 21.4997 497.04 23.6897 497.41 26.5497C499.45 27.0797 500.97 28.9297 500.99 31.1397C501.01 33.7797 498.89 35.9297 496.25 35.9497C494.28 35.9597 480.76 35.1697 479.4 35.1797C477.5 35.1897 475.94 33.6597 475.93 31.7597C475.91 29.8397 477.45 28.2897 479.35 28.2797Z" fill="url(#paint3_linear_8699_113815)"/>
<path opacity="0.66" d="M518.336 38.7998C518.626 38.7998 518.907 38.8498 519.167 38.9398C519.507 37.6098 520.706 36.6298 522.146 36.6198C522.566 36.6198 522.956 36.6998 523.316 36.8398C523.846 35.1198 525.436 33.8598 527.326 33.8498C529.486 33.8298 531.277 35.4398 531.547 37.5298C533.047 37.9198 534.157 39.2698 534.167 40.8898C534.177 42.8198 532.626 44.3998 530.696 44.4098C529.256 44.4198 519.356 43.8398 518.356 43.8498C516.966 43.8598 515.826 42.7398 515.816 41.3498C515.816 39.9398 516.936 38.8098 518.336 38.7998Z" fill="url(#paint4_linear_8699_113815)"/>
<path opacity="0.85" d="M706.748 106.889C707.148 106.889 707.528 106.949 707.888 107.079C708.358 105.269 709.998 103.919 711.958 103.909C712.528 103.909 713.068 104.009 713.558 104.209C714.278 101.859 716.458 100.139 719.038 100.129C721.988 100.109 724.438 102.299 724.808 105.159C726.848 105.689 728.368 107.539 728.388 109.749C728.408 112.389 726.288 114.539 723.648 114.559C721.678 114.569 708.158 113.779 706.798 113.789C704.898 113.799 703.338 112.269 703.328 110.369C703.318 108.459 704.848 106.909 706.748 106.889Z" fill="url(#paint5_linear_8699_113815)"/>
<path opacity="0.66" d="M745.737 117.409C746.027 117.409 746.307 117.459 746.567 117.549C746.907 116.219 748.107 115.239 749.547 115.229C749.967 115.229 750.357 115.309 750.717 115.449C751.247 113.729 752.837 112.469 754.737 112.459C756.897 112.439 758.687 114.049 758.957 116.139C760.457 116.529 761.567 117.879 761.577 119.499C761.587 121.429 760.037 123.009 758.107 123.019C756.667 123.029 746.767 122.449 745.767 122.459C744.377 122.469 743.237 121.349 743.227 119.959C743.227 118.559 744.347 117.419 745.737 117.409Z" fill="url(#paint6_linear_8699_113815)"/>
<g opacity="0.2">
<path opacity="0.2" d="M275.799 199.478L286.019 205.368L276.769 210.848L266.369 204.908L275.799 199.478ZM275.809 181.238L267.919 185.788L258.489 191.218L234.609 204.978L258.539 218.648L268.939 224.588L276.929 229.148L284.839 224.458L294.089 218.978L317.349 205.188L293.929 191.688L283.709 185.798L275.809 181.238Z" fill="#B59FFF"/>
</g>
<g opacity="0.5">
<path opacity="0.5" d="M275.797 187.219L286.018 193.109L276.768 198.589L266.367 192.649L275.797 187.219ZM275.797 176.639L271.217 179.279L261.787 184.709L247.938 192.689L261.818 200.619L272.217 206.559L276.847 209.209L281.438 206.489L290.688 201.009L304.177 193.019L290.597 185.189L280.378 179.299L275.797 176.639Z" fill="#B59FFF"/>
</g>
<path d="M276.77 193.439L285.82 187.919L276.83 176.379L276.77 193.439Z" fill="#FF9837"/>
<path d="M266.609 187.429L276.769 193.439L276.829 176.379L266.609 187.429Z" fill="#FFBE44"/>
<g opacity="0.8">
<path opacity="0.8" d="M241.859 28.8292L253.199 21.9192L241.929 7.44922L241.859 28.8292Z" fill="#4E40DB"/>
<path opacity="0.8" d="M229.129 21.2992L241.859 28.8292L241.929 7.44922L229.129 21.2992Z" fill="#B59FFF"/>
<path opacity="0.8" d="M241.859 28.8299L253.199 21.9199L242.019 35.5699L241.859 28.8299Z" fill="#0F0A45"/>
<path opacity="0.8" d="M229.129 21.2988L241.859 28.8288L242.019 35.5688L229.129 21.2988Z" fill="#4E40DB"/>
</g>
<g opacity="0.8">
<path opacity="0.8" d="M8.59766 188.499L15.7377 184.139L8.64771 175.029L8.59766 188.499Z" fill="#4E40DB"/>
<path opacity="0.8" d="M0.578125 183.759L8.59808 188.499L8.64813 175.029L0.578125 183.759Z" fill="#B59FFF"/>
<path opacity="0.8" d="M8.59766 188.499L15.7377 184.139L8.69769 192.739L8.59766 188.499Z" fill="#0F0A45"/>
<path opacity="0.8" d="M0.578125 183.76L8.59808 188.5L8.69812 192.74L0.578125 183.76Z" fill="#4E40DB"/>
</g>
<path d="M519.807 168.59L560.397 191.91L520.727 214.94L479.317 191.63L519.807 168.59ZM519.827 158L515.257 160.6L474.757 183.64L460.637 191.67L474.797 199.64L516.207 222.95L520.787 225.53L525.327 222.89L564.997 199.86L578.767 191.87L564.967 183.94L524.377 160.62L519.827 158Z" fill="url(#paint7_linear_8699_113815)"/>
<path d="M519.809 154.09L479.309 177.13L520.719 200.44L560.389 177.41L519.809 154.09Z" fill="#FBB03B"/>
<path d="M519.818 160.66L490.809 177.17L520.479 193.86L548.899 177.37L519.818 160.66Z" fill="#EFD770"/>
<path d="M519.805 154.091L560.395 177.411L520.725 200.441L479.315 177.131L519.805 154.091ZM519.805 151.061L518.495 151.801L477.995 174.841L473.965 177.141L478.015 179.421L519.425 202.731L520.735 203.471L522.035 202.721L561.705 179.691L565.635 177.411L561.695 175.141L521.105 151.821L519.805 151.061Z" fill="#EFD770"/>
<path d="M507.926 180.149L520.246 187.179L531.186 180.689L519.096 173.719L507.926 180.149Z" fill="#38336C"/>
<path opacity="0.42" d="M513.406 179.211L519.926 182.931L525.716 179.501L519.316 175.811L513.406 179.211Z" fill="#4E40DB"/>
<path opacity="0.42" d="M515.207 179.26L519.817 181.89L523.917 179.46L519.387 176.85L515.207 179.26Z" fill="#4E40DB"/>
<path d="M517.246 179.309L519.696 180.709L521.876 179.419L519.466 178.029L517.246 179.309Z" fill="#75B239"/>
<path opacity="0.11" d="M519.607 179.769C520.204 179.769 520.687 179.608 520.687 179.409C520.687 179.21 520.204 179.049 519.607 179.049C519.011 179.049 518.527 179.21 518.527 179.409C518.527 179.608 519.011 179.769 519.607 179.769Z" fill="#38336C"/>
<path d="M519.096 173.72L507.926 180.15L514.086 165.99L519.096 173.72Z" fill="#FF9837"/>
<path d="M507.926 180.149L520.246 187.269L510.566 170.379L507.926 180.149Z" fill="#FFBE44"/>
<path d="M531.184 180.69L519.094 173.72L524.704 165.43L531.184 180.69Z" fill="#E5802E"/>
<path d="M520.246 187.269L531.186 180.689L529.186 169.799L520.246 187.269Z" fill="#FF9837"/>
<path d="M519.797 175.1H519.367V179.53H519.797V175.1Z" fill="#838148"/>
<path d="M519.797 175.59H519.367V175.74H519.797V175.59Z" fill="#99965F"/>
<path d="M519.797 176.17H519.367V176.32H519.797V176.17Z" fill="#99965F"/>
<path d="M519.797 176.74H519.367V176.89H519.797V176.74Z" fill="#99965F"/>
<path d="M519.797 177.32H519.367V177.47H519.797V177.32Z" fill="#99965F"/>
<path d="M519.797 177.889H519.367V178.039H519.797V177.889Z" fill="#99965F"/>
<path d="M519.797 178.469H519.367V178.619H519.797V178.469Z" fill="#99965F"/>
<path d="M519.797 179.039H519.367V179.189H519.797V179.039Z" fill="#99965F"/>
<path d="M520.687 175.52C521.057 174.48 521.077 172.87 519.537 170.68C519.537 170.68 517.537 173.42 518.577 175.63C518.997 176.55 520.337 176.48 520.687 175.52Z" fill="#8BCF51"/>
<path d="M519.946 175.56C519.146 174.64 518.736 173.54 518.626 172.42C518.276 173.37 518.066 174.56 518.566 175.63C518.916 176.38 519.846 176.47 520.376 175.98C520.236 175.85 520.086 175.71 519.946 175.56Z" fill="#75B239"/>
<path d="M510.566 170.379L510.807 170.279L520.256 186.779C520.256 186.779 520.246 187.159 520.246 187.239C520.226 187.319 510.566 170.379 510.566 170.379Z" fill="#FF9837"/>
<path d="M529.187 169.799H528.947L520.247 186.779L520.227 187.239L529.187 169.799Z" fill="#FFBE44"/>
<path d="M565.468 177.361V180.451L520.668 206.751V203.371L565.468 177.361Z" fill="#FBB03B"/>
<path d="M474.066 177.131V180.221L520.667 206.721V203.351L474.066 177.131Z" fill="#CC8825"/>
<path d="M416.277 39.1002L430.487 57.3502L415.487 75.9002L400.127 56.5802L416.277 39.1002ZM416.757 27.6602L410.827 34.0702L394.677 51.5402L390.367 56.2102L394.327 61.1902L409.687 80.5101L415.437 87.7502L421.247 80.5602L436.247 62.0102L439.947 57.4302L436.327 52.7902L422.117 34.5402L416.757 27.6602Z" fill="url(#paint8_linear_8699_113815)"/>
<path d="M415.777 61.7297L423.357 57.1097L415.817 47.4297L415.777 61.7297Z" fill="#FF9837"/>
<path d="M407.258 56.6997L415.778 61.7297L415.818 47.4297L407.258 56.6997Z" fill="#FFBE44"/>
<path d="M415.777 61.7294L423.357 57.1094L415.877 66.2394L415.777 61.7294Z" fill="#E5802E"/>
<path d="M407.258 56.6992L415.778 61.7292L415.878 66.2392L407.258 56.6992Z" fill="#F49A38"/>
<g opacity="0.11">
<path opacity="0.11" d="M144.05 106.8L151.52 116.38L143.71 126.03L135.65 115.89L144.05 106.8ZM145 84.3398L116.5 115.18L143.62 149.29L170.1 116.55L145 84.3398Z" fill="#B59FFF"/>
</g>
<g opacity="0.33">
<path opacity="0.33" d="M143.868 109.2L149.548 116.49L143.608 123.84L137.468 116.12L143.868 109.2ZM144.588 92.0996L122.898 115.57L143.538 141.53L163.688 116.61L144.588 92.0996Z" fill="#B59FFF"/>
</g>
<path d="M143.922 122.499L154.112 116.289L143.982 103.289L143.922 122.499Z" fill="#FF9837"/>
<path d="M132.48 115.739L143.92 122.499L143.98 103.289L132.48 115.739Z" fill="#FFBE44"/>
<path d="M143.922 122.499L154.112 116.289L144.062 128.559L143.922 122.499Z" fill="#E5802E"/>
<path d="M132.48 115.738L143.92 122.498L144.06 128.558L132.48 115.738Z" fill="#F49A38"/>
<defs>
<linearGradient id="paint0_linear_8699_113815" x1="363.728" y1="104.869" x2="363.728" y2="196.118" gradientUnits="userSpaceOnUse">
<stop stop-color="#FFBE44"/>
<stop offset="1" stop-color="#FBB03B" stop-opacity="0"/>
</linearGradient>
<linearGradient id="paint1_linear_8699_113815" x1="586.957" y1="0.804195" x2="586.957" y2="75.2917" gradientUnits="userSpaceOnUse">
<stop stop-color="#FFBE44"/>
<stop offset="1" stop-color="#FBB03B" stop-opacity="0"/>
</linearGradient>
<linearGradient id="paint2_linear_8699_113815" x1="683.266" y1="131.973" x2="683.266" y2="214.728" gradientUnits="userSpaceOnUse">
<stop stop-color="#FFBE44"/>
<stop offset="1" stop-color="#FBB03B" stop-opacity="0"/>
</linearGradient>
<linearGradient id="paint3_linear_8699_113815" x1="488.448" y1="21.5105" x2="488.448" y2="35.9346" gradientUnits="userSpaceOnUse">
<stop stop-color="#FFBE44"/>
<stop offset="1" stop-color="#F2F2F2"/>
</linearGradient>
<linearGradient id="paint4_linear_8699_113815" x1="524.992" y1="33.8439" x2="524.992" y2="44.4022" gradientUnits="userSpaceOnUse">
<stop stop-color="#FFBE44"/>
<stop offset="1" stop-color="#F2F2F2"/>
</linearGradient>
<linearGradient id="paint5_linear_8699_113815" x1="715.857" y1="100.129" x2="715.857" y2="114.553" gradientUnits="userSpaceOnUse">
<stop stop-color="#FFBE44"/>
<stop offset="1" stop-color="#F2F2F2"/>
</linearGradient>
<linearGradient id="paint6_linear_8699_113815" x1="752.402" y1="112.462" x2="752.402" y2="123.021" gradientUnits="userSpaceOnUse">
<stop stop-color="#FFBE44"/>
<stop offset="1" stop-color="#F2F2F2"/>
</linearGradient>
<linearGradient id="paint7_linear_8699_113815" x1="460.64" y1="191.767" x2="578.774" y2="191.767" gradientUnits="userSpaceOnUse">
<stop stop-color="#FFBE44"/>
<stop offset="1" stop-color="#FBB03B" stop-opacity="0"/>
</linearGradient>
<linearGradient id="paint8_linear_8699_113815" x1="390.372" y1="57.7046" x2="439.954" y2="57.7046" gradientUnits="userSpaceOnUse">
<stop stop-color="#FFBE44"/>
<stop offset="1" stop-color="#FBB03B" stop-opacity="0"/>
</linearGradient>
</defs>
</svg>
