<svg width="92" height="92" viewBox="0 0 92 92" fill="none" xmlns="http://www.w3.org/2000/svg">
<path d="M46 92C71.4051 92 92 71.4051 92 46C92 20.5949 71.4051 0 46 0C20.5949 0 0 20.5949 0 46C0 71.4051 20.5949 92 46 92Z" fill="#231D65"/>
<path d="M72.3745 34.96L47.2278 50.1602V77.28L72.3745 62.2609V34.96Z" fill="#937DFF"/>
<path d="M72.3745 34.8511L47.2278 50.2933V19.6266L72.3745 34.8511Z" fill="#B9E300"/>
<path d="M22.0791 34.8511L47.2258 50.2933V19.6266L22.0791 34.8511Z" fill="#B9E300"/>
<path d="M63.1745 23.3068L47.2278 32.8626V42.9334L63.1745 33.4915V23.3068Z" fill="#937DFF"/>
<path d="M31.2812 23.3068L47.2278 32.8626V42.9334L31.2812 33.4915V23.3068Z" fill="#231D65"/>
<path d="M63.1745 23.5458L47.2278 33.12V14.1066L63.1745 23.5458Z" fill="#B9E300"/>
<path d="M31.2806 23.5458L47.2272 33.12V14.1066L31.2806 23.5458Z" fill="#B9E300"/>
<path d="M36.7994 55.6491C36.7873 54.38 36.4739 53.1347 35.8883 52.029C35.3027 50.9233 34.4638 49.993 33.4497 49.3247C33.1003 49.1417 32.7137 49.0536 32.3245 49.0682C31.9353 49.0828 31.5556 49.1998 31.2192 49.4085C30.8828 49.6173 30.6003 49.9114 30.3967 50.2646C30.1932 50.6178 30.075 51.0192 30.0527 51.4328V62.1726L36.7994 66.24V55.6491Z" fill="#937DFF"/>
</svg>
