<svg width="242" height="82" viewBox="0 0 242 82" fill="none" xmlns="http://www.w3.org/2000/svg">
<path d="M117.474 5.44H108.786L108.594 6.56H112.306L110.642 16H111.89L113.554 6.56H117.266L117.474 5.44ZM121.985 8.176C121.089 8.176 120.353 8.496 119.777 9.024L120.657 4H119.425L117.329 16H118.561L119.393 11.216C119.617 9.984 120.561 9.296 121.697 9.296C122.737 9.296 123.409 9.888 123.409 10.912C123.409 11.136 123.377 11.312 123.329 11.568L122.545 16H123.777L124.545 11.6C124.609 11.248 124.641 11.008 124.641 10.736C124.641 9.232 123.601 8.176 121.985 8.176ZM134.056 11.424C134.056 9.504 132.616 8.192 130.696 8.192C128.376 8.192 126.472 10.112 126.472 12.432C126.472 14.56 128.088 16.176 130.344 16.176C131.544 16.176 132.648 15.712 133.48 14.928L132.856 14.096C132.168 14.672 131.432 15.04 130.456 15.04C128.888 15.04 127.848 14.096 127.752 12.576H133.864C133.96 12.304 134.056 11.92 134.056 11.424ZM130.632 9.312C131.864 9.312 132.808 10.016 132.808 11.344C132.808 11.392 132.808 11.44 132.792 11.488H127.848C128.184 10.176 129.288 9.312 130.632 9.312Z" fill="#FFBE44"/>
<path d="M27.2498 29.6H17.3298V56H22.7298V46.68H27.2498C32.8098 46.68 36.7698 43.2 36.7698 38.12C36.7698 32.96 32.8098 29.6 27.2498 29.6ZM27.2498 34.36C29.7698 34.36 31.2498 35.92 31.2498 38.12C31.2498 40.4 29.7698 41.96 27.2498 41.96H22.7298V34.36H27.2498ZM65.1598 56L57.6798 45.6C60.5198 44.2 62.3198 41.52 62.3198 38.12C62.3198 32.96 58.3598 29.6 52.7998 29.6H42.8798V56H48.2798V46.68H52.2398L59.0798 56H65.1598ZM48.2798 34.36H52.7998C55.3198 34.36 56.7998 35.92 56.7998 38.12C56.7998 40.4 55.3198 41.92 52.7998 41.92H48.2798V34.36ZM82.1598 29.12C74.3998 29.12 68.1598 35.04 68.1598 42.8C68.1598 50.56 74.3998 56.48 82.1598 56.48C89.9198 56.48 96.2398 50.56 96.2398 42.8C96.2398 35.04 89.9198 29.12 82.1598 29.12ZM82.1998 34.12C87.0398 34.12 90.6798 37.72 90.6798 42.8C90.6798 47.92 87.0398 51.48 82.1998 51.48C77.2798 51.48 73.7198 47.92 73.7198 42.8C73.7198 37.72 77.2798 34.12 82.1998 34.12ZM112.533 29.6H102.613V56H108.013V46.68H112.533C118.093 46.68 122.053 43.2 122.053 38.12C122.053 32.96 118.093 29.6 112.533 29.6ZM112.533 34.36C115.053 34.36 116.533 35.92 116.533 38.12C116.533 40.4 115.053 41.96 112.533 41.96H108.013V34.36H112.533ZM150.643 29.6H145.243V39.72H133.563V29.6H128.163V56H133.563V44.6H145.243V56H150.643V29.6ZM176.238 29.6H158.478V56H176.718V51.12H163.878V44.44H172.958V39.84H163.878V34.48H176.238V29.6ZM203.048 29.6H180.728V34.48H189.168V56H194.568V34.48H203.048V29.6ZM216.686 29.12C211.726 29.12 207.926 32.04 207.926 36.6C207.926 40.32 210.566 42.48 214.326 44.2L217.166 45.48C219.246 46.44 220.526 47.04 220.526 48.76C220.526 50.6 219.086 51.68 216.766 51.68C213.606 51.68 211.726 49.84 210.286 47.84L206.566 50.64C208.526 54.16 212.206 56.48 216.766 56.48C222.006 56.48 226.006 53.48 226.006 48.56C226.006 44.8 223.646 42.68 219.486 40.84L216.486 39.52C214.566 38.64 213.406 38 213.406 36.48C213.406 34.72 214.926 33.92 216.686 33.92C218.846 33.92 220.446 35.04 221.726 36.96L225.406 34.12C223.846 31.24 220.886 29.12 216.686 29.12Z" fill="#FFBE44"/>
<path d="M91.0493 72.028C89.0473 72.028 87.4793 73.582 87.4793 75.584C87.4793 77.586 89.0613 79.126 91.0353 79.14C93.0233 79.14 94.6193 77.572 94.6193 75.584C94.6193 73.582 93.0233 72.028 91.0493 72.028ZM91.0493 73.022C92.4493 73.022 93.5133 74.128 93.5133 75.598C93.5133 77.026 92.4493 78.146 91.0353 78.146C89.6213 78.146 88.5853 77.04 88.5853 75.598C88.5713 74.142 89.6213 73.022 91.0493 73.022ZM99.1882 69.326C99.3702 69.326 99.5662 69.34 99.7902 69.368V68.458C99.5382 68.388 99.2722 68.346 98.9362 68.346C97.6202 68.346 96.6822 69.004 96.6822 70.558V72.182H95.7022V73.148H96.6822V79H97.7602V73.148H99.4682V72.182H97.7602V70.628C97.7602 69.606 98.3482 69.326 99.1882 69.326ZM109.251 73.918C109.825 73.498 110.147 72.868 110.147 72.098C110.147 70.754 109.153 69.76 107.515 69.76H105.429H104.337V79H104.812H108.145C109.979 79 111.071 77.866 111.071 76.34C111.071 75.164 110.413 74.254 109.251 73.918ZM107.403 70.74C108.481 70.74 109.027 71.314 109.027 72.168C109.027 73.022 108.481 73.61 107.403 73.61H105.429V70.74H107.403ZM108.033 78.02H105.429V74.604H108.033C109.279 74.604 109.951 75.318 109.951 76.312C109.951 77.32 109.279 78.02 108.033 78.02ZM115.329 72.028C114.237 72.028 113.201 72.49 112.557 73.526L113.271 74.114C113.803 73.428 114.405 73.022 115.259 73.022C116.267 73.022 116.911 73.596 116.911 74.744V75.332H114.755C113.271 75.332 112.305 76.088 112.305 77.236C112.305 78.426 113.313 79.154 114.685 79.154C115.693 79.154 116.491 78.776 116.981 78.118V79H117.989V74.8C117.989 72.966 116.883 72.028 115.329 72.028ZM114.825 78.258C114.069 78.258 113.411 77.908 113.411 77.18C113.411 76.536 113.929 76.214 114.881 76.214H116.911V76.382C116.911 77.446 115.945 78.258 114.825 78.258ZM123.86 72.028C122.824 72.028 121.886 72.476 121.354 73.19V68.5H120.276V79H121.284V77.908C121.816 78.692 122.81 79.154 123.874 79.154C125.82 79.154 127.234 77.6 127.234 75.598C127.234 73.582 125.806 72.028 123.86 72.028ZM123.706 78.16C122.53 78.16 121.34 77.39 121.34 75.598C121.34 73.806 122.516 73.022 123.706 73.022C125.092 73.022 126.128 74.1 126.128 75.584C126.128 77.068 125.106 78.16 123.706 78.16ZM133.788 72.182L131.534 77.614L129.28 72.182H128.118L130.946 78.776L130.582 79.602C130.204 80.47 129.7 80.694 129.042 80.694C128.804 80.694 128.538 80.666 128.216 80.624V81.534C128.538 81.618 128.93 81.674 129.266 81.674C130.302 81.674 131.044 81.17 131.576 79.952L134.936 72.182H133.788ZM137.569 68.5H136.491V79H137.569V68.5ZM143.016 72.028C141.014 72.028 139.446 73.582 139.446 75.584C139.446 77.586 141.028 79.126 143.002 79.14C144.99 79.14 146.586 77.572 146.586 75.584C146.586 73.582 144.99 72.028 143.016 72.028ZM143.016 73.022C144.416 73.022 145.48 74.128 145.48 75.598C145.48 77.026 144.416 78.146 143.002 78.146C141.588 78.146 140.552 77.04 140.552 75.598C140.538 74.142 141.588 73.022 143.016 73.022ZM151.589 72.028C150.707 72.028 149.965 72.364 149.489 72.924V72.182H148.481V79H149.559V74.842C149.559 73.778 150.301 73.022 151.351 73.022C152.401 73.022 153.045 73.764 153.045 74.842V79H154.123V74.716C154.123 73.134 153.199 72.028 151.589 72.028Z" fill="#FFBE44"/>
</svg>
