<svg width="1162" height="890" viewBox="0 0 1162 890" fill="none" xmlns="http://www.w3.org/2000/svg">
<path opacity="0.3" d="M758.178 789.427C754.928 786.177 754.928 780.908 758.178 777.678V789.427Z" fill="#160E6B"/>
<path d="M397.33 169.331V416.465L500.568 354.651V106.852L397.33 169.331Z" fill="#937DFF"/>
<path d="M565.834 66.6587L454.239 0L287.107 102.693L397.33 169.332L565.834 66.6587Z" fill="#C6E30B"/>
<path d="M610.793 543.626V789.689L721.016 723.596V476.906L610.793 543.626Z" fill="#937DFF"/>
<path d="M721.016 344.437L610.45 411.277L500.57 476.906L610.793 543.524L721.016 476.906L831.239 410.268L721.016 344.437Z" fill="#C6E30B"/>
<path d="M831.239 410.248L610.793 543.928V663.458L831.239 529.797V410.248Z" fill="#937DFF"/>
<path d="M208.717 789.205L0.181686 664.285L0 792.677L207.869 918L208.717 789.205Z" fill="white"/>
<path d="M233.407 645.793L204.196 663.619L102.875 603.137L0.162109 664.285L208.819 789.144L340.117 710.534L233.407 645.793Z" fill="#4420D6"/>
<path d="M358.388 388.284L301.076 353.905V252.867C301.076 238.171 317.125 229.086 329.722 236.636C347.507 247.295 358.368 266.514 358.368 287.246V388.284H358.388Z" fill="#C6E30B"/>
<path d="M358.388 317.931L301.076 353.905V252.867C301.076 238.171 317.125 229.086 329.722 236.636C347.507 247.295 358.368 266.514 358.368 287.246V317.931H358.388Z" fill="#00C7BA"/>
<path d="M560.522 643.876L543.545 633.802V579.094C543.545 574.774 548.289 572.13 552.024 574.33C557.293 577.459 560.502 583.091 560.502 589.168V643.876H560.522Z" fill="#C6E30B"/>
<path d="M560.522 623.688L543.545 633.802V579.094C543.545 574.774 548.289 572.13 552.024 574.33C557.293 577.459 560.502 583.091 560.502 589.168V623.688H560.522Z" fill="#937DFF"/>
<path d="M781.372 742.026L764.395 731.952V677.245C764.395 672.925 769.139 670.28 772.873 672.48C778.142 675.61 781.352 681.242 781.352 687.318V742.026H781.372Z" fill="#C6E30B"/>
<path d="M781.372 721.819L764.395 731.932V677.225C764.395 672.905 769.139 670.26 772.873 672.46C778.142 675.589 781.352 681.222 781.352 687.298V721.819H781.372Z" fill="#937DFF"/>
<path d="M48.9326 796.35L31.9551 786.277V731.569C31.9551 727.249 36.6991 724.605 40.4338 726.805C45.7027 729.934 48.9125 735.566 48.9125 741.643V796.35H48.9326Z" fill="#C6E30B"/>
<path d="M48.9326 776.143L31.9551 786.257V731.549C31.9551 727.229 36.6991 724.584 40.4338 726.785C45.7027 729.914 48.9125 735.546 48.9125 741.623V776.143H48.9326Z" fill="#160E6B"/>
<path d="M156.833 856.206L139.855 846.132V791.424C139.855 787.104 144.6 784.46 148.334 786.66C153.603 789.789 156.813 795.421 156.813 801.498V856.206H156.833Z" fill="#C6E30B"/>
<path d="M156.833 835.999L139.855 846.113V791.405C139.855 787.085 144.6 784.44 148.334 786.641C153.603 789.77 156.813 795.402 156.813 801.478V835.999H156.833Z" fill="#160E6B"/>
<path d="M585.155 78.2465L565.835 66.6589L508.221 101.28L527.217 112.888L585.155 78.2465Z" fill="#00C7BA"/>
<path d="M585.154 101.34V78.2461L527.217 112.888L527.318 136.042L585.154 101.34Z" fill="#937DFF"/>
<path d="M604.575 112.928L585.255 101.34L527.641 135.982L546.637 147.569L604.575 112.928Z" fill="#00C7BA"/>
<path d="M604.574 136.022V112.928L546.637 147.569L546.738 170.724L604.574 136.022Z" fill="#937DFF"/>
<path d="M623.976 147.631L604.677 136.043L547.062 170.664L566.039 182.272L623.976 147.631Z" fill="#00C7BA"/>
<path d="M623.975 170.725V147.63L566.037 182.272L566.138 205.427L623.975 170.725Z" fill="#937DFF"/>
<path d="M643.395 182.312L624.076 170.725L566.461 205.366L585.457 216.954L643.395 182.312Z" fill="#00C7BA"/>
<path d="M643.395 205.407V182.312L585.457 216.954L585.558 240.109L643.395 205.407Z" fill="#937DFF"/>
<path d="M662.797 217.014L643.498 205.427L585.883 240.048L604.859 251.656L662.797 217.014Z" fill="#00C7BA"/>
<path d="M662.793 240.109V217.014L604.855 251.656L604.977 274.811L662.793 240.109Z" fill="#937DFF"/>
<path d="M682.215 251.696L662.896 240.109L605.281 274.73L624.278 286.338L682.215 251.696Z" fill="#00C7BA"/>
<path d="M682.215 274.79V251.696L624.277 286.337L624.378 309.492L682.215 274.79Z" fill="#937DFF"/>
<path d="M701.611 286.399L682.312 274.811L624.697 309.432L643.673 321.04L701.611 286.399Z" fill="#00C7BA"/>
<path d="M701.613 309.493V286.398L643.676 321.04L643.797 344.195L701.613 309.493Z" fill="#937DFF"/>
<path d="M721.034 321.08L701.734 309.492L644.1 344.114L663.096 355.721L721.034 321.08Z" fill="#00C7BA"/>
<path d="M721.035 344.174V321.08L663.098 355.722L663.199 378.876L721.035 344.174Z" fill="#937DFF"/>
<path d="M281.715 365.411L316.5 344L358.043 388.263L339.208 399.79L281.715 365.411Z" fill="#C6E30B"/>
<path d="M281.715 388.324V365.411L339.208 399.79L339.107 422.763L281.715 388.324Z" fill="#4420D8"/>
<path d="M262.436 399.831L281.614 388.344L338.784 422.703L319.949 434.21L262.436 399.831Z" fill="#C6E30B"/>
<path d="M262.436 422.763V399.83L319.949 434.209L319.828 457.183L262.436 422.763Z" fill="#4420D8"/>
<path d="M243.18 434.27L262.337 422.764L319.528 457.123L300.673 468.65L243.18 434.27Z" fill="#C6E30B"/>
<path d="M243.18 457.183V434.271L300.673 468.65L300.572 491.623L243.18 457.183Z" fill="#4420D8"/>
<path d="M223.918 468.689L243.076 457.183L300.246 491.562L281.412 503.068L223.918 468.689Z" fill="#C6E30B"/>
<path d="M223.918 491.623V468.69L281.412 503.069L281.311 526.042L223.918 491.623Z" fill="#4420D8"/>
<path d="M204.641 503.129L223.819 491.623L280.989 525.981L262.154 537.508L204.641 503.129Z" fill="#C6E30B"/>
<path d="M204.641 526.042V503.129L262.154 537.508L262.033 560.481L204.641 526.042Z" fill="#4420D8"/>
<path d="M185.379 537.549L204.537 526.042L261.727 560.421L242.872 571.928L185.379 537.549Z" fill="#C6E30B"/>
<path d="M185.379 560.482V537.549L242.872 571.928L242.772 594.901L185.379 560.482Z" fill="#4420D8"/>
<path d="M166.125 571.989L185.283 560.482L242.474 594.841L223.619 606.368L166.125 571.989Z" fill="#C6E30B"/>
<path d="M166.125 594.901V571.989L223.619 606.368L223.518 629.341L166.125 594.901Z" fill="#4420D8"/>
<path d="M146.844 606.408L166.022 594.901L223.192 629.28L204.358 640.787L146.844 606.408Z" fill="#C6E30B"/>
<path d="M146.844 629.341V606.408L204.358 640.787L204.236 701L146.844 629.341Z" fill="#4420D8"/>
<path d="M831.237 529.817V660.409L721.014 596.617L831.237 529.817Z" fill="#00C7BA"/>
<path d="M941.477 223.474V463.986L1051.7 529.817V290.113L941.477 223.474Z" fill="#4420D8"/>
<path d="M1073 517L941.477 596.436V715.965L1088 627.5L1073 517Z" fill="#937DFF"/>
<path d="M1051.7 529.817L941.477 596.436L832 529.5L941.477 463.986L1051.7 529.817Z" fill="#C6E30B"/>
<path d="M1051.7 290.113V649.347L1161.92 583.253V223.474L1051.7 290.113Z" fill="#937DFF"/>
<path d="M1161.92 223.474L1051.7 290.113L967.5 225.5L1051.7 157.643L1161.92 223.474Z" fill="#C6E30B"/>
<path d="M941.477 223.474L1051.7 290.113V157.643L941.477 223.474Z" fill="#C6E30B"/>
<path d="M831.234 529.817L941.478 596.436V463.986L831.234 529.817Z" fill="#C6E30B"/>
<path d="M1106 376.735L1122.98 366.662V311.954C1122.98 307.634 1118.24 304.989 1114.5 307.19C1109.23 310.319 1106.02 315.951 1106.02 322.027V376.735H1106Z" fill="#C6E30B"/>
<path d="M1106 356.529L1122.98 366.643V311.935C1122.98 307.615 1118.24 304.97 1114.5 307.171C1109.23 310.3 1106.02 315.932 1106.02 322.008V356.529H1106Z" fill="#4420D8"/>
<path d="M1106 506.762L1122.98 496.688V441.981C1122.98 437.661 1118.24 435.016 1114.5 437.217C1109.23 440.346 1106.02 445.978 1106.02 452.054V506.762H1106Z" fill="#C6E30B"/>
<path d="M1106 486.556L1122.98 496.669V441.962C1122.98 437.642 1118.24 434.997 1114.5 437.198C1109.23 440.327 1106.02 445.959 1106.02 452.035V486.556H1106Z" fill="#4420D8"/>
<path d="M175.645 278.685C175.645 270.65 181.156 263.908 188.605 262.01C188.504 261.243 188.423 260.456 188.423 259.668C188.423 250.16 196.135 242.428 205.663 242.428C215.171 242.428 222.903 250.14 222.903 259.668C222.903 260.98 222.742 262.272 222.459 263.504C231.22 264.311 238.064 271.68 238.064 280.643C238.064 282.036 237.882 283.388 237.559 284.701C245.19 286.477 250.883 293.3 250.883 301.476C250.883 310.984 243.171 318.716 233.643 318.716C229.787 318.716 226.234 317.424 223.367 315.284L187.515 295.057C180.631 292.796 175.645 286.316 175.645 278.685Z" fill="#00C7BA"/>
<path opacity="0.24" d="M188.605 262.01C188.505 261.242 188.424 260.455 188.424 259.668C188.424 256.821 189.13 254.137 190.362 251.754C190.826 258.658 194.096 264.23 199.386 268.449C201.202 269.661 203.06 270.71 204.897 271.619C202.151 281.167 207.117 292.331 216.181 295.339C219.31 296.51 222.964 297.317 226.78 297.64C229.465 304.363 234.31 310.459 239.72 313.831C240.911 314.477 242.163 315.082 243.434 315.607C240.648 317.545 237.277 318.675 233.623 318.675C229.767 318.675 226.215 317.383 223.348 315.244L187.495 295.016C180.611 292.755 175.625 286.295 175.625 278.644C175.645 270.65 181.156 263.907 188.605 262.01Z" fill="#EDEEF0"/>
<path d="M721.033 193.032C721.033 187.743 724.667 183.301 729.572 182.05C729.512 181.545 729.451 181.04 729.451 180.515C729.451 174.237 734.539 169.17 740.797 169.17C747.075 169.17 752.142 174.257 752.142 180.515C752.142 181.384 752.041 182.231 751.859 183.039C757.633 183.584 762.135 188.429 762.135 194.344C762.135 195.272 762.014 196.161 761.812 197.009C766.838 198.179 770.593 202.681 770.593 208.051C770.593 214.329 765.506 219.396 759.248 219.396C756.704 219.396 754.362 218.548 752.465 217.135L728.846 203.812C724.304 202.318 721.033 198.058 721.033 193.032Z" fill="#00C7BA"/>
<path opacity="0.24" d="M729.573 182.05C729.513 181.545 729.452 181.04 729.452 180.515C729.452 178.638 729.916 176.862 730.724 175.307C731.027 179.849 733.187 183.523 736.679 186.309C737.89 187.117 739.102 187.803 740.313 188.389C738.516 194.687 741.786 202.035 747.742 204.014C749.801 204.781 752.223 205.306 754.727 205.528C756.483 209.969 759.693 213.966 763.246 216.207C764.033 216.631 764.861 217.034 765.688 217.378C763.851 218.649 761.631 219.396 759.228 219.396C756.685 219.396 754.343 218.548 752.445 217.135L728.826 203.812C724.284 202.318 721.014 198.058 721.014 193.032C721.034 187.743 724.668 183.301 729.573 182.05Z" fill="#EDEEF0"/>
<path d="M108.204 570.374H101.199V668.424H108.204V570.374Z" fill="#838148"/>
<path d="M104.449 570.374C104.449 570.374 88.7033 591.349 56.9082 569.082C56.9082 569.082 87.5728 546.916 104.449 570.374Z" fill="#8BCF51"/>
<path d="M104.268 570.374C104.268 570.374 112.989 545.644 76.8334 531.513C76.8536 531.513 75.4001 569.324 104.268 570.374Z" fill="#7BBC3C"/>
<path d="M104.267 570.374C104.267 570.374 125.241 554.628 102.975 522.833C102.995 522.833 80.809 553.497 104.267 570.374Z" fill="#8BCF51"/>
<path d="M104.267 570.374C104.267 570.374 130.228 574.068 136.97 535.853C136.99 535.833 99.6235 541.849 104.267 570.374Z" fill="#7BBC3C"/>
<path d="M104.268 570.374C104.268 570.374 120.014 591.349 151.809 569.082C151.829 569.082 121.144 546.916 104.268 570.374Z" fill="#8BCF51"/>
<path d="M635.459 716.651L697.434 679.466V615.391C697.434 599.484 680.093 589.673 666.447 597.848C647.228 609.375 635.459 630.168 635.459 652.576V716.651Z" fill="#8BCF51"/>
<path d="M636.486 641.211L697.432 679.486V615.412C697.432 599.504 680.091 589.693 666.444 597.869C641.695 609.638 636.486 641.211 636.486 641.211Z" fill="#080345"/>
<path d="M646.621 748.446L709.686 710.837L709.868 687.4L646.621 723.777V748.446Z" fill="#FF9937"/>
<path d="M635.457 716.651L646.641 723.798L709.847 687.279L697.432 679.466L635.457 716.651Z" fill="#8BCF51"/>
<path d="M635.438 716.651L646.621 723.778V748.446L635.438 741.401V716.651Z" fill="#FFD078"/>
<path opacity="0.3" d="M646.964 686.895C639.939 679.87 639.939 668.464 646.964 661.439C653.989 654.413 665.395 654.413 672.42 661.439C679.446 668.464 685.381 699.835 685.381 699.835C685.381 699.835 653.989 693.92 646.964 686.895Z" fill="#160E6B"/>
<path d="M677.025 672.622C677.025 682.554 668.97 690.609 659.038 690.609C649.106 690.609 641.051 682.554 641.051 672.622C641.051 662.69 659.038 636.305 659.038 636.305C659.038 636.305 677.025 662.67 677.025 672.622Z" fill="#216849"/>
<path opacity="0.3" d="M756.769 401.305C760.706 397.368 760.706 390.989 756.769 387.052C752.833 383.116 746.453 383.116 742.517 387.052C738.58 390.989 735.27 408.572 735.27 408.572C735.27 408.572 752.833 405.241 756.769 401.305Z" fill="#160E6B"/>
<path d="M739.936 393.31C739.936 398.882 744.457 403.384 750.009 403.384C755.581 403.384 760.083 398.862 760.083 393.31C760.083 387.739 750.009 372.961 750.009 372.961C750.009 372.961 739.936 387.739 739.936 393.31Z" fill="#283410"/>
<path opacity="0.3" d="M703.07 431.747C707.006 427.811 707.006 421.432 703.07 417.495C699.133 413.559 692.754 413.559 688.818 417.495C684.881 421.432 681.57 439.015 681.57 439.015C681.57 439.015 699.133 435.684 703.07 431.747Z" fill="#160E6B"/>
<path d="M686.236 423.733C686.236 429.305 690.758 433.806 696.31 433.806C701.861 433.806 706.383 429.284 706.383 423.733C706.383 418.181 696.31 403.384 696.31 403.384C696.31 403.384 686.236 418.181 686.236 423.733Z" fill="#283410"/>
<path opacity="0.3" d="M645.414 462.17C649.35 458.233 649.35 451.854 645.414 447.917C641.477 443.981 635.098 443.981 631.161 447.917C627.225 451.854 623.914 469.437 623.914 469.437C623.914 469.437 641.457 466.106 645.414 462.17Z" fill="#160E6B"/>
<path d="M628.561 454.175C628.561 459.747 633.083 464.249 638.634 464.249C644.186 464.249 648.708 459.727 648.708 454.175C648.708 448.624 638.634 433.826 638.634 433.826C638.634 433.826 628.561 448.604 628.561 454.175Z" fill="#283410"/>
<path opacity="0.3" d="M587.738 492.592C591.674 488.656 591.674 482.276 587.738 478.34C583.801 474.403 577.422 474.403 573.486 478.34C569.549 482.276 566.238 499.86 566.238 499.86C566.238 499.86 583.801 496.529 587.738 492.592Z" fill="#160E6B"/>
<path d="M570.904 484.598C570.904 490.169 575.426 494.671 580.978 494.671C586.55 494.671 591.051 490.149 591.051 484.598C591.051 479.046 580.978 464.249 580.978 464.249C580.978 464.249 570.904 479.026 570.904 484.598Z" fill="#283410"/>
</svg>
