<svg width="375" height="832" viewBox="0 0 375 832" fill="none" xmlns="http://www.w3.org/2000/svg">
<g clip-path="url(#clip0_5988:107285)">
<path d="M533.07 -2.06006H-158.06V976H533.07V-2.06006Z" fill="#4420D8"/>
<path opacity="0.3" d="M187.5 360.19L244.4 -217.74L210.19 361.97L356.8 -199.94L232.32 367.29L465.02 -164.77L253.35 375.99L566.42 -113.11L272.75 387.89L658.48 -46.2202L290.06 402.67L738.95 34.2498L304.84 419.97L805.84 126.31L316.73 439.38L857.5 227.7L325.44 460.41L892.66 335.93L330.75 482.54L910.47 448.33L332.54 505.23L910.47 562.13L330.75 527.91L892.66 674.52L325.44 550.05L857.5 782.75L316.73 571.07L805.84 884.14L304.84 590.48L738.95 976.21L290.06 607.78L658.48 1056.67L272.75 622.57L566.42 1123.56L253.35 634.46L465.02 1175.22L232.32 643.17L356.8 1210.39L210.19 648.48L244.4 1228.19L187.5 650.27L130.6 1228.19L164.81 648.48L18.2003 1210.39L142.68 643.17L-90.0197 1175.22L121.65 634.46L-191.42 1123.56L102.25 622.57L-283.48 1056.67L84.9402 607.78L-363.95 976.21L70.1603 590.48L-430.84 884.14L58.2703 571.07L-482.5 782.75L49.5602 550.05L-517.66 674.52L44.2402 527.91L-535.47 562.13L42.4603 505.23L-535.47 448.33L44.2402 482.54L-517.66 335.93L49.5602 460.41L-482.5 227.7L58.2703 439.38L-430.84 126.31L70.1603 419.97L-363.95 34.2498L84.9402 402.67L-283.48 -46.2202L102.25 387.89L-191.42 -113.11L121.65 375.99L-90.0197 -164.77L142.68 367.29L18.2003 -199.94L164.81 361.97L130.6 -217.74L187.5 360.19Z" fill="#160E6B"/>
<path opacity="0.3" d="M187.5 504.81L-75.8701 975.81L106.08 974.38L187.5 504.81Z" fill="#3317A5"/>
<path d="M361.49 479.36C361.49 556.61 283.37 619.24 186.99 619.24C90.61 619.24 12.5 556.61 12.5 479.36C12.5 402.11 90.62 352.8 187 352.8C283.38 352.8 361.49 402.1 361.49 479.36Z" fill="#160E6B"/>
<path d="M148.82 403.59H181.51V420.45C181.51 422.529 181.101 424.587 180.305 426.508C179.51 428.428 178.344 430.173 176.874 431.643C175.404 433.113 173.659 434.279 171.738 435.075C169.818 435.87 167.759 436.28 165.68 436.28H164.68C160.482 436.28 156.456 434.612 153.487 431.643C150.518 428.675 148.85 424.648 148.85 420.45V403.59H148.82Z" fill="#FFBE44"/>
<path d="M210.48 436.29H209.48C205.281 436.29 201.255 434.622 198.286 431.654C195.317 428.685 193.65 424.658 193.65 420.46V403.6H226.31V420.46C226.31 422.539 225.9 424.597 225.105 426.518C224.309 428.438 223.143 430.184 221.673 431.654C220.203 433.123 218.458 434.29 216.537 435.085C214.617 435.881 212.558 436.29 210.48 436.29Z" fill="#FFBE44"/>
<path d="M243.18 436.29H242.18C240.098 436.295 238.035 435.89 236.11 435.097C234.185 434.303 232.435 433.138 230.961 431.668C229.486 430.197 228.317 428.45 227.519 426.527C226.721 424.604 226.31 422.542 226.31 420.46V403.6H259V420.46C259 424.657 257.334 428.682 254.367 431.65C251.4 434.618 247.377 436.287 243.18 436.29Z" fill="#FFBE44"/>
<path d="M275.86 436.29H274.86C270.662 436.29 266.636 434.622 263.667 431.654C260.698 428.685 259.03 424.658 259.03 420.46V403.6H291.69V420.46C291.69 424.658 290.023 428.685 287.054 431.654C284.085 434.622 280.059 436.29 275.86 436.29Z" fill="#FFBE44"/>
<path d="M308.56 436.29H307.56C303.361 436.29 299.335 434.622 296.366 431.654C293.397 428.685 291.73 424.658 291.73 420.46V403.6H324.39V420.46C324.39 424.658 322.722 428.685 319.753 431.654C316.784 434.622 312.758 436.29 308.56 436.29Z" fill="#FFBE44"/>
<path d="M67.5997 436.29H66.5997C62.4013 436.29 58.3749 434.622 55.4062 431.654C52.4375 428.685 50.7697 424.658 50.7697 420.46L50.7697 403.6H83.4297V420.46C83.4297 422.539 83.0202 424.597 82.2247 426.518C81.4292 428.438 80.2631 430.184 78.7932 431.654C77.3232 433.123 75.5782 434.29 73.6576 435.085C71.737 435.881 69.6785 436.29 67.5997 436.29Z" fill="#FFBE44"/>
<path d="M100.29 436.29H99.2901C95.0917 436.29 91.0653 434.622 88.0966 431.654C85.1279 428.685 83.4601 424.658 83.4601 420.46V403.6H116.12V420.46C116.12 424.658 114.452 428.685 111.484 431.654C108.515 434.622 104.488 436.29 100.29 436.29Z" fill="#FFBE44"/>
<path d="M132.94 436.29H131.94C127.742 436.29 123.716 434.622 120.747 431.653C117.778 428.685 116.11 424.658 116.11 420.46V403.6H148.82V420.46C148.82 422.543 148.409 424.606 147.611 426.529C146.812 428.453 145.641 430.201 144.166 431.671C142.691 433.142 140.94 434.307 139.014 435.099C137.087 435.892 135.023 436.297 132.94 436.29Z" fill="#FFBE44"/>
<path d="M109.732 419.93L99.7832 409.981L89.8342 419.93L99.7832 429.879L109.732 419.93Z" fill="white"/>
<path d="M99.7801 409.99V415.11L94.5601 420.33L89.8301 419.94L99.7801 409.99Z" fill="#AFACC9"/>
<path d="M99.7801 429.89L99.4401 425.45L94.5601 420.33L89.8301 419.94L99.7801 429.89Z" fill="#6C679D"/>
<path d="M109.72 419.94L104.86 420.13L99.4404 425.45L99.7804 429.89L109.72 419.94Z" fill="#D9D8E1"/>
<path d="M99.7803 415.11L104.86 420.13L109.72 419.94L99.7803 409.99V415.11Z" fill="#D9D8E1"/>
<path d="M99.7798 417.39L102.08 405.82L100.69 417.54L106.45 407.24L101.5 417.95L110.17 409.94L102.16 418.61L112.87 413.66L102.57 419.42L114.29 418.03L102.72 420.33L114.29 422.63L102.57 421.24L112.87 427L102.16 422.06L110.17 430.73L101.5 422.71L106.45 433.43L100.69 423.13L102.08 434.85L99.7798 423.27L97.4798 434.85L98.8698 423.13L93.1098 433.43L98.0498 422.71L89.3898 430.73L97.3998 422.06L86.6798 427L96.9798 421.24L85.2598 422.63L96.8398 420.33L85.2598 418.03L96.9798 419.42L86.6798 413.66L97.3998 418.61L89.3898 409.94L98.0498 417.95L93.1098 407.24L98.8698 417.54L97.4798 405.82L99.7798 417.39Z" fill="white"/>
<path d="M142.424 419.943L132.475 409.994L122.526 419.943L132.475 429.892L142.424 419.943Z" fill="white"/>
<path d="M132.47 409.99V415.11L127.25 420.33L122.52 419.94L132.47 409.99Z" fill="#AFACC9"/>
<path d="M132.47 429.89L132.14 425.45L127.25 420.33L122.52 419.94L132.47 429.89Z" fill="#6C679D"/>
<path d="M142.42 419.94L137.55 420.13L132.14 425.45L132.47 429.89L142.42 419.94Z" fill="#D9D8E1"/>
<path d="M132.47 415.11L137.55 420.13L142.42 419.94L132.47 409.99V415.11Z" fill="#D9D8E1"/>
<path d="M132.47 417.39L134.77 405.82L133.38 417.54L139.14 407.24L134.2 417.95L142.86 409.94L134.85 418.61L145.56 413.66L135.27 419.42L146.99 418.03L135.41 420.33L146.99 422.63L135.27 421.24L145.56 427L134.85 422.06L142.86 430.73L134.2 422.71L139.14 433.43L133.38 423.13L134.77 434.85L132.47 423.27L130.17 434.85L131.56 423.13L125.8 433.43L130.74 422.71L122.08 430.73L130.09 422.06L119.38 427L129.68 421.24L117.95 422.63L129.53 420.33L117.95 418.03L129.68 419.42L119.38 413.66L130.09 418.61L122.08 409.94L130.74 417.95L125.8 407.24L131.56 417.54L130.17 405.82L132.47 417.39Z" fill="white"/>
<path d="M174.092 419.94L164.143 409.991L154.194 419.94L164.143 429.889L174.092 419.94Z" fill="white"/>
<path d="M164.14 409.99V415.11L158.92 420.33L154.19 419.94L164.14 409.99Z" fill="#AFACC9"/>
<path d="M164.14 429.89L163.8 425.45L158.92 420.33L154.19 419.94L164.14 429.89Z" fill="#6C679D"/>
<path d="M174.091 419.94L169.221 420.13L163.801 425.45L164.141 429.89L174.091 419.94Z" fill="#D9D8E1"/>
<path d="M164.141 415.11L169.221 420.13L174.091 419.94L164.141 409.99V415.11Z" fill="#D9D8E1"/>
<path d="M164.14 417.39L166.44 405.82L165.04 417.54L170.81 407.24L165.86 417.95L174.53 409.94L166.51 418.61L177.23 413.66L166.93 419.42L178.65 418.03L167.08 420.33L178.65 422.63L166.93 421.24L177.23 427L166.51 422.06L174.53 430.73L165.86 422.71L170.81 433.43L165.04 423.13L166.44 434.85L164.14 423.27L161.84 434.85L163.23 423.13L157.47 433.43L162.41 422.71L153.75 430.73L161.76 422.06L151.04 427L161.34 421.24L149.62 422.63L161.2 420.33L149.62 418.03L161.34 419.42L151.04 413.66L161.76 418.61L153.75 409.94L162.41 417.95L157.47 407.24L163.23 417.54L161.84 405.82L164.14 417.39Z" fill="white"/>
<path d="M220.814 419.933L210.865 409.984L200.916 419.933L210.865 429.882L220.814 419.933Z" fill="white"/>
<path d="M210.86 409.99V415.11L205.64 420.33L200.91 419.94L210.86 409.99Z" fill="#AFACC9"/>
<path d="M210.86 429.89L210.53 425.45L205.64 420.33L200.91 419.94L210.86 429.89Z" fill="#6C679D"/>
<path d="M220.81 419.94L215.95 420.13L210.53 425.45L210.86 429.89L220.81 419.94Z" fill="#D9D8E1"/>
<path d="M210.86 415.11L215.95 420.13L220.81 419.94L210.86 409.99V415.11Z" fill="#D9D8E1"/>
<path d="M210.86 417.39L213.16 405.82L211.77 417.54L217.53 407.24L212.59 417.95L221.25 409.94L213.24 418.61L223.96 413.66L213.66 419.42L225.38 418.03L213.8 420.33L225.38 422.63L213.66 421.24L223.96 427L213.24 422.06L221.25 430.73L212.59 422.71L217.53 433.43L211.77 423.13L213.16 434.85L210.86 423.27L208.56 434.85L209.96 423.13L204.19 433.43L209.14 422.71L200.47 430.73L208.49 422.06L197.77 427L208.07 421.24L196.35 422.63L207.92 420.33L196.35 418.03L208.07 419.42L197.77 413.66L208.49 418.61L200.47 409.94L209.14 417.95L204.19 407.24L209.96 417.54L208.56 405.82L210.86 417.39Z" fill="white"/>
<path d="M252.603 419.942L242.654 409.993L232.705 419.942L242.654 429.891L252.603 419.942Z" fill="white"/>
<path d="M242.65 409.99V415.11L237.43 420.33L232.7 419.94L242.65 409.99Z" fill="#AFACC9"/>
<path d="M242.65 429.89L242.32 425.45L237.43 420.33L232.7 419.94L242.65 429.89Z" fill="#6C679D"/>
<path d="M252.6 419.94L247.74 420.13L242.32 425.45L242.65 429.89L252.6 419.94Z" fill="#D9D8E1"/>
<path d="M242.65 415.11L247.74 420.13L252.6 419.94L242.65 409.99V415.11Z" fill="#D9D8E1"/>
<path d="M242.65 417.39L244.95 405.82L243.56 417.54L249.32 407.24L244.38 417.95L253.04 409.94L245.03 418.61L255.75 413.66L245.45 419.42L257.17 418.03L245.59 420.33L257.17 422.63L245.45 421.24L255.75 427L245.03 422.06L253.04 430.73L244.38 422.71L249.32 433.43L243.56 423.13L244.95 434.85L242.65 423.27L240.35 434.85L241.75 423.13L235.98 433.43L240.93 422.71L232.26 430.73L240.28 422.06L229.56 427L239.86 421.24L228.14 422.63L239.71 420.33L228.14 418.03L239.86 419.42L229.56 413.66L240.28 418.61L232.26 409.94L240.93 417.95L235.98 407.24L241.75 417.54L240.35 405.82L242.65 417.39Z" fill="white"/>
<path d="M285.299 419.937L275.35 409.988L265.401 419.937L275.35 429.886L285.299 419.937Z" fill="white"/>
<path d="M275.35 409.99V415.11L270.13 420.33L265.4 419.94L275.35 409.99Z" fill="#AFACC9"/>
<path d="M275.35 429.89L275.01 425.45L270.13 420.33L265.4 419.94L275.35 429.89Z" fill="#6C679D"/>
<path d="M285.301 419.94L280.431 420.13L275.011 425.45L275.351 429.89L285.301 419.94Z" fill="#D9D8E1"/>
<path d="M275.351 415.11L280.431 420.13L285.301 419.94L275.351 409.99V415.11Z" fill="#D9D8E1"/>
<path d="M275.35 417.39L277.64 405.82L276.25 417.54L282.02 407.24L277.07 417.95L285.74 409.94L277.72 418.61L288.44 413.66L278.14 419.42L289.86 418.03L278.29 420.33L289.86 422.63L278.14 421.24L288.44 427L277.72 422.06L285.74 430.73L277.07 422.71L282.02 433.43L276.25 423.13L277.64 434.85L275.35 423.27L273.05 434.85L274.44 423.13L268.67 433.43L273.62 422.71L264.95 430.73L272.97 422.06L262.25 427L272.55 421.24L260.83 422.63L272.41 420.33L260.83 418.03L272.55 419.42L262.25 413.66L272.97 418.61L264.95 409.94L273.62 417.95L268.67 407.24L274.44 417.54L273.05 405.82L275.35 417.39Z" fill="white"/>
<path d="M187.5 449.25C201.254 449.25 214.874 451.96 227.581 457.224C240.288 462.489 251.834 470.205 261.558 479.932C271.283 489.66 278.996 501.208 284.257 513.916C289.518 526.625 292.223 540.245 292.22 554V605.26C292.22 611.54 289.725 617.563 285.284 622.004C280.843 626.445 274.82 628.94 268.54 628.94H106.45C100.169 628.94 94.1461 626.445 89.7053 622.004C85.2644 617.563 82.7695 611.54 82.7695 605.26V554C82.7656 540.245 85.4717 526.623 90.7332 513.914C95.9948 501.205 103.709 489.656 113.434 479.929C123.16 470.201 134.707 462.485 147.415 457.221C160.123 451.957 173.744 449.249 187.5 449.25Z" fill="#0F0A45"/>
<path d="M10.4796 581.05C10.4796 581.05 17.8896 583.2 25.5396 591.05C33.1897 598.9 38.6996 606.12 42.2796 608.05C45.8596 609.98 50.1696 612.36 50.1696 612.36C50.1696 612.36 36.5396 635.55 14.5396 635.55C-10.2104 635.55 -24.1104 624.37 -34.2104 619C-43.9203 613.84 -55.7204 607.33 -72.2104 608.52C-88.7003 609.71 -97.3604 618.81 -97.3604 618.81C-97.3604 618.81 -95.3603 605.9 -86.8403 598.25C-78.3203 590.6 -73.0004 591.09 -73.0004 591.09C-73.0004 591.09 -83.7604 583.09 -85.4304 574.59C-86.8504 567.39 -83.7104 556.96 -83.7104 556.96C-83.7104 556.96 -76.7703 570.7 -69.7104 577.11C-55.4503 590.02 -43.8404 587.03 -35.7104 586.31C-27.5804 585.59 10.4796 581.05 10.4796 581.05Z" fill="#3481D9"/>
<path d="M41.8495 621.42C41.0466 620.399 40.6101 619.139 40.6101 617.84C40.6101 616.541 41.0466 615.281 41.8495 614.26C43.0278 612.705 43.7045 610.829 43.7895 608.88L42.2795 608.07C40.8876 607.221 39.6162 606.188 38.4995 605C39.1985 605.939 39.5518 607.091 39.4995 608.26C39.534 609.564 39.0933 610.837 38.2595 611.84C36.9705 613.575 36.2744 615.679 36.2744 617.84C36.2744 620.001 36.9705 622.105 38.2595 623.84C38.5934 624.301 38.8814 624.793 39.1195 625.31C40.2795 624.31 41.3595 623.31 42.3395 622.25C42.1995 622 41.9995 621.67 41.8495 621.42Z" fill="#00C7BA"/>
<path d="M30.3994 621.42C29.5897 620.402 29.1489 619.14 29.1489 617.84C29.1489 616.54 29.5897 615.278 30.3994 614.26C31.7211 612.541 32.4256 610.428 32.3994 608.26C32.4335 606.091 31.7282 603.975 30.3994 602.26C29.5712 601.253 29.1313 599.983 29.1594 598.68C29.117 597.644 29.4041 596.622 29.9794 595.76C29.0194 594.713 28.0194 593.633 26.9794 592.52L26.8594 592.71C25.5612 594.441 24.8594 596.546 24.8594 598.71C24.8594 600.874 25.5612 602.979 26.8594 604.71C27.6632 605.728 28.1003 606.988 28.1003 608.285C28.1003 609.582 27.6632 610.842 26.8594 611.86C25.5612 613.591 24.8594 615.696 24.8594 617.86C24.8594 620.024 25.5612 622.129 26.8594 623.86C27.6623 624.881 28.0988 626.141 28.0988 627.44C28.0988 628.739 27.6623 629.999 26.8594 631.02C26.2642 631.838 25.7831 632.733 25.4294 633.68C27.6713 632.883 29.834 631.879 31.8894 630.68C32.2306 629.648 32.3995 628.567 32.3894 627.48C32.4321 625.293 31.7304 623.156 30.3994 621.42Z" fill="#00C7BA"/>
<path d="M20.9199 627.4C20.9509 625.231 20.2458 623.116 18.9199 621.4C18.117 620.379 17.6805 619.118 17.6805 617.82C17.6805 616.521 18.117 615.26 18.9199 614.24C20.2181 612.509 20.9199 610.404 20.9199 608.24C20.9199 606.076 20.2181 603.971 18.9199 602.24C18.117 601.219 17.6805 599.958 17.6805 598.66C17.6805 597.361 18.117 596.1 18.9199 595.08C20.2487 593.365 20.954 591.249 20.9199 589.08C20.9244 588.247 20.8236 587.417 20.6199 586.61C18.4904 584.953 16.1987 583.515 13.7799 582.32C14.137 583.46 14.6774 584.534 15.3799 585.5C16.1895 586.517 16.6303 587.779 16.6303 589.08C16.6303 590.38 16.1895 591.642 15.3799 592.66C14.0817 594.391 13.3799 596.496 13.3799 598.66C13.3799 600.823 14.0817 602.929 15.3799 604.66C16.1887 605.676 16.6291 606.936 16.6291 608.235C16.6291 609.533 16.1887 610.794 15.3799 611.81C14.0908 613.545 13.3948 615.648 13.3948 617.81C13.3948 619.971 14.0908 622.075 15.3799 623.81C16.1895 624.827 16.6303 626.089 16.6303 627.39C16.6303 628.69 16.1895 629.952 15.3799 630.97C14.3751 632.312 13.7281 633.888 13.4999 635.55H14.4999C15.6192 635.547 16.7375 635.484 17.8499 635.36C18.0881 634.64 18.4429 633.965 18.8999 633.36C20.2272 631.658 20.9392 629.558 20.9199 627.4Z" fill="#00C7BA"/>
<path d="M9.45969 627.4C9.49067 625.231 8.78564 623.116 7.45969 621.4C6.65678 620.379 6.22026 619.118 6.22026 617.82C6.22026 616.521 6.65678 615.26 7.45969 614.24C8.78564 612.524 9.49067 610.408 9.45969 608.24C9.49305 606.071 8.78777 603.955 7.45969 602.24C6.65678 601.219 6.22026 599.958 6.22026 598.66C6.22026 597.361 6.65678 596.1 7.45969 595.08C8.78777 593.365 9.49305 591.249 9.45969 589.08C9.49067 586.911 8.78564 584.796 7.45969 583.08C7.06055 582.562 6.72483 581.998 6.45969 581.4L2.22969 582C2.56331 583.287 3.14036 584.499 3.92969 585.57C4.76343 586.573 5.20411 587.846 5.16969 589.15C5.20228 590.454 4.76182 591.725 3.92969 592.73C2.63147 594.461 1.92969 596.566 1.92969 598.73C1.92969 600.894 2.63147 602.999 3.92969 604.73C4.76194 605.73 5.20258 606.999 5.16969 608.3C5.20411 609.604 4.76343 610.876 3.92969 611.88C2.64063 613.615 1.94456 615.719 1.94456 617.88C1.94456 620.041 2.64063 622.145 3.92969 623.88C4.76343 624.883 5.20411 626.156 5.16969 627.46C5.19262 628.75 4.75273 630.006 3.92969 631C3.13119 632.077 2.55036 633.3 2.21969 634.6C3.60969 634.83 5.03969 635.02 6.50969 635.18C6.75799 634.54 7.09458 633.937 7.50969 633.39C8.81775 631.671 9.50508 629.56 9.45969 627.4Z" fill="#00C7BA"/>
<path d="M46.6797 526.78C47.9248 525.762 49.5226 525.279 51.1232 525.436C52.7238 525.594 54.1968 526.379 55.2197 527.62L75.0097 551.62C76.0097 552.81 75.6297 556.35 74.4497 557.33L72.0197 559.33C71.2429 559.963 70.2473 560.262 69.2503 560.163C68.2534 560.064 67.3364 559.574 66.6997 558.8L45.8397 535.32C44.8217 534.075 44.3386 532.477 44.496 530.877C44.6534 529.276 45.4386 527.803 46.6797 526.78Z" fill="#B59FFF"/>
<path d="M58 543.29L53.39 568.69V586.2C53.39 591.77 56.01 601.81 50.19 612.38C37.41 607.05 35.19 601.99 28.54 594.24C38.63 576.48 47.6 560.87 58 543.29Z" fill="#4420D8"/>
<path d="M49.8199 506.87C48.2899 502.75 46.2199 497.97 45.3099 495.92V495.74C43.3099 489.28 40.5199 487.32 34.3099 487.14C28.1499 486.95 23.0499 488.9 22.8599 495.06L22.5199 506.33C22.4518 509.148 23.452 511.888 25.3199 514L27.2299 525L40.2299 525.39L38.8899 516.61C40.5377 515.754 41.9481 514.503 42.995 512.969C44.0419 511.436 44.6929 509.666 44.8899 507.82L48.7699 507.94C49.3899 508 49.9999 507.43 49.8199 506.87Z" fill="#B59FFF"/>
<path d="M42.6101 507.77L45.0501 507.85L44.8101 509.22L42.4501 509.15L36.9101 514.16L36.0801 513.23" fill="#D9D8E1"/>
<path d="M42.71 486.26C29.42 481.84 17.19 484.88 18.23 502.72C16.9381 504.327 16.2768 506.35 16.37 508.41C16.64 512.93 17.66 514.41 15.6 516.61C13.54 518.81 14.3 521.8 14.66 522.81C15.02 523.82 11.1 526.45 11.27 530.56H28L27.57 513.12C27.7381 512.402 27.8219 511.667 27.82 510.93C27.82 505.22 29.2 503.25 31.52 501.32C33.84 499.39 32.52 494.69 32.52 494.69C35.35 494.561 38.1492 494.046 40.84 493.16C45.31 491.7 42.71 486.26 42.71 486.26Z" fill="#D9D8E1"/>
<path d="M43.6993 496.91L43.6293 498.62L39.1193 498.9L36.7293 499.89L36.4893 498.91L38.9693 497.36L43.6993 496.91Z" fill="#D9D8E1"/>
<path d="M39.2393 501.46C39.2393 501.46 41.9093 498.9 43.9393 501.46C43.9393 501.46 42.1293 503.45 39.2393 501.46Z" fill="white"/>
<path d="M42.2495 502.36C42.8128 502.36 43.2695 501.903 43.2695 501.34C43.2695 500.776 42.8128 500.32 42.2495 500.32C41.6862 500.32 41.2295 500.776 41.2295 501.34C41.2295 501.903 41.6862 502.36 42.2495 502.36Z" fill="#373382"/>
<path d="M40.5593 510.86L40.0993 514.16L37.5693 513.91L37.8293 512.85L40.5593 510.86Z" fill="#D9D8E1"/>
<path d="M70.8297 561.81C67.5997 560.95 65.7697 557.23 66.7497 553.53L77.4797 518C77.5517 517.611 77.7001 517.239 77.9164 516.907C78.1326 516.576 78.4125 516.29 78.7397 516.067C79.067 515.844 79.4351 515.688 79.823 515.607C80.2109 515.527 80.6108 515.525 80.9997 515.6L83.9997 516.41C85.0154 516.765 85.851 517.505 86.3262 518.47C86.8014 519.435 86.878 520.549 86.5397 521.57L78.4497 556.65C77.4997 560.35 74.0497 562.67 70.8297 561.81Z" fill="#B59FFF"/>
<path d="M79.9998 507.81C80.1337 507.841 80.2598 507.899 80.3702 507.981C80.4806 508.063 80.573 508.167 80.6415 508.286C80.71 508.405 80.7532 508.537 80.7684 508.674C80.7835 508.811 80.7704 508.949 80.7298 509.08L79.5398 513.55H79.6898L80.3198 513.72L80.9598 511.29L81.0598 510.95L82.9098 503.95C82.9393 503.839 82.9904 503.735 83.0602 503.644C83.1299 503.553 83.217 503.476 83.3164 503.419C83.4157 503.361 83.5254 503.324 83.6393 503.308C83.7531 503.293 83.8688 503.301 83.9798 503.33C84.0907 503.36 84.1948 503.411 84.286 503.481C84.3772 503.55 84.4538 503.637 84.5114 503.737C84.5689 503.836 84.6064 503.946 84.6215 504.06C84.6367 504.174 84.6293 504.289 84.5998 504.4L83.0298 510.3L83.7998 510.51L85.4998 504.14C85.5293 504.029 85.5804 503.925 85.6502 503.834C85.72 503.743 85.807 503.666 85.9064 503.609C86.0057 503.551 86.1154 503.514 86.2293 503.498C86.3431 503.483 86.4588 503.491 86.5698 503.52C86.6807 503.55 86.7848 503.601 86.876 503.671C86.9672 503.74 87.0438 503.827 87.1014 503.927C87.1589 504.026 87.1964 504.136 87.2115 504.25C87.2267 504.364 87.2193 504.479 87.1898 504.59L85.5198 511L86.2198 511.18L87.6598 505.78C87.7194 505.556 87.8657 505.365 88.0664 505.249C88.267 505.132 88.5057 505.101 88.7298 505.16C88.9539 505.22 89.1451 505.366 89.2614 505.567C89.3776 505.767 89.4094 506.006 89.3498 506.23L87.9098 511.63L88.1498 511.7C88.3055 511.74 88.4564 511.797 88.5998 511.87L89.5998 508.16C89.6607 507.937 89.8072 507.747 90.0075 507.631C90.2078 507.515 90.4457 507.482 90.6698 507.54C90.7801 507.57 90.8835 507.622 90.9739 507.692C91.0643 507.762 91.14 507.849 91.1967 507.949C91.2534 508.048 91.2899 508.158 91.3041 508.271C91.3184 508.385 91.3101 508.5 91.2798 508.61L89.7398 514.42L89.3398 515.93L88.9998 517.33C88.627 518.709 87.7237 519.885 86.4872 520.601C85.2507 521.316 83.7814 521.514 82.3998 521.15L80.8398 520.73H80.7598L79.5098 520.4C78.5477 520.138 77.7279 519.506 77.2281 518.643C76.7283 517.781 76.5888 516.755 76.8398 515.79L76.8998 515.56L76.9998 515.18L78.7698 508.57C78.7978 508.438 78.8524 508.313 78.9302 508.202C79.008 508.092 79.1073 507.998 79.2223 507.927C79.3372 507.856 79.4654 507.809 79.599 507.789C79.7327 507.769 79.869 507.776 79.9998 507.81Z" fill="#B59FFF"/>
<path d="M47.6593 523.47H12.8093C8.22926 523.47 4.48926 526.74 4.48926 530.74L7.78926 553.85C7.78926 553.85 5.78926 569.37 11.0593 593.63C14.2599 590.497 16.9884 586.917 19.1593 583H27.8193C36.1326 570.246 44.5259 557.55 52.9993 544.91L55.9993 530.74C55.9993 526.74 52.2393 523.47 47.6593 523.47Z" fill="#4420D8"/>
<path d="M64.2596 538.26L55.8096 528L17.5596 584.53C17.5596 584.53 11.2196 592.53 9.95961 596.03C8.5446 602.079 5.67493 607.691 1.59961 612.38C21.3496 609.74 28.0596 595.38 28.0596 595.38L64.2596 538.26Z" fill="#FFBE44"/>
<path d="M10.6094 578.81C10.6094 575.47 13.7394 572.74 17.6094 572.74L54.6794 574C55.0727 573.973 55.4676 574.024 55.8414 574.149C56.2152 574.275 56.5605 574.473 56.8577 574.732C57.155 574.991 57.3982 575.306 57.5735 575.659C57.7488 576.013 57.8527 576.397 57.8794 576.79V579.94C57.7974 581.011 57.2972 582.007 56.487 582.713C55.6768 583.418 54.6216 583.776 53.5494 583.71L17.5494 584.93C13.7394 584.88 10.6094 582.15 10.6094 578.81Z" fill="#B59FFF"/>
<path d="M65.1494 573.77C65.1494 574.035 65.044 574.29 64.8565 574.477C64.6689 574.665 64.4146 574.77 64.1494 574.77H59.4794C59.4843 574.82 59.4843 574.87 59.4794 574.92V575.6H69.5694C69.6921 575.587 69.8163 575.6 69.9338 575.638C70.0512 575.676 70.1594 575.738 70.2513 575.821C70.3431 575.903 70.4165 576.004 70.4668 576.117C70.5171 576.23 70.5431 576.352 70.5431 576.475C70.5431 576.599 70.5171 576.721 70.4668 576.834C70.4165 576.946 70.3431 577.047 70.2513 577.13C70.1594 577.212 70.0512 577.275 69.9338 577.313C69.8163 577.35 69.6921 577.363 69.5694 577.35H63.4594V578.15H70.0494C70.2653 578.173 70.4651 578.275 70.6102 578.437C70.7554 578.598 70.8357 578.808 70.8357 579.025C70.8357 579.242 70.7554 579.452 70.6102 579.613C70.4651 579.775 70.2653 579.877 70.0494 579.9H63.4594V580.62H69.0494C69.1721 580.607 69.2963 580.62 69.4138 580.658C69.5312 580.696 69.6394 580.758 69.7313 580.841C69.8231 580.923 69.8965 581.024 69.9468 581.137C69.9971 581.25 70.023 581.372 70.023 581.495C70.023 581.619 69.9971 581.741 69.9468 581.854C69.8965 581.966 69.8231 582.067 69.7313 582.15C69.6394 582.232 69.5312 582.295 69.4138 582.333C69.2963 582.371 69.1721 582.383 69.0494 582.37H63.4594V582.62C63.4576 582.781 63.4408 582.942 63.4094 583.1H67.2494C67.4801 583.1 67.7014 583.192 67.8646 583.355C68.0277 583.518 68.1194 583.739 68.1194 583.97C68.1194 584.201 68.0277 584.422 67.8646 584.585C67.7014 584.749 67.4801 584.84 67.2494 584.84H58.2494C56.8207 584.838 55.4512 584.269 54.441 583.259C53.4307 582.248 52.862 580.879 52.8594 579.45V576.45C52.862 575.451 53.2601 574.494 53.9665 573.787C54.6729 573.081 55.6303 572.683 56.6294 572.68H64.0994C64.2428 572.672 64.3861 572.696 64.5198 572.748C64.6534 572.801 64.7741 572.882 64.8738 572.985C64.9734 573.088 65.0496 573.212 65.0971 573.348C65.1447 573.483 65.1625 573.627 65.1494 573.77Z" fill="#B59FFF"/>
<path d="M25.29 505.25L28.39 504.47L32.17 511.25C32.4739 511.799 32.9185 512.256 33.4581 512.576C33.9977 512.896 34.6128 513.066 35.24 513.07H40.87C41.2451 513.05 41.6082 512.931 41.9225 512.726C42.2369 512.52 42.4913 512.235 42.66 511.9L43.12 510.99H44.12L48 530.15C48.1359 530.777 48.1266 531.428 47.973 532.051C47.8195 532.675 47.5256 533.255 47.1138 533.748C46.7019 534.241 46.1831 534.633 45.5967 534.895C45.0103 535.157 44.3719 535.282 43.73 535.26L40.4 535.16C40.1738 535.156 39.9534 535.088 39.764 534.964C39.5747 534.84 39.4243 534.665 39.33 534.46L31.49 518.11L25.29 505.25Z" fill="#D9D8E1"/>
<path d="M364.52 581.05C364.52 581.05 357.11 583.2 349.46 591.05C341.81 598.9 336.3 606.12 332.72 608.05C329.14 609.98 324.83 612.36 324.83 612.36C324.83 612.36 338.46 635.55 360.46 635.55C385.21 635.55 399.11 624.37 409.21 619C418.92 613.84 430.72 607.33 447.21 608.52C463.7 609.71 472.36 618.81 472.36 618.81C472.36 618.81 470.36 605.9 461.84 598.25C453.32 590.6 448 591.09 448 591.09C448 591.09 458.76 583.09 460.43 574.59C461.85 567.39 458.71 556.96 458.71 556.96C458.71 556.96 451.77 570.7 444.71 577.11C430.45 590.02 418.84 587.03 410.71 586.31C402.58 585.59 364.52 581.05 364.52 581.05Z" fill="#3481D9"/>
<path d="M333.15 621.42C333.953 620.399 334.389 619.139 334.389 617.84C334.389 616.541 333.953 615.281 333.15 614.26C331.972 612.705 331.295 610.829 331.21 608.88L332.72 608.07C334.112 607.221 335.383 606.188 336.5 605C335.801 605.939 335.448 607.091 335.5 608.26C335.466 609.564 335.906 610.837 336.74 611.84C338.029 613.575 338.725 615.679 338.725 617.84C338.725 620.001 338.029 622.105 336.74 623.84C336.406 624.301 336.118 624.793 335.88 625.31C334.72 624.31 333.64 623.31 332.66 622.25C332.8 622 333 621.67 333.15 621.42Z" fill="#00C7BA"/>
<path d="M344.6 621.42C345.409 620.402 345.85 619.14 345.85 617.84C345.85 616.54 345.409 615.278 344.6 614.26C343.278 612.541 342.574 610.428 342.6 608.26C342.566 606.091 343.271 603.975 344.6 602.26C345.428 601.253 345.868 599.983 345.84 598.68C345.882 597.644 345.595 596.622 345.02 595.76C345.98 594.713 346.98 593.633 348.02 592.52L348.14 592.71C349.438 594.441 350.14 596.546 350.14 598.71C350.14 600.874 349.438 602.979 348.14 604.71C347.336 605.728 346.899 606.988 346.899 608.285C346.899 609.582 347.336 610.842 348.14 611.86C349.438 613.591 350.14 615.696 350.14 617.86C350.14 620.024 349.438 622.129 348.14 623.86C347.337 624.881 346.9 626.141 346.9 627.44C346.9 628.739 347.337 629.999 348.14 631.02C348.735 631.838 349.216 632.733 349.57 633.68C347.328 632.883 345.165 631.879 343.11 630.68C342.769 629.648 342.6 628.567 342.61 627.48C342.567 625.293 343.269 623.156 344.6 621.42Z" fill="#00C7BA"/>
<path d="M354.08 627.4C354.049 625.231 354.754 623.116 356.08 621.4C356.883 620.379 357.32 619.118 357.32 617.82C357.32 616.521 356.883 615.26 356.08 614.24C354.782 612.509 354.08 610.404 354.08 608.24C354.08 606.076 354.782 603.971 356.08 602.24C356.883 601.219 357.32 599.958 357.32 598.66C357.32 597.361 356.883 596.1 356.08 595.08C354.751 593.365 354.046 591.249 354.08 589.08C354.076 588.247 354.177 587.417 354.38 586.61C356.51 584.953 358.801 583.515 361.22 582.32C360.863 583.46 360.323 584.534 359.62 585.5C358.811 586.517 358.37 587.779 358.37 589.08C358.37 590.38 358.811 591.642 359.62 592.66C360.919 594.391 361.62 596.496 361.62 598.66C361.62 600.823 360.919 602.929 359.62 604.66C358.811 605.676 358.371 606.936 358.371 608.235C358.371 609.533 358.811 610.794 359.62 611.81C360.909 613.545 361.605 615.648 361.605 617.81C361.605 619.971 360.909 622.075 359.62 623.81C358.811 624.827 358.37 626.089 358.37 627.39C358.37 628.69 358.811 629.952 359.62 630.97C360.625 632.312 361.272 633.888 361.5 635.55H360.5C359.381 635.547 358.263 635.484 357.15 635.36C356.912 634.64 356.557 633.965 356.1 633.36C354.773 631.658 354.061 629.558 354.08 627.4Z" fill="#00C7BA"/>
<path d="M365.539 627.4C365.508 625.232 366.214 623.117 367.539 621.4C368.342 620.38 368.779 619.119 368.779 617.82C368.779 616.522 368.342 615.261 367.539 614.24C366.241 612.509 365.539 610.404 365.539 608.24C365.539 606.076 366.241 603.971 367.539 602.24C368.342 601.22 368.779 599.959 368.779 598.66C368.779 597.362 368.342 596.101 367.539 595.08C366.253 593.354 365.558 591.258 365.558 589.105C365.558 586.952 366.253 584.857 367.539 583.13C367.921 582.61 368.24 582.046 368.489 581.45L372.799 581.96C372.466 583.248 371.889 584.46 371.099 585.53C370.297 586.551 369.86 587.812 369.86 589.11C369.86 590.409 370.297 591.67 371.099 592.69C372.398 594.421 373.099 596.526 373.099 598.69C373.099 600.854 372.398 602.959 371.099 604.69C370.296 605.708 369.859 606.968 369.859 608.265C369.859 609.562 370.296 610.822 371.099 611.84C372.389 613.575 373.085 615.679 373.085 617.84C373.085 620.002 372.389 622.105 371.099 623.84C370.297 624.861 369.86 626.122 369.86 627.42C369.86 628.719 370.297 629.98 371.099 631C371.898 632.078 372.479 633.3 372.809 634.6C371.419 634.83 369.989 635.02 368.519 635.18C368.271 634.54 367.935 633.937 367.519 633.39C366.201 631.675 365.503 629.563 365.539 627.4Z" fill="#00C7BA"/>
<path d="M328.32 526.78C327.075 525.762 325.477 525.279 323.876 525.436C322.276 525.594 320.803 526.379 319.78 527.62L299.99 551.62C298.99 552.81 299.37 556.35 300.55 557.33L302.98 559.33C303.757 559.963 304.752 560.262 305.749 560.163C306.746 560.064 307.663 559.574 308.3 558.8L329.16 535.28C330.165 534.037 330.641 532.449 330.484 530.858C330.327 529.267 329.549 527.802 328.32 526.78Z" fill="#B59FFF"/>
<path d="M317 543.29L321.61 568.69V586.2C321.61 591.77 318.99 601.81 324.81 612.38C337.59 607.05 339.81 601.99 346.46 594.24C336.37 576.48 327.4 560.87 317 543.29Z" fill="#4420D8"/>
<path d="M325.179 506.87C326.709 502.75 328.779 497.97 329.689 495.92V495.74C331.689 489.28 334.48 487.32 340.64 487.14C346.8 486.95 351.899 488.9 352.089 495.06L352.429 506.33C352.509 509.138 351.527 511.873 349.679 513.99L347.769 524.99L334.769 525.38L336.109 516.6C334.462 515.744 333.051 514.493 332.004 512.959C330.957 511.425 330.306 509.656 330.109 507.81L326.23 507.93C325.61 508 324.999 507.43 325.179 506.87Z" fill="#B59FFF"/>
<path d="M332.39 507.77L329.95 507.85L330.19 509.22L332.55 509.15L338.09 514.16L338.92 513.23" fill="#D9D8E1"/>
<path d="M332.29 486.26C345.58 481.84 357.81 484.88 356.77 502.72C358.062 504.327 358.723 506.35 358.63 508.41C358.36 512.93 357.34 514.41 359.4 516.61C361.46 518.81 360.7 521.8 360.34 522.81C359.98 523.82 363.9 526.45 363.73 530.56H347L347.43 513.12C347.262 512.402 347.178 511.667 347.18 510.93C347.18 505.22 345.8 503.25 343.48 501.32C341.16 499.39 342.48 494.69 342.48 494.69C339.65 494.561 336.851 494.046 334.16 493.16C329.69 491.7 332.29 486.26 332.29 486.26Z" fill="#D9D8E1"/>
<path d="M331.3 496.91L331.38 498.62L335.88 498.9L338.27 499.89L338.51 498.91L336.03 497.36L331.3 496.91Z" fill="#D9D8E1"/>
<path d="M335.76 501.46C335.76 501.46 333.09 498.9 331.06 501.46C331.06 501.46 332.87 503.45 335.76 501.46Z" fill="white"/>
<path d="M332.749 502.36C333.313 502.36 333.769 501.903 333.769 501.34C333.769 500.776 333.313 500.32 332.749 500.32C332.186 500.32 331.729 500.776 331.729 501.34C331.729 501.903 332.186 502.36 332.749 502.36Z" fill="#373382"/>
<path d="M334.439 510.86L334.899 514.16L337.429 513.91L337.169 512.85L334.439 510.86Z" fill="#D9D8E1"/>
<path d="M304.17 561.81C307.4 560.95 309.23 557.23 308.25 553.53L297.52 518C297.448 517.611 297.3 517.239 297.083 516.907C296.867 516.576 296.587 516.29 296.26 516.067C295.933 515.844 295.565 515.688 295.177 515.607C294.789 515.527 294.389 515.525 294 515.6L291 516.41C289.984 516.765 289.149 517.505 288.673 518.47C288.198 519.435 288.122 520.549 288.46 521.57L296.55 556.65C297.5 560.35 301 562.67 304.17 561.81Z" fill="#B59FFF"/>
<path d="M295 507.81C294.866 507.841 294.74 507.899 294.629 507.981C294.519 508.063 294.427 508.167 294.358 508.286C294.29 508.405 294.246 508.537 294.231 508.674C294.216 508.811 294.229 508.949 294.27 509.08L295.46 513.55H295.31L294.68 513.72L294.04 511.29L293.94 510.95L292.09 503.95C292.06 503.839 292.009 503.735 291.939 503.644C291.87 503.553 291.783 503.476 291.683 503.419C291.584 503.361 291.474 503.324 291.36 503.308C291.247 503.293 291.131 503.301 291.02 503.33C290.909 503.36 290.805 503.411 290.714 503.481C290.622 503.55 290.546 503.637 290.488 503.737C290.431 503.836 290.393 503.946 290.378 504.06C290.363 504.174 290.37 504.289 290.4 504.4L291.97 510.3L291.2 510.51L289.5 504.14C289.44 503.916 289.294 503.725 289.093 503.609C288.893 503.492 288.654 503.461 288.43 503.52C288.206 503.58 288.015 503.726 287.898 503.927C287.782 504.127 287.75 504.366 287.81 504.59L289.51 510.96L288.81 511.14L287.37 505.74C287.31 505.516 287.164 505.325 286.963 505.209C286.763 505.092 286.524 505.061 286.3 505.12C286.076 505.18 285.885 505.326 285.768 505.527C285.652 505.727 285.62 505.966 285.68 506.19L287.12 511.59L286.88 511.66C286.724 511.7 286.573 511.757 286.43 511.83L285.43 508.12C285.369 507.897 285.222 507.707 285.022 507.591C284.822 507.475 284.584 507.442 284.36 507.5C284.249 507.53 284.146 507.582 284.056 507.652C283.965 507.722 283.89 507.809 283.833 507.909C283.776 508.008 283.74 508.118 283.726 508.231C283.711 508.345 283.72 508.46 283.75 508.57L285.29 514.38L285.69 515.89L286.06 517.26C286.433 518.639 287.336 519.815 288.572 520.531C289.809 521.246 291.278 521.444 292.66 521.08L294.22 520.66H294.3L295.55 520.33C296.512 520.068 297.332 519.436 297.831 518.573C298.331 517.711 298.471 516.685 298.22 515.72L298.16 515.49L298.06 515.11L296.29 508.5C296.255 508.368 296.193 508.244 296.107 508.136C296.022 508.028 295.916 507.939 295.795 507.875C295.674 507.81 295.541 507.771 295.404 507.76C295.267 507.749 295.13 507.766 295 507.81Z" fill="#B59FFF"/>
<path d="M327.34 523.47H362.19C366.77 523.47 370.51 526.74 370.51 530.74L367.21 553.85C367.21 553.85 369.21 569.37 363.94 593.63C360.739 590.494 358.01 586.91 355.84 582.99H347.18C338.873 570.243 330.48 557.55 322 544.91L319 530.74C319 526.74 322.76 523.47 327.34 523.47Z" fill="#4420D8"/>
<path d="M310.74 538.26L319.19 528L357.44 584.54C357.44 584.54 363.78 592.54 365.04 596.04C366.455 602.089 369.325 607.701 373.4 612.39C353.65 609.75 346.94 595.39 346.94 595.39L310.74 538.26Z" fill="#FFBE44"/>
<path d="M364.39 578.81C364.39 575.47 361.26 572.74 357.44 572.74L320.32 574C319.927 573.973 319.532 574.024 319.158 574.149C318.784 574.275 318.439 574.473 318.142 574.732C317.845 574.991 317.601 575.306 317.426 575.659C317.251 576.013 317.147 576.397 317.12 576.79V579.94C317.202 581.011 317.702 582.007 318.512 582.713C319.323 583.418 320.378 583.776 321.45 583.71L357.45 584.93C361.26 584.88 364.39 582.15 364.39 578.81Z" fill="#B59FFF"/>
<path d="M309.85 573.77C309.85 574.035 309.956 574.29 310.143 574.477C310.331 574.665 310.585 574.77 310.85 574.77H315.48C315.475 574.82 315.475 574.87 315.48 574.92V575.6H305.43C305.307 575.587 305.183 575.6 305.066 575.638C304.948 575.676 304.84 575.738 304.748 575.821C304.656 575.903 304.583 576.004 304.533 576.117C304.483 576.23 304.457 576.352 304.457 576.475C304.457 576.599 304.483 576.721 304.533 576.834C304.583 576.946 304.656 577.047 304.748 577.13C304.84 577.212 304.948 577.275 305.066 577.313C305.183 577.35 305.307 577.363 305.43 577.35H311.54V578.15H305C304.784 578.173 304.584 578.275 304.439 578.437C304.294 578.598 304.214 578.808 304.214 579.025C304.214 579.242 304.294 579.452 304.439 579.613C304.584 579.775 304.784 579.877 305 579.9H311.59V580.62H306C305.877 580.607 305.753 580.62 305.636 580.658C305.518 580.696 305.41 580.758 305.318 580.841C305.226 580.923 305.153 581.024 305.103 581.137C305.052 581.25 305.027 581.372 305.027 581.495C305.027 581.619 305.052 581.741 305.103 581.854C305.153 581.966 305.226 582.067 305.318 582.15C305.41 582.232 305.518 582.295 305.636 582.333C305.753 582.371 305.877 582.383 306 582.37H311.59V582.62C311.575 582.78 311.575 582.941 311.59 583.1H307.75C307.519 583.1 307.298 583.192 307.135 583.355C306.972 583.518 306.88 583.739 306.88 583.97C306.88 584.201 306.972 584.422 307.135 584.585C307.298 584.749 307.519 584.84 307.75 584.84H316.75C318.179 584.838 319.548 584.269 320.559 583.259C321.569 582.248 322.138 580.879 322.14 579.45V576.45C322.138 575.451 321.739 574.494 321.033 573.787C320.327 573.081 319.369 572.683 318.37 572.68H310.9C310.757 572.672 310.613 572.696 310.48 572.748C310.346 572.801 310.225 572.882 310.126 572.985C310.026 573.088 309.95 573.212 309.902 573.348C309.855 573.483 309.837 573.627 309.85 573.77Z" fill="#B59FFF"/>
<path d="M349.71 505.25L346.61 504.47L342.83 511.25C342.526 511.799 342.081 512.256 341.542 512.576C341.002 512.896 340.387 513.066 339.76 513.07H334.13C333.755 513.05 333.392 512.931 333.077 512.726C332.763 512.52 332.508 512.235 332.34 511.9L331.88 510.99H330.88L327 530.15C326.864 530.777 326.873 531.428 327.027 532.051C327.18 532.675 327.474 533.255 327.886 533.748C328.298 534.241 328.817 534.633 329.403 534.895C329.989 535.157 330.628 535.282 331.27 535.26L334.6 535.16C334.826 535.156 335.046 535.088 335.236 534.964C335.425 534.84 335.576 534.665 335.67 534.46L343.51 518.11L349.71 505.25Z" fill="#D9D8E1"/>
<path d="M187.5 482.54C185.564 482.54 183.647 482.159 181.859 481.418C180.071 480.677 178.446 479.591 177.077 478.223C175.708 476.854 174.623 475.229 173.882 473.441C173.141 471.652 172.76 469.735 172.76 467.8V443.8H202.24V467.8C202.24 471.709 200.687 475.458 197.923 478.223C195.158 480.987 191.409 482.54 187.5 482.54Z" fill="#160E6B"/>
<path d="M219.82 465.76C220.387 465.672 220.916 465.418 221.34 465.03C221.683 464.553 221.897 463.995 221.96 463.41L222.32 463.51C222.408 464.078 222.662 464.606 223.05 465.03C223.527 465.374 224.085 465.587 224.67 465.65L224.57 466.01C224.002 466.099 223.474 466.353 223.05 466.74C222.711 467.22 222.498 467.777 222.43 468.36L222.08 468.26C221.984 467.693 221.727 467.165 221.34 466.74C220.863 466.396 220.304 466.183 219.72 466.12L219.82 465.76Z" fill="white"/>
<path d="M192.4 496.27C192.691 496.223 192.963 496.091 193.18 495.89C193.352 495.648 193.459 495.365 193.49 495.07L193.67 495.12C193.718 495.408 193.85 495.676 194.05 495.89C194.292 496.064 194.574 496.174 194.87 496.21L194.82 496.39C194.532 496.433 194.263 496.562 194.05 496.76C193.877 497.006 193.767 497.291 193.73 497.59H193.55C193.504 497.3 193.376 497.029 193.18 496.81C192.933 496.639 192.648 496.532 192.35 496.5L192.4 496.27Z" fill="white"/>
<path d="M161.3 471.36C161.588 471.317 161.856 471.188 162.07 470.99C162.248 470.746 162.358 470.46 162.39 470.16H162.57C162.615 470.45 162.744 470.721 162.94 470.94C163.186 471.111 163.472 471.218 163.77 471.25L163.72 471.43C163.429 471.481 163.159 471.613 162.94 471.81C162.767 472.052 162.66 472.335 162.63 472.63L162.45 472.58C162.402 472.292 162.269 472.024 162.07 471.81C161.828 471.636 161.546 471.526 161.25 471.49L161.3 471.36Z" fill="white"/>
<path d="M142.59 465.82C142.878 465.777 143.146 465.648 143.36 465.45C143.533 465.208 143.64 464.926 143.67 464.63L143.86 464.68C143.903 464.968 144.032 465.236 144.23 465.45C144.472 465.623 144.754 465.73 145.05 465.76L145 466C144.712 466.043 144.444 466.172 144.23 466.37C144.057 466.612 143.95 466.894 143.92 467.19L143.73 467.14C143.687 466.852 143.558 466.584 143.36 466.37C143.118 466.197 142.836 466.09 142.54 466.06L142.59 465.82Z" fill="white"/>
<path d="M138.76 493.05C139.046 493.002 139.313 492.874 139.53 492.68C139.701 492.434 139.808 492.148 139.84 491.85H140.03C140.075 492.14 140.204 492.411 140.4 492.63C140.642 492.803 140.924 492.91 141.22 492.94L141.17 493.12C140.882 493.168 140.614 493.301 140.4 493.5C140.227 493.742 140.12 494.024 140.09 494.32L139.9 494.27C139.857 493.982 139.728 493.714 139.53 493.5C139.291 493.321 139.007 493.211 138.71 493.18L138.76 493.05Z" fill="white"/>
<path d="M142.59 515C142.878 514.957 143.146 514.828 143.36 514.63C143.531 514.384 143.638 514.098 143.67 513.8H143.86C143.905 514.09 144.034 514.361 144.23 514.58C144.472 514.753 144.754 514.86 145.05 514.89L145 515.07C144.712 515.118 144.444 515.25 144.23 515.45C144.057 515.692 143.95 515.974 143.92 516.27H143.73C143.687 515.982 143.558 515.714 143.36 515.5C143.121 515.321 142.837 515.21 142.54 515.18L142.59 515Z" fill="white"/>
<path d="M234.72 525.2C235.008 525.152 235.276 525.019 235.49 524.82C235.664 524.578 235.774 524.296 235.81 524H235.99C236.033 524.288 236.162 524.556 236.36 524.77C236.604 524.948 236.89 525.058 237.19 525.09L237.14 525.27C236.851 525.321 236.582 525.448 236.36 525.64C236.189 525.886 236.082 526.172 236.05 526.47H235.87C235.819 526.179 235.687 525.909 235.49 525.69C235.248 525.517 234.966 525.41 234.67 525.38L234.72 525.2Z" fill="white"/>
<path d="M198.9 522C199.188 521.951 199.456 521.819 199.67 521.62C199.842 521.378 199.949 521.095 199.98 520.8H200.17C200.213 521.088 200.342 521.356 200.54 521.57C200.779 521.749 201.062 521.859 201.36 521.89L201.31 522.07C201.022 522.113 200.753 522.242 200.54 522.44C200.368 522.686 200.262 522.972 200.23 523.27H200.04C199.994 522.98 199.866 522.709 199.67 522.49C199.428 522.317 199.145 522.21 198.85 522.18L198.9 522Z" fill="white"/>
<path d="M162.52 503.18C162.806 503.132 163.073 503.003 163.29 502.81C163.461 502.564 163.568 502.278 163.6 501.98H163.79C163.835 502.27 163.964 502.541 164.16 502.76C164.402 502.933 164.684 503.04 164.98 503.07V503.25C164.691 503.298 164.424 503.43 164.21 503.63C164.036 503.872 163.926 504.154 163.89 504.45L163.71 504.4C163.667 504.112 163.538 503.844 163.34 503.63C163.097 503.45 162.81 503.339 162.51 503.31L162.52 503.18Z" fill="white"/>
<path d="M251.39 479.77C251.68 479.724 251.951 479.596 252.17 479.4C252.341 479.153 252.448 478.868 252.48 478.57L252.66 478.62C252.707 478.912 252.839 479.183 253.04 479.4C253.282 479.573 253.564 479.679 253.86 479.71L253.81 479.89C253.521 479.938 253.254 480.07 253.04 480.27C252.861 480.509 252.75 480.793 252.72 481.09H252.54C252.497 480.802 252.368 480.534 252.17 480.32C251.923 480.147 251.638 480.037 251.34 480L251.39 479.77Z" fill="white"/>
<path d="M120.3 509.23C120.59 509.179 120.861 509.047 121.08 508.85C121.253 508.608 121.359 508.325 121.39 508.03L121.57 508.08C121.618 508.368 121.75 508.636 121.95 508.85C122.189 509.029 122.473 509.139 122.77 509.17V509.35C122.481 509.398 122.214 509.53 122 509.73C121.826 509.972 121.716 510.254 121.68 510.55L121.5 510.5C121.457 510.212 121.328 509.943 121.13 509.73C120.886 509.552 120.6 509.442 120.3 509.41V509.23Z" fill="white"/>
<path d="M219.6 503.36C219.89 503.315 220.161 503.186 220.38 502.99C220.551 502.744 220.657 502.458 220.69 502.16H220.87C220.92 502.451 221.052 502.721 221.25 502.94C221.491 503.113 221.774 503.22 222.07 503.25V503.43C221.781 503.479 221.513 503.611 221.3 503.81C221.126 504.052 221.016 504.334 220.98 504.63L220.8 504.58C220.756 504.292 220.627 504.024 220.43 503.81C220.186 503.633 219.9 503.522 219.6 503.49V503.36Z" fill="white"/>
<path d="M251.73 503.3C252.297 503.212 252.826 502.958 253.25 502.57C253.587 502.091 253.797 501.533 253.86 500.95L254.22 501.05C254.316 501.617 254.573 502.145 254.96 502.57C255.438 502.91 255.996 503.12 256.58 503.18L256.48 503.54C255.911 503.63 255.382 503.888 254.96 504.28C254.614 504.756 254.4 505.315 254.34 505.9L253.98 505.8C253.891 505.233 253.637 504.704 253.25 504.28C252.773 503.937 252.215 503.723 251.63 503.66L251.73 503.3Z" fill="white"/>
<path d="M162.61 522.66C163.177 522.571 163.706 522.318 164.13 521.93C164.467 521.45 164.677 520.893 164.74 520.31L165.1 520.41C165.196 520.977 165.452 521.505 165.84 521.93C166.317 522.274 166.875 522.487 167.46 522.55L167.36 522.91C166.792 522.999 166.264 523.253 165.84 523.64C165.496 524.117 165.282 524.675 165.22 525.26L164.86 525.16C164.771 524.593 164.517 524.064 164.13 523.64C163.653 523.296 163.094 523.083 162.51 523.02L162.61 522.66Z" fill="white"/>
<path d="M120.15 475C120.717 474.911 121.246 474.657 121.67 474.27C122.007 473.79 122.217 473.233 122.28 472.65L122.64 472.75C122.736 473.317 122.993 473.845 123.38 474.27C123.856 474.616 124.415 474.83 125 474.89L124.9 475.25C124.332 475.338 123.804 475.592 123.38 475.98C123.036 476.457 122.822 477.015 122.76 477.6L122.4 477.5C122.311 476.932 122.057 476.404 121.67 475.98C121.19 475.641 120.633 475.428 120.05 475.36L120.15 475Z" fill="white"/>
<path d="M251.39 539C251.68 538.954 251.951 538.826 252.17 538.63C252.341 538.384 252.448 538.098 252.48 537.8L252.66 537.85C252.707 538.142 252.839 538.413 253.04 538.63C253.282 538.803 253.564 538.909 253.86 538.94L253.81 539.12C253.521 539.168 253.254 539.3 253.04 539.5C252.861 539.739 252.75 540.023 252.72 540.32H252.54C252.497 540.032 252.368 539.763 252.17 539.55C251.923 539.377 251.638 539.267 251.34 539.23L251.39 539Z" fill="white"/>
<path d="M123.6 537.72C123.888 537.677 124.156 537.548 124.37 537.35C124.544 537.108 124.654 536.826 124.69 536.53L124.87 536.58C124.913 536.868 125.042 537.137 125.24 537.35C125.486 537.521 125.771 537.628 126.07 537.66V537.85C125.779 537.896 125.508 538.024 125.29 538.22C125.117 538.462 125.01 538.745 124.98 539.04H124.8C124.751 538.752 124.619 538.484 124.42 538.27C124.178 538.097 123.895 537.991 123.6 537.96V537.72Z" fill="white"/>
<path d="M233.46 484.71C233.748 484.667 234.016 484.538 234.23 484.34C234.41 484.097 234.521 483.81 234.55 483.51L234.73 483.57C234.773 483.858 234.902 484.126 235.1 484.34C235.346 484.511 235.632 484.618 235.93 484.65L235.88 484.84C235.59 484.885 235.319 485.014 235.1 485.21C234.927 485.451 234.82 485.734 234.79 486.03H234.61C234.562 485.741 234.43 485.474 234.23 485.26C233.988 485.086 233.706 484.976 233.41 484.94L233.46 484.71Z" fill="white"/>
<path d="M222.2 269C222.2 269 313.05 147.4 441.53 265.39C441.53 265.36 337 373 222.2 269Z" fill="#7861D8"/>
<path d="M248.71 267.77C248.71 267.77 317.59 175.58 415 265C415 265 335.71 346.63 248.71 267.77Z" fill="#42E8D4"/>
<path d="M271.41 266.74C271.41 266.74 321.47 199.74 392.28 264.74C392.28 264.75 334.65 324.06 271.41 266.74Z" fill="#04B1A5"/>
<path d="M-66.5303 269C-66.5303 269 24.3197 147.4 152.8 265.39C152.8 265.36 48.2297 373 -66.5303 269Z" fill="#7861D8"/>
<path d="M-40 267.77C-40 267.77 28.86 175.58 126.27 265C126.27 265 47 346.63 -40 267.77Z" fill="#42E8D4"/>
<path d="M-17.3203 266.74C-17.3203 266.74 32.7397 199.74 103.55 264.74C103.55 264.75 45.9197 324.06 -17.3203 266.74Z" fill="#04B1A5"/>
<path d="M142.26 233.35C142.407 249.677 139.318 265.871 133.172 280.998C127.026 296.124 117.943 309.883 106.45 321.48C94.9569 333.078 81.2801 342.283 66.2094 348.565C51.1388 354.847 34.973 358.082 18.6454 358.082C2.31787 358.082 -13.848 354.847 -28.9186 348.565C-43.9892 342.283 -57.666 333.078 -69.1593 321.48C-80.6526 309.883 -89.7347 296.124 -95.8811 280.998C-102.027 265.871 -105.116 249.677 -104.97 233.35H-158.06C-158.06 274.193 -141.835 313.364 -112.954 342.245C-84.0734 371.125 -44.9029 387.35 -4.05957 387.35C16.164 387.35 36.1895 383.367 54.8737 375.628C73.5578 367.888 90.5347 356.545 104.835 342.245C119.135 327.944 130.479 310.967 138.218 292.283C145.957 273.599 149.94 253.574 149.94 233.35H142.26Z" fill="#160E6B"/>
<path d="M224.5 233.35C224.5 274.193 240.725 313.364 269.606 342.245C298.486 371.125 337.657 387.35 378.5 387.35C419.343 387.35 458.514 371.125 487.394 342.245C516.275 313.364 532.5 274.193 532.5 233.35H479.4C479.547 249.677 476.458 265.871 470.311 280.998C464.165 296.124 455.083 309.883 443.59 321.48C432.096 333.078 418.42 342.283 403.349 348.565C388.278 354.847 372.113 358.082 355.785 358.082C339.457 358.082 323.292 354.847 308.221 348.565C293.15 342.283 279.474 333.078 267.98 321.48C256.487 309.883 247.405 296.124 241.258 280.998C235.112 265.871 232.023 249.677 232.17 233.35H224.5Z" fill="#160E6B"/>
<path d="M151.29 233.35C151.447 251.95 147.919 270.397 140.909 287.626C133.9 304.855 123.548 320.526 110.451 333.734C97.3541 346.942 81.7712 357.425 64.6016 364.579C47.4321 371.734 29.0157 375.417 10.4152 375.417C-8.18534 375.417 -26.6017 371.734 -43.7713 364.579C-60.9409 357.425 -76.5238 346.942 -89.6208 333.734C-102.718 320.526 -113.07 304.855 -120.079 287.626C-127.088 270.397 -130.617 251.95 -130.46 233.35H-104C-104.012 249.586 -100.817 265.664 -94.5991 280.662C-88.3811 295.66 -79.2623 309.282 -67.7661 320.747C-56.2699 332.212 -42.6226 341.293 -27.6076 347.47C-12.5926 353.646 3.49446 356.797 19.7302 356.74C74.2802 356.74 118.19 321.96 134.73 272.98C139.473 260.307 141.895 246.882 141.88 233.35V224.62L151.95 229.15L151.3 233.35" fill="#3317A5"/>
<path d="M223.16 233.35C223.004 251.95 226.532 270.397 233.541 287.626C240.55 304.855 250.902 320.526 263.999 333.734C277.096 346.941 292.679 357.425 309.849 364.579C327.018 371.733 345.435 375.417 364.035 375.417C382.636 375.417 401.052 371.733 418.222 364.579C435.391 357.425 450.974 346.941 464.071 333.734C477.168 320.526 487.52 304.855 494.529 287.626C501.539 270.397 505.067 251.95 504.91 233.35H478.59C478.59 301.76 423.13 356.74 354.72 356.74C300.17 356.74 256.25 321.96 239.72 272.98C234.985 260.304 232.567 246.881 232.58 233.35V224.23L223.19 233.35" fill="#3317A5"/>
<path d="M4.00027 175.89C4.19123 175.89 4.37436 175.814 4.50939 175.679C4.64442 175.544 4.72027 175.361 4.72027 175.17C4.72027 174.979 4.64442 174.796 4.50939 174.661C4.37436 174.526 4.19123 174.45 4.00027 174.45C3.80932 174.45 3.62618 174.526 3.49116 174.661C3.35613 174.796 3.28027 174.979 3.28027 175.17C3.28027 175.361 3.35613 175.544 3.49116 175.679C3.62618 175.814 3.80932 175.89 4.00027 175.89Z" fill="#FF3F25"/>
<path d="M149.55 236.29L139.18 335.86C138.931 338.478 139.236 341.119 140.076 343.611C140.915 346.103 142.27 348.39 144.052 350.324C145.834 352.258 148.003 353.795 150.418 354.835C152.833 355.875 155.44 356.394 158.07 356.36H216.93C219.504 356.393 222.057 355.896 224.43 354.899C226.803 353.902 228.946 352.427 230.724 350.565C232.502 348.704 233.877 346.496 234.764 344.08C235.651 341.663 236.031 339.09 235.88 336.52L224.4 236.43L149.55 236.29Z" fill="#CBB8FF"/>
<path d="M140.45 286.39C140.45 286.39 153.09 241 187.51 241C221.93 241 234.51 286.4 234.51 286.4L239.4 282.11L228.22 232.84H146.72L140.45 286.39Z" fill="#3317A5"/>
<path d="M405.64 471.62L340.32 378.07C333.001 370.104 324.108 363.744 314.203 359.394C304.298 355.045 293.598 352.799 282.78 352.8H195.34L193.61 405.69H288.05L356.39 486.76L357.8 975.76H389.28L405.64 471.57V471.62Z" fill="#373382"/>
<path d="M92.2204 352.8C81.4025 352.799 70.7023 355.045 60.7976 359.394C50.8928 363.744 41.9993 370.104 34.6804 378.07L-30.6396 471.62L-14.2396 976.23H17.2004L18.6104 486.8L87.0004 405.69H181.44L179.71 352.8H92.2204Z" fill="#373382"/>
<path d="M-16.5908 463.7C-16.5908 463.7 12.9192 457 4.49919 413C4.49919 413 -33.3308 434.86 -16.5908 463.7Z" fill="#FFBE44"/>
<path d="M-16.5908 463.7C-16.5908 463.7 8.99918 479.85 34.1492 442.79C34.1492 442.79 -8.00082 431.47 -16.5908 463.7Z" fill="#EA9F32"/>
<path d="M-16.5908 463.7C-16.5908 463.7 -9.92082 493.21 34.0792 484.79C34.0792 484.79 12.2492 447 -16.5908 463.7Z" fill="#FFBE44"/>
<path d="M-15.5505 461.86C-15.5505 461.86 -36.4205 483.78 -5.00046 515.72C-5.00046 515.72 14.3695 476.59 -15.5505 461.86Z" fill="#EA9F32"/>
<path d="M391.59 463.7C391.59 463.7 362.08 457 370.5 413C370.5 413 408.33 434.86 391.59 463.7Z" fill="#FFBE44"/>
<path d="M391.59 463.7C391.59 463.7 366 479.85 340.85 442.79C340.85 442.79 383 431.47 391.59 463.7Z" fill="#EA9F32"/>
<path d="M391.59 463.7C391.59 463.7 384.92 493.21 340.92 484.79C340.92 484.79 362.75 447 391.59 463.7Z" fill="#FFBE44"/>
<path d="M390.55 461.86C390.55 461.86 411.42 483.78 380.02 515.72C380 515.72 360.63 476.59 390.55 461.86Z" fill="#EA9F32"/>
<path d="M197.91 346.16C197.66 346.44 197.41 346.73 197.18 347.03C187.4 359.48 200.55 380.79 202.66 383.71C202.719 381.062 203.109 378.431 203.82 375.88C207.46 381.42 211.48 386.01 214.35 387.27C214.435 382.652 215.403 378.094 217.2 373.84C217.808 376.051 218.804 378.136 220.14 380C221.273 373.011 223.44 366.23 226.57 359.88C227.629 358.275 228.212 356.403 228.25 354.48C228.25 345.48 220.77 341.38 211.56 341.38C205.98 341.38 201.04 342.88 198.01 346.06L197.91 346.16Z" fill="#FF3F25"/>
<path opacity="0.35" d="M210.8 378.58C210.8 373.32 209.95 368.78 211.97 365.65C212.71 368.19 215.5 369.54 217.37 370.12C216.94 363.22 219.77 357.93 222.48 353.66C223.48 352.46 224.3 348.76 224.3 347.66C224.3 342.94 217.77 341.34 212.07 341.34C206.37 341.34 199.25 343.52 197.86 349.97C195.38 361.5 204 374.7 210.8 378.58Z" fill="#FFBE44"/>
<path d="M209.24 364.32C209.832 361.447 210.842 358.678 212.24 356.1C212.68 357.88 213.39 359.55 214.5 359.95C214.25 355.13 216.26 351.21 217.88 348.22C218.414 347.552 218.737 346.741 218.81 345.89C218.81 342.58 214.93 341.47 211.54 341.47C208.15 341.47 203.91 342.99 203.08 347.47C201.63 355.55 205.22 361.61 209.24 364.32Z" fill="#FFBE44"/>
<path d="M177.09 346.16C177.34 346.44 177.59 346.73 177.82 347.03C187.6 359.48 174.45 380.79 172.34 383.71C172.281 381.062 171.891 378.431 171.18 375.88C167.54 381.42 163.52 386.01 160.65 387.27C160.565 382.652 159.598 378.094 157.8 373.84C157.192 376.051 156.196 378.136 154.86 380C153.727 373.011 151.56 366.23 148.43 359.88C147.371 358.275 146.788 356.403 146.75 354.48C146.75 345.48 154.23 341.38 163.44 341.38C169.02 341.38 173.96 342.88 176.99 346.06L177.09 346.16Z" fill="#FF3F25"/>
<path opacity="0.35" d="M164.2 378.58C164.2 373.32 165.05 368.78 163.03 365.65C162.29 368.19 159.5 369.54 157.63 370.12C158.06 363.22 155.23 357.93 152.52 353.66C151.52 352.46 150.7 348.76 150.7 347.66C150.7 342.94 157.23 341.34 162.93 341.34C168.63 341.34 175.75 343.52 177.14 349.97C179.62 361.5 171 374.7 164.2 378.58Z" fill="#FFBE44"/>
<path d="M165.76 364.32C165.169 361.447 164.158 358.678 162.76 356.1C162.32 357.88 161.61 359.55 160.5 359.95C160.75 355.13 158.74 351.21 157.12 348.22C156.587 347.552 156.263 346.741 156.19 345.89C156.19 342.58 160.07 341.47 163.46 341.47C166.85 341.47 171.09 342.99 171.92 347.47C173.37 355.55 169.78 361.61 165.76 364.32Z" fill="#FFBE44"/>
<path d="M187.5 504.81L-427.17 975.81H802.16L187.5 504.81Z" fill="#160E6B"/>
<path opacity="0.3" d="M187.5 504.81L-56.1797 994.67L112.16 993.19L187.5 504.81Z" fill="#3317A5"/>
<path opacity="0.3" d="M187.5 504.81L431.18 994.67L262.84 993.19L187.5 504.81Z" fill="#3317A5"/>
<path d="M261.84 559.82C262.692 559.687 263.486 559.304 264.12 558.72C264.631 558.006 264.948 557.172 265.04 556.3L265.58 556.45C265.711 557.3 266.095 558.09 266.68 558.72C267.394 559.231 268.228 559.552 269.1 559.65L268.95 560.18C268.102 560.316 267.313 560.699 266.68 561.28C266.17 561.998 265.85 562.834 265.75 563.71L265.22 563.56C265.082 562.709 264.7 561.917 264.12 561.28C263.402 560.771 262.566 560.454 261.69 560.36L261.84 559.82Z" fill="white"/>
<path d="M103 563.62C103.429 563.547 103.828 563.352 104.15 563.06C104.415 562.696 104.577 562.268 104.62 561.82L104.9 561.9C104.97 562.333 105.165 562.736 105.46 563.06C105.823 563.318 106.247 563.48 106.69 563.53L106.61 563.8C106.179 563.868 105.779 564.063 105.46 564.36C105.196 564.72 105.034 565.145 104.99 565.59L104.71 565.52C104.643 565.086 104.448 564.682 104.15 564.36C103.786 564.101 103.363 563.94 102.92 563.89L103 563.62Z" fill="white"/>
<path d="M-3.87012 266C-3.87012 266 35.1299 220.28 90.1299 264.45C90.0799 264.42 45.1899 304.91 -3.87012 266Z" fill="white"/>
<path d="M45.4403 282.75C49.3944 282.295 53.1299 280.696 56.1897 278.151C59.2495 275.605 61.5009 272.223 62.6681 268.418C63.8354 264.612 63.8679 260.549 62.7618 256.726C61.6557 252.903 59.4589 249.484 56.4403 246.89C47.8715 244.78 38.938 244.623 30.3003 246.43C27.0278 249.051 24.639 252.613 23.4567 256.636C22.2745 260.658 22.3558 264.946 23.6898 268.921C25.0238 272.896 27.546 276.365 30.9155 278.86C34.285 281.354 38.3393 282.754 42.5303 282.87C43.5203 282.85 44.4803 282.81 45.4403 282.75Z" fill="#373382"/>
<path d="M43.1001 282.88C46.0508 282.883 48.9671 282.246 51.6481 281.013C54.3291 279.78 56.7111 277.981 58.6301 275.74C56.3017 270.388 54.6587 264.764 53.7401 259C52.3853 260.861 51.3697 262.946 50.7401 265.16C48.9473 260.904 47.9801 256.347 47.8901 251.73C45.0201 252.99 41.0101 257.58 37.3701 263.12C36.6541 260.569 36.2644 257.939 36.2101 255.29C34.8801 257.13 29.2101 266.24 27.5801 275.85C29.5078 278.071 31.8927 279.849 34.5714 281.062C37.2501 282.275 40.1594 282.895 43.1001 282.88Z" fill="#FF3F25"/>
<path opacity="0.35" d="M31.6602 279.39C34.824 281.519 38.5192 282.723 42.3298 282.866C46.1405 283.009 49.9156 282.086 53.2302 280.2C51.5405 276.662 50.7733 272.755 51.0002 268.84C49.1302 269.42 46.3402 270.77 45.6002 273.31C43.6002 270.18 44.4302 265.65 44.4302 260.38C39.4802 263.2 33.5702 271 31.6602 279.39Z" fill="#FFBE44"/>
<path d="M45.9004 282.69C46.7022 282.58 47.4968 282.423 48.2804 282.22C48.1164 281.159 48.0595 280.083 48.1104 279.01C47.0004 279.4 46.3504 281 45.9004 282.69Z" fill="#FFBE44"/>
<path d="M43.1003 282.88C43.9934 282.881 44.8855 282.821 45.7703 282.7C44.4141 280.166 43.4242 277.452 42.8303 274.64C40.2548 276.464 38.3253 279.059 37.3203 282.05C39.1972 282.603 41.1438 282.882 43.1003 282.88Z" fill="#FFBE44"/>
<path d="M284.86 266C284.86 266 323.86 220.28 378.81 264.45C378.81 264.42 333.92 304.91 284.86 266Z" fill="white"/>
<path d="M334.17 282.75C338.125 282.295 341.86 280.696 344.92 278.151C347.98 275.605 350.231 272.223 351.398 268.418C352.565 264.612 352.598 260.549 351.492 256.726C350.386 252.903 348.189 249.484 345.17 246.89C336.602 244.78 327.668 244.623 319.03 246.43C315.757 249.051 313.368 252.615 312.186 256.638C311.004 260.661 311.087 264.951 312.422 268.926C313.757 272.901 316.281 276.37 319.652 278.864C323.023 281.358 327.079 282.756 331.27 282.87C332.25 282.85 333.21 282.81 334.17 282.75Z" fill="#373382"/>
<path d="M331.83 282.88C334.781 282.883 337.697 282.246 340.378 281.013C343.059 279.78 345.441 277.981 347.36 275.74C345.032 270.388 343.389 264.764 342.47 259C341.134 260.864 340.139 262.949 339.53 265.16C337.728 260.908 336.76 256.348 336.68 251.73C333.8 252.99 329.79 257.58 326.15 263.12C325.434 260.569 325.045 257.939 324.99 255.29C323.66 257.13 317.99 266.24 316.36 275.85C318.283 278.064 320.659 279.838 323.329 281.051C325.999 282.265 328.898 282.888 331.83 282.88Z" fill="#FF3F25"/>
<path opacity="0.35" d="M320.391 279.39C323.554 281.519 327.25 282.723 331.06 282.866C334.871 283.009 338.646 282.086 341.961 280.2C340.257 276.666 339.476 272.758 339.691 268.84C337.821 269.42 335.031 270.77 334.291 273.31C332.291 270.18 333.121 265.65 333.121 260.38C328.211 263.2 322.301 271 320.391 279.39Z" fill="#FFBE44"/>
<path d="M334.631 282.69C335.433 282.58 336.227 282.423 337.011 282.22C336.845 281.159 336.792 280.083 336.851 279.01C335.771 279.4 335.081 281 334.631 282.69Z" fill="#FFBE44"/>
<path d="M331.831 282.88C332.724 282.881 333.616 282.821 334.501 282.7C333.145 280.166 332.155 277.452 331.561 274.64C328.985 276.464 327.056 279.059 326.051 282.05C327.928 282.603 329.874 282.882 331.831 282.88Z" fill="#FFBE44"/>
<path d="M232.71 0H141.95V233.31H232.71V0Z" fill="#3317A5"/>
</g>
<defs>
<clipPath id="clip0_5988:107285">
<rect width="375" height="832" fill="white"/>
</clipPath>
</defs>
</svg>
