<svg width="108" height="108" viewBox="0 0 108 108" fill="none" xmlns="http://www.w3.org/2000/svg">
<path d="M65.5403 66.3306V34.6406H58.1403V66.3306H53.3603V41.2506H46.0003V66.3306H41.1803V46.2206H33.7703V66.3306H31.0703V67.6106H68.4003V66.3306H65.5403Z" fill="#937DFF"/>
<path d="M50.323 21.1688C56.075 21.1429 61.7133 22.7712 66.5659 25.8598C71.4185 28.9483 75.281 33.3668 77.693 38.5888L72.933 40.1388L79.743 44.4688C79.743 44.5288 79.743 44.5488 79.743 44.6088H79.843L82.183 46.0988L83.003 43.8388H83.083C83.083 43.8388 83.083 43.7888 83.083 43.7288L86.083 35.9088L81.003 37.4988C78.0698 30.9921 73.1443 25.5862 66.9378 22.0618C60.7314 18.5375 53.5653 17.0772 46.4747 17.8919C39.3841 18.7066 32.7359 21.7541 27.4905 26.5941C22.2451 31.4342 18.674 37.8164 17.293 44.8188L20.663 45.4788C22.0481 38.6294 25.7567 32.4687 31.1614 28.0389C36.566 23.6091 43.3349 21.1822 50.323 21.1688Z" fill="#B59FFF"/>
<path d="M30.6027 51.1297C34.3777 51.1237 38.0664 49.9993 41.2027 47.8982C44.3391 45.7972 46.7826 42.8139 48.2245 39.3251C49.6664 35.8362 50.0421 31.9983 49.3042 28.2961C48.5662 24.5939 46.7477 21.1933 44.0784 18.524C41.409 15.8546 38.0085 14.0361 34.3062 13.2982C30.604 12.5602 26.7661 12.9359 23.2773 14.3779C19.7884 15.8198 16.8051 18.2632 14.7041 21.3996C12.6031 24.536 11.4786 28.2246 11.4727 31.9997C11.4713 34.5122 11.9653 37.0004 12.9262 39.322C13.8871 41.6435 15.2961 43.7529 17.0728 45.5296C18.8494 47.3062 20.9588 48.7153 23.2804 49.6762C25.6019 50.6371 28.0901 51.131 30.6027 51.1297Z" fill="#4420D8"/>
<path d="M30.6495 49.0008C34.4259 48.9948 38.1157 47.8696 41.2527 45.7673C44.3898 43.6649 46.8332 40.6798 48.2742 37.1893C49.7153 33.6987 50.0892 29.8592 49.3489 26.1562C48.6085 22.4531 46.787 19.0526 44.1147 16.3845C41.4423 13.7163 38.039 11.9002 34.3347 11.1656C30.6305 10.4311 26.7917 10.811 23.3034 12.2576C19.815 13.7041 16.8338 16.1522 14.7364 19.2925C12.639 22.4328 11.5195 26.1244 11.5195 29.9008C11.5208 32.4112 12.0168 34.8967 12.979 37.2154C13.9412 39.5341 15.3508 41.6405 17.1273 43.4142C18.9038 45.1879 21.0124 46.5942 23.3326 47.5528C25.6528 48.5114 28.1391 49.0034 30.6495 49.0008Z" fill="#FFBE44"/>
<path opacity="0.25" d="M43.8614 16.1817C40.281 12.6013 35.4249 10.5898 30.3614 10.5898C25.2979 10.5898 20.4418 12.6013 16.8614 16.1817C13.281 19.7621 11.2695 24.6182 11.2695 29.6817C11.2695 34.7452 13.281 39.6013 16.8614 43.1817L43.8614 16.1817Z" fill="#FFEF9F"/>
<path d="M30.6413 44.7425C33.5759 44.7385 36.4435 43.8646 38.8815 42.2311C41.3195 40.5976 43.2185 38.2779 44.3383 35.5654C45.4582 32.8528 45.7486 29.8691 45.1729 26.9914C44.5973 24.1138 43.1813 21.4715 41.1041 19.3984C39.0269 17.3254 36.3817 15.9148 33.5029 15.345C30.6241 14.7751 27.641 15.0716 24.9307 16.1969C22.2204 17.3222 19.9046 19.2259 18.276 21.6672C16.6474 24.1085 15.7793 26.9778 15.7813 29.9125C15.7866 33.8492 17.3548 37.6228 20.1413 40.4036C22.9278 43.1845 26.7045 44.7451 30.6413 44.7425V44.7425Z" stroke="#F9E178" stroke-width="1.89" stroke-miterlimit="10"/>
<path d="M35.8724 26.6681C35.9224 26.6181 37.0024 25.9981 37.0024 25.9981C37.0024 25.4881 35.8224 25.3581 35.6324 24.7881C35.4121 24.1684 35.0116 23.6286 34.4824 23.2381C33.1127 22.2679 31.4707 21.7568 29.7924 21.7781C28.7236 21.7624 27.6658 21.9951 26.7024 22.4581C25.6903 22.9581 24.8968 23.812 24.4724 24.8581C24.2584 25.4201 24.1499 26.0167 24.1524 26.6181C24.1521 27.3699 24.3123 28.1132 24.6224 28.7981C24.8483 29.3214 25.1903 29.7864 25.6224 30.1581C26.1977 30.6335 26.887 30.9506 27.6224 31.0781C28.2828 31.1913 28.9525 31.2415 29.6224 31.2281H30.5424C31.2718 31.2147 31.9974 31.3368 32.6824 31.5881C32.9447 31.6874 33.1832 31.8407 33.3824 32.0381C33.558 32.211 33.6826 32.429 33.7424 32.6681C33.7949 32.891 33.8218 33.1191 33.8224 33.3481C33.8384 33.944 33.6476 34.527 33.2824 34.9981C33.0999 35.1922 32.8784 35.3456 32.6324 35.4481C32.1582 35.6408 31.6539 35.7491 31.1424 35.7681C30.5624 35.7681 29.9224 35.7681 29.3024 35.7681H29.2424C28.4887 35.7832 27.7474 35.5744 27.1124 35.1681C26.8898 35.0274 26.7317 34.8046 26.6724 34.5481C26.5924 34.2781 25.5724 33.1781 25.5724 32.6381L24.3724 33.3181C24.3472 33.9302 24.4078 34.5428 24.5524 35.1381C24.7489 35.8912 25.2059 36.5502 25.8424 36.9981C26.8476 37.6696 28.0337 38.0185 29.2424 37.9981H29.3324C30.2241 38.0175 31.116 37.9774 32.0024 37.8781C32.5185 37.8039 33.0228 37.6627 33.5024 37.4581C34.0289 37.2278 34.4996 36.8867 34.8824 36.4581C35.6367 35.5833 36.0457 34.4631 36.0324 33.3081C36.034 32.8928 35.9802 32.4792 35.8724 32.0781C35.7357 31.4688 35.4348 30.9085 35.0024 30.4581C34.3935 29.878 33.641 29.4706 32.8224 29.2781C32.0916 29.0849 31.3382 28.9907 30.5824 28.9981H29.6524C28.9788 29.0365 28.3033 28.9656 27.6524 28.7881C27.4314 28.7215 27.2269 28.6091 27.0524 28.4581C26.8673 28.2955 26.7205 28.0941 26.6224 27.8681C26.4401 27.4659 26.3447 27.0297 26.3424 26.5881C26.3391 26.2668 26.3968 25.9479 26.5124 25.6481C26.7383 25.0945 27.1626 24.6452 27.7024 24.3881C28.369 24.0945 29.095 23.961 29.8224 23.9981C31.0179 23.9827 32.1898 24.3315 33.1824 24.9981C33.3704 25.1215 33.5113 25.3047 33.5824 25.5181C33.6642 25.8141 33.698 26.1214 33.6824 26.4281V26.6781H35.8724V26.6681Z" fill="#D89E1A"/>
<path d="M31.2234 22.8588L30.2234 19.9688L29.0234 20.6588V22.8588" fill="#D89E1A"/>
<path d="M31.2234 39.1492L32.3834 38.4592L29.0234 36.9492V39.1492" fill="#D89E1A"/>
<path d="M35.9413 26.0009C36.0324 25.5231 35.9932 25.0295 35.8278 24.572C35.6624 24.1146 35.3769 23.71 35.0013 23.4009C32.7213 21.6709 27.8913 21.5209 26.6813 24.5609C26.4966 25.0567 26.4121 25.5843 26.4327 26.1129C26.4533 26.6416 26.5786 27.161 26.8013 27.6409C27.7013 29.6409 29.9013 29.4109 31.7313 29.4209C33.3513 29.4209 35.5113 29.8409 35.9813 31.6809C36.1359 32.2609 36.1494 32.8695 36.0207 33.4558C35.8919 34.0421 35.6247 34.589 35.2413 35.0509C34.0813 36.3309 32.0513 36.1909 30.4713 36.2109C29.4644 36.2463 28.4716 35.9667 27.6313 35.4109C26.6313 34.7209 26.6313 33.7609 26.6313 32.6609" stroke="#FFEF9F" stroke-width="2.2" stroke-miterlimit="10"/>
<path d="M31.2812 22.1688V19.9688" stroke="#FFEF9F" stroke-width="2.2" stroke-miterlimit="10"/>
<path d="M31.2812 38.4578V36.2578" stroke="#FFEF9F" stroke-width="2.2" stroke-miterlimit="10"/>
<path d="M51.1214 82.0025C45.3549 82.0299 39.7027 80.3948 34.8415 77.2929C29.9802 74.191 26.116 69.7538 23.7114 64.5125L28.8214 62.7225L19.2714 57.0625L18.4514 59.2925H18.2914C18.3175 59.3599 18.3343 59.4306 18.3414 59.5025L15.4414 67.3525L20.4414 65.5925C23.3834 72.0919 28.3133 77.4892 34.5204 81.0063C40.7275 84.5234 47.891 85.9786 54.9784 85.1622C62.0658 84.3458 68.7109 81.2999 73.9557 76.4637C79.2005 71.6274 82.7742 65.2506 84.1614 58.2525L80.7814 57.5925C79.4289 64.4664 75.7325 70.6577 70.3232 75.1095C64.9139 79.5614 58.1271 81.9977 51.1214 82.0025Z" fill="#B59FFF"/>
<path d="M11.244 89.695C13.9504 89.0546 14.9187 87.9187 14.9187 87.9187C15.7551 86.7651 16.2802 85.4155 16.4435 84L17.3126 84.2363C17.9454 86.9504 19.089 87.9187 19.089 87.9187C20.239 88.7563 21.5865 89.2816 23 89.4435L22.7637 90.305C20.0496 90.9454 19.089 92.0889 19.089 92.0889C18.2476 93.237 17.7219 94.5855 17.5642 96L16.695 95.7637C16.0546 93.0496 14.9187 92.0889 14.9187 92.0889C13.7673 91.2485 12.4166 90.723 11 90.5642L11.244 89.695Z" fill="#FFEF9F"/>
<path d="M79.3253 15.5934C82.9339 14.7395 84.2249 13.2249 84.2249 13.2249C85.3401 11.6868 86.0403 9.88734 86.2579 8L87.4168 8.31512C88.2605 11.9339 89.7853 13.2249 89.7853 13.2249C91.3187 14.3417 93.1153 15.0422 95 15.2579L94.6849 16.4066C91.0661 17.2605 89.7853 18.7853 89.7853 18.7853C88.6635 20.3159 87.9625 22.1139 87.7522 24L86.5934 23.6849C85.7395 20.0661 84.2249 18.7853 84.2249 18.7853C82.6897 17.6647 80.8888 16.964 79 16.7522L79.3253 15.5934Z" fill="white"/>
<path d="M79.2133 85.9993C81.8963 85.9934 84.5174 85.1923 86.7452 83.6971C88.9731 82.202 90.7077 80.08 91.7299 77.5993C92.7521 75.1186 93.0159 72.3906 92.4881 69.76C91.9603 67.1293 90.6646 64.7142 88.7646 62.8198C86.8646 60.9254 84.4457 59.6368 81.8135 59.1167C79.1814 58.5967 76.4541 58.8686 73.9764 59.8981C71.4988 60.9276 69.3819 62.6684 67.8933 64.9007C66.4047 67.1329 65.6113 69.7563 65.6133 72.4394C65.6146 74.2231 65.9676 75.989 66.652 77.6362C67.3364 79.2834 68.3388 80.7795 69.602 82.0389C70.8651 83.2984 72.3642 84.2964 74.0134 84.976C75.6626 85.6555 77.4296 86.0033 79.2133 85.9993Z" fill="#4420D8"/>
<path d="M79.2445 84.4408C81.9271 84.4348 84.5478 83.6339 86.7754 82.1392C89.0031 80.6445 90.7377 78.5231 91.7602 76.043C92.7827 73.5629 93.0471 70.8354 92.5201 68.205C91.9931 65.5747 90.6984 63.1596 88.7994 61.2648C86.9004 59.37 84.4824 58.0805 81.8509 57.5593C79.2194 57.0382 76.4925 57.3086 74.0146 58.3366C71.5368 59.3646 69.4192 61.1039 67.9294 63.3348C66.4397 65.5657 65.6445 68.1881 65.6445 70.8708C65.6458 72.655 65.9987 74.4214 66.683 76.0691C67.3673 77.7169 68.3696 79.2137 69.6326 80.4739C70.8956 81.7341 72.3946 82.7331 74.0439 83.4137C75.6931 84.0944 77.4603 84.4434 79.2445 84.4408Z" fill="#FFBE44"/>
<path opacity="0.25" d="M88.6331 61.1193C86.0687 58.6874 82.6563 57.3528 79.1225 57.3996C75.5887 57.4465 72.2128 58.8711 69.7138 61.3701C67.2148 63.8691 65.7902 67.2449 65.7434 70.7787C65.6965 74.3125 67.0312 77.725 69.4631 80.2893L88.6331 61.1193Z" fill="#FFEF9F"/>
<path d="M79.2419 81.4081C81.3256 81.4022 83.3609 80.7787 85.0904 79.6165C86.82 78.4543 88.1662 76.8055 88.9591 74.8785C89.752 72.9515 89.9558 70.8327 89.5449 68.7898C89.1341 66.747 88.1269 64.8718 86.6506 63.4011C85.1744 61.9305 83.2954 60.9304 81.251 60.5273C79.2066 60.1241 77.0886 60.336 75.1646 61.1362C73.2406 61.9363 71.5969 63.2888 70.4413 65.0228C69.2856 66.7567 68.6699 68.7943 68.6719 70.8781C68.6732 72.2639 68.9478 73.6359 69.4799 74.9154C70.0121 76.195 70.7913 77.3571 71.7731 78.3352C72.7549 79.3132 73.9199 80.0881 75.2015 80.6154C76.4831 81.1427 77.8561 81.412 79.2419 81.4081Z" stroke="#F9E178" stroke-width="1.34" stroke-miterlimit="10"/>
<path d="M82.8439 68.2787L83.7439 67.7487C83.7439 67.3487 82.8339 67.2487 82.6739 66.7487C82.51 66.2655 82.1988 65.8458 81.7839 65.5487C80.7209 64.7961 79.4463 64.4004 78.1439 64.4187C77.3134 64.4045 76.4912 64.5861 75.7439 64.9487C74.9446 65.3442 74.3234 66.0261 74.0039 66.8587C73.8381 67.293 73.7534 67.7539 73.7539 68.2187C73.7517 68.8046 73.8744 69.3841 74.1139 69.9187C74.2904 70.3349 74.5608 70.7045 74.9039 70.9987C75.3557 71.3695 75.8972 71.6144 76.4739 71.7087C76.9791 71.7964 77.4913 71.8366 78.0039 71.8287H78.7239C79.2933 71.8158 79.8599 71.9108 80.3939 72.1087C80.5941 72.1908 80.7773 72.3095 80.9339 72.4587C81.0724 72.5918 81.1696 72.7619 81.2139 72.9487C81.2554 73.1223 81.2755 73.3003 81.2739 73.4787C81.2824 73.9517 81.1229 74.4123 80.8239 74.7787C80.6886 74.9303 80.5212 75.0499 80.3339 75.1287C79.9615 75.2798 79.5655 75.3644 79.1639 75.3787C78.7139 75.3787 78.2239 75.3787 77.7439 75.3787C77.1295 75.4041 76.5221 75.2401 76.0039 74.9087C75.8286 74.7965 75.7033 74.621 75.6539 74.4187C75.5939 74.2087 74.8039 73.3587 74.8039 72.9387L73.8639 73.4687C73.853 73.9465 73.9034 74.4238 74.0139 74.8887C74.1729 75.4608 74.5266 75.9595 75.0139 76.2987C75.7942 76.821 76.7151 77.0931 77.6539 77.0787H77.7239C78.4349 77.1003 79.1466 77.0736 79.8539 76.9987C80.2503 76.9353 80.6368 76.821 81.0039 76.6587C81.4087 76.4811 81.7729 76.2224 82.0739 75.8987C82.6708 75.2219 83.0014 74.3512 83.0039 73.4487C83.0074 73.1116 82.9671 72.7755 82.8839 72.4487C82.7625 71.9713 82.5136 71.5358 82.1639 71.1887C81.6964 70.7319 81.1114 70.4135 80.4739 70.2687C79.9122 70.1244 79.334 70.0538 78.7539 70.0587H78.0039C77.4921 70.0816 76.9798 70.0277 76.4839 69.8987C76.313 69.8409 76.1538 69.7528 76.0139 69.6387C75.8722 69.5109 75.7596 69.354 75.6839 69.1787C75.5404 68.8648 75.4654 68.5239 75.4639 68.1787C75.4631 67.9287 75.5107 67.6808 75.6039 67.4487C75.7727 67.0108 76.1015 66.6533 76.5239 66.4487C77.0284 66.2048 77.5838 66.0848 78.1439 66.0987C79.0741 66.0903 79.9846 66.3659 80.7539 66.8887C80.8999 66.9827 81.0093 67.1239 81.0639 67.2887C81.1263 67.52 81.1533 67.7594 81.1439 67.9987V68.1787H82.8439V68.2787Z" fill="#D89E1A"/>
<path d="M79.2334 65.3181L78.4534 63.0781L77.5234 63.6081V65.3181" fill="#D89E1A"/>
<path d="M79.2334 77.9678L80.1334 77.4378L77.5234 76.2578V77.9678" fill="#D89E1A"/>
<path d="M82.8946 67.7265C82.9645 67.3593 82.9345 66.9799 82.8079 66.6282C82.6812 66.2764 82.4625 65.965 82.1746 65.7265C80.4046 64.3865 76.6546 64.2665 75.7146 66.6265C75.4368 67.3984 75.4691 68.2479 75.8046 68.9965C76.5046 70.5265 78.2146 70.3665 79.6346 70.3765C80.8946 70.3765 82.5746 70.6965 82.9446 72.1265C83.058 72.5783 83.0646 73.0502 82.9639 73.505C82.8632 73.9598 82.658 74.3848 82.3646 74.7465C81.4646 75.7465 79.8846 75.6365 78.6646 75.6465C77.8818 75.6713 77.1103 75.4549 76.4546 75.0265C75.6946 74.4865 75.6746 73.7465 75.6646 72.8865" stroke="#FFEF9F" stroke-width="1.71" stroke-miterlimit="10"/>
<path d="M79.2852 64.7881V63.0781" stroke="#FFEF9F" stroke-width="1.71" stroke-miterlimit="10"/>
<path d="M79.2852 77.4366V75.7266" stroke="#FFEF9F" stroke-width="1.71" stroke-miterlimit="10"/>
</svg>
