<svg width="752" height="684" viewBox="0 0 752 684" fill="none" xmlns="http://www.w3.org/2000/svg">
<mask id="mask0_6801_141238" style="mask-type:alpha" maskUnits="userSpaceOnUse" x="0" y="0" width="752" height="684">
<rect width="752" height="684" fill="#C4C4C4"/>
</mask>
<g mask="url(#mask0_6801_141238)">
<g filter="url(#filter0_d_6801_141238)">
<path d="M376 536C489.218 536 581 443.771 581 330C581 216.229 489.218 124 376 124C262.782 124 171 216.229 171 330C171 443.771 262.782 536 376 536Z" fill="url(#paint0_linear_6801_141238)"/>
</g>
<path d="M426.672 310.553L426.621 420.712L426.809 475.834L477.7 445.14L477.598 279.859L426.672 310.553Z" fill="#937DFF"/>
<path d="M477.595 279.857L426.669 249.18L376 279.857L426.942 310.551L477.595 279.857Z" fill="#FFBE44"/>
<path d="M325.263 245.542L325.109 310.621L376.001 279.909L375.898 214.848L325.263 245.542Z" fill="#937DFF"/>
<path d="M375.899 214.849L324.974 184.172L274.305 214.849L325.264 245.543L375.899 214.849Z" fill="#FFBE44"/>
<path d="M375.949 279.994L375.779 279.891L325.109 310.567L375.984 341.227L375.949 279.994Z" fill="#FFBE44"/>
<path d="M375.951 388.542C375.951 370.156 366.333 353.11 350.633 343.651C339.393 336.887 325.094 345.024 325.094 358.534V433.244L375.968 402.567L375.951 388.542Z" fill="#937DFF"/>
<path d="M375.984 402.566L325.109 433.26L375.984 463.92V402.566Z" fill="#FFBE44"/>
<path d="M81.2379 177.711C83.9554 177.075 84.9187 175.927 84.9187 175.927C84.9187 175.927 85.9772 174.737 86.4172 172L87.2914 172.238C87.9276 174.963 89.0753 175.927 89.0753 175.927C89.0753 175.927 90.2646 176.986 93 177.426L92.7621 178.294C90.0387 178.937 89.0753 180.079 89.0753 180.079C89.0753 180.079 88.0168 181.269 87.5768 184L86.7086 183.762C86.0664 181.043 84.9247 180.079 84.9247 180.079C84.9247 180.079 83.7354 179.02 81 178.58L81.2379 177.711Z" fill="#7360FC"/>
<path d="M629.238 112.711C631.955 112.075 632.919 110.927 632.919 110.927C632.919 110.927 633.977 109.737 634.417 107L635.291 107.238C635.928 109.963 637.075 110.927 637.075 110.927C637.075 110.927 638.265 111.986 641 112.426L640.762 113.294C638.039 113.937 637.075 115.079 637.075 115.079C637.075 115.079 636.017 116.269 635.577 119L634.709 118.762C634.066 116.043 632.925 115.079 632.925 115.079C632.925 115.079 631.735 114.02 629 113.58L629.238 112.711Z" fill="#7360FC"/>
<path d="M704.238 417.711C706.955 417.075 707.919 415.927 707.919 415.927C707.919 415.927 708.977 414.737 709.417 412L710.291 412.238C710.928 414.963 712.075 415.927 712.075 415.927C712.075 415.927 713.265 416.986 716 417.426L715.762 418.294C713.039 418.937 712.075 420.079 712.075 420.079C712.075 420.079 711.017 421.269 710.577 424L709.709 423.762C709.066 421.043 707.925 420.079 707.925 420.079C707.925 420.079 706.735 419.02 704 418.58L704.238 417.711Z" fill="#7360FC"/>
<path d="M159.139 143.332C160.724 142.96 161.286 142.291 161.286 142.291C161.286 142.291 161.903 141.596 162.16 140L162.67 140.139C163.041 141.728 163.711 142.291 163.711 142.291C163.711 142.291 164.404 142.908 166 143.165L165.861 143.672C164.273 144.047 163.711 144.713 163.711 144.713C163.711 144.713 163.093 145.407 162.836 147L162.33 146.861C161.955 145.275 161.289 144.713 161.289 144.713C161.289 144.713 160.596 144.095 159 143.838L159.139 143.332Z" fill="#7360FC"/>
<path d="M525.139 92.3317C526.724 91.9603 527.286 91.2905 527.286 91.2905C527.286 91.2905 527.903 90.5964 528.16 89L528.67 89.1388C529.041 90.7283 529.711 91.2905 529.711 91.2905C529.711 91.2905 530.404 91.9083 532 92.1651L531.861 92.6718C530.273 93.0466 529.711 93.7129 529.711 93.7129C529.711 93.7129 529.093 94.407 528.836 96L528.33 95.8612C527.955 94.2752 527.289 93.7129 527.289 93.7129C527.289 93.7129 526.596 93.0952 525 92.8384L525.139 92.3317Z" fill="#7360FC"/>
<path d="M152.139 482.332C153.724 481.96 154.286 481.291 154.286 481.291C154.286 481.291 154.903 480.596 155.16 479L155.67 479.139C156.041 480.728 156.711 481.291 156.711 481.291C156.711 481.291 157.404 481.908 159 482.165L158.861 482.672C157.273 483.047 156.711 483.713 156.711 483.713C156.711 483.713 156.093 484.407 155.836 486L155.33 485.861C154.955 484.275 154.289 483.713 154.289 483.713C154.289 483.713 153.596 483.095 152 482.838L152.139 482.332Z" fill="#7360FC"/>
<path d="M114.496 252.899C120.157 251.573 122.164 249.18 122.164 249.18C122.164 249.18 124.369 246.702 125.286 241L127.107 241.496C128.433 247.173 130.824 249.18 130.824 249.18C130.824 249.18 133.301 251.387 139 252.304L138.504 254.114C132.831 255.452 130.824 257.832 130.824 257.832C130.824 257.832 128.618 260.311 127.702 266L125.893 265.504C124.555 259.84 122.176 257.832 122.176 257.832C122.176 257.832 119.699 255.626 114 254.708L114.496 252.899Z" fill="#7360FC"/>
<path d="M581.377 523.043C585.679 522.035 587.205 520.217 587.205 520.217C587.205 520.217 588.881 518.333 589.577 514L590.961 514.377C591.969 518.691 593.786 520.217 593.786 520.217C593.786 520.217 595.669 521.894 600 522.591L599.623 523.966C595.311 524.984 593.786 526.792 593.786 526.792C593.786 526.792 592.11 528.676 591.413 533L590.039 532.623C589.022 528.318 587.214 526.792 587.214 526.792C587.214 526.792 585.331 525.116 581 524.418L581.377 523.043Z" fill="#7360FC"/>
</g>
<defs>
<filter id="filter0_d_6801_141238" x="121" y="74" width="510" height="512" filterUnits="userSpaceOnUse" color-interpolation-filters="sRGB">
<feFlood flood-opacity="0" result="BackgroundImageFix"/>
<feColorMatrix in="SourceAlpha" type="matrix" values="0 0 0 0 0 0 0 0 0 0 0 0 0 0 0 0 0 0 127 0" result="hardAlpha"/>
<feOffset/>
<feGaussianBlur stdDeviation="25"/>
<feComposite in2="hardAlpha" operator="out"/>
<feColorMatrix type="matrix" values="0 0 0 0 0.335667 0 0 0 0 0 0 0 0 0 0.883333 0 0 0 0.8 0"/>
<feBlend mode="normal" in2="BackgroundImageFix" result="effect1_dropShadow_6801_141238"/>
<feBlend mode="normal" in="SourceGraphic" in2="effect1_dropShadow_6801_141238" result="shape"/>
</filter>
<linearGradient id="paint0_linear_6801_141238" x1="376" y1="124" x2="376" y2="536" gradientUnits="userSpaceOnUse">
<stop stop-color="#231D65"/>
<stop offset="1" stop-color="#1B1652"/>
</linearGradient>
</defs>
</svg>
