<svg width="108" height="108" viewBox="0 0 108 108" fill="none" xmlns="http://www.w3.org/2000/svg">
<path d="M19.8867 82.98L53.7888 103.326L87.7028 82.9859L53.9435 62.6758L19.8867 82.98Z" fill="#B9E300"/>
<path opacity="0.2" d="M29.0039 82.9849L53.7924 97.8569L78.5929 82.9908L53.9055 68.1367L29.0039 82.9849Z" fill="#160E6B"/>
<path d="M31.8873 84.5271V64.6385C31.8873 59.8355 36.6879 56.8671 40.8164 59.3427C46.6343 62.8277 50.1917 69.0971 50.1917 75.8711V95.5341L53.8442 97.7189V59.9958L28.2109 44.6133V82.3661L31.8873 84.5271Z" fill="white"/>
<path d="M28.2109 44.6125L53.8383 59.9951L79.4834 44.6185L53.9572 29.2656L28.2109 44.6125Z" fill="#B9E300"/>
<path d="M35.5551 77.9029V68.2258C35.5551 63.4228 40.3557 60.4543 44.4842 62.93C45.0612 63.2744 45.5907 63.6662 46.1201 64.064C44.6745 62.2057 42.9018 60.5968 40.8197 59.3501C36.6913 56.8803 31.8906 59.8488 31.8906 64.6458V84.5344L35.5551 82.3853L35.5432 77.9148L35.5551 77.9029Z" fill="#080345"/>
<path d="M53.8398 59.9997V97.7228L57.5162 95.5559V86.1696C57.4983 74.9073 58.6286 64.2327 66.8439 59.6257C71.0199 57.2865 75.8503 60.1185 75.8503 64.8977V84.7566L79.4671 82.6253L79.4731 44.6172L53.8398 59.9997Z" fill="#FFBE44"/>
<path d="M68.4609 58.9495C70.6263 59.6085 72.173 61.8883 72.173 64.9042V82.519L75.8374 84.7632L75.8493 64.9042C75.8553 60.7425 72.1373 57.9759 68.4609 58.9495Z" fill="#080345"/>
<path opacity="0.2" d="M37.1992 43.5056L53.6476 53.3787L70.1019 43.5115L53.7249 33.6562L37.1992 43.5056Z" fill="#160E6B"/>
<path d="M63.6614 18.3203L53.0547 24.7203V36.2023L63.6614 29.8023V18.3203Z" fill="#FFBE44"/>
<path d="M63.6614 18.3228L53.0547 24.7228V12L63.6614 18.3228Z" fill="#B9E300"/>
<path opacity="0.3" d="M63.6614 18.3228L53.0547 24.7228V12L63.6614 18.3228Z" fill="#160E6B"/>
<path d="M42.4414 18.3203L53.054 24.7203V36.2023L42.4414 29.8023V18.3203Z" fill="white"/>
<path d="M42.4414 18.3228L53.054 24.7228V12L42.4414 18.3228Z" fill="#B9E300"/>
<path d="M46.2812 27.0364V29.3696L48.5953 30.741V26.793C47.822 26.8583 47.0486 26.9355 46.2812 27.0364Z" fill="#4C1ADC"/>
<path d="M48.5953 27.9922L46.2812 29.3696V25.19C46.2812 24.6022 46.9297 24.2401 47.4413 24.5429V24.7804V24.5429C48.1611 24.9703 48.6013 25.7362 48.6013 26.5614V27.9922H48.5953Z" fill="#080345"/>
<path d="M67.442 89.8458C67.6395 89.9116 67.776 89.6487 67.6113 89.5219C66.4166 88.6065 64.5728 87.3109 63.8672 87.4658C62.7901 87.7052 62.268 89.2403 64.8456 89.3717C65.9227 89.4327 66.8023 89.6346 67.442 89.8458Z" fill="#36521D"/>
<path d="M67.7503 89.6313C67.8115 89.8285 67.5528 89.9646 67.4258 89.8003C66.518 88.5986 65.3891 87.0354 65.3985 86.0449C65.4079 84.984 67.1906 84.4629 67.3035 87.0354C67.3505 88.1151 67.5481 88.9882 67.7503 89.6313Z" fill="#36521D"/>
<path d="M67.6907 89.7933C67.5826 89.9717 67.3097 89.8637 67.3521 89.6572C67.6578 88.1832 68.2081 86.0004 68.8431 85.6624C69.8168 85.1413 71.2138 85.9628 69.3511 87.7466C68.5703 88.493 68.0388 89.2159 67.6907 89.7933Z" fill="#36521D"/>
<path d="M67.6088 89.8787C67.4065 89.9304 67.2842 89.6628 67.4583 89.5455C68.7047 88.6958 70.6191 87.5082 71.3106 87.7053C72.3736 88.0057 72.8063 89.5642 70.224 89.5548C69.1469 89.5501 68.2626 89.7051 67.6088 89.8787Z" fill="#36521D"/>
<path d="M41.8442 83.7535C42.0245 83.8134 42.1489 83.5736 41.9987 83.4579C40.9086 82.6227 39.2263 81.4406 38.5825 81.5819C37.5997 81.8003 37.1234 83.2009 39.4752 83.3209C40.4623 83.3765 41.2606 83.565 41.8442 83.7535Z" fill="#36521D"/>
<path d="M42.1303 83.5533C42.1861 83.7332 41.95 83.8574 41.8342 83.7075C41.0059 82.611 39.9758 81.1847 39.9844 80.281C39.993 79.313 41.6196 78.8375 41.7226 81.1847C41.7612 82.1698 41.9414 82.9665 42.1303 83.5533Z" fill="#36521D"/>
<path d="M42.0748 83.6993C41.976 83.862 41.7271 83.7635 41.7658 83.5751C42.0447 82.2302 42.5468 80.2385 43.1262 79.9301C44.0146 79.4547 45.2892 80.2042 43.5897 81.8318C42.8773 82.5128 42.3923 83.1724 42.0748 83.6993Z" fill="#36521D"/>
<path d="M41.9985 83.7803C41.8139 83.8274 41.7023 83.5832 41.8611 83.4762C42.9984 82.7009 44.7452 81.6173 45.376 81.7972C46.346 82.0713 46.7408 83.4933 44.3847 83.4847C43.4019 83.4804 42.595 83.6218 41.9985 83.7803Z" fill="#36521D"/>
<path opacity="0.3" d="M32.5058 44.8616C31.7741 44.1314 31.7741 42.9381 32.5058 42.2078C33.2375 41.4776 34.4332 41.4776 35.1649 42.2078C35.8966 42.9381 36.5153 46.2093 36.5153 46.2093C36.5153 46.2093 33.2435 45.5919 32.5058 44.8616Z" fill="#160E6B"/>
<path d="M35.6463 43.3698C35.6463 44.4087 34.8076 45.2458 33.7665 45.2458C32.7255 45.2458 31.8867 44.4087 31.8867 43.3698C31.8867 42.3308 33.7665 39.582 33.7665 39.582C33.7665 39.582 35.6463 42.3368 35.6463 43.3698Z" fill="#36521D"/>
<path opacity="0.3" d="M52.3144 57.0999C51.5827 56.3697 51.5827 55.1764 52.3144 54.4461C53.0461 53.7159 54.2418 53.7159 54.9735 54.4461C55.7052 55.1764 56.3239 58.4476 56.3239 58.4476C56.3239 58.4476 53.0461 57.8302 52.3144 57.0999Z" fill="#160E6B"/>
<path d="M55.4471 55.6081C55.4471 56.647 54.6083 57.4841 53.5673 57.4841C52.5263 57.4841 51.6875 56.647 51.6875 55.6081C51.6875 54.5691 53.5673 51.8203 53.5673 51.8203C53.5673 51.8203 55.4471 54.575 55.4471 55.6081Z" fill="#36521D"/>
<path opacity="0.3" d="M72.7832 44.8616C72.0514 44.1314 72.0514 42.9381 72.7832 42.2078C73.5149 41.4776 74.7106 41.4776 75.4423 42.2078C76.174 42.9381 76.7926 46.2093 76.7926 46.2093C76.7926 46.2093 73.5149 45.5919 72.7832 44.8616Z" fill="#160E6B"/>
<path d="M75.9237 43.3698C75.9237 44.4087 75.0849 45.2458 74.0439 45.2458C73.0028 45.2458 72.1641 44.4087 72.1641 43.3698C72.1641 42.3308 74.0439 39.582 74.0439 39.582C74.0439 39.582 75.9237 42.3368 75.9237 43.3698Z" fill="#36521D"/>
<path opacity="0.3" d="M63.0097 50.2444C62.278 49.5142 62.278 48.3209 63.0097 47.5906C63.7414 46.8604 64.9371 46.8604 65.6688 47.5906C66.4005 48.3209 67.0192 51.5921 67.0192 51.5921C67.0192 51.5921 63.7474 50.9747 63.0097 50.2444Z" fill="#160E6B"/>
<path d="M66.1502 48.7526C66.1502 49.7916 65.3115 50.6287 64.2704 50.6287C63.2294 50.6287 62.3906 49.7916 62.3906 48.7526C62.3906 47.7136 64.2704 44.9648 64.2704 44.9648C64.2704 44.9648 66.1502 47.7136 66.1502 48.7526Z" fill="#36521D"/>
<path opacity="0.3" d="M42.5917 51.4905C41.86 50.7603 41.86 49.567 42.5917 48.8367C43.3234 48.1065 44.5191 48.1065 45.2508 48.8367C45.9825 49.567 46.6012 52.8382 46.6012 52.8382C46.6012 52.8382 43.3234 52.2208 42.5917 51.4905Z" fill="#160E6B"/>
<path d="M45.7245 49.9987C45.7245 51.0376 44.8857 51.8747 43.8447 51.8747C42.8036 51.8747 41.9648 51.0376 41.9648 49.9987C41.9648 48.9597 43.8447 46.2109 43.8447 46.2109C43.8447 46.2109 45.7245 48.9597 45.7245 49.9987Z" fill="#36521D"/>
<path d="M32.4978 3L33.0927 5.41902L35.3067 4.39082L33.8351 6.36918L36 7.50295L33.5712 7.56262L34.0543 10L32.4978 8.09049L30.9412 10L31.4288 7.56262L29 7.50295L31.1649 6.36918L29.6933 4.39082L31.9029 5.41902L32.4978 3Z" fill="#B6C7FF"/>
<path d="M96.4978 36L97.0927 38.419L99.3067 37.3908L97.8351 39.3692L100 40.503L97.5712 40.5626L98.0543 43L96.4978 41.0905L94.9412 43L95.4288 40.5626L93 40.503L95.1649 39.3692L93.6933 37.3908L95.9029 38.419L96.4978 36Z" fill="#B6C7FF"/>
<path d="M17 20.0024C16.9995 19.8045 17.0578 19.6109 17.1674 19.4462C17.277 19.2814 17.433 19.1529 17.6157 19.0768C17.7984 19.0008 17.9995 18.9806 18.1936 19.0189C18.3878 19.0572 18.5662 19.1523 18.7063 19.2921C18.8464 19.4318 18.9418 19.61 18.9806 19.804C19.0194 19.9981 18.9997 20.1993 18.9241 20.3821C18.8485 20.565 18.7203 20.7213 18.5558 20.8313C18.3913 20.9413 18.1979 21 18 21C17.8688 21.0003 17.7388 20.9747 17.6175 20.9247C17.4962 20.8747 17.3859 20.8013 17.293 20.7086C17.2002 20.616 17.1265 20.5059 17.0762 20.3847C17.0259 20.2635 17 20.1336 17 20.0024Z" fill="#B6C7FF"/>
<path d="M72 27.0024C71.9995 26.8045 72.0578 26.6109 72.1674 26.4462C72.277 26.2814 72.433 26.1529 72.6157 26.0768C72.7984 26.0008 72.9995 25.9806 73.1936 26.0189C73.3878 26.0572 73.5662 26.1523 73.7063 26.2921C73.8464 26.4318 73.9418 26.61 73.9806 26.804C74.0194 26.9981 73.9997 27.1993 73.9241 27.3821C73.8485 27.565 73.7203 27.7213 73.5558 27.8313C73.3913 27.9413 73.1979 28 73 28C72.8688 28.0003 72.7388 27.9747 72.6175 27.9247C72.4962 27.8747 72.3859 27.8013 72.293 27.7086C72.2002 27.616 72.1265 27.5059 72.0762 27.3847C72.0259 27.2635 72 27.1336 72 27.0024Z" fill="#B6C7FF"/>
<path d="M87 20.0024C86.9995 19.8045 87.0578 19.6109 87.1674 19.4462C87.277 19.2814 87.433 19.1529 87.6157 19.0768C87.7984 19.0008 87.9995 18.9806 88.1936 19.0189C88.3878 19.0572 88.5662 19.1523 88.7063 19.2921C88.8464 19.4318 88.9418 19.61 88.9806 19.804C89.0194 19.9981 88.9997 20.1993 88.9241 20.3821C88.8485 20.565 88.7203 20.7213 88.5558 20.8313C88.3913 20.9413 88.1979 21 88 21C87.8688 21.0003 87.7388 20.9747 87.6175 20.9247C87.4962 20.8747 87.3859 20.8013 87.293 20.7086C87.2002 20.616 87.1265 20.5059 87.0762 20.3847C87.0259 20.2635 87 20.1336 87 20.0024Z" fill="#B6C7FF"/>
<path d="M27 30.0024C26.9995 29.8045 27.0578 29.6109 27.1674 29.4462C27.277 29.2814 27.433 29.1529 27.6157 29.0768C27.7984 29.0008 27.9995 28.9806 28.1936 29.0189C28.3878 29.0572 28.5662 29.1523 28.7063 29.2921C28.8464 29.4318 28.9418 29.61 28.9806 29.804C29.0194 29.9981 28.9997 30.1993 28.9241 30.3821C28.8485 30.565 28.7203 30.7213 28.5558 30.8313C28.3913 30.9413 28.1979 31 28 31C27.8688 31.0003 27.7388 30.9747 27.6175 30.9247C27.4962 30.8747 27.3859 30.8013 27.293 30.7086C27.2002 30.616 27.1265 30.5059 27.0762 30.3847C27.0259 30.2635 27 30.1336 27 30.0024Z" fill="#B6C7FF"/>
<path d="M8 45.0024C7.99953 44.8045 8.05778 44.6109 8.16738 44.4462C8.27697 44.2814 8.43298 44.1529 8.61567 44.0768C8.79835 44.0008 8.9995 43.9806 9.19363 44.0189C9.38777 44.0572 9.56617 44.1523 9.70626 44.2921C9.84635 44.4318 9.94183 44.61 9.98061 44.804C10.0194 44.9981 9.99973 45.1993 9.92411 45.3821C9.84849 45.565 9.72032 45.7213 9.55582 45.8313C9.39132 45.9413 9.19789 46 9.00001 46C8.8688 46.0003 8.73881 45.9747 8.6175 45.9247C8.49619 45.8747 8.38593 45.8013 8.29304 45.7086C8.20015 45.616 8.12646 45.5059 8.07617 45.3847C8.02589 45.2635 8 45.1336 8 45.0024Z" fill="#B6C7FF"/>
<path d="M70 5.00238C69.9995 4.8045 70.0578 4.61092 70.1674 4.44616C70.277 4.2814 70.433 4.15286 70.6157 4.07681C70.7984 4.00075 70.9995 3.98061 71.1936 4.01893C71.3878 4.05724 71.5662 4.15229 71.7063 4.29205C71.8464 4.43181 71.9418 4.60999 71.9806 4.80403C72.0194 4.99808 71.9997 5.19927 71.9241 5.38213C71.8485 5.56499 71.7203 5.72131 71.5558 5.8313C71.3913 5.94129 71.1979 6 71 6C70.8688 6.00031 70.7388 5.97474 70.6175 5.92474C70.4962 5.87475 70.3859 5.80131 70.293 5.70865C70.2002 5.61598 70.1265 5.50589 70.0762 5.3847C70.0259 5.26351 70 5.13359 70 5.00238Z" fill="#B6C7FF"/>
</svg>
