<svg width="504" height="456" viewBox="0 0 504 456" fill="none" xmlns="http://www.w3.org/2000/svg">
<path d="M208.797 199.699C208.797 199.699 240.997 205.499 259.597 204.699C278.097 203.899 318.997 197.699 326.297 196.799C333.597 195.899 340.297 196.599 346.297 200.799C351.197 200.399 356.097 200.499 360.997 201.199C368.097 202.299 371.397 204.999 372.997 208.899L372.197 218.799L219.597 225.799L208.797 199.699Z" fill="#373382"/>
<path opacity="0.31" d="M261.298 227.4C305.039 227.4 340.498 191.941 340.498 148.2C340.498 104.459 305.039 69 261.298 69C217.557 69 182.098 104.459 182.098 148.2C182.098 191.941 217.557 227.4 261.298 227.4Z" fill="url(#paint0_linear_8554_104621)"/>
<path d="M261.298 218.601C300.179 218.601 331.698 187.082 331.698 148.201C331.698 109.32 300.179 77.8008 261.298 77.8008C222.418 77.8008 190.898 109.32 190.898 148.201C190.898 187.082 222.418 218.601 261.298 218.601Z" stroke="#7471F4" stroke-width="1.3987" stroke-miterlimit="10"/>
<path opacity="0.42" d="M322.397 171.401L261.597 134.801L200.297 171.401L261.297 208.101" fill="#8AC941"/>
<path opacity="0.64" d="M312.598 171.399L261.598 140.699L210.098 171.399L261.298 202.199" fill="#8AC941"/>
<path opacity="0.2" d="M216.695 171.402L261.295 198.302L305.995 171.402L261.495 144.602L216.695 171.402Z" fill="#160E6B"/>
<path d="M221.897 174.2V138.3C221.897 129.6 230.497 124.3 237.997 128.7C248.497 135 254.897 146.3 254.897 158.5V194L261.497 197.9V129.8L215.297 102V170.1L221.897 174.2Z" fill="#B59FFF"/>
<path d="M215.297 102.2L261.397 129.9L307.597 102.2L261.597 74.5L215.297 102.2Z" fill="#75B239"/>
<path d="M228.498 162.3V144.8C228.498 136.1 237.098 130.8 244.598 135.2C245.598 135.8 246.598 136.5 247.598 137.2C244.998 133.9 241.798 130.9 237.998 128.7C230.598 124.2 221.898 129.6 221.898 138.3V174.2L228.498 170.3V162.3Z" fill="#15155B"/>
<path d="M261.398 129.902V198.002L267.998 194.102V177.202C267.998 156.902 269.998 137.602 284.798 129.302C292.298 125.102 300.998 130.202 300.998 138.802V174.602L307.498 170.702V102.102L261.398 129.902Z" fill="url(#paint1_linear_8554_104621)"/>
<path d="M287.699 128.001C291.599 129.201 294.399 133.301 294.399 138.701V170.501L300.999 174.601V138.801C301.099 131.301 294.399 126.301 287.699 128.001Z" fill="#15155B"/>
<path opacity="0.2" d="M231.398 100.198L261.098 117.998L290.698 100.198L261.198 82.3984L231.398 100.198Z" fill="#160E6B"/>
<path d="M230.098 67.4L260.798 85.8L291.598 67.4L260.798 49L230.098 67.4Z" fill="#8AC941"/>
<path d="M230.098 100.598L260.798 118.998V85.7984L230.098 67.3984V100.598Z" fill="#B59FFF"/>
<path d="M236.199 104.399L254.599 115.399V104.099C254.599 97.3986 251.099 91.1986 245.399 87.7986C241.299 85.3986 236.199 88.2986 236.199 92.9986V104.399Z" fill="#75B239"/>
<path opacity="0.3" d="M236.199 104.399L254.599 115.399V104.099C254.599 97.3986 251.099 91.1986 245.399 87.7986C241.299 85.3986 236.199 88.2986 236.199 92.9986V104.399Z" fill="#160E6B"/>
<path d="M236.198 104.4L252.098 94.8002C250.498 92.0002 248.198 89.6002 245.298 87.9002C241.198 85.5002 236.098 88.4002 236.098 93.1002L236.198 104.4Z" fill="#15155B"/>
<path d="M291.497 100.598L260.797 118.998V85.7984L291.597 67.3984L291.497 100.598Z" fill="url(#paint2_linear_8554_104621)"/>
<path opacity="0.2" d="M240.598 67.4008L259.998 79.1008L279.398 67.4008L260.098 55.8008L240.598 67.4008Z" fill="#160E6B"/>
<path d="M279.1 47.8984L260 59.4984V80.1984L279.1 68.6984V47.8984Z" fill="url(#paint3_linear_8554_104621)"/>
<path d="M279.1 47.9L260 59.5V36.5L279.1 47.9Z" fill="#B9E300"/>
<path d="M279.1 47.9L260 59.5V36.5L279.1 47.9Z" fill="#8AC941"/>
<path d="M240.898 47.8984L259.998 59.4984V80.1984L240.898 68.6984V47.8984Z" fill="#B59FFF"/>
<path d="M240.898 47.9L259.998 59.5V36.5L240.898 47.9Z" fill="#75B239"/>
<path d="M247.797 63.7008V67.9008L251.997 70.4008V63.3008C250.597 63.3008 249.197 63.5008 247.797 63.7008Z" fill="#4C1ADC"/>
<path d="M251.997 65.4017L247.797 67.9017V60.4017C247.797 59.3017 248.997 58.7017 249.897 59.2017V59.6017V59.2017C251.197 60.0017 251.997 61.3017 251.997 62.8017V65.4017Z" fill="#080345"/>
<path opacity="0.3" d="M222.998 102.603C221.698 101.303 221.698 99.1031 222.998 97.8031C224.298 96.5031 226.498 96.5031 227.798 97.8031C229.098 99.1031 230.198 105.003 230.198 105.003C230.198 105.003 224.298 103.903 222.998 102.603Z" fill="#160E6B"/>
<path d="M228.597 99.9016C228.597 101.802 227.097 103.302 225.197 103.302C223.297 103.302 221.797 101.802 221.797 99.9016C221.797 98.0016 225.197 93.1016 225.197 93.1016C225.197 93.1016 228.597 98.1016 228.597 99.9016Z" fill="#36521D"/>
<path opacity="0.3" d="M258.698 124.701C257.398 123.401 257.398 121.201 258.698 119.901C259.998 118.601 262.198 118.601 263.498 119.901C264.798 121.201 265.898 127.101 265.898 127.101C265.898 127.101 259.998 126.001 258.698 124.701Z" fill="#160E6B"/>
<path d="M264.296 121.999C264.296 123.899 262.796 125.399 260.896 125.399C258.996 125.399 257.496 123.899 257.496 121.999C257.496 120.099 260.896 115.199 260.896 115.199C260.896 115.199 264.296 120.199 264.296 121.999Z" fill="#36521D"/>
<path opacity="0.3" d="M295.498 102.603C294.198 101.303 294.198 99.1031 295.498 97.8031C296.798 96.5031 298.998 96.5031 300.298 97.8031C301.598 99.1031 302.698 105.003 302.698 105.003C302.698 105.003 296.798 103.903 295.498 102.603Z" fill="#160E6B"/>
<path d="M301.198 99.9016C301.198 101.802 299.698 103.302 297.798 103.302C295.898 103.302 294.398 101.802 294.398 99.9016C294.398 98.0016 297.798 93.1016 297.798 93.1016C297.798 93.1016 301.198 98.1016 301.198 99.9016Z" fill="#36521D"/>
<path opacity="0.3" d="M277.897 112.298C276.597 110.998 276.597 108.798 277.897 107.498C279.197 106.198 281.397 106.198 282.697 107.498C283.997 108.798 285.097 114.698 285.097 114.698C285.097 114.698 279.197 113.698 277.897 112.298Z" fill="#160E6B"/>
<path d="M283.597 109.698C283.597 111.598 282.097 113.098 280.197 113.098C278.297 113.098 276.797 111.598 276.797 109.698C276.797 107.798 280.197 102.898 280.197 102.898C280.197 102.898 283.597 107.798 283.597 109.698Z" fill="#36521D"/>
<path opacity="0.3" d="M241.096 114.603C239.796 113.303 239.796 111.103 241.096 109.803C242.396 108.503 244.596 108.503 245.896 109.803C247.196 111.103 248.296 117.003 248.296 117.003C248.296 117.003 242.496 115.903 241.096 114.603Z" fill="#160E6B"/>
<path d="M246.796 111.902C246.796 113.802 245.296 115.302 243.396 115.302C241.496 115.302 239.996 113.802 239.996 111.902C239.996 110.002 243.396 105.102 243.396 105.102C243.396 105.102 246.796 110.002 246.796 111.902Z" fill="#36521D"/>
<path d="M372.998 208.899C365.098 207.499 332.598 212.599 312.098 216.199C309.998 213.499 306.598 211.199 301.998 210.099C285.198 205.999 281.498 209.499 254.198 204.699C226.898 199.799 224.598 197.199 187.698 187.699C150.798 178.199 126.498 183.499 113.598 192.999C100.698 202.599 93.5984 214.499 91.4984 220.999C89.6984 226.499 85.0984 245.699 83.7984 251.199L62.3984 349.999L157.598 357.399L158.998 257.099C188.298 260.199 237.498 265.099 255.498 264.499C266.698 264.099 293.898 254.399 327.498 243.599C353.698 235.199 378.298 227.499 379.998 226.799C383.898 225.099 384.798 210.899 372.998 208.899Z" fill="url(#paint4_linear_8554_104621)"/>
<path d="M55.6992 367.499L164.199 378.599L163.799 344.899L58.8992 334.199L55.6992 367.499Z" fill="#FFD55F"/>
<path opacity="0.82" d="M55.3984 370.8L164.198 381.9V378.6L55.6984 367.5L55.3984 370.8Z" fill="url(#paint5_linear_8554_104621)"/>
<path opacity="0.82" d="M58.8984 334.598L163.798 345.298L163.698 341.998L59.1984 331.398L58.8984 334.598Z" fill="url(#paint6_linear_8554_104621)"/>
<path opacity="0.74" d="M290.298 224.1C290.298 227 290.398 232.4 293.998 232.8C297.498 233.2 304.298 232.1 306.898 230.3C307.998 229.5 308.098 226.2 308.198 223.7C308.198 221.7 307.798 217.6 305.898 216.4C301.598 213.7 296.798 214.4 293.298 215.1C289.798 215.6 290.298 221.2 290.298 224.1Z" fill="#B59FFF"/>
<path d="M364.797 231.498C364.797 231.498 362.697 226.898 367.697 225.798C372.697 224.698 382.397 222.398 382.397 222.398V225.798L364.797 231.498Z" fill="#937DFF"/>
<path d="M337.598 71.8L336.598 75.9C336.498 76.1 336.298 76.2 336.098 76.1L332.298 74.4C331.998 74.3 331.598 74.7 331.898 74.9L334.498 78.2C334.598 78.4 334.598 78.6 334.398 78.7L330.698 80.6C330.398 80.8 330.498 81.3 330.898 81.3L335.098 81.4C335.298 81.4 335.498 81.6 335.398 81.8L334.598 85.9C334.498 86.3 334.998 86.5 335.198 86.2L337.898 83C337.998 82.8 338.298 82.8 338.498 83L341.198 86.2C341.398 86.5 341.898 86.3 341.798 85.9L340.898 81.8C340.898 81.6 340.998 81.4 341.198 81.4L345.398 81.3C345.798 81.3 345.898 80.8 345.598 80.6L341.898 78.7C341.698 78.6 341.598 78.3 341.798 78.2L344.298 74.9C344.498 74.6 344.198 74.2 343.898 74.4L340.098 76.1C339.898 76.2 339.698 76.1 339.598 75.9L338.598 71.8C338.198 71.4 337.698 71.4 337.598 71.8Z" fill="white"/>
<path d="M203.5 139.002L202.9 141.202C202.9 141.302 202.7 141.402 202.6 141.302L200.5 140.302C200.3 140.202 200.1 140.402 200.3 140.602L201.7 142.402C201.8 142.502 201.7 142.602 201.6 142.702L199.5 143.802C199.3 143.902 199.4 144.202 199.6 144.202H201.9C202 144.202 202.1 144.302 202.1 144.402L201.6 146.702C201.6 146.902 201.8 147.002 201.9 146.902L203.4 145.102C203.5 145.002 203.6 145.002 203.7 145.102L205.2 146.902C205.3 147.102 205.6 146.902 205.5 146.702L205 144.402C205 144.302 205.1 144.202 205.2 144.202H207.5C207.7 144.202 207.8 143.902 207.6 143.802L205.5 142.702C205.4 142.602 205.4 142.502 205.4 142.402L206.8 140.602C206.9 140.402 206.8 140.202 206.6 140.302L204.5 141.302C204.4 141.302 204.3 141.302 204.2 141.202L203.6 139.002C203.8 138.802 203.6 138.802 203.5 139.002Z" fill="white"/>
<path d="M316.199 115.099L315.599 117.299C315.599 117.399 315.399 117.499 315.299 117.399L313.199 116.399C312.999 116.299 312.799 116.499 312.999 116.699L314.399 118.499C314.499 118.599 314.399 118.699 314.299 118.799L312.199 119.899C311.999 119.999 312.099 120.299 312.299 120.299H314.599C314.699 120.299 314.799 120.399 314.799 120.499L314.299 122.799C314.299 122.999 314.499 123.099 314.599 122.999L316.099 121.199C316.199 121.099 316.299 121.099 316.399 121.199L317.899 122.999C317.999 123.199 318.299 122.999 318.199 122.799L317.699 120.499C317.699 120.399 317.799 120.299 317.899 120.299H320.199C320.399 120.299 320.499 119.999 320.299 119.899L318.199 118.799C318.099 118.699 318.099 118.599 318.099 118.499L319.499 116.699C319.599 116.499 319.499 116.299 319.299 116.399L317.199 117.399C317.099 117.399 316.999 117.399 316.899 117.299L316.299 115.099C316.599 114.899 316.299 114.899 316.199 115.099Z" fill="white"/>
<path d="M164.097 154.798L163.497 156.998C163.497 157.098 163.297 157.198 163.197 157.098L161.097 156.098C160.897 155.998 160.697 156.198 160.897 156.398L162.297 158.198C162.397 158.298 162.297 158.398 162.197 158.498L160.097 159.598C159.897 159.698 159.997 159.998 160.197 159.998H162.497C162.597 159.998 162.697 160.098 162.697 160.198L162.197 162.498C162.197 162.698 162.397 162.798 162.497 162.698L163.997 160.898C164.097 160.798 164.197 160.798 164.297 160.898L165.797 162.698C165.897 162.898 166.197 162.698 166.097 162.498L165.597 160.198C165.597 160.098 165.697 159.998 165.797 159.998H168.097C168.297 159.998 168.397 159.698 168.197 159.598L166.097 158.498C165.997 158.398 165.997 158.298 165.997 158.198L167.397 156.398C167.497 156.198 167.397 155.998 167.197 156.098L165.097 157.098C164.997 157.098 164.897 157.098 164.797 156.998L164.197 154.798C164.497 154.598 164.197 154.598 164.097 154.798Z" fill="url(#paint7_linear_8554_104621)"/>
<path opacity="0.7" d="M157.697 341.402L157.797 336.302L81.2969 333.602L157.697 341.402Z" fill="#373382"/>
<path d="M158.897 256.9L157.797 243.5L225.197 263.1L158.897 256.9Z" fill="#937DFF"/>
<path opacity="0.7" d="M337.296 310.802C337.296 310.802 317.896 315.702 304.896 316.602L264.596 298.802C260.996 297.202 256.796 298.802 255.196 302.502C253.896 305.402 254.696 308.802 257.096 310.802L245.396 305.602C241.796 304.002 237.596 305.602 235.996 309.302C234.496 312.602 235.796 316.402 238.796 318.302C236.696 318.502 234.496 318.702 232.396 319.202C227.496 320.302 225.396 322.302 224.496 325.102L225.496 331.902L267.196 330.902L287.496 339.802C288.396 340.202 289.396 340.402 290.396 340.402C293.196 340.402 295.796 338.802 296.996 336.102C297.896 334.102 297.796 332.002 296.896 330.102L300.196 330.002L306.796 332.902C307.696 333.302 308.696 333.502 309.696 333.502C312.296 333.502 314.796 332.002 316.096 329.602L331.196 329.302L337.296 310.802Z" fill="#373382"/>
<path d="M445.598 407.401L426.098 340.201C424.898 336.401 420.798 323.401 419.298 319.701C417.498 315.401 412.098 307.401 402.698 301.501C393.298 295.501 376.398 293.001 351.298 301.401C326.198 309.801 324.798 311.701 306.198 316.301C287.598 320.901 284.898 318.701 273.498 322.301C270.298 323.301 268.098 325.101 266.798 327.001C252.398 325.601 229.798 323.601 224.398 324.901C216.298 326.901 217.698 336.601 220.498 337.501C221.698 337.901 238.998 342.001 257.498 346.601C281.198 352.401 300.398 357.801 308.198 357.601C320.598 357.201 354.398 351.401 374.498 347.901L380.298 417.001L445.598 407.401Z" fill="url(#paint8_linear_8554_104621)"/>
<path d="M286.698 341.2L295.998 339.5L293.698 357.8L284.398 355.7L286.698 341.2Z" fill="#FFD55F"/>
<path opacity="0.39" d="M291.799 340.002L288.699 356.702L293.699 357.802L296.499 339.102L291.799 340.002Z" fill="#DD8C22"/>
<path d="M274.296 340.4C265.496 337.8 265.496 330.5 265.496 330.5C265.496 330.5 265.196 336.9 267.596 339.5C268.996 341 270.496 343.1 280.296 344C287.196 344.6 298.796 342.6 308.596 340.6C314.596 339.3 317.796 340.5 321.696 339.3C325.896 338 328.496 333.4 328.496 333.4C328.496 333.4 283.096 342.9 274.296 340.4Z" fill="#373382"/>
<path d="M379.899 399.7L444.199 389.5L447.999 413.5L379.599 424.4L376.199 400.3L379.899 399.7Z" fill="#FFD55F"/>
<path opacity="0.82" d="M379.899 399.7L444.199 389.5L447.999 413.5L379.599 424.4L376.199 400.3L379.899 399.7Z" fill="url(#paint9_linear_8554_104621)"/>
<path opacity="0.82" d="M379.598 424.402L447.998 413.602L448.598 417.102L380.198 428.002L379.598 424.402Z" fill="url(#paint10_linear_8554_104621)"/>
<path d="M379.3 404.397C379.742 404.397 380.1 404.039 380.1 403.597C380.1 403.155 379.742 402.797 379.3 402.797C378.858 402.797 378.5 403.155 378.5 403.597C378.5 404.039 378.858 404.397 379.3 404.397Z" fill="#DD8C22"/>
<path d="M379.902 407.795C380.343 407.795 380.702 407.437 380.702 406.995C380.702 406.553 380.343 406.195 379.902 406.195C379.46 406.195 379.102 406.553 379.102 406.995C379.102 407.437 379.46 407.795 379.902 407.795Z" fill="#DD8C22"/>
<path d="M380.402 411.198C380.843 411.198 381.202 410.839 381.202 410.398C381.202 409.956 380.843 409.598 380.402 409.598C379.96 409.598 379.602 409.956 379.602 410.398C379.602 410.839 379.96 411.198 380.402 411.198Z" fill="#DD8C22"/>
<path d="M380.902 414.596C381.343 414.596 381.702 414.238 381.702 413.796C381.702 413.354 381.343 412.996 380.902 412.996C380.46 412.996 380.102 413.354 380.102 413.796C380.102 414.238 380.46 414.596 380.902 414.596Z" fill="#DD8C22"/>
<path d="M381.499 417.998C381.941 417.998 382.299 417.64 382.299 417.198C382.299 416.757 381.941 416.398 381.499 416.398C381.057 416.398 380.699 416.757 380.699 417.198C380.699 417.64 381.057 417.998 381.499 417.998Z" fill="#DD8C22"/>
<path d="M381.999 421.397C382.441 421.397 382.799 421.039 382.799 420.597C382.799 420.155 382.441 419.797 381.999 419.797C381.557 419.797 381.199 420.155 381.199 420.597C381.199 421.039 381.557 421.397 381.999 421.397Z" fill="#DD8C22"/>
<path d="M383.509 402.006L382.324 402.195L385.269 420.662L386.454 420.473L383.509 402.006Z" fill="#DD8C22"/>
<path d="M386.198 403.299C386.64 403.299 386.998 402.941 386.998 402.499C386.998 402.057 386.64 401.699 386.198 401.699C385.757 401.699 385.398 402.057 385.398 402.499C385.398 402.941 385.757 403.299 386.198 403.299Z" fill="#DD8C22"/>
<path d="M386.8 406.698C387.242 406.698 387.6 406.339 387.6 405.898C387.6 405.456 387.242 405.098 386.8 405.098C386.358 405.098 386 405.456 386 405.898C386 406.339 386.358 406.698 386.8 406.698Z" fill="#DD8C22"/>
<path d="M387.3 410.1C387.742 410.1 388.1 409.742 388.1 409.3C388.1 408.858 387.742 408.5 387.3 408.5C386.858 408.5 386.5 408.858 386.5 409.3C386.5 409.742 386.858 410.1 387.3 410.1Z" fill="#DD8C22"/>
<path d="M387.898 413.498C388.339 413.498 388.698 413.14 388.698 412.698C388.698 412.257 388.339 411.898 387.898 411.898C387.456 411.898 387.098 412.257 387.098 412.698C387.098 413.14 387.456 413.498 387.898 413.498Z" fill="#DD8C22"/>
<path d="M388.398 416.901C388.839 416.901 389.198 416.543 389.198 416.101C389.198 415.659 388.839 415.301 388.398 415.301C387.956 415.301 387.598 415.659 387.598 416.101C387.598 416.543 387.956 416.901 388.398 416.901Z" fill="#DD8C22"/>
<path d="M388.999 420.299C389.441 420.299 389.799 419.941 389.799 419.499C389.799 419.057 389.441 418.699 388.999 418.699C388.557 418.699 388.199 419.057 388.199 419.499C388.199 419.941 388.557 420.299 388.999 420.299Z" fill="#DD8C22"/>
<path d="M390.415 400.92L389.23 401.109L392.178 419.576L393.363 419.387L390.415 400.92Z" fill="#DD8C22"/>
<path d="M393.198 402.198C393.64 402.198 393.998 401.839 393.998 401.398C393.998 400.956 393.64 400.598 393.198 400.598C392.757 400.598 392.398 400.956 392.398 401.398C392.398 401.839 392.757 402.198 393.198 402.198Z" fill="#DD8C22"/>
<path d="M393.698 405.596C394.14 405.596 394.498 405.238 394.498 404.796C394.498 404.354 394.14 403.996 393.698 403.996C393.257 403.996 392.898 404.354 392.898 404.796C392.898 405.238 393.257 405.596 393.698 405.596Z" fill="#DD8C22"/>
<path d="M394.198 408.998C394.64 408.998 394.998 408.64 394.998 408.198C394.998 407.757 394.64 407.398 394.198 407.398C393.757 407.398 393.398 407.757 393.398 408.198C393.398 408.64 393.757 408.998 394.198 408.998Z" fill="#DD8C22"/>
<path d="M394.8 412.397C395.242 412.397 395.6 412.039 395.6 411.597C395.6 411.155 395.242 410.797 394.8 410.797C394.358 410.797 394 411.155 394 411.597C394 412.039 394.358 412.397 394.8 412.397Z" fill="#DD8C22"/>
<path d="M395.3 415.799C395.742 415.799 396.1 415.441 396.1 414.999C396.1 414.557 395.742 414.199 395.3 414.199C394.858 414.199 394.5 414.557 394.5 414.999C394.5 415.441 394.858 415.799 395.3 415.799Z" fill="#DD8C22"/>
<path d="M395.898 419.198C396.339 419.198 396.698 418.839 396.698 418.398C396.698 417.956 396.339 417.598 395.898 417.598C395.456 417.598 395.098 417.956 395.098 418.398C395.098 418.839 395.456 419.198 395.898 419.198Z" fill="#DD8C22"/>
<path d="M397.419 399.811L396.234 400L399.181 418.466L400.366 418.277L397.419 399.811Z" fill="#DD8C22"/>
<path d="M400.101 401.1C400.543 401.1 400.901 400.742 400.901 400.3C400.901 399.858 400.543 399.5 400.101 399.5C399.659 399.5 399.301 399.858 399.301 400.3C399.301 400.742 399.659 401.1 400.101 401.1Z" fill="#DD8C22"/>
<path d="M400.601 404.498C401.043 404.498 401.401 404.14 401.401 403.698C401.401 403.257 401.043 402.898 400.601 402.898C400.159 402.898 399.801 403.257 399.801 403.698C399.801 404.14 400.159 404.498 400.601 404.498Z" fill="#DD8C22"/>
<path d="M401.202 407.901C401.644 407.901 402.002 407.543 402.002 407.101C402.002 406.659 401.644 406.301 401.202 406.301C400.761 406.301 400.402 406.659 400.402 407.101C400.402 407.543 400.761 407.901 401.202 407.901Z" fill="#DD8C22"/>
<path d="M401.702 411.299C402.144 411.299 402.502 410.941 402.502 410.499C402.502 410.057 402.144 409.699 401.702 409.699C401.261 409.699 400.902 410.057 400.902 410.499C400.902 410.941 401.261 411.299 401.702 411.299Z" fill="#DD8C22"/>
<path d="M402.3 414.702C402.742 414.702 403.1 414.343 403.1 413.902C403.1 413.46 402.742 413.102 402.3 413.102C401.858 413.102 401.5 413.46 401.5 413.902C401.5 414.343 401.858 414.702 402.3 414.702Z" fill="#DD8C22"/>
<path d="M402.8 418.1C403.242 418.1 403.6 417.742 403.6 417.3C403.6 416.858 403.242 416.5 402.8 416.5C402.358 416.5 402 416.858 402 417.3C402 417.742 402.358 418.1 402.8 418.1Z" fill="#DD8C22"/>
<path d="M404.318 398.713L403.133 398.902L406.08 417.369L407.265 417.179L404.318 398.713Z" fill="#DD8C22"/>
<path d="M406.999 399.998C407.441 399.998 407.799 399.64 407.799 399.198C407.799 398.757 407.441 398.398 406.999 398.398C406.557 398.398 406.199 398.757 406.199 399.198C406.199 399.64 406.557 399.998 406.999 399.998Z" fill="#DD8C22"/>
<path d="M407.499 403.397C407.941 403.397 408.299 403.039 408.299 402.597C408.299 402.155 407.941 401.797 407.499 401.797C407.057 401.797 406.699 402.155 406.699 402.597C406.699 403.039 407.057 403.397 407.499 403.397Z" fill="#DD8C22"/>
<path d="M408.101 406.799C408.543 406.799 408.901 406.441 408.901 405.999C408.901 405.557 408.543 405.199 408.101 405.199C407.659 405.199 407.301 405.557 407.301 405.999C407.301 406.441 407.659 406.799 408.101 406.799Z" fill="#DD8C22"/>
<path d="M408.601 410.198C409.043 410.198 409.401 409.839 409.401 409.398C409.401 408.956 409.043 408.598 408.601 408.598C408.159 408.598 407.801 408.956 407.801 409.398C407.801 409.839 408.159 410.198 408.601 410.198Z" fill="#DD8C22"/>
<path d="M409.198 413.6C409.64 413.6 409.998 413.242 409.998 412.8C409.998 412.358 409.64 412 409.198 412C408.757 412 408.398 412.358 408.398 412.8C408.398 413.242 408.757 413.6 409.198 413.6Z" fill="#DD8C22"/>
<path d="M409.698 416.998C410.14 416.998 410.498 416.64 410.498 416.198C410.498 415.757 410.14 415.398 409.698 415.398C409.257 415.398 408.898 415.757 408.898 416.198C408.898 416.64 409.257 416.998 409.698 416.998Z" fill="#DD8C22"/>
<path d="M411.22 397.616L410.035 397.805L412.982 416.271L414.167 416.082L411.22 397.616Z" fill="#DD8C22"/>
<path d="M413.902 398.897C414.343 398.897 414.702 398.539 414.702 398.097C414.702 397.655 414.343 397.297 413.902 397.297C413.46 397.297 413.102 397.655 413.102 398.097C413.102 398.539 413.46 398.897 413.902 398.897Z" fill="#DD8C22"/>
<path d="M414.503 402.295C414.945 402.295 415.303 401.937 415.303 401.495C415.303 401.053 414.945 400.695 414.503 400.695C414.061 400.695 413.703 401.053 413.703 401.495C413.703 401.937 414.061 402.295 414.503 402.295Z" fill="#DD8C22"/>
<path d="M415.003 405.698C415.445 405.698 415.803 405.339 415.803 404.898C415.803 404.456 415.445 404.098 415.003 404.098C414.561 404.098 414.203 404.456 414.203 404.898C414.203 405.339 414.561 405.698 415.003 405.698Z" fill="#DD8C22"/>
<path d="M415.601 409.096C416.043 409.096 416.401 408.738 416.401 408.296C416.401 407.854 416.043 407.496 415.601 407.496C415.159 407.496 414.801 407.854 414.801 408.296C414.801 408.738 415.159 409.096 415.601 409.096Z" fill="#DD8C22"/>
<path d="M416.101 412.498C416.543 412.498 416.901 412.14 416.901 411.698C416.901 411.257 416.543 410.898 416.101 410.898C415.659 410.898 415.301 411.257 415.301 411.698C415.301 412.14 415.659 412.498 416.101 412.498Z" fill="#DD8C22"/>
<path d="M416.601 415.897C417.043 415.897 417.401 415.539 417.401 415.097C417.401 414.655 417.043 414.297 416.601 414.297C416.159 414.297 415.801 414.655 415.801 415.097C415.801 415.539 416.159 415.897 416.601 415.897Z" fill="#DD8C22"/>
<path d="M418.119 396.518L416.934 396.707L419.881 415.173L421.066 414.984L418.119 396.518Z" fill="#DD8C22"/>
<path d="M420.902 397.799C421.343 397.799 421.702 397.441 421.702 396.999C421.702 396.557 421.343 396.199 420.902 396.199C420.46 396.199 420.102 396.557 420.102 396.999C420.102 397.441 420.46 397.799 420.902 397.799Z" fill="#DD8C22"/>
<path d="M421.402 401.198C421.843 401.198 422.202 400.839 422.202 400.398C422.202 399.956 421.843 399.598 421.402 399.598C420.96 399.598 420.602 399.956 420.602 400.398C420.602 400.839 420.96 401.198 421.402 401.198Z" fill="#DD8C22"/>
<path d="M421.902 404.6C422.343 404.6 422.702 404.242 422.702 403.8C422.702 403.358 422.343 403 421.902 403C421.46 403 421.102 403.358 421.102 403.8C421.102 404.242 421.46 404.6 421.902 404.6Z" fill="#DD8C22"/>
<path d="M422.503 407.998C422.945 407.998 423.303 407.64 423.303 407.198C423.303 406.757 422.945 406.398 422.503 406.398C422.061 406.398 421.703 406.757 421.703 407.198C421.703 407.64 422.061 407.998 422.503 407.998Z" fill="#DD8C22"/>
<path d="M423.003 411.401C423.445 411.401 423.803 411.043 423.803 410.601C423.803 410.159 423.445 409.801 423.003 409.801C422.561 409.801 422.203 410.159 422.203 410.601C422.203 411.043 422.561 411.401 423.003 411.401Z" fill="#DD8C22"/>
<path d="M423.601 414.799C424.043 414.799 424.401 414.441 424.401 413.999C424.401 413.557 424.043 413.199 423.601 413.199C423.159 413.199 422.801 413.557 422.801 413.999C422.801 414.441 423.159 414.799 423.601 414.799Z" fill="#DD8C22"/>
<path d="M425.119 395.409L423.934 395.598L426.881 414.064L428.066 413.875L425.119 395.409Z" fill="#DD8C22"/>
<path d="M427.8 396.698C428.242 396.698 428.6 396.339 428.6 395.898C428.6 395.456 428.242 395.098 427.8 395.098C427.358 395.098 427 395.456 427 395.898C427 396.339 427.358 396.698 427.8 396.698Z" fill="#DD8C22"/>
<path d="M428.3 400.096C428.742 400.096 429.1 399.738 429.1 399.296C429.1 398.854 428.742 398.496 428.3 398.496C427.858 398.496 427.5 398.854 427.5 399.296C427.5 399.738 427.858 400.096 428.3 400.096Z" fill="#DD8C22"/>
<path d="M428.902 403.498C429.343 403.498 429.702 403.14 429.702 402.698C429.702 402.257 429.343 401.898 428.902 401.898C428.46 401.898 428.102 402.257 428.102 402.698C428.102 403.14 428.46 403.498 428.902 403.498Z" fill="#DD8C22"/>
<path d="M429.402 406.897C429.843 406.897 430.202 406.539 430.202 406.097C430.202 405.655 429.843 405.297 429.402 405.297C428.96 405.297 428.602 405.655 428.602 406.097C428.602 406.539 428.96 406.897 429.402 406.897Z" fill="#DD8C22"/>
<path d="M429.902 410.299C430.343 410.299 430.702 409.941 430.702 409.499C430.702 409.057 430.343 408.699 429.902 408.699C429.46 408.699 429.102 409.057 429.102 409.499C429.102 409.941 429.46 410.299 429.902 410.299Z" fill="#DD8C22"/>
<path d="M430.499 413.698C430.941 413.698 431.299 413.339 431.299 412.898C431.299 412.456 430.941 412.098 430.499 412.098C430.057 412.098 429.699 412.456 429.699 412.898C429.699 413.339 430.057 413.698 430.499 413.698Z" fill="#DD8C22"/>
<path d="M432.021 394.311L430.836 394.5L433.783 412.966L434.968 412.777L432.021 394.311Z" fill="#DD8C22"/>
<path d="M434.698 395.6C435.14 395.6 435.498 395.242 435.498 394.8C435.498 394.358 435.14 394 434.698 394C434.257 394 433.898 394.358 433.898 394.8C433.898 395.242 434.257 395.6 434.698 395.6Z" fill="#DD8C22"/>
<path d="M435.198 398.998C435.64 398.998 435.998 398.64 435.998 398.198C435.998 397.757 435.64 397.398 435.198 397.398C434.757 397.398 434.398 397.757 434.398 398.198C434.398 398.64 434.757 398.998 435.198 398.998Z" fill="#DD8C22"/>
<path d="M435.8 402.401C436.242 402.401 436.6 402.043 436.6 401.601C436.6 401.159 436.242 400.801 435.8 400.801C435.358 400.801 435 401.159 435 401.601C435 402.043 435.358 402.401 435.8 402.401Z" fill="#DD8C22"/>
<path d="M436.3 405.799C436.742 405.799 437.1 405.441 437.1 404.999C437.1 404.557 436.742 404.199 436.3 404.199C435.858 404.199 435.5 404.557 435.5 404.999C435.5 405.441 435.858 405.799 436.3 405.799Z" fill="#DD8C22"/>
<path d="M436.898 409.202C437.339 409.202 437.698 408.843 437.698 408.402C437.698 407.96 437.339 407.602 436.898 407.602C436.456 407.602 436.098 407.96 436.098 408.402C436.098 408.843 436.456 409.202 436.898 409.202Z" fill="#DD8C22"/>
<path d="M437.398 412.6C437.839 412.6 438.198 412.242 438.198 411.8C438.198 411.358 437.839 411 437.398 411C436.956 411 436.598 411.358 436.598 411.8C436.598 412.242 436.956 412.6 437.398 412.6Z" fill="#DD8C22"/>
<path d="M438.919 393.213L437.734 393.402L440.681 411.869L441.866 411.679L438.919 393.213Z" fill="#DD8C22"/>
<path d="M441.601 394.498C442.043 394.498 442.401 394.14 442.401 393.698C442.401 393.257 442.043 392.898 441.601 392.898C441.159 392.898 440.801 393.257 440.801 393.698C440.801 394.14 441.159 394.498 441.601 394.498Z" fill="#DD8C22"/>
<path d="M442.202 397.897C442.644 397.897 443.002 397.539 443.002 397.097C443.002 396.655 442.644 396.297 442.202 396.297C441.761 396.297 441.402 396.655 441.402 397.097C441.402 397.539 441.761 397.897 442.202 397.897Z" fill="#DD8C22"/>
<path d="M442.702 401.299C443.144 401.299 443.502 400.941 443.502 400.499C443.502 400.057 443.144 399.699 442.702 399.699C442.261 399.699 441.902 400.057 441.902 400.499C441.902 400.941 442.261 401.299 442.702 401.299Z" fill="#DD8C22"/>
<path d="M443.202 404.6C443.644 404.6 444.002 404.242 444.002 403.8C444.002 403.358 443.644 403 443.202 403C442.761 403 442.402 403.358 442.402 403.8C442.402 404.242 442.761 404.6 443.202 404.6Z" fill="#DD8C22"/>
<path d="M443.8 408.1C444.242 408.1 444.6 407.742 444.6 407.3C444.6 406.858 444.242 406.5 443.8 406.5C443.358 406.5 443 406.858 443 407.3C443 407.742 443.358 408.1 443.8 408.1Z" fill="#DD8C22"/>
<path d="M444.3 411.397C444.742 411.397 445.1 411.039 445.1 410.597C445.1 410.155 444.742 409.797 444.3 409.797C443.858 409.797 443.5 410.155 443.5 410.597C443.5 411.039 443.858 411.397 444.3 411.397Z" fill="#DD8C22"/>
<path d="M267.3 326.4C267.3 326.4 232.9 324.4 230 324.5C227.1 324.6 265.5 330.4 265.5 330.4L267.3 326.4Z" fill="#373382"/>
<path d="M378.398 395.302L432.998 391.102L378.798 399.802L378.398 395.302Z" fill="#937DFF"/>
<path opacity="0.82" d="M55.6992 367.499L164.199 378.599L163.799 344.899L58.8992 334.199L55.6992 367.499Z" fill="url(#paint11_linear_8554_104621)"/>
<path d="M163.899 352.102L58.1992 341.202L58.4992 338.102L163.799 349.002L163.899 352.102Z" fill="#DD8C22"/>
<path d="M164.098 374.298L56.0977 363.598L56.3977 360.398L164.098 371.198V374.298Z" fill="#DD8C22"/>
<path d="M160.797 372.701L150.797 360.401L163.797 349.801L163.897 351.901L152.997 360.701L161.997 371.701L160.797 372.701Z" fill="#DD8C22"/>
<path d="M151.398 371.798L141.398 359.498L154.398 348.898L155.398 350.098L143.598 359.698L152.598 370.798L151.398 371.798Z" fill="#DD8C22"/>
<path d="M142 370.798L132 358.498L145 347.898L146 349.098L134.2 358.698L143.2 369.798L142 370.798Z" fill="#DD8C22"/>
<path d="M132.6 369.798L122.5 357.598L135.6 346.898L136.6 348.198L124.8 357.798L133.8 368.798L132.6 369.798Z" fill="#DD8C22"/>
<path d="M123.098 368.9L113.098 356.6L126.198 346L127.198 347.2L115.398 356.8L124.398 367.9L123.098 368.9Z" fill="#DD8C22"/>
<path d="M113.699 367.9L103.699 355.6L116.699 345L117.699 346.2L105.899 355.9L114.899 366.9L113.699 367.9Z" fill="#DD8C22"/>
<path d="M104.297 367.002L94.2969 354.702L107.297 344.102L108.297 345.302L96.4969 354.902L105.497 366.002L104.297 367.002Z" fill="#DD8C22"/>
<path d="M94.8984 366.002L84.8984 353.702L97.8984 343.102L98.8984 344.302L87.0984 353.902L96.0984 365.002L94.8984 366.002Z" fill="#DD8C22"/>
<path d="M85.4984 365.002L75.3984 352.702L88.4984 342.102L89.4984 343.402L77.6984 353.002L86.6984 364.002L85.4984 365.002Z" fill="#DD8C22"/>
<path d="M76 364.099L66 351.799L79.1 341.199L80.1 342.399L68.3 351.999L77.3 363.099L76 364.099Z" fill="#DD8C22"/>
<path d="M66.5992 363.099L57.1992 351.599L57.3992 350.199L69.5992 340.199L70.5992 341.399L58.7992 350.999L67.7992 362.099L66.5992 363.099Z" fill="#DD8C22"/>
<path opacity="0.3" d="M56.1992 361.902L164.099 372.902L163.799 350.402L58.3992 339.602L56.1992 361.902Z" fill="#DD8C22"/>
<path d="M163.899 358.398L160.199 361.398L163.999 366.098V363.498L162.499 361.598L163.999 360.398L163.899 358.398Z" fill="#DD8C22"/>
<path d="M225.199 233.701C225.199 233.701 227.999 237.501 234.199 239.001C239.999 240.301 244.499 238.401 253.299 239.601C267.599 241.601 284.499 243.301 294.499 241.701C308.499 239.501 310.499 236.201 312.299 234.001C315.499 230.001 314.399 220.801 314.399 220.801C314.399 220.801 315.699 235.701 296.199 238.101C276.599 240.601 225.199 233.701 225.199 233.701Z" fill="#373382"/>
<path opacity="0.4" d="M280.698 325.3C278.298 324.9 274.998 324.4 271.998 326.2C270.698 327 270.398 329.9 270.398 331.3C270.398 333 270.498 335.3 271.298 335.9C273.098 337.2 277.798 337.9 280.198 337.7C282.598 337.4 282.698 333.7 282.698 331.7C282.698 329.6 283.098 325.7 280.698 325.3Z" fill="#B59FFF"/>
<defs>
<linearGradient id="paint0_linear_8554_104621" x1="261.324" y1="227.397" x2="261.324" y2="68.9964" gradientUnits="userSpaceOnUse">
<stop stop-color="#6800D4"/>
<stop offset="0.2742" stop-color="#6A03D6"/>
<stop offset="0.4928" stop-color="#700DDC"/>
<stop offset="0.6924" stop-color="#791EE6"/>
<stop offset="0.8793" stop-color="#8735F3"/>
<stop offset="1" stop-color="#9249FF"/>
</linearGradient>
<linearGradient id="paint1_linear_8554_104621" x1="284.496" y1="198.033" x2="284.496" y2="102.19" gradientUnits="userSpaceOnUse">
<stop stop-color="#6800D4"/>
<stop offset="0.2742" stop-color="#6A03D6"/>
<stop offset="0.4928" stop-color="#700DDC"/>
<stop offset="0.6924" stop-color="#791EE6"/>
<stop offset="0.8793" stop-color="#8735F3"/>
<stop offset="1" stop-color="#9249FF"/>
</linearGradient>
<linearGradient id="paint2_linear_8554_104621" x1="276.173" y1="119.037" x2="276.173" y2="67.4202" gradientUnits="userSpaceOnUse">
<stop stop-color="#6800D4"/>
<stop offset="0.2742" stop-color="#6A03D6"/>
<stop offset="0.4928" stop-color="#700DDC"/>
<stop offset="0.6924" stop-color="#791EE6"/>
<stop offset="0.8793" stop-color="#8735F3"/>
<stop offset="1" stop-color="#9249FF"/>
</linearGradient>
<linearGradient id="paint3_linear_8554_104621" x1="269.55" y1="80.2007" x2="269.55" y2="47.9276" gradientUnits="userSpaceOnUse">
<stop stop-color="#6800D4"/>
<stop offset="0.2742" stop-color="#6A03D6"/>
<stop offset="0.4928" stop-color="#700DDC"/>
<stop offset="0.6924" stop-color="#791EE6"/>
<stop offset="0.8793" stop-color="#8735F3"/>
<stop offset="1" stop-color="#9249FF"/>
</linearGradient>
<linearGradient id="paint4_linear_8554_104621" x1="222.436" y1="357.235" x2="222.436" y2="182.574" gradientUnits="userSpaceOnUse">
<stop stop-color="#684DD4"/>
<stop offset="0.6968" stop-color="#A57FFF"/>
</linearGradient>
<linearGradient id="paint5_linear_8554_104621" x1="55.3774" y1="374.688" x2="164.242" y2="374.688" gradientUnits="userSpaceOnUse">
<stop offset="0.0488" stop-color="#6442FF"/>
<stop offset="0.1847" stop-color="#754CE9"/>
<stop offset="0.4683" stop-color="#A164B0"/>
<stop offset="0.8724" stop-color="#E88C55"/>
<stop offset="1" stop-color="#FF9937"/>
</linearGradient>
<linearGradient id="paint6_linear_8554_104621" x1="58.8598" y1="338.334" x2="163.759" y2="338.334" gradientUnits="userSpaceOnUse">
<stop offset="0.0488" stop-color="#6442FF"/>
<stop offset="0.1847" stop-color="#754CE9"/>
<stop offset="0.4683" stop-color="#A164B0"/>
<stop offset="0.8724" stop-color="#E88C55"/>
<stop offset="1" stop-color="#FF9937"/>
</linearGradient>
<linearGradient id="paint7_linear_8554_104621" x1="160.133" y1="158.784" x2="168.538" y2="158.784" gradientUnits="userSpaceOnUse">
<stop stop-color="#6800D4"/>
<stop offset="0.2742" stop-color="#6A03D6"/>
<stop offset="0.4928" stop-color="#700DDC"/>
<stop offset="0.6924" stop-color="#791EE6"/>
<stop offset="0.8793" stop-color="#8735F3"/>
<stop offset="1" stop-color="#9249FF"/>
</linearGradient>
<linearGradient id="paint8_linear_8554_104621" x1="218.322" y1="356.574" x2="445.59" y2="356.574" gradientUnits="userSpaceOnUse">
<stop stop-color="#684DD4"/>
<stop offset="0.6968" stop-color="#A57FFF"/>
</linearGradient>
<linearGradient id="paint9_linear_8554_104621" x1="376.215" y1="406.941" x2="448.016" y2="406.941" gradientUnits="userSpaceOnUse">
<stop offset="0.0488" stop-color="#6442FF"/>
<stop offset="0.1847" stop-color="#754CE9"/>
<stop offset="0.4683" stop-color="#A164B0"/>
<stop offset="0.8724" stop-color="#E88C55"/>
<stop offset="1" stop-color="#FF9937"/>
</linearGradient>
<linearGradient id="paint10_linear_8554_104621" x1="379.608" y1="420.779" x2="448.619" y2="420.779" gradientUnits="userSpaceOnUse">
<stop offset="0.0488" stop-color="#6442FF"/>
<stop offset="0.1847" stop-color="#754CE9"/>
<stop offset="0.4683" stop-color="#A164B0"/>
<stop offset="0.8724" stop-color="#E88C55"/>
<stop offset="1" stop-color="#FF9937"/>
</linearGradient>
<linearGradient id="paint11_linear_8554_104621" x1="55.6885" y1="356.379" x2="164.196" y2="356.379" gradientUnits="userSpaceOnUse">
<stop offset="0.0488" stop-color="#6442FF"/>
<stop offset="0.1847" stop-color="#754CE9"/>
<stop offset="0.4683" stop-color="#A164B0"/>
<stop offset="0.8724" stop-color="#E88C55"/>
<stop offset="1" stop-color="#FF9937"/>
</linearGradient>
</defs>
</svg>
