<svg width="504" height="472" viewBox="0 0 504 472" fill="none" xmlns="http://www.w3.org/2000/svg">
<path d="M235.688 259.123C235.688 259.123 276.497 266.473 300.077 265.463C323.527 264.453 375.367 256.593 384.617 255.453C393.867 254.313 402.357 255.203 409.967 260.523C416.178 260.013 422.387 260.143 428.598 261.033C437.598 262.423 441.777 265.853 443.807 270.793L442.797 283.343L249.378 292.213L235.688 259.123Z" fill="#373382"/>
<path d="M443.809 270.781C433.799 269.011 392.599 275.471 366.619 280.031C363.959 276.611 359.649 273.691 353.819 272.301C332.529 267.101 327.839 271.541 293.229 265.461C258.629 259.251 255.709 255.951 208.939 243.911C162.169 231.871 131.369 238.591 115.019 250.631C98.6689 262.801 89.6689 277.881 87.0089 286.121C84.7289 293.091 78.8989 317.431 77.2489 324.401L50.1289 449.621L170.789 459.001L172.559 331.871C209.699 335.801 272.059 342.011 294.869 341.251C309.069 340.741 343.539 328.451 386.129 314.761C419.339 304.111 450.519 294.351 452.669 293.471C457.619 291.311 458.759 273.311 443.809 270.781Z" fill="url(#paint0_linear_8711_113863)"/>
<path opacity="0.74" d="M338.989 290.043C338.989 293.723 339.119 300.563 343.679 301.073C348.119 301.583 356.729 300.183 360.029 297.903C361.419 296.893 361.549 292.703 361.679 289.533C361.679 287.003 361.169 281.803 358.759 280.283C353.309 276.863 347.229 277.753 342.789 278.633C338.349 279.273 338.989 286.373 338.989 290.043Z" fill="#B59FFF"/>
<path d="M433.409 299.421C433.409 299.421 430.749 293.591 437.089 292.201C443.429 290.811 455.719 287.891 455.719 287.891V292.201L433.409 299.421Z" fill="#937DFF"/>
<path d="M172.441 331.609L171.051 314.629L256.471 339.469L172.441 331.609Z" fill="#937DFF"/>
<path d="M256.469 302.209C256.469 302.209 260.019 307.029 267.879 308.929C275.229 310.579 280.929 308.169 292.089 309.689C310.209 312.219 331.639 314.379 344.309 312.349C362.049 309.559 364.589 305.379 366.869 302.589C370.929 297.519 369.529 285.859 369.529 285.859C369.529 285.859 371.179 304.749 346.459 307.789C321.619 310.949 256.469 302.209 256.469 302.209Z" fill="#373382"/>
<path d="M116.118 114.039L115.608 116.039L113.738 115.189L114.988 116.839L113.148 117.769L115.208 117.809L114.798 119.829L116.118 118.249L117.438 119.829L117.028 117.809L119.088 117.769L117.248 116.839L118.498 115.189L116.608 116.039L116.118 114.039Z" fill="white"/>
<path d="M92.09 173.82L91.22 177.24L88.01 175.78L90.14 178.58L87 180.19L90.53 180.27L89.82 183.73L92.08 181.02L94.33 183.73L93.63 180.27L97.15 180.19L94.02 178.58L96.15 175.78L92.93 177.24L92.09 173.82Z" fill="white"/>
<path d="M108.111 58.7188L107.241 62.1387L104.041 60.6787L106.171 63.4888L103.031 65.0887L106.561 65.1787L105.851 68.6387L108.111 65.9287L110.361 68.6387L109.661 65.1787L113.171 65.0887L110.041 63.4888L112.171 60.6787L108.961 62.1387L108.111 58.7188Z" fill="white"/>
<path d="M187.639 225.379L187.249 226.919L185.809 226.259L186.769 227.519L185.359 228.239L186.929 228.269L186.619 229.829L187.629 228.619L188.649 229.829L188.329 228.269L189.919 228.239L188.509 227.519L189.459 226.259L188.019 226.919L187.639 225.379Z" fill="white"/>
<path d="M362.962 59.4609L362.572 61.0009L361.132 60.3409L362.082 61.6009L360.672 62.3209L362.262 62.3509L361.942 63.9109L362.962 62.6909L363.972 63.9109L363.662 62.3509L365.242 62.3209L363.832 61.6009L364.792 60.3409L363.352 61.0009L362.962 59.4609Z" fill="white"/>
<path d="M228.211 207.121L227.351 210.551L224.141 209.091L226.271 211.891L223.141 213.501L226.651 213.581L225.951 217.041L228.201 214.341L230.461 217.041L229.751 213.581L233.281 213.501L230.141 211.891L232.271 209.091L229.061 210.551L228.211 207.121Z" fill="white"/>
<path opacity="0.31" d="M260.871 0H132.081C130.451 0 129.121 1.33 129.121 2.97V97.9C129.121 99.54 130.451 100.87 132.081 100.87H260.871C262.501 100.87 263.831 99.54 263.831 97.9V2.97C263.831 1.33 262.501 0 260.871 0Z" fill="url(#paint1_linear_8711_113863)"/>
<path d="M236.591 100.899L236.701 86.9887L204.861 83.9688C201.901 89.2488 199.801 94.9588 198.641 100.909H236.591V100.899Z" fill="white"/>
<path d="M137.29 8.60964C137.72 8.60964 138.13 8.48964 138.49 8.24964C138.85 8.01964 139.12 7.67964 139.29 7.28964C139.46 6.89964 139.5 6.45964 139.43 6.03964C139.35 5.61964 139.15 5.22964 138.86 4.92964C138.56 4.61964 138.18 4.40964 137.77 4.31964C137.35 4.22964 136.92 4.25964 136.52 4.41964C136.12 4.57964 135.78 4.83964 135.54 5.18964C135.3 5.53964 135.16 5.94964 135.15 6.37964C135.14 6.66964 135.19 6.95964 135.3 7.21964C135.4 7.48964 135.56 7.72964 135.76 7.93964C135.96 8.14964 136.2 8.30964 136.47 8.42964C136.71 8.54964 137 8.60964 137.29 8.60964Z" fill="#00C7BA"/>
<path d="M144.491 8.60887C144.911 8.59887 145.321 8.45887 145.671 8.21887C146.021 7.97887 146.291 7.63887 146.441 7.23887C146.601 6.84887 146.641 6.40887 146.551 5.99887C146.471 5.57887 146.261 5.19887 145.961 4.89887C145.661 4.59887 145.281 4.38887 144.871 4.30887C144.461 4.21887 144.031 4.25887 143.631 4.41887C143.241 4.57887 142.901 4.84887 142.661 5.18887C142.421 5.53887 142.281 5.94887 142.271 6.36887C142.261 6.65887 142.311 6.95887 142.421 7.22887C142.531 7.49887 142.691 7.74887 142.901 7.95887C143.111 8.16887 143.361 8.32887 143.631 8.43887C143.901 8.56887 144.191 8.61887 144.491 8.60887Z" fill="#00C7BA"/>
<path d="M151.669 8.61103C152.099 8.61103 152.509 8.48103 152.869 8.25103C153.219 8.01103 153.499 7.68103 153.669 7.29103C153.839 6.90103 153.879 6.46103 153.799 6.04103C153.719 5.62103 153.519 5.23103 153.219 4.93103C152.919 4.62103 152.539 4.41103 152.129 4.32103C151.709 4.23103 151.279 4.27103 150.879 4.42103C150.479 4.58103 150.139 4.84103 149.899 5.19103C149.659 5.54103 149.519 5.95103 149.509 6.38103C149.499 6.67103 149.549 6.96103 149.659 7.23103C149.759 7.50103 149.919 7.75103 150.119 7.95103C150.319 8.16103 150.559 8.32103 150.829 8.43103C151.099 8.55103 151.379 8.61103 151.669 8.61103Z" fill="#00C7BA"/>
<path opacity="0.55" d="M129.121 13.1211H263.831" stroke="#675BD9" stroke-width="0.3"/>
<path d="M254.901 72.6504C254.501 71.1704 254.701 69.5904 255.451 68.2504C256.211 66.9104 257.461 65.9303 258.931 65.5203L289.001 58.3904C289.341 58.3004 289.691 58.2704 290.031 58.3104C290.381 58.3504 290.711 58.4604 291.011 58.6404C291.311 58.8104 291.581 59.0404 291.791 59.3204C292.001 59.6004 292.161 59.9104 292.251 60.2504L293.051 63.1404C293.301 64.0604 293.181 65.0503 292.711 65.8803C292.241 66.7103 291.461 67.3304 290.541 67.5804L262.001 76.6904C260.521 77.1004 258.941 76.9004 257.611 76.1404C256.291 75.3904 255.311 74.1304 254.901 72.6504Z" fill="#B59FFF"/>
<path d="M234.239 47.6999C235.299 46.5899 236.749 45.9499 238.279 45.9199C239.809 45.8799 241.289 46.4599 242.399 47.5099L263.889 67.9999C264.999 69.0099 264.999 72.4499 264.019 73.4699L261.949 75.6899C260.589 77.1399 256.889 75.8099 256.889 75.8099L234.409 55.9399C233.859 55.4099 233.409 54.7799 233.109 54.0799C232.809 53.3799 232.629 52.6199 232.619 51.8599C232.599 51.0899 232.739 50.3299 233.019 49.6199C233.289 48.9099 233.709 48.2499 234.239 47.6999Z" fill="#B59FFF"/>
<path d="M229.18 100.721L211.17 99.9515C209.33 99.8715 207.6 99.0715 206.35 97.7115C205.1 96.3515 204.44 94.5615 204.51 92.7115L204.43 49.5615C204.59 45.7315 204.43 42.7515 208.22 42.8915L237.21 44.1915C238.12 44.2315 239.02 44.4415 239.84 44.8315C240.67 45.2115 241.41 45.7615 242.03 46.4315C242.65 47.1015 243.13 47.8915 243.44 48.7515C243.75 49.6115 243.9 50.5215 243.86 51.4315L236.96 82.1215L236.45 94.1215C236.35 95.9615 235.53 97.6915 234.17 98.9315C232.82 100.161 231.02 100.811 229.18 100.721Z" fill="white"/>
<path d="M222.642 38.1812C228.492 38.6012 233.032 39.2912 233.452 33.4012L234.842 17.5012C233.152 11.2512 230.612 9.27115 224.772 8.85115C218.932 8.43115 213.992 10.0712 213.572 15.9412L212.832 26.7312C212.632 29.5512 213.552 32.3412 215.382 34.4812C217.212 36.6312 219.822 37.9612 222.642 38.1812Z" fill="#B59FFF"/>
<path d="M234.441 16.7109C234.441 16.7109 236.981 23.0909 238.671 28.3409C238.851 28.9009 238.231 29.3909 237.651 29.3409L233.551 29.0409L234.441 16.7109Z" fill="#B59FFF"/>
<path d="M214.898 32.7383L216.448 44.7583L228.778 45.6583L227.478 33.7483L214.898 32.7383Z" fill="#B59FFF"/>
<path d="M233.729 30.23H231.569L226.099 34.79L225.359 33.87L230.339 29.42C230.529 29.24 230.759 29.1 231.009 29.02C231.259 28.93 231.519 28.9 231.789 28.92L233.839 29.05L233.729 30.23Z" fill="#373382"/>
<path d="M232.781 8.39943C232.781 8.39943 235.001 13.6894 230.731 14.9194C228.131 15.6494 225.451 16.0194 222.751 16.0294C222.751 16.0294 223.861 20.5694 221.571 22.3094C219.281 24.0594 217.911 25.8794 217.661 31.3394C217.401 36.7994 213.911 36.5494 213.731 32.3994C213.731 32.3994 210.791 30.8794 210.921 24.7294C211.061 18.5694 208.111 2.53943 232.781 8.39943Z" fill="#373382"/>
<path d="M233.239 18.6094L233.109 20.2294L228.809 20.3194L226.499 21.1794L226.309 20.2194L228.729 18.8394L233.239 18.6094Z" fill="#373382"/>
<path d="M228.809 22.7517C228.809 22.7517 231.459 20.4317 233.249 22.9517C233.289 22.9517 231.499 24.7717 228.809 22.7517Z" fill="white"/>
<path d="M231.519 23.7102C231.329 23.6802 231.159 23.5802 231.039 23.4302C230.919 23.2802 230.859 23.0902 230.859 22.9002C230.869 22.7102 230.949 22.5302 231.079 22.3902C231.209 22.2502 231.389 22.1702 231.579 22.1602C231.769 22.1902 231.939 22.2902 232.059 22.4402C232.179 22.5902 232.239 22.7802 232.239 22.9702C232.229 23.1602 232.149 23.3402 232.019 23.4802C231.889 23.6102 231.709 23.6902 231.519 23.7102Z" fill="#373382"/>
<path d="M229.72 31.7695L229.14 34.9095L226.73 34.5495L227.03 33.5595L229.72 31.7695Z" fill="#373382"/>
<path d="M301.021 57.1418C301.021 57.2718 301.001 57.4018 300.951 57.5218C300.901 57.6418 300.831 57.7518 300.741 57.8518C300.651 57.9418 300.541 58.0218 300.421 58.0718C300.301 58.1218 300.171 58.1518 300.041 58.1518L295.601 58.2818C295.601 58.2818 295.601 58.3818 295.601 58.4218V59.0318L297.981 58.9518H298.321L305.181 58.7418C305.401 58.7418 305.611 58.8318 305.771 58.9818C305.931 59.1418 306.011 59.3518 306.011 59.5718C306.011 59.7918 305.921 60.0018 305.771 60.1618C305.611 60.3218 305.401 60.4018 305.181 60.4018L299.371 60.5818V61.3418L305.651 61.1618C305.771 61.1518 305.881 61.1618 306.001 61.1918C306.111 61.2318 306.211 61.2818 306.301 61.3618C306.391 61.4418 306.461 61.5318 306.511 61.6418C306.561 61.7518 306.581 61.8618 306.581 61.9818C306.581 62.1018 306.561 62.2118 306.511 62.3218C306.461 62.4318 306.391 62.5218 306.301 62.6018C306.211 62.6818 306.111 62.7418 306.001 62.7718C305.891 62.8118 305.771 62.8218 305.651 62.8018L299.371 62.9918V63.6918L304.691 63.5218C304.911 63.5218 305.121 63.6018 305.281 63.7518C305.441 63.9018 305.531 64.1118 305.541 64.3318C305.541 64.4418 305.521 64.5518 305.491 64.6518C305.451 64.7518 305.391 64.8418 305.321 64.9218C305.241 65.0018 305.151 65.0618 305.051 65.1018C304.951 65.1418 304.841 65.1718 304.731 65.1718L299.421 65.3418V65.5718C299.441 65.7218 299.441 65.8718 299.421 66.0318L303.081 65.9318C303.301 65.9318 303.511 66.0218 303.671 66.1718C303.831 66.3218 303.911 66.5418 303.911 66.7618C303.911 66.9818 303.821 67.1918 303.671 67.3518C303.511 67.5118 303.301 67.5918 303.081 67.5918L297.361 67.7618H295.871H294.531C293.171 67.8018 291.851 67.3018 290.861 66.3618C289.871 65.4218 289.291 64.1318 289.251 62.7718V61.2218V61.1318V59.9118C289.231 58.9618 289.581 58.0418 290.231 57.3418C290.881 56.6518 291.781 56.2418 292.731 56.2018H293.331L299.851 56.0118C300.001 55.9918 300.151 56.0118 300.291 56.0518C300.431 56.1018 300.561 56.1718 300.671 56.2818C300.781 56.3918 300.861 56.5118 300.921 56.6518C301.011 56.8418 301.041 56.9918 301.021 57.1418Z" fill="#B59FFF"/>
<path d="M233.579 31.8488C233.149 31.7388 232.739 31.5388 232.389 31.2588C232.039 30.9788 231.759 30.6287 231.559 30.2188H233.719L233.579 31.8488Z" fill="#070047"/>
<path d="M334.15 34.0119L299.69 37.0319C297.96 37.1819 296.69 38.7119 296.84 40.4419L300.36 80.7419C300.51 82.4719 302.03 83.7519 303.76 83.6019L338.22 80.582C339.95 80.4319 341.22 78.9019 341.07 77.1719L337.55 36.8719C337.39 35.1419 335.87 33.8619 334.15 34.0119Z" fill="#0F0A45"/>
<path opacity="0.4" d="M333.029 33.0119L298.569 36.0319C296.839 36.1819 295.569 37.7119 295.719 39.4419L299.239 79.7419C299.389 81.4719 300.909 82.7519 302.639 82.6019L337.099 79.582C338.829 79.4319 340.099 77.9019 339.949 76.1719L336.429 35.8719C336.279 34.1419 334.759 32.8619 333.029 33.0119Z" fill="#5043DD"/>
<path d="M310.841 62.9583L317.041 53.6583L327.921 51.2383C327.521 49.4583 326.701 47.7983 325.511 46.4083C324.331 45.0183 322.821 43.9483 321.131 43.2783C319.431 42.6083 317.601 42.3683 315.791 42.5683C313.981 42.7683 312.251 43.4183 310.741 44.4483C309.241 45.4783 308.011 46.8683 307.161 48.4783C306.311 50.0983 305.881 51.8983 305.891 53.7183C305.901 55.5483 306.351 57.3383 307.221 58.9483C308.081 60.5783 309.331 61.9483 310.841 62.9583Z" fill="#00C7BA"/>
<path d="M310.841 62.9583L317.041 53.6583L327.921 51.2383C327.521 49.4583 326.701 47.7983 325.511 46.4083C324.331 45.0183 322.821 43.9483 321.131 43.2783C319.431 42.6083 317.601 42.3683 315.791 42.5683C313.981 42.7683 312.251 43.4183 310.741 44.4483C309.241 45.4783 308.011 46.8683 307.161 48.4783C306.311 50.0983 305.881 51.8983 305.891 53.7183C305.901 55.5483 306.351 57.3383 307.221 58.9483C308.081 60.5783 309.331 61.9483 310.841 62.9583Z" fill="#FF2475"/>
<path d="M318.181 66.2995C319.221 66.2095 320.241 65.9695 321.221 65.5895L317.331 56.5195L311.781 64.9395C313.731 66.0195 315.961 66.4995 318.181 66.2995Z" fill="#00C7BA"/>
<path d="M318.181 66.2995C319.221 66.2095 320.241 65.9695 321.221 65.5895L317.331 56.5195L311.781 64.9395C313.731 66.0195 315.961 66.4995 318.181 66.2995Z" fill="white"/>
<path d="M323.728 65.8183C325.908 64.8983 327.738 63.3083 328.958 61.2883C330.178 59.2583 330.728 56.8983 330.518 54.5383C330.468 54.0183 330.378 53.4983 330.248 52.9883L319.398 55.5083L323.728 65.8183Z" fill="#FFBE44"/>
<path d="M330.252 69.9883L307.352 71.9783L307.662 75.5183L330.552 73.5083L330.252 69.9883Z" fill="#4420D8"/>
<path d="M293.48 56.4187L300 56.2188C300.26 56.2287 300.51 56.3287 300.69 56.5087C300.88 56.6887 300.99 56.9287 301.01 57.1887C301.01 57.3187 300.99 57.4487 300.95 57.5687C300.9 57.6887 300.83 57.7988 300.74 57.8988C300.65 57.9988 300.54 58.0687 300.42 58.1187C300.3 58.1687 300.17 58.1987 300.04 58.1987L295.6 58.3387" fill="#B59FFF"/>
<path d="M210.041 48.9706C209.051 47.8006 207.631 47.0806 206.111 46.9506C204.591 46.8206 203.071 47.3006 201.901 48.2906L179.231 67.4706C178.121 68.4206 177.841 71.8106 178.791 72.9306L180.721 75.2206C182.011 76.7306 185.771 75.6306 185.771 75.6306L209.381 57.1306C210.541 56.1306 211.261 54.7106 211.381 53.1906C211.501 51.6606 211.021 50.1406 210.041 48.9706Z" fill="#B59FFF"/>
<path d="M185.62 68.5198C183.54 66.1198 181.63 65.3998 179.23 67.4698L154.94 89.0898C154.41 89.5598 154.08 90.2098 154.03 90.9198C153.98 91.6298 154.21 92.3198 154.67 92.8598L156.63 95.0798C157.25 95.7998 158.14 96.2398 159.09 96.3098C160.04 96.3798 160.98 96.0598 161.7 95.4398L186.2 75.3298C188.61 73.1998 187.71 70.8698 185.62 68.5198Z" fill="#B59FFF"/>
<path d="M147.578 95.2611C147.748 95.4611 147.998 95.5811 148.258 95.6011C148.518 95.6211 148.778 95.5311 148.978 95.3611L152.308 92.4611C152.338 92.5011 152.368 92.5411 152.398 92.5811L152.808 93.0511L150.998 94.6111L150.748 94.8311L145.558 99.3611C145.398 99.5111 145.298 99.7111 145.278 99.9311C145.268 100.151 145.338 100.371 145.478 100.541C145.548 100.621 145.638 100.691 145.738 100.741C145.838 100.791 145.938 100.821 146.048 100.821C146.158 100.831 146.268 100.811 146.368 100.781C146.468 100.741 146.568 100.691 146.648 100.621L151.088 96.8111L151.588 97.3911L146.848 101.521C146.678 101.671 146.578 101.871 146.568 102.101C146.558 102.321 146.628 102.541 146.778 102.711C146.928 102.881 147.128 102.981 147.358 102.991C147.578 103.001 147.798 102.931 147.968 102.781L152.718 98.6511L153.158 99.1711L149.128 102.661C148.968 102.811 148.868 103.011 148.848 103.231C148.838 103.451 148.908 103.671 149.048 103.841C149.118 103.921 149.208 103.991 149.308 104.041C149.408 104.091 149.508 104.121 149.618 104.131C149.728 104.141 149.838 104.121 149.938 104.091C150.038 104.051 150.138 104.001 150.218 103.931L154.228 100.431L154.378 100.621C154.488 100.731 154.598 100.841 154.718 100.931L151.958 103.331C151.798 103.481 151.698 103.681 151.678 103.901C151.668 104.121 151.738 104.341 151.878 104.511C151.948 104.591 152.038 104.661 152.138 104.711C152.238 104.761 152.338 104.791 152.448 104.801C152.558 104.811 152.668 104.791 152.768 104.761C152.868 104.731 152.968 104.671 153.048 104.601L157.338 100.911L158.448 99.9411L159.458 99.0511C160.488 98.1511 161.108 96.8911 161.208 95.5311C161.308 94.1711 160.858 92.8311 159.968 91.7911L158.958 90.6811V90.6011L158.148 89.6811C157.528 88.9611 156.638 88.5211 155.698 88.4511C154.758 88.3811 153.818 88.6911 153.098 89.3111L152.928 89.4711L152.648 89.7111L147.728 93.9911C147.548 94.1411 147.438 94.3611 147.408 94.5911C147.398 94.8311 147.448 95.0611 147.578 95.2611Z" fill="#B59FFF"/>
<path d="M210.321 21.6311C209.261 22.4311 208.381 23.4511 207.771 24.6411C207.161 25.8211 206.821 27.1311 206.791 28.4611C206.871 32.7711 207.781 34.2011 205.681 36.2411C204.991 37.0311 204.521 37.9911 204.331 39.0211C204.141 40.0511 204.221 41.1211 204.571 42.1111C204.871 43.0911 201.031 45.4511 201.031 49.3711L216.971 50.0511L217.591 15.1211L210.321 21.6311Z" fill="#373382"/>
<path d="M241.851 4.69922H255.701C256.161 4.69922 256.601 4.87922 256.921 5.20922C257.241 5.53922 257.431 5.97922 257.431 6.43922C257.431 6.89922 257.251 7.33922 256.921 7.66922C256.591 7.99922 256.151 8.17922 255.701 8.17922H241.851C241.391 8.17922 240.951 7.99922 240.631 7.66922C240.311 7.33922 240.121 6.89922 240.121 6.43922C240.121 5.97922 240.301 5.53922 240.631 5.20922C240.961 4.87922 241.401 4.69922 241.851 4.69922Z" fill="#D9D8E1"/>
<path d="M198.799 65.4918L191.359 57.1618C191.359 57.1618 203.249 46.8118 203.559 47.4118C203.869 48.0118 213.439 55.1918 213.439 55.1918L198.799 65.4918Z" fill="white"/>
<path d="M242.492 46.9297L249.602 54.3697L242.952 63.5997L241.352 62.1997L242.492 46.9297Z" fill="#DDDDDD"/>
<path d="M249.619 54.3711L242.969 63.6011L244.689 64.9711L251.839 56.5111L249.619 54.3711Z" fill="#FFBE44"/>
<path d="M191.979 56.5312L189.969 58.1012L197.559 66.5413L199.429 64.9613L191.979 56.5312Z" fill="#FFBE44"/>
<path d="M208.93 57.8483C213.44 57.8483 217.09 54.1883 217.09 49.6683C217.09 45.1483 213.44 41.4883 208.93 41.4883C204.42 41.4883 200.77 45.1483 200.77 49.6683C200.77 54.1883 204.42 57.8483 208.93 57.8483Z" fill="#373382"/>
<path d="M198.602 100.901H212.382L242.502 46.9608C241.882 46.1308 241.092 45.4508 240.172 44.9708C239.262 44.4908 238.252 44.2208 237.222 44.1908C235.682 44.1608 234.132 44.0308 232.612 43.8008L204.512 73.6408L204.582 84.5408C204.572 84.5408 201.812 88.1308 198.602 100.901Z" fill="#FFBE44"/>
<path d="M212.368 100.889L242.488 46.9492C242.488 46.9492 242.288 46.3592 240.978 45.4492L208.488 100.889H212.368Z" fill="#FF2475"/>
<path d="M234.259 43.8383L232.399 43.7383L204.469 73.5983L204.509 79.1483L234.259 43.8383Z" fill="#FF2475"/>
<path opacity="0.25" d="M225.371 60.5508L204.301 84.8108C202.561 87.9508 201.211 91.2908 200.281 94.7608L225.371 60.5508Z" fill="#373382"/>
<path d="M215.41 25.8014L218.39 25.1914L221.72 31.8614C221.98 32.4014 222.39 32.8514 222.89 33.1814C223.39 33.5114 223.97 33.6914 224.57 33.7214L229.93 33.9614C230.65 33.9614 231.73 34.3514 232.09 33.7214L232.56 32.8714L233.51 32.9514L235.97 50.5414C236.07 51.1414 236.04 51.7714 235.87 52.3514C235.7 52.9314 235.39 53.4814 234.98 53.9314C234.57 54.3814 234.06 54.7414 233.49 54.9714C232.92 55.2014 232.31 55.2914 231.7 55.2514L228.54 55.0114C228.32 55.0014 228.11 54.9314 227.93 54.8014C227.75 54.6714 227.62 54.5014 227.54 54.2914L220.75 38.3714L215.41 25.8014Z" fill="#373382"/>
<path d="M134.309 195.331C134.989 196.821 136.219 197.991 137.749 198.571C139.279 199.151 140.979 199.101 142.469 198.431L171.419 185.501C172.839 184.871 174.139 181.461 173.489 180.041L172.189 177.121C171.329 175.191 171.239 175.421 169.309 176.271L137.409 187.141C135.919 187.821 134.759 189.061 134.179 190.591C133.599 192.131 133.639 193.831 134.309 195.331Z" fill="#363382"/>
<path d="M167.06 185.599C163.87 184.489 163.36 181.299 164.51 178.069L176.9 147.349C177.03 146.999 177.22 146.669 177.47 146.399C177.72 146.119 178.02 145.899 178.36 145.739C178.7 145.579 179.06 145.489 179.44 145.469C179.82 145.449 180.18 145.509 180.54 145.639L182.39 146.309C183.35 146.659 184.13 147.369 184.57 148.299C185 149.229 185.06 150.289 184.71 151.249L175 181.859C174.44 183.409 173.29 184.669 171.81 185.379C170.31 186.079 168.61 186.159 167.06 185.599Z" fill="#363382"/>
<path d="M179.051 137.202C179.301 137.312 179.511 137.512 179.631 137.762C179.751 138.012 179.771 138.302 179.681 138.562L178.081 143.012H178.231L178.851 143.232L179.731 140.812L179.851 140.482L182.361 133.542C182.441 133.322 182.601 133.142 182.821 133.032C182.931 132.982 183.041 132.952 183.161 132.952C183.281 132.942 183.391 132.962 183.501 133.002C183.611 133.042 183.711 133.102 183.801 133.182C183.891 133.262 183.961 133.352 184.011 133.462C184.061 133.572 184.091 133.682 184.091 133.802C184.091 133.922 184.081 134.032 184.041 134.142L181.921 140.012L182.681 140.282L184.981 133.952C185.061 133.732 185.221 133.552 185.441 133.442C185.651 133.342 185.901 133.332 186.121 133.412C186.341 133.492 186.521 133.652 186.621 133.872C186.721 134.082 186.731 134.332 186.651 134.552L184.361 140.892L185.061 141.152L186.991 135.782C187.021 135.662 187.081 135.542 187.151 135.452C187.221 135.362 187.321 135.272 187.431 135.212C187.541 135.152 187.661 135.122 187.791 135.112C187.911 135.102 188.041 135.122 188.161 135.162C188.281 135.202 188.391 135.272 188.481 135.352C188.571 135.442 188.641 135.542 188.691 135.662C188.741 135.772 188.761 135.902 188.761 136.022C188.761 136.142 188.731 136.272 188.681 136.382L186.741 141.752L186.981 141.832C187.131 141.892 187.281 141.972 187.421 142.052L188.751 138.372C188.781 138.252 188.841 138.132 188.911 138.042C188.991 137.942 189.081 137.862 189.201 137.802C189.311 137.742 189.431 137.702 189.561 137.702C189.681 137.692 189.811 137.712 189.931 137.752C190.051 137.792 190.161 137.862 190.251 137.942C190.341 138.032 190.411 138.132 190.461 138.252C190.511 138.372 190.531 138.492 190.531 138.622C190.531 138.742 190.501 138.872 190.451 138.982L188.371 144.762L187.841 146.252L187.351 147.622C186.851 148.992 185.831 150.112 184.511 150.742C183.191 151.362 181.681 151.442 180.311 150.962L178.771 150.402H178.681L177.451 149.962C176.491 149.612 175.711 148.902 175.281 147.982C174.851 147.062 174.791 146.002 175.141 145.042L175.221 144.822L175.361 144.442L177.721 137.872C177.761 137.742 177.831 137.612 177.921 137.502C178.011 137.392 178.121 137.312 178.251 137.252C178.381 137.192 178.511 137.162 178.651 137.152C178.781 137.122 178.921 137.152 179.051 137.202Z" fill="#363382"/>
<path d="M137.96 240.872L122.29 237.912C118.96 237.282 118.29 230.582 119.03 226.622L121.38 184.142C122.12 180.182 125.44 177.472 128.74 178.082L150.92 184.602C152.85 189.102 154.39 193.762 155.51 198.532L147.67 218.062L143.96 235.772C143.15 239.732 141.26 241.492 137.96 240.872Z" fill="#FFBE44"/>
<path d="M138.391 168.719L138.191 181.509L150.881 184.649L151.601 170.579L138.391 168.719Z" fill="#B59FFF"/>
<path d="M153.829 269.161L145.559 226.781L118.779 222.781C118.779 222.781 106.899 233.091 109.019 250.061C111.139 267.031 134.899 267.361 134.899 267.361" fill="white"/>
<path d="M119.179 218.039L146.609 223.399L145.569 228.739L118.789 222.789L119.179 218.039Z" fill="#00A393"/>
<path d="M147.618 218.05L146.058 226.24L118.988 220.34L119.508 214.02L147.618 218.05Z" fill="#00C7BA"/>
<path d="M150.878 184.59L120.578 198.6L121.188 185.09L136.788 178.77L150.878 184.59Z" fill="#B59FFF"/>
<path d="M120.229 204.902L139.659 197.172L124.239 207.182L138.659 208.352L119.809 212.052L120.229 204.902Z" fill="#D8962B"/>
<path d="M130.298 167.44L128.688 161.25C127.918 158.25 128.368 155.07 129.928 152.4C131.498 149.73 134.048 147.8 137.038 147.01C143.148 145.43 145.908 146.72 150.348 155.03C151.388 156.14 154.048 158.36 156.458 160.86C156.528 160.95 156.578 161.05 156.608 161.16C156.638 161.27 156.638 161.38 156.608 161.49C156.578 161.6 156.528 161.7 156.458 161.78C156.388 161.86 156.288 161.93 156.188 161.97L153.248 162.98L153.168 162.8L153.438 164.68L151.218 165.11C151.388 166.01 152.678 166.14 153.648 166L154.278 170.45C154.658 171.93 150.948 171.93 146.728 173.02L143.398 173.39C137.178 175.09 131.858 173.63 130.298 167.44Z" fill="#B59FFF"/>
<path d="M146.281 159.932C146.281 159.932 148.001 156.482 150.881 158.282C150.881 158.292 149.821 160.882 146.281 159.932Z" fill="white"/>
<path d="M149.33 159.179C149.19 159.229 149.04 159.239 148.89 159.199C148.75 159.159 148.62 159.079 148.51 158.969C148.41 158.859 148.34 158.719 148.32 158.569C148.3 158.419 148.32 158.269 148.38 158.139C148.44 157.999 148.55 157.889 148.67 157.809C148.8 157.729 148.94 157.699 149.09 157.699C149.24 157.709 149.38 157.759 149.5 157.849C149.62 157.939 149.71 158.059 149.76 158.199C149.8 158.289 149.81 158.389 149.81 158.489C149.81 158.589 149.78 158.689 149.74 158.779C149.7 158.869 149.64 158.949 149.56 159.019C149.51 159.099 149.43 159.149 149.33 159.179Z" fill="#373382"/>
<path d="M144.45 158.269C144.92 157.519 145.55 156.879 146.28 156.379C147.02 155.879 147.85 155.549 148.72 155.389L148.51 154.809C147.57 154.919 146.67 155.259 145.89 155.799C145.12 156.339 144.49 157.079 144.07 157.919L144.45 158.269Z" fill="#373382"/>
<path d="M128.74 160.75C128.74 160.75 129.32 170.09 125.02 174C120.73 177.91 109.36 190.51 117.8 196.16C120.55 197.78 123.68 198.62 126.87 198.58C129.02 198.64 131.16 198.23 133.14 197.37C135.12 196.51 136.88 195.23 138.32 193.62C139.75 192.01 140.81 190.1 141.43 188.03C142.05 185.96 142.2 183.78 141.89 181.64L138.95 161.31L128.74 160.75Z" fill="#373382"/>
<path d="M147.651 150.581L140.621 155.431C140.621 155.431 142.441 163.371 139.881 165.591C137.321 167.811 129.031 162.531 129.031 162.531C129.031 162.531 124.801 152.091 135.201 147.651C144.811 143.571 147.651 150.581 147.651 150.581Z" fill="#373382"/>
<path d="M147.009 149.48L128.309 159.55L128.949 162.21L148.229 151.4L147.009 149.48Z" fill="#FFBE44"/>
<path d="M140.93 166.2C140.58 166.33 140.19 166.36 139.83 166.27C139.46 166.18 139.13 165.99 138.87 165.72C138.61 165.44 138.44 165.1 138.38 164.73C138.32 164.36 138.37 163.98 138.53 163.63C138.69 163.29 138.94 163 139.26 162.8C139.58 162.6 139.95 162.51 140.33 162.52C140.71 162.53 141.07 162.66 141.37 162.88C141.67 163.1 141.91 163.41 142.04 163.76C142.21 164.23 142.19 164.75 141.99 165.21C141.77 165.67 141.39 166.03 140.93 166.2Z" fill="#B59FFF"/>
<path d="M142.128 171.97C141.588 172.16 140.998 172.19 140.438 172.05C139.878 171.91 139.378 171.61 138.988 171.18C138.608 170.75 138.358 170.22 138.268 169.65C138.188 169.08 138.268 168.5 138.518 167.98C138.768 167.46 139.158 167.02 139.658 166.73C140.148 166.44 140.718 166.29 141.298 166.32C141.868 166.35 142.428 166.55 142.888 166.9C143.348 167.25 143.698 167.72 143.888 168.26C144.018 168.62 144.068 169 144.058 169.38C144.038 169.76 143.948 170.14 143.778 170.48C143.618 170.83 143.388 171.13 143.098 171.39C142.818 171.65 142.488 171.85 142.128 171.97Z" fill="#FFBE44"/>
<path d="M144.772 178.991C144.022 179.261 143.212 179.291 142.432 179.101C141.662 178.901 140.962 178.481 140.432 177.891C139.902 177.301 139.552 176.561 139.442 175.771C139.332 174.981 139.452 174.171 139.792 173.451C140.132 172.731 140.682 172.131 141.372 171.721C142.052 171.311 142.842 171.121 143.642 171.161C144.432 171.201 145.202 171.481 145.842 171.961C146.482 172.441 146.962 173.091 147.222 173.851C147.402 174.351 147.472 174.881 147.452 175.411C147.422 175.941 147.292 176.461 147.062 176.941C146.832 177.421 146.512 177.851 146.122 178.201C145.722 178.541 145.262 178.811 144.772 178.991Z" fill="#FFBE44"/>
<path d="M134.07 220.251C133.12 217.031 135.64 215.951 138.86 214.981L170.2 206.201C170.91 205.991 171.68 206.071 172.34 206.421C172.99 206.771 173.48 207.371 173.7 208.091L174.09 209.361C174.38 210.331 174.27 211.371 173.79 212.261C173.31 213.151 172.5 213.811 171.54 214.101L141.65 224.331C140.11 224.791 138.45 224.621 137.03 223.861C135.61 223.091 134.55 221.791 134.07 220.251Z" fill="#B59FFF"/>
<path d="M125.269 185.19C123.789 185.85 122.639 187.07 122.059 188.58C121.479 190.09 121.519 191.78 122.179 193.26L134.829 221.96C135.459 223.37 138.799 224.66 140.209 224.04L143.089 222.75C145.009 221.91 144.779 221.82 143.929 219.9L133.309 188.29C132.649 186.81 131.429 185.66 129.929 185.08C128.419 184.5 126.749 184.54 125.269 185.19Z" fill="#B59FFF"/>
<path d="M179.291 201.359C179.351 201.619 179.321 201.899 179.191 202.139C179.061 202.379 178.851 202.569 178.601 202.659L174.161 203.989V204.119L174.351 204.739L176.771 204.019L177.101 203.909L184.041 201.819C184.271 201.749 184.511 201.779 184.711 201.889C184.921 201.999 185.071 202.189 185.141 202.409C185.171 202.519 185.191 202.639 185.181 202.759C185.171 202.879 185.131 202.989 185.081 203.089C185.021 203.189 184.951 203.279 184.861 203.359C184.771 203.429 184.671 203.489 184.561 203.529L178.691 205.299L178.921 206.069L185.261 204.169C185.481 204.099 185.721 204.129 185.931 204.239C186.141 204.349 186.291 204.539 186.361 204.759C186.431 204.979 186.401 205.229 186.291 205.429C186.181 205.639 185.991 205.789 185.771 205.859L179.431 207.759L179.631 208.449L185.011 206.839C185.231 206.769 185.471 206.799 185.681 206.909C185.891 207.019 186.041 207.209 186.111 207.429C186.181 207.649 186.151 207.899 186.041 208.099C185.931 208.309 185.741 208.459 185.521 208.529L180.141 210.139L180.221 210.369C180.261 210.529 180.291 210.689 180.311 210.859L184.001 209.749C184.111 209.709 184.231 209.689 184.351 209.699C184.471 209.709 184.581 209.739 184.691 209.789C184.801 209.839 184.891 209.919 184.971 210.009C185.051 210.099 185.101 210.209 185.141 210.319C185.181 210.429 185.191 210.549 185.171 210.669C185.151 210.789 185.121 210.899 185.061 210.999C185.001 211.099 184.921 211.189 184.831 211.269C184.741 211.339 184.631 211.389 184.511 211.419L178.751 213.199L177.251 213.639L175.891 214.039C174.511 214.449 173.031 214.289 171.771 213.609C170.511 212.929 169.561 211.769 169.151 210.389L168.681 208.819V208.729L168.311 207.499C168.021 206.539 168.131 205.499 168.611 204.609C169.091 203.719 169.891 203.059 170.851 202.769L171.071 202.689L171.451 202.579L178.041 200.599C178.301 200.559 178.571 200.609 178.791 200.749C179.041 200.889 179.211 201.109 179.291 201.359Z" fill="#B59FFF"/>
<path d="M333.392 103.73H291.172C289.752 103.73 288.602 104.88 288.602 106.31V124.89C288.602 126.32 289.752 127.47 291.172 127.47H333.392C334.812 127.47 335.962 126.32 335.962 124.89V106.31C335.962 104.89 334.812 103.73 333.392 103.73Z" fill="#7360FC"/>
<path d="M333.9 127.471H338.49C338.62 127.471 338.75 127.441 338.85 127.361C338.96 127.291 339.04 127.191 339.09 127.071C339.14 126.951 339.15 126.821 339.12 126.691C339.09 126.561 339.03 126.451 338.93 126.361L334.34 121.751C334.25 121.661 334.14 121.591 334.01 121.561C333.88 121.531 333.75 121.551 333.63 121.591C333.51 121.641 333.41 121.721 333.34 121.831C333.27 121.941 333.23 122.071 333.23 122.201V126.811C333.23 126.901 333.24 126.981 333.28 127.061C333.31 127.141 333.36 127.211 333.42 127.281C333.48 127.341 333.55 127.391 333.63 127.421C333.73 127.461 333.81 127.471 333.9 127.471Z" fill="#7360FC"/>
<path d="M304.508 111.45C304.728 111.45 304.938 111.38 305.128 111.26C305.308 111.14 305.448 110.96 305.538 110.76C305.618 110.56 305.648 110.33 305.598 110.12C305.558 109.9 305.448 109.71 305.298 109.55C305.148 109.4 304.948 109.29 304.728 109.25C304.518 109.21 304.288 109.23 304.088 109.31C303.888 109.39 303.708 109.54 303.588 109.72C303.468 109.9 303.398 110.12 303.398 110.34C303.398 110.63 303.518 110.92 303.718 111.13C303.928 111.33 304.208 111.45 304.508 111.45Z" fill="#00C7BA"/>
<path d="M308.2 111.45C308.42 111.45 308.63 111.38 308.82 111.26C309 111.14 309.14 110.96 309.23 110.76C309.31 110.56 309.34 110.33 309.29 110.12C309.25 109.9 309.14 109.71 308.99 109.55C308.84 109.4 308.64 109.29 308.42 109.25C308.21 109.21 307.98 109.23 307.78 109.31C307.58 109.39 307.4 109.54 307.28 109.72C307.16 109.9 307.09 110.12 307.09 110.34C307.09 110.63 307.21 110.92 307.42 111.13C307.63 111.33 307.91 111.45 308.2 111.45Z" fill="#00C7BA"/>
<path d="M311.899 111.45C312.119 111.45 312.329 111.38 312.519 111.26C312.699 111.14 312.839 110.96 312.929 110.76C313.009 110.56 313.039 110.33 312.989 110.12C312.949 109.9 312.839 109.71 312.689 109.55C312.539 109.4 312.339 109.29 312.119 109.25C311.909 109.21 311.679 109.23 311.479 109.31C311.279 109.39 311.099 109.54 310.979 109.72C310.859 109.9 310.789 110.12 310.789 110.34C310.789 110.63 310.909 110.92 311.119 111.13C311.329 111.33 311.609 111.45 311.899 111.45Z" fill="#00C7BA"/>
<path d="M296.359 116.37C297.129 116.37 297.879 116.14 298.519 115.71C299.159 115.28 299.659 114.67 299.949 113.96C300.239 113.25 300.319 112.46 300.169 111.71C300.019 110.95 299.649 110.26 299.099 109.71C298.559 109.16 297.859 108.79 297.109 108.64C296.349 108.49 295.569 108.57 294.859 108.86C294.149 109.15 293.539 109.65 293.109 110.3C292.679 110.94 292.449 111.7 292.449 112.47C292.449 113.51 292.859 114.5 293.589 115.23C294.339 115.96 295.329 116.37 296.359 116.37Z" fill="#00C7BA"/>
<path d="M320.681 113.98H303.301V116.66H320.681V113.98Z" fill="#4420D8"/>
<path d="M329.661 118.68H303.301V121.37H329.651V118.68H329.661Z" fill="#4420D8"/>
<path d="M173.629 451.152L174.899 470.842L46.3594 471.952L49.7594 448.672L173.629 451.152Z" fill="url(#paint2_linear_8711_113863)"/>
<path opacity="0.82" d="M170.969 410.379L165.009 411.929C165.189 411.609 165.369 411.289 165.519 410.949C166.409 408.859 166.649 406.559 166.239 404.339C165.819 402.109 164.749 400.059 163.169 398.439C161.589 396.819 159.559 395.709 157.349 395.249C155.139 394.789 152.839 394.989 150.739 395.839C148.639 396.689 146.849 398.139 145.579 400.019C144.309 401.889 143.619 404.109 143.599 406.369C143.569 409.399 144.749 412.319 146.869 414.489C147.489 415.119 148.179 415.669 148.919 416.129L138.389 418.879C138.539 418.599 138.699 418.329 138.819 418.039C139.699 415.959 139.949 413.649 139.529 411.429C139.109 409.209 138.039 407.149 136.449 405.539C134.869 403.919 132.839 402.809 130.629 402.349C128.419 401.889 126.119 402.099 124.019 402.949C121.919 403.799 120.129 405.249 118.859 407.129C117.589 408.999 116.899 411.209 116.879 413.479C116.859 414.979 117.149 416.469 117.709 417.869C118.269 419.259 119.099 420.529 120.149 421.599C120.729 422.189 121.359 422.699 122.049 423.149L111.799 425.829C111.919 425.599 112.049 425.379 112.149 425.149C113.029 423.069 113.279 420.759 112.859 418.539C112.439 416.309 111.369 414.259 109.779 412.649C108.199 411.029 106.169 409.919 103.959 409.459C101.749 408.999 99.4491 409.209 97.3491 410.059C95.2491 410.909 93.4591 412.359 92.1891 414.239C90.9191 416.109 90.2291 418.319 90.2091 420.589C90.1991 422.089 90.4791 423.579 91.0391 424.979C91.5991 426.379 92.4291 427.639 93.4791 428.709C94.0091 429.249 94.5991 429.739 95.2291 430.169L50.7491 441.769L47.0391 467.169L172.289 430.599L170.969 410.379Z" fill="url(#paint3_linear_8711_113863)"/>
<path d="M75.4793 374.93L74.3693 373.75C75.1393 368.78 72.4193 362.08 66.9493 356.58C61.7293 351.34 55.3793 348.63 50.4993 349.06L49.0793 347.59L45.3293 351.32C40.8193 355.84 43.1093 365.54 50.5893 372.98C57.3293 379.74 65.9393 382.31 70.8393 379.32C71.3193 378.98 71.7693 378.61 72.1993 378.21L75.4793 374.93Z" fill="#CC8825"/>
<path d="M75.4715 374.93C79.9915 370.4 77.6315 360.7 70.2215 353.26C62.8015 345.82 53.1215 343.46 48.6115 347.99C44.0915 352.52 46.4415 362.22 53.8615 369.66C61.2815 377.1 70.9615 379.46 75.4715 374.93Z" fill="#FFBE44"/>
<path d="M73.1586 372.221C76.4586 368.911 74.3386 361.401 68.4086 355.461C62.4786 349.521 54.9885 347.381 51.6885 350.701C48.3885 354.011 50.5085 361.521 56.4385 367.461C62.3685 373.401 69.8486 375.541 73.1586 372.221Z" stroke="#EFD770" stroke-width="0.93" stroke-miterlimit="10"/>
<path opacity="0.32" d="M51.171 346.34C50.211 346.71 49.341 347.27 48.611 348C44.101 352.54 46.391 362.23 53.861 369.67C60.651 376.47 69.321 379.02 74.211 375.94L51.171 346.34Z" fill="#F9DA58"/>
<path d="M79.9006 343.93C80.4706 340.37 79.9806 336.73 78.4906 333.45C77.0006 330.17 74.5706 327.42 71.5106 325.52C68.4506 323.63 64.9006 322.69 61.3106 322.82C57.7206 322.95 54.2506 324.15 51.3306 326.25C48.4206 328.36 46.1906 331.29 44.9406 334.66C43.6906 338.04 43.4606 341.71 44.2906 345.21C45.1206 348.71 46.9706 351.89 49.6006 354.35C52.2306 356.8 55.5306 358.42 59.0806 358.99C61.4406 359.37 63.8406 359.29 66.1606 358.73C68.4806 358.17 70.6706 357.18 72.6106 355.77C74.5406 354.37 76.1806 352.6 77.4406 350.56C78.6806 348.56 79.5206 346.29 79.9006 343.93Z" fill="#CC8825"/>
<path d="M68.6383 356.551C71.8983 355.201 74.6783 352.911 76.6383 349.971C78.5983 347.031 79.6383 343.581 79.6383 340.041C79.6383 336.511 78.5883 333.051 76.6283 330.111C74.6683 327.171 71.8883 324.881 68.6283 323.531C65.3683 322.181 61.7883 321.831 58.3283 322.521C54.8683 323.211 51.6983 324.911 49.2083 327.411C46.7183 329.911 45.0183 333.091 44.3383 336.561C43.6483 340.031 44.0083 343.621 45.3583 346.881C46.2483 349.051 47.5683 351.021 49.2183 352.681C50.8783 354.341 52.8383 355.661 54.9983 356.561C57.1583 357.461 59.4783 357.921 61.8183 357.921C64.1583 357.921 66.4783 357.461 68.6383 356.551Z" fill="#FFBE44"/>
<path d="M61.7983 324.629C58.2283 324.619 54.7683 325.859 52.0083 328.119C49.2483 330.389 47.3583 333.539 46.6483 337.049C45.9483 340.559 46.4783 344.199 48.1583 347.359C49.8383 350.519 52.5583 352.989 55.8483 354.359C59.1483 355.729 62.8083 355.919 66.2283 354.879C69.6483 353.839 72.5983 351.649 74.5783 348.679C76.5583 345.709 77.4583 342.139 77.1083 338.579C76.7583 335.019 75.1883 331.689 72.6683 329.159C71.2483 327.729 69.5483 326.589 67.6883 325.809C65.8183 325.029 63.8183 324.629 61.7983 324.629Z" stroke="#EFD770" stroke-width="0.93" stroke-miterlimit="10"/>
<path opacity="0.32" d="M61.8191 322.172C57.6891 322.172 53.6891 323.602 50.4991 326.222C47.3091 328.842 45.1191 332.492 44.3191 336.552C43.5091 340.612 44.1291 344.822 46.0791 348.472C48.0191 352.122 51.1691 354.982 54.9791 356.572C58.7891 358.152 63.0291 358.372 66.9791 357.172C70.9291 355.972 74.3391 353.432 76.6291 350.002C78.9191 346.562 79.9591 342.432 79.5491 338.312C79.1391 334.192 77.3291 330.342 74.4091 327.422C72.7591 325.762 70.7891 324.442 68.6291 323.542C66.4791 322.632 64.1591 322.172 61.8191 322.172ZM61.8191 355.462C58.2491 355.472 54.7791 354.242 52.0191 351.982C49.2491 349.722 47.3491 346.572 46.6391 343.062C45.9291 339.552 46.4591 335.912 48.1291 332.742C49.7991 329.582 52.5191 327.102 55.8191 325.722C59.1191 324.342 62.7891 324.152 66.1991 325.182C69.6191 326.212 72.5791 328.402 74.5691 331.372C76.5591 334.342 77.4591 337.912 77.1191 341.482C76.7791 345.042 75.2091 348.382 72.6891 350.912C71.2691 352.362 69.5791 353.512 67.7091 354.302C65.8491 355.092 63.8391 355.512 61.8191 355.522V355.462Z" fill="#F9DA58"/>
<path opacity="0.3" d="M61.8108 322.172C60.8508 322.182 59.8908 322.262 58.9408 322.432L44.2408 337.152C44.0808 338.102 44.0008 339.072 43.9808 340.032C43.9708 341.772 44.2208 343.512 44.7108 345.182L66.8908 322.942C65.2508 322.442 63.5308 322.182 61.8108 322.172ZM68.6408 323.542L45.3508 346.892C46.1508 348.802 47.2808 350.572 48.6808 352.092L73.8408 326.872C72.3108 325.472 70.5508 324.352 68.6408 323.552V323.542Z" fill="white"/>
<path opacity="0.31" d="M252.668 133.211H199.458C198.758 133.211 198.188 133.781 198.188 134.481V176.321L189.828 184.711C189.788 184.761 189.758 184.811 189.748 184.871C189.738 184.931 189.738 184.991 189.768 185.051C189.788 185.111 189.828 185.161 189.878 185.191C189.928 185.231 189.988 185.251 190.048 185.251H204.348C204.358 185.251 204.368 185.241 204.368 185.241H252.668C253.368 185.241 253.928 184.671 253.928 183.971V134.481C253.928 133.771 253.368 133.211 252.668 133.211Z" fill="url(#paint4_linear_8711_113863)"/>
<path d="M226.579 143.072C229.719 143.062 232.789 143.952 235.439 145.642C238.089 147.332 240.189 149.742 241.509 152.592L238.899 153.442L242.619 155.812C242.619 155.812 242.619 155.812 242.619 155.892L243.889 156.702L244.329 155.482C244.329 155.482 244.329 155.482 244.329 155.422L245.939 151.142L243.189 152.032C241.589 148.472 238.909 145.522 235.519 143.602C232.139 141.672 228.229 140.882 224.369 141.322C220.509 141.762 216.879 143.432 214.019 146.072C211.159 148.712 209.209 152.202 208.449 156.032L210.289 156.402C211.039 152.632 213.079 149.252 216.049 146.822C219.029 144.372 222.749 143.052 226.579 143.072Z" fill="white"/>
<path d="M227.009 176.311C223.869 176.321 220.789 175.431 218.139 173.741C215.489 172.051 213.389 169.621 212.079 166.761L214.859 165.781L209.649 162.691L209.209 163.911H209.119C209.119 163.951 209.119 163.981 209.119 164.021L207.539 168.311L210.249 167.351C211.849 170.901 214.539 173.861 217.919 175.781C221.299 177.701 225.209 178.501 229.079 178.051C232.939 177.601 236.569 175.941 239.429 173.291C242.289 170.641 244.239 167.161 244.989 163.331L243.149 162.961C242.409 166.711 240.399 170.091 237.459 172.521C234.519 174.971 230.829 176.301 227.009 176.311Z" fill="white"/>
<path d="M235.54 168.111V150.551H231.45V168.111H228.81V154.271H224.72V168.161H222.09V157.041H218V168.161H216.5V168.871H237.12V168.161L235.54 168.111Z" fill="#937DFF"/>
<path d="M174.009 348.691C169.699 347.041 165.569 344.961 161.689 342.461C160.889 341.881 159.879 339.491 159.199 337.661L159.519 281.961L142.879 279.641L146.209 339.081C145.499 342.091 145.459 345.221 146.089 348.251L176.629 352.371C176.639 352.371 177.879 349.871 174.009 348.691Z" fill="#B59FFF"/>
<path opacity="0.33" d="M174.009 348.691C169.699 347.041 165.569 344.961 161.689 342.461C160.889 341.881 159.879 339.491 159.199 337.661L159.519 281.961L142.879 279.641L146.209 339.081C145.499 342.091 145.459 345.221 146.089 348.251L176.629 352.371C176.639 352.371 177.879 349.871 174.009 348.691Z" fill="#373382"/>
<path d="M176.7 352.76L145.73 348.42L145.9 347.23L176.86 351.57L176.7 352.76Z" fill="#373382"/>
<path d="M146.21 339.02L153.37 348.27L145.89 347.22C145.9 347.23 144.93 342.34 146.21 339.02Z" fill="#373382"/>
<path d="M146.648 341.851L159.188 337.691L159.748 339.111L147.798 343.381L146.648 341.851Z" fill="#373382"/>
<path d="M161.242 342.011L160.502 340.801L150.602 345.831L151.542 347.261L161.242 342.011Z" fill="#373382"/>
<path d="M171.242 351.38L172.202 348.05L170.582 347.34L169.352 351.09L171.242 351.38Z" fill="#373382"/>
<path opacity="0.33" d="M128.799 347.331C124.949 346.111 117.879 341.951 116.599 340.981C115.749 339.991 115.109 338.831 114.709 337.591L131.119 282.881L114.479 280.371L101.329 336.891C101.249 337.051 101.199 337.211 101.149 337.381C100.389 340.401 100.309 343.551 100.909 346.601L131.409 351.051C131.419 351.051 132.649 348.571 128.799 347.331Z" fill="#373382"/>
<path d="M131.469 351.452L100.539 346.792L100.729 345.602L131.649 350.262L131.469 351.452Z" fill="#373382"/>
<path d="M101.119 337.41L108.179 346.74L100.699 345.63C100.709 345.62 99.7795 340.7 101.119 337.41Z" fill="#373382"/>
<path d="M101.531 340.219L115.181 335.859L114.671 337.619L102.661 341.759L101.531 340.219Z" fill="#373382"/>
<path d="M116.118 340.55L115.378 339.32L105.398 344.23L106.328 345.68L116.118 340.55Z" fill="#373382"/>
<path d="M126 350.031L127 346.691L125.38 345.961L124.09 349.751L126 350.031Z" fill="#373382"/>
<path d="M118.439 250.83C115.359 276.12 109.309 286.81 109.309 286.81L95.4688 312.38L159.219 306.38L160.639 250.92C160.759 246.1 156.969 242.1 152.149 241.95L119.829 241L118.439 250.83Z" fill="white"/>
<path d="M159.299 309.3L159.539 296.23L101.469 301.31L95.4688 312.43L159.299 309.3Z" fill="#FFBE44"/>
<path d="M159.47 296.242L107.93 300.742L119.52 275.402L117.44 293.732L127.79 294.472L132.38 264.352L135.43 294.792L141.29 295.362L141.84 289.912L143.3 295.142L159.47 296.242Z" fill="#DDDDDD"/>
<path d="M118.75 245.619L138.29 256.079L154.96 242.399L129.23 238.109L118.75 245.619Z" fill="white"/>
<path opacity="0.25" d="M147.84 241.221L129.23 238.121L147.55 239.641L147.84 241.221Z" fill="#373382"/>
<path d="M379.85 199.851L345.91 179.841V114.241C345.94 112.271 346.49 110.351 347.5 108.661C348.51 106.971 349.94 105.581 351.66 104.621C353.37 103.661 355.31 103.171 357.27 103.201C359.23 103.231 361.15 103.781 362.84 104.791C367.98 107.801 372.25 112.101 375.23 117.261C378.21 122.431 379.79 128.281 379.81 134.251V199.851H379.85Z" fill="#FFD078"/>
<path d="M379.85 159.688L345.91 179.838V114.238C345.91 105.698 357.62 103.218 363.9 107.568C373.29 114.358 379.77 122.258 379.77 134.318V159.778L379.85 159.688Z" fill="url(#paint5_linear_8711_113863)"/>
<path d="M337.18 182.291C339.31 180.071 338.43 177.251 336.16 175.121L316.68 158.381C316.18 157.911 315.51 157.661 314.82 157.681C314.13 157.701 313.48 158.001 313.01 158.501L311.78 159.801C311.14 160.481 310.8 161.391 310.83 162.331C310.86 163.261 311.25 164.151 311.93 164.791L329.19 182.531C329.73 183.041 330.36 183.441 331.06 183.701C331.75 183.961 332.49 184.091 333.23 184.071C333.97 184.051 334.7 183.881 335.38 183.571C336.06 183.261 336.67 182.831 337.18 182.291Z" fill="#B59FFF"/>
<path d="M310.762 151.009C310.582 151.189 310.482 151.439 310.482 151.689C310.482 151.949 310.582 152.189 310.762 152.369L313.892 155.329L313.792 155.429L313.372 155.879L311.662 154.279L311.422 154.049L306.532 149.429C306.382 149.289 306.182 149.219 305.982 149.219C305.782 149.219 305.582 149.299 305.432 149.429C305.292 149.579 305.222 149.779 305.222 149.989C305.222 150.199 305.302 150.389 305.432 150.549L309.572 154.449L309.062 154.989L304.622 150.779C304.552 150.689 304.452 150.609 304.352 150.559C304.242 150.509 304.132 150.479 304.012 150.469C303.892 150.469 303.782 150.489 303.672 150.529C303.562 150.569 303.462 150.639 303.382 150.729C303.302 150.819 303.242 150.919 303.202 151.029C303.162 151.139 303.152 151.259 303.162 151.379C303.172 151.499 303.212 151.609 303.272 151.709C303.332 151.809 303.412 151.899 303.512 151.969L307.952 156.169L307.482 156.669L303.692 153.099C303.622 153.009 303.522 152.929 303.422 152.879C303.312 152.829 303.202 152.799 303.082 152.789C302.962 152.789 302.852 152.809 302.742 152.849C302.632 152.889 302.532 152.959 302.452 153.049C302.372 153.139 302.312 153.239 302.272 153.349C302.232 153.459 302.222 153.579 302.232 153.699C302.242 153.819 302.282 153.929 302.342 154.029C302.402 154.129 302.482 154.219 302.582 154.289L306.372 157.859L306.202 158.029C306.102 158.139 306.012 158.269 305.932 158.399L303.322 155.949C303.172 155.809 302.972 155.729 302.772 155.729C302.572 155.729 302.372 155.809 302.222 155.949C302.082 156.099 302.012 156.299 302.012 156.509C302.012 156.709 302.092 156.909 302.222 157.069L306.302 160.909L307.342 161.909L308.302 162.809C309.272 163.719 310.562 164.209 311.892 164.169C313.222 164.129 314.482 163.569 315.402 162.599L316.432 161.489V161.429L317.252 160.549C317.882 159.869 318.232 158.969 318.202 158.039C318.172 157.109 317.782 156.229 317.112 155.589L316.962 155.439L316.692 155.179L312.052 150.809C311.952 150.739 311.842 150.689 311.732 150.659C311.612 150.629 311.492 150.629 311.372 150.649C311.252 150.669 311.142 150.709 311.032 150.769C310.922 150.829 310.832 150.909 310.762 151.009Z" fill="#B59FFF"/>
<path d="M365.421 172.711C365.541 173.431 365.531 174.171 365.371 174.891C365.211 175.611 364.911 176.281 364.481 176.881C364.061 177.481 363.521 177.991 362.901 178.381C362.281 178.771 361.591 179.031 360.871 179.151L333.841 184.031C332.451 184.261 328.651 182.351 328.421 180.961L327.931 178.111C327.611 176.221 327.801 176.351 329.661 176.031L359.011 168.131C359.731 168.001 360.471 168.021 361.181 168.191C361.891 168.351 362.571 168.651 363.171 169.081C363.771 169.511 364.271 170.041 364.661 170.671C365.041 171.291 365.301 171.981 365.421 172.711Z" fill="#B59FFF"/>
<path d="M357.66 137.081C357.66 132.421 361.51 130.891 366.2 130.891C368.47 130.911 370.65 131.841 372.25 133.461C373.85 135.081 374.75 137.271 374.74 139.551C374.74 144.201 370.94 145.601 366.2 145.601C363.94 145.601 361.78 144.701 360.18 143.111C358.57 141.511 357.67 139.351 357.66 137.081Z" fill="#373382"/>
<path d="M366.801 137.362C366.801 132.712 370.651 131.172 375.341 131.172C377.611 131.202 379.781 132.122 381.381 133.742C382.981 135.362 383.881 137.552 383.881 139.832C383.881 144.492 380.081 145.882 375.341 145.882C373.081 145.882 370.921 144.982 369.321 143.392C367.711 141.792 366.811 139.622 366.801 137.362Z" fill="#373382"/>
<path d="M368.629 162.398C365.809 162.398 363.109 161.278 361.109 159.298C359.109 157.308 357.969 154.608 357.949 151.788V141.078C358.369 138.638 359.719 136.458 361.709 134.998C363.699 133.528 366.179 132.898 368.629 133.218C374.479 133.218 379.309 135.218 379.309 141.078V151.788C379.279 154.608 378.139 157.308 376.139 159.298C374.139 161.278 371.439 162.388 368.629 162.398Z" fill="#B59FFF"/>
<path d="M376.969 135.082H361.699L363.919 125.012H374.759L376.969 135.082Z" fill="#FFBE44"/>
<path d="M387.41 205.568V184.098C387.87 182.108 387.87 180.028 387.41 178.038C386.69 175.038 384.95 172.388 382.5 170.528C380.05 168.668 377.03 167.718 373.96 167.838H361.44C358.44 167.808 355.51 168.748 353.09 170.518C350.66 172.288 348.87 174.798 347.98 177.668V201.478C360.63 205.848 374.13 207.258 387.41 205.568Z" fill="white"/>
<path d="M358.399 140.289C358.399 140.289 355.389 146.439 353.299 151.509C353.289 151.649 353.309 151.789 353.349 151.919C353.389 152.049 353.459 152.169 353.559 152.269C353.649 152.369 353.759 152.459 353.879 152.519C353.999 152.579 354.139 152.619 354.269 152.619H358.399V140.289Z" fill="#B59FFF"/>
<path d="M376.742 157.602L374.282 169.422H361.922L364.062 157.702L376.742 157.602Z" fill="#B59FFF"/>
<path d="M358.042 153.89H360.262L363.142 156.55L363.932 155.7L361.562 153.19C361.382 153 361.172 152.85 360.932 152.75C360.692 152.65 360.442 152.59 360.182 152.59H357.852L358.042 153.89Z" fill="#373382"/>
<path d="M376.73 150.68H373.29L369.57 156.82C369.39 157.14 369.12 157.41 368.81 157.59C368.49 157.77 368.13 157.86 367.77 157.84H361.64C361.29 157.81 360.95 157.68 360.66 157.49C360.37 157.28 360.13 157.01 359.97 156.69L359.55 155.8H358.62L354.39 173.81C354.26 174.41 354.26 175.02 354.39 175.62C354.53 176.22 354.79 176.78 355.15 177.27C355.53 177.74 356.01 178.12 356.56 178.38C357.11 178.65 357.71 178.79 358.32 178.78H359.76C360.5 178.78 361.23 178.59 361.87 178.21C362.51 177.83 363.03 177.28 363.38 176.63L370.49 162.66L376.73 150.68Z" fill="#373382"/>
<path d="M378.368 158.781C379.948 158.771 381.488 158.291 382.798 157.411C384.108 156.521 385.128 155.271 385.728 153.801C386.328 152.331 386.478 150.721 386.158 149.171C385.848 147.621 385.078 146.191 383.958 145.081C382.838 143.961 381.408 143.201 379.858 142.901C378.308 142.601 376.698 142.761 375.248 143.371C373.788 143.981 372.548 145.011 371.668 146.331C370.788 147.651 370.328 149.201 370.328 150.781C370.338 152.911 371.188 154.951 372.698 156.451C374.198 157.951 376.238 158.791 378.368 158.781Z" fill="#373382"/>
<path d="M366.801 137.362C366.801 132.712 370.651 131.172 375.341 131.172C377.611 131.202 379.781 132.122 381.381 133.742C382.981 135.362 383.881 137.552 383.881 139.832C383.881 144.492 380.081 145.882 375.341 145.882C373.081 145.882 370.921 144.982 369.321 143.392C367.711 141.792 366.811 139.622 366.801 137.362Z" fill="#373382"/>
<path d="M395.712 163.719H379.852V224.549H395.712V163.719Z" fill="#0F0A45"/>
<path d="M340.27 178.461L339.23 183.041L347.99 181.361V179.311L340.27 178.461Z" fill="#B59FFF"/>
<path d="M359.398 145.019C359.398 145.019 362.428 142.349 364.518 145.239C364.518 145.249 362.458 147.339 359.398 145.019Z" fill="white"/>
<path d="M361.688 146.048C361.478 146.038 361.288 145.958 361.128 145.838C360.968 145.718 360.838 145.548 360.778 145.348C360.708 145.158 360.698 144.948 360.758 144.748C360.808 144.548 360.918 144.368 361.068 144.228C361.218 144.088 361.408 143.998 361.618 143.968C361.828 143.938 362.028 143.968 362.218 144.058C362.398 144.148 362.558 144.288 362.668 144.458C362.778 144.638 362.828 144.838 362.818 145.038C362.818 145.178 362.778 145.318 362.718 145.438C362.658 145.568 362.578 145.678 362.468 145.768C362.368 145.858 362.238 145.928 362.108 145.978C361.968 146.038 361.828 146.058 361.688 146.048Z" fill="#373382"/>
<path d="M360.75 140.801V141.911L364.31 142.291L366.17 143.171L366.38 142.391L364.47 141.081L360.75 140.801Z" fill="#373382"/>
<path d="M381.84 225.819L382.95 224.629C382.2 219.669 384.9 212.949 390.37 207.469C395.6 202.219 401.95 199.509 406.82 199.939L408.24 198.469L411.99 202.199C416.5 206.729 414.21 216.429 406.73 223.869C399.99 230.619 391.38 233.189 386.48 230.199C386.01 229.859 385.55 229.489 385.13 229.089L381.84 225.819Z" fill="#CC8825"/>
<path d="M403.44 220.551C410.86 213.111 413.21 203.411 408.69 198.881C404.17 194.351 394.5 196.711 387.08 204.151C379.66 211.591 377.31 221.291 381.83 225.821C386.34 230.351 396.02 227.991 403.44 220.551Z" fill="#FFBE44"/>
<path d="M400.858 218.351C406.788 212.401 408.918 204.901 405.608 201.591C402.308 198.281 394.818 200.411 388.888 206.351C382.958 212.301 380.828 219.801 384.138 223.111C387.448 226.431 394.928 224.291 400.858 218.351Z" stroke="#EFD770" stroke-width="0.93" stroke-miterlimit="10"/>
<path opacity="0.32" d="M406.13 197.23C407.09 197.6 407.96 198.16 408.69 198.89C413.21 203.43 410.91 213.12 403.44 220.56C396.65 227.37 387.98 229.91 383.09 226.83L406.13 197.23Z" fill="#F9DA58"/>
<path d="M67.7383 116.62L68.8483 115.43C68.0983 110.47 70.7983 103.75 76.2683 98.2695C81.4983 93.0195 87.8483 90.3095 92.7183 90.7395L94.1383 89.2695L97.8883 92.9995C102.398 97.5295 100.108 107.23 92.6283 114.67C85.8883 121.42 77.2783 123.99 72.3783 121C71.9083 120.66 71.4483 120.29 71.0283 119.89L67.7383 116.62Z" fill="#CC8825"/>
<path d="M89.3387 111.352C96.7587 103.912 99.1087 94.2115 94.5887 89.6815C90.0687 85.1515 80.3987 87.5115 72.9787 94.9515C65.5587 102.392 63.2087 112.092 67.7287 116.622C72.2487 121.142 81.9187 118.792 89.3387 111.352Z" fill="#FFBE44"/>
<path d="M86.7684 109.14C92.6984 103.2 94.8284 95.6902 91.5184 92.3802C88.2184 89.0702 80.7285 91.2002 74.7985 97.1402C68.8685 103.08 66.7385 110.59 70.0485 113.9C73.3485 117.22 80.8384 115.08 86.7684 109.14Z" stroke="#EFD770" stroke-width="0.93" stroke-miterlimit="10"/>
<path opacity="0.32" d="M92.04 88.0195C93 88.3895 93.87 88.9495 94.6 89.6795C99.13 94.2195 96.82 103.91 89.35 111.35C82.56 118.16 73.89 120.7 69 117.62L92.04 88.0195Z" fill="#F9DA58"/>
<path d="M267.852 241.44L284.832 251.22L299.912 242.2L283.252 232.48L267.852 241.44Z" fill="#38336C"/>
<path opacity="0.42" d="M275.398 240.118L284.398 245.298L292.378 240.518L283.558 235.398L275.398 240.118Z" fill="#4E40DB"/>
<path opacity="0.42" d="M277.891 240.2L284.241 243.86L289.891 240.48L283.661 236.84L277.891 240.2Z" fill="#4E40DB"/>
<path d="M280.691 240.26L284.081 242.22L287.091 240.42L283.761 238.48L280.691 240.26Z" fill="#75B239"/>
<path opacity="0.11" d="M283.961 240.898C284.791 240.898 285.461 240.678 285.461 240.398C285.461 240.118 284.791 239.898 283.961 239.898C283.131 239.898 282.461 240.118 282.461 240.398C282.461 240.678 283.131 240.898 283.961 240.898Z" fill="#38336C"/>
<path d="M283.259 232.48L267.859 241.44L276.359 221.73L283.259 232.48Z" fill="#FF9837"/>
<path d="M267.852 241.438L284.832 251.338L271.482 227.828L267.852 241.438Z" fill="#FFBE44"/>
<path d="M299.922 242.201L283.262 232.481L290.982 220.961L299.922 242.201Z" fill="#E5802E"/>
<path d="M284.828 251.339L299.908 242.199L297.138 227.039L284.828 251.339Z" fill="#FF9837"/>
<path d="M284.221 234.398H283.621V240.558H284.221V234.398Z" fill="#838148"/>
<path d="M284.221 235.078H283.621V235.298H284.221V235.078Z" fill="#99965F"/>
<path d="M284.221 235.898H283.621V236.118H284.221V235.898Z" fill="#99965F"/>
<path d="M284.221 236.699H283.621V236.919H284.221V236.699Z" fill="#99965F"/>
<path d="M284.221 237.5H283.621V237.72H284.221V237.5Z" fill="#99965F"/>
<path d="M284.221 238.301H283.621V238.521H284.221V238.301Z" fill="#99965F"/>
<path d="M284.221 239.09H283.621V239.31H284.221V239.09Z" fill="#99965F"/>
<path d="M284.221 239.898H283.621V240.118H284.221V239.898Z" fill="#99965F"/>
<path d="M285.461 234.99C285.771 233.82 285.791 232.59 285.511 231.42C285.231 230.24 284.671 229.16 283.871 228.25C283.871 228.25 281.121 232.07 282.531 235.15C282.671 235.43 282.891 235.67 283.161 235.83C283.431 235.99 283.741 236.06 284.051 236.05C284.361 236.03 284.661 235.92 284.911 235.74C285.161 235.54 285.351 235.29 285.461 234.99Z" fill="#8BCF51"/>
<path d="M284.438 235.06C283.398 233.82 282.758 232.29 282.618 230.68C282.028 232.12 282.028 233.73 282.618 235.16C282.728 235.38 282.888 235.58 283.088 235.73C283.288 235.88 283.518 235.99 283.758 236.03C283.998 236.08 284.258 236.07 284.488 236C284.728 235.93 284.948 235.81 285.128 235.64C284.888 235.47 284.648 235.27 284.438 235.06Z" fill="#75B239"/>
<path d="M271.48 227.812L271.82 227.672L284.83 250.622C284.83 250.622 284.83 251.142 284.83 251.262C284.83 251.382 271.48 227.812 271.48 227.812Z" fill="#FF9837"/>
<path d="M297.15 227.039H296.83L284.84 250.669L284.82 251.309L297.15 227.039Z" fill="#FFBE44"/>
<g opacity="0.11">
<path opacity="0.11" d="M284.742 199.429L288.192 203.879L284.592 208.329L280.872 203.599L284.742 199.359V199.429ZM285.192 188.879L272.012 203.279L284.542 219.189L296.742 203.909L285.142 188.879H285.192Z" fill="#B59FFF"/>
</g>
<g opacity="0.33">
<path opacity="0.33" d="M284.67 200.552L287.29 203.892L284.55 207.312L281.72 203.722L284.67 200.492V200.552ZM285 192.512L275.02 203.462L284.56 215.582L293.88 203.952L285 192.512Z" fill="#B59FFF"/>
</g>
<path d="M284.691 206.741L289.391 203.851L284.711 197.781L284.691 206.741Z" fill="#FF9837"/>
<path d="M279.391 203.599L284.681 206.749L284.701 197.789L279.391 203.599Z" fill="#FFBE44"/>
<path d="M284.691 206.742L289.391 203.852L284.741 209.582L284.691 206.742Z" fill="#E5802E"/>
<path d="M279.391 203.59L284.681 206.74L284.731 209.58L279.391 203.59Z" fill="#F49A38"/>
<path d="M284.57 182.2L287.35 180.49L284.59 176.91L284.57 182.2Z" fill="#FF9837"/>
<path d="M281.43 180.342L284.56 182.212L284.58 176.922L281.43 180.342Z" fill="#FFBE44"/>
<path d="M284.57 182.21L287.35 180.5L284.6 183.88L284.57 182.21Z" fill="#E5802E"/>
<path d="M281.43 180.34L284.56 182.21L284.59 183.88L281.43 180.34Z" fill="#F49A38"/>
<path d="M395.019 172.512L394.159 175.932L390.949 174.472L393.089 177.272L389.949 178.882L393.469 178.962L392.769 182.422L395.019 179.712L397.279 182.422L396.569 178.962L400.099 178.882L396.959 177.272L399.089 174.472L395.879 175.932L395.019 172.512Z" fill="white"/>
<defs>
<linearGradient id="paint0_linear_8711_113863" x1="253.064" y1="458.997" x2="253.064" y2="237.564" gradientUnits="userSpaceOnUse">
<stop stop-color="#684DD4"/>
<stop offset="0.6968" stop-color="#A57FFF"/>
</linearGradient>
<linearGradient id="paint1_linear_8711_113863" x1="196.476" y1="9.8854" x2="196.476" y2="102.709" gradientUnits="userSpaceOnUse">
<stop stop-color="#6800D4"/>
<stop offset="0.2742" stop-color="#6A03D6"/>
<stop offset="0.4928" stop-color="#700DDC"/>
<stop offset="0.6924" stop-color="#791EE6"/>
<stop offset="0.8793" stop-color="#8735F3"/>
<stop offset="1" stop-color="#9249FF"/>
</linearGradient>
<linearGradient id="paint2_linear_8711_113863" x1="46.3549" y1="460.316" x2="174.898" y2="460.316" gradientUnits="userSpaceOnUse">
<stop offset="0.0488" stop-color="#6442FF"/>
<stop offset="0.1847" stop-color="#754CE9"/>
<stop offset="0.4683" stop-color="#A164B0"/>
<stop offset="0.8724" stop-color="#E88C55"/>
<stop offset="1" stop-color="#FF9937"/>
</linearGradient>
<linearGradient id="paint3_linear_8711_113863" x1="47.0297" y1="431.072" x2="172.283" y2="431.072" gradientUnits="userSpaceOnUse">
<stop offset="0.0488" stop-color="#6442FF"/>
<stop offset="0.1847" stop-color="#754CE9"/>
<stop offset="0.4683" stop-color="#A164B0"/>
<stop offset="0.8724" stop-color="#E88C55"/>
<stop offset="1" stop-color="#FF9937"/>
</linearGradient>
<linearGradient id="paint4_linear_8711_113863" x1="189.736" y1="159.226" x2="253.931" y2="159.226" gradientUnits="userSpaceOnUse">
<stop stop-color="#6800D4"/>
<stop offset="0.2742" stop-color="#6A03D6"/>
<stop offset="0.4928" stop-color="#700DDC"/>
<stop offset="0.6924" stop-color="#791EE6"/>
<stop offset="0.8793" stop-color="#8735F3"/>
<stop offset="1" stop-color="#9249FF"/>
</linearGradient>
<linearGradient id="paint5_linear_8711_113863" x1="362.879" y1="179.84" x2="362.879" y2="105.463" gradientUnits="userSpaceOnUse">
<stop stop-color="#937DFF" stop-opacity="0"/>
<stop offset="0.84" stop-color="#7E26FF"/>
</linearGradient>
</defs>
</svg>
