<svg width="504" height="472" viewBox="0 0 504 472" fill="none" xmlns="http://www.w3.org/2000/svg">
<path opacity="0.17" d="M409.909 146.532H308.849C306.519 146.532 304.609 144.622 304.609 142.292V67.5916C304.609 65.2616 306.519 63.3516 308.849 63.3516H409.909C412.239 63.3516 414.149 65.2616 414.149 67.5916V142.292C414.149 144.622 412.249 146.532 409.909 146.532Z" fill="url(#paint0_linear_8711_113674)"/>
<path d="M436.231 243.7C435.951 243.96 435.651 244.21 435.341 244.43C432.101 246.4 426.411 244.71 421.951 240.26C417.011 235.36 415.491 228.96 418.471 225.98L420.951 223.52L421.891 224.49C425.111 224.2 429.301 225.99 432.761 229.45C436.371 233.06 438.161 237.49 437.661 240.76L438.391 241.54L436.231 243.7Z" fill="#CC8825"/>
<path d="M438.412 241.531C441.402 238.541 439.842 232.151 434.942 227.251C430.042 222.351 423.642 220.791 420.652 223.781C417.662 226.771 419.222 233.161 424.122 238.061C429.022 242.971 435.422 244.521 438.412 241.531Z" fill="#FFBE44"/>
<path d="M436.882 239.753C439.062 237.573 437.662 232.623 433.742 228.703C429.822 224.783 424.872 223.383 422.692 225.563C420.512 227.743 421.912 232.693 425.832 236.613C429.752 240.533 434.692 241.943 436.882 239.753Z" stroke="#EFD770" stroke-width="0.7023" stroke-miterlimit="10"/>
<path opacity="0.32" d="M437.572 242.203C434.342 244.233 428.602 242.553 424.122 238.073C419.192 233.173 417.662 226.783 420.652 223.793C421.132 223.313 421.712 222.943 422.342 222.703L437.572 242.203Z" fill="#F9DA58"/>
<g opacity="0.62">
<path opacity="0.62" d="M436.231 272.891C435.951 273.151 435.651 273.401 435.341 273.621C432.101 275.591 426.411 273.901 421.951 269.451C417.011 264.551 415.491 258.151 418.471 255.171L420.951 252.711L421.891 253.681C425.111 253.391 429.301 255.181 432.761 258.641C436.371 262.251 438.161 266.681 437.661 269.951L438.391 270.731L436.231 272.891Z" fill="#CC8825"/>
<path opacity="0.62" d="M438.412 270.731C441.402 267.741 439.842 261.351 434.942 256.451C430.042 251.551 423.642 249.991 420.652 252.981C417.662 255.971 419.222 262.361 424.122 267.261C429.022 272.161 435.422 273.711 438.412 270.731Z" fill="#FFBE44"/>
<path opacity="0.62" d="M436.882 268.952C439.062 266.772 437.662 261.822 433.742 257.902C429.822 253.982 424.872 252.582 422.692 254.762C420.512 256.942 421.912 261.892 425.832 265.812C429.752 269.722 434.692 271.132 436.882 268.952Z" stroke="#EFD770" stroke-width="0.7023" stroke-miterlimit="10"/>
<path opacity="0.32" d="M437.572 271.391C434.342 273.421 428.602 271.741 424.122 267.261C419.192 262.361 417.662 255.971 420.652 252.981C421.132 252.501 421.712 252.131 422.342 251.891L437.572 271.391Z" fill="#F9DA58"/>
</g>
<g opacity="0.29">
<path opacity="0.29" d="M436.231 302.082C435.951 302.342 435.651 302.592 435.341 302.812C432.101 304.782 426.411 303.092 421.951 298.642C417.011 293.742 415.491 287.342 418.471 284.362L420.951 281.902L421.891 282.872C425.111 282.582 429.301 284.372 432.761 287.832C436.371 291.442 438.161 295.872 437.661 299.142L438.391 299.922L436.231 302.082Z" fill="#CC8825"/>
<path opacity="0.29" d="M438.412 299.922C441.402 296.932 439.842 290.542 434.942 285.642C430.042 280.742 423.642 279.182 420.652 282.172C417.662 285.162 419.222 291.552 424.122 296.452C429.022 301.352 435.422 302.902 438.412 299.922Z" fill="#FFBE44"/>
<path opacity="0.29" d="M436.882 298.144C439.062 295.964 437.662 291.014 433.742 287.094C429.822 283.174 424.872 281.774 422.692 283.954C420.512 286.134 421.912 291.084 425.832 295.004C429.752 298.924 434.692 300.324 436.882 298.144Z" stroke="#EFD770" stroke-width="0.7023" stroke-miterlimit="10"/>
<path opacity="0.32" d="M437.572 300.582C434.342 302.612 428.602 300.932 424.122 296.452C419.192 291.552 417.662 285.162 420.652 282.172C421.132 281.692 421.712 281.322 422.342 281.082L437.572 300.582Z" fill="#F9DA58"/>
</g>
<path d="M67.3722 117.82C67.1822 118 66.9722 118.17 66.7522 118.32C64.5222 119.68 60.5922 118.51 57.5222 115.45C54.1122 112.07 53.0722 107.66 55.1222 105.6L56.8322 103.91L57.4822 104.58C59.7022 104.38 62.5922 105.62 64.9822 108C67.4722 110.49 68.7122 113.54 68.3622 115.8L68.8722 116.34L67.3722 117.82Z" fill="#CC8825"/>
<path d="M68.8741 116.331C70.9341 114.271 69.8641 109.861 66.4841 106.481C63.1041 103.101 58.6941 102.031 56.6341 104.091C54.5741 106.151 55.6441 110.561 59.0241 113.941C62.4041 117.311 66.8141 118.391 68.8741 116.331Z" fill="#FFBE44"/>
<path d="M67.8106 115.101C69.3206 113.591 68.3506 110.181 65.6406 107.481C62.9406 104.781 59.5306 103.811 58.0206 105.311C56.5106 106.821 57.4806 110.231 60.1906 112.931C62.9006 115.641 66.3106 116.611 67.8106 115.101Z" stroke="#EFD770" stroke-width="0.4841" stroke-miterlimit="10"/>
<path opacity="0.32" d="M68.2909 116.79C66.0609 118.19 62.1109 117.03 59.0209 113.94C55.6209 110.56 54.5709 106.15 56.6309 104.09C56.9609 103.76 57.3609 103.5 57.8009 103.34L68.2909 116.79Z" fill="#F9DA58"/>
<path opacity="0.55" d="M362.28 346.641H129.45C127.46 346.641 125.82 345.011 125.82 343.011V92.4308C125.82 90.4408 127.45 88.8008 129.45 88.8008H362.28C364.27 88.8008 365.91 90.4308 365.91 92.4308V343.021C365.91 345.011 364.28 346.641 362.28 346.641Z" fill="url(#paint1_linear_8711_113674)"/>
<path d="M125.82 100.451V92.4308C125.82 90.4408 127.45 88.8008 129.45 88.8008H362.28C364.27 88.8008 365.91 90.4308 365.91 92.4308V100.451" fill="#7360FC"/>
<path d="M220.023 126.331H175.793C173.863 126.331 172.293 124.761 172.293 122.831V121.891C172.293 119.961 173.863 118.391 175.793 118.391H220.023C221.953 118.391 223.523 119.961 223.523 121.891V122.831C223.523 124.771 221.963 126.331 220.023 126.331Z" fill="#00C7BA"/>
<path d="M261.062 119.531H335.603" stroke="#7360FC" stroke-width="2.8348" stroke-miterlimit="10" stroke-linecap="round" stroke-linejoin="round"/>
<path d="M261.062 127.09H316.973" stroke="#7360FC" stroke-width="2.8348" stroke-miterlimit="10" stroke-linecap="round" stroke-linejoin="round"/>
<path d="M151.251 127.74C154.222 127.74 156.631 125.332 156.631 122.36C156.631 119.389 154.222 116.98 151.251 116.98C148.28 116.98 145.871 119.389 145.871 122.36C145.871 125.332 148.28 127.74 151.251 127.74Z" fill="#00C7BA"/>
<path d="M220.023 155.522H175.793C173.863 155.522 172.293 153.952 172.293 152.022V151.082C172.293 149.152 173.863 147.582 175.793 147.582H220.023C221.953 147.582 223.523 149.152 223.523 151.082V152.022C223.523 153.962 221.963 155.522 220.023 155.522Z" fill="#7360FC"/>
<path d="M261.062 148.723H335.603" stroke="#7360FC" stroke-width="2.8348" stroke-miterlimit="10" stroke-linecap="round" stroke-linejoin="round"/>
<path d="M261.062 156.293H316.973" stroke="#7360FC" stroke-width="2.8348" stroke-miterlimit="10" stroke-linecap="round" stroke-linejoin="round"/>
<path d="M151.251 156.932C154.222 156.932 156.631 154.523 156.631 151.552C156.631 148.581 154.222 146.172 151.251 146.172C148.28 146.172 145.871 148.581 145.871 151.552C145.871 154.523 148.28 156.932 151.251 156.932Z" stroke="#7360FC" stroke-width="2.8348" stroke-miterlimit="10" stroke-linecap="round" stroke-linejoin="round"/>
<g opacity="0.62">
<path opacity="0.62" d="M220.023 184.721H175.793C173.863 184.721 172.293 183.151 172.293 181.221V180.281C172.293 178.351 173.863 176.781 175.793 176.781H220.023C221.953 176.781 223.523 178.351 223.523 180.281V181.221C223.523 183.151 221.963 184.721 220.023 184.721Z" fill="#7360FC"/>
<path opacity="0.62" d="M261.062 177.91H335.603" stroke="#7360FC" stroke-width="2.8348" stroke-miterlimit="10" stroke-linecap="round" stroke-linejoin="round"/>
<path opacity="0.62" d="M261.062 185.48H316.973" stroke="#7360FC" stroke-width="2.8348" stroke-miterlimit="10" stroke-linecap="round" stroke-linejoin="round"/>
<path opacity="0.62" d="M151.251 186.131C154.222 186.131 156.631 183.722 156.631 180.751C156.631 177.78 154.222 175.371 151.251 175.371C148.28 175.371 145.871 177.78 145.871 180.751C145.871 183.722 148.28 186.131 151.251 186.131Z" stroke="#7360FC" stroke-width="2.8348" stroke-miterlimit="10" stroke-linecap="round" stroke-linejoin="round"/>
</g>
<path d="M220.023 213.913H175.793C173.863 213.913 172.293 212.343 172.293 210.413V209.473C172.293 207.543 173.863 205.973 175.793 205.973H220.023C221.953 205.973 223.523 207.543 223.523 209.473V210.413C223.523 212.343 221.963 213.913 220.023 213.913Z" fill="#7360FC"/>
<path d="M261.062 207.102H335.603" stroke="#7360FC" stroke-width="2.8348" stroke-miterlimit="10" stroke-linecap="round" stroke-linejoin="round"/>
<path d="M261.062 214.672H316.973" stroke="#7360FC" stroke-width="2.8348" stroke-miterlimit="10" stroke-linecap="round" stroke-linejoin="round"/>
<path d="M151.251 215.323C154.222 215.323 156.631 212.914 156.631 209.943C156.631 206.971 154.222 204.562 151.251 204.562C148.28 204.562 145.871 206.971 145.871 209.943C145.871 212.914 148.28 215.323 151.251 215.323Z" stroke="#7360FC" stroke-width="2.8348" stroke-miterlimit="10" stroke-linecap="round" stroke-linejoin="round"/>
<path d="M220.023 243.1H175.793C173.863 243.1 172.293 241.53 172.293 239.6V238.66C172.293 236.73 173.863 235.16 175.793 235.16H220.023C221.953 235.16 223.523 236.73 223.523 238.66V239.6C223.523 241.53 221.963 243.1 220.023 243.1Z" fill="#FF2475"/>
<path d="M261.062 236.301H335.603" stroke="#7360FC" stroke-width="2.8348" stroke-miterlimit="10" stroke-linecap="round" stroke-linejoin="round"/>
<path d="M261.062 243.859H316.973" stroke="#7360FC" stroke-width="2.8348" stroke-miterlimit="10" stroke-linecap="round" stroke-linejoin="round"/>
<path d="M151.251 244.51C154.222 244.51 156.631 242.101 156.631 239.13C156.631 236.159 154.222 233.75 151.251 233.75C148.28 233.75 145.871 236.159 145.871 239.13C145.871 242.101 148.28 244.51 151.251 244.51Z" fill="#FF2475"/>
<g opacity="0.3">
<path opacity="0.3" d="M220.023 272.292H175.793C173.863 272.292 172.293 270.722 172.293 268.792V267.852C172.293 265.922 173.863 264.352 175.793 264.352H220.023C221.953 264.352 223.523 265.922 223.523 267.852V268.792C223.523 270.732 221.963 272.292 220.023 272.292Z" fill="#7360FC"/>
<path opacity="0.3" d="M261.062 265.492H335.603" stroke="#7360FC" stroke-width="2.8348" stroke-miterlimit="10" stroke-linecap="round" stroke-linejoin="round"/>
<path opacity="0.3" d="M261.062 273.051H316.973" stroke="#7360FC" stroke-width="2.8348" stroke-miterlimit="10" stroke-linecap="round" stroke-linejoin="round"/>
<path opacity="0.3" d="M151.251 273.701C154.222 273.701 156.631 271.293 156.631 268.321C156.631 265.35 154.222 262.941 151.251 262.941C148.28 262.941 145.871 265.35 145.871 268.321C145.871 271.293 148.28 273.701 151.251 273.701Z" stroke="#7360FC" stroke-width="2.8348" stroke-miterlimit="10" stroke-linecap="round" stroke-linejoin="round"/>
</g>
<g opacity="0.06">
<path opacity="0.06" d="M220.023 301.479H175.793C173.863 301.479 172.293 299.909 172.293 297.979V297.039C172.293 295.109 173.863 293.539 175.793 293.539H220.023C221.953 293.539 223.523 295.109 223.523 297.039V297.979C223.523 299.919 221.963 301.479 220.023 301.479Z" fill="#7360FC"/>
<path opacity="0.06" d="M261.062 294.68H335.603" stroke="#7360FC" stroke-width="2.8348" stroke-miterlimit="10" stroke-linecap="round" stroke-linejoin="round"/>
<path opacity="0.06" d="M261.062 302.25H316.973" stroke="#7360FC" stroke-width="2.8348" stroke-miterlimit="10" stroke-linecap="round" stroke-linejoin="round"/>
<path opacity="0.06" d="M151.251 302.889C154.222 302.889 156.631 300.48 156.631 297.509C156.631 294.538 154.222 292.129 151.251 292.129C148.28 292.129 145.871 294.538 145.871 297.509C145.871 300.48 148.28 302.889 151.251 302.889Z" stroke="#7360FC" stroke-width="2.8348" stroke-miterlimit="10" stroke-linecap="round" stroke-linejoin="round"/>
</g>
<path d="M62.0391 163.289V226.659C62.0391 234.949 68.7591 241.669 77.0491 241.669H125.819" stroke="#5146E0" stroke-miterlimit="10" stroke-linecap="round" stroke-linejoin="round"/>
<path d="M125.82 244.409C127.328 244.409 128.55 243.187 128.55 241.679C128.55 240.171 127.328 238.949 125.82 238.949C124.312 238.949 123.09 240.171 123.09 241.679C123.09 243.187 124.312 244.409 125.82 244.409Z" fill="#5146E0"/>
<path d="M97.7188 267.969H125.819" stroke="#5146E0" stroke-miterlimit="10" stroke-linecap="round" stroke-linejoin="round"/>
<path d="M125.82 270.698C127.328 270.698 128.55 269.476 128.55 267.968C128.55 266.461 127.328 265.238 125.82 265.238C124.312 265.238 123.09 266.461 123.09 267.968C123.09 269.476 124.312 270.698 125.82 270.698Z" fill="#5146E0"/>
<path d="M430.421 183.997V135.537C430.421 127.247 423.701 120.527 415.411 120.527H366.641" stroke="#5146E0" stroke-miterlimit="10" stroke-linecap="round" stroke-linejoin="round"/>
<path d="M366.64 123.249C368.148 123.249 369.37 122.027 369.37 120.519C369.37 119.011 368.148 117.789 366.64 117.789C365.132 117.789 363.91 119.011 363.91 120.519C363.91 122.027 365.132 123.249 366.64 123.249Z" fill="#5146E0"/>
<path d="M430.421 164.541C430.421 156.251 423.701 149.531 415.411 149.531H366.641" stroke="#5146E0" stroke-miterlimit="10" stroke-linecap="round" stroke-linejoin="round"/>
<path d="M366.64 152.261C368.148 152.261 369.37 151.039 369.37 149.531C369.37 148.023 368.148 146.801 366.64 146.801C365.132 146.801 363.91 148.023 363.91 149.531C363.91 151.039 365.132 152.261 366.64 152.261Z" fill="#5146E0"/>
<path d="M430.424 204.609C420.224 204.609 411.934 196.319 411.934 186.119C411.934 175.919 420.224 167.629 430.424 167.629C440.624 167.629 448.914 175.919 448.914 186.119C448.914 196.319 440.624 204.609 430.424 204.609Z" fill="#7360FC"/>
<path d="M430.423 170.358C439.113 170.358 446.183 177.428 446.183 186.118C446.183 194.808 439.113 201.878 430.423 201.878C421.733 201.878 414.663 194.808 414.663 186.118C414.663 177.428 421.733 170.358 430.423 170.358ZM430.423 164.898C418.703 164.898 409.203 174.398 409.203 186.118C409.203 197.838 418.703 207.338 430.423 207.338C442.143 207.338 451.643 197.838 451.643 186.118C451.643 174.398 442.143 164.898 430.423 164.898Z" fill="#8980FF"/>
<path opacity="0.26" d="M430.422 223.048C450.818 223.048 467.352 206.513 467.352 186.117C467.352 165.722 450.818 149.188 430.422 149.188C410.026 149.188 393.492 165.722 393.492 186.117C393.492 206.513 410.026 223.048 430.422 223.048Z" fill="url(#paint2_radial_8711_113674)"/>
<path d="M418.902 179.897L430.422 186.807L441.952 179.897L430.412 172.977L418.902 179.897Z" fill="#00C7BA"/>
<path d="M418.912 192.358L430.412 199.258L430.422 186.808L418.902 179.898L418.912 192.358Z" fill="white"/>
<path d="M441.934 192.338L430.414 199.258L430.424 186.808L441.954 179.898L441.934 192.338Z" fill="#373382"/>
<path d="M61.9986 161.407C54.9986 161.407 49.3086 155.717 49.3086 148.717C49.3086 141.717 54.9986 136.027 61.9986 136.027C68.9986 136.027 74.6886 141.717 74.6886 148.717C74.6886 155.717 68.9986 161.407 61.9986 161.407Z" fill="#7360FC"/>
<path d="M61.9997 137.898C67.9697 137.898 72.8197 142.748 72.8197 148.718C72.8197 154.688 67.9697 159.538 61.9997 159.538C56.0297 159.538 51.1797 154.688 51.1797 148.718C51.1797 142.748 56.0397 137.898 61.9997 137.898ZM61.9997 134.148C53.9497 134.148 47.4297 140.668 47.4297 148.718C47.4297 156.768 53.9497 163.288 61.9997 163.288C70.0497 163.288 76.5697 156.768 76.5697 148.718C76.5697 140.668 70.0497 134.148 61.9997 134.148Z" fill="#8980FF"/>
<path opacity="0.26" d="M62.0006 174.079C76.0066 174.079 87.3606 162.725 87.3606 148.719C87.3606 134.713 76.0066 123.359 62.0006 123.359C47.9947 123.359 36.6406 134.713 36.6406 148.719C36.6406 162.725 47.9947 174.079 62.0006 174.079Z" fill="url(#paint3_radial_8711_113674)"/>
<path d="M54.0898 144.449L61.9998 149.189L69.9098 144.449L61.9998 139.699L54.0898 144.449Z" fill="#FF2475"/>
<path d="M54.0898 152.997L61.9998 157.738V149.188L54.0898 144.438V152.997Z" fill="white"/>
<path d="M69.9 152.989L62 157.739V149.189L69.91 144.449L69.9 152.989Z" fill="#373382"/>
<path d="M304.612 385.193C318.436 385.193 329.642 373.986 329.642 360.163C329.642 346.339 318.436 335.133 304.612 335.133C290.788 335.133 279.582 346.339 279.582 360.163C279.582 373.986 290.788 385.193 304.612 385.193Z" fill="#7360FC"/>
<path d="M304.611 338.831C316.371 338.831 325.941 348.401 325.941 360.161C325.941 371.921 316.371 381.491 304.611 381.491C292.851 381.491 283.281 371.921 283.281 360.161C283.281 348.401 292.851 338.831 304.611 338.831ZM304.611 331.441C288.751 331.441 275.891 344.301 275.891 360.161C275.891 376.021 288.751 388.881 304.611 388.881C320.471 388.881 333.331 376.021 333.331 360.161C333.331 344.301 320.471 331.441 304.611 331.441Z" fill="#8980FF"/>
<path opacity="0.26" d="M304.611 410.152C332.22 410.152 354.601 387.771 354.601 360.162C354.601 332.553 332.22 310.172 304.611 310.172C277.002 310.172 254.621 332.553 254.621 360.162C254.621 387.771 277.002 410.152 304.611 410.152Z" fill="url(#paint4_radial_8711_113674)"/>
<path d="M289.012 351.733L304.602 361.093L320.212 351.743L304.602 342.383L289.012 351.733Z" fill="#FFBE44"/>
<path d="M289.022 368.604L304.602 377.954V361.094L289.012 351.734L289.022 368.604Z" fill="white"/>
<path d="M320.182 368.582L304.602 377.952V361.092L320.212 351.742L320.182 368.582Z" fill="#373382"/>
<g opacity="0.54">
<g opacity="0.54">
<path opacity="0.54" d="M206.643 335.984H114.793V380.104H206.643V335.984Z" fill="#00C7BA"/>
</g>
<path opacity="0.14" d="M206.643 335.984H114.793V380.104H206.643V335.984Z" stroke="#0F0D44" stroke-width="2.7231" stroke-miterlimit="10"/>
<g opacity="0.54">
<path opacity="0.54" d="M202.351 339.312H118.281V376.772L202.351 339.312Z" fill="#12D6C3"/>
</g>
<g opacity="0.54">
<path opacity="0.14" d="M161.731 373.144C167.127 373.144 171.501 366.956 171.501 359.324C171.501 351.691 167.127 345.504 161.731 345.504C156.335 345.504 151.961 351.691 151.961 359.324C151.961 366.956 156.335 373.144 161.731 373.144Z" fill="#0F0D44"/>
<path opacity="0.14" d="M127.812 371.375H143.312" stroke="#0F0D44" stroke-width="1.3616" stroke-miterlimit="10"/>
<g opacity="0.54">
<path opacity="0.14" d="M127.812 346.574H143.312" stroke="#0F0D44" stroke-width="1.3616" stroke-miterlimit="10"/>
<path opacity="0.14" d="M141.124 361.165C142.333 361.165 143.314 360.185 143.314 358.975C143.314 357.766 142.333 356.785 141.124 356.785C139.914 356.785 138.934 357.766 138.934 358.975C138.934 360.185 139.914 361.165 141.124 361.165Z" fill="#0F0D44"/>
<path opacity="0.14" d="M194.742 371.375H179.242" stroke="#0F0D44" stroke-width="1.3616" stroke-miterlimit="10"/>
<path opacity="0.14" d="M194.742 346.574H179.242" stroke="#0F0D44" stroke-width="1.3616" stroke-miterlimit="10"/>
<path opacity="0.14" d="M181.424 361.165C182.634 361.165 183.614 360.185 183.614 358.975C183.614 357.766 182.634 356.785 181.424 356.785C180.215 356.785 179.234 357.766 179.234 358.975C179.234 360.185 180.215 361.165 181.424 361.165Z" fill="#0F0D44"/>
</g>
</g>
</g>
<path d="M198.471 327.812H106.621V371.932H198.471V327.812Z" fill="#00C7BA"/>
<path opacity="0.14" d="M198.471 327.812H106.621V371.932H198.471V327.812Z" stroke="#0F0D44" stroke-width="2.7231" stroke-miterlimit="10"/>
<path d="M194.179 331.141H110.109V368.601L194.179 331.141Z" fill="#12D6C3"/>
<path opacity="0.14" d="M153.559 364.972C158.955 364.972 163.329 358.785 163.329 351.152C163.329 343.519 158.955 337.332 153.559 337.332C148.163 337.332 143.789 343.519 143.789 351.152C143.789 358.785 148.163 364.972 153.559 364.972Z" fill="#0F0D44"/>
<path opacity="0.14" d="M119.641 363.203H135.141" stroke="#0F0D44" stroke-width="1.3616" stroke-miterlimit="10"/>
<path opacity="0.14" d="M119.641 338.402H135.141" stroke="#0F0D44" stroke-width="1.3616" stroke-miterlimit="10"/>
<path opacity="0.14" d="M132.952 352.993C134.161 352.993 135.142 352.013 135.142 350.803C135.142 349.594 134.161 348.613 132.952 348.613C131.742 348.613 130.762 349.594 130.762 350.803C130.762 352.013 131.742 352.993 132.952 352.993Z" fill="#0F0D44"/>
<path opacity="0.14" d="M186.57 363.203H171.07" stroke="#0F0D44" stroke-width="1.3616" stroke-miterlimit="10"/>
<path opacity="0.14" d="M186.57 338.402H171.07" stroke="#0F0D44" stroke-width="1.3616" stroke-miterlimit="10"/>
<path opacity="0.14" d="M173.253 352.993C174.462 352.993 175.443 352.013 175.443 350.803C175.443 349.594 174.462 348.613 173.253 348.613C172.043 348.613 171.062 349.594 171.062 350.803C171.062 352.013 172.043 352.993 173.253 352.993Z" fill="#0F0D44"/>
<path d="M152.851 354.812C151.671 354.782 150.921 354.642 150.591 354.582V352.602H152.201V353.652C152.431 353.692 152.881 353.742 153.431 353.742C154.591 353.742 154.841 353.582 154.841 352.752C154.841 352.052 154.641 351.932 153.351 351.642C151.101 351.212 150.551 350.892 150.551 349.322C150.551 348.032 151.081 347.452 152.801 347.342V346.402H154.161V347.342C155.041 347.372 155.821 347.492 156.151 347.582V349.412H154.551V348.482C154.391 348.452 153.921 348.402 153.441 348.402C152.501 348.402 152.221 348.582 152.221 349.282C152.221 350.022 152.511 350.142 153.731 350.412C156.031 350.832 156.541 351.092 156.541 352.692C156.541 354.102 156.111 354.662 154.191 354.792V355.902H152.851V354.812Z" fill="#12D6C3"/>
<g opacity="0.55">
<g opacity="0.54">
<g opacity="0.54">
<path opacity="0.54" d="M430.471 86.3516H393.301V104.202H430.471V86.3516Z" fill="#00C7BA"/>
</g>
<path opacity="0.14" d="M430.471 86.3516H393.301V104.202H430.471V86.3516Z" stroke="#0F0D44" stroke-width="1.102" stroke-miterlimit="10"/>
<g opacity="0.54">
<path opacity="0.54" d="M428.743 87.6914H394.723V102.851L428.743 87.6914Z" fill="#12D6C3"/>
</g>
<g opacity="0.54">
<path opacity="0.14" d="M412.3 101.383C414.487 101.383 416.26 98.8804 416.26 95.7931C416.26 92.7059 414.487 90.2031 412.3 90.2031C410.113 90.2031 408.34 92.7059 408.34 95.7931C408.34 98.8804 410.113 101.383 412.3 101.383Z" fill="#0F0D44"/>
<path opacity="0.14" d="M398.57 100.672H404.85" stroke="#0F0D44" stroke-width="0.551" stroke-miterlimit="10"/>
<g opacity="0.54">
<path opacity="0.14" d="M398.57 90.6328H404.85" stroke="#0F0D44" stroke-width="0.551" stroke-miterlimit="10"/>
<path opacity="0.14" d="M403.96 96.5417C404.452 96.5417 404.85 96.1433 404.85 95.6517C404.85 95.1602 404.452 94.7617 403.96 94.7617C403.469 94.7617 403.07 95.1602 403.07 95.6517C403.07 96.1433 403.469 96.5417 403.96 96.5417Z" fill="#0F0D44"/>
<path opacity="0.14" d="M425.659 100.672H419.379" stroke="#0F0D44" stroke-width="0.551" stroke-miterlimit="10"/>
<path opacity="0.14" d="M425.659 90.6328H419.379" stroke="#0F0D44" stroke-width="0.551" stroke-miterlimit="10"/>
<path opacity="0.14" d="M420.269 96.5417C420.76 96.5417 421.159 96.1433 421.159 95.6517C421.159 95.1602 420.76 94.7617 420.269 94.7617C419.777 94.7617 419.379 95.1602 419.379 95.6517C419.379 96.1433 419.777 96.5417 420.269 96.5417Z" fill="#0F0D44"/>
</g>
</g>
</g>
<g opacity="0.55">
<g opacity="0.55">
<path opacity="0.55" d="M427.17 83.043H390V100.893H427.17V83.043Z" fill="#00C7BA"/>
</g>
<path opacity="0.14" d="M427.17 83.043H390V100.893H427.17V83.043Z" stroke="#0F0D44" stroke-width="1.102" stroke-miterlimit="10"/>
<g opacity="0.55">
<path opacity="0.55" d="M425.43 84.3945H391.41V99.5445L425.43 84.3945Z" fill="#12D6C3"/>
</g>
<g opacity="0.55">
<path opacity="0.14" d="M408.991 98.0823C411.178 98.0823 412.951 95.5796 412.951 92.4923C412.951 89.4051 411.178 86.9023 408.991 86.9023C406.804 86.9023 405.031 89.4051 405.031 92.4923C405.031 95.5796 406.804 98.0823 408.991 98.0823Z" fill="#0F0D44"/>
<path opacity="0.14" d="M395.27 97.3633H401.54" stroke="#0F0D44" stroke-width="0.551" stroke-miterlimit="10"/>
<g opacity="0.55">
<path opacity="0.14" d="M395.27 87.3242H401.54" stroke="#0F0D44" stroke-width="0.551" stroke-miterlimit="10"/>
<path opacity="0.14" d="M400.648 93.2331C401.139 93.2331 401.538 92.8347 401.538 92.3431C401.538 91.8516 401.139 91.4531 400.648 91.4531C400.156 91.4531 399.758 91.8516 399.758 92.3431C399.758 92.8347 400.156 93.2331 400.648 93.2331Z" fill="#0F0D44"/>
<path opacity="0.14" d="M422.348 97.3633H416.078" stroke="#0F0D44" stroke-width="0.551" stroke-miterlimit="10"/>
<path opacity="0.14" d="M422.348 87.3242H416.078" stroke="#0F0D44" stroke-width="0.551" stroke-miterlimit="10"/>
<path opacity="0.14" d="M416.96 93.2331C417.452 93.2331 417.85 92.8347 417.85 92.3431C417.85 91.8516 417.452 91.4531 416.96 91.4531C416.469 91.4531 416.07 91.8516 416.07 92.3431C416.07 92.8347 416.469 93.2331 416.96 93.2331Z" fill="#0F0D44"/>
</g>
</g>
</g>
<g opacity="0.55">
<g opacity="0.55">
<path opacity="0.55" d="M408.709 93.9625C408.229 93.9525 407.929 93.8925 407.799 93.8725V93.0725H408.449V93.4925C408.539 93.5125 408.719 93.5325 408.949 93.5325C409.419 93.5325 409.519 93.4725 409.519 93.1325C409.519 92.8525 409.439 92.8025 408.919 92.6825C408.009 92.5125 407.789 92.3825 407.789 91.7425C407.789 91.2225 407.999 90.9825 408.699 90.9425V90.5625H409.249V90.9425C409.599 90.9525 409.919 91.0025 410.049 91.0425V91.7825H409.399V91.4025C409.329 91.3925 409.139 91.3725 408.949 91.3725C408.569 91.3725 408.459 91.4425 408.459 91.7325C408.459 92.0325 408.579 92.0825 409.069 92.1925C409.999 92.3625 410.209 92.4625 410.209 93.1125C410.209 93.6825 410.029 93.9125 409.259 93.9625V94.4125H408.719V93.9625H408.709Z" fill="#12D6C3"/>
</g>
</g>
</g>
<g opacity="0.41">
<g opacity="0.41">
<path opacity="0.41" d="M82.3798 284.95H57.5798C56.7598 284.95 56.0898 284.28 56.0898 283.46V263.81C56.0898 262.99 56.7598 262.32 57.5798 262.32H65.0098C65.7098 262.32 66.3498 262.71 66.6598 263.34L67.2898 264.79H82.3798C83.1998 264.79 83.8698 265.46 83.8698 266.28V283.46C83.8698 284.28 83.2098 284.95 82.3798 284.95Z" fill="#373382"/>
<path opacity="0.41" d="M84.3213 286.552H59.5213C58.7013 286.552 58.0312 285.882 58.0312 285.062V265.412C58.0312 264.592 58.7013 263.922 59.5213 263.922H66.9512C67.6512 263.922 68.2912 264.312 68.6012 264.942L69.2313 266.392H84.3213C85.1413 266.392 85.8112 267.062 85.8112 267.882V285.062C85.8112 285.882 85.1413 286.552 84.3213 286.552Z" fill="#7360FC"/>
</g>
<path opacity="0.41" d="M66.3908 268.06H60.9108C60.3008 268.06 59.8008 267.56 59.8008 266.95C59.8008 266.34 60.3008 265.84 60.9108 265.84H66.3908C67.0008 265.84 67.5008 266.34 67.5008 266.95C67.5008 267.57 67.0008 268.06 66.3908 268.06Z" fill="#8076FF"/>
</g>
<path d="M93.5205 278.841H68.7205C67.9005 278.841 67.2305 278.171 67.2305 277.351V257.701C67.2305 256.881 67.9005 256.211 68.7205 256.211H76.1505C76.8505 256.211 77.4905 256.601 77.8005 257.231L78.4305 258.681H93.5205C94.3405 258.681 95.0105 259.351 95.0105 260.171V277.351C95.0105 278.171 94.3505 278.841 93.5205 278.841Z" fill="#373382"/>
<path d="M95.4619 280.443H70.6619C69.8419 280.443 69.1719 279.773 69.1719 278.953V259.302C69.1719 258.482 69.8419 257.812 70.6619 257.812H78.0919C78.7919 257.812 79.4319 258.202 79.7419 258.832L80.3719 260.283H95.4619C96.2819 260.283 96.9519 260.952 96.9519 261.772V278.953C96.9519 279.773 96.2819 280.443 95.4619 280.443Z" fill="#7360FC"/>
<path d="M77.5314 261.95H72.0514C71.4414 261.95 70.9414 261.45 70.9414 260.84C70.9414 260.23 71.4414 259.73 72.0514 259.73H77.5314C78.1414 259.73 78.6414 260.23 78.6414 260.84C78.6414 261.45 78.1414 261.95 77.5314 261.95Z" fill="#8076FF"/>
<path d="M364.742 243.891H382.492C390.782 243.891 397.502 250.611 397.502 258.901V345.461C397.502 353.581 390.922 360.161 382.802 360.161H333.332" stroke="#5146E0" stroke-miterlimit="10" stroke-linecap="round" stroke-linejoin="round"/>
<path d="M364.742 246.62C366.249 246.62 367.472 245.398 367.472 243.89C367.472 242.382 366.249 241.16 364.742 241.16C363.234 241.16 362.012 242.382 362.012 243.89C362.012 245.398 363.234 246.62 364.742 246.62Z" fill="#5146E0"/>
<defs>
<linearGradient id="paint0_linear_8711_113674" x1="359.381" y1="146.534" x2="359.381" y2="63.35" gradientUnits="userSpaceOnUse">
<stop stop-color="#937DFF" stop-opacity="0"/>
<stop offset="0.6656" stop-color="#7E26FF"/>
<stop offset="1" stop-color="#2A4AFF"/>
</linearGradient>
<linearGradient id="paint1_linear_8711_113674" x1="245.867" y1="346.645" x2="245.867" y2="88.8024" gradientUnits="userSpaceOnUse">
<stop stop-color="#937DFF" stop-opacity="0"/>
<stop offset="0.6656" stop-color="#7E26FF"/>
<stop offset="1" stop-color="#2A4AFF"/>
</linearGradient>
<radialGradient id="paint2_radial_8711_113674" cx="0" cy="0" r="1" gradientUnits="userSpaceOnUse" gradientTransform="translate(430.424 186.121) scale(36.9325)">
<stop stop-color="#2A4AFF"/>
<stop offset="0.5242" stop-color="#7E26FF"/>
<stop offset="1" stop-color="#937DFF" stop-opacity="0"/>
</radialGradient>
<radialGradient id="paint3_radial_8711_113674" cx="0" cy="0" r="1" gradientUnits="userSpaceOnUse" gradientTransform="translate(62.0015 148.719) scale(25.3552)">
<stop stop-color="#2A4AFF"/>
<stop offset="0.5242" stop-color="#7E26FF"/>
<stop offset="1" stop-color="#937DFF" stop-opacity="0"/>
</radialGradient>
<radialGradient id="paint4_radial_8711_113674" cx="0" cy="0" r="1" gradientUnits="userSpaceOnUse" gradientTransform="translate(304.61 360.163) scale(49.9867)">
<stop stop-color="#2A4AFF"/>
<stop offset="0.5242" stop-color="#7E26FF"/>
<stop offset="1" stop-color="#937DFF" stop-opacity="0"/>
</radialGradient>
</defs>
</svg>
