<svg width="496" height="412" viewBox="0 0 496 412" fill="none" xmlns="http://www.w3.org/2000/svg">
<path opacity="0.34" d="M425.006 22.7734H81.8047V318.373H425.006V22.7734Z" fill="url(#paint0_linear_8226_102754)"/>
<path opacity="0.81" d="M425.006 22.7734H81.8047V318.373H425.006V22.7734Z" stroke="#4E4BF7" stroke-width="5" stroke-miterlimit="10"/>
<g opacity="0.81">
<g opacity="0.81">
<path opacity="0.81" d="M191.587 133.921C198.777 140.306 205.338 147.357 211.221 154.966C210.567 154.122 209.925 153.278 209.272 152.434C217.353 162.956 224.08 174.466 229.238 186.689C228.822 185.69 228.395 184.703 227.979 183.705C230.272 189.186 232.174 194.822 234.468 200.315C235.989 203.965 237.534 207.616 239.507 211.064C241.349 214.274 243.595 217.282 245.984 220.1C254.066 229.636 265.499 235.153 276.778 239.885C282.435 242.263 288.199 244.38 293.845 246.746C292.846 246.33 291.86 245.902 290.862 245.486C301.76 250.087 312.005 256.056 321.394 263.285C320.55 262.631 319.706 261.989 318.863 261.335C328.335 268.671 336.833 277.197 344.154 286.673C343.5 285.829 342.858 284.985 342.205 284.14C349.312 293.403 355.254 303.521 359.794 314.27C359.378 313.271 358.95 312.284 358.534 311.285C358.713 311.702 358.879 312.13 359.057 312.546C360.341 315.685 361.743 318.229 364.798 320.013C367.472 321.582 371.418 322.248 374.413 321.273C377.431 320.298 380.343 318.42 381.876 315.53C383.338 312.772 384.384 308.943 383.136 305.911C379.606 297.315 375.589 289.015 370.562 281.192C365.618 273.499 359.961 266.174 353.757 259.456C341.955 246.675 327.669 235.748 312.136 227.9C302.842 223.215 293.001 219.803 283.422 215.784C284.42 216.2 285.407 216.628 286.405 217.044C279.904 214.298 273.51 211.183 267.888 206.878C268.732 207.532 269.576 208.174 270.42 208.828C267.46 206.522 264.786 203.918 262.48 200.969C263.134 201.813 263.776 202.657 264.43 203.502C261.447 199.578 259.212 195.202 257.287 190.672C257.703 191.671 258.131 192.658 258.547 193.657C256.312 188.33 254.458 182.849 252.248 177.51C249.728 171.458 247.042 165.501 243.881 159.758C237.998 149.033 230.783 138.998 222.725 129.807C218.518 125.015 214.014 120.485 209.248 116.252C206.764 114.04 203.817 112.59 200.429 112.59C197.363 112.59 193.714 113.945 191.611 116.252C189.424 118.63 187.808 121.757 187.95 125.074C188.069 128.285 189.115 131.721 191.587 133.921Z" fill="url(#paint1_linear_8226_102754)"/>
</g>
</g>
<path d="M281.545 137.655C303.52 137.655 321.335 119.833 321.335 97.8471C321.335 75.8617 303.52 58.0391 281.545 58.0391C259.569 58.0391 241.754 75.8617 241.754 97.8471C241.754 119.833 259.569 137.655 281.545 137.655Z" fill="url(#paint2_linear_8226_102754)"/>
<path opacity="0.5" d="M408.747 150.77C408.747 185.917 380.271 214.405 345.139 214.405C310.008 214.405 281.531 185.917 281.531 150.77" fill="url(#paint3_linear_8226_102754)"/>
<path opacity="0.51" d="M211.066 296.387L217.9 241.312L285.763 271.335L211.066 296.387Z" fill="url(#paint4_linear_8226_102754)"/>
<g opacity="0.81">
<g opacity="0.81">
<path opacity="0.81" d="M139.567 58.8819C133.755 72.3415 129.287 86.1816 126.85 100.664C124.414 115.122 123.415 129.771 124.485 144.407C126.482 172.016 134.671 198.912 148.612 222.846C156.218 235.902 165.559 248.113 176.173 258.874C178.407 261.145 181.818 262.536 184.991 262.536C188.058 262.536 191.706 261.18 193.81 258.874C198.409 253.868 198.706 246.187 193.81 241.217C189.092 236.437 184.67 231.372 180.546 226.057C181.2 226.901 181.842 227.745 182.495 228.589C173.582 217.032 166.189 204.357 160.485 190.922C160.901 191.92 161.328 192.907 161.744 193.906C155.992 180.244 152.023 165.881 150.026 151.185C150.18 152.291 150.323 153.396 150.477 154.502C148.516 139.675 148.54 124.634 150.489 109.807C150.335 110.913 150.192 112.019 150.038 113.125C152.034 98.2976 155.945 83.7798 161.744 69.9872C161.328 70.986 160.901 71.9729 160.485 72.9717C160.698 72.4842 160.901 71.9848 161.114 71.4973C162.03 70.0586 162.517 68.5129 162.6 66.8601C162.969 65.1955 162.897 63.5428 162.374 61.8782C161.578 58.977 159.344 55.838 156.634 54.4112C153.734 52.8774 150.228 52.1164 147.019 53.1509C144.143 54.0783 140.815 55.9807 139.567 58.8819Z" fill="url(#paint5_linear_8226_102754)"/>
</g>
</g>
<path d="M29.6426 201.314C31.8175 201.159 33.9568 201.873 35.6088 203.299C37.2608 204.726 38.271 206.747 38.4493 208.923L40.0419 252.881C40.0775 253.369 40.0181 253.868 39.8636 254.344C39.7091 254.819 39.4595 255.247 39.1386 255.628C38.8177 256.008 38.4255 256.305 37.9739 256.531C37.5341 256.757 37.0469 256.888 36.5596 256.924L32.3167 257.245C30.9618 257.34 29.6188 256.9 28.5967 256.008C27.5627 255.116 26.9328 253.856 26.8258 252.501L22.0481 210.136C21.8936 207.96 22.6067 205.808 24.0329 204.155C25.4472 202.503 27.4676 201.48 29.6426 201.314Z" fill="#B59FFF"/>
<path d="M38.4376 270.004C38.2593 269.969 38.0811 269.909 37.9266 269.802C37.7721 269.707 37.6413 269.576 37.5344 269.422C37.4274 269.267 37.3561 269.101 37.3085 268.922C37.2729 268.744 37.261 268.554 37.2967 268.375L38.3425 262.145C38.3425 262.145 38.1999 262.121 38.1405 262.109L37.2848 261.943L36.7381 265.296L36.643 265.771L35.0385 275.414C34.9791 275.723 34.8008 275.997 34.5394 276.163C34.2779 276.342 33.957 276.401 33.648 276.342C33.339 276.282 33.0656 276.104 32.8992 275.842C32.721 275.581 32.6615 275.26 32.721 274.951L34.0759 266.782L33.0181 266.568L31.5325 275.379C31.5206 275.545 31.4731 275.712 31.3899 275.854C31.3067 275.997 31.1997 276.128 31.069 276.223C30.9382 276.33 30.7837 276.389 30.6173 276.437C30.4509 276.472 30.2846 276.472 30.1182 276.449C29.9518 276.413 29.7973 276.354 29.6665 276.247C29.5358 276.151 29.417 276.021 29.3338 275.878C29.2506 275.735 29.1911 275.581 29.1793 275.414C29.1555 275.248 29.1793 275.081 29.2268 274.915L30.7005 266.092L29.726 265.902L28.4899 273.381C28.4305 273.69 28.2641 273.964 28.0027 274.142C27.7531 274.32 27.4322 274.392 27.1232 274.344C26.9687 274.32 26.826 274.261 26.6953 274.178C26.5646 274.094 26.4576 273.987 26.3625 273.857C26.2793 273.726 26.208 273.583 26.1843 273.441C26.1486 273.286 26.1486 273.131 26.1724 272.977L27.4084 265.51L27.0875 265.45C26.8736 265.427 26.6597 265.391 26.4576 265.32L25.5781 270.456C25.5187 270.765 25.3404 271.039 25.079 271.205C24.8175 271.384 24.4966 271.443 24.1876 271.384C23.8786 271.324 23.6052 271.146 23.4388 270.884C23.2606 270.623 23.2011 270.302 23.2606 269.992L24.6154 261.955L25.0314 259.874L25.3999 257.995C25.7207 256.081 26.7904 254.381 28.3711 253.251C29.9518 252.122 31.9009 251.682 33.8144 251.991L35.9655 252.419L36.0844 252.443L37.7839 252.775C39.1151 253.013 40.3035 253.762 41.0879 254.856C41.8724 255.962 42.1932 257.318 41.9793 258.661L41.8129 259.493L40.2679 268.649C40.256 268.863 40.1966 269.065 40.0896 269.255C39.9827 269.445 39.84 269.6 39.6618 269.719C39.4835 269.838 39.2933 269.921 39.0794 269.957C38.8655 270.076 38.6515 270.064 38.4376 270.004Z" fill="#B59FFF"/>
<path d="M56.527 198.971L45.5215 187.129L43.1445 189.15L52.9377 201.48L56.527 198.971Z" fill="#FFBE44"/>
<path d="M70.0651 179.328C71.313 181.112 71.8003 183.323 71.4319 185.463C71.0634 187.604 69.8512 189.518 68.0685 190.778L33.614 215.141C31.9026 216.413 27.113 215.462 25.9602 213.821L23.4406 210.314C21.8004 208.007 24.6647 203.215 24.6647 203.215L58.5486 177.307C59.44 176.677 60.4383 176.237 61.4961 175.999C62.5538 175.761 63.6473 175.737 64.7288 175.928C65.7984 176.118 66.8205 176.51 67.7357 177.105C68.6508 177.699 69.4471 178.436 70.0651 179.328Z" fill="#B59FFF"/>
<path opacity="0.34" d="M70.0651 179.328C71.313 181.112 71.8003 183.323 71.4319 185.463C71.0634 187.604 69.8512 189.518 68.0685 190.778L33.614 215.141C31.9026 216.413 27.113 215.462 25.9602 213.821L23.4406 210.314C21.8004 208.007 24.6647 203.215 24.6647 203.215L58.5486 177.307C59.44 176.677 60.4383 176.237 61.4961 175.999C62.5538 175.761 63.6473 175.737 64.7288 175.928C65.7984 176.118 66.8205 176.51 67.7357 177.105C68.6508 177.699 69.4471 178.436 70.0651 179.328Z" fill="url(#paint6_linear_8226_102754)"/>
<path d="M65.915 192.467L56.5378 198.959L43.2148 184.822L60.6263 171.969L65.915 192.467Z" fill="white"/>
<path d="M58.3789 197.853L53.6249 201.004L41.3359 186.058L46.2206 182.598L58.3789 197.853Z" fill="#FF2475"/>
<path d="M147.318 190.327C145.678 188.888 144.667 186.867 144.513 184.691C144.358 182.515 145.072 180.363 146.498 178.722L176.519 146.583C176.84 146.215 177.232 145.906 177.684 145.68C178.123 145.454 178.611 145.323 179.11 145.287C179.609 145.252 180.096 145.311 180.572 145.478C181.047 145.632 181.475 145.882 181.855 146.203L185.076 148.985C186.098 149.877 186.728 151.137 186.823 152.505C186.918 153.86 186.479 155.204 185.587 156.238L158.941 189.507C157.515 191.147 155.483 192.158 153.308 192.313C151.109 192.467 148.97 191.754 147.318 190.327Z" fill="#B59FFF"/>
<path d="M126.685 172.91L126.055 189.069L129.169 189.33L130.987 173.683L126.685 172.91Z" fill="#FFBE44"/>
<path d="M118.342 400.877C113.648 399.914 109.06 398.463 104.651 396.561C103.736 396.097 102.298 393.826 101.299 392.054L101.276 335.98L83.8047 336.385L88.2021 395.681C87.9763 398.879 88.4517 402.101 89.6045 405.098L121.658 404.206C121.658 404.206 122.514 401.436 118.342 400.877Z" fill="#B59FFF"/>
<path d="M121.787 404.585L89.2699 405.31L89.2461 404.061L121.763 403.324L121.787 404.585Z" fill="#373382"/>
<path d="M88.1912 395.621L97.093 403.897L89.237 404.075C89.237 404.075 87.4186 399.224 88.1912 395.621Z" fill="#373382"/>
<path d="M89.1172 398.428L101.311 392.066L102.119 393.434L90.5671 399.807L89.1172 398.428Z" fill="#373382"/>
<path d="M104.128 396.157L103.166 395.039L93.8359 401.84L95.0482 403.148L104.128 396.157Z" fill="#373382"/>
<path d="M115.942 404.097L116.382 400.518L114.599 400.055L113.957 404.097H115.942Z" fill="#373382"/>
<path d="M80.3432 400.877C75.6487 399.914 71.0611 398.463 66.6518 396.561C65.7367 396.097 64.2986 393.826 63.3002 392.054L69.7062 335.98L52.2354 336.385L50.2031 395.681C49.9773 398.879 50.4527 402.101 51.6055 405.098L83.6591 404.206C83.6472 404.206 84.5148 401.436 80.3432 400.877Z" fill="#B59FFF"/>
<path d="M83.7792 404.585L51.2621 405.31L51.2383 404.061L83.7554 403.324L83.7792 404.585Z" fill="#373382"/>
<path d="M50.1791 395.621L59.0809 403.897L51.225 404.075C51.225 404.075 49.4185 399.224 50.1791 395.621Z" fill="#373382"/>
<path d="M51.1055 398.428L63.2994 392.066L64.1076 393.434L52.5554 399.807L51.1055 398.428Z" fill="#373382"/>
<path d="M66.1166 396.157L65.1539 395.039L55.8242 401.84L57.0365 403.148L66.1166 396.157Z" fill="#373382"/>
<path d="M77.9301 404.097L78.3699 400.518L76.5871 400.055L75.9453 404.097H77.9301Z" fill="#373382"/>
<path d="M108.915 250.147L109.07 230.398L63.7527 226.105C59.5336 233.596 56.5504 241.705 54.8984 250.147H108.915Z" fill="white"/>
<path d="M108.751 240.242L110.997 349.619L45.2852 348.442L54.8644 249.873L108.751 240.242Z" fill="white"/>
<path d="M90.0179 160.686C98.3492 160.46 104.886 160.793 104.66 152.41L104.387 129.76C101.118 121.175 97.2439 118.737 88.9126 118.963C80.5813 119.189 73.8187 122.209 74.0446 130.568L74.5081 145.906C74.615 149.925 76.3146 153.73 79.2145 156.5C82.1263 159.259 86.0008 160.769 90.0179 160.686Z" fill="#B59FFF"/>
<path d="M103.711 128.688C103.711 128.688 108.203 137.343 111.329 144.525C111.662 145.286 110.854 146.059 110.022 146.083L104.174 146.237L103.711 128.688Z" fill="#B59FFF"/>
<path d="M78.2891 154.075L82.1754 170.84L99.7651 170.376L96.2591 153.742L78.2891 154.075Z" fill="#B59FFF"/>
<path d="M104.612 147.891L101.545 148.2L94.4383 155.406L93.2617 154.205L99.6914 147.225C99.941 146.94 100.25 146.714 100.595 146.56C100.939 146.405 101.308 146.322 101.688 146.31L104.612 146.215V147.891Z" fill="#373382"/>
<path d="M100.206 117.18C100.206 117.18 104.092 124.337 98.221 126.668C94.6436 128.059 90.8999 128.963 87.0848 129.367C87.0848 129.367 89.2954 135.621 86.3004 138.403C83.3054 141.186 81.6178 143.956 82.0218 151.708C82.4259 159.461 77.4461 159.604 76.6142 153.754C76.6142 153.754 72.2405 152.018 71.5631 143.314C70.8857 134.611 64.4559 112.376 100.206 117.18Z" fill="#373382"/>
<path d="M102.283 131.543L102.318 133.85L96.2333 134.587L93.0838 136.121L92.6797 134.801L95.9124 132.518L102.283 131.543Z" fill="#373382"/>
<path d="M96.6016 138.012C96.6016 138.012 100.024 134.35 102.912 137.667C102.972 137.655 100.678 140.485 96.6016 138.012Z" fill="white"/>
<path d="M100.299 139.008C99.9542 138.985 99.6333 138.842 99.3956 138.604C99.1579 138.366 99.0153 138.045 98.9915 137.7C98.9678 137.356 99.0747 137.023 99.2887 136.761C99.5026 136.5 99.7997 136.321 100.144 136.262C100.489 136.285 100.81 136.428 101.048 136.666C101.285 136.904 101.428 137.225 101.452 137.57C101.475 137.914 101.369 138.247 101.155 138.509C100.941 138.771 100.644 138.949 100.299 139.008Z" fill="#373382"/>
<path d="M99.1474 150.637L98.7671 155.143L95.3086 154.977L95.5938 153.538L99.1474 150.637Z" fill="#373382"/>
<path d="M104.637 150.209C104.007 150.126 103.401 149.888 102.878 149.543C102.343 149.199 101.891 148.735 101.559 148.2L104.625 147.891L104.637 150.209Z" fill="#070047"/>
<path d="M70.2407 139.046C68.8502 140.318 67.7567 141.899 67.0555 143.647C66.3543 145.407 66.0691 147.297 66.1998 149.176C66.9129 155.264 68.3985 157.142 65.7244 160.329C64.8568 161.542 64.3339 162.969 64.2032 164.455C64.0724 165.941 64.3458 167.439 64.9876 168.783C65.5461 170.126 60.4475 173.991 60.9942 179.543L83.6588 178.259L79.6298 128.832L70.2407 139.046Z" fill="#373382"/>
<path d="M78.0391 144.206L82.175 142.922L87.8204 151.875C88.272 152.6 88.9138 153.183 89.6625 153.575C90.4231 153.968 91.267 154.146 92.1108 154.099L99.729 153.694C100.751 153.587 102.332 153.992 102.76 153.04L103.306 151.78L104.673 151.756L110.628 176.262C110.853 177.106 110.901 177.986 110.734 178.842C110.58 179.698 110.223 180.507 109.7 181.208C109.178 181.91 108.512 182.48 107.739 182.885C106.967 183.289 106.111 183.503 105.244 183.527L100.739 183.622C100.43 183.646 100.121 183.574 99.8479 183.42C99.5745 183.265 99.3606 183.039 99.218 182.754L87.3687 161.221L78.0391 144.206Z" fill="#373382"/>
<path d="M103.223 177.165C103.603 175.025 104.827 173.123 106.61 171.874C108.393 170.626 110.603 170.138 112.743 170.507L154.304 177.76C156.408 178.081 159.118 182.147 158.761 184.121L158.048 188.389C157.573 191.172 152.153 192.527 152.153 192.527L109.902 186.772C108.833 186.582 107.81 186.19 106.895 185.595C105.98 185.013 105.184 184.252 104.566 183.36C103.948 182.468 103.508 181.458 103.27 180.399C103.045 179.329 103.033 178.223 103.223 177.165Z" fill="#B59FFF"/>
<path opacity="0.34" d="M103.223 177.165C103.603 175.025 104.827 173.123 106.61 171.874C108.393 170.626 110.603 170.138 112.743 170.507L154.304 177.76C156.408 178.081 159.118 182.147 158.761 184.121L158.048 188.389C157.573 191.172 152.153 192.527 152.153 192.527L109.902 186.772C108.833 186.582 107.81 186.19 106.895 185.595C105.98 185.013 105.184 184.252 104.566 183.36C103.948 182.468 103.508 181.458 103.27 180.399C103.045 179.329 103.033 178.223 103.223 177.165Z" fill="url(#paint7_linear_8226_102754)"/>
<path d="M98.3752 249.896L72.7394 248.802C70.1247 248.695 67.6527 247.542 65.8818 245.615C64.111 243.689 63.172 241.133 63.2671 238.517L63.1602 177.259C63.386 171.825 63.1602 167.604 68.5559 167.783C68.5559 167.783 100.693 168.782 103.248 169.067C104.127 170.018 118.235 174.869 118.687 176.094C119.138 177.307 119.34 178.603 119.281 179.899L109.464 223.464L108.739 240.491C108.596 243.107 107.431 245.556 105.482 247.316C103.557 249.111 100.99 250.027 98.3752 249.896Z" fill="white"/>
<path d="M115.463 170.84L126.683 172.909L126.065 192.325L104.672 189.032L115.463 170.84Z" fill="white"/>
<path d="M69.553 189.042C75.9709 189.042 81.1646 183.846 81.1646 177.425C81.1646 171.005 75.959 165.809 69.553 165.809C63.1351 165.809 57.9414 171.005 57.9414 177.425C57.9295 183.846 63.1351 189.042 69.553 189.042Z" fill="#373382"/>
<path d="M54.8651 250.145L51.9414 280.274L118.176 171.432C114.349 170.362 105.435 169.399 103.26 169.078L63.2677 211.443L63.3628 226.912C63.3628 226.924 59.4289 232.024 54.8651 250.145Z" fill="#FFBE44"/>
<path d="M50.9766 290.157L119.291 171.648L115.452 170.852L52.272 276.757L50.9766 290.157Z" fill="#FF2475"/>
<path d="M105.601 169.162L102.95 169.02L63.207 211.396L63.2665 219.267L105.601 169.162Z" fill="#FF2475"/>
<path opacity="0.25" d="M92.9408 192.883L62.9551 227.328C60.4711 231.787 58.5458 236.531 57.2266 241.454L92.9408 192.883Z" fill="#373382"/>
<path d="M45.795 343.188H110.996V358.145H43.6914L45.795 343.188Z" fill="#FF2475"/>
<path d="M124.594 172.387L130.18 173.54L128.254 192.79L122.359 191.768L124.594 172.387Z" fill="#FF2475"/>
<path d="M379.358 311.094L369.387 385.764H386.097L400.822 311.094H379.358Z" fill="#B59FFF"/>
<path d="M371.324 378.785C371.324 378.785 367.842 386.086 365.976 387.061C364.11 388.036 354.388 391.924 349.277 392.732C344.167 393.541 345.308 396.906 345.308 396.906L384.695 397.108C384.695 397.108 386.881 391.543 386.156 385.444C385.431 379.356 371.324 378.785 371.324 378.785Z" fill="#B59FFF"/>
<path d="M345.152 397.391L385.109 397.391L385.109 395.845L345.152 395.845L345.152 397.391Z" fill="#FFBE44"/>
<path d="M386.157 385.457L375.461 395.861H385.1C385.111 395.861 387.215 389.844 386.157 385.457Z" fill="#FFBE44"/>
<path d="M385.112 388.928L369.959 381.461L369.008 383.149L383.389 390.652L385.112 388.928Z" fill="#FFBE44"/>
<path d="M366.617 386.563L367.782 385.16L379.429 393.245L377.979 394.886L366.617 386.563Z" fill="#FFBE44"/>
<path d="M352.333 396.619L351.691 392.22L353.878 391.613L354.758 396.619H352.333Z" fill="#FFBE44"/>
<path d="M416.379 311.094L427.111 385.764H443.821L437.843 311.094H416.379Z" fill="#B59FFF"/>
<path d="M429.062 378.785C429.062 378.785 425.58 386.086 423.714 387.061C421.848 388.036 412.126 391.924 407.016 392.732C401.905 393.541 403.046 396.906 403.046 396.906L442.433 397.108C442.433 397.108 444.62 391.543 443.895 385.444C443.158 379.356 429.062 378.785 429.062 378.785Z" fill="#B59FFF"/>
<path d="M402.879 397.391L442.836 397.391L442.836 395.845L402.879 395.845L402.879 397.391Z" fill="#FFBE44"/>
<path d="M443.892 385.457L433.195 395.861H442.834C442.834 395.861 444.938 389.844 443.892 385.457Z" fill="#FFBE44"/>
<path d="M442.835 388.928L427.681 381.461L426.73 383.149L441.111 390.652L442.835 388.928Z" fill="#FFBE44"/>
<path d="M424.344 386.563L425.508 385.16L437.156 393.245L435.706 394.886L424.344 386.563Z" fill="#FFBE44"/>
<path d="M410.056 396.619L409.414 392.22L411.601 391.613L412.48 396.619H410.056Z" fill="#FFBE44"/>
<path d="M377.706 232.37C381.081 229.73 381.687 224.808 379.049 221.431L352.213 189.613C351 188.056 348.73 187.782 347.185 188.995L344.012 191.48C341.908 193.121 341.54 196.188 343.18 198.293L368.388 229.421C371.015 232.798 374.342 235.01 377.706 232.37Z" fill="#B59FFF"/>
<path d="M454.386 215.867C450.107 215.867 449.703 219.375 449.703 223.655L450.476 265.259C450.476 267.232 452.092 268.838 454.053 268.838H455.753C458.415 268.838 460.602 266.65 460.602 263.986L462.158 223.643C462.17 219.375 458.664 215.867 454.386 215.867Z" fill="#B59FFF"/>
<path d="M402.891 188.127C399.433 185.606 394.536 186.379 392.017 189.851L369.697 223.714C368.532 225.307 369.245 229.825 370.849 230.99L372.87 231.799C375.033 233.368 378.076 232.893 379.644 230.729L404.615 199.018C407.134 195.546 406.362 190.647 402.891 188.127Z" fill="#B59FFF"/>
<path d="M399.3 254.734H419.671C423.974 254.734 426.434 246.518 426.434 241.382L433.517 187.638C433.517 182.502 429.999 178.305 425.697 178.305L396.365 181.218C390.981 189.6 390.577 190.777 387.309 197.567L392.538 223.879L393.025 246.958C393.025 252.095 394.998 254.734 399.3 254.734Z" fill="#FFBE44"/>
<path d="M415.807 164.254L413.038 180.305L396.363 181.233L398.788 163.457L415.807 164.254Z" fill="#B59FFF"/>
<path d="M425.174 233.535C425.174 233.535 441.219 251.703 438.497 284.044C435.776 316.385 440.542 331.308 440.542 331.308L451.202 366.823L367.996 370.283L393.477 235.711L425.174 233.535Z" fill="#FFBE44"/>
<path d="M428.277 230.598L392.539 230.812L392.599 237.744L427.659 236.638L428.277 230.598Z" fill="#D3226A"/>
<path d="M392.539 223.844L392.575 234.509L427.98 233.534L428.812 225.496L392.539 223.844Z" fill="#FF2475"/>
<path d="M392.587 229.043L392.539 232.027L420.92 231.088L392.587 229.043Z" fill="#D3226A"/>
<path d="M423.429 186.106C426.745 183.383 431.677 183.871 434.387 187.188L459.785 218.067C461.033 219.588 460.581 224.142 459.06 225.391L455.946 227.947C453.878 229.636 453.926 229.338 452.226 227.27L422.347 197.069C419.626 193.763 420.113 188.829 423.429 186.106Z" fill="#B59FFF"/>
<path d="M447.921 278.184C448.658 278.184 449.252 277.59 449.252 276.853V270.908C449.312 270.908 449.383 270.919 449.443 270.919H450.274C450.286 270.919 450.298 270.919 450.322 270.919V274.142V274.593V283.856C450.322 284.474 450.821 284.974 451.439 284.974C452.057 284.974 452.556 284.474 452.556 283.856V276.008H453.579V284.474C453.579 285.092 454.078 285.592 454.696 285.592C455.314 285.592 455.813 285.092 455.813 284.474V276.008H456.752V283.19C456.752 283.808 457.251 284.308 457.869 284.308C458.487 284.308 458.986 283.808 458.986 283.19V276.008H459.307C459.521 276.008 459.723 275.985 459.925 275.937V280.871C459.925 281.49 460.424 281.989 461.042 281.989C461.66 281.989 462.159 281.49 462.159 280.871V273.155V271.157V269.338C462.159 265.533 459.046 262.418 455.242 262.418H453.163C453.127 262.418 453.091 262.418 453.056 262.418H451.404C448.741 262.418 446.566 264.594 446.566 267.257V267.555V268.066V276.853C446.578 277.59 447.184 278.184 447.921 278.184Z" fill="#B59FFF"/>
<path d="M381.974 296.445L438.629 320.879L442.373 337.371L378.836 313.02L381.974 296.445Z" fill="#D3226A"/>
<path d="M367.996 370.283L371.086 353.935L446.579 351.426L451.202 366.823L367.996 370.283Z" fill="#D3226A"/>
<path d="M368.531 367.454L400.216 366.158L400.823 357.942L402.391 366.074L428.467 365.004L429.109 353.328L431.022 364.897L450.347 364.112L446.579 351.426L371.086 353.935L368.531 367.454Z" fill="#FF2475"/>
<path d="M396.363 181.233L431.115 205.94L433.527 188.878L415.427 177.285L396.363 181.233Z" fill="#B59FFF"/>
<path d="M405.292 164.966L401.216 165.917C395.856 166.392 391.529 167.938 391.363 166.048L389.949 159.924L394.156 157.641L389.711 158.034L389.426 156.678V146.916C389.426 146.893 389.426 146.881 389.426 146.857C391.256 134.967 393.859 132.303 401.739 131.602C409.618 130.912 416.642 136.786 417.332 144.669L418.021 152.528C418.71 160.388 413.148 164.264 405.292 164.966Z" fill="#B59FFF"/>
<path d="M389.555 146.287C388.854 147.94 386.572 151.721 384.766 155.74C384.504 156.311 384.932 156.965 385.562 156.953L389.401 156.905L389.936 146.371C389.936 146.145 389.638 146.085 389.555 146.287Z" fill="#B59FFF"/>
<path d="M396.283 150.423C396.283 150.423 392.861 147.142 390.258 150.423C390.258 150.423 392.575 152.98 396.283 150.423Z" fill="white"/>
<path d="M392.421 151.565C393.143 151.565 393.728 150.979 393.728 150.257C393.728 149.535 393.143 148.949 392.421 148.949C391.699 148.949 391.113 149.535 391.113 150.257C391.113 150.979 391.699 151.565 392.421 151.565Z" fill="#373382"/>
<path d="M417.474 146.32C417.474 146.32 418.555 157.806 424.534 161.742C430.512 165.677 446.818 178.852 437.571 187.353C434.885 189.826 431.035 191.253 426.946 192.026C415.822 194.142 405.506 185.581 405.375 174.25L405.09 148.948L417.474 146.32Z" fill="#373382"/>
<path d="M390.828 140.127L401.025 142.85C401.025 142.85 402.178 152.814 406.088 154.359C409.999 155.905 417.462 146.322 417.462 146.322C417.462 146.322 418.068 132.446 404.139 131.59C391.256 130.805 390.828 140.127 390.828 140.127Z" fill="#373382"/>
<path d="M391.126 138.582L417.083 142.553L417.427 145.883L390.508 141.305L391.126 138.582Z" fill="#FFBE44"/>
<path d="M397.719 147.747C397.719 147.747 394.997 145.441 391.562 146.166V145.393C391.562 145.393 395.413 144.347 398.087 147.165L397.719 147.747Z" fill="#373382"/>
<path d="M405.111 155.478C406.404 155.478 407.452 154.429 407.452 153.135C407.452 151.842 406.404 150.793 405.111 150.793C403.818 150.793 402.77 151.842 402.77 153.135C402.77 154.429 403.818 155.478 405.111 155.478Z" fill="#B59FFF"/>
<path d="M405.113 162.146C407.095 162.146 408.702 160.539 408.702 158.556C408.702 156.573 407.095 154.965 405.113 154.965C403.13 154.965 401.523 156.573 401.523 158.556C401.523 160.539 403.13 162.146 405.113 162.146Z" fill="#FFBE44"/>
<path d="M391.195 189.732L396.365 181.23L431.117 205.938L429.798 215.866L391.195 189.732Z" fill="#FF2475"/>
<path d="M381.974 296.445L438.665 319.94L442.373 335.706L425.651 329.167L424.665 316.908L422.906 327.918L389.295 314.97L389.248 307.372L387.322 314.197L385.112 313.329V300.773L381.713 312.009L379.359 311.094L381.974 296.445Z" fill="#FF2475"/>
<path d="M429.797 215.866L428.811 225.497L399.681 224.166L420.063 222.168L397.375 214.63L422.726 218.672L426.683 213.762L429.797 215.866Z" fill="#D8962B"/>
<path d="M192.751 122.172L196.994 123.183C196.994 123.183 198.479 136.737 189.126 168.472L186.832 167.794C186.82 167.794 187.759 133.527 192.751 122.172Z" fill="#4545B5"/>
<path d="M192.751 122.175L196.994 123.185C199.549 120.819 200.357 117.419 200.416 114.196C198.289 113.055 196.28 111.652 194.355 110.32C190.481 117.026 192.751 122.175 192.751 122.175Z" fill="#9A9AF7"/>
<path opacity="0.81" d="M198.836 104.754C196.816 106.668 195.366 108.547 194.355 110.318C196.269 111.65 198.289 113.053 200.417 114.195C200.5 109.284 198.836 104.754 198.836 104.754Z" fill="#DD3CC6"/>
<path d="M328.703 167.176L332.91 166.047C332.91 166.047 340.647 177.271 347.493 209.636L345.152 210.135C345.152 210.135 329.701 179.53 328.703 167.176Z" fill="#7C7CF2"/>
<path d="M328.704 167.177L332.911 166.047C334.028 162.754 333.137 159.377 331.651 156.512C329.239 156.524 326.802 156.25 324.485 155.977C324.259 163.729 328.704 167.177 328.704 167.177Z" fill="#9A9AF7"/>
<path opacity="0.81" d="M325.792 148.949C324.924 151.601 324.544 153.931 324.484 155.976C326.802 156.238 329.238 156.511 331.651 156.511C329.393 152.148 325.792 148.949 325.792 148.949Z" fill="#3EB3DB"/>
<path d="M189.779 135.631C189.886 135.786 189.957 135.952 190.004 136.13C190.04 136.309 190.052 136.499 190.016 136.677C189.981 136.856 189.921 137.034 189.814 137.189C189.719 137.343 189.588 137.474 189.434 137.581L184.288 141.243C184.288 141.243 184.371 141.362 184.407 141.41L184.882 142.135L187.651 140.161L188.055 139.888L196.018 134.228C196.28 134.05 196.601 133.99 196.91 134.05C197.219 134.109 197.492 134.287 197.658 134.549C197.837 134.811 197.896 135.132 197.837 135.441C197.777 135.75 197.599 136.023 197.337 136.19L190.599 140.982L191.193 141.873L198.49 136.713C198.621 136.606 198.764 136.523 198.93 136.475C199.084 136.428 199.263 136.416 199.417 136.44C199.584 136.463 199.738 136.523 199.881 136.606C200.023 136.689 200.142 136.808 200.237 136.951C200.332 137.094 200.392 137.248 200.416 137.415C200.439 137.581 200.439 137.747 200.392 137.914C200.356 138.08 200.273 138.223 200.166 138.354C200.059 138.485 199.928 138.592 199.786 138.663L192.5 143.835L193.047 144.668L199.227 140.268C199.489 140.09 199.798 140.018 200.107 140.078C200.416 140.137 200.689 140.304 200.879 140.554C200.962 140.684 201.034 140.827 201.069 140.97C201.105 141.124 201.105 141.279 201.081 141.433C201.057 141.588 200.998 141.731 200.915 141.861C200.832 141.992 200.725 142.099 200.594 142.194L194.426 146.582L194.604 146.855C194.746 147.022 194.865 147.2 194.96 147.39L199.215 144.382C199.477 144.204 199.798 144.144 200.107 144.204C200.416 144.263 200.689 144.442 200.855 144.703C201.034 144.965 201.093 145.286 201.034 145.595C200.974 145.904 200.796 146.178 200.534 146.344L193.891 151.052L192.132 152.23L190.539 153.288C188.959 154.406 186.998 154.857 185.084 154.524C183.171 154.203 181.471 153.133 180.354 151.552L179.142 149.721L179.07 149.614L178.108 148.163C177.335 147.057 177.026 145.69 177.252 144.358C177.478 143.027 178.226 141.838 179.32 141.041L180.033 140.565L187.616 135.203C187.782 135.06 187.96 134.965 188.174 134.906C188.376 134.846 188.59 134.834 188.804 134.87C189.018 134.906 189.208 134.989 189.386 135.108C189.529 135.286 189.672 135.453 189.779 135.631Z" fill="#B59FFF"/>
<path d="M338.649 177.936C338.827 177.817 339.017 177.734 339.231 177.698C339.445 177.663 339.659 177.674 339.861 177.734C340.063 177.793 340.253 177.888 340.42 178.031L348.002 183.394L348.715 183.869C349.809 184.654 350.558 185.855 350.783 187.186C351.009 188.518 350.7 189.886 349.928 190.991L348.965 192.442L348.894 192.549L347.681 194.38C346.564 195.961 344.865 197.032 342.951 197.353C341.038 197.674 339.089 197.234 337.496 196.116L335.903 195.058L334.144 193.881L327.501 189.172C327.239 188.994 327.061 188.732 327.002 188.423C326.942 188.114 327.002 187.793 327.18 187.531C327.358 187.27 327.62 187.091 327.929 187.032C328.238 186.972 328.559 187.032 328.82 187.21L333.075 190.218C333.17 190.028 333.289 189.85 333.431 189.683L333.61 189.41L327.441 185.022C327.311 184.939 327.204 184.82 327.12 184.69C327.037 184.559 326.978 184.416 326.954 184.262C326.93 184.107 326.93 183.952 326.966 183.798C327.002 183.643 327.061 183.501 327.156 183.382C327.334 183.132 327.62 182.954 327.929 182.906C328.238 182.858 328.559 182.918 328.808 183.096L334.988 187.496L335.535 186.663L328.25 181.491C328.095 181.42 327.964 181.313 327.869 181.182C327.762 181.051 327.691 180.897 327.643 180.742C327.596 180.576 327.596 180.409 327.62 180.243C327.643 180.076 327.715 179.922 327.798 179.779C327.893 179.636 328.012 179.517 328.154 179.434C328.297 179.351 328.452 179.291 328.618 179.268C328.784 179.244 328.951 179.256 329.105 179.303C329.272 179.351 329.414 179.434 329.545 179.541L336.842 184.701L337.437 183.81L330.686 179.018C330.424 178.84 330.246 178.578 330.187 178.269C330.127 177.96 330.187 177.639 330.365 177.377C330.543 177.116 330.805 176.937 331.114 176.878C331.423 176.818 331.744 176.878 332.005 177.056L339.968 182.716L340.372 182.989L343.141 184.963L343.617 184.238C343.652 184.19 343.736 184.071 343.736 184.071L338.589 180.409C338.435 180.302 338.304 180.171 338.209 180.017C338.114 179.862 338.043 179.684 338.007 179.505C337.971 179.327 337.983 179.137 338.019 178.959C338.055 178.78 338.138 178.602 338.245 178.459C338.34 178.221 338.482 178.067 338.649 177.936Z" fill="#B59FFF"/>
<path opacity="0.29" d="M350.478 57.7398L349.408 61.9608C349.349 62.1867 349.111 62.3056 348.897 62.2105L344.951 60.427C344.595 60.2724 344.274 60.6886 344.5 60.9858L347.138 64.4221C347.281 64.6004 347.221 64.8739 347.007 64.9809L343.133 66.9665C342.788 67.1449 342.907 67.6562 343.299 67.6681L347.637 67.7632C347.863 67.7632 348.041 67.9772 347.994 68.2031L347.138 72.4598C347.067 72.8403 347.542 73.0662 347.792 72.7689L350.561 69.4397C350.704 69.2613 350.977 69.2613 351.132 69.4397L353.925 72.7808C354.174 73.0781 354.649 72.8403 354.578 72.4717L353.699 68.215C353.651 67.9891 353.818 67.7751 354.055 67.7751L358.405 67.6799C358.785 67.6681 358.904 67.1568 358.572 66.9784L354.697 64.9928C354.495 64.8858 354.436 64.6242 354.566 64.434L357.193 60.9858C357.431 60.6767 357.098 60.2605 356.741 60.427L352.795 62.2224C352.581 62.3175 352.344 62.1986 352.284 61.9727L351.215 57.7517C351.108 57.3712 350.573 57.3712 350.478 57.7398Z" fill="#B59FFF"/>
<path d="M206.478 186.701L205.408 190.922C205.349 191.148 205.111 191.267 204.897 191.171L200.951 189.388C200.595 189.233 200.274 189.65 200.5 189.947L203.138 193.383C203.281 193.561 203.221 193.835 203.008 193.942L199.133 195.928C198.788 196.106 198.907 196.617 199.299 196.629L203.637 196.724C203.863 196.724 204.041 196.938 203.994 197.164L203.138 201.421C203.067 201.801 203.542 202.027 203.792 201.73L206.561 198.401C206.704 198.222 206.977 198.222 207.132 198.401L209.925 201.742C210.174 202.039 210.65 201.801 210.578 201.433L209.699 197.176C209.651 196.95 209.818 196.736 210.055 196.736L214.405 196.641C214.785 196.629 214.904 196.118 214.572 195.939L210.697 193.954C210.495 193.847 210.436 193.585 210.566 193.395L213.193 189.947C213.431 189.638 213.098 189.221 212.741 189.388L208.795 191.183C208.582 191.278 208.344 191.16 208.284 190.934L207.215 186.713C207.096 186.332 206.573 186.332 206.478 186.701Z" fill="#B59FFF"/>
<path opacity="0.29" d="M113.587 61.0105L112.518 65.2314C112.458 65.4574 112.22 65.5763 112.007 65.4811L108.061 63.6976C107.704 63.543 107.383 63.9592 107.609 64.2565L110.248 67.6927C110.39 67.871 110.331 68.1445 110.117 68.2515L106.242 70.2372C105.898 70.4155 106.017 70.9268 106.409 70.9387L110.747 71.0338C110.973 71.0338 111.151 71.2478 111.103 71.4737L110.248 75.7304C110.176 76.1109 110.652 76.3368 110.901 76.0396L113.67 72.7103C113.813 72.532 114.086 72.532 114.241 72.7103L117.034 76.0514C117.283 76.3487 117.759 76.1109 117.688 75.7423L116.808 71.4856C116.761 71.2597 116.927 71.0457 117.165 71.0457L121.514 70.9506C121.895 70.9387 122.014 70.4274 121.681 70.2491L117.806 68.2634C117.604 68.1564 117.545 67.8948 117.676 67.7046L120.302 64.2565C120.54 63.9473 120.207 63.5312 119.851 63.6976L115.905 65.493C115.691 65.5881 115.453 65.4692 115.394 65.2433L114.324 61.0223C114.217 60.63 113.682 60.63 113.587 61.0105Z" fill="#B59FFF"/>
<defs>
<linearGradient id="paint0_linear_8226_102754" x1="253.41" y1="318.376" x2="253.41" y2="22.7753" gradientUnits="userSpaceOnUse">
<stop stop-color="#937DFF" stop-opacity="0"/>
<stop offset="0.6656" stop-color="#7E26FF"/>
<stop offset="1" stop-color="#2A4AFF"/>
</linearGradient>
<linearGradient id="paint1_linear_8226_102754" x1="285.81" y1="310.821" x2="285.81" y2="121.977" gradientUnits="userSpaceOnUse">
<stop stop-color="#937DFF" stop-opacity="0"/>
<stop offset="0.5528" stop-color="#00FFFF"/>
<stop offset="0.8393" stop-color="#E026FF"/>
</linearGradient>
<linearGradient id="paint2_linear_8226_102754" x1="281.54" y1="137.653" x2="281.54" y2="58.0401" gradientUnits="userSpaceOnUse">
<stop stop-color="#937DFF" stop-opacity="0"/>
<stop offset="0.8393" stop-color="#FF6B43"/>
</linearGradient>
<linearGradient id="paint3_linear_8226_102754" x1="281.539" y1="182.586" x2="408.747" y2="182.586" gradientUnits="userSpaceOnUse">
<stop stop-color="#937DFF" stop-opacity="0"/>
<stop offset="0.8393" stop-color="#7E26FF"/>
</linearGradient>
<linearGradient id="paint4_linear_8226_102754" x1="249.113" y1="286.511" x2="236.159" y2="236.576" gradientUnits="userSpaceOnUse">
<stop stop-color="#937DFF" stop-opacity="0"/>
<stop offset="0.8393" stop-color="#7E26FF"/>
</linearGradient>
<linearGradient id="paint5_linear_8226_102754" x1="160.709" y1="252.966" x2="160.709" y2="63.5262" gradientUnits="userSpaceOnUse">
<stop stop-color="#937DFF" stop-opacity="0"/>
<stop offset="0.5528" stop-color="#00FFFF"/>
<stop offset="0.8393" stop-color="#E026FF"/>
</linearGradient>
<linearGradient id="paint6_linear_8226_102754" x1="39.6415" y1="188.177" x2="55.332" y2="203.781" gradientUnits="userSpaceOnUse">
<stop stop-color="#937DFF" stop-opacity="0"/>
<stop offset="0.8393" stop-color="#7E26FF"/>
</linearGradient>
<linearGradient id="paint7_linear_8226_102754" x1="130.946" y1="192.51" x2="130.946" y2="170.376" gradientUnits="userSpaceOnUse">
<stop stop-color="#937DFF" stop-opacity="0"/>
<stop offset="0.8393" stop-color="#7E26FF"/>
</linearGradient>
</defs>
</svg>
