<svg width="108" height="108" viewBox="0 0 108 108" fill="none" xmlns="http://www.w3.org/2000/svg">
<path d="M68.2759 80.0808C68.5485 79.7873 68.8211 79.4518 69.0727 79.1373C79.8083 65.4872 65.3824 42.1081 63.055 38.921C63.013 42.4645 62.3211 45.6097 61.7759 47.4968C57.792 41.4162 53.3888 36.3839 50.2226 35C50.013 41.1645 48.7968 45.9033 47.1194 49.7404C45.9452 45.6097 43.8904 42.9678 43.8904 42.9678C42.4226 53.0323 38.4597 61.7759 36.8452 65.0259C35.7129 66.8711 35 68.7582 35 70.9598C35 80.8147 43.1984 85.3228 53.3049 85.3228C59.4275 85.3228 64.8372 83.6663 68.1501 80.1857C68.1921 80.1647 68.234 80.1228 68.2759 80.0808Z" fill="#FF3F25"/>
<path opacity="0.35" d="M54.1431 44.5391C54.1431 50.3052 55.0657 55.2746 52.8641 58.7133C52.0463 55.9246 48.985 54.4568 46.9302 53.8278C47.3915 61.3972 44.2883 67.1843 41.3318 71.8811C40.2624 73.2021 39.3398 77.2489 39.3398 78.4231C39.3398 83.6021 46.4899 85.3634 52.7383 85.3634C58.9867 85.3634 66.7867 82.9731 68.3174 75.9069C71.0432 63.2633 61.5448 48.7746 54.1431 44.5391Z" fill="#FFBE44"/>
<path d="M55.8423 60.1641C55.0455 63.8544 53.8293 66.7899 52.5293 69.1802C52.0471 67.2302 51.2713 65.406 50.0551 64.9447C50.3277 70.2496 48.1261 74.527 46.3438 77.819C45.7148 78.7416 45.3164 79.5593 45.3164 80.377C45.3164 84.0045 49.5729 85.2416 53.2842 85.2416C56.9955 85.2416 61.6503 83.5642 62.552 78.6158C64.1875 69.7883 60.2665 63.1415 55.8423 60.1641Z" fill="#FFBE44"/>
<path d="M23.8509 38.9515C23.85 39.4725 23.6372 39.972 23.2592 40.3404C22.8812 40.7088 22.3688 40.9162 21.8342 40.9171L12.8436 40.9171C12.8436 41.0121 12.8436 41.107 12.8436 41.2055L12.8436 42.496L32.4482 42.496C32.8849 42.5156 33.297 42.6985 33.5988 43.0066C33.9007 43.3147 34.0692 43.7243 34.0692 44.1503C34.0692 44.5764 33.9007 44.986 33.5988 45.2941C33.297 45.6022 32.8849 45.7851 32.4482 45.8047L20.5715 45.8047L20.5715 47.3203L33.379 47.3203C33.8157 47.3399 34.2278 47.5228 34.5297 47.8309C34.8315 48.139 35 48.5486 35 48.9747C35 49.4007 34.8315 49.8104 34.5297 50.1185C34.2278 50.4266 33.8157 50.6095 33.379 50.6291L20.5715 50.6291L20.5715 52.0075L31.438 52.0075C31.8878 52.0075 32.3191 52.1816 32.6371 52.4915C32.955 52.8015 33.1337 53.2218 33.1337 53.6602C33.1337 54.0985 32.955 54.5188 32.6371 54.8287C32.3191 55.1387 31.8878 55.3128 31.438 55.3128L20.5715 55.3128L20.5715 55.7804C20.5716 56.0869 20.5364 56.3923 20.4668 56.6912L27.9313 56.6912C28.3804 56.693 28.8106 56.8677 29.1282 57.1773C29.4458 57.4868 29.625 57.9061 29.6269 58.3438C29.626 58.7822 29.4471 59.2024 29.1295 59.5126C28.8118 59.8229 28.381 59.9981 27.9313 60L10.4625 60C7.69148 59.988 5.03746 58.9098 3.07803 57C1.1186 55.0903 0.0123409 52.5035 4.45736e-07 49.8028L5.80071e-07 46.7295L5.86987e-07 46.5713L6.93656e-07 44.131C0.00571138 42.2414 0.778405 40.4309 2.14929 39.0947C3.52017 37.7586 5.37784 37.0056 7.31655 37L21.8342 37C22.366 37.0018 22.8757 37.2075 23.2531 37.5727C23.6305 37.9379 23.8452 38.4332 23.8509 38.9515Z" fill="#B59FFF"/>
<path d="M84.1491 76.9515C84.15 77.4725 84.3628 77.972 84.7408 78.3404C85.1188 78.7088 85.6312 78.9162 86.1658 78.9171L95.1564 78.9171C95.1564 79.0121 95.1564 79.107 95.1564 79.2055L95.1564 80.496L75.5518 80.496C75.1151 80.5156 74.703 80.6985 74.4012 81.0066C74.0993 81.3147 73.9308 81.7243 73.9308 82.1503C73.9308 82.5764 74.0993 82.986 74.4012 83.2941C74.703 83.6022 75.1151 83.7851 75.5518 83.8047L87.4285 83.8047L87.4285 85.3203L74.621 85.3203C74.1843 85.3399 73.7722 85.5228 73.4703 85.8309C73.1685 86.139 73 86.5486 73 86.9747C73 87.4007 73.1685 87.8104 73.4703 88.1185C73.7722 88.4266 74.1843 88.6095 74.621 88.6291L87.4285 88.6291L87.4285 90.0075L76.562 90.0075C76.1122 90.0075 75.6809 90.1816 75.3629 90.4915C75.045 90.8015 74.8663 91.2218 74.8663 91.6602C74.8663 92.0985 75.045 92.5188 75.3629 92.8287C75.6809 93.1387 76.1122 93.3128 76.562 93.3128L87.4285 93.3128L87.4285 93.7804C87.4284 94.0869 87.4636 94.3923 87.5332 94.6912L80.0687 94.6912C79.6196 94.693 79.1894 94.8677 78.8718 95.1773C78.5542 95.4868 78.375 95.9061 78.3731 96.3438C78.374 96.7822 78.5529 97.2024 78.8705 97.5126C79.1882 97.8229 79.619 97.9981 80.0687 98L97.5375 98C100.309 97.988 102.963 96.9098 104.922 95C106.881 93.0903 107.988 90.5035 108 87.8028L108 84.7295L108 84.5713L108 82.131C107.994 80.2414 107.222 78.4309 105.851 77.0947C104.48 75.7586 102.622 75.0056 100.683 75L86.1658 75C85.634 75.0018 85.1243 75.2075 84.7469 75.5727C84.3695 75.9379 84.1548 76.4332 84.1491 76.9515Z" fill="#B59FFF"/>
<path d="M34.183 18.2713C36.2128 17.791 36.939 16.939 36.939 16.939C37.5663 16.0738 37.9602 15.0616 38.0826 14L38.7344 14.1773C39.209 16.2128 40.0667 16.939 40.0667 16.939C40.9293 17.5672 41.9399 17.9612 43 18.0826L42.8227 18.7287C40.7872 19.209 40.0667 20.0667 40.0667 20.0667C39.4357 20.9277 39.0414 21.9391 38.9231 23L38.2713 22.8227C37.791 20.7872 36.939 20.0667 36.939 20.0667C36.0755 19.4364 35.0625 19.0422 34 18.9231L34.183 18.2713Z" fill="white"/>
<path d="M57.1219 97.8543C58.4807 97.5332 58.9623 96.9623 58.9623 96.9623C58.9623 96.9623 59.4916 96.3677 59.7116 95L60.1457 95.1219C60.4668 96.4807 61.0377 96.9623 61.0377 96.9623C61.0377 96.9623 61.6323 97.4916 63 97.7116L62.8781 98.1457C61.5193 98.4668 61.0377 99.0377 61.0377 99.0377C61.0377 99.0377 60.5084 99.6323 60.2884 101L59.8543 100.878C59.5332 99.5193 58.9623 99.0377 58.9623 99.0377C58.9623 99.0377 58.3677 98.5084 57 98.2884L57.1219 97.8543Z" fill="white"/>
<path d="M18.1016 77.3698C19.2294 77.1061 19.6328 76.6296 19.6328 76.6296C19.9818 76.1504 20.2007 75.589 20.2681 75L20.6302 75.0985C20.8939 76.2294 21.3704 76.6296 21.3704 76.6296C21.8487 76.9802 22.4106 77.1992 23 77.2649L22.9015 77.6271C21.7706 77.8939 21.3704 78.3672 21.3704 78.3672C21.0202 78.847 20.8012 79.4097 20.7351 80L20.3729 79.8984C20.1061 78.7707 19.6328 78.3672 19.6328 78.3672C19.1521 78.0187 18.5898 77.7999 18 77.7319L18.1016 77.3698Z" fill="white"/>
<path d="M85.2379 54.7115C87.9554 54.0749 88.9187 52.9266 88.9187 52.9266C88.9187 52.9266 89.9772 51.7367 90.4172 49L91.2914 49.238C91.9276 51.9628 93.0753 52.9266 93.0753 52.9266C93.0753 52.9266 94.2646 53.9856 97 54.4259L96.7621 55.2945C94.0387 55.937 93.0753 57.0793 93.0753 57.0793C93.0753 57.0793 92.0168 58.2692 91.5768 61L90.7086 60.762C90.0664 58.0431 88.9247 57.0793 88.9247 57.0793C88.9247 57.0793 87.7354 56.0203 85 55.5801L85.2379 54.7115Z" fill="white"/>
</svg>
