<svg width="76" height="76" viewBox="0 0 76 76" fill="none" xmlns="http://www.w3.org/2000/svg">
<path d="M16.2852 37.1087L39.4645 50.9869L62.66 37.1248L39.4564 23.2305L16.2852 37.1087Z" fill="#B9E300"/>
<path d="M16.3013 62.1305L39.4564 76.0007L39.4645 50.9876L16.2852 37.1094L16.3013 62.1305Z" fill="white"/>
<path d="M20.9183 64.9689L34.8161 73.2878V64.7752C34.8161 59.7484 32.1724 55.0927 27.8551 52.5108C24.799 50.6791 20.9021 52.8819 20.9102 56.4402L20.9183 64.9689Z" fill="#B9E300"/>
<path opacity="0.3" d="M20.9183 64.9689L34.8161 73.2878V64.7752C34.8161 59.7484 32.1724 55.0927 27.8551 52.5108C24.799 50.6791 20.9021 52.8819 20.9102 56.4402L20.9183 64.9689Z" fill="#160E6B"/>
<path d="M20.9185 64.9689L32.9488 57.7312C31.7523 55.6172 30.0059 53.8017 27.8473 52.5108C24.7912 50.6791 20.8943 52.8819 20.9024 56.4402L20.9185 64.9689Z" fill="#080345"/>
<path d="M62.6202 62.1058L39.457 76.0002L39.4651 50.9871L62.6606 37.125L62.6202 62.1058Z" fill="#4420D8"/>
<path opacity="0.2" d="M24.1992 37.1145L38.8409 45.9013L53.4907 37.1145L38.9137 28.3438L24.1992 37.1145Z" fill="#160E6B"/>
<path d="M53.2669 8.59375L38.8516 17.2918V32.8968L53.2669 24.1987V8.59375Z" fill="#4420D8"/>
<path d="M53.2669 8.5932L38.8516 17.2913V0L53.2669 8.5932Z" fill="#B9E300"/>
<path opacity="0.3" d="M53.2669 8.5932L38.8516 17.2913V0L53.2669 8.5932Z" fill="#160E6B"/>
<path d="M24.4258 8.59375L38.8492 17.2918V32.8968L24.4258 24.1987V8.59375Z" fill="white"/>
<path d="M24.4258 8.5932L38.8492 17.2913V0L24.4258 8.5932Z" fill="#B9E300"/>
<path d="M29.6445 20.4402V23.6112L32.7895 25.4751V20.1094C31.7385 20.1981 30.6875 20.303 29.6445 20.4402Z" fill="#4C1ADC"/>
<path d="M32.7895 21.7388L29.6445 23.6108V17.9304C29.6445 17.1316 30.5258 16.6394 31.2211 17.0509V17.3736V17.0509C32.1994 17.6318 32.7976 18.6727 32.7976 19.7942V21.7388H32.7895Z" fill="#080345"/>
</svg>
