<svg width="108" height="108" viewBox="0 0 108 108" fill="none" xmlns="http://www.w3.org/2000/svg">
<path d="M68.507 49.83L76.057 49.89L82.407 48.47C83.2599 48.4082 84.0717 48.0793 84.727 47.53C85.1692 47.0745 85.4687 46.4999 85.5889 45.8766C85.7092 45.2534 85.6448 44.6085 85.4037 44.0213C85.1627 43.4341 84.7555 42.93 84.232 42.571C83.7085 42.2119 83.0917 42.0135 82.457 42L73.787 43.41L49.237 43.21C43.884 43.1761 38.734 45.2569 34.907 49C34.567 49.34 34.247 49.7 33.907 50.06H12.207V79.75H29.807C30.8432 82.3581 32.6335 84.598 34.9492 86.1833C37.2649 87.7687 40.0007 88.6275 42.807 88.65L70.807 88.88C71.7462 88.8029 72.6264 88.3909 73.2872 87.719C73.948 87.0472 74.3455 86.1603 74.407 85.22C74.4064 84.7094 74.3079 84.2036 74.117 83.73C73.928 83.2442 73.6428 82.8015 73.2785 82.4286C72.9142 82.0557 72.4783 81.7603 71.997 81.56C71.5262 81.3578 71.0195 81.2523 70.507 81.25L53.337 81.11V80.55V78.11L81.837 78.34L91.047 76.43C91.89 76.3395 92.6904 76.0138 93.357 75.49C93.8168 75.0389 94.1322 74.4615 94.2632 73.8308C94.3942 73.2002 94.3348 72.5449 94.0926 71.948C93.8505 71.3512 93.4364 70.8398 92.9031 70.4787C92.3697 70.1176 91.7411 69.9232 91.097 69.92L79.227 71.81L68.377 71.72V68.72L80.807 68.82L92.807 66.82C93.6668 66.7526 94.4796 66.4008 95.117 65.82C95.4212 65.5171 95.6626 65.1571 95.8272 64.7607C95.9919 64.3643 96.0767 63.9393 96.0767 63.51C96.0767 63.0807 95.9919 62.6557 95.8272 62.2593C95.6626 61.8629 95.4212 61.5029 95.117 61.2C94.8197 60.8884 94.463 60.6394 94.0681 60.4677C93.6731 60.2959 93.2477 60.2049 92.817 60.2L78.997 62.26L68.407 62.17V59.17L79.807 59.26L88.917 57.58C89.7845 57.5201 90.606 57.1675 91.247 56.58C91.868 55.9693 92.2267 55.1407 92.247 54.27C92.2419 53.4078 91.8984 52.5821 91.2906 51.9705C90.6828 51.359 89.8592 51.0105 88.997 51L77.727 52.65L68.477 52.57V51.63C68.552 51.0328 68.5621 50.4293 68.507 49.83Z" fill="#B59FFF"/>
<path d="M30.2389 49.8125H11.6289V82.9025H30.2389V49.8125Z" fill="#00C7BA"/>
<path d="M30.2389 69.6094H11.6289V82.8994H30.2389V69.6094Z" fill="#00A393"/>
<path d="M55.8461 67.3919C59.7745 67.3939 63.6152 66.2308 66.8824 64.0497C70.1497 61.8687 72.6968 58.7677 74.2015 55.1389C75.7062 51.5101 76.1009 47.5166 75.3357 43.6635C74.5705 39.8104 72.6798 36.2708 69.9028 33.4923C67.1257 30.7138 63.587 28.8213 59.7343 28.0542C55.8815 27.2871 51.8878 27.6798 48.2583 29.1827C44.6288 30.6855 41.5265 33.231 39.3438 36.4972C37.1611 39.7634 35.9961 43.6035 35.9961 47.5319C36.0014 52.7957 38.0941 57.8426 41.8153 61.5656C45.5364 65.2887 50.5823 67.3839 55.8461 67.3919Z" fill="#4420D8"/>
<path d="M55.8961 65.0012C59.8206 64.9933 63.6548 63.8228 66.9146 61.6375C70.1745 59.4523 72.7138 56.3502 74.212 52.7229C75.7102 49.0955 76.1001 45.1057 75.3325 41.2569C74.5649 37.4082 72.6743 33.8732 69.8992 31.0981C67.1241 28.3231 63.5891 26.4324 59.7404 25.6648C55.8916 24.8972 51.9018 25.2872 48.2745 26.7854C44.6472 28.2836 41.5451 30.8229 39.3598 34.0827C37.1745 37.3425 36.004 41.1767 35.9961 45.1012C35.9935 47.7153 36.5064 50.3042 37.5055 52.7197C38.5047 55.1353 39.9704 57.3301 41.8188 59.1785C43.6672 61.0269 45.862 62.4926 48.2776 63.4918C50.6932 64.4909 53.2821 65.0038 55.8961 65.0012Z" fill="#FFBE44"/>
<path opacity="0.25" d="M69.637 30.8192C65.9161 27.0982 60.8693 25.0078 55.607 25.0078C50.3448 25.0078 45.298 27.0982 41.577 30.8192C37.8561 34.5402 35.7656 39.587 35.7656 44.8492C35.7656 50.1115 37.8561 55.1582 41.577 58.8792L69.637 30.8192Z" fill="#FFEF9F"/>
<path d="M55.8958 60.5318C58.9458 60.5239 61.9251 59.6123 64.4573 57.912C66.9895 56.2117 68.961 53.7991 70.1227 50.979C71.2844 48.1588 71.5843 45.0576 70.9844 42.0671C70.3845 39.0767 68.9118 36.331 66.7523 34.1771C64.5928 32.0232 61.8434 30.5576 58.8513 29.9655C55.8593 29.3733 52.7589 29.6812 49.9418 30.8502C47.1246 32.0193 44.7172 33.997 43.0235 36.5336C41.3297 39.0701 40.4258 42.0518 40.4258 45.1018C40.4284 47.1308 40.8306 49.1393 41.6095 51.0128C42.3884 52.8862 43.5286 54.588 44.9651 56.0208C46.4016 57.4536 48.1063 58.5894 49.9818 59.3634C51.8573 60.1374 53.8669 60.5345 55.8958 60.5318V60.5318Z" stroke="#F9E178" stroke-width="1.96" stroke-miterlimit="10"/>
<path d="M60.9985 42.4617C61.0485 42.4117 62.2685 41.7117 62.2685 41.7117C62.2685 41.1517 60.9685 41.0017 60.7585 40.3717C60.5177 39.6919 60.0789 39.0998 59.4985 38.6717C57.9946 37.6063 56.1913 37.0461 54.3485 37.0717C53.1718 37.0492 52.0066 37.3063 50.9485 37.8217C49.8341 38.3643 48.9609 39.3016 48.4985 40.4517C48.2648 41.0682 48.1461 41.7223 48.1485 42.3817C48.1448 43.2089 48.3187 44.0274 48.6585 44.7817C48.9097 45.354 49.2855 45.863 49.7585 46.2717C50.4005 46.7899 51.165 47.1342 51.9785 47.2717C52.6954 47.3917 53.4218 47.4452 54.1485 47.4317H55.1485C55.95 47.4162 56.7472 47.5519 57.4985 47.8317C57.7892 47.94 58.0547 48.1067 58.2785 48.3217C58.4648 48.5134 58.596 48.7517 58.6585 49.0117C58.7233 49.2564 58.7569 49.5084 58.7585 49.7617C58.7711 50.4347 58.5443 51.0903 58.1185 51.6117C57.9232 51.8235 57.6844 51.9907 57.4185 52.1017C56.8923 52.3109 56.3343 52.4293 55.7685 52.4517C55.1285 52.4517 54.4385 52.4517 53.7685 52.4517H53.6985C52.8709 52.4636 52.0578 52.2343 51.3585 51.7917C51.1134 51.6323 50.9382 51.3856 50.8685 51.1017C50.7785 50.8017 49.6585 49.6017 49.6585 49.0017L48.3385 49.7617C48.3197 50.4347 48.3903 51.1072 48.5485 51.7617C48.7674 52.574 49.2669 53.2825 49.9585 53.7617C51.0621 54.5059 52.3676 54.8933 53.6985 54.8717H53.7985C54.8003 54.9 55.8029 54.8565 56.7985 54.7417C57.3635 54.6633 57.9152 54.5085 58.4385 54.2817C59.0168 54.0349 59.5352 53.6666 59.9585 53.2017C60.7855 52.2361 61.2333 51.0029 61.2185 49.7317C61.1979 49.2878 61.124 48.8479 60.9985 48.4217C60.8303 47.7467 60.4851 47.1288 59.9985 46.6317C59.3274 45.9918 58.4996 45.54 57.5985 45.3217C56.7988 45.1109 55.9755 45.0033 55.1485 45.0017H54.1485C53.4258 45.0466 52.7005 44.9791 51.9985 44.8017C51.7536 44.727 51.5259 44.6047 51.3285 44.4417C51.1276 44.2607 50.9674 44.0392 50.8585 43.7917C50.6626 43.3473 50.5604 42.8673 50.5585 42.3817C50.5561 42.0391 50.6206 41.6994 50.7485 41.3817C50.9789 40.7821 51.4246 40.29 51.9985 40.0017C52.7169 39.6624 53.5042 39.4947 54.2985 39.5117C55.6137 39.4816 56.906 39.8588 57.9985 40.5917C58.2029 40.7291 58.3573 40.9291 58.4385 41.1617C58.5261 41.4874 58.5632 41.8247 58.5485 42.1617V42.4217H60.9585L60.9985 42.4617Z" fill="#D89E1A"/>
<path d="M55.8475 38.2716L54.7575 35.1016L53.4375 35.8616V38.2716" fill="#D89E1A"/>
<path d="M55.8475 56.1717L57.1175 55.4117L53.4375 53.7617V56.1717" fill="#D89E1A"/>
<path d="M60.9987 41.6914C60.9987 40.5214 60.9987 39.6214 59.9987 38.8714C57.4987 36.9714 52.1887 36.8014 50.8487 40.1414C50.4523 41.2474 50.5061 42.4648 50.9987 43.5314C51.9987 45.7114 54.3987 45.4814 56.4087 45.4814C58.1987 45.4814 60.5687 45.9414 61.0887 47.9614C61.2578 48.5997 61.2726 49.2691 61.1317 49.9143C60.9909 50.5594 60.6985 51.1617 60.2787 51.6714C58.9987 53.0814 56.7787 52.9314 54.9987 53.0014C53.8919 53.0329 52.8023 52.7221 51.8787 52.1114C50.8087 51.3614 50.7687 50.3014 50.7687 49.1114" stroke="#FFEF9F" stroke-width="2.41" stroke-miterlimit="10"/>
<path d="M55.918 37.5216V35.1016" stroke="#FFEF9F" stroke-width="2.41" stroke-miterlimit="10"/>
<path d="M55.918 55.42V53" stroke="#FFEF9F" stroke-width="2.41" stroke-miterlimit="10"/>
<path d="M73.2236 19.2205C75.7046 18.6334 76.5921 17.5921 76.5921 17.5921C77.3588 16.5347 77.8402 15.2975 77.9898 14L78.7865 14.2166C79.3666 16.7046 80.4149 17.5921 80.4149 17.5921C81.4691 18.36 82.7043 18.8415 84 18.9898L83.7834 19.7795C81.2954 20.3666 80.4149 21.4149 80.4149 21.4149C79.6436 22.4672 79.1617 23.7033 79.0172 25L78.2205 24.7834C77.6334 22.2954 76.5921 21.4149 76.5921 21.4149C75.5367 20.6445 74.2986 20.1627 73 20.0172L73.2236 19.2205Z" fill="#FFEF9F"/>
<path d="M17.2033 37.7459C19.4587 37.2122 20.2656 36.2656 20.2656 36.2656C20.9626 35.3043 21.4002 34.1796 21.5362 33L22.2605 33.1969C22.7878 35.4587 23.7408 36.2656 23.7408 36.2656C24.6992 36.9636 25.8221 37.4014 27 37.5362L26.8031 38.2541C24.5413 38.7878 23.7408 39.7408 23.7408 39.7408C23.0397 40.6975 22.6016 41.8212 22.4701 43L21.7459 42.8031C21.2122 40.5413 20.2656 39.7408 20.2656 39.7408C19.3061 39.0405 18.1805 38.6025 17 38.4701L17.2033 37.7459Z" fill="white"/>
<path d="M41.1423 9.32211C42.7211 8.94854 43.2859 8.2859 43.2859 8.2859C43.7738 7.61298 44.0801 6.82571 44.1754 6L44.6823 6.13786C45.0515 7.72109 45.7186 8.2859 45.7186 8.2859C46.3894 8.77451 47.1754 9.08096 48 9.17535L47.8621 9.67789C46.2789 10.0515 45.7186 10.7186 45.7186 10.7186C45.2278 11.3882 44.9211 12.1748 44.8291 13L44.3221 12.8621C43.9485 11.2789 43.2859 10.7186 43.2859 10.7186C42.6142 10.2283 41.8264 9.92175 41 9.8291L41.1423 9.32211Z" fill="white"/>
</svg>
