<svg width="231" height="246" viewBox="0 0 231 246" fill="none" xmlns="http://www.w3.org/2000/svg">
<mask id="mask0_7073_140186" style="mask-type:alpha" maskUnits="userSpaceOnUse" x="0" y="0" width="231" height="246">
<rect width="231" height="246" fill="#C4C4C4"/>
</mask>
<g mask="url(#mask0_7073_140186)">
<path d="M1209.14 28.6057C1145.31 -31.2572 1094.05 28.6057 1094.05 28.6057C1094.05 28.6057 1042.79 88.4687 978.95 28.6057C915.11 -31.2572 863.86 28.6057 863.86 28.6057C863.86 28.6057 812.59 88.4687 748.76 28.6057C684.93 -31.2572 633.66 28.6057 633.66 28.6057C633.66 28.6057 582.4 88.4687 518.57 28.6057C497.57 8.97071 478.02 2.22615 461.14 2.01663C426.59 1.59759 403.45 28.6057 403.45 28.6057C403.45 28.6057 352.19 88.4687 288.35 28.6057C224.51 -31.2572 173.26 28.6057 173.26 28.6057C173.26 28.6057 122 88.4687 58.16 28.6057C-5.67999 -31.2572 -56.93 28.6057 -56.93 28.6057C-56.93 28.6057 -93.34 71.0885 -143 48.6499V111.426C-93.34 133.875 -56.93 91.392 -56.93 91.392C-56.93 91.392 -5.67 31.5291 58.16 91.392C121.99 151.255 173.26 91.392 173.26 91.392C173.26 91.392 224.52 31.5291 288.35 91.392C352.18 151.255 403.45 91.392 403.45 91.392C403.45 91.392 426.59 64.3738 461.14 64.8029C478.02 65.0024 497.61 71.7869 518.57 91.392C582.4 151.255 633.66 91.392 633.66 91.392C633.66 91.392 684.93 31.5291 748.76 91.392C812.59 151.255 863.86 91.392 863.86 91.392C863.86 91.392 915.12 31.5291 978.95 91.392C1042.78 151.255 1094.05 91.392 1094.05 91.392C1094.05 91.392 1145.31 31.5291 1209.14 91.392C1244.47 124.496 1275.93 120.954 1297 111.197V48.4204C1275.93 58.2179 1244.47 61.7099 1209.14 28.6057Z" fill="#3317A5"/>
<path d="M1209.14 154.617C1145.31 94.7545 1094.05 154.617 1094.05 154.617C1094.05 154.617 1042.79 214.48 978.95 154.617C915.11 94.7545 863.86 154.617 863.86 154.617C863.86 154.617 812.59 214.48 748.76 154.617C684.93 94.7545 633.66 154.617 633.66 154.617C633.66 154.617 582.4 214.48 518.57 154.617C497.57 134.982 478.02 128.228 461.14 128.028C426.59 127.609 403.45 154.617 403.45 154.617C403.45 154.617 352.19 214.48 288.35 154.617C224.51 94.7545 173.26 154.617 173.26 154.617C173.26 154.617 122 214.48 58.16 154.617C-5.67999 94.7545 -56.93 154.617 -56.93 154.617C-56.93 154.617 -93.34 197.1 -143 174.662V237.438C-93.34 259.886 -56.93 217.394 -56.93 217.394C-56.93 217.394 -5.67 157.531 58.16 217.394C121.99 277.257 173.26 217.394 173.26 217.394C173.26 217.394 224.52 157.531 288.35 217.394C352.18 277.257 403.45 217.394 403.45 217.394C403.45 217.394 426.59 190.386 461.14 190.815C478.02 191.014 497.61 197.799 518.57 217.394C582.4 277.257 633.66 217.394 633.66 217.394C633.66 217.394 684.93 157.531 748.76 217.394C812.59 277.257 863.86 217.394 863.86 217.394C863.86 217.394 915.12 157.531 978.95 217.394C1042.78 277.257 1094.05 217.394 1094.05 217.394C1094.05 217.394 1145.31 157.531 1209.14 217.394C1244.47 250.508 1275.93 246.966 1297 237.208V174.422C1275.93 184.19 1244.47 187.722 1209.14 154.617Z" fill="#160E6B"/>
</g>
</svg>
