<svg width="129" height="416" viewBox="0 0 129 416" fill="none" xmlns="http://www.w3.org/2000/svg">
<rect width="129" height="416" fill="#3317A5"/>
<mask id="mask0_6959_141463" style="mask-type:alpha" maskUnits="userSpaceOnUse" x="0" y="0" width="129" height="416">
<rect width="129" height="416" fill="#C4C4C4"/>
</mask>
<g mask="url(#mask0_6959_141463)">
<g opacity="0.2">
<path opacity="0.5" d="M1435.56 215.53V201.82H1426.96V186.77H1419.11V176.07H1401.38V186.77H1393.53V201.82H1384.94V215.53H1381.8H1374.34H1371.2V201.82H1362.61V186.77H1354.76V176.07H1337.03V186.77H1329.18V201.82H1320.59V215.53H1317.45H1309.99H1306.85V201.82H1298.25V186.77H1290.4V176.07H1272.68V186.77H1264.83V201.82H1256.23V215.53H1253.1H1245.63H1242.5V201.82H1233.9V186.77H1226.05V176.07H1208.33V186.77H1200.47V201.82H1191.88V215.53H1188.74H1181.28H1178.14V201.82H1169.55V186.77H1161.7V176.07H1143.97V186.77H1136.12V201.82H1127.53V215.53H1124.39H1116.93H1113.79V201.82H1105.19V186.77H1097.34V176.07H1079.62V186.77H1071.77V201.82H1063.17V215.53H1061.96H1052.57H1051.36V201.82H1042.77V186.77H1034.92V176.07H1017.19V186.77H1009.34V201.82H1000.75V215.53H997.61H990.15H987.01V201.82H978.41V186.77H970.56V176.07H952.84V186.77H944.99V201.82H936.39V215.53H933.25H925.79H922.66V201.82H914.06V186.77H906.21V176.07H888.49V186.77H880.63V201.82H872.04V215.53H868.9H861.44H858.3V201.82H849.71V186.77H841.86V176.07H824.13V186.77H816.28V201.82H807.69V215.53H804.55H797.09H793.95V201.82H785.36V186.77H777.5V176.07H759.78V186.77H751.93V201.82H743.33V215.53H740.2H732.73H729.6V201.82H721V186.77H713.15V176.07H695.43V186.77H687.58V201.82H678.98V215.53H677.77H668.38H667.17V201.82H658.58V186.77H650.72V176.07H633V186.77H625.15V201.82H616.55V215.53H613.41H605.95H602.82V201.82H594.22V186.77H586.37V176.07H568.65V186.77H560.79V201.82H552.2V215.53H549.06H541.6H538.46V201.82H529.87V186.77H522.02V176.07H504.29V186.77H496.44V201.82H487.85V215.53H484.71H477.25H474.11V201.82H465.51V186.77H457.66V176.07H439.94V186.77H432.09V201.82H423.49V215.53H420.36H412.89H409.76V201.82H401.16V186.77H393.31V176.07H375.59V186.77H367.74V201.82H359.14V215.53H356H348.54H345.4V201.82H336.81V186.77H328.96V176.07H311.23V186.77H303.38V201.82H294.79V215.53H293.57H284.19H282.98V201.82H274.38V186.77H266.53V176.07H248.81V186.77H240.95V201.82H232.36V215.53H229.22H221.76H218.62V201.82H210.03V186.77H202.18V176.07H184.45V186.77H176.6V201.82H168.01V215.53H164.87H157.41H154.27V201.82H145.68V186.77H137.82V176.07H120.1V186.77H112.25V201.82H103.65V215.53H100.52H93.05H89.92V201.82H81.32V186.77H73.47V176.07H55.75V186.77H47.9V201.82H39.3V215.53H36.16H28.7H25.57V201.82H16.97V186.77H9.12V176.07H-8.61V186.77H-16.46V201.82H-25.05V215.53H-28.19H-35.65H-38.79V201.82H-47.38V186.77H-55.24V176.07H-72.96V186.77H-80.81V201.82H-89.41V215.53H-100V235.08H1446.15V215.53H1435.56Z" fill="#4420D8"/>
<path opacity="0.5" d="M1467.81 254.591V268.301H1459.22V283.351H1451.37V294.051H1433.64V283.351H1425.79V268.301H1417.19V254.591H1414.06H1406.6H1403.46V268.301H1394.86V283.351H1387.01V294.051H1369.29V283.351H1361.44V268.301H1352.84V254.591H1349.7H1342.24H1339.11V268.301H1330.51V283.351H1322.66V294.051H1304.93V283.351H1297.08V268.301H1288.49V254.591H1285.35H1277.89H1274.75V268.301H1266.16V283.351H1258.31V294.051H1240.58V283.351H1232.73V268.301H1224.13V254.591H1221H1213.54H1210.4V268.301H1201.8V283.351H1193.95V294.051H1176.23V283.351H1168.38V268.301H1159.78V254.591H1156.64H1149.18H1146.05V268.301H1137.45V283.351H1129.6V294.051H1111.87V283.351H1104.02V268.301H1095.43V254.591H1094.22H1084.83H1083.62V268.301H1075.02V283.351H1067.17V294.051H1049.45V283.351H1041.6V268.301H1033V254.591H1029.86H1022.4H1019.27V268.301H1010.67V283.351H1002.82V294.051H985.1V283.351H977.24V268.301H968.65V254.591H965.51H958.05H954.91V268.301H946.32V283.351H938.47V294.051H920.74V283.351H912.89V268.301H904.29V254.591H901.16H893.7H890.56V268.301H881.96V283.351H874.11V294.051H856.39V283.351H848.54V268.301H839.94V254.591H836.81H829.34H826.21V268.301H817.61V283.351H809.76V294.051H792.03V283.351H784.18V268.301H775.59V254.591H772.45H764.99H761.85V268.301H753.26V283.351H745.41V294.051H727.68V283.351H719.83V268.301H711.24V254.591H710.02H700.64H699.43V268.301H690.83V283.351H682.98V294.051H665.25V283.351H657.4V268.301H648.81V254.591H645.67H638.21H635.07V268.301H626.48V283.351H618.63V294.051H600.9V283.351H593.05V268.301H584.46V254.591H581.32H573.86H570.72V268.301H562.12V283.351H554.27V294.051H536.55V283.351H528.7V268.301H520.1V254.591H516.97H509.5H506.37V268.301H497.77V283.351H489.92V294.051H472.2V283.351H464.34V268.301H455.75V254.591H452.61H445.15H442.01V268.301H433.42V283.351H425.57V294.051H407.84V283.351H399.99V268.301H391.39V254.591H388.26H380.8H377.66V268.301H369.06V283.351H361.21V294.051H343.49V283.351H335.64V268.301H327.04V254.591H325.83H316.44H315.23V268.301H306.64V283.351H298.79V294.051H281.06V283.351H273.21V268.301H264.62V254.591H261.48H254.02H250.88V268.301H242.28V283.351H234.43V294.051H216.71V283.351H208.86V268.301H200.26V254.591H197.12H189.66H186.53V268.301H177.93V283.351H170.08V294.051H152.36V283.351H144.5V268.301H135.91V254.591H132.77H125.31H122.17V268.301H113.58V283.351H105.73V294.051H88V283.351H80.15V268.301H71.55V254.591H68.42H60.96H57.82V268.301H49.22V283.351H41.37V294.051H23.65V283.351H15.8V268.301H7.2V254.591H4.07H-3.4H-6.53V268.301H-15.13V283.351H-22.98V294.051H-40.7V283.351H-48.56V268.301H-57.15V254.591H-67.75V235.051H1478.41V254.591H1467.81Z" fill="#4420D8"/>
</g>
<g opacity="0.1">
<path opacity="0.3" d="M1435.56 333.749V320.039H1426.96V304.989H1419.11V294.289H1401.38V304.989H1393.53V320.039H1384.94V333.749H1381.8H1374.34H1371.2V320.039H1362.61V304.989H1354.76V294.289H1337.03V304.989H1329.18V320.039H1320.59V333.749H1317.45H1309.99H1306.85V320.039H1298.25V304.989H1290.4V294.289H1272.68V304.989H1264.83V320.039H1256.23V333.749H1253.1H1245.63H1242.5V320.039H1233.9V304.989H1226.05V294.289H1208.33V304.989H1200.47V320.039H1191.88V333.749H1188.74H1181.28H1178.14V320.039H1169.55V304.989H1161.7V294.289H1143.97V304.989H1136.12V320.039H1127.53V333.749H1124.39H1116.93H1113.79V320.039H1105.19V304.989H1097.34V294.289H1079.62V304.989H1071.77V320.039H1063.17V333.749H1061.96H1052.57H1051.36V320.039H1042.77V304.989H1034.92V294.289H1017.19V304.989H1009.34V320.039H1000.75V333.749H997.61H990.15H987.01V320.039H978.41V304.989H970.56V294.289H952.84V304.989H944.99V320.039H936.39V333.749H933.25H925.79H922.66V320.039H914.06V304.989H906.21V294.289H888.49V304.989H880.63V320.039H872.04V333.749H868.9H861.44H858.3V320.039H849.71V304.989H841.86V294.289H824.13V304.989H816.28V320.039H807.69V333.749H804.55H797.09H793.95V320.039H785.36V304.989H777.5V294.289H759.78V304.989H751.93V320.039H743.33V333.749H740.2H732.73H729.6V320.039H721V304.989H713.15V294.289H695.43V304.989H687.58V320.039H678.98V333.749H677.77H668.38H667.17V320.039H658.58V304.989H650.72V294.289H633V304.989H625.15V320.039H616.55V333.749H613.41H605.95H602.82V320.039H594.22V304.989H586.37V294.289H568.65V304.989H560.79V320.039H552.2V333.749H549.06H541.6H538.46V320.039H529.87V304.989H522.02V294.289H504.29V304.989H496.44V320.039H487.85V333.749H484.71H477.25H474.11V320.039H465.51V304.989H457.66V294.289H439.94V304.989H432.09V320.039H423.49V333.749H420.36H412.89H409.76V320.039H401.16V304.989H393.31V294.289H375.59V304.989H367.74V320.039H359.14V333.749H356H348.54H345.4V320.039H336.81V304.989H328.96V294.289H311.23V304.989H303.38V320.039H294.79V333.749H293.57H284.19H282.98V320.039H274.38V304.989H266.53V294.289H248.81V304.989H240.95V320.039H232.36V333.749H229.22H221.76H218.62V320.039H210.03V304.989H202.18V294.289H184.45V304.989H176.6V320.039H168.01V333.749H164.87H157.41H154.27V320.039H145.68V304.989H137.82V294.289H120.1V304.989H112.25V320.039H103.65V333.749H100.52H93.05H89.92V320.039H81.32V304.989H73.47V294.289H55.75V304.989H47.9V320.039H39.3V333.749H36.16H28.7H25.57V320.039H16.97V304.989H9.12V294.289H-8.61V304.989H-16.46V320.039H-25.05V333.749H-28.19H-35.65H-38.79V320.039H-47.38V304.989H-55.24V294.289H-72.96V304.989H-80.81V320.039H-89.41V333.749H-100V353.289H1446.15V333.749H1435.56Z" fill="#4420D8"/>
<path opacity="0.3" d="M1467.81 372.808V386.518H1459.22V401.558H1451.37V412.268H1433.64V401.558H1425.79V386.518H1417.19V372.808H1414.06H1406.6H1403.46V386.518H1394.86V401.558H1387.01V412.268H1369.29V401.558H1361.44V386.518H1352.84V372.808H1349.7H1342.24H1339.11V386.518H1330.51V401.558H1322.66V412.268H1304.93V401.558H1297.08V386.518H1288.49V372.808H1285.35H1277.89H1274.75V386.518H1266.16V401.558H1258.31V412.268H1240.58V401.558H1232.73V386.518H1224.13V372.808H1221H1213.54H1210.4V386.518H1201.8V401.558H1193.95V412.268H1176.23V401.558H1168.38V386.518H1159.78V372.808H1156.64H1149.18H1146.05V386.518H1137.45V401.558H1129.6V412.268H1111.87V401.558H1104.02V386.518H1095.43V372.808H1094.22H1084.83H1083.62V386.518H1075.02V401.558H1067.17V412.268H1049.45V401.558H1041.6V386.518H1033V372.808H1029.86H1022.4H1019.27V386.518H1010.67V401.558H1002.82V412.268H985.1V401.558H977.24V386.518H968.65V372.808H965.51H958.05H954.91V386.518H946.32V401.558H938.47V412.268H920.74V401.558H912.89V386.518H904.29V372.808H901.16H893.7H890.56V386.518H881.96V401.558H874.11V412.268H856.39V401.558H848.54V386.518H839.94V372.808H836.81H829.34H826.21V386.518H817.61V401.558H809.76V412.268H792.03V401.558H784.18V386.518H775.59V372.808H772.45H764.99H761.85V386.518H753.26V401.558H745.41V412.268H727.68V401.558H719.83V386.518H711.24V372.808H710.02H700.64H699.43V386.518H690.83V401.558H682.98V412.268H665.25V401.558H657.4V386.518H648.81V372.808H645.67H638.21H635.07V386.518H626.48V401.558H618.63V412.268H600.9V401.558H593.05V386.518H584.46V372.808H581.32H573.86H570.72V386.518H562.12V401.558H554.27V412.268H536.55V401.558H528.7V386.518H520.1V372.808H516.97H509.5H506.37V386.518H497.77V401.558H489.92V412.268H472.2V401.558H464.34V386.518H455.75V372.808H452.61H445.15H442.01V386.518H433.42V401.558H425.57V412.268H407.84V401.558H399.99V386.518H391.39V372.808H388.26H380.8H377.66V386.518H369.06V401.558H361.21V412.268H343.49V401.558H335.64V386.518H327.04V372.808H325.83H316.44H315.23V386.518H306.64V401.558H298.79V412.268H281.06V401.558H273.21V386.518H264.62V372.808H261.48H254.02H250.88V386.518H242.28V401.558H234.43V412.268H216.71V401.558H208.86V386.518H200.26V372.808H197.12H189.66H186.53V386.518H177.93V401.558H170.08V412.268H152.36V401.558H144.5V386.518H135.91V372.808H132.77H125.31H122.17V386.518H113.58V401.558H105.73V412.268H88V401.558H80.15V386.518H71.55V372.808H68.42H60.96H57.82V386.518H49.22V401.558H41.37V412.268H23.65V401.558H15.8V386.518H7.2V372.808H4.07H-3.4H-6.53V386.518H-15.13V401.558H-22.98V412.268H-40.7V401.558H-48.56V386.518H-57.15V372.808H-67.75V353.258H1478.41V372.808H1467.81Z" fill="#4420D8"/>
</g>
<path d="M1467.81 19.54V33.25H1459.22V48.3H1451.37V59H1433.64V48.3H1425.79V33.25H1417.19V19.54H1414.06H1406.6H1403.46V33.25H1394.86V48.3H1387.01V59H1369.29V48.3H1361.44V33.25H1352.84V19.54H1349.7H1342.24H1339.11V33.25H1330.51V48.3H1322.66V59H1304.93V48.3H1297.08V33.25H1288.49V19.54H1285.35H1277.89H1274.75V33.25H1266.16V48.3H1258.31V59H1240.58V48.3H1232.73V33.25H1224.13V19.54H1221H1213.54H1210.4V33.25H1201.8V48.3H1193.95V59H1176.23V48.3H1168.38V33.25H1159.78V19.54H1156.64H1149.18H1146.05V33.25H1137.45V48.3H1129.6V59H1111.87V48.3H1104.02V33.25H1095.43V19.54H1094.22H1084.83H1083.62V33.25H1075.02V48.3H1067.17V59H1049.45V48.3H1041.6V33.25H1033V19.54H1029.86H1022.4H1019.27V33.25H1010.67V48.3H1002.82V59H985.1V48.3H977.24V33.25H968.65V19.54H965.51H958.05H954.91V33.25H946.32V48.3H938.47V59H920.74V48.3H912.89V33.25H904.29V19.54H901.16H893.7H890.56V33.25H881.96V48.3H874.11V59H856.39V48.3H848.54V33.25H839.94V19.54H836.81H829.34H826.21V33.25H817.61V48.3H809.76V59H792.03V48.3H784.18V33.25H775.59V19.54H772.45H764.99H761.85V33.25H753.26V48.3H745.41V59H727.68V48.3H719.83V33.25H711.24V19.54H710.02H700.64H699.43V33.25H690.83V48.3H682.98V59H665.25V48.3H657.4V33.25H648.81V19.54H645.67H638.21H635.07V33.25H626.48V48.3H618.63V59H600.9V48.3H593.05V33.25H584.46V19.54H581.32H573.86H570.72V33.25H562.12V48.3H554.27V59H536.55V48.3H528.7V33.25H520.1V19.54H516.97H509.5H506.37V33.25H497.77V48.3H489.92V59H472.2V48.3H464.34V33.25H455.75V19.54H452.61H445.15H442.01V33.25H433.42V48.3H425.57V59H407.84V48.3H399.99V33.25H391.39V19.54H388.26H380.8H377.66V33.25H369.06V48.3H361.21V59H343.49V48.3H335.64V33.25H327.04V19.54H325.83H316.44H315.23V33.25H306.64V48.3H298.79V59H281.06V48.3H273.21V33.25H264.62V19.54H261.48H254.02H250.88V33.25H242.28V48.3H234.43V59H216.71V48.3H208.86V33.25H200.26V19.54H197.12H189.66H186.53V33.25H177.93V48.3H170.08V59H152.36V48.3H144.5V33.25H135.91V19.54H132.77H125.31H122.17V33.25H113.58V48.3H105.73V59H88V48.3H80.15V33.25H71.55V19.54H68.42H60.96H57.82V33.25H49.22V48.3H41.37V59H23.65V48.3H15.8V33.25H7.2V19.54H4.07H-3.4H-6.53V33.25H-15.13V48.3H-22.98V59H-40.7V48.3H-48.56V33.25H-57.15V19.54H-67.75V0H1478.41V19.54H1467.81Z" fill="#0F0A45"/>
<path d="M96.7984 25.1197C96.6207 25.1319 96.4423 25.1078 96.2741 25.0487C96.106 24.9897 95.9517 24.8969 95.8206 24.7762C95.6896 24.6554 95.5846 24.5092 95.512 24.3465C95.4394 24.1837 95.4007 24.0079 95.3984 23.8297C95.7394 22.2446 96.2075 20.6895 96.7984 19.1797C97.4487 20.6752 97.9316 22.238 98.2384 23.8397C98.2399 24.0221 98.2023 24.2028 98.1282 24.3695C98.0541 24.5362 97.9452 24.6852 97.8089 24.8064C97.6725 24.9276 97.5118 25.0183 97.3375 25.0723C97.1633 25.1263 96.9795 25.1425 96.7984 25.1197Z" fill="#0F0A45"/>
<path d="M96.7989 7.61975C96.9816 7.60153 97.166 7.6219 97.3402 7.67953C97.5145 7.73715 97.6747 7.83075 97.8105 7.95426C97.9462 8.07777 98.0545 8.22844 98.1284 8.39648C98.2022 8.56453 98.2398 8.74621 98.2389 8.92975C97.9008 10.5112 97.436 12.0629 96.8489 13.5697C96.1943 12.0819 95.7079 10.5256 95.3989 8.92975C95.3939 8.74856 95.4274 8.56836 95.4972 8.40109C95.567 8.23381 95.6715 8.08327 95.8039 7.95942C95.9362 7.83558 96.0934 7.74126 96.2649 7.6827C96.4365 7.62414 96.6185 7.60269 96.7989 7.61975Z" fill="#0F0A45"/>
<path d="M88.0494 16.3697C88.0314 16.1887 88.0512 16.006 88.1076 15.8331C88.1641 15.6602 88.2559 15.501 88.3772 15.3655C88.4986 15.2301 88.6468 15.1214 88.8125 15.0463C88.9781 14.9713 89.1576 14.9316 89.3395 14.9297C90.9213 15.2705 92.4731 15.7386 93.9795 16.3297C92.4824 16.9643 90.9195 17.4305 89.3194 17.7197C89.1461 17.7186 88.9749 17.6823 88.816 17.6131C88.6571 17.5438 88.514 17.443 88.3952 17.3168C88.2765 17.1905 88.1846 17.0415 88.1252 16.8787C88.0657 16.7159 88.04 16.5427 88.0494 16.3697Z" fill="#0F0A45"/>
<path d="M105.549 16.37C105.56 16.5478 105.535 16.726 105.474 16.8936C105.414 17.0612 105.32 17.2147 105.199 17.3448C105.077 17.475 104.93 17.5789 104.767 17.6503C104.604 17.7216 104.428 17.759 104.249 17.76C102.668 17.4205 101.117 16.9557 99.6094 16.37C101.094 15.7195 102.647 15.2365 104.239 14.93C104.424 14.9259 104.607 14.9614 104.777 15.0341C104.946 15.1069 105.098 15.2151 105.222 15.3516C105.347 15.4881 105.44 15.6496 105.496 15.8253C105.553 16.001 105.571 16.1867 105.549 16.37Z" fill="#0F0A45"/>
<path d="M90.609 22.5594C90.4742 22.4426 90.3649 22.2994 90.2878 22.1386C90.2108 21.9778 90.1676 21.8028 90.161 21.6246C90.1545 21.4464 90.1846 21.2687 90.2497 21.1027C90.3147 20.9366 90.4132 20.7857 90.539 20.6594C91.8971 19.7773 93.3252 19.008 94.809 18.3594C94.1996 19.867 93.4249 21.3025 92.499 22.6394C92.3729 22.7644 92.2223 22.8619 92.0567 22.926C91.8911 22.9901 91.714 23.0193 91.5366 23.0118C91.3592 23.0043 91.1852 22.9602 91.0256 22.8824C90.866 22.8045 90.7242 22.6946 90.609 22.5594Z" fill="#0F0A45"/>
<path d="M102.979 10.1795C103.113 10.2963 103.222 10.4393 103.299 10.5997C103.376 10.7601 103.42 10.9345 103.428 11.1123C103.435 11.2901 103.406 11.4675 103.343 11.6338C103.28 11.8001 103.183 11.9517 103.059 12.0795C101.7 12.9595 100.272 13.7287 98.7891 14.3795C99.3985 12.8718 100.173 11.4364 101.099 10.0995C101.224 9.97475 101.374 9.87732 101.539 9.81334C101.704 9.74936 101.88 9.7202 102.057 9.72772C102.233 9.73524 102.406 9.77926 102.565 9.85701C102.724 9.93476 102.865 10.0446 102.979 10.1795Z" fill="#0F0A45"/>
<path d="M90.6083 10.1787C90.7259 10.0451 90.8694 9.93697 91.0302 9.86074C91.1909 9.78451 91.3655 9.74181 91.5433 9.73526C91.7211 9.72871 91.8983 9.75844 92.0642 9.82264C92.2302 9.88684 92.3813 9.98416 92.5083 10.1087C93.3884 11.4679 94.1575 12.8959 94.8083 14.3787C93.2982 13.7679 91.8595 12.9933 90.5183 12.0687C90.3926 11.9426 90.2945 11.7917 90.2304 11.6255C90.1662 11.4594 90.1375 11.2817 90.146 11.1038C90.1545 10.9259 90.1999 10.7518 90.2796 10.5925C90.3592 10.4332 90.4711 10.2922 90.6083 10.1787Z" fill="#0F0A45"/>
<path d="M102.979 22.5594C102.861 22.6916 102.717 22.7987 102.556 22.8741C102.396 22.9495 102.221 22.9918 102.044 22.9983C101.867 23.0048 101.69 22.9755 101.524 22.9121C101.358 22.8488 101.207 22.7526 101.079 22.6294C100.205 21.268 99.4398 19.8403 98.7891 18.3594C100.297 18.9688 101.732 19.7436 103.069 20.6694C103.195 20.7955 103.293 20.9464 103.357 21.1125C103.421 21.2787 103.45 21.4564 103.441 21.6342C103.433 21.8121 103.387 21.9863 103.308 22.1456C103.228 22.3049 103.116 22.4458 102.979 22.5594Z" fill="#0F0A45"/>
<path d="M95.6602 16.3705C95.6602 16.5959 95.727 16.8163 95.8523 17.0038C95.9775 17.1913 96.1556 17.3374 96.3639 17.4237C96.5722 17.51 96.8014 17.5326 97.0226 17.4886C97.2437 17.4446 97.4468 17.336 97.6063 17.1766C97.7657 17.0171 97.8743 16.814 97.9183 16.5929C97.9622 16.3717 97.9397 16.1425 97.8534 15.9342C97.7671 15.7259 97.621 15.5479 97.4335 15.4226C97.246 15.2973 97.0256 15.2305 96.8002 15.2305C96.4978 15.2305 96.2078 15.3506 95.994 15.5644C95.7803 15.7782 95.6602 16.0681 95.6602 16.3705Z" fill="#0F0A45"/>
<path d="M32.4408 25.1236C32.2638 25.1344 32.0865 25.1092 31.9195 25.0495C31.7526 24.9898 31.5995 24.8969 31.4695 24.7763C31.3396 24.6556 31.2355 24.5099 31.1635 24.3479C31.0915 24.1858 31.0532 24.0109 31.0508 23.8336C31.3891 22.2489 31.8539 20.694 32.4408 19.1836C33.0783 20.6804 33.5479 22.2433 33.8408 23.8436C33.84 24.0218 33.8024 24.198 33.7302 24.3609C33.658 24.5239 33.5528 24.6701 33.4212 24.7903C33.2897 24.9106 33.1347 25.0023 32.9659 25.0597C32.7972 25.117 32.6184 25.1388 32.4408 25.1236Z" fill="#0F0A45"/>
<path d="M32.4413 7.62196C32.6207 7.60961 32.8008 7.63434 32.9703 7.69461C33.1397 7.75489 33.295 7.84942 33.4263 7.97232C33.5577 8.09522 33.6623 8.24385 33.7337 8.40895C33.8051 8.57406 33.8417 8.75209 33.8413 8.93196C33.5005 10.5139 33.0323 12.0656 32.4413 13.572C31.8081 12.0813 31.3419 10.5252 31.0513 8.93196C31.0464 8.7517 31.0796 8.57243 31.1488 8.40591C31.218 8.23938 31.3217 8.08936 31.4529 7.96568C31.5841 7.842 31.74 7.74744 31.9103 7.68821C32.0807 7.62897 32.2616 7.6064 32.4413 7.62196Z" fill="#0F0A45"/>
<path d="M23.6922 16.3727C23.6799 16.194 23.7044 16.0148 23.7641 15.846C23.8237 15.6772 23.9174 15.5224 24.0392 15.3912C24.161 15.2601 24.3084 15.1552 24.4723 15.0832C24.6363 15.0112 24.8132 14.9736 24.9922 14.9727C26.5738 15.3148 28.1254 15.783 29.6322 16.3727C28.1352 17.0072 26.5723 17.4734 24.9722 17.7627C24.7945 17.7633 24.6185 17.7269 24.4556 17.6558C24.2927 17.5848 24.1463 17.4805 24.0259 17.3497C23.9055 17.219 23.8136 17.0646 23.7562 16.8963C23.6987 16.7281 23.677 16.5498 23.6922 16.3727Z" fill="#0F0A45"/>
<path d="M41.2422 16.3707C41.2545 16.548 41.2303 16.7259 41.1712 16.8935C41.112 17.0611 41.0191 17.2147 40.8982 17.345C40.7773 17.4753 40.631 17.5794 40.4683 17.6509C40.3055 17.7224 40.1299 17.7597 39.9522 17.7607C38.347 17.4262 36.7718 16.9613 35.2422 16.3707C36.7432 15.7166 38.3131 15.2336 39.9222 14.9307C40.108 14.9234 40.2931 14.9567 40.4647 15.0282C40.6363 15.0997 40.7903 15.2077 40.9159 15.3448C41.0415 15.4818 41.1358 15.6446 41.1921 15.8217C41.2485 15.9989 41.2656 16.1862 41.2422 16.3707Z" fill="#0F0A45"/>
<path d="M26.2427 22.5633C26.1085 22.4464 25.9995 22.3034 25.9224 22.1431C25.8452 21.9827 25.8016 21.8083 25.7941 21.6305C25.7866 21.4527 25.8155 21.2752 25.8788 21.1089C25.9422 20.9427 26.0388 20.791 26.1627 20.6633C27.5219 19.7832 28.9499 19.0141 30.4327 18.3633C29.8232 19.8709 29.0485 21.3064 28.1227 22.6433C27.9974 22.768 27.8476 22.8654 27.6828 22.9294C27.518 22.9934 27.3418 23.0226 27.1651 23.015C26.9885 23.0075 26.8154 22.9635 26.6566 22.8857C26.4978 22.808 26.3569 22.6982 26.2427 22.5633Z" fill="#0F0A45"/>
<path d="M38.6336 10.1802C38.7684 10.2969 38.8777 10.4401 38.9548 10.601C39.0319 10.7618 39.075 10.9367 39.0816 11.1149C39.0882 11.2931 39.058 11.4708 38.993 11.6368C38.9279 11.8029 38.8294 11.9538 38.7036 12.0801C37.3455 12.9623 35.9174 13.7315 34.4336 14.3801C35.043 12.8725 35.8178 11.4371 36.7436 10.1002C36.8697 9.97517 37.0203 9.87758 37.186 9.81349C37.3516 9.74941 37.5286 9.72021 37.706 9.72772C37.8835 9.73523 38.0574 9.77929 38.217 9.85714C38.3766 9.93499 38.5185 10.045 38.6336 10.1802Z" fill="#0F0A45"/>
<path d="M26.2411 10.1826C26.3587 10.0491 26.5022 9.94088 26.663 9.86465C26.8237 9.78841 26.9983 9.74572 27.1761 9.73917C27.3539 9.73262 27.5311 9.76235 27.6971 9.82655C27.863 9.89075 28.0141 9.98807 28.1411 10.1126C29.0147 11.474 29.7804 12.9017 30.4311 14.3826C28.9235 13.7731 27.4881 12.9984 26.1511 12.0726C26.0254 11.9465 25.9273 11.7956 25.8632 11.6294C25.7991 11.4633 25.7703 11.2856 25.7788 11.1077C25.7873 10.9298 25.8328 10.7557 25.9124 10.5964C25.992 10.4371 26.104 10.2961 26.2411 10.1826Z" fill="#0F0A45"/>
<path d="M38.6336 22.5633C38.5152 22.6956 38.3714 22.8026 38.2108 22.878C38.0501 22.9534 37.8758 22.9957 37.6985 23.0022C37.5211 23.0087 37.3442 22.9794 37.1784 22.9161C37.0127 22.8527 36.8614 22.7565 36.7336 22.6333C35.8535 21.274 35.0844 19.8461 34.4336 18.3633C35.9438 18.9741 37.3824 19.7487 38.7236 20.6733C38.8494 20.7994 38.9474 20.9503 39.0116 21.1164C39.0757 21.2826 39.1044 21.4603 39.0959 21.6382C39.0875 21.816 39.042 21.9902 38.9624 22.1495C38.8828 22.3088 38.7708 22.4497 38.6336 22.5633Z" fill="#0F0A45"/>
<path d="M31.3125 16.3705C31.3125 16.5964 31.3796 16.8172 31.5053 17.0049C31.6311 17.1926 31.8097 17.3387 32.0186 17.4247C32.2275 17.5106 32.4572 17.5326 32.6786 17.4878C32.9 17.443 33.1031 17.3334 33.2621 17.173C33.4212 17.0126 33.5289 16.8085 33.5718 16.5867C33.6147 16.3649 33.5906 16.1354 33.5028 15.9273C33.415 15.7192 33.2673 15.5418 33.0786 15.4178C32.8898 15.2937 32.6684 15.2285 32.4425 15.2305C32.1419 15.2331 31.8545 15.3544 31.6429 15.5679C31.4312 15.7814 31.3125 16.0699 31.3125 16.3705Z" fill="#0F0A45"/>
<path d="M-47.33 12.4922V26.2022H-38.73V41.2622H-32.94H-30.88H-25.08V26.2022H-16.49V12.4922H-3.39H4.07H17.02V26.2022H25.62V41.2622H31.42H33.47H39.27V26.2022H47.86V12.4922H60.96H68.42H81.37V26.2022H89.97V41.2622H95.77H97.82H103.62V26.2022H112.22V12.4922H125.31H132.77H145.73V26.2022H154.32V41.2622H160.12H162.18H167.98V26.2022H176.57V12.4922H189.66H197.12H210.08V26.2022H218.68V41.2622H224.48H226.53H232.33V26.2022H240.92V12.4922H254.02H261.48H274.43V26.2022H283.03V41.2622H288.83H290.88H296.68V26.2022H305.28V12.4922H325.83V14.5522H307.33V28.2622H298.73V43.3122H290.88V52.9822H288.83V43.3122H280.98V28.2622H272.38V14.5522H261.48H254.02H242.98V28.2622H234.38V43.3122H226.53V52.9822H224.48V43.3122H216.62V28.2622H208.03V14.5522H197.12H189.66H178.62V28.2622H170.03V43.3122H162.18V52.9822H160.12V43.3122H152.27V28.2622H143.68V14.5522H132.77H125.31H114.27V28.2622H105.68V43.3122H97.82V52.9822H95.77V43.3122H87.92V28.2622H79.32V14.5522H68.42H60.96H49.92V28.2622H41.32V43.3122H33.47V52.9822H31.42V43.3122H23.57V28.2622H14.97V14.5522H4.07H-3.39H-14.44V28.2622H-23.03V43.3122H-30.88V52.9822H-32.94V43.3122H-40.79V28.2622H-49.38V14.5522H-67.75V12.4922H-47.33Z" fill="#0F0A45"/>
<g opacity="0.3">
<path opacity="0.6" d="M1435.56 98.0225V84.3125H1426.96V69.2625H1419.11V58.5625H1401.38V69.2625H1393.53V84.3125H1384.94V98.0225H1381.8H1374.34H1371.2V84.3125H1362.61V69.2625H1354.76V58.5625H1337.03V69.2625H1329.18V84.3125H1320.59V98.0225H1317.45H1309.99H1306.85V84.3125H1298.25V69.2625H1290.4V58.5625H1272.68V69.2625H1264.83V84.3125H1256.23V98.0225H1253.1H1245.63H1242.5V84.3125H1233.9V69.2625H1226.05V58.5625H1208.33V69.2625H1200.47V84.3125H1191.88V98.0225H1188.74H1181.28H1178.14V84.3125H1169.55V69.2625H1161.7V58.5625H1143.97V69.2625H1136.12V84.3125H1127.53V98.0225H1124.39H1116.93H1113.79V84.3125H1105.19V69.2625H1097.34V58.5625H1079.62V69.2625H1071.77V84.3125H1063.17V98.0225H1061.96H1052.57H1051.36V84.3125H1042.77V69.2625H1034.92V58.5625H1017.19V69.2625H1009.34V84.3125H1000.75V98.0225H997.61H990.15H987.01V84.3125H978.41V69.2625H970.56V58.5625H952.84V69.2625H944.99V84.3125H936.39V98.0225H933.25H925.79H922.66V84.3125H914.06V69.2625H906.21V58.5625H888.49V69.2625H880.63V84.3125H872.04V98.0225H868.9H861.44H858.3V84.3125H849.71V69.2625H841.86V58.5625H824.13V69.2625H816.28V84.3125H807.69V98.0225H804.55H797.09H793.95V84.3125H785.36V69.2625H777.5V58.5625H759.78V69.2625H751.93V84.3125H743.33V98.0225H740.2H732.73H729.6V84.3125H721V69.2625H713.15V58.5625H695.43V69.2625H687.58V84.3125H678.98V98.0225H677.77H668.38H667.17V84.3125H658.58V69.2625H650.72V58.5625H633V69.2625H625.15V84.3125H616.55V98.0225H613.41H605.95H602.82V84.3125H594.22V69.2625H586.37V58.5625H568.65V69.2625H560.79V84.3125H552.2V98.0225H549.06H541.6H538.46V84.3125H529.87V69.2625H522.02V58.5625H504.29V69.2625H496.44V84.3125H487.85V98.0225H484.71H477.25H474.11V84.3125H465.51V69.2625H457.66V58.5625H439.94V69.2625H432.09V84.3125H423.49V98.0225H420.36H412.89H409.76V84.3125H401.16V69.2625H393.31V58.5625H375.59V69.2625H367.74V84.3125H359.14V98.0225H356H348.54H345.4V84.3125H336.81V69.2625H328.96V58.5625H311.23V69.2625H303.38V84.3125H294.79V98.0225H293.57H284.19H282.98V84.3125H274.38V69.2625H266.53V58.5625H248.81V69.2625H240.95V84.3125H232.36V98.0225H229.22H221.76H218.62V84.3125H210.03V69.2625H202.18V58.5625H184.45V69.2625H176.6V84.3125H168.01V98.0225H164.87H157.41H154.27V84.3125H145.68V69.2625H137.82V58.5625H120.1V69.2625H112.25V84.3125H103.65V98.0225H100.52H93.05H89.92V84.3125H81.32V69.2625H73.47V58.5625H55.75V69.2625H47.9V84.3125H39.3V98.0225H36.16H28.7H25.57V84.3125H16.97V69.2625H9.12V58.5625H-8.61V69.2625H-16.46V84.3125H-25.05V98.0225H-28.19H-35.65H-38.79V84.3125H-47.38V69.2625H-55.24V58.5625H-72.96V69.2625H-80.81V84.3125H-89.41V98.0225H-100V117.562H1446.15V98.0225H1435.56Z" fill="#4420D8"/>
<path opacity="0.6" d="M1467.81 137.071V150.781H1459.22V165.831H1451.37V176.531H1433.64V165.831H1425.79V150.781H1417.19V137.071H1414.06H1406.6H1403.46V150.781H1394.86V165.831H1387.01V176.531H1369.29V165.831H1361.44V150.781H1352.84V137.071H1349.7H1342.24H1339.11V150.781H1330.51V165.831H1322.66V176.531H1304.93V165.831H1297.08V150.781H1288.49V137.071H1285.35H1277.89H1274.75V150.781H1266.16V165.831H1258.31V176.531H1240.58V165.831H1232.73V150.781H1224.13V137.071H1221H1213.54H1210.4V150.781H1201.8V165.831H1193.95V176.531H1176.23V165.831H1168.38V150.781H1159.78V137.071H1156.64H1149.18H1146.05V150.781H1137.45V165.831H1129.6V176.531H1111.87V165.831H1104.02V150.781H1095.43V137.071H1094.22H1084.83H1083.62V150.781H1075.02V165.831H1067.17V176.531H1049.45V165.831H1041.6V150.781H1033V137.071H1029.86H1022.4H1019.27V150.781H1010.67V165.831H1002.82V176.531H985.1V165.831H977.24V150.781H968.65V137.071H965.51H958.05H954.91V150.781H946.32V165.831H938.47V176.531H920.74V165.831H912.89V150.781H904.29V137.071H901.16H893.7H890.56V150.781H881.96V165.831H874.11V176.531H856.39V165.831H848.54V150.781H839.94V137.071H836.81H829.34H826.21V150.781H817.61V165.831H809.76V176.531H792.03V165.831H784.18V150.781H775.59V137.071H772.45H764.99H761.85V150.781H753.26V165.831H745.41V176.531H727.68V165.831H719.83V150.781H711.24V137.071H710.02H700.64H699.43V150.781H690.83V165.831H682.98V176.531H665.25V165.831H657.4V150.781H648.81V137.071H645.67H638.21H635.07V150.781H626.48V165.831H618.63V176.531H600.9V165.831H593.05V150.781H584.46V137.071H581.32H573.86H570.72V150.781H562.12V165.831H554.27V176.531H536.55V165.831H528.7V150.781H520.1V137.071H516.97H509.5H506.37V150.781H497.77V165.831H489.92V176.531H472.2V165.831H464.34V150.781H455.75V137.071H452.61H445.15H442.01V150.781H433.42V165.831H425.57V176.531H407.84V165.831H399.99V150.781H391.39V137.071H388.26H380.8H377.66V150.781H369.06V165.831H361.21V176.531H343.49V165.831H335.64V150.781H327.04V137.071H325.83H316.44H315.23V150.781H306.64V165.831H298.79V176.531H281.06V165.831H273.21V150.781H264.62V137.071H261.48H254.02H250.88V150.781H242.28V165.831H234.43V176.531H216.71V165.831H208.86V150.781H200.26V137.071H197.12H189.66H186.53V150.781H177.93V165.831H170.08V176.531H152.36V165.831H144.5V150.781H135.91V137.071H132.77H125.31H122.17V150.781H113.58V165.831H105.73V176.531H88V165.831H80.15V150.781H71.55V137.071H68.42H60.96H57.82V150.781H49.22V165.831H41.37V176.531H23.65V165.831H15.8V150.781H7.2V137.071H4.07H-3.4H-6.53V150.781H-15.13V165.831H-22.98V176.531H-40.7V165.831H-48.56V150.781H-57.15V137.071H-67.75V117.531H1478.41V137.071H1467.81Z" fill="#4420D8"/>
</g>
</g>
</svg>
