<svg width="142" height="116" viewBox="0 0 142 116" fill="none" xmlns="http://www.w3.org/2000/svg">
<g clip-path="url(#clip0_8142_103847)">
<path d="M96.0294 17.6914H92.7468C91.461 17.6914 90.4201 18.7145 90.4201 19.9782V21.8338H86.6851V19.9782C86.6851 18.7145 85.6442 17.6914 84.3584 17.6914H81.0758C79.79 17.6914 78.7491 18.7145 78.7491 19.9782V21.8338H75.0175V19.9782C75.0175 18.7145 73.9766 17.6914 72.6908 17.6914H69.4082C68.1224 17.6914 67.0815 18.7145 67.0815 19.9782V21.8338H63.3499V19.9782C63.3499 18.7145 62.309 17.6914 61.0232 17.6914H57.7406C56.4548 17.6914 55.4139 18.7145 55.4139 19.9782V21.8338H51.6789V19.9782C51.6789 18.7145 50.638 17.6914 49.3522 17.6914H46.0696C44.7838 17.6914 43.7429 18.7145 43.7429 19.9782V21.8338H43.6953V91.2174H57.7441V56.7546C57.7441 49.5264 63.7071 43.6656 71.0614 43.6656C78.4158 43.6656 84.3788 49.5264 84.3788 56.7546V91.2174H98.3561V24.7023V21.8338V19.9782C98.3561 18.7145 97.3152 17.6914 96.0294 17.6914Z" fill="#4420D8"/>
<path d="M57.7457 91.2211V56.755C57.7457 49.5267 63.7088 43.6659 71.0631 43.6659C78.4174 43.6659 84.3805 49.5267 84.3805 56.755V91.2211H88.1223V56.755C88.1223 47.5107 80.4686 39.9883 71.0631 39.9883C61.6576 39.9883 54.0039 47.5107 54.0039 56.755V91.2211H57.7457Z" fill="#FFBE44"/>
<path d="M57.7461 91.2193V56.7531C57.7461 49.5249 63.7092 43.6641 71.0635 43.6641C78.4178 43.6641 84.3809 49.5249 84.3809 56.7531V91.2193H57.7461Z" fill="#FFBE44"/>
<path opacity="0.25" d="M57.7461 91.2193V56.7531C57.7461 49.5249 63.7092 43.6641 71.0635 43.6641C78.4178 43.6641 84.3809 49.5249 84.3809 56.7531V91.2193H57.7461Z" fill="#2D1786"/>
<path d="M59.1914 91.2195V57.0074C59.1914 50.5615 64.5082 45.3359 71.0665 45.3359C77.6248 45.3359 82.9416 50.5615 82.9416 57.0074V91.2161H59.1914V91.2195Z" fill="#FF2475"/>
<path d="M98.3566 28.1719H43.6992V31.8027H98.3566V28.1719Z" fill="#FFBE44"/>
<g opacity="0.25">
<path opacity="0.25" d="M71.5752 45.3359H70.5547V91.2161H71.5752V45.3359Z" fill="#2D1786"/>
</g>
<path d="M73.9802 77.4285H68.0308C66.8504 77.4285 65.8945 76.4891 65.8945 75.3289V70.3808C65.8945 69.2207 66.8504 68.2812 68.0308 68.2812H73.9802C75.1606 68.2812 76.1164 69.2207 76.1164 70.3808V75.3289C76.1164 76.4891 75.1606 77.4285 73.9802 77.4285Z" fill="#FFBE44"/>
<path d="M74.2481 67.8887H73.2276C73.2276 66.6818 72.231 65.7022 71.003 65.7022C69.775 65.7022 68.7783 66.6818 68.7783 67.8887H67.7578C67.7578 66.1302 69.2137 64.6992 71.003 64.6992C72.7922 64.6992 74.2481 66.1302 74.2481 67.8887Z" fill="#FFBE44"/>
<path d="M72.1644 71.6223C72.1644 71.0372 71.6814 70.5625 71.0861 70.5625C70.4908 70.5625 70.0078 71.0372 70.0078 71.6223C70.0078 71.9533 70.1643 72.2475 70.4092 72.4414L70.1711 75.4571H72.0114L71.7494 72.4582C71.9978 72.2676 72.1644 71.9633 72.1644 71.6223Z" fill="#2D1786"/>
<path d="M32.4284 14.8242H29.1458C27.86 14.8242 26.8191 15.8473 26.8191 17.111V19.1237H23.0841V17.111C23.0841 15.8473 22.0432 14.8242 20.7574 14.8242H17.4748C16.189 14.8242 15.1481 15.8473 15.1481 17.111V19.1237H11.4165V17.111C11.4165 15.8473 10.3756 14.8242 9.08976 14.8242H5.80718C4.52137 14.8242 3.48047 15.8473 3.48047 17.111V19.1237V21.8385V96.8322H34.7517V21.8351V19.1204V17.111C34.7517 15.8473 33.7108 14.8242 32.4284 14.8242Z" fill="#4420D8"/>
<path d="M34.75 96.8302L43.6963 91.2234V21.8364L34.75 19.125V96.8302Z" fill="#2D1786"/>
<path d="M34.7517 26.3594H3.48047V29.9902H34.7517V26.3594Z" fill="#FFBE44"/>
<path d="M34.7517 93.1992H3.48047V96.83H34.7517V93.1992Z" fill="#FFBE44"/>
<path opacity="0.35" d="M34.75 26.3594L43.7439 28.1748V31.7421L34.75 29.9902V26.3594Z" fill="#7360FC"/>
<path opacity="0.5" d="M13.7134 43.6659H9.11777C8.56671 43.6659 8.12109 43.2279 8.12109 42.6863V40.9679C8.12109 40.4263 8.56671 39.9883 9.11777 39.9883H13.7134C14.2644 39.9883 14.7101 40.4263 14.7101 40.9679V42.6897C14.7101 43.2279 14.2644 43.6659 13.7134 43.6659Z" fill="#2D1786"/>
<path d="M27.0298 43.6659H22.4342C21.8831 43.6659 21.4375 43.2279 21.4375 42.6863V40.9679C21.4375 40.4263 21.8831 39.9883 22.4342 39.9883H27.0298C27.5808 39.9883 28.0265 40.4263 28.0265 40.9679V42.6897C28.0231 43.2279 27.5774 43.6659 27.0298 43.6659Z" fill="#00C7BA"/>
<path d="M21.8345 48.7669H17.2389C16.6878 48.7669 16.2422 48.3289 16.2422 47.7873V46.0655C16.2422 45.5239 16.6878 45.0859 17.2389 45.0859H21.8345C22.3855 45.0859 22.8311 45.5239 22.8311 46.0655V47.7873C22.8311 48.3289 22.3855 48.7669 21.8345 48.7669Z" fill="#00C7BA"/>
<path d="M15.3579 73.7318H10.7623C10.2112 73.7318 9.76562 73.2938 9.76562 72.7522V71.0304C9.76562 70.4888 10.2112 70.0508 10.7623 70.0508H15.3579C15.909 70.0508 16.3546 70.4888 16.3546 71.0304V72.7522C16.3546 73.2938 15.909 73.7318 15.3579 73.7318Z" fill="#2D1786"/>
<path opacity="0.5" d="M30.3228 64.0325H25.7271C25.1761 64.0325 24.7305 63.5946 24.7305 63.053V61.3312C24.7305 60.7895 25.1761 60.3516 25.7271 60.3516H30.3228C30.8738 60.3516 31.3194 60.7895 31.3194 61.3312V63.053C31.316 63.5946 30.8704 64.0325 30.3228 64.0325Z" fill="#2D1786"/>
<path d="M12.0649 69.1341H7.46933C6.91827 69.1341 6.47266 68.6961 6.47266 68.1545V66.4327C6.47266 65.8911 6.91827 65.4531 7.46933 65.4531H12.0649C12.616 65.4531 13.0616 65.8911 13.0616 66.4327V68.1545C13.0616 68.6961 12.616 69.1341 12.0649 69.1341Z" fill="#00C7BA"/>
<path d="M136.295 14.8242H133.012C131.727 14.8242 130.686 15.8473 130.686 17.111V19.1237H126.951V17.111C126.951 15.8473 125.91 14.8242 124.624 14.8242H121.341C120.056 14.8242 119.015 15.8473 119.015 17.111V19.1237H115.28V17.111C115.28 15.8473 114.239 14.8242 112.953 14.8242H109.67C108.385 14.8242 107.344 15.8473 107.344 17.111V19.1237V21.8385V96.8322H138.615V21.8351V19.1204V17.111C138.622 15.8473 137.581 14.8242 136.295 14.8242Z" fill="#4420D8"/>
<path d="M107.349 96.8302L98.4023 91.2234V21.8364L107.349 19.125V96.8302Z" fill="#2D1786"/>
<path d="M107.346 29.9883L138.617 29.9883L138.617 26.3574L107.346 26.3574L107.346 29.9883Z" fill="#FFBE44"/>
<path d="M107.346 96.8281L138.617 96.8281L138.617 93.1973L107.346 93.1973L107.346 96.8281Z" fill="#FFBE44"/>
<path opacity="0.35" d="M107.349 26.3594L98.3555 28.1748V31.7421L107.349 29.9902V26.3594Z" fill="#7360FC"/>
<path opacity="0.5" d="M118.022 43.6659H113.426C112.875 43.6659 112.43 43.2279 112.43 42.6863V40.9679C112.43 40.4263 112.875 39.9883 113.426 39.9883H118.022C118.573 39.9883 119.019 40.4263 119.019 40.9679V42.6897C119.019 43.2279 118.573 43.6659 118.022 43.6659Z" fill="#2D1786"/>
<path d="M133.936 79.9662H129.34C128.789 79.9662 128.344 79.5282 128.344 78.9866V77.2648C128.344 76.7231 128.789 76.2852 129.34 76.2852H133.936C134.487 76.2852 134.933 76.7231 134.933 77.2648V78.9866C134.933 79.5282 134.487 79.9662 133.936 79.9662Z" fill="#00C7BA"/>
<path d="M128.745 85.0716H124.149C123.598 85.0716 123.152 84.6336 123.152 84.092V82.3702C123.152 81.8286 123.598 81.3906 124.149 81.3906H128.745C129.296 81.3906 129.741 81.8286 129.741 82.3702V84.092C129.738 84.6336 129.292 85.0716 128.745 85.0716Z" fill="#00C7BA"/>
<path d="M126.932 63.8177H122.337C121.785 63.8177 121.34 63.3797 121.34 62.8381V61.1163C121.34 60.5747 121.785 60.1367 122.337 60.1367H126.932C127.483 60.1367 127.929 60.5747 127.929 61.1163V62.8381C127.929 63.3797 127.48 63.8177 126.932 63.8177Z" fill="#2D1786"/>
<path opacity="0.5" d="M123.639 68.4622H119.044C118.492 68.4622 118.047 68.0243 118.047 67.4826V65.7608C118.047 65.2192 118.492 64.7812 119.044 64.7812H123.639C124.19 64.7812 124.636 65.2192 124.636 65.7608V67.4826C124.632 68.0243 124.187 68.4622 123.639 68.4622Z" fill="#2D1786"/>
<path d="M123.639 59.2239H119.044C118.492 59.2239 118.047 58.786 118.047 58.2444V56.5226C118.047 55.9809 118.492 55.543 119.044 55.543H123.639C124.19 55.543 124.636 55.9809 124.636 56.5226V58.2444C124.632 58.786 124.187 59.2239 123.639 59.2239Z" fill="#00C7BA"/>
<path d="M56.0029 87.5898H43.6992V91.2207H56.0029V87.5898Z" fill="#FFBE44"/>
<path d="M98.3545 87.5898H86.0508V91.2207H98.3545V87.5898Z" fill="#FFBE44"/>
<path d="M42.1319 88.935L42.6727 96.9155L41.0842 97.544C40.6182 97.7279 40.346 98.206 40.3868 98.6975L40.4004 98.8646L45.6764 98.771V88.7578L42.1319 88.935Z" fill="#B59FFF"/>
<path d="M43.4953 98.4882L42.6177 96.9336L41.7469 97.278L42.2877 98.4882H40.3828V98.9329C40.3828 99.0833 40.5053 99.2037 40.6583 99.2037H45.6724V98.4849H43.4953V98.4882Z" fill="#FFBE44"/>
<path d="M50.7128 97.5446L49.1242 96.916L49.6651 88.9356L46.1172 88.7617V98.7749L51.3931 98.8685L51.4067 98.7014C51.4509 98.2066 51.1788 97.7285 50.7128 97.5446Z" fill="#B59FFF"/>
<path d="M49.5091 98.4921L50.05 97.2819L49.1792 96.9375L48.3015 98.4921H46.1211V99.2109H51.1351C51.2882 99.2109 51.4106 99.0906 51.4106 98.9401V98.4955H49.5091V98.4921Z" fill="#FFBE44"/>
<path d="M37.1181 85.7413C36.4649 85.4639 36.1588 84.7116 36.4411 84.0664L39.7237 76.6007C40.006 75.9588 40.7714 75.6579 41.4279 75.9354C42.081 76.2129 42.3872 76.9652 42.1049 77.6104L38.8223 85.076C38.5399 85.7213 37.7746 86.0188 37.1181 85.7413Z" fill="#B59FFF"/>
<path d="M52.8392 77.4324L52.1317 71.8825C51.9922 70.7993 51.2507 69.8464 50.1859 69.5389C50.1077 69.5155 50.0261 69.4954 49.941 69.4787C49.8662 69.462 49.2369 69.3984 48.9852 69.3984H42.9201C42.6581 69.3984 42.0016 69.462 41.9166 69.4787C41.8315 69.4954 41.7465 69.5155 41.6683 69.5389C40.607 69.8464 39.8654 70.7893 39.7225 71.8691L38.9844 77.4759L40.1749 77.7868L41.1478 89.7592H50.5703L51.6759 77.7333L52.8392 77.4324Z" fill="#FF2475"/>
<path d="M43.8382 78.668H40.2461L40.5114 81.9444H44.6274L43.8382 78.668Z" fill="#FFBE44"/>
<path d="M47.2047 63.2383C46.6401 63.2383 46.123 63.4322 45.7148 63.7531C45.3066 63.4322 44.7896 63.2383 44.2249 63.2383C42.9119 63.2383 41.8438 64.2847 41.8438 65.5786C41.8438 66.8725 42.9085 67.9189 44.2249 67.9189C44.7896 67.9189 45.3066 67.725 45.7148 67.404C46.123 67.725 46.6401 67.9189 47.2047 67.9189C48.5212 67.9189 49.5859 66.8725 49.5859 65.5786C49.5859 64.2847 48.5212 63.2383 47.2047 63.2383Z" fill="#2D1786"/>
<path d="M45.7179 68.79C44.2246 68.79 43 67.5898 43 66.1187V63.4341C43 61.9663 44.2212 61.4648 45.7179 61.4648C47.2112 61.4648 48.4358 61.9663 48.4358 63.4341V66.1187C48.4324 67.5864 47.2112 68.79 45.7179 68.79Z" fill="#B59FFF"/>
<path d="M48.0523 66.4149L47.4774 66.9966L46.9297 66.4283C46.8107 66.3046 46.644 66.2344 46.4705 66.2344H45.7562H45.7018H44.9942C44.8173 66.2344 44.6473 66.3079 44.5282 66.435L43.9431 67.0602L43.3886 66.5386H42.875L44.2323 72.0985C44.3581 72.4529 44.7255 72.6903 45.1405 72.6903H46.0419C46.4399 72.6903 46.7971 72.4696 46.9331 72.1386L48.6544 66.4149H48.0523ZM46.6746 67.8091C46.5454 67.9161 46.3481 67.8626 46.2902 67.7054L46.1338 67.2842H45.3446L45.1337 67.7422C45.0657 67.886 44.8786 67.9294 44.7561 67.8258L44.2323 67.3343L44.95 66.6556H45.7154H45.7426H46.5079L47.1951 67.2842L46.6746 67.8091Z" fill="#2D1786"/>
<path d="M49.231 85.377C52.4867 85.377 55.126 82.7829 55.126 79.583C55.126 76.3831 52.4867 73.7891 49.231 73.7891C45.9752 73.7891 43.3359 76.3831 43.3359 79.583C43.3359 82.7829 45.9752 85.377 49.231 85.377Z" fill="#FFBE44"/>
<path opacity="0.3" d="M44.625 83.1992C46.6592 85.7 50.367 86.1045 52.9114 84.1052C55.4558 82.1059 55.8674 78.4617 53.8332 75.9609L44.625 83.1992Z" fill="#17144F"/>
<path d="M46.6551 60.7927L46.1347 59.4688L45.3217 59.4888L44.8046 60.8228C43.3691 61.1672 42.25 62.247 42.25 63.7549V64.3433L43.1752 64.3533C43.1752 64.3533 43.3419 62.1735 45.8115 62.1735C48.2811 62.1735 48.2811 64.34 48.2811 64.34H49.2267V63.7348C49.2267 62.1768 48.128 61.0936 46.6551 60.7927Z" fill="#FFBE44"/>
<path d="M39.17 66.5506L37.6494 62.2109L36.1289 66.5506L37.1528 67.5535V99.2113H38.1495V67.5535L39.17 66.5506Z" fill="#FFBE44"/>
<path d="M36.2305 84.2795C36.2305 83.4169 36.2747 82.7148 37.1523 82.7148C38.0299 82.7148 38.7443 83.4136 38.7443 84.2795C38.7443 85.1421 38.0333 85.8442 37.1523 85.8442C36.2713 85.8442 36.2305 85.1421 36.2305 84.2795Z" fill="#B59FFF"/>
<path d="M95.7413 88.935L96.2821 96.9155L94.6935 97.544C94.2275 97.7279 93.9554 98.206 93.9962 98.6975L94.0098 98.8646L99.2857 98.771V88.7578L95.7413 88.935Z" fill="#B59FFF"/>
<path d="M97.1047 98.4882L96.2271 96.9336L95.3562 97.278L95.8971 98.4882H93.9922V98.9329C93.9922 99.0833 94.1146 99.2037 94.2677 99.2037H99.2817V98.4849H97.1047V98.4882Z" fill="#7360FC"/>
<path d="M104.326 97.5446L102.738 96.916L103.278 88.9356L99.7305 88.7617V98.7749L105.006 98.8685L105.02 98.7014C105.064 98.2066 104.792 97.7285 104.326 97.5446Z" fill="#B59FFF"/>
<path d="M103.122 98.4921L103.663 97.2819L102.792 96.9375L101.915 98.4921H99.7344V99.2109H104.748C104.901 99.2109 105.024 99.0906 105.024 98.9401V98.4955H103.122V98.4921Z" fill="#7360FC"/>
<path d="M90.7313 85.7413C90.0782 85.4639 89.7721 84.7116 90.0544 84.0664L93.337 76.6007C93.6193 75.9588 94.3847 75.6579 95.0412 75.9354C95.6943 76.2129 96.0005 76.9652 95.7182 77.6104L92.4356 85.076C92.1498 85.7213 91.3845 86.0188 90.7313 85.7413Z" fill="#B59FFF"/>
<path d="M106.449 77.4324L105.741 71.8825C105.602 70.7993 104.86 69.8464 103.795 69.5389C103.717 69.5155 103.635 69.4954 103.55 69.4787C103.476 69.462 102.846 69.3984 102.595 69.3984H96.5294C96.2675 69.3984 95.611 69.462 95.526 69.4787C95.4409 69.4954 95.3559 69.5155 95.2776 69.5389C94.2163 69.8464 93.4748 70.7893 93.3319 71.8691L92.5938 77.4759L93.7843 77.7868L94.7572 89.7592H104.18L105.285 77.7333L106.449 77.4324Z" fill="#FF2475"/>
<path d="M97.4515 78.668H93.8594L94.1247 81.9444H98.2373L97.4515 78.668Z" fill="#FFBE44"/>
<path d="M100.818 63.2383C100.253 63.2383 99.7363 63.4322 99.3281 63.7531C98.9199 63.4322 98.4028 63.2383 97.8382 63.2383C96.5251 63.2383 95.457 64.2847 95.457 65.5786C95.457 66.8725 96.5217 67.9189 97.8382 67.9189C98.4028 67.9189 98.9199 67.725 99.3281 67.404C99.7363 67.725 100.253 67.9189 100.818 67.9189C102.134 67.9189 103.199 66.8725 103.199 65.5786C103.199 64.2847 102.131 63.2383 100.818 63.2383Z" fill="#2D1786"/>
<path d="M99.3273 68.79C97.834 68.79 96.6094 67.5898 96.6094 66.1187V63.4341C96.6094 61.9663 97.8306 61.4648 99.3273 61.4648C100.821 61.4648 102.045 61.9663 102.045 63.4341V66.1187C102.045 67.5864 100.821 68.79 99.3273 68.79Z" fill="#B59FFF"/>
<path d="M101.666 66.4149L101.091 66.9966L100.543 66.4283C100.424 66.3046 100.257 66.2344 100.084 66.2344H99.3695H99.315H98.6075C98.4306 66.2344 98.2605 66.3079 98.1415 66.435L97.5564 67.0602L97.0019 66.5386H96.4883L97.8455 72.0985C97.9714 72.4529 98.3388 72.6903 98.7538 72.6903H99.6552C100.053 72.6903 100.41 72.4696 100.546 72.1386L102.268 66.4149H101.666ZM100.288 67.8091C100.159 67.9161 99.9613 67.8626 99.9035 67.7054L99.747 67.2842H98.9579L98.747 67.7422C98.6789 67.886 98.4918 67.9294 98.3694 67.8258L97.8455 67.3343L98.5633 66.6556H99.3286H99.3559H100.121L100.808 67.2842L100.288 67.8091Z" fill="#2D1786"/>
<path d="M102.84 85.377C106.096 85.377 108.735 82.7829 108.735 79.583C108.735 76.3831 106.096 73.7891 102.84 73.7891C99.5846 73.7891 96.9453 76.3831 96.9453 79.583C96.9453 82.7829 99.5846 85.377 102.84 85.377Z" fill="#FFBE44"/>
<path opacity="0.3" d="M98.2344 83.1992C100.269 85.7 103.976 86.1045 106.521 84.1052C109.065 82.1059 109.477 78.4617 107.443 75.9609L98.2344 83.1992Z" fill="#17144F"/>
<path d="M100.264 60.7927L99.744 59.4688L98.931 59.4888L98.414 60.8228C96.9785 61.1672 95.8594 62.247 95.8594 63.7549V64.3433L96.7846 64.3533C96.7846 64.3533 96.9513 62.1735 99.4209 62.1735C101.89 62.1735 101.89 64.34 101.89 64.34H102.836V63.7348C102.833 62.1768 101.737 61.0936 100.264 60.7927Z" fill="#FFBE44"/>
<path d="M92.7827 66.5506L91.2622 62.2109L89.7383 66.5506L90.7622 67.5535V99.2113H91.7588V67.5535L92.7827 66.5506Z" fill="#FFBE44"/>
<path d="M89.8398 84.2795C89.8398 83.4169 89.8841 82.7148 90.7617 82.7148C91.6393 82.7148 92.3536 83.4136 92.3536 84.2795C92.3536 85.1421 91.6427 85.8442 90.7617 85.8442C89.8841 85.8442 89.8398 85.1421 89.8398 84.2795Z" fill="#B59FFF"/>
</g>
<defs>
<clipPath id="clip0_8142_103847">
<rect width="135.14" height="84.3851" fill="white" transform="translate(3.48047 14.8242)"/>
</clipPath>
</defs>
</svg>
