<svg width="40" height="40" viewBox="0 0 40 40" fill="none" xmlns="http://www.w3.org/2000/svg">
<circle cx="20" cy="20" r="20" fill="#937DFF"/>
<path d="M19.8502 8.56977C24.3602 8.56977 28.3102 11.1698 30.1402 15.1198L28.3502 15.6998L30.9102 17.3298C30.9102 17.3498 30.9202 17.3598 30.9202 17.3798L30.9602 17.3698L31.8402 17.9298L32.1502 17.0898L32.1802 17.0798C32.1802 17.0698 32.1702 17.0598 32.1702 17.0398L33.2802 14.0998L31.3802 14.7098C29.3702 10.2298 24.9302 7.25977 19.8502 7.25977C13.8202 7.25977 8.60018 11.5498 7.43018 17.4598L8.70018 17.7098C9.75018 12.4198 14.4402 8.56977 19.8502 8.56977Z" fill="white"/>
<path d="M20.1502 31.4296C15.6302 31.4296 11.6702 28.8196 9.85023 24.8596L11.7702 24.1896L8.18023 22.0596L7.87023 22.8996L7.81023 22.9096C7.82023 22.9396 7.83023 22.9596 7.83023 22.9896L6.74023 25.9396L8.61023 25.2796C10.6202 29.7596 15.0602 32.7196 20.1402 32.7196C26.1702 32.7196 31.3902 28.4296 32.5602 22.5196L31.2902 22.2696C30.2502 27.5796 25.5602 31.4296 20.1502 31.4296Z" fill="white"/>
<path d="M26.0201 25.7902V13.7202H23.2001V25.7902H21.3801V16.2402H18.5601V25.7902H16.7401V18.1302H13.9201V25.7902H12.8901V26.2802H27.1101V25.7902H26.0201Z" fill="#38336D"/>
</svg>
