<svg width="60" height="60" viewBox="0 0 60 60" fill="none" xmlns="http://www.w3.org/2000/svg">
<path d="M30 60C46.5685 60 60 46.5685 60 30C60 13.4315 46.5685 0 30 0C13.4315 0 0 13.4315 0 30C0 46.5685 13.4315 60 30 60Z" fill="#231D65"/>
<path d="M36.1909 27.4332V40.8781L36.2099 47.61L42.4494 43.8606L42.4399 23.6838L36.1909 27.4332Z" fill="#8676E8"/>
<path d="M42.4397 23.6838L36.1906 19.9344L29.9795 23.6838L36.2285 27.4332L42.4397 23.6838Z" fill="#A897FF"/>
<path d="M23.7114 19.4989L23.7304 27.4427L29.9794 23.6933L29.9605 15.7494L23.7114 19.4989Z" fill="#8676E8"/>
<path d="M29.9607 15.7494L23.7116 12L17.5005 15.7494L23.7495 19.4988L29.9607 15.7494Z" fill="#A897FF"/>
<path d="M29.97 23.7028L29.9511 23.6838L23.7305 27.4332L29.97 31.1732V23.7028Z" fill="#A897FF"/>
<path d="M29.97 36.9582C29.97 34.7143 28.7865 32.6312 26.8645 31.4761C25.4821 30.6524 23.7305 31.6465 23.7305 33.294V42.4119L29.97 38.6625V36.9582Z" fill="#8676E8"/>
<path d="M29.97 38.6814L29.9511 38.6625L23.7305 42.4119L29.97 46.1613V38.6814Z" fill="#A897FF"/>
</svg>
