<svg width="193" height="165" viewBox="0 0 193 165" fill="none" xmlns="http://www.w3.org/2000/svg">
<path d="M56.3948 164.86C87.5408 164.86 112.79 139.611 112.79 108.465C112.79 77.3191 87.5408 52.0703 56.3948 52.0703C25.2488 52.0703 0 77.3191 0 108.465C0 139.611 25.2488 164.86 56.3948 164.86Z" fill="#937DFF"/>
<path d="M68.9611 123.043L53.8701 132.165V148.53L68.9611 139.408V123.043Z" fill="white"/>
<path d="M68.9611 123.046L53.8701 132.164V114.031L68.9611 123.046Z" fill="#7AC936"/>
<path d="M68.9609 90.231V139.41L84.0479 130.363V81.1094L68.9609 90.231Z" fill="white"/>
<path d="M84.0479 81.1088L68.9609 90.2305V72.0977L84.0479 81.1088Z" fill="#7AC936"/>
<path d="M53.8701 81.1088L68.9611 90.2305V72.0977L53.8701 81.1088Z" fill="#080345"/>
<path d="M38.7793 123.046L53.8702 132.164V114.031L38.7793 123.046Z" fill="#080345"/>
<path d="M53.9371 97.457L38.8462 106.579V122.944L53.9371 113.822V97.457Z" fill="white"/>
<path d="M53.9371 97.4604L38.8462 106.582V88.4492L53.9371 97.4604Z" fill="#7AC936"/>
<path d="M23.7593 97.457L38.8463 106.579V122.944L23.7593 113.822V97.457Z" fill="#FFBE44"/>
<path d="M23.7593 97.4604L38.8463 106.582V88.4492L23.7593 97.4604Z" fill="#7AC936"/>
<path d="M62.4828 108.839L59.1924 106.882V96.2694C59.1924 95.433 60.1156 94.9162 60.8376 95.3462C61.8594 95.9538 62.4828 97.0467 62.4828 98.2224V108.839Z" fill="#4C1ADC"/>
<path d="M62.4828 104.918L59.1924 106.882V96.2694C59.1924 95.433 60.1156 94.9162 60.8376 95.3462C61.8594 95.9538 62.4828 97.0467 62.4828 98.2224V104.918Z" fill="#080345"/>
<path opacity="0.3" d="M32.3602 98.9888C29.5511 96.1797 29.5511 91.6307 32.3602 88.8217C35.1693 86.0126 39.7183 86.0126 42.5274 88.8217C45.3365 91.6307 46.1019 102.07 46.1019 102.07C46.1019 102.07 35.1693 101.794 32.3602 98.9888Z" fill="#160E6B"/>
<path d="M44.3656 93.2844C44.3656 97.2534 41.1462 100.473 37.1772 100.473C33.2082 100.473 29.9888 97.2534 29.9888 93.2844C29.9888 89.3153 37.1772 78.7812 37.1772 78.7812C37.1772 78.7812 44.3656 89.3153 44.3656 93.2844Z" fill="#216849"/>
<path d="M32.502 109.903C32.502 108.428 31.7248 107.058 30.4623 106.301C29.5549 105.757 28.4028 106.411 28.4028 107.496V113.517L32.506 115.947L32.502 109.903Z" fill="#080345"/>
<path d="M162.967 128.571C179.091 128.571 192.162 115.5 192.162 99.3753C192.162 83.251 179.091 70.1797 162.967 70.1797C146.842 70.1797 133.771 83.251 133.771 99.3753C133.771 115.5 146.842 128.571 162.967 128.571Z" fill="#FF2475"/>
<path opacity="0.3" d="M162.967 120.953L172.858 115.113L162.955 109.184L153.076 115.015L162.967 120.953Z" fill="#160E6B"/>
<path d="M154.512 115.859V99.1469C154.512 97.2926 156.358 96.1484 157.948 97.1032C160.189 98.4485 161.558 100.867 161.558 103.479V120.105L162.963 120.949V97.3557L153.095 91.4219V115.027L154.512 115.859Z" fill="#8061DB"/>
<path d="M153.099 91.4219L162.962 97.3557L172.834 91.4259L163.01 85.5039L153.099 91.4219Z" fill="#B9E300"/>
<path d="M155.916 83.8076L162.966 88.033L170.021 83.8115L162.962 79.5742L155.916 83.8076Z" fill="#B9E300"/>
<path d="M155.924 91.431L162.962 95.6565L162.966 88.0341L155.916 83.8047L155.924 91.431Z" fill="#8061DB"/>
<path d="M157.329 92.2961L158.315 94.2174L161.554 94.8329V92.2408C161.554 90.71 160.749 89.2897 159.439 88.5046C158.508 87.9483 157.325 88.619 157.329 89.704V92.2961Z" fill="#B9E300"/>
<path d="M157.329 92.2922L160.986 90.0867C160.623 89.4436 160.09 88.8913 159.435 88.4968C158.504 87.9405 157.321 88.6112 157.325 89.6961L157.329 92.2922Z" fill="#080345"/>
<path d="M170.009 91.4231L162.962 95.6564L162.966 88.034L170.021 83.8125L170.009 91.4231Z" fill="#080345"/>
<path d="M155.924 113.302V100.531C155.924 98.6762 157.771 97.5321 159.361 98.4868C159.581 98.621 159.787 98.7709 159.992 98.9248C159.435 98.2107 158.753 97.5873 157.952 97.106C156.362 96.1512 154.516 97.2954 154.516 99.1497V115.862L155.924 115.034L155.92 113.31L155.924 113.302Z" fill="#080345"/>
<path d="M162.962 97.3556V120.949L164.379 120.112V107.452C164.371 103.108 164.805 98.989 167.969 97.2136C169.575 96.3101 171.437 97.403 171.437 99.2455V115.946L172.83 115.125L172.834 91.4258L162.962 97.3556Z" fill="#080345"/>
<path d="M168.592 96.9501C169.425 97.2065 170.02 98.0824 170.02 99.2463V115.083L171.433 115.951L171.437 99.2502C171.437 97.6445 170.005 96.5753 168.592 96.9501Z" fill="#8061DB"/>
<path d="M126 58C142.016 58 155 45.0163 155 29C155 12.9837 142.016 0 126 0C109.984 0 97 12.9837 97 29C97 45.0163 109.984 58 126 58Z" fill="#00C7BA"/>
<path d="M117.159 18.6103L117.155 39.0514L125.639 33.949L125.671 13.4766L117.159 18.6103Z" fill="#7861D8"/>
<path d="M117.163 8.39062L108.651 13.4931L117.159 18.6112L125.675 13.5048L117.163 8.39062Z" fill="#7AC936"/>
<path d="M134.183 23.7158L134.179 49.2671L136.307 47.9582L136.311 42.0994L141.209 45.0504L142.663 44.1647L142.695 18.5859L134.183 23.7158Z" fill="#7861D8"/>
<path d="M134.183 23.7158L134.179 49.2906L125.659 44.1608L125.675 18.6016L134.183 23.7158Z" fill="#080345"/>
<path d="M134.187 13.5L125.675 18.6024L134.183 23.7166L142.699 18.6142L134.187 13.5Z" fill="#7AC936"/>
<path d="M125.674 33.915L125.67 44.0533L134.155 38.9548L134.186 28.7812L125.674 33.915Z" fill="#7861D8"/>
<path d="M125.675 33.915V44.0807L117.151 38.9469L117.17 28.7969L125.675 33.915Z" fill="#080345"/>
<path d="M125.679 23.6953L117.167 28.7977L125.675 33.9159L134.191 28.8095L125.679 23.6953Z" fill="#7AC936"/>
<path d="M114.313 37.8442L111.488 36.1669V27.5453C111.488 26.8281 112.279 26.3853 112.899 26.7537C113.776 27.2749 114.309 28.2115 114.309 29.2226V37.8442H114.313Z" fill="#7861D8"/>
<path d="M114.313 34.4818L111.488 36.1669V27.5453C111.488 26.8281 112.279 26.3853 112.899 26.7537C113.776 27.2749 114.309 28.2115 114.309 29.2226V34.4818H114.313Z" fill="#080345"/>
<path d="M136.311 38.3534C136.311 36.5899 137.235 34.9557 138.748 34.0504C139.83 33.3999 141.209 34.1797 141.209 35.4769V45.0508L136.311 42.0999V38.3534Z" fill="#080345"/>
<path d="M137.153 33.9106L139.979 32.2333V23.6117C139.979 22.8945 139.187 22.4517 138.568 22.8201C137.69 23.3413 137.157 24.2779 137.157 25.289V33.9106H137.153Z" fill="#7AC936"/>
<path d="M137.153 30.5482L139.979 32.2333V23.6117C139.979 22.8945 139.187 22.4517 138.568 22.8201C137.69 23.3413 137.157 24.2779 137.157 25.289V30.5482H137.153Z" fill="#080345"/>
<path d="M134.186 13.5469V21.4827L129.221 18.5004L129.225 16.4821L134.186 13.5469Z" fill="#080345"/>
<path d="M134.187 13.5469V21.4827L139.152 18.5004V16.4821L134.187 13.5469Z" fill="#7861D8"/>
<path d="M117.041 8.39453L117.045 16.3303L112.08 13.348V11.3337L117.041 8.39453Z" fill="#080345"/>
<path d="M117.041 8.39453L117.045 16.3303L122.01 13.348L122.006 11.3337L117.041 8.39453Z" fill="#7861D8"/>
<path opacity="0.3" d="M123.186 29.513C121.713 28.0395 121.713 25.6529 123.186 24.1833C124.66 22.7097 127.046 22.7097 128.516 24.1833C129.989 25.6568 131.228 32.2288 131.228 32.2288C131.228 32.2288 124.656 30.9865 123.186 29.513Z" fill="#160E6B"/>
<path d="M129.48 26.5246C129.48 28.6055 127.791 30.2946 125.71 30.2946C123.629 30.2946 121.94 28.6055 121.94 26.5246C121.94 24.4436 125.71 18.918 125.71 18.918C125.71 18.918 129.48 24.4436 129.48 26.5246Z" fill="#216849"/>
<path d="M131.537 30.3963L128.108 32.4537L134.155 38.9513L135.77 38.191L134.469 28.6367L134.191 28.8052L131.537 30.3963Z" fill="#7861D8"/>
</svg>
