<svg width="244" height="200" viewBox="0 0 244 200" fill="none" xmlns="http://www.w3.org/2000/svg">
<path d="M72.4751 155.81L125.31 187.518L178.163 155.819L125.551 124.167L72.4751 155.81Z" fill="#B9E300"/>
<path opacity="0.2" d="M86.6782 155.819L125.31 178.996L163.96 155.829L125.486 132.679L86.6782 155.819Z" fill="#160E6B"/>
<path d="M91.1742 158.216V127.22C91.1742 119.735 98.6558 115.109 105.09 118.967C114.157 124.398 119.701 134.169 119.701 144.726V175.37L125.393 178.774V119.985L85.4448 96.0123V154.848L91.1742 158.216Z" fill="white"/>
<path d="M85.4448 96.0123L125.384 119.985L165.35 96.0215L125.569 72.095L85.4448 96.0123Z" fill="#B9E300"/>
<path d="M96.8852 147.89V132.809C96.8852 125.324 104.367 120.697 110.801 124.556C111.7 125.092 112.525 125.703 113.35 126.323C111.097 123.427 108.335 120.92 105.09 118.977C98.6559 115.128 91.1743 119.754 91.1743 127.23V158.225L96.8852 154.876L96.8666 147.909L96.8852 147.89Z" fill="#080345"/>
<path d="M125.384 119.985V178.774L131.113 175.397V160.769C131.085 143.218 132.847 126.582 145.65 119.402C152.158 115.757 159.686 120.17 159.686 127.618V158.567L165.323 155.246L165.332 96.0123L125.384 119.985Z" fill="#4420D8"/>
<path d="M148.171 118.347C151.546 119.374 153.956 122.927 153.956 127.627V155.079L159.667 158.577L159.686 127.627C159.695 121.142 153.901 116.83 148.171 118.347Z" fill="#080345"/>
<path opacity="0.2" d="M99.4531 94.2821L125.087 109.669L150.73 94.2913L125.208 78.9324L99.4531 94.2821Z" fill="#160E6B"/>
<path d="M98.2944 45.7443L124.874 61.6584L151.472 45.7628L124.865 29.8303L98.2944 45.7443Z" fill="#B9E300"/>
<path d="M98.313 74.4358L124.865 90.3406L124.874 61.6583L98.2944 45.7443L98.313 74.4358Z" fill="white"/>
<path d="M103.606 77.6927L119.543 87.2318V77.4706C119.543 71.7064 116.511 66.3678 111.561 63.4071C108.056 61.3068 103.588 63.8327 103.597 67.913L103.606 77.6927Z" fill="#B9E300"/>
<path opacity="0.3" d="M103.606 77.6927L119.543 87.2318V77.4706C119.543 71.7064 116.511 66.3678 111.561 63.4071C108.056 61.3068 103.588 63.8327 103.597 67.913L103.606 77.6927Z" fill="#160E6B"/>
<path d="M103.606 77.6927L117.401 69.3933C116.029 66.9692 114.027 64.8874 111.552 63.4071C108.047 61.3068 103.579 63.8327 103.588 67.913L103.606 77.6927Z" fill="#080345"/>
<path d="M151.426 74.408L124.865 90.3406L124.874 61.6583L151.472 45.7628L151.426 74.408Z" fill="#4420D8"/>
<path opacity="0.2" d="M107.371 45.7536L124.16 55.8294L140.959 45.7536L124.244 35.6963L107.371 45.7536Z" fill="#160E6B"/>
<path d="M140.699 13.0466L124.169 23.0206V40.9146L140.699 30.9406V13.0466Z" fill="#4420D8"/>
<path d="M140.699 13.0465L124.169 23.0206V3.19281L140.699 13.0465Z" fill="#B9E300"/>
<path opacity="0.3" d="M140.699 13.0465L124.169 23.0206V3.19281L140.699 13.0465Z" fill="#160E6B"/>
<path d="M107.63 13.0466L124.169 23.0206V40.9146L107.63 30.9406V13.0466Z" fill="white"/>
<path d="M107.63 13.0465L124.169 23.0206V3.19281L107.63 13.0465Z" fill="#B9E300"/>
<path d="M113.619 26.629V30.2651L117.225 32.4024V26.2496C116.02 26.3514 114.815 26.4717 113.619 26.629Z" fill="#4C1ADC"/>
<path d="M117.225 28.1186L113.619 30.2652V23.7515C113.619 22.8355 114.629 22.2711 115.426 22.743V23.1131V22.743C116.548 23.4092 117.234 24.6027 117.234 25.8888V28.1186H117.225Z" fill="#080345"/>
<path d="M146.345 167.431C146.734 167.561 147.003 167.042 146.679 166.793C144.324 164.988 140.69 162.435 139.299 162.74C137.176 163.212 136.147 166.238 141.227 166.497C143.35 166.617 145.084 167.015 146.345 167.431Z" fill="#36521D"/>
<path d="M146.957 167.005C147.077 167.394 146.567 167.662 146.317 167.339C144.528 164.97 142.303 161.889 142.321 159.937C142.34 157.846 145.854 156.819 146.076 161.889C146.169 164.017 146.558 165.738 146.957 167.005Z" fill="#36521D"/>
<path d="M146.836 167.32C146.623 167.672 146.085 167.459 146.169 167.052C146.771 164.146 147.856 159.844 149.108 159.178C151.027 158.151 153.78 159.77 150.109 163.286C148.57 164.757 147.522 166.182 146.836 167.32Z" fill="#36521D"/>
<path d="M146.679 167.496C146.28 167.598 146.039 167.07 146.382 166.839C148.839 165.164 152.612 162.823 153.975 163.212C156.07 163.804 156.923 166.876 151.833 166.857C149.71 166.848 147.967 167.153 146.679 167.496Z" fill="#36521D"/>
<path d="M106.647 160.714C107.037 160.843 107.305 160.325 106.981 160.075C104.626 158.271 100.992 155.718 99.6013 156.023C97.4783 156.495 96.4492 159.52 101.53 159.779C103.662 159.9 105.386 160.307 106.647 160.714Z" fill="#36521D"/>
<path d="M107.268 160.288C107.389 160.677 106.879 160.945 106.629 160.621C104.839 158.253 102.614 155.172 102.633 153.219C102.651 151.128 106.165 150.101 106.388 155.172C106.471 157.3 106.86 159.021 107.268 160.288Z" fill="#36521D"/>
<path d="M107.139 160.603C106.925 160.954 106.388 160.742 106.471 160.334C107.074 157.429 108.158 153.127 109.41 152.461C111.329 151.434 114.082 153.053 110.411 156.569C108.872 158.04 107.825 159.465 107.139 160.603Z" fill="#36521D"/>
<path d="M106.981 160.779C106.582 160.88 106.341 160.353 106.684 160.122C109.141 158.447 112.914 156.106 114.277 156.495C116.372 157.087 117.225 160.159 112.135 160.14C110.012 160.131 108.269 160.436 106.981 160.779Z" fill="#36521D"/>
<path opacity="0.3" d="M92.1384 96.4009C90.9981 95.2628 90.9981 93.4031 92.1384 92.2651C93.2788 91.1271 95.1422 91.1271 96.2825 92.2651C97.4228 93.4031 98.387 98.5012 98.387 98.5012C98.387 98.5012 93.288 97.5389 92.1384 96.4009Z" fill="#160E6B"/>
<path d="M97.0335 94.0785C97.0335 95.6977 95.7263 97.0023 94.1039 97.0023C92.4815 97.0023 91.1743 95.6977 91.1743 94.0785C91.1743 92.4594 94.1039 88.1755 94.1039 88.1755C94.1039 88.1755 97.0335 92.4686 97.0335 94.0785Z" fill="#36521D"/>
<path opacity="0.3" d="M123.011 115.479C121.87 114.341 121.87 112.481 123.011 111.343C124.151 110.205 126.014 110.205 127.155 111.343C128.295 112.481 129.259 117.579 129.259 117.579C129.259 117.579 124.151 116.617 123.011 115.479Z" fill="#160E6B"/>
<path d="M127.896 113.157C127.896 114.776 126.589 116.081 124.967 116.081C123.344 116.081 122.037 114.776 122.037 113.157C122.037 111.538 124.967 107.254 124.967 107.254C124.967 107.254 127.896 111.547 127.896 113.157Z" fill="#36521D"/>
<path opacity="0.3" d="M154.902 96.4009C153.762 95.2628 153.762 93.4031 154.902 92.2651C156.042 91.1271 157.906 91.1271 159.046 92.2651C160.187 93.4031 161.151 98.5012 161.151 98.5012C161.151 98.5012 156.042 97.5389 154.902 96.4009Z" fill="#160E6B"/>
<path d="M159.797 94.0785C159.797 95.6977 158.49 97.0023 156.868 97.0023C155.245 97.0023 153.938 95.6977 153.938 94.0785C153.938 92.4594 156.868 88.1755 156.868 88.1755C156.868 88.1755 159.797 92.4686 159.797 94.0785Z" fill="#36521D"/>
<path opacity="0.3" d="M139.679 104.793C138.539 103.655 138.539 101.795 139.679 100.657C140.82 99.5189 142.683 99.5189 143.824 100.657C144.964 101.795 145.928 106.893 145.928 106.893C145.928 106.893 140.829 105.931 139.679 104.793Z" fill="#160E6B"/>
<path d="M144.574 102.47C144.574 104.09 143.267 105.394 141.645 105.394C140.023 105.394 138.715 104.09 138.715 102.47C138.715 100.851 141.645 96.5674 141.645 96.5674C141.645 96.5674 144.574 100.851 144.574 102.47Z" fill="#36521D"/>
<path opacity="0.3" d="M107.862 106.726C106.721 105.588 106.721 103.729 107.862 102.591C109.002 101.453 110.865 101.453 112.006 102.591C113.146 103.729 114.11 108.827 114.11 108.827C114.11 108.827 109.002 107.864 107.862 106.726Z" fill="#160E6B"/>
<path d="M112.747 104.404C112.747 106.023 111.44 107.328 109.818 107.328C108.195 107.328 106.888 106.023 106.888 104.404C106.888 102.785 109.818 98.5011 109.818 98.5011C109.818 98.5011 112.747 102.785 112.747 104.404Z" fill="#36521D"/>
</svg>
