<svg width="244" height="200" viewBox="0 0 244 200" fill="none" xmlns="http://www.w3.org/2000/svg">
<path d="M196.85 134.319C200.175 125.544 202 116.028 202 106.089C202 61.9878 166.183 26.238 122 26.238C77.8167 26.238 42 61.9878 42 106.089C42 115.928 43.7917 125.361 47.05 134.061L122 89.1619L196.85 134.319Z" fill="#00C7BA"/>
<path d="M122 185.939C156.225 185.939 185.425 164.487 196.85 134.319L122 89.1619L47.05 134.061C58.4084 164.363 87.6834 185.939 122 185.939Z" fill="#FFBE34"/>
<path d="M77.4834 150.173L124.975 178.677L172.483 150.181L125.192 121.726L77.4834 150.173Z" fill="#B9E300"/>
<path opacity="0.2" d="M90.25 150.181L124.975 171.017L159.717 150.189L125.133 129.378L90.25 150.181Z" fill="#160E6B"/>
<path d="M94.2916 152.335V124.471C94.2916 117.742 101.017 113.583 106.8 117.051C114.95 121.934 119.933 130.717 119.933 140.208V167.756L125.05 170.817V117.966L89.1416 96.415V149.308L94.2916 152.335Z" fill="white"/>
<path d="M89.1416 96.415L125.042 117.966L160.967 96.4233L125.208 74.9136L89.1416 96.415Z" fill="#B9E300"/>
<path d="M99.4248 143.053V129.495C99.4248 122.766 106.15 118.607 111.933 122.075C112.742 122.558 113.483 123.107 114.225 123.664C112.2 121.061 109.717 118.806 106.8 117.06C101.017 113.599 94.2915 117.758 94.2915 124.479V152.344L99.4248 149.333L99.4082 143.069L99.4248 143.053Z" fill="#080345"/>
<path d="M125.042 117.966V170.817L130.192 167.781V154.631C130.167 138.852 131.75 123.897 143.258 117.442C149.108 114.165 155.875 118.133 155.875 124.828V152.651L160.941 149.665L160.95 96.415L125.042 117.966Z" fill="#080345"/>
<path d="M145.525 116.494C148.558 117.417 150.725 120.611 150.725 124.837V149.516L155.858 152.66L155.875 124.837C155.883 119.006 150.675 115.13 145.525 116.494Z" fill="#4420D8"/>
<path opacity="0.2" d="M101.733 94.8595L124.775 108.692L147.825 94.8678L124.883 81.0603L101.733 94.8595Z" fill="#160E6B"/>
<path d="M100.692 51.2245L124.583 65.5311L148.492 51.2411L124.575 36.918L100.692 51.2245Z" fill="#B9E300"/>
<path d="M100.708 77.018L124.575 91.3162L124.583 65.5311L100.692 51.2246L100.708 77.018Z" fill="white"/>
<path d="M105.467 79.9457L119.792 88.5213V79.7461C119.792 74.5641 117.067 69.7648 112.617 67.1031C109.467 65.215 105.45 67.4857 105.458 71.1539L105.467 79.9457Z" fill="#B9E300"/>
<path opacity="0.3" d="M105.467 79.9457L119.792 88.5213V79.7461C119.792 74.5641 117.067 69.7648 112.617 67.1031C109.467 65.215 105.45 67.4857 105.458 71.1539L105.467 79.9457Z" fill="#160E6B"/>
<path d="M105.467 79.9457L117.867 72.4847C116.633 70.3055 114.833 68.434 112.608 67.1031C109.458 65.215 105.442 67.4857 105.45 71.1539L105.467 79.9457Z" fill="#080345"/>
<path d="M148.45 76.993L124.575 91.3162L124.583 65.5311L148.492 51.2412L148.45 76.993Z" fill="#080345"/>
<path opacity="0.2" d="M108.85 51.2328L123.942 60.2908L139.042 51.2328L124.017 42.1914L108.85 51.2328Z" fill="#160E6B"/>
<path d="M138.808 21.8296L123.95 30.7961V46.8827L138.808 37.9161V21.8296Z" fill="#080345"/>
<path d="M138.808 21.8296L123.95 30.7961V12.9712L138.808 21.8296Z" fill="#B9E300"/>
<path opacity="0.3" d="M138.808 21.8296L123.95 30.7961V12.9712L138.808 21.8296Z" fill="#160E6B"/>
<path d="M109.083 21.8296L123.95 30.7961V46.8827L109.083 37.9161V21.8296Z" fill="white"/>
<path d="M109.083 21.8296L123.95 30.7961V12.9712L109.083 21.8296Z" fill="#B9E300"/>
<path d="M114.467 34.0402V37.3091L117.708 39.2305V33.6992C116.625 33.7907 115.542 33.8988 114.467 34.0402Z" fill="#4C1ADC"/>
<path d="M117.708 35.3793L114.467 37.309V31.4533C114.467 30.6298 115.375 30.1225 116.092 30.5467V30.8794V30.5467C117.1 31.1455 117.717 32.2185 117.717 33.3747V35.3793H117.708Z" fill="#080345"/>
<path d="M143.883 160.62C144.233 160.736 144.475 160.27 144.183 160.046C142.067 158.424 138.8 156.128 137.55 156.403C135.642 156.827 134.717 159.547 139.283 159.78C141.192 159.888 142.75 160.245 143.883 160.62Z" fill="#36521D"/>
<path d="M144.433 160.237C144.542 160.586 144.083 160.828 143.858 160.537C142.25 158.407 140.25 155.637 140.267 153.882C140.283 152.003 143.442 151.079 143.642 155.637C143.725 157.551 144.075 159.098 144.433 160.237Z" fill="#36521D"/>
<path d="M144.325 160.52C144.133 160.836 143.65 160.645 143.725 160.279C144.267 157.667 145.242 153.799 146.367 153.2C148.092 152.277 150.567 153.733 147.267 156.893C145.883 158.216 144.942 159.497 144.325 160.52Z" fill="#36521D"/>
<path d="M144.183 160.678C143.825 160.769 143.608 160.295 143.917 160.087C146.125 158.582 149.517 156.477 150.742 156.827C152.625 157.359 153.392 160.121 148.817 160.104C146.908 160.096 145.342 160.37 144.183 160.678Z" fill="#36521D"/>
<path d="M108.2 154.581C108.55 154.697 108.792 154.232 108.5 154.007C106.383 152.385 103.117 150.089 101.867 150.364C99.9584 150.788 99.0334 153.508 103.6 153.741C105.517 153.849 107.067 154.215 108.2 154.581Z" fill="#36521D"/>
<path d="M108.758 154.198C108.867 154.548 108.408 154.789 108.183 154.498C106.575 152.368 104.575 149.599 104.592 147.844C104.608 145.964 107.767 145.04 107.967 149.599C108.042 151.512 108.392 153.059 108.758 154.198Z" fill="#36521D"/>
<path d="M108.642 154.481C108.45 154.797 107.967 154.606 108.042 154.24C108.583 151.628 109.558 147.76 110.683 147.162C112.408 146.238 114.883 147.694 111.583 150.855C110.2 152.177 109.258 153.458 108.642 154.481Z" fill="#36521D"/>
<path d="M108.5 154.639C108.142 154.731 107.925 154.257 108.233 154.049C110.442 152.543 113.833 150.439 115.058 150.788C116.942 151.32 117.708 154.082 113.133 154.065C111.225 154.057 109.658 154.331 108.5 154.639Z" fill="#36521D"/>
<path opacity="0.3" d="M95.1584 96.7644C94.1334 95.7413 94.1334 94.0695 95.1584 93.0464C96.1834 92.0233 97.8584 92.0233 98.8834 93.0464C99.9084 94.0695 100.775 98.6525 100.775 98.6525C100.775 98.6525 96.1917 97.7875 95.1584 96.7644Z" fill="#160E6B"/>
<path d="M99.5584 94.6766C99.5584 96.1322 98.3834 97.305 96.9251 97.305C95.4668 97.305 94.2917 96.1322 94.2917 94.6766C94.2917 93.221 96.9251 89.3699 96.9251 89.3699C96.9251 89.3699 99.5584 93.2293 99.5584 94.6766Z" fill="#36521D"/>
<path opacity="0.3" d="M122.908 113.916C121.883 112.892 121.883 111.221 122.908 110.197C123.933 109.174 125.608 109.174 126.633 110.197C127.658 111.221 128.525 115.804 128.525 115.804C128.525 115.804 123.933 114.939 122.908 113.916Z" fill="#160E6B"/>
<path d="M127.3 111.828C127.3 113.283 126.125 114.456 124.667 114.456C123.208 114.456 122.033 113.283 122.033 111.828C122.033 110.372 124.667 106.521 124.667 106.521C124.667 106.521 127.3 110.38 127.3 111.828Z" fill="#36521D"/>
<path opacity="0.3" d="M151.575 96.7644C150.55 95.7413 150.55 94.0695 151.575 93.0464C152.6 92.0233 154.275 92.0233 155.3 93.0464C156.325 94.0695 157.192 98.6525 157.192 98.6525C157.192 98.6525 152.6 97.7875 151.575 96.7644Z" fill="#160E6B"/>
<path d="M155.975 94.6766C155.975 96.1322 154.8 97.305 153.342 97.305C151.883 97.305 150.708 96.1322 150.708 94.6766C150.708 93.221 153.342 89.3699 153.342 89.3699C153.342 89.3699 155.975 93.2293 155.975 94.6766Z" fill="#36521D"/>
<path opacity="0.3" d="M137.892 104.309C136.867 103.286 136.867 101.614 137.892 100.591C138.917 99.5675 140.592 99.5675 141.617 100.591C142.642 101.614 143.508 106.197 143.508 106.197C143.508 106.197 138.925 105.332 137.892 104.309Z" fill="#160E6B"/>
<path d="M142.292 102.221C142.292 103.676 141.117 104.849 139.658 104.849C138.2 104.849 137.025 103.676 137.025 102.221C137.025 100.765 139.658 96.9141 139.658 96.9141C139.658 96.9141 142.292 100.765 142.292 102.221Z" fill="#36521D"/>
<path opacity="0.3" d="M109.292 106.047C108.267 105.024 108.267 103.352 109.292 102.329C110.317 101.306 111.992 101.306 113.017 102.329C114.042 103.352 114.908 107.935 114.908 107.935C114.908 107.935 110.317 107.07 109.292 106.047Z" fill="#160E6B"/>
<path d="M113.683 103.959C113.683 105.415 112.508 106.587 111.05 106.587C109.592 106.587 108.417 105.415 108.417 103.959C108.417 102.503 111.05 98.6523 111.05 98.6523C111.05 98.6523 113.683 102.503 113.683 103.959Z" fill="#36521D"/>
</svg>
