<svg width="24" height="24" viewBox="0 0 24 24" fill="none" xmlns="http://www.w3.org/2000/svg">
<path d="M12 24C18.6274 24 24 18.6274 24 12C24 5.37258 18.6274 0 12 0C5.37258 0 0 5.37258 0 12C0 18.6274 5.37258 24 12 24Z" fill="#231D65"/>
<path d="M14.966 10.867L14.963 17.284L14.974 20.495L17.953 18.707L17.947 9.07901L14.966 10.867Z" fill="#937DFF"/>
<path d="M17.947 9.07902L14.966 7.29202L12 9.07902L14.982 10.867L17.947 9.07902Z" fill="#FFBE44"/>
<path d="M9.02997 7.07999L9.02097 10.871L12 9.082L11.994 5.29199L9.02997 7.07999Z" fill="#937DFF"/>
<path d="M11.994 5.292L9.013 3.505L6.047 5.292L9.03 7.08L11.994 5.292Z" fill="#FFBE44"/>
<path d="M11.997 9.08699L11.987 9.08099L9.02097 10.868L11.999 12.654L11.997 9.08699Z" fill="#FFBE44"/>
<path d="M11.997 15.41C11.997 14.339 11.434 13.346 10.515 12.795C9.85696 12.401 9.01996 12.875 9.01996 13.662V18.014L11.998 16.227L11.997 15.41Z" fill="#937DFF"/>
<path d="M11.999 16.227L9.02097 18.015L11.999 19.801V16.227Z" fill="#FFBE44"/>
</svg>
