<svg width="24" height="30" viewBox="0 0 24 30" fill="none" xmlns="http://www.w3.org/2000/svg">
<g filter="url(#filter0_d)">
<path d="M16.5101 13.32L17.4701 11.74C18.8301 9.51 18.4801 6.6 16.5701 4.81C15.3701 3.69 13.7601 3 12.0001 3C10.0601 3 8.31014 3.83 7.08014 5.16C5.45014 6.92 5.21014 9.57 6.40014 11.66L7.37014 13.35C5.22014 13.96 3.64014 15.94 3.64014 18.29C3.64014 21.13 5.94014 23.43 8.78014 23.43C10.0001 23.43 11.1101 23.01 11.9901 22.3C12.8701 23.01 13.9901 23.43 15.2001 23.43C18.0401 23.43 20.3401 21.13 20.3401 18.29C20.3501 15.9 18.7201 13.89 16.5101 13.32ZM12.2201 14.11C12.1501 14.16 12.0701 14.22 12.0001 14.28C11.9301 14.22 11.8601 14.17 11.7801 14.11H12.2201Z" fill="#4D4D9E"/>
<path d="M15.48 19.38H14.42V16.82C14.42 16.1 13.83 15.51 13.11 15.51H10.91C10.19 15.51 9.60004 16.1 9.60004 16.82V19.38H8.52004C6.33004 19.38 4.54004 21.17 4.54004 23.36V24.82C6.70004 26.2 9.25004 27 12 27C14.75 27 17.3 26.2 19.45 24.82V23.36C19.45 21.17 17.66 19.38 15.48 19.38Z" fill="#A897FF"/>
<path d="M8.52004 19.3799C6.33004 19.3799 4.54004 21.1699 4.54004 23.3599C4.54004 23.3599 5.29004 24.6799 5.84004 25.5599C7.70004 26.4799 9.79004 26.9999 12 26.9999C14.75 26.9999 17.3 26.1999 19.45 24.8199L8.52004 19.3799Z" fill="#FF2972"/>
<path d="M4.55029 23.35C4.55029 23.35 5.30029 24.67 5.85029 25.55C6.74029 26 7.70029 26.36 8.70029 26.6C7.31029 25.13 5.98029 23.61 4.80029 21.97C4.64029 22.4 4.55029 22.87 4.55029 23.35Z" fill="#FFBE44"/>
<path d="M8.52004 19.3799C8.18004 19.3799 7.86004 19.4199 7.54004 19.4999C8.77004 20.1299 9.90004 20.9799 11.23 21.6899C13.48 22.9199 15.59 24.3399 17.74 25.7499C18.33 25.4799 18.9 25.1699 19.45 24.8199L8.52004 19.3799Z" fill="#FFBE44"/>
<path opacity="0.5" d="M9.58008 18.04V16.81C9.58008 16.09 10.1701 15.5 10.8901 15.5H13.0901C13.8101 15.5 14.4001 16.09 14.4001 16.81V18.92L9.58008 18.04Z" fill="#4D4D9E"/>
<path d="M7.58008 13.0001C7.58008 15.4301 9.57008 17.4201 12.0001 17.4201C14.4301 17.4201 16.4201 15.4301 16.4201 13.0001V8.56006H7.58008V13.0001Z" fill="#A897FF"/>
<path d="M16.4201 7.68994H7.58008V8.62994H16.4201V7.68994Z" fill="#FFBE44"/>
</g>
<defs>
<filter id="filter0_d" x="-3" y="0" width="30" height="30" filterUnits="userSpaceOnUse" color-interpolation-filters="sRGB">
<feFlood flood-opacity="0" result="BackgroundImageFix"/>
<feColorMatrix in="SourceAlpha" type="matrix" values="0 0 0 0 0 0 0 0 0 0 0 0 0 0 0 0 0 0 127 0"/>
<feOffset/>
<feGaussianBlur stdDeviation="1.5"/>
<feColorMatrix type="matrix" values="0 0 0 0 0.0313726 0 0 0 0 0.0117647 0 0 0 0 0.270588 0 0 0 0.7 0"/>
<feBlend mode="normal" in2="BackgroundImageFix" result="effect1_dropShadow"/>
<feBlend mode="normal" in="SourceGraphic" in2="effect1_dropShadow" result="shape"/>
</filter>
</defs>
</svg>
