<svg width="24" height="30" viewBox="0 0 24 30" fill="none" xmlns="http://www.w3.org/2000/svg">
<g filter="url(#filter0_d)">
<path d="M15.63 19.03H8.36996C6.07996 19.03 4.20996 20.9 4.20996 23.19V24.72C6.45996 26.16 9.12996 27 12 27C14.87 27 17.54 26.16 19.79 24.72V23.19C19.79 20.9 17.92 19.03 15.63 19.03Z" fill="#B59FFF"/>
<path d="M7.9602 19.05C5.8602 19.25 4.2002 21.0401 4.2002 23.1901V24.72C6.4602 26.16 9.1302 27 12.0002 27C12.0102 27 12.0302 27 12.0402 27C10.7102 24.34 9.3602 21.69 7.9602 19.05Z" fill="#4D4D9E"/>
<path d="M16.8802 19.23C15.6202 21.81 14.3302 24.36 13.1602 26.96C15.5902 26.77 17.8502 25.97 19.7902 24.73V23.2C19.7902 21.34 18.5602 19.76 16.8802 19.23Z" fill="#FFBE44"/>
<path d="M8.36996 19.03C6.07996 19.03 4.20996 20.9 4.20996 23.19C4.20996 23.19 4.98996 24.57 5.56996 25.49C7.49996 26.46 9.68996 27 12 27C14.87 27 17.54 26.16 19.79 24.72L8.36996 19.03Z" fill="#FF2972"/>
<path d="M18.2303 9.77C19.0003 7.98 18.4903 5.92 16.7903 4.58C15.5303 3.6 13.8403 3 12.0003 3C9.98029 3 8.14029 3.73 6.86029 4.89C5.37029 6.23 4.99029 8.16 5.74029 9.85C5.54029 10.33 5.42029 10.87 5.42029 11.43C5.42029 13.67 7.23029 15.48 9.47029 15.48C10.4303 15.48 11.3103 15.14 12.0103 14.58C12.7003 15.14 13.5803 15.48 14.5303 15.48C16.7703 15.48 18.5803 13.67 18.5803 11.43C18.5803 10.84 18.4503 10.28 18.2303 9.77Z" fill="#4D4D9E"/>
<path d="M12.0004 16.9901C9.46037 16.9901 7.38037 14.9101 7.38037 12.3701V7.72006C7.38037 5.18006 9.46037 4.31006 12.0004 4.31006C14.5404 4.31006 16.6204 5.18006 16.6204 7.72006V12.3701C16.6204 14.9101 14.5404 16.9901 12.0004 16.9901Z" fill="#B59FFF"/>
<path d="M15.9702 12.8801L14.9902 13.8901L14.0602 12.9001C13.8602 12.6901 13.5702 12.5601 13.2802 12.5601H12.0602H11.9702H10.7602C10.4602 12.5601 10.1702 12.6901 9.97016 12.9101L8.97016 13.9901L8.02016 13.0901H7.16016L9.47016 22.7101C9.68016 23.3201 10.3102 23.7401 11.0102 23.7401H12.5402C13.2202 23.7401 13.8202 23.3601 14.0602 22.7901L16.9802 12.8901H15.9702V12.8801ZM13.6302 15.2901C13.4102 15.4701 13.0702 15.3801 12.9802 15.1101L12.7102 14.3801H11.3702L11.0102 15.1701C10.9002 15.4201 10.5802 15.4901 10.3702 15.3201L9.48016 14.4701L10.7002 13.3001H12.0002H12.0402H13.3402L14.5102 14.3901L13.6302 15.2901Z" fill="#4D4D9E"/>
</g>
<defs>
<filter id="filter0_d" x="-3" y="0" width="30" height="30" filterUnits="userSpaceOnUse" color-interpolation-filters="sRGB">
<feFlood flood-opacity="0" result="BackgroundImageFix"/>
<feColorMatrix in="SourceAlpha" type="matrix" values="0 0 0 0 0 0 0 0 0 0 0 0 0 0 0 0 0 0 127 0"/>
<feOffset/>
<feGaussianBlur stdDeviation="1.5"/>
<feColorMatrix type="matrix" values="0 0 0 0 0.0313726 0 0 0 0 0.0117647 0 0 0 0 0.270588 0 0 0 0.7 0"/>
<feBlend mode="normal" in2="BackgroundImageFix" result="effect1_dropShadow"/>
<feBlend mode="normal" in="SourceGraphic" in2="effect1_dropShadow" result="shape"/>
</filter>
</defs>
</svg>
