<svg width="48" height="48" viewBox="0 0 48 48" fill="none" xmlns="http://www.w3.org/2000/svg">
<path d="M24 48C28.7468 48 33.3869 46.5924 37.3337 43.9553C41.2805 41.3181 44.3566 37.5698 46.1731 33.1844C47.9896 28.799 48.4649 23.9734 47.5388 19.3178C46.6128 14.6623 44.327 10.3859 40.9706 7.02945C37.6141 3.67299 33.3377 1.38721 28.6822 0.461164C24.0266 -0.464881 19.201 0.0103989 14.8156 1.8269C10.4302 3.64341 6.68188 6.71954 4.04473 10.6663C1.40758 14.6131 0 19.2533 0 24C0 30.3652 2.52856 36.4697 7.02944 40.9706C11.5303 45.4714 17.6348 48 24 48Z" fill="#231D65"/>
<path d="M46.44 15.5098L6 39.9198C9.72434 44.114 14.8001 46.8712 20.3457 47.7126C25.8913 48.554 31.5565 47.4265 36.3573 44.5258C41.1582 41.6251 44.7914 37.1345 46.6259 31.8339C48.4605 26.5333 48.3806 20.7576 46.4 15.5098H46.44Z" fill="#231D65"/>
<path fill-rule="evenodd" clip-rule="evenodd" d="M39.67 40.76V40.23C39.6636 39.1454 39.4409 38.0729 39.0151 37.0753C38.5893 36.0777 37.9688 35.175 37.19 34.42C35.5795 32.8658 33.4282 31.9981 31.19 32H16.44C14.2011 31.9939 12.0482 32.8622 10.44 34.42C9.66487 35.1756 9.04945 36.0793 8.63029 37.0774C8.21114 38.0754 7.99681 39.1475 8.00004 40.23V40.48C12.3927 44.2655 17.9852 46.371 23.7837 46.4222C29.5822 46.4735 35.2111 44.4672 39.67 40.76V40.76Z" fill="#B59FFF"/>
<path d="M24.3201 37.3301C23.0092 37.3338 21.7464 36.8366 20.7901 35.9401C20.333 35.5051 19.9681 34.9826 19.7173 34.4036C19.4664 33.8246 19.3348 33.201 19.3301 32.5701V28.6601C19.3301 27.8901 19.6601 27.7401 20.2301 27.1901C20.8184 26.6452 21.5883 26.3387 22.3901 26.3301H26.2701C27.0732 26.3318 27.8455 26.6393 28.4301 27.1901C29.0101 27.7401 29.3301 27.8901 29.3301 28.6601V32.5701C29.3452 33.1961 29.233 33.8188 29.0001 34.4001C28.7357 35.007 28.3474 35.552 27.8601 36.0001C27.3891 36.4341 26.8391 36.7736 26.2401 37.0001C25.6279 37.2349 24.9755 37.347 24.3201 37.3301V37.3301Z" fill="#B59FFF"/>
<path opacity="0.3" d="M19.3301 30.5396V27.9996C19.3382 27.286 19.6253 26.604 20.1301 26.0996C20.6452 25.5999 21.3325 25.3171 22.0501 25.3096H26.6101C27.3277 25.3171 28.015 25.5999 28.5301 26.0996C28.7818 26.3481 28.982 26.6439 29.1193 26.9699C29.2566 27.2959 29.3282 27.6458 29.3301 27.9996V32.3096L19.3301 30.5396Z" fill="#7360FC"/>
<path d="M24.3398 9.33001C23.3115 9.30744 22.2888 9.4877 21.3302 9.86048C20.3716 10.2333 19.4958 10.7913 18.7529 11.5026C18.01 12.2139 17.4145 13.0647 17.0004 14.0062C16.5864 14.9478 16.3619 15.9617 16.3398 16.99V22.68C16.3871 24.7551 17.2562 26.7265 18.7563 28.161C20.2565 29.5954 22.2648 30.3756 24.3398 30.33V30.33C25.3677 30.3539 26.3901 30.1749 27.3487 29.8032C28.3073 29.4315 29.1831 28.8745 29.9262 28.1639C30.6693 27.4534 31.2649 26.6033 31.6791 25.6623C32.0932 24.7213 32.3178 23.7079 32.3398 22.68V17C32.3191 15.9708 32.0955 14.9559 31.6821 14.0132C31.2686 13.0705 30.6733 12.2185 29.9303 11.5061C29.1872 10.7937 28.311 10.2348 27.3517 9.86145C26.3925 9.48804 25.369 9.30745 24.3398 9.33001V9.33001Z" fill="#B59FFF"/>
<path d="M31.33 20.33C31.3075 20.1936 31.3178 20.0538 31.3601 19.9222C31.4024 19.7906 31.4754 19.6709 31.5732 19.5732C31.6709 19.4754 31.7906 19.4024 31.9222 19.3601C32.0538 19.3178 32.1936 19.3075 32.33 19.33C32.89 19.33 33.33 19.53 33.33 20.33V22.33C33.33 23.14 32.89 23.33 32.33 23.33C31.77 23.33 31.33 23.14 31.33 22.33V20.33Z" fill="#B59FFF"/>
<path d="M15.33 20.33C15.3075 20.1936 15.3178 20.0538 15.3601 19.9222C15.4024 19.7906 15.4754 19.6709 15.5732 19.5732C15.6709 19.4754 15.7906 19.4024 15.9222 19.3601C16.0538 19.3178 16.1936 19.3075 16.33 19.33C16.89 19.33 17.33 19.53 17.33 20.33V22.33C17.33 23.14 16.89 23.33 16.33 23.33C15.77 23.33 15.33 23.14 15.33 22.33V20.33Z" fill="#B59FFF"/>
<path d="M20.8296 11.36L31.9996 15.7C32.6496 16 32.7696 15.96 33.1396 15.43L33.7996 13.91C34.1396 13.37 33.7996 11.13 31.9996 10.16L23.9996 6.51996C23.6993 6.39405 23.3653 6.37293 23.0514 6.46001C22.7376 6.54709 22.4622 6.73729 22.2696 6.99996L20.3196 9.87996C20.2388 10.0069 20.1877 10.1504 20.17 10.2998C20.1523 10.4492 20.1686 10.6007 20.2176 10.743C20.2667 10.8852 20.3472 11.0146 20.4531 11.1214C20.5591 11.2283 20.6878 11.3098 20.8296 11.36Z" fill="#FFBE44"/>
<path d="M27.7602 11.3601L16.5702 15.7001C15.9302 16.0001 15.8002 15.9601 15.4402 15.4301L14.7502 13.8901C14.4102 13.3501 14.7502 11.1001 16.5502 10.1401L24.5502 6.5001C24.8537 6.35276 25.1989 6.31508 25.527 6.39347C25.8552 6.47187 26.146 6.66149 26.3502 6.9301L28.3502 9.8601C28.4339 9.99285 28.4851 10.1434 28.4999 10.2997C28.5146 10.4559 28.4923 10.6134 28.4349 10.7594C28.3774 10.9055 28.2864 11.0359 28.1692 11.1403C28.052 11.2446 27.9119 11.3199 27.7602 11.3601Z" fill="#FFBE44"/>
<path d="M30.2903 6.29048L27.3403 4.66048H27.2703C26.3256 4.23518 25.2997 4.02027 24.2637 4.03063C23.2277 4.04099 22.2064 4.27637 21.2703 4.72048L18.2703 6.31048C17.7478 6.57217 17.3269 6.99984 17.0735 7.52646C16.8201 8.05308 16.7487 8.64889 16.8703 9.22048L17.3903 10.4005C17.6703 10.8005 17.7703 10.8205 18.2703 10.6105L24.2703 8.28048L30.2703 10.6105C30.7603 10.8505 30.8703 10.8005 31.1503 10.4005L31.6603 9.22048C31.8002 8.64909 31.7406 8.04704 31.4915 7.51414C31.2423 6.98124 30.8185 6.5495 30.2903 6.29048V6.29048Z" fill="#FFBE44"/>
<g opacity="0.5">
<path opacity="0.5" d="M17.19 9.85988L21.3 8.12988L17 9.30988L17.19 9.85988Z" fill="#A07030"/>
</g>
<g opacity="0.5">
<path opacity="0.5" d="M31.3998 9.86L26.0498 8L31.6198 9.39L31.3998 9.86Z" fill="#A07030"/>
</g>
<g opacity="0.5">
<path opacity="0.5" d="M15.0002 14.5104L24.3802 9.86035L14.6602 13.7104L15.0002 14.5104Z" fill="#A07030"/>
</g>
<g opacity="0.5">
<path opacity="0.5" d="M33.8904 13.7804L33.5404 14.5304L28.1904 12.1104L34.0004 13.7804" fill="#A07030"/>
</g>
<path fill-rule="evenodd" clip-rule="evenodd" d="M39.9995 40.75V40.05C39.9902 38.9807 39.7628 37.9246 39.3312 36.9462C38.8996 35.9678 38.273 35.0878 37.4895 34.36C35.9222 32.8963 33.8733 32.0568 31.7295 32C29.8295 35.54 27.8595 39 25.8795 42.57C25.4295 43.38 24.9695 44.18 24.5195 45C29.9434 44.8296 35.2491 43.373 39.9995 40.75V40.75Z" fill="#00C7BA"/>
<path fill-rule="evenodd" clip-rule="evenodd" d="M14 32.3301C12.6862 32.7117 11.4804 33.3968 10.48 34.3301C9.70583 35.0593 9.08706 35.9374 8.66088 36.9118C8.2347 37.8861 8.00991 38.9366 8 40.0001V41.8601C12.4002 45.7957 18.0965 47.9715 24 47.9715C29.9035 47.9715 35.5998 45.7957 40 41.8601V40.0001C40.0003 39.3723 39.9196 38.7472 39.76 38.1401C30.07 36.1501 22.41 34.4001 14 32.3301Z" fill="#FFBE44"/>
<path d="M39.9999 41.8096V39.9996C40.0002 39.3718 39.9195 38.7467 39.7599 38.1396C30.0699 36.1396 22.3899 34.3796 13.9999 32.3096C12.9607 32.6182 11.9876 33.1166 11.1299 33.7796L12.1299 34.0696C19.6999 36.3496 34.8499 40.8596 39.9999 41.8096Z" fill="#FF2475"/>
</svg>
