<svg width="26" height="28" viewBox="0 0 26 28" fill="none" xmlns="http://www.w3.org/2000/svg">
<g filter="url(#filter0_d)">
<path d="M4.03009 8.12005C3.02009 6.86005 3.06009 4.94005 4.32009 3.94005C5.58009 2.94005 6.73009 4.00005 7.74009 5.26005C8.75009 6.52005 9.04009 7.10005 7.77009 8.11005C6.50009 9.12005 5.04009 9.39005 4.03009 8.12005Z" fill="#A57A2F"/>
<path d="M7.7098 6.60999C6.8898 5.98999 5.2898 4.48999 5.2898 4.48999L5.9598 5.84999C5.9598 5.84999 4.6398 5.34999 4.8098 5.54999C4.9998 5.75999 5.9698 6.46999 5.9698 6.46999L4.5498 6.79999C4.5498 6.79999 5.8498 8.20999 6.1298 8.14999C6.4098 8.08999 7.7098 6.60999 7.7098 6.60999Z" fill="#B68D3D"/>
<path d="M21.65 8.11999C22.66 6.85999 22.62 4.93999 21.36 3.92999C20.1 2.91999 18.95 3.98999 17.94 5.24999C16.93 6.50999 16.65 7.09999 17.91 8.09999C19.17 9.11999 20.64 9.38999 21.65 8.11999Z" fill="#A57A2F"/>
<path d="M17.9702 6.60999C18.7902 5.98999 20.3902 4.48999 20.3902 4.48999L19.7202 5.84999C19.7202 5.84999 21.0402 5.34999 20.8702 5.54999C20.6902 5.75999 19.7202 6.45999 19.7202 6.45999L21.1302 6.78999C21.1302 6.78999 19.8302 8.19999 19.5502 8.13999C19.2702 8.08999 17.9702 6.60999 17.9702 6.60999Z" fill="#B68D3D"/>
<path d="M20.86 20.48L20.93 20.37C21.51 19.88 22.34 19.18 22.34 19.18L21.64 19.23L22.74 17.47L21.4 15.02C21.4 15.02 21.31 13.15 21.12 12.14C20.5 8.77004 19.58 6.33004 17.71 6.33004C17.39 6.33004 13.35 6.29004 13 6.29004C12.66 6.29004 9.3 6.33004 8.98 6.33004C6.77 6.33004 5.55 8.77004 4.9 12.14C4.71 13.14 4.67 14.97 4.67 14.97L3.25 17.47L4.45 19.29L3.55 19.18C3.55 19.18 4.36 19.79 5.02 20.29H3.97C3.97 20.29 5.73 21.65 6.35 22.13L6.46 22.3C6.46 22.3 10 23.48 13 25C16 23.48 19.72 22.22 19.75 22.21C19.76 22.21 19.78 22.2 19.78 22.2L19.86 22.07C20.44 21.61 22.47 20.01 22.47 20.01L20.86 20.48Z" fill="#B68D3D"/>
<path d="M15.0702 9.22005L17.0302 6.33005L14.8202 6.32005L8.97021 6.30005L10.6102 9.22005L10.3602 16.09H15.4302C15.4202 16.09 15.0602 9.31005 15.0702 9.22005Z" fill="#A57A2F"/>
<path d="M18.2 13.24C19.36 11.78 19.71 9.70998 19.71 9.70998C18.97 9.78998 17.41 10.75 17.41 10.75L18.84 9.25998L17.41 10.17L17.69 9.04998L14.61 12.21C14.28 12.62 15.34 13.2 15.19 13.34C15.19 13.34 12.75 14.26 14.4 14.56C13.5 15.33 13.13 15.76 12.98 15.99C12.83 15.76 12.47 15.34 11.6 14.59C13.64 14.33 11.01 13.34 11.01 13.34C10.84 13.18 11.13 13.27 10.73 12.78L11.28 11.81L9.65996 10.15L8.53996 8.97998L8.76996 10.12L7.37996 9.12998L8.73996 10.68C8.73996 10.68 7.31996 9.86998 6.77996 9.75998L6.73996 9.73998L6.75996 9.75998C6.66996 9.73998 6.56996 9.72998 6.47996 9.71998C6.47996 9.71998 6.82996 11.79 7.98996 13.25C6.78996 13.22 5.86996 13.47 6.01996 13.48C7.33996 13.53 11.93 15.73 12.88 16.19C12.86 16.26 12.88 16.28 12.88 16.28C12.88 16.28 12.91 16.26 12.97 16.24C13.02 16.27 13.06 16.28 13.06 16.28C13.06 16.28 13.08 16.26 13.06 16.19C14.01 15.73 18.6 13.53 19.92 13.48C20.08 13.47 19.29 13.25 18.2 13.24Z" fill="#A57A2F"/>
<path d="M8.9398 14.0801C9.43134 14.0801 9.8298 13.6369 9.8298 13.0901C9.8298 12.5433 9.43134 12.1001 8.9398 12.1001C8.44827 12.1001 8.0498 12.5433 8.0498 13.0901C8.0498 13.6369 8.44827 14.0801 8.9398 14.0801Z" fill="#17144F"/>
<path d="M9.35963 12.9102C9.49218 12.9102 9.59963 12.8027 9.59963 12.6702C9.59963 12.5376 9.49218 12.4302 9.35963 12.4302C9.22708 12.4302 9.11963 12.5376 9.11963 12.6702C9.11963 12.8027 9.22708 12.9102 9.35963 12.9102Z" fill="white"/>
<path d="M17.0096 14.0801C17.5012 14.0801 17.8996 13.6369 17.8996 13.0901C17.8996 12.5433 17.5012 12.1001 17.0096 12.1001C16.5181 12.1001 16.1196 12.5433 16.1196 13.0901C16.1196 13.6369 16.5181 14.0801 17.0096 14.0801Z" fill="#17144F"/>
<path d="M17.4295 12.9102C17.562 12.9102 17.6695 12.8027 17.6695 12.6702C17.6695 12.5376 17.562 12.4302 17.4295 12.4302C17.2969 12.4302 17.1895 12.5376 17.1895 12.6702C17.1895 12.8027 17.2969 12.9102 17.4295 12.9102Z" fill="white"/>
<path d="M16.4 16.51C15.56 9.20998 15.19 8.07998 13.09 7.97998C13.08 7.97998 13.06 7.97998 13.05 7.97998C13.04 7.97998 13.02 7.97998 13.01 7.97998C10.91 8.07998 10.71 8.45998 9.58001 17.19C9.17001 20.32 10.41 22.15 11.61 22.15C11.62 22.15 14.4 22.15 14.42 22.15C15.65 22.3 16.86 20.52 16.4 16.51Z" fill="#DABA7D"/>
<path d="M14.0302 15.6899H11.9702C11.5702 15.6899 11.2402 16.0199 11.2402 16.4199V16.8099C11.2402 17.2099 11.5702 17.5399 11.9702 17.5399H14.0302C14.4302 17.5399 14.7602 17.2099 14.7602 16.8099V16.4199C14.7602 16.0199 14.4302 15.6899 14.0302 15.6899ZM12.0002 16.4799C12.2302 16.3899 12.6002 16.9799 12.6002 16.9799C11.8702 17.0199 11.7802 16.5699 12.0002 16.4799ZM13.4002 16.9799C13.4002 16.9799 13.7702 16.3899 14.0002 16.4799C14.2202 16.5699 14.1302 17.0199 13.4002 16.9799Z" fill="#17144F"/>
<path d="M13.4904 18.9199H12.5104C12.4404 18.9199 12.3804 18.8599 12.3804 18.7899V18.7499C12.3804 18.6799 12.4404 18.6199 12.5104 18.6199H13.4904C13.5604 18.6199 13.6204 18.6799 13.6204 18.7499V18.7899C13.6204 18.8599 13.5604 18.9199 13.4904 18.9199Z" fill="#17144F"/>
</g>
<defs>
<filter id="filter0_d" x="-2" y="-1" width="30" height="30" filterUnits="userSpaceOnUse" color-interpolation-filters="sRGB">
<feFlood flood-opacity="0" result="BackgroundImageFix"/>
<feColorMatrix in="SourceAlpha" type="matrix" values="0 0 0 0 0 0 0 0 0 0 0 0 0 0 0 0 0 0 127 0"/>
<feOffset/>
<feGaussianBlur stdDeviation="1.5"/>
<feColorMatrix type="matrix" values="0 0 0 0 0.0313726 0 0 0 0 0.0117647 0 0 0 0 0.270588 0 0 0 0.7 0"/>
<feBlend mode="normal" in2="BackgroundImageFix" result="effect1_dropShadow"/>
<feBlend mode="normal" in="SourceGraphic" in2="effect1_dropShadow" result="shape"/>
</filter>
</defs>
</svg>
