<svg width="16" height="16" viewBox="0 0 16 16" fill="none" xmlns="http://www.w3.org/2000/svg">
<path d="M3.86852 12.1992L2.29138 12.2449L0.411377 14.1135L2.08566 13.9992L3.86852 12.1992Z" fill="#DB9A31"/>
<path d="M3.90281 12.2305L3.8571 13.8076L1.98853 15.6876L2.10281 14.0133L3.90281 12.2305Z" fill="#DB9A31"/>
<path d="M2.61711 13.3516L1.0914 13.4373L0.931396 13.5916L2.5714 13.5001L2.62283 13.4544L2.61711 13.3516Z" fill="#C98017"/>
<path d="M0.594238 13.9314L2.23995 13.84L2.28567 13.7943L2.27995 13.6914L0.754238 13.7714L0.594238 13.9314Z" fill="#C98017"/>
<path d="M3.28561 12.6836L1.76561 12.7636L1.61133 12.9236L3.2399 12.8322L3.29133 12.7807L3.28561 12.6836Z" fill="#C98017"/>
<path d="M2.94855 13.0156L1.42855 13.1013L1.26855 13.2613L2.90284 13.1699L2.95427 13.1185L2.94855 13.0156Z" fill="#C98017"/>
<path d="M3.62277 12.3477L2.10277 12.4277L1.94849 12.5877L3.57134 12.4962L3.62849 12.4448L3.62277 12.3477Z" fill="#C98017"/>
<path d="M3.50854 14.1542L3.66283 14L3.75426 12.3828H3.74283L3.59426 12.5314L3.50854 14.1542Z" fill="#C98017"/>
<path d="M2.16577 15.5094L2.32006 15.3494L2.41149 13.7266H2.39434L2.2572 13.8637L2.16577 15.5094Z" fill="#C98017"/>
<path d="M3.07994 13.0586H3.06851L2.92566 13.2015L2.83423 14.8357L2.99423 14.6757L3.07994 13.0586Z" fill="#C98017"/>
<path d="M3.4171 12.7188H3.40567L3.26282 12.8616L3.17139 14.4959L3.33139 14.3359L3.4171 12.7188Z" fill="#C98017"/>
<path d="M2.74874 13.3924L2.7316 13.3867L2.58874 13.5296L2.49731 15.1696L2.65731 15.0096L2.74874 13.3924Z" fill="#C98017"/>
<path d="M14.2286 3.04095C14.3143 3.11524 14.4458 3.08666 14.4915 2.98381L15.6115 0.480949C15.6743 0.338092 15.5258 0.195235 15.3829 0.263807L12.8801 1.52095C12.7829 1.57238 12.7601 1.71524 12.8458 1.79524L13.2229 2.13809L1.76578 13.6867C1.59435 13.8638 1.59435 14.1438 1.76578 14.3152C1.85149 14.401 1.96578 14.4467 2.08006 14.4467C2.19435 14.4467 2.30864 14.401 2.39435 14.3152L13.8858 2.73238L14.2286 3.04095Z" fill="#FFBE44"/>
<path opacity="0.54" d="M1.77148 14.3137C1.8572 14.3994 1.97148 14.4452 2.08577 14.4452C2.20006 14.4452 2.31434 14.3994 2.40006 14.3137L13.8858 2.73087L14.2286 3.03944C14.3143 3.11373 14.4458 3.08516 14.4915 2.9823L15.6115 0.479442C15.6458 0.405156 15.6172 0.330871 15.5658 0.285156" fill="#DB9A31"/>
<path d="M14.6687 14.3378L2.85731 13.2235L1.72017 1.56069C1.70874 1.4464 1.61731 1.36069 1.4916 1.37212C1.37731 1.38355 1.2916 1.4864 1.30302 1.60069L2.47445 13.6007L14.623 14.7493C14.6287 14.7493 14.6345 14.7493 14.6402 14.7493C14.7487 14.7493 14.8345 14.6693 14.8459 14.5607C14.863 14.4464 14.783 14.3493 14.6687 14.3378Z" fill="#F4D178"/>
<path d="M15.4171 14.6391C15.3942 14.6276 13.3599 13.6105 13.8342 8.01049C13.8628 7.66192 13.8685 7.34192 13.8571 7.03906C13.4457 7.09049 13.0457 7.17049 12.6742 7.28478C12.6742 7.48478 12.6685 7.69049 12.6514 7.91335C12.1142 14.3476 14.6685 15.6162 14.9599 15.7362C15.0342 15.7648 15.1142 15.7819 15.1885 15.7819C15.4228 15.7819 15.6399 15.6448 15.7371 15.4162C15.8628 15.1133 15.7199 14.7648 15.4171 14.6391Z" fill="#DB9A31"/>
<path d="M12.4973 3.50482C12.2859 3.27054 11.303 2.29911 9.22872 2.15625C9.25729 2.55054 9.15443 2.93911 9.00586 3.33339C10.8516 3.41911 11.5773 4.25911 11.6059 4.29339C11.6173 4.31054 11.6401 4.31625 11.6516 4.33339C11.6687 4.35054 11.6801 4.37339 11.6973 4.39054C11.743 4.42482 12.663 5.23054 12.6687 7.28196C13.0401 7.16768 13.4459 7.08768 13.8516 7.03625C13.783 4.79054 12.743 3.72768 12.4973 3.50482Z" fill="#DB9A31"/>
<path d="M9.22863 2.16009C8.85149 2.13152 8.44578 2.13152 7.99435 2.17152C2.48006 2.62866 1.38863 0.634375 1.35435 0.571518C1.22292 0.274375 0.880063 0.142947 0.58292 0.262947C0.280063 0.394375 0.137206 0.742947 0.26292 1.0458C0.388634 1.33723 1.64578 3.89723 8.09149 3.35438C8.42292 3.3258 8.72578 3.32009 9.00578 3.33723C9.15435 2.94295 9.25721 2.54866 9.22863 2.16009Z" fill="#DB9A31"/>
<path d="M12.4973 3.50482C12.2859 3.27054 11.303 2.29911 9.22872 2.15625C9.25729 2.55054 9.15443 2.93911 9.00586 3.33339C10.8516 3.41911 11.5773 4.25911 11.6059 4.29339C11.6173 4.31054 11.6401 4.31625 11.6516 4.33339C11.6687 4.35054 11.6801 4.37339 11.6973 4.39054C11.743 4.42482 12.663 5.23054 12.6687 7.28196C13.0401 7.16768 13.4459 7.08768 13.8516 7.03625C13.783 4.79054 12.743 3.72768 12.4973 3.50482Z" fill="#C98017"/>
</svg>
