<svg width="30" height="27" viewBox="0 0 30 27" fill="none" xmlns="http://www.w3.org/2000/svg">
<g clip-path="url(#clip0)" filter="url(#filter0_d)">
<path d="M20.9195 8.17993H25.5195C26.1295 8.17993 26.5295 8.80993 26.2795 9.35993L25.6595 10.7199C25.3395 11.4299 24.6295 11.8899 23.8495 11.8899H20.7495C20.6995 11.8899 20.6495 11.8499 20.6595 11.7899L20.8295 8.26993C20.8295 8.20993 20.8695 8.17993 20.9195 8.17993Z" fill="#7360FC"/>
<path d="M9.07964 8.17993H4.47964C3.86964 8.17993 3.46964 8.80993 3.71964 9.35993L4.33964 10.7199C4.65964 11.4299 5.36964 11.8899 6.14964 11.8899H9.24964C9.29964 11.8899 9.34964 11.8499 9.33964 11.7899L9.16964 8.25993C9.16964 8.20993 9.12964 8.17993 9.07964 8.17993Z" fill="#7360FC"/>
<path d="M19.2698 6.46997H10.7398C9.24982 6.46997 8.01982 6.68997 8.01982 8.18997L6.81982 11.88C7.00982 12.8 7.81982 14.54 8.48982 16.04C8.89982 16.96 9.16982 17.94 9.27982 18.94L9.62982 21.92C9.62982 23.41 11.4898 23.97 12.9798 23.97H17.0098C18.4998 23.97 20.0398 23.53 20.3498 22.13L20.6098 18.96C20.6998 17.93 20.9498 16.92 21.3398 15.96C22.1698 13.97 22.6698 12.91 22.9598 11.88L21.9698 8.18997C21.9898 6.69997 20.7598 6.46997 19.2698 6.46997Z" fill="#A897FF"/>
<path d="M9.37988 19.6899L9.63988 21.9099C9.63988 23.3999 11.4999 23.9599 12.9899 23.9599H17.0199C18.5099 23.9599 20.0499 23.5199 20.3599 22.1199L20.5499 19.8499C18.0299 17.7299 14.0399 17.4999 9.37988 19.6899Z" fill="#DFDCFF"/>
<path d="M15.8096 20.82C15.8096 20.82 18.3796 19.97 18.5296 20C18.6696 20.04 18.3096 22.22 15.8096 20.82Z" fill="#5656B7"/>
<path d="M14.4598 20.82C14.4598 20.82 11.8898 19.97 11.7398 20C11.5998 20.04 11.9598 22.22 14.4598 20.82Z" fill="#5656B7"/>
<path d="M11.9995 14.6399L11.5095 12.8099C10.8095 10.4199 8.98951 10.4299 8.98951 10.4299C8.97951 11.0599 9.07951 11.5299 9.23951 11.8799L8.49951 11.5799L11.9995 14.6399Z" fill="#DFDCFF"/>
<path d="M20.8296 11.8799C20.9896 11.5299 21.0896 11.0599 21.0696 10.4299C21.0696 10.4299 19.2496 10.4199 18.5496 12.8099L18.0596 14.6399L21.5696 11.5799L20.8296 11.8799Z" fill="#DFDCFF"/>
<path d="M10.2798 12.83C10.705 12.83 11.0498 12.4718 11.0498 12.03C11.0498 11.5882 10.705 11.23 10.2798 11.23C9.85451 11.23 9.50977 11.5882 9.50977 12.03C9.50977 12.4718 9.85451 12.83 10.2798 12.83Z" fill="#17144F"/>
<path d="M10.6399 11.88C10.7504 11.88 10.8399 11.7949 10.8399 11.69C10.8399 11.5851 10.7504 11.5 10.6399 11.5C10.5295 11.5 10.4399 11.5851 10.4399 11.69C10.4399 11.7949 10.5295 11.88 10.6399 11.88Z" fill="white"/>
<path d="M19.8198 12.83C20.2451 12.83 20.5898 12.4718 20.5898 12.03C20.5898 11.5882 20.2451 11.23 19.8198 11.23C19.3945 11.23 19.0498 11.5882 19.0498 12.03C19.0498 12.4718 19.3945 12.83 19.8198 12.83Z" fill="#17144F"/>
<path d="M20.18 11.88C20.2904 11.88 20.38 11.7949 20.38 11.69C20.38 11.5851 20.2904 11.5 20.18 11.5C20.0695 11.5 19.98 11.5851 19.98 11.69C19.98 11.7949 20.0695 11.88 20.18 11.88Z" fill="white"/>
<path d="M10.0198 6.53004C10.0198 6.53004 5.55982 5.63004 4.97982 5.15004C4.39982 4.67004 4.63982 3.04004 4.21982 3.04004C3.98982 3.04004 2.14982 4.14004 3.39982 7.29004C4.26982 9.48004 7.97983 8.93004 7.97983 8.93004L10.0198 6.53004Z" fill="#DFDCFF"/>
<path d="M19.98 6.49C19.98 6.49 24.44 5.59 25.02 5.11C25.6 4.64 25.36 3 25.78 3C26.01 3 27.85 4.1 26.6 7.25C25.73 9.44 22.02 8.89 22.02 8.89L19.98 6.49Z" fill="#DFDCFF"/>
<path d="M17.7201 17.8501C17.4801 17.4401 17.3701 16.9501 17.4201 16.4701L17.8701 12.5601C18.0401 11.0901 18.7901 9.7501 19.9601 8.8301L21.1601 7.8901L19.9701 6.4901L16.8001 6.1301L17.1801 5.7401L14.4601 5.9201L15.0101 5.3501C15.0101 5.3501 11.2001 6.2601 10.2401 6.4601C10.1201 6.4801 10.0501 6.4901 10.0301 6.4901L8.8501 7.9001L9.6801 8.5501L10.2101 8.9701C11.3701 9.8701 12.1201 11.2001 12.3001 12.6601L12.7401 16.2701L12.7601 16.4301C12.8301 16.9701 12.6901 17.5001 12.3901 17.9501L9.7001 19.5301L9.3801 19.6901L9.4901 19.6601L9.4601 19.6801L9.8301 19.5601L12.4701 18.7801C12.8201 18.6201 13.2101 18.5401 13.5901 18.5401H16.5101C16.9601 18.5401 17.4001 18.6501 17.8001 18.8601L20.5501 19.8501L20.3301 19.7101L20.6401 19.8301L17.7201 17.8501Z" fill="#7360FC"/>
</g>
<defs>
<filter id="filter0_d" x="0" y="-1" width="30" height="30" filterUnits="userSpaceOnUse" color-interpolation-filters="sRGB">
<feFlood flood-opacity="0" result="BackgroundImageFix"/>
<feColorMatrix in="SourceAlpha" type="matrix" values="0 0 0 0 0 0 0 0 0 0 0 0 0 0 0 0 0 0 127 0"/>
<feOffset/>
<feGaussianBlur stdDeviation="1.5"/>
<feColorMatrix type="matrix" values="0 0 0 0 0.0313726 0 0 0 0 0.0117647 0 0 0 0 0.270588 0 0 0 0.7 0"/>
<feBlend mode="normal" in2="BackgroundImageFix" result="effect1_dropShadow"/>
<feBlend mode="normal" in="SourceGraphic" in2="effect1_dropShadow" result="shape"/>
</filter>
<clipPath id="clip0">
<rect width="24" height="24" fill="white" transform="translate(3 2)"/>
</clipPath>
</defs>
</svg>
