<svg width="24" height="24" viewBox="0 0 24 24" fill="none" xmlns="http://www.w3.org/2000/svg">
<mask id="mask0_9201_155432" style="mask-type:alpha" maskUnits="userSpaceOnUse" x="0" y="0" width="24" height="24">
<rect width="24" height="24" fill="#C4C4C4"/>
</mask>
<g mask="url(#mask0_9201_155432)">
<path d="M19.4495 18.2263C19.4218 18.4103 19.3747 18.5957 19.3145 18.7749C18.5189 20.5219 14.8377 21.7725 10.566 21.6493C5.84343 21.5204 2.22413 19.7549 2.4373 17.7337L2.62462 16.062L3.53768 16.0989C5.06832 14.9536 8.02297 14.2224 11.3415 14.323C14.8056 14.4261 17.6926 15.4071 18.8891 16.725L19.6147 16.7641L19.4495 18.2263Z" fill="#CC8825"/>
<path opacity="0.95" d="M19.6104 16.7539C19.8266 14.7308 16.1841 12.9763 11.4817 12.8383C6.77931 12.7003 2.79366 14.226 2.57753 16.249C2.36141 18.2721 6.00386 20.0266 10.7062 20.1646C15.4112 20.3046 19.3969 18.7789 19.6104 16.7539Z" fill="#FFBE44"/>
<path opacity="0.95" d="M18.0327 16.6216C18.1916 15.1417 15.2685 13.8502 11.5104 13.7404C7.75232 13.6305 4.57893 14.7386 4.42009 16.2185C4.26125 17.6984 7.1843 18.9899 10.9424 19.0998C14.703 19.2116 17.8739 18.1015 18.0327 16.6216Z" stroke="#EFD770" stroke-width="1.2267" stroke-miterlimit="10"/>
<path opacity="0.32" d="M19.4702 17.2622C18.7055 19.0296 15.0061 20.2952 10.7045 20.1692C5.98484 20.0384 2.36517 18.2768 2.57875 16.2517C2.61312 15.9258 2.74589 15.6068 2.9666 15.3157L19.4702 17.2622Z" fill="#F9DA58"/>
<path d="M19.4495 14.9587C19.4218 15.1427 19.3747 15.3282 19.3145 15.5073C18.5189 17.2543 14.8377 18.5049 10.566 18.3817C5.84343 18.2528 2.22413 16.4873 2.4373 14.4661L2.62462 12.7944L3.53768 12.8313C5.06832 11.686 8.02297 10.9548 11.3415 11.0555C14.8056 11.1585 17.6926 12.1395 18.8891 13.4574L19.6147 13.4965L19.4495 14.9587Z" fill="#CC8825"/>
<path opacity="0.95" d="M19.6104 13.4863C19.8266 11.4632 16.1841 9.70871 11.4817 9.57074C6.77931 9.43277 2.79366 10.9584 2.57753 12.9814C2.36141 15.0045 6.00386 16.759 10.7062 16.897C15.4112 17.037 19.3969 15.5114 19.6104 13.4863Z" fill="#FFBE44"/>
<path opacity="0.95" d="M18.0327 13.354C18.1916 11.8741 15.2685 10.5827 11.5104 10.4728C7.75232 10.3629 4.57893 11.471 4.42009 12.9509C4.26125 14.4309 7.1843 15.7223 10.9424 15.8322C14.703 15.9441 17.8739 14.8339 18.0327 13.354Z" stroke="#EFD770" stroke-width="1.2267" stroke-miterlimit="10"/>
<path opacity="0.32" d="M19.4702 13.9946C18.7055 15.762 15.0061 17.0276 10.7045 16.9016C5.98484 16.7709 2.36517 15.0092 2.57875 12.9841C2.61312 12.6583 2.74589 12.3392 2.9666 12.0481L19.4702 13.9946Z" fill="#F9DA58"/>
<path d="M21.4094 11.6921C21.3818 11.8761 21.3347 12.0615 21.2745 12.2407C20.4789 13.9877 16.7976 15.2383 12.526 15.1151C7.80339 14.9862 4.18409 13.2207 4.39726 11.1995L4.58458 9.52784L5.49764 9.56473C7.02828 8.41944 9.98293 7.68817 13.3014 7.78886C16.7656 7.89194 19.6526 8.8729 20.8491 10.1908L21.5747 10.2299L21.4094 11.6921Z" fill="#CC8825"/>
<path opacity="0.95" d="M21.5704 10.2197C21.7865 8.19664 18.144 6.44211 13.4417 6.30414C8.73927 6.16617 4.75362 7.69178 4.53749 9.71482C4.32137 11.7379 7.96382 13.4924 12.6662 13.6304C17.3711 13.7704 21.3568 12.2448 21.5704 10.2197Z" fill="#FFBE44"/>
<path opacity="0.95" d="M19.9927 10.0874C20.1515 8.60749 17.2285 7.31606 13.4704 7.20619C9.71229 7.09631 6.53889 8.20441 6.38005 9.68433C6.22121 11.1643 9.14427 12.4557 12.9024 12.5656C16.663 12.6775 19.8339 11.5673 19.9927 10.0874Z" stroke="#EFD770" stroke-width="1.2267" stroke-miterlimit="10"/>
<path opacity="0.32" d="M21.4302 10.728C20.6655 12.4954 16.9661 13.761 12.6645 13.635C7.9448 13.5043 4.32513 11.7426 4.53872 9.71754C4.57309 9.39167 4.70585 9.07262 4.92656 8.78148L21.4302 10.728Z" fill="#F9DA58"/>
<path d="M20.1033 7.77121C20.0756 7.95524 20.0285 8.14065 19.9683 8.31982C19.1727 10.0668 15.4915 11.3174 11.2199 11.1942C6.49724 11.0653 2.87794 9.29983 3.09111 7.27864L3.27843 5.60694L4.19149 5.64383C5.72213 4.49854 8.67677 3.76727 11.9953 3.86796C15.4595 3.97104 18.3464 4.952 19.5429 6.26989L20.2685 6.30898L20.1033 7.77121Z" fill="#CC8825"/>
<path opacity="0.95" d="M20.2642 6.29879C20.4804 4.27574 16.8379 2.52121 12.1355 2.38324C7.43312 2.24527 3.44746 3.77088 3.23134 5.79393C3.01522 7.81697 6.65767 9.57152 11.3601 9.70949C16.065 9.84949 20.0507 8.32386 20.2642 6.29879Z" fill="#FFBE44"/>
<path opacity="0.95" d="M18.6865 6.16652C18.8454 4.6866 15.9223 3.39517 12.1642 3.28529C8.40613 3.17541 5.23274 4.28351 5.0739 5.76344C4.91506 7.24336 7.83811 8.5348 11.5962 8.64467C15.3569 8.75657 18.5277 7.64645 18.6865 6.16652Z" stroke="#EFD770" stroke-width="1.2267" stroke-miterlimit="10"/>
<path opacity="0.32" d="M20.124 6.80712C19.3593 8.57451 15.6599 9.84012 11.3583 9.71407C6.63865 9.58337 3.01898 7.82171 3.23256 5.79664C3.26693 5.47077 3.3997 5.15172 3.62041 4.86058L20.124 6.80712Z" fill="#F9DA58"/>
</g>
</svg>
