<svg width="23" height="23" viewBox="0 0 23 23" fill="none" xmlns="http://www.w3.org/2000/svg">
<path d="M11.7539 22.6748C17.829 22.6748 22.7539 17.7499 22.7539 11.6748C22.7539 5.59967 17.829 0.674805 11.7539 0.674805C5.67877 0.674805 0.753906 5.59967 0.753906 11.6748C0.753906 17.7499 5.67877 22.6748 11.7539 22.6748Z" fill="#FFBE44"/>
<path d="M11.7542 21.32C17.0809 21.32 21.3991 17.0018 21.3991 11.6751C21.3991 6.34842 17.0809 2.03027 11.7542 2.03027C6.42752 2.03027 2.10938 6.34842 2.10938 11.6751C2.10938 17.0018 6.42752 21.32 11.7542 21.32Z" fill="#D8962B"/>
<path d="M18.8896 8.92074L15.9595 9.87302C15.7684 9.9346 15.5626 9.93216 15.3731 9.86605C15.1835 9.79994 15.0208 9.6738 14.9095 9.50677C14.837 9.39792 14.7575 9.29391 14.6715 9.19545C14.5356 9.03742 14.457 8.83828 14.4481 8.6301C14.4392 8.42192 14.5007 8.21682 14.6226 8.04783L16.4539 5.53896C16.5301 5.43155 16.6288 5.34199 16.743 5.27644C16.8572 5.21089 16.9843 5.17091 17.1155 5.1593C17.2467 5.14769 17.3789 5.16472 17.5028 5.20919C17.6268 5.25366 17.7396 5.32451 17.8335 5.41687C18.4811 6.06567 19.021 6.81371 19.4328 7.63274C19.493 7.75141 19.5266 7.88177 19.5313 8.01474C19.5359 8.14772 19.5116 8.28011 19.4598 8.40271C19.4081 8.52531 19.3303 8.63519 19.2318 8.72466C19.1334 8.81412 19.0165 8.88102 18.8896 8.92074Z" fill="#FFBE44"/>
<path d="M4.42917 14.2265L7.34094 13.2803C7.53196 13.2187 7.73785 13.2212 7.92736 13.2873C8.11686 13.3534 8.27961 13.4795 8.39088 13.6465C8.46482 13.7563 8.54428 13.8623 8.62895 13.964C8.76328 14.1215 8.84106 14.3195 8.84991 14.5263C8.85876 14.7332 8.79817 14.937 8.67779 15.1055L6.84649 17.6144C6.77027 17.7218 6.67164 17.8114 6.55741 17.8769C6.44318 17.9425 6.31608 17.9824 6.18489 17.994C6.0537 18.0056 5.92156 17.9886 5.79759 17.9441C5.67363 17.8997 5.5608 17.8288 5.4669 17.7365C4.81929 17.0862 4.27758 16.3385 3.86147 15.5206C3.80165 15.3999 3.76902 15.2675 3.76588 15.1328C3.76273 14.9982 3.78915 14.8644 3.84327 14.741C3.89739 14.6177 3.9779 14.5077 4.07913 14.4188C4.18036 14.3299 4.29984 14.2642 4.42917 14.2265Z" fill="#FFBE44"/>
<path d="M16.4486 17.608L14.6173 15.1174C14.4974 14.957 14.4326 14.7621 14.4326 14.5619C14.4326 14.3616 14.4974 14.1668 14.6173 14.0064C14.6981 13.9025 14.7734 13.7945 14.8431 13.6828C14.95 13.5054 15.1136 13.3692 15.3074 13.2961C15.5012 13.223 15.714 13.2173 15.9114 13.28L18.8659 14.2261C18.9916 14.2648 19.1074 14.3302 19.2054 14.418C19.3033 14.5057 19.3811 14.6136 19.4333 14.7343C19.4856 14.855 19.511 14.9856 19.5079 15.1171C19.5047 15.2486 19.4732 15.3778 19.4153 15.4959C19.0017 16.3138 18.462 17.0616 17.8159 17.7117C17.7229 17.802 17.6118 17.8715 17.4899 17.9156C17.368 17.9598 17.2381 17.9775 17.1089 17.9677C16.9796 17.9579 16.8539 17.9208 16.7401 17.8587C16.6263 17.7967 16.5269 17.7113 16.4486 17.608Z" fill="#FFBE44"/>
<path d="M6.9317 5.54065L8.76299 8.03122C8.88287 8.19161 8.94765 8.38646 8.94765 8.5867C8.94765 8.78694 8.88287 8.98179 8.76299 9.14218C8.68222 9.24608 8.60684 9.35409 8.53714 9.46572C8.43037 9.64345 8.26715 9.78027 8.07353 9.8544C7.87991 9.92853 7.66704 9.93568 7.46888 9.8747L4.51438 8.92854C4.38848 8.88916 4.27259 8.82305 4.17461 8.73473C4.07664 8.6464 3.99891 8.53796 3.94674 8.4168C3.89456 8.29565 3.86918 8.16466 3.87233 8.03279C3.87548 7.90091 3.90709 7.77128 3.96499 7.65276C4.37579 6.83313 4.9158 6.08494 5.56432 5.43688C5.65734 5.34659 5.76847 5.27707 5.89036 5.23293C6.01225 5.1888 6.14211 5.17104 6.27137 5.18085C6.40063 5.19066 6.52634 5.2278 6.64017 5.28983C6.754 5.35185 6.85337 5.43735 6.9317 5.54065Z" fill="#FFBE44"/>
<path d="M12.0475 19.3366L11.9621 16.2844C11.9584 16.0834 12.02 15.8866 12.1378 15.7237C12.2556 15.5608 12.4232 15.4405 12.6152 15.381C12.7406 15.3433 12.863 15.2964 12.9815 15.2406C13.1715 15.1574 13.3839 15.1397 13.5851 15.1906C13.7863 15.2414 13.9648 15.3578 14.0925 15.5214L15.9848 17.9631C16.0669 18.0668 16.1253 18.1871 16.1561 18.3156C16.1869 18.4442 16.1893 18.5779 16.1632 18.7075C16.137 18.837 16.0829 18.9594 16.0047 19.0659C15.9265 19.1725 15.8259 19.2607 15.7101 19.3244C14.9025 19.7613 14.0311 20.0683 13.128 20.2339C12.9963 20.2581 12.8608 20.253 12.7313 20.219C12.6017 20.1851 12.4812 20.1232 12.3782 20.0376C12.2751 19.9521 12.1921 19.845 12.135 19.7239C12.0779 19.6027 12.048 19.4705 12.0475 19.3366Z" fill="#FFBE44"/>
<path d="M11.4239 4.00153L11.5093 7.09032C11.5141 7.28999 11.4535 7.48576 11.3366 7.64777C11.2198 7.80977 11.0532 7.92914 10.8623 7.98767L10.4899 8.12806C10.3007 8.21306 10.0884 8.23221 9.88702 8.18242C9.68564 8.13263 9.50674 8.01675 9.37892 7.85336L7.49268 5.41163C7.41151 5.30849 7.35361 5.18903 7.32297 5.0614C7.29234 4.93378 7.28969 4.80099 7.31521 4.67224C7.34072 4.5435 7.39381 4.42183 7.4708 4.31554C7.5478 4.20924 7.6469 4.12086 7.76128 4.05648C8.56479 3.61526 9.43489 3.30805 10.3373 3.14695C10.4661 3.12127 10.599 3.12379 10.7268 3.15436C10.8545 3.18493 10.9741 3.24282 11.0774 3.32403C11.1806 3.40524 11.2651 3.50786 11.3249 3.62481C11.3847 3.74177 11.4185 3.87027 11.4239 4.00153Z" fill="#FFBE44"/>
<path d="M19.1765 13.6401L16.2403 12.6695C16.0552 12.6023 15.8963 12.478 15.7866 12.3144C15.6768 12.1509 15.622 11.9567 15.6299 11.76C15.6299 11.6257 15.6299 11.4975 15.6299 11.3632C15.611 11.1584 15.6607 10.9531 15.7712 10.7796C15.8817 10.6062 16.0467 10.4743 16.2403 10.4048L19.1887 9.44034C19.3134 9.39888 19.4455 9.38473 19.5762 9.39887C19.7068 9.41301 19.8328 9.45509 19.9458 9.52227C20.0587 9.58944 20.1558 9.68013 20.2306 9.78818C20.3054 9.89622 20.356 10.0191 20.3791 10.1484C20.5225 11.0544 20.5225 11.9772 20.3791 12.8832C20.3626 13.0183 20.3163 13.148 20.2435 13.263C20.1706 13.378 20.073 13.4752 19.9579 13.5477C19.8427 13.6202 19.7128 13.6661 19.5776 13.6821C19.4425 13.6981 19.3054 13.6838 19.1765 13.6401Z" fill="#FFBE44"/>
<path d="M4.31895 9.46544L7.25513 10.4116C7.44133 10.4772 7.60135 10.6011 7.71135 10.765C7.82136 10.9289 7.87545 11.124 7.86556 11.3211C7.86556 11.4554 7.86556 11.5836 7.86556 11.7179C7.88408 11.9219 7.83413 12.1263 7.72359 12.2987C7.61305 12.4712 7.44822 12.6019 7.25513 12.6702L4.30674 13.6408C4.18206 13.6823 4.04992 13.6964 3.91929 13.6822C3.78867 13.6681 3.66262 13.626 3.5497 13.5589C3.43678 13.4917 3.33963 13.401 3.26487 13.293C3.1901 13.1849 3.13947 13.062 3.1164 12.9327C2.97292 12.0268 2.97292 11.1039 3.1164 10.198C3.13602 10.065 3.18467 9.93799 3.2589 9.82595C3.33313 9.71391 3.43111 9.6196 3.54589 9.54968C3.66066 9.47977 3.78943 9.43596 3.92303 9.4214C4.05663 9.40684 4.19181 9.42189 4.31895 9.46544Z" fill="#FFBE44"/>
<path d="M7.46859 17.9498L9.25105 15.4287C9.36872 15.2664 9.53579 15.1465 9.72727 15.0871C9.91874 15.0277 10.1243 15.0319 10.3132 15.099C10.4374 15.1421 10.5637 15.1788 10.6917 15.2089C10.8943 15.2539 11.076 15.3656 11.2077 15.5261C11.3394 15.6866 11.4135 15.8865 11.4181 16.094L11.4547 19.1951C11.4575 19.3267 11.4319 19.4575 11.3796 19.5783C11.3273 19.6992 11.2495 19.8074 11.1516 19.8955C11.0537 19.9835 10.9379 20.0495 10.8122 20.0887C10.6864 20.128 10.5537 20.1396 10.4231 20.1229C9.51393 19.9889 8.63197 19.7107 7.81043 19.2988C7.69189 19.2402 7.58746 19.1566 7.50432 19.0537C7.42119 18.9508 7.36132 18.8312 7.32884 18.703C7.29635 18.5748 7.29202 18.4411 7.31614 18.3111C7.34027 18.181 7.39228 18.0578 7.46859 17.9498Z" fill="#FFBE44"/>
<path d="M15.9775 5.28893L14.1951 7.78562C14.0774 7.94794 13.9103 8.06778 13.7189 8.1272C13.5274 8.18662 13.3218 8.18242 13.1329 8.11524C13.0047 8.07251 12.8827 8.03589 12.7545 8.00536C12.5518 7.96035 12.3701 7.84869 12.2384 7.68823C12.1068 7.52776 12.0327 7.32776 12.028 7.12023L11.9914 4.01926C11.9886 3.88758 12.0142 3.75682 12.0665 3.63595C12.1188 3.51507 12.1966 3.40692 12.2946 3.31885C12.3925 3.23077 12.5082 3.16484 12.634 3.12559C12.7597 3.08634 12.8924 3.07467 13.0231 3.09139C13.9322 3.22545 14.8142 3.50362 15.6357 3.91546C15.758 3.97354 15.8658 4.05804 15.9515 4.16281C16.0372 4.26758 16.0987 4.39003 16.1313 4.52138C16.164 4.65273 16.1672 4.7897 16.1406 4.92243C16.114 5.05515 16.0583 5.18031 15.9775 5.28893Z" fill="#FFBE44"/>
<path d="M14.6654 10.9896C14.6654 11.6372 14.4081 12.2582 13.9502 12.7162C13.4923 13.1741 12.8712 13.4313 12.2236 13.4313C11.684 13.4313 11.1663 13.2174 10.7841 12.8363C10.4019 12.4553 10.1864 11.9383 10.1848 11.3986C10.1848 10.9469 10.3642 10.5137 10.6836 10.1943C11.003 9.8749 11.4362 9.69548 11.8879 9.69548C12.2667 9.69548 12.6301 9.84597 12.8979 10.1139C13.1658 10.3817 13.3163 10.745 13.3163 11.1239H12.6326C12.6326 11.0261 12.6134 10.9292 12.5759 10.8389C12.5385 10.7485 12.4837 10.6664 12.4145 10.5973C12.3454 10.5281 12.2632 10.4733 12.1729 10.4359C12.0825 10.3984 11.9857 10.3792 11.8879 10.3792C11.6175 10.3792 11.3582 10.4866 11.1671 10.6777C10.9759 10.8689 10.8685 11.1282 10.8685 11.3986C10.8701 11.7575 11.0134 12.1013 11.2672 12.3551C11.521 12.6089 11.8647 12.7521 12.2236 12.7538C12.6964 12.7538 13.1498 12.5659 13.484 12.2317C13.8183 11.8974 14.0061 11.444 14.0061 10.9713C14.0077 10.3688 13.8015 9.7843 13.4223 9.31616C13.0431 8.84802 12.5142 8.52494 11.9245 8.40137H11.7597C11.1147 8.40137 10.4843 8.59269 9.94807 8.95114C9.41188 9.3096 8.99408 9.81905 8.74754 10.415C8.501 11.011 8.43681 11.6668 8.56309 12.2992C8.68936 12.9317 9.00042 13.5126 9.45691 13.9682C9.9134 14.4238 10.4948 14.7338 11.1275 14.8589C11.7602 14.984 12.4158 14.9186 13.0114 14.6709C13.6069 14.4232 14.1156 14.0045 14.473 13.4676C14.8305 12.9308 15.0206 12.3 15.0194 11.655C15.0197 11.0256 14.835 10.41 14.4883 9.88471C14.6128 10.2395 14.6728 10.6137 14.6654 10.9896Z" fill="#FFBE44"/>
<path d="M11.7547 17.7545C15.1126 17.7545 17.8346 15.0325 17.8346 11.6746C17.8346 8.3168 15.1126 5.59473 11.7547 5.59473C8.39687 5.59473 5.6748 8.3168 5.6748 11.6746C5.6748 15.0325 8.39687 17.7545 11.7547 17.7545Z" fill="#D8962B"/>
<path d="M11.7479 8.31682C11.8159 8.31269 11.8841 8.32236 11.9483 8.34521C12.0125 8.36805 12.0715 8.40359 12.1216 8.44975C12.1718 8.49592 12.2121 8.55176 12.2402 8.61387C12.2683 8.67599 12.2835 8.74312 12.2851 8.81126C12.1544 9.41893 11.9747 10.015 11.7479 10.5937C11.5051 10.019 11.327 9.41918 11.2168 8.80515C11.2165 8.73726 11.2304 8.67009 11.2576 8.60787C11.2848 8.54566 11.3246 8.48978 11.3746 8.44383C11.4246 8.39787 11.4836 8.36283 11.5478 8.34096C11.6121 8.31909 11.6802 8.31087 11.7479 8.31682Z" fill="#FFBE44"/>
<path d="M11.7479 15.0193C11.6801 15.0235 11.6122 15.0138 11.5484 14.9909C11.4845 14.968 11.4259 14.9323 11.3762 14.8861C11.3266 14.8398 11.2868 14.784 11.2594 14.7219C11.232 14.6598 11.2175 14.5927 11.2168 14.5249C11.3467 13.9197 11.5243 13.3257 11.7479 12.7485C11.9926 13.3209 12.1727 13.9187 12.2851 14.531C12.2845 14.5992 12.2698 14.6665 12.2419 14.7287C12.2141 14.7909 12.1737 14.8468 12.1232 14.8926C12.0728 14.9385 12.0134 14.9734 11.9488 14.9952C11.8842 15.017 11.8158 15.0252 11.7479 15.0193Z" fill="#FFBE44"/>
<path d="M15.0989 11.6688C15.1039 11.737 15.0949 11.8055 15.0724 11.8702C15.0499 11.9348 15.0143 11.9941 14.968 12.0444C14.9217 12.0947 14.8655 12.1351 14.803 12.1628C14.7405 12.1906 14.6729 12.2053 14.6045 12.206C13.9988 12.0754 13.4047 11.8957 12.8281 11.6688C13.4009 11.4267 13.9987 11.2486 14.6106 11.1377C14.6785 11.1374 14.7457 11.1513 14.8079 11.1785C14.8701 11.2057 14.926 11.2455 14.9719 11.2955C15.0179 11.3455 15.0529 11.4045 15.0748 11.4687C15.0967 11.533 15.1049 11.6011 15.0989 11.6688Z" fill="#FFBE44"/>
<path d="M8.39638 11.6688C8.39224 11.601 8.40192 11.5331 8.42483 11.4693C8.44774 11.4054 8.48341 11.3468 8.52965 11.2972C8.5759 11.2475 8.63177 11.2077 8.69386 11.1803C8.75595 11.1529 8.82296 11.1384 8.89083 11.1377C9.49627 11.2667 10.0903 11.4443 10.6672 11.6688C10.0952 11.9144 9.49722 12.0946 8.88473 12.206C8.81656 12.2054 8.74924 12.1907 8.68701 12.1628C8.62478 12.135 8.56899 12.0946 8.52312 12.0441C8.47726 11.9937 8.44233 11.9343 8.42052 11.8697C8.39871 11.8051 8.39049 11.7367 8.39638 11.6688Z" fill="#FFBE44"/>
<path d="M14.1164 9.29982C14.1657 9.34659 14.205 9.40291 14.2318 9.46536C14.2587 9.5278 14.2725 9.59508 14.2725 9.66305C14.2725 9.73101 14.2587 9.79825 14.2318 9.8607C14.205 9.92314 14.1657 9.97947 14.1164 10.0262C13.596 10.3634 13.0489 10.6574 12.4805 10.9053C12.7141 10.3289 13.011 9.78023 13.3656 9.2693C13.4136 9.21602 13.4728 9.17396 13.5389 9.14613C13.6051 9.11831 13.6765 9.1054 13.7482 9.10831C13.8198 9.11123 13.89 9.12991 13.9537 9.16301C14.0173 9.19611 14.0729 9.24281 14.1164 9.29982Z" fill="#FFBE44"/>
<path d="M9.37905 14.0361C9.32771 13.9914 9.28602 13.9368 9.25652 13.8755C9.22702 13.8142 9.21033 13.7475 9.20747 13.6795C9.20462 13.6115 9.21565 13.5436 9.23991 13.4801C9.26416 13.4165 9.30112 13.3585 9.34853 13.3097C9.87036 12.9749 10.4173 12.681 10.9845 12.4307C10.7512 13.0091 10.4543 13.5599 10.0994 14.0727C10.0511 14.1205 9.99346 14.1576 9.93006 14.1818C9.86666 14.206 9.79891 14.2167 9.73113 14.2133C9.66336 14.2098 9.59705 14.1923 9.53643 14.1618C9.47581 14.1313 9.42221 14.0885 9.37905 14.0361Z" fill="#FFBE44"/>
<path d="M14.1162 14.0373C14.0694 14.0866 14.0131 14.1259 13.9506 14.1527C13.8882 14.1796 13.8209 14.1934 13.753 14.1934C13.685 14.1934 13.6177 14.1796 13.5553 14.1527C13.4929 14.1259 13.4365 14.0866 13.3898 14.0373C13.0537 13.5162 12.7598 12.9692 12.5107 12.4014C13.0892 12.6347 13.6399 12.9315 14.1528 13.2865C14.2058 13.335 14.2474 13.3945 14.2747 13.4609C14.302 13.5272 14.3143 13.5988 14.3108 13.6705C14.3073 13.7422 14.2881 13.8123 14.2544 13.8757C14.2208 13.9391 14.1736 13.9942 14.1162 14.0373Z" fill="#FFBE44"/>
<path d="M9.37921 9.30103C9.4255 9.25091 9.48167 9.21091 9.54418 9.18356C9.60669 9.1562 9.67418 9.14209 9.74241 9.14209C9.81064 9.14209 9.87814 9.1562 9.94064 9.18356C10.0032 9.21091 10.0593 9.25091 10.1056 9.30103C10.4414 9.82015 10.7353 10.3652 10.9846 10.9309C10.4071 10.6998 9.85812 10.4028 9.34868 10.0458C9.2955 9.99832 9.25349 9.93965 9.22569 9.87402C9.19789 9.80839 9.18499 9.73742 9.1879 9.6662C9.19082 9.59498 9.20949 9.52527 9.24257 9.46213C9.27565 9.399 9.32231 9.34398 9.37921 9.30103Z" fill="#FFBE44"/>
<path d="M11.7537 12.108C11.9931 12.108 12.1871 11.914 12.1871 11.6746C12.1871 11.4353 11.9931 11.2412 11.7537 11.2412C11.5144 11.2412 11.3203 11.4353 11.3203 11.6746C11.3203 11.914 11.5144 12.108 11.7537 12.108Z" fill="#FFBE44"/>
</svg>
