<svg width="108" height="108" viewBox="0 0 108 108" fill="none" xmlns="http://www.w3.org/2000/svg">
<g style="mix-blend-mode:luminosity">
<path d="M25.2305 46.4797C26.0325 44.3871 27.454 42.589 29.305 41.3258C31.1561 40.0626 33.3486 39.3944 35.5896 39.4104C37.8306 39.4265 40.0133 40.1261 41.8461 41.4157C43.6789 42.7053 45.0745 44.5235 45.8464 46.6274C45.8464 46.6274 40.8832 50.3108 35.4523 50.3108C28.7006 50.2944 25.2305 46.4797 25.2305 46.4797Z" fill="#7360FC"/>
<path d="M71.1268 45.9766H67.3203V78.0367H71.1268V45.9766Z" fill="#00C7BA"/>
<path d="M67.3203 53.1876C68.5738 53.4911 69.8816 53.4911 71.135 53.1876V45.9766H67.3203V53.1876Z" fill="#4420D8"/>
<path d="M69.2264 51.8942C73.7481 51.8942 77.4137 48.2286 77.4137 43.7069C77.4137 39.1851 73.7481 35.5195 69.2264 35.5195C64.7047 35.5195 61.0391 39.1851 61.0391 43.7069C61.0391 48.2286 64.7047 51.8942 69.2264 51.8942Z" fill="#E01B6B"/>
<path d="M67.0859 37.973C67.839 37.6916 68.6401 37.5614 69.4434 37.5897C70.2468 37.6181 71.0368 37.8044 71.7681 38.1381C72.4995 38.4718 73.1579 38.9462 73.7058 39.5345C74.2538 40.1227 74.6805 40.8131 74.9615 41.5662" stroke="#FF2475" stroke-miterlimit="10" stroke-linecap="round"/>
<path d="M91.9998 90.8757C91.8874 84.9982 89.4737 79.3994 85.2774 75.2825C81.081 71.1656 75.4371 68.8594 69.5585 68.8594C63.6799 68.8594 58.036 71.1656 53.8396 75.2825C49.6433 79.3994 47.2296 84.9982 47.1172 90.8757H91.9998Z" fill="#7360FC"/>
<path d="M69.2274 76.5954C69.4078 76.6105 69.5894 76.5881 69.7607 76.5297C69.9317 76.4739 70.0884 76.3815 70.2201 76.259C70.3517 76.1361 70.4577 75.9883 70.5318 75.8242C70.6144 75.6755 70.662 75.51 70.6713 75.3402C70.3297 73.7455 69.8577 72.1816 69.2603 70.6641C68.6077 72.1647 68.1235 73.7329 67.8164 75.3402C67.8213 75.5182 67.8603 75.6937 67.9313 75.857C68.0038 76.0217 68.1098 76.1695 68.2426 76.291C68.3753 76.4124 68.5319 76.5049 68.7024 76.5625C68.8739 76.6057 69.0519 76.6168 69.2274 76.5954Z" fill="#FFEF9F"/>
<path d="M74.082 73.9883C77.1546 74.6267 79.9841 76.1208 82.2441 78.2981C84.5042 80.4754 86.1027 83.2472 86.8552 86.2939" stroke="#FFBE44" stroke-miterlimit="10" stroke-linecap="round"/>
<path d="M35.452 50.2946C44.577 50.2946 51.9743 42.8973 51.9743 33.7723C51.9743 24.6473 44.577 17.25 35.452 17.25C26.327 17.25 18.9297 24.6473 18.9297 33.7723C18.9297 42.8973 26.327 50.2946 35.452 50.2946Z" stroke="#00C7BA" stroke-width="2" stroke-miterlimit="10"/>
<path d="M31.1754 24.9363C30.9461 24.379 30.3084 24.1132 29.7512 24.3426C29.1939 24.5719 28.9281 25.2096 29.1574 25.7668L33.4661 36.236C33.6955 36.7932 34.3331 37.059 34.8904 36.8297C35.4476 36.6004 35.7134 35.9627 35.4841 35.4055L31.1754 24.9363Z" fill="#FF2475"/>
<path d="M63.244 14.695C65.9504 14.0546 66.9187 12.9187 66.9187 12.9187C67.7551 11.7651 68.2802 10.4155 68.4435 9L69.3126 9.23634C69.9454 11.9504 71.089 12.9187 71.089 12.9187C72.239 13.7563 73.5865 14.2816 75 14.4435L74.7637 15.305C72.0496 15.9454 71.089 17.0889 71.089 17.0889C70.2476 18.237 69.7219 19.5855 69.5642 21L68.695 20.7637C68.0546 18.0496 66.9187 17.0889 66.9187 17.0889C65.7673 16.2485 64.4166 15.723 63 15.5642L63.244 14.695Z" fill="#FFEF9F"/>
<path d="M16.3253 71.5934C19.9339 70.7395 21.2249 69.2249 21.2249 69.2249C22.3401 67.6868 23.0403 65.8873 23.2579 64L24.4168 64.3151C25.2605 67.9339 26.7853 69.2249 26.7853 69.2249C28.3187 70.3417 30.1153 71.0422 32 71.2579L31.6849 72.4066C28.0661 73.2605 26.7853 74.7853 26.7853 74.7853C25.6635 76.3159 24.9625 78.1139 24.7522 80L23.5934 79.6849C22.7395 76.0661 21.2249 74.7853 21.2249 74.7853C19.6897 73.6647 17.8888 72.964 16 72.7522L16.3253 71.5934Z" fill="white"/>
<path d="M64.7012 73.0343C64.6205 72.7332 64.3111 72.5545 64.01 72.6352C63.7089 72.7159 63.5302 73.0253 63.6109 73.3264L64.4222 76.3541C64.5029 76.6552 64.8123 76.8339 65.1134 76.7532C65.4145 76.6725 65.5932 76.363 65.5125 76.062L64.7012 73.0343Z" fill="#FFBE44"/>
<path d="M60.2363 74.7213C60.0804 74.4513 59.7353 74.3588 59.4653 74.5147C59.1954 74.6705 59.1029 75.0157 59.2588 75.2856L60.826 78.0002C60.9819 78.2702 61.327 78.3626 61.597 78.2068C61.8669 78.0509 61.9594 77.7058 61.8036 77.4358L60.2363 74.7213Z" fill="#FFBE44"/>
<path d="M56.3613 77.5033C56.1409 77.2829 55.7835 77.2829 55.5631 77.5033C55.3427 77.7237 55.3427 78.081 55.5631 78.3014L57.7796 80.5179C58 80.7383 58.3573 80.7383 58.5777 80.5179C58.7981 80.2974 58.7981 79.9401 58.5777 79.7197L56.3613 77.5033Z" fill="#FFBE44"/>
<path d="M53.3305 81.1992C53.0606 81.0433 52.7154 81.1358 52.5595 81.4058C52.4037 81.6757 52.4962 82.0209 52.7661 82.1767L55.4807 83.744C55.7506 83.8998 56.0958 83.8073 56.2516 83.5374C56.4075 83.2675 56.315 82.9223 56.0451 82.7664L53.3305 81.1992Z" fill="#FFBE44"/>
<path d="M51.6534 85.5518C51.3511 85.4708 51.0403 85.6502 50.9592 85.9525C50.8782 86.2549 51.0576 86.5657 51.36 86.6467L54.4004 87.4617C54.7028 87.5428 55.0136 87.3633 55.0946 87.061C55.1757 86.7586 54.9962 86.4478 54.6939 86.3668L51.6534 85.5518Z" fill="#FFBE44"/>
</g>
</svg>
