<svg width="24" height="24" viewBox="0 0 24 24" fill="none" xmlns="http://www.w3.org/2000/svg">
<path d="M12 0.519531C18.3439 0.519531 23.48 5.65567 23.48 11.9995C23.48 18.3434 18.3439 23.4795 12 23.4795C5.65616 23.4795 0.52002 18.3434 0.52002 11.9995C0.52002 5.65567 5.65616 0.519531 12 0.519531Z" fill="#38336D" stroke="#FFBE44"/>
<path d="M13.24 7.83203L10.77 16.162L13.24 7.83203Z" fill="#373382"/>
<path d="M8.7999 9.30922L8.2099 8.69922C7.6199 9.26922 5.3099 11.5992 5.2099 11.6992L4.8999 11.9992L8.1999 15.2992L8.8099 14.6892L6.1099 11.9992C6.7799 11.3292 8.3499 9.75922 8.7999 9.30922Z" fill="#FFBE44" stroke="#FFBE44" stroke-width="0.5"/>
<path d="M15.7999 8.69922L15.1899 9.30922L17.8899 11.9992C17.2299 12.6692 15.6599 14.2392 15.1999 14.6892L15.7999 15.2992C16.3899 14.7292 18.6999 12.3992 18.7999 12.2992L19.0999 11.9992L15.7999 8.69922Z" fill="#FFBE44" stroke="#FFBE44" stroke-width="0.5"/>
<path d="M12.9418 7.31553L10.2324 16.4414L11.0568 16.6862L13.7662 7.56029L12.9418 7.31553Z" fill="#FFBE44" stroke="#FFBE44" stroke-width="0.5"/>
</svg>
