<svg width="108" height="108" viewBox="0 0 108 108" fill="none" xmlns="http://www.w3.org/2000/svg">
<g style="mix-blend-mode:luminosity">
<rect width="90.3863" height="90.7403" rx="2" transform="matrix(-1 0 0 1 94.3867 9)" fill="#2E2688"/>
<path d="M90.0767 99.7422L102.796 99.7422C103.241 99.7422 103.464 99.2046 103.15 98.8893L90.4309 86.1199C90.1162 85.804 89.5767 86.0269 89.5767 86.4728L89.5767 99.2422C89.5767 99.5183 89.8005 99.7422 90.0767 99.7422Z" fill="#2E2688"/>
<path d="M28.9129 45.6545C36.1977 45.6545 42.1032 39.7419 42.1032 32.4484C42.1032 25.1548 36.1977 19.2422 28.9129 19.2422C21.6281 19.2422 15.7227 25.1548 15.7227 32.4484C15.7227 39.7419 21.6281 45.6545 28.9129 45.6545Z" fill="#080345"/>
<path d="M28.3152 45.0608C35.6 45.0608 41.5055 39.1482 41.5055 31.8546C41.5055 24.561 35.6 18.6484 28.3152 18.6484C21.0305 18.6484 15.125 24.561 15.125 31.8546C15.125 39.1482 21.0305 45.0608 28.3152 45.0608Z" fill="#00C7BA"/>
<path opacity="0.3" d="M40.6645 27.1836L18.4609 40.6195C22.1702 44.8073 28.2905 46.3167 33.6729 43.9261C40.1068 41.0732 43.1306 33.6922 40.6645 27.1836Z" fill="#17144F"/>
<path d="M31.6416 37.7695H24.9986C22.9101 37.7695 21.1992 39.4825 21.1992 41.5735V42.9723C23.2528 44.2926 25.6957 45.0604 28.3186 45.0604C30.9416 45.0604 33.3844 44.2926 35.4381 42.9723V41.5735C35.441 39.4825 33.7301 37.7695 31.6416 37.7695Z" fill="#B59FFF"/>
<path d="M34.0082 29.299C34.717 27.6587 34.2522 25.78 32.6924 24.5557C31.545 23.6541 30.0056 23.1016 28.3208 23.1016C26.4705 23.1016 24.7974 23.7675 23.6239 24.8319C22.2674 26.0621 21.9189 27.8274 22.6015 29.3658C22.4127 29.8108 22.3081 30.2994 22.3081 30.8141C22.3081 32.8586 23.9638 34.5163 26.0058 34.5163C26.883 34.5163 27.6847 34.2109 28.3179 33.6991C28.9511 34.208 29.7558 34.5163 30.6301 34.5163C32.6721 34.5163 34.3278 32.8586 34.3278 30.8141C34.3336 30.2732 34.2145 29.7614 34.0082 29.299Z" fill="#373382"/>
<path d="M28.5883 38.576H28.0742C26.9471 38.576 26.0234 38.6197 26.0234 37.7676V35.3188C26.0234 34.6267 26.5899 34.0625 27.2783 34.0625H29.3813C30.0726 34.0625 30.6361 34.6296 30.6361 35.3188V37.7676C30.639 38.6168 29.7153 38.576 28.5883 38.576Z" fill="white"/>
<path opacity="0.3" d="M26.0234 36.4938V35.3188C26.0234 34.6267 26.5899 34.0625 27.2783 34.0625H29.3813C30.0726 34.0625 30.6361 34.6296 30.6361 35.3188V37.3342L26.0234 36.4938Z" fill="#7360FC"/>
<path d="M28.3299 35.9002C26.0091 35.9002 24.1094 33.9983 24.1094 31.6746V27.4228C24.1094 25.0992 26.0091 24.7734 28.3299 24.7734C30.6508 24.7734 32.5504 25.0992 32.5504 27.4228V31.6746C32.5533 33.9983 30.6537 35.9002 28.3299 35.9002Z" fill="#B59FFF"/>
<path d="M30.1247 32.0717C29.9969 31.935 29.8168 31.8594 29.628 31.8594H28.3877H28.3034H27.0689C26.8772 31.8594 26.6942 31.9408 26.5664 32.0804L25.3203 33.4356L25.7328 33.8719L27.1328 32.5254H28.3238H28.3644H29.5554L31.0019 33.8719L31.4144 33.4356L30.1247 32.0717Z" fill="#373382"/>
<path d="M31.895 25.6206H24.793L25.8241 20.9297H30.8609L31.895 25.6206Z" fill="#FFBE44"/>
<path d="M32.5402 37.8846C32.4821 40.1297 30.6463 41.9357 28.3894 41.9357C26.1208 41.9357 24.2792 40.1151 24.2385 37.8555C22.5131 38.2132 21.2031 39.7516 21.2031 41.5809V42.9797C23.2568 44.3001 25.6996 45.0678 28.3226 45.0678C30.9455 45.0678 33.3884 44.3001 35.442 42.9797V41.5809C35.442 39.7952 34.1988 38.2917 32.5402 37.8846Z" fill="#FF2475"/>
<path d="M28.3968 41.9275C27.8449 41.9275 27.322 41.8198 26.8398 41.625C26.9909 42.7563 27.1419 43.8876 27.293 45.0189C27.6357 45.0451 27.9814 45.0596 28.33 45.0596C28.6756 45.0596 29.0155 45.0451 29.3524 45.0189C29.4337 43.8789 29.579 42.7563 29.8114 41.6803C29.3727 41.8402 28.8964 41.9275 28.3968 41.9275Z" fill="#FFBE44"/>
<path d="M23.8984 32.3394H24.6972L26.8264 34.3722C27.0181 34.5322 27.3115 34.4653 27.4131 34.2384L27.7414 33.5172H28.9671L29.2082 34.1861C29.2983 34.4333 29.6062 34.5176 29.8066 34.349L31.9474 32.1445H32.8769L31.5146 41.2036C31.2996 41.73 30.7477 42.0761 30.1261 42.0761H26.472C25.8243 42.0761 25.2549 41.6951 25.0603 41.1367L23.8984 32.3394Z" fill="#373382"/>
<path d="M70.8245 89.1184C78.1445 89.1184 84.0786 83.1772 84.0786 75.8483C84.0786 68.5194 78.1445 62.5781 70.8245 62.5781C63.5044 62.5781 57.5703 68.5194 57.5703 75.8483C57.5703 83.1772 63.5044 89.1184 70.8245 89.1184Z" fill="#080345"/>
<path d="M70.2268 88.5247C77.5469 88.5247 83.481 82.5834 83.481 75.2545C83.481 67.9256 77.5469 61.9844 70.2268 61.9844C62.9067 61.9844 56.9727 67.9256 56.9727 75.2545C56.9727 82.5834 62.9067 88.5247 70.2268 88.5247Z" fill="#FFBE44"/>
<path opacity="0.3" d="M82.6381 70.5625L60.3242 84.0653C64.051 88.2735 70.2031 89.7887 75.6117 87.3894C82.0775 84.519 85.1159 77.1031 82.6381 70.5625Z" fill="#17144F"/>
<path d="M73.5621 81.1953H66.8871C64.787 81.1953 63.0703 82.9141 63.0703 85.0167V86.4214C65.1356 87.7504 67.59 88.5182 70.2246 88.5182C72.8592 88.5182 75.3165 87.7475 77.3789 86.4214V85.0167C77.3818 82.917 75.6622 81.1953 73.5621 81.1953Z" fill="#B59FFF"/>
<path d="M66.8871 81.1953C64.787 81.1953 63.0703 82.9141 63.0703 85.0167C63.0703 85.0167 63.7849 86.2905 64.3164 87.131C66.097 88.0209 68.1042 88.5211 70.2275 88.5211C72.8621 88.5211 75.3194 87.7504 77.3818 86.4243L66.8871 81.1953Z" fill="#FF2475"/>
<path d="M63.0703 85.0234C63.0703 85.0234 63.7849 86.2972 64.3164 87.1376C65.182 87.571 66.0999 87.9083 67.0614 88.1439C65.7223 86.7363 64.45 85.2735 63.3143 83.6914C63.1575 84.1073 63.0703 84.5551 63.0703 85.0234Z" fill="#FFBE44"/>
<path opacity="0.25" d="M67.8594 85.0547C69.2478 86.0987 70.4591 87.3202 71.6965 88.4428C72.0799 88.3991 72.4546 88.341 72.8264 88.2683C71.1417 87.1864 69.5615 85.9999 67.8594 85.0547Z" fill="#373382"/>
<path d="M66.8952 81.1953C66.5728 81.1953 66.2591 81.236 65.957 81.3116C67.1421 81.9165 68.2227 82.7308 69.495 83.4172C71.6532 84.595 73.6806 85.9677 75.7488 87.32C76.3181 87.0583 76.8642 86.7587 77.387 86.4214L66.8952 81.1953Z" fill="#FFBE44"/>
<path d="M75.1605 74.3891L75.483 73.8598C76.7872 71.7136 76.456 68.9217 74.6232 67.203C73.47 66.124 71.9247 65.4609 70.2313 65.4609C68.3723 65.4609 66.6904 66.2607 65.5111 67.5345C63.9426 69.23 63.7131 71.7717 64.8605 73.7784L65.2439 74.4502C64.5903 75.122 64.1866 76.0352 64.1866 77.0472C64.1866 79.1033 65.851 80.7697 67.9046 80.7697C68.7847 80.7697 69.5922 80.4615 70.2284 79.9496C70.8645 80.4615 71.672 80.7697 72.5521 80.7697C74.6057 80.7697 76.2701 79.1033 76.2701 77.0472C76.2701 76.0032 75.8461 75.0667 75.1605 74.3891Z" fill="#373382"/>
<path d="M70.4876 82.0124H69.9735C68.8407 82.0124 67.9141 82.056 67.9141 81.201V78.7377C67.9141 78.0427 68.4834 77.4727 69.1776 77.4727H71.2893C71.9835 77.4727 72.5529 78.0427 72.5529 78.7377V81.201C72.547 82.056 71.6205 82.0124 70.4876 82.0124Z" fill="#B59FFF"/>
<path opacity="0.3" d="M67.9141 79.9224V78.7416C67.9141 78.0466 68.4834 77.4766 69.1776 77.4766H71.2893C71.9835 77.4766 72.5529 78.0466 72.5529 78.7416V80.7687L67.9141 79.9224Z" fill="#7360FC"/>
<path d="M70.2331 79.3182C67.9006 79.3182 65.9922 77.4075 65.9922 75.0723V70.8001C65.9922 68.4648 67.9006 67.668 70.2331 67.668C72.5655 67.668 74.4739 68.4648 74.4739 70.8001V75.0723C74.4768 77.4075 72.5655 79.3182 70.2331 79.3182Z" fill="#B59FFF"/>
<path d="M74.9326 70.8029H65.1641L66.2795 67.6388L73.7911 67.5195L74.9326 70.8029Z" fill="#373382"/>
<path d="M74.4768 69.9766H65.9922V70.8781H74.4768V69.9766Z" fill="#FF2475"/>
<path d="M39.2773 41.4883L60.3354 63.1926" stroke="#6C679D" stroke-width="0.3" stroke-dasharray="1 1"/>
<rect x="48.168" y="23.7656" width="36.4553" height="18.299" rx="2" fill="#7360FC"/>
<path d="M49.7502 23.7656H46.2233C45.7783 23.7656 45.555 24.3032 45.8691 24.6185L49.3959 28.1592C49.7106 28.4751 50.2502 28.2522 50.2502 27.8063V24.2656C50.2502 23.9895 50.0263 23.7656 49.7502 23.7656Z" fill="#7360FC"/>
<rect width="36.4553" height="18.299" rx="2" transform="matrix(-1 0 0 1 51.582 66.0469)" fill="#7360FC"/>
<path d="M49.9998 66.0469H53.5267C53.9717 66.0469 54.195 66.5845 53.8809 66.8997L50.3541 70.4404C50.0394 70.7563 49.4998 70.5335 49.4998 70.0876V66.5469C49.4998 66.2707 49.7237 66.0469 49.9998 66.0469Z" fill="#7360FC"/>
<path d="M27.3818 71.446C27.8536 71.446 28.2362 71.062 28.2362 70.5882C28.2362 70.1145 27.8536 69.7305 27.3818 69.7305C26.9099 69.7305 26.5273 70.1145 26.5273 70.5882C26.5273 71.062 26.9099 71.446 27.3818 71.446Z" fill="#00C7BA"/>
<path d="M30.2294 71.446C30.7013 71.446 31.0838 71.062 31.0838 70.5882C31.0838 70.1145 30.7013 69.7305 30.2294 69.7305C29.7575 69.7305 29.375 70.1145 29.375 70.5882C29.375 71.062 29.7575 71.446 30.2294 71.446Z" fill="#00C7BA"/>
<path d="M33.0732 71.446C33.5451 71.446 33.9276 71.062 33.9276 70.5882C33.9276 70.1145 33.5451 69.7305 33.0732 69.7305C32.6013 69.7305 32.2188 70.1145 32.2188 70.5882C32.2188 71.062 32.6013 71.446 33.0732 71.446Z" fill="#00C7BA"/>
<path d="M21.1061 75.2318C22.7569 75.2318 24.0951 73.8883 24.0951 72.2311C24.0951 70.5739 22.7569 69.2305 21.1061 69.2305C19.4554 69.2305 18.1172 70.5739 18.1172 72.2311C18.1172 73.8883 19.4554 75.2318 21.1061 75.2318Z" fill="#00C7BA"/>
<path d="M39.8167 73.3945H26.4453V75.4615H39.8167V73.3945Z" fill="#4420D8"/>
<path d="M53.7819 33.1732C55.4327 33.1732 56.7708 31.8297 56.7708 30.1725C56.7708 28.5153 55.4327 27.1719 53.7819 27.1719C52.1312 27.1719 50.793 28.5153 50.793 30.1725C50.793 31.8297 52.1312 33.1732 53.7819 33.1732Z" fill="#00C7BA"/>
<path d="M72.93 27.1641H59.5586V29.2311H72.93V27.1641Z" fill="#4420D8"/>
<path d="M80.1429 30.3242H59.5586V32.3912H80.1429V30.3242Z" fill="#4420D8"/>
</g>
</svg>
