<svg width="16" height="16" viewBox="0 0 16 16" fill="none" xmlns="http://www.w3.org/2000/svg">
<path d="M6.65898 6.77344C6.22469 6.77344 5.88184 7.15439 5.88184 7.61915C5.88184 8.08391 6.23231 8.46487 6.65898 8.46487C7.09326 8.46487 7.43612 8.08391 7.43612 7.61915C7.44374 7.15439 7.09326 6.77344 6.65898 6.77344ZM9.43993 6.77344C9.00565 6.77344 8.66279 7.15439 8.66279 7.61915C8.66279 8.08391 9.01326 8.46487 9.43993 8.46487C9.87422 8.46487 10.2171 8.08391 10.2171 7.61915C10.2171 7.15439 9.87422 6.77344 9.43993 6.77344Z" fill="white"/>
<path d="M13.1428 0.382812H2.93324C2.07229 0.382812 1.37134 1.08376 1.37134 1.95234V12.2533C1.37134 13.1219 2.07229 13.8228 2.93324 13.8228H11.5732L11.1694 12.4133L12.1447 13.32L13.0666 14.1733L14.7047 15.6209V1.95234C14.7047 1.08376 14.0037 0.382812 13.1428 0.382812ZM10.2018 10.3333C10.2018 10.3333 9.92753 10.0057 9.69896 9.71615C10.6971 9.43424 11.078 8.80948 11.078 8.80948C10.7656 9.01519 10.4685 9.15996 10.2018 9.259C9.82086 9.419 9.45515 9.52567 9.09705 9.58662C8.36562 9.72377 7.69515 9.68567 7.12372 9.579C6.68943 9.49519 6.3161 9.37329 6.00372 9.25138C5.82848 9.18281 5.63801 9.099 5.44753 8.99234C5.42467 8.9771 5.40181 8.96948 5.37896 8.95424C5.36372 8.94662 5.3561 8.939 5.34848 8.93138C5.21134 8.85519 5.13515 8.80186 5.13515 8.80186C5.13515 8.80186 5.50086 9.41138 6.46848 9.70091C6.23991 9.99043 5.95801 10.3333 5.95801 10.3333C4.2742 10.28 3.6342 9.17519 3.6342 9.17519C3.6342 6.72186 4.73134 4.73329 4.73134 4.73329C5.82848 3.91043 6.87229 3.93329 6.87229 3.93329L6.94848 4.02472C5.57705 4.42091 4.94467 5.02281 4.94467 5.02281C4.94467 5.02281 5.11229 4.93138 5.3942 4.80186C6.20943 4.44377 6.85705 4.34472 7.12372 4.32186C7.16943 4.31424 7.20753 4.30662 7.25324 4.30662C7.71801 4.24567 8.24372 4.23043 8.79229 4.29138C9.5161 4.37519 10.2932 4.58853 11.0856 5.02281C11.0856 5.02281 10.4837 4.45138 9.18848 4.05519L9.29515 3.93329C9.29515 3.93329 10.339 3.91043 11.4361 4.73329C11.4361 4.73329 12.5332 6.72186 12.5332 9.17519C12.5332 9.17519 11.8856 10.28 10.2018 10.3333Z" fill="white"/>
</svg>
