<svg width="92" height="92" viewBox="0 0 92 92" fill="none" xmlns="http://www.w3.org/2000/svg">
<path d="M46 92C71.4051 92 92 71.4051 92 46C92 20.5949 71.4051 0 46 0C20.5949 0 0 20.5949 0 46C0 71.4051 20.5949 92 46 92Z" fill="#FF3F25"/>
<path opacity="0.2" d="M71.6554 31.2379L67.3064 26.7006L48.1955 44.9961L29.9 25.8643L25.3627 30.1924L43.6582 49.3243L24.5264 67.6197L28.8755 72.1361L47.9864 53.8615L66.2818 72.9725L70.8191 68.6443L52.5236 49.5124L71.6554 31.2379Z" fill="#373382"/>
<path d="M69.5646 29.1471L65.2156 24.6098L46.1046 42.9053L27.8092 23.7734L23.2719 28.1016L41.5674 47.2334L22.4355 65.5289L26.7846 70.0453L45.8956 51.7707L64.191 70.8816L68.7283 66.5534L50.4328 47.4216L69.5646 29.1471Z" fill="#373382"/>
</svg>
