<svg width="26" height="30" viewBox="0 0 26 30" fill="none" xmlns="http://www.w3.org/2000/svg">
<g clip-path="url(#clip0)" filter="url(#filter0_d)">
<path d="M19.8099 24.5C19.9399 24.36 20.0699 24.2 20.1899 24.05C25.3099 17.54 18.4299 6.39 17.3199 4.87C17.2999 6.56 16.9699 8.06 16.7099 8.96C14.8099 6.06 12.7099 3.66 11.1999 3C11.0999 5.94 10.5199 8.2 9.71994 10.03C9.15994 8.06 8.17994 6.8 8.17994 6.8C7.47994 11.6 5.58994 15.77 4.81994 17.32C4.27994 18.2 3.93994 19.1 3.93994 20.15C3.93994 24.85 7.84994 27 12.6699 27C15.5899 27 18.1699 26.21 19.7499 24.55C19.7699 24.54 19.7899 24.52 19.8099 24.5Z" fill="#FF3F25"/>
<path opacity="0.35" d="M13.0698 7.55005C13.0698 10.3 13.5098 12.67 12.4598 14.31C12.0698 12.98 10.6098 12.28 9.62977 11.98C9.84977 15.59 8.36977 18.35 6.95977 20.59C6.44977 21.22 6.00977 23.15 6.00977 23.71C6.00977 26.18 9.41976 27.0201 12.3998 27.0201C15.3798 27.0201 19.0998 25.88 19.8298 22.51C21.1298 16.48 16.5998 9.57005 13.0698 7.55005Z" fill="#FFBE44"/>
<path d="M13.8799 15C13.4999 16.76 12.9199 18.16 12.2999 19.3C12.0699 18.37 11.6999 17.5 11.1199 17.28C11.2499 19.81 10.1999 21.85 9.34986 23.42C9.04986 23.86 8.85986 24.25 8.85986 24.64C8.85986 26.37 10.8899 26.96 12.6599 26.96C14.4299 26.96 16.6499 26.16 17.0799 23.8C17.8599 19.59 15.9899 16.42 13.8799 15Z" fill="#FFBE44"/>
</g>
<defs>
<filter id="filter0_d" x="-2" y="0" width="30" height="30" filterUnits="userSpaceOnUse" color-interpolation-filters="sRGB">
<feFlood flood-opacity="0" result="BackgroundImageFix"/>
<feColorMatrix in="SourceAlpha" type="matrix" values="0 0 0 0 0 0 0 0 0 0 0 0 0 0 0 0 0 0 127 0"/>
<feOffset/>
<feGaussianBlur stdDeviation="1.5"/>
<feColorMatrix type="matrix" values="0 0 0 0 0.0313726 0 0 0 0 0.0117647 0 0 0 0 0.270588 0 0 0 0.7 0"/>
<feBlend mode="normal" in2="BackgroundImageFix" result="effect1_dropShadow"/>
<feBlend mode="normal" in="SourceGraphic" in2="effect1_dropShadow" result="shape"/>
</filter>
<clipPath id="clip0">
<rect width="24" height="24" fill="white" transform="translate(1 3)"/>
</clipPath>
</defs>
</svg>
