<svg width="28" height="45" viewBox="0 0 28 45" fill="none" xmlns="http://www.w3.org/2000/svg">
<path d="M0.362305 22.307L13.7587 30.3279L27.1645 22.3164L13.7541 14.2861L0.362305 22.307Z" fill="#B9E300"/>
<path d="M0.370672 36.7685L13.7531 44.7848L13.7578 30.3285L0.361328 22.3076L0.370672 36.7685Z" fill="white"/>
<path d="M3.03886 38.4093L11.0711 43.2171V38.2973C11.0711 35.3921 9.54316 32.7014 7.04797 31.2091C5.28172 30.1505 3.02951 31.4236 3.03419 33.4801L3.03886 38.4093Z" fill="#B9E300"/>
<path opacity="0.3" d="M3.03886 38.4093L11.0711 43.2171V38.2973C11.0711 35.3921 9.54316 32.7014 7.04797 31.2091C5.28172 30.1505 3.02951 31.4236 3.03419 33.4801L3.03886 38.4093Z" fill="#160E6B"/>
<path d="M3.03865 38.4093L9.99153 34.2263C9.29998 33.0045 8.29069 31.9552 7.0431 31.2091C5.27684 30.1505 3.02463 31.4236 3.0293 33.4801L3.03865 38.4093Z" fill="#080345"/>
<path d="M27.14 36.753L13.7529 44.7833L13.7576 30.327L27.1634 22.3154L27.14 36.753Z" fill="#4420D8"/>
<path opacity="0.2" d="M4.93652 22.3112L13.3987 27.3895L21.8655 22.3112L13.4407 17.2422L4.93652 22.3112Z" fill="#160E6B"/>
<path d="M21.7346 5.82617L13.4033 10.8532V19.8721L21.7346 14.845V5.82617Z" fill="#4420D8"/>
<path d="M21.7346 5.82678L13.4033 10.8538V0.860352L21.7346 5.82678Z" fill="#B9E300"/>
<path opacity="0.3" d="M21.7346 5.82678L13.4033 10.8538V0.860352L21.7346 5.82678Z" fill="#160E6B"/>
<path d="M5.06738 5.82617L13.4034 10.8532V19.8721L5.06738 14.845V5.82617Z" fill="white"/>
<path d="M5.06738 5.82775L13.4034 10.8548V0.861328L5.06738 5.82775Z" fill="#B9E300"/>
<path d="M8.08594 12.6726V14.5053L9.90359 15.5825V12.4814C9.29615 12.5327 8.68871 12.5934 8.08594 12.6726Z" fill="#4C1ADC"/>
<path d="M9.90359 13.4232L8.08594 14.505V11.2221C8.08594 10.7604 8.59526 10.4759 8.9971 10.7138V10.9003V10.7138C9.56249 11.0495 9.90826 11.6511 9.90826 12.2993V13.4232H9.90359Z" fill="#080345"/>
</svg>
