<svg width="28" height="30" viewBox="0 0 28 30" fill="none" xmlns="http://www.w3.org/2000/svg">
<g clip-path="url(#clip0)" filter="url(#filter0_d)">
<path d="M23.7598 3H22.4798C21.9798 3 21.5698 3.41 21.5698 3.91V4.65H20.1098V3.91C20.1098 3.41 19.6998 3 19.1998 3H17.9198C17.4198 3 17.0098 3.41 17.0098 3.91V4.65H15.5498V3.91C15.5498 3.41 15.1398 3 14.6398 3H13.3598C12.8598 3 12.4498 3.41 12.4498 3.91V4.65H10.9998V3.91C10.9998 3.41 10.5998 3 10.0998 3H8.81984C8.31984 3 7.90984 3.41 7.90984 3.91V4.65H6.44984V3.91C6.44984 3.41 6.03984 3 5.53984 3H4.25984C3.75984 3 3.34984 3.41 3.34984 3.91V4.65H3.33984V26.14C3.33984 26.62 3.72984 27.01 4.20984 27.01H8.81984V16.94C8.81984 14.07 11.1498 11.74 14.0198 11.74C16.8898 11.74 19.2198 14.07 19.2198 16.94V27H23.7598C24.2698 27 24.6798 26.59 24.6798 26.08V5.78V4.64V3.91C24.6598 3.41 24.2598 3 23.7598 3Z" fill="#7360FC"/>
<path d="M14.0101 11.75C11.1401 11.75 8.81006 14.08 8.81006 16.95V27C9.12006 27 9.37006 26.75 9.37006 26.44V17.16C9.37006 14.65 11.3201 12.51 13.8301 12.42C16.4701 12.33 18.6301 14.44 18.6301 17.05V26.54C18.6301 26.8 18.8401 27 19.0901 27H19.1901V16.94C19.2101 14.07 16.8801 11.75 14.0101 11.75Z" fill="#FFBE44"/>
<path opacity="0.25" d="M14.0101 11.75C11.1401 11.75 8.81006 14.08 8.81006 16.95V27C9.12006 27 9.37006 26.75 9.37006 26.44V17.16C9.37006 14.65 11.3201 12.51 13.8301 12.42C16.4701 12.33 18.6301 14.44 18.6301 17.05V26.47C18.6301 26.77 18.8701 27.01 19.1701 27.01H19.2001V16.94C19.2101 14.07 16.8801 11.75 14.0101 11.75Z" fill="#373382"/>
<path d="M24.6698 6.12988H3.33984V7.56988H24.6698V6.12988Z" fill="#FFBE44"/>
<path d="M20.6698 25.56V16.94C20.6698 13.27 17.6798 10.28 14.0098 10.28C10.3398 10.28 7.34984 13.27 7.34984 16.94V25.56H3.33984V26.15C3.33984 26.62 3.71984 27 4.18984 27H8.13984H8.81984V16.94C8.81984 14.07 11.1498 11.74 14.0198 11.74C16.8898 11.74 19.2198 14.07 19.2198 16.94V27H19.8698H23.8598C24.3098 27 24.6698 26.64 24.6698 26.19V25.56H20.6698Z" fill="#FFBE44"/>
</g>
<defs>
<filter id="filter0_d" x="-1" y="0" width="30" height="30" filterUnits="userSpaceOnUse" color-interpolation-filters="sRGB">
<feFlood flood-opacity="0" result="BackgroundImageFix"/>
<feColorMatrix in="SourceAlpha" type="matrix" values="0 0 0 0 0 0 0 0 0 0 0 0 0 0 0 0 0 0 127 0"/>
<feOffset/>
<feGaussianBlur stdDeviation="1.5"/>
<feColorMatrix type="matrix" values="0 0 0 0 0.0313726 0 0 0 0 0.0117647 0 0 0 0 0.270588 0 0 0 0.7 0"/>
<feBlend mode="normal" in2="BackgroundImageFix" result="effect1_dropShadow"/>
<feBlend mode="normal" in="SourceGraphic" in2="effect1_dropShadow" result="shape"/>
</filter>
<clipPath id="clip0">
<rect width="24" height="24" fill="white" transform="translate(2 3)"/>
</clipPath>
</defs>
</svg>
