<svg width="16" height="16" viewBox="0 0 16 16" fill="none" xmlns="http://www.w3.org/2000/svg">
<g clip-path="url(#clip0_7091_145861)">
<path d="M6.57134 5.02858C6.34277 6.62858 4.9142 8.68573 4.85705 8.80001C4.85705 8.80001 3.37134 7.65715 3.19991 6.97144C3.02848 6.28573 3.94277 5.60001 4.28563 4.74287C4.68563 3.77144 4.5142 2.62858 4.28563 2.00001C4.28563 2.00001 4.5142 1.65716 5.02848 1.48573C5.54277 1.3143 5.88563 1.42858 5.88563 1.42858C5.88563 1.42858 6.85705 2.85716 6.57134 5.02858Z" fill="#AC95FF"/>
<path d="M3.8285 3.77143C3.71421 3.77143 3.59993 3.71429 3.54278 3.65714C3.4285 3.48572 3.4285 3.25714 3.59993 3.14286C3.65707 3.08572 4.51421 2.4 5.77136 2.51429C5.94279 2.51429 6.11421 2.68572 6.11421 2.91429C6.11421 3.08572 5.94279 3.25714 5.71421 3.25714C4.74279 3.14286 4.05707 3.71429 4.05707 3.71429C3.99993 3.77143 3.88564 3.77143 3.8285 3.77143Z" fill="#AC95FF"/>
<path opacity="0.13" d="M6.22848 2.22858C5.59991 3.02858 5.42848 3.60001 5.42848 3.60001C5.42848 3.60001 4.97134 3.82858 4.39991 4.22858C4.39991 4.4 4.34277 4.57143 4.28563 4.74286C3.94277 5.6 3.02848 6.28572 3.19991 6.97143C3.37134 7.65715 4.85705 8.8 4.85705 8.8C4.9142 8.74286 6.34277 6.68572 6.57134 5.02858C6.74277 3.82858 6.45705 2.85715 6.22848 2.22858Z" fill="black"/>
<path d="M4.85708 5.82857L3.02851 7.31428C3.02851 7.31428 2.85708 8.05714 3.08565 9.6C3.48565 12.8 5.59994 15.0286 6.22851 15.4286C6.85708 15.7714 7.59994 16.0571 8.22851 16C8.85708 15.9429 10.1142 15.8857 10.6857 15.3143C11.3142 14.8 13.4857 10.9714 13.4857 8.34285C13.4857 5.94285 12.5714 4.8 12.1142 4.8C10.5714 4.68571 4.85708 5.82857 4.85708 5.82857Z" fill="#FF3622"/>
<path opacity="0.13" d="M12.1143 4.8C11.7714 4.74286 9.94282 5.71429 9.25711 5.82857C9.71425 6.11429 11.5428 7.02857 11.5428 10C11.5428 12.4571 10.1714 15.2571 9.14282 15.9429C9.99996 15.8286 10.4571 15.6571 10.7428 15.3714C11.3714 14.8571 13.5428 11.0286 13.5428 8.4C13.4857 5.94286 12.5714 4.85714 12.1143 4.8Z" fill="black"/>
<path d="M9.14288 3.54287C7.65717 4.17144 5.94289 6.00001 5.88574 6.1143C5.88574 6.1143 7.31431 7.3143 8.05717 7.3143C8.74289 7.3143 9.20003 6.28573 9.94288 5.77144C10.8 5.20001 11.9429 5.08573 12.5715 5.14287C12.5715 5.14287 12.8572 4.85716 12.9143 4.28573C12.9715 3.7143 12.8 3.42859 12.8 3.42859C12.8 3.42859 11.2 2.74287 9.14288 3.54287Z" fill="#AC95FF"/>
<path opacity="0.13" d="M12.8572 4.34286C12.1715 4.28572 10.8572 4.34286 9.94288 5.02858C9.14288 5.6 8.68574 6.74286 7.88574 6.74286C7.4286 6.74286 6.6286 6.22858 6.11431 5.88572C6.00003 6 5.88574 6.11429 5.88574 6.11429C5.88574 6.11429 7.31431 7.31429 8.05717 7.31429C8.74289 7.31429 9.20003 6.28572 9.94288 5.77143C10.8 5.2 11.9429 5.08572 12.5715 5.14286C12.5715 5.14286 12.8572 4.85715 12.9143 4.34286H12.8572Z" fill="black"/>
<path d="M3.19998 10.4C3.19998 10.4 2.51427 7.48571 3.42855 6C4.22855 4.68571 5.71427 4 5.71427 4C5.71427 4 5.94284 3.02857 7.25713 1.82857C8.57141 0.628572 10.1143 0 10.1143 0C10.1143 0 10.5714 0.114286 10.8571 0.8C11.1428 1.48571 10.9714 1.77143 10.9714 1.77143C10.9714 1.77143 8.05713 3.71429 7.8857 5.2C7.71427 6.68571 7.82855 7.25714 6.22855 8.74286C4.62855 10.2286 3.19998 10.4 3.19998 10.4Z" fill="#FF2467"/>
<path opacity="0.1" d="M10.8571 0.800013C10.8571 0.74287 10.8 0.628585 10.7428 0.571442C10.7428 0.74287 10.6857 0.857156 10.6857 0.857156C10.6857 0.857156 7.48569 3.02858 7.25712 4.68573C7.08569 6.34287 7.08569 6.97144 5.54284 8.40001C4.68569 9.20001 3.77141 9.60001 3.08569 9.7143C3.08569 9.94287 3.19998 10.4572 3.19998 10.4572C3.19998 10.4572 4.68569 10.2857 6.28569 8.80001C7.88569 7.3143 7.71427 6.74287 7.94284 5.25716C8.11427 3.77144 11.0286 1.82858 11.0286 1.82858C11.0286 1.82858 11.1428 1.48573 10.8571 0.800013Z" fill="black"/>
<path d="M2.28578 5.77143C2.22863 5.71429 2.22863 5.6 2.28578 5.48572C2.28578 5.31429 2.51435 5.2 2.68578 5.25714C2.74292 5.25714 3.82863 5.6 4.45721 6.62857C4.57149 6.8 4.51435 7.02857 4.34292 7.14286C4.17149 7.25714 3.94292 7.2 3.82863 7.02857C3.31435 6.22857 2.51435 5.94286 2.45721 5.94286C2.40006 5.88572 2.34292 5.82857 2.28578 5.77143Z" fill="#FF2467"/>
<path d="M1.88574 7.02857C1.8286 6.97143 1.77146 6.85714 1.8286 6.74286C1.88574 6.57143 2.05717 6.45714 2.28574 6.51428C2.34289 6.51428 3.4286 6.85714 4.05717 7.88571C4.17146 8.05714 4.11432 8.28571 3.94289 8.4C3.77146 8.51428 3.54289 8.45714 3.4286 8.28571C2.91432 7.48571 2.11432 7.2 2.05717 7.2C2.00003 7.14286 1.94289 7.14286 1.88574 7.02857Z" fill="#FF2467"/>
<path d="M5.08569 10.6286C5.08569 10.6286 5.19998 12.6286 7.19998 14.0571" stroke="#302D77" stroke-width="0.25" stroke-miterlimit="10" stroke-linecap="round"/>
<path d="M5.42849 11.8286C5.42849 11.8286 5.37135 12.1143 5.31421 12.5714" stroke="#302D77" stroke-width="0.25" stroke-miterlimit="10" stroke-linecap="round"/>
<path d="M6.28567 13.2571C6.28567 13.2571 6.22853 13.5429 6.17139 14" stroke="#302D77" stroke-width="0.25" stroke-miterlimit="10" stroke-linecap="round"/>
<path d="M5.77148 12.5143C5.77148 12.5143 6.0572 12.5714 6.51434 12.6857" stroke="#302D77" stroke-width="0.25" stroke-miterlimit="10" stroke-linecap="round"/>
</g>
<defs>
<clipPath id="clip0_7091_145861">
<rect width="16" height="16" fill="white"/>
</clipPath>
</defs>
</svg>
