<svg width="27" height="28" viewBox="0 0 27 28" fill="none" xmlns="http://www.w3.org/2000/svg">
<path d="M0 13.7921C0 6.34973 6.03329 0.316406 13.4757 0.316406C20.9182 0.316406 26.9515 6.34973 26.9515 13.7921V14.2916C26.9515 21.7341 20.9182 27.7674 13.4757 27.7674C6.03329 27.7674 0 21.7341 0 14.2916V13.7921Z" fill="white"/>
<path fill-rule="evenodd" clip-rule="evenodd" d="M9.06141 12.9609L13.4885 17.4675L17.8683 13.009L21.4594 16.6646L17.287 20.9118L16.2137 19.8483L19.3413 16.6646L17.8683 15.1652L13.4885 19.6236L9.06141 15.1171L7.6064 16.5982L10.7815 19.8304L9.70821 20.8939L5.48828 16.5982L9.06141 12.9609Z" fill="#05082B"/>
<path fill-rule="evenodd" clip-rule="evenodd" d="M17.8862 15.1189L13.4592 10.6124L9.07936 15.0708L5.48828 11.4152L9.66067 7.16797L10.734 8.23147L7.6064 11.4152L9.07936 12.9147L13.4592 8.45624L17.8862 12.9628L19.3413 11.4816L16.1661 8.24943L17.2394 7.18592L21.4594 11.4816L17.8862 15.1189Z" fill="#05082B"/>
<path fill-rule="evenodd" clip-rule="evenodd" d="M12.8008 20.8081V17.9688H14.2465V20.8081H12.8008Z" fill="#05082B"/>
<path fill-rule="evenodd" clip-rule="evenodd" d="M12.8008 10.1127V7.27344H14.2465V10.1127H12.8008Z" fill="#05082B"/>
</svg>
