<svg width="20" height="20" viewBox="0 0 20 20" fill="none" xmlns="http://www.w3.org/2000/svg">
<path d="M14.9999 6.66536H14.1666V4.9987C14.1666 2.6987 12.2999 0.832031 9.99992 0.832031C7.69992 0.832031 5.83325 2.6987 5.83325 4.9987V6.66536H4.99992C4.08325 6.66536 3.33325 7.41536 3.33325 8.33203V16.6654C3.33325 17.582 4.08325 18.332 4.99992 18.332H14.9999C15.9166 18.332 16.6666 17.582 16.6666 16.6654V8.33203C16.6666 7.41536 15.9166 6.66536 14.9999 6.66536ZM7.49992 4.9987C7.49992 3.61536 8.61658 2.4987 9.99992 2.4987C11.3833 2.4987 12.4999 3.61536 12.4999 4.9987V6.66536H7.49992V4.9987ZM14.9999 16.6654H4.99992V8.33203H14.9999V16.6654ZM9.99992 14.1654C10.9166 14.1654 11.6666 13.4154 11.6666 12.4987C11.6666 11.582 10.9166 10.832 9.99992 10.832C9.08325 10.832 8.33325 11.582 8.33325 12.4987C8.33325 13.4154 9.08325 14.1654 9.99992 14.1654Z" fill="white"/>
</svg>
