<svg width="26" height="30" viewBox="0 0 26 30" fill="none" xmlns="http://www.w3.org/2000/svg">
<g filter="url(#filter0_d)">
<path d="M20.5401 26.8698H5.46014C4.45014 26.8698 3.64014 26.0498 3.64014 25.0498V11.6298C3.64014 10.6198 4.46014 9.80981 5.46014 9.80981H20.5501C21.5601 9.80981 22.3701 10.6298 22.3701 11.6298V25.0398C22.3701 26.0498 21.5501 26.8698 20.5401 26.8698Z" fill="#FFBE44"/>
<path d="M18.9401 9.07989H17.0701C17.0801 6.82989 15.2501 4.99989 13.0001 4.99989C10.7501 4.99989 8.92006 6.82989 8.92006 9.07989H7.06006C7.06006 5.79989 9.73006 3.13989 13.0001 3.13989C16.2701 3.13989 18.9401 5.79989 18.9401 9.07989Z" fill="#FFBE44"/>
<path d="M15.1202 16.0398C15.1202 14.9498 14.2302 14.0598 13.1402 14.0598C12.0502 14.0598 11.1602 14.9498 11.1602 16.0398C11.1602 16.6598 11.4502 17.1998 11.8902 17.5698L11.4502 23.1898H14.8202L14.3402 17.5998C14.8202 17.2398 15.1202 16.6798 15.1202 16.0398Z" fill="#373382"/>
</g>
<defs>
<filter id="filter0_d" x="-2" y="0" width="30" height="30" filterUnits="userSpaceOnUse" color-interpolation-filters="sRGB">
<feFlood flood-opacity="0" result="BackgroundImageFix"/>
<feColorMatrix in="SourceAlpha" type="matrix" values="0 0 0 0 0 0 0 0 0 0 0 0 0 0 0 0 0 0 127 0"/>
<feOffset/>
<feGaussianBlur stdDeviation="1.5"/>
<feColorMatrix type="matrix" values="0 0 0 0 0.0313726 0 0 0 0 0.0117647 0 0 0 0 0.270588 0 0 0 0.7 0"/>
<feBlend mode="normal" in2="BackgroundImageFix" result="effect1_dropShadow"/>
<feBlend mode="normal" in="SourceGraphic" in2="effect1_dropShadow" result="shape"/>
</filter>
</defs>
</svg>
