<svg width="108" height="108" viewBox="0 0 108 108" fill="none" xmlns="http://www.w3.org/2000/svg">
<g style="mix-blend-mode:luminosity">
<path d="M25.6976 46.3223C32.3652 46.3223 37.7703 40.9318 37.7703 34.2822C37.7703 27.6327 32.3652 22.2422 25.6976 22.2422C19.0301 22.2422 13.625 27.6327 13.625 34.2822C13.625 40.9318 19.0301 46.3223 25.6976 46.3223Z" fill="#080345"/>
<path d="M25.1469 45.7793C31.8144 45.7793 37.2195 40.3888 37.2195 33.7393C37.2195 27.0897 31.8144 21.6992 25.1469 21.6992C18.4793 21.6992 13.0742 27.0897 13.0742 33.7393C13.0742 40.3888 18.4793 45.7793 25.1469 45.7793Z" fill="#00C7BA"/>
<path opacity="0.3" d="M36.4394 29.4805L16.1172 41.73C19.5122 45.548 25.1138 46.9241 30.0402 44.7446C35.929 42.1436 38.6966 35.4143 36.4394 29.4805Z" fill="#17144F"/>
<path d="M28.1904 39.1289H22.1102C20.1987 39.1289 18.6328 40.6906 18.6328 42.5969V43.8723C20.5124 45.076 22.7483 45.776 25.149 45.776C27.5497 45.776 29.7856 45.076 31.6652 43.8723V42.5969C31.6679 40.6906 30.102 39.1289 28.1904 39.1289Z" fill="#B59FFF"/>
<path d="M30.3567 31.408C31.0054 29.9126 30.58 28.1998 29.1524 27.0835C28.1022 26.2616 26.6932 25.7578 25.1512 25.7578C23.4577 25.7578 21.9263 26.365 20.8522 27.3354C19.6107 28.4569 19.2917 30.0664 19.9164 31.4689C19.7436 31.8746 19.6479 32.3201 19.6479 32.7894C19.6479 34.6533 21.1633 36.1646 23.0323 36.1646C23.8352 36.1646 24.569 35.8862 25.1485 35.4195C25.7281 35.8835 26.4645 36.1646 27.2648 36.1646C29.1338 36.1646 30.6492 34.6533 30.6492 32.7894C30.6545 32.2962 30.5455 31.8295 30.3567 31.408Z" fill="#373382"/>
<path d="M25.3905 39.8689H24.9199C23.8884 39.8689 23.043 39.9087 23.043 39.1318V36.8993C23.043 36.2683 23.5614 35.7539 24.1915 35.7539H26.1163C26.749 35.7539 27.2648 36.2709 27.2648 36.8993V39.1318C27.2675 39.906 26.422 39.8689 25.3905 39.8689Z" fill="white"/>
<path opacity="0.3" d="M23.043 37.9705V36.8993C23.043 36.2683 23.5614 35.7539 24.1915 35.7539H26.1163C26.7491 35.7539 27.2648 36.2709 27.2648 36.8993V38.7367L23.043 37.9705Z" fill="#7360FC"/>
<path d="M25.152 37.4255C23.0278 37.4255 21.2891 35.6915 21.2891 33.573V29.6967C21.2891 27.5782 23.0278 27.2812 25.152 27.2812C27.2762 27.2812 29.0149 27.5782 29.0149 29.6967V33.573C29.0176 35.6915 27.2789 37.4255 25.152 37.4255Z" fill="#B59FFF"/>
<path d="M26.7996 33.9357C26.6827 33.8111 26.5178 33.7422 26.345 33.7422H25.2098H25.1327H24.0028C23.8273 33.7422 23.6599 33.8164 23.5429 33.9437L22.4023 35.1793L22.7799 35.577L24.0613 34.3494H25.1513H25.1885H26.2786L27.6025 35.577L27.9801 35.1793L26.7996 33.9357Z" fill="#373382"/>
<path d="M28.4182 28.058H21.918L22.8618 23.7812H27.4718L28.4182 28.058Z" fill="#FFBE44"/>
<path d="M29.0171 39.2375C28.9639 41.2843 27.2837 42.9309 25.218 42.9309C23.1416 42.9309 21.4561 41.2711 21.4189 39.2109C19.8397 39.5371 18.6406 40.9397 18.6406 42.6074V43.8827C20.5202 45.0865 22.7561 45.7864 25.1568 45.7864C27.5575 45.7864 29.7934 45.0865 31.673 43.8827V42.6074C31.673 40.9794 30.5351 39.6087 29.0171 39.2375Z" fill="#FF2475"/>
<path d="M25.2141 42.9242C24.7089 42.9242 24.2304 42.8261 23.7891 42.6484C23.9273 43.6798 24.0656 44.7112 24.2038 45.7426C24.5175 45.7665 24.8339 45.7798 25.1529 45.7798C25.4693 45.7798 25.7803 45.7665 26.0887 45.7426C26.1632 44.7033 26.2961 43.6798 26.5088 42.6988C26.1074 42.8446 25.6713 42.9242 25.2141 42.9242Z" fill="#FFBE44"/>
<path d="M21.1055 34.1816H21.8366L23.7853 36.0349C23.9608 36.1807 24.2293 36.1197 24.3224 35.9129L24.6228 35.2554H25.7447L25.9654 35.8652C26.0478 36.0906 26.3296 36.1675 26.513 36.0137L28.4724 34.0039H29.3232L28.0763 42.263C27.8795 42.7429 27.3744 43.0585 26.8055 43.0585H23.461C22.8681 43.0585 22.347 42.7111 22.1689 42.2021L21.1055 34.1816Z" fill="#373382"/>
<path d="M82.85 90.3106C89.5175 90.3106 94.9226 84.9201 94.9226 78.2705C94.9226 71.621 89.5175 66.2305 82.85 66.2305C76.1825 66.2305 70.7773 71.621 70.7773 78.2705C70.7773 84.9201 76.1825 90.3106 82.85 90.3106Z" fill="#080345"/>
<path d="M82.2992 89.7676C88.9667 89.7676 94.3718 84.3771 94.3718 77.7276C94.3718 71.078 88.9667 65.6875 82.2992 65.6875C75.6317 65.6875 70.2266 71.078 70.2266 77.7276C70.2266 84.3771 75.6317 89.7676 82.2992 89.7676Z" fill="#FFBE44"/>
<path opacity="0.3" d="M93.5982 73.4727L73.2734 85.7238C76.668 89.5419 82.2717 90.9166 87.1981 88.7398C93.0876 86.1354 95.8551 79.4069 93.5982 73.4727Z" fill="#17144F"/>
<path d="M85.3378 83.1211H79.2578C77.3449 83.1211 75.7812 84.6805 75.7812 86.5883V87.8627C77.6624 89.0686 79.8981 89.7652 82.2978 89.7652C84.6975 89.7652 86.9358 89.0659 88.8143 87.8627V86.5883C88.817 84.6832 87.2507 83.1211 85.3378 83.1211Z" fill="#B59FFF"/>
<path d="M79.2578 83.1211C77.3449 83.1211 75.7812 84.6805 75.7812 86.5882C75.7812 86.5882 76.4321 87.744 76.9163 88.5065C78.5381 89.314 80.3664 89.7678 82.3004 89.7678C84.7001 89.7678 86.9385 89.0686 88.8169 87.8653L79.2578 83.1211Z" fill="#FF2475"/>
<path d="M75.7812 86.5913C75.7812 86.5913 76.4321 87.747 76.9163 88.5096C77.7047 88.9027 78.5408 89.2088 79.4165 89.4226C78.1968 88.1455 77.038 86.8182 76.0035 85.3828C75.8606 85.7601 75.7812 86.1665 75.7812 86.5913Z" fill="#FFBE44"/>
<path opacity="0.25" d="M80.1406 86.6172C81.4053 87.5645 82.5086 88.6727 83.6357 89.6912C83.9849 89.6516 84.3262 89.5988 84.6649 89.5329C83.1303 88.5513 81.691 87.4747 80.1406 86.6172Z" fill="#373382"/>
<path d="M79.2569 83.1211C78.9632 83.1211 78.6775 83.158 78.4023 83.2266C79.4818 83.7755 80.466 84.5143 81.6249 85.137C83.5907 86.2057 85.4374 87.4511 87.3212 88.678C87.8398 88.4406 88.3372 88.1688 88.8134 87.8627L79.2569 83.1211Z" fill="#FFBE44"/>
<path d="M86.7954 76.9443L87.0891 76.4641C88.277 74.5168 87.9754 71.9837 86.3059 70.4243C85.2555 69.4454 83.848 68.8438 82.3055 68.8438C80.6122 68.8438 79.0803 69.5694 78.0061 70.7251C76.5774 72.2634 76.3684 74.5696 77.4135 76.3902L77.7627 76.9997C77.1674 77.6093 76.7997 78.4378 76.7997 79.356C76.7997 81.2216 78.3157 82.7335 80.1863 82.7335C80.9879 82.7335 81.7234 82.4538 82.3029 81.9894C82.8823 82.4538 83.6178 82.7335 84.4195 82.7335C86.29 82.7335 87.8061 81.2216 87.8061 79.356C87.8061 78.4088 87.4198 77.5591 86.7954 76.9443Z" fill="#373382"/>
<path d="M82.5395 83.8572H82.0712C81.0393 83.8572 80.1953 83.8968 80.1953 83.121V80.8861C80.1953 80.2555 80.7139 79.7383 81.3462 79.7383H83.2697C83.902 79.7383 84.4206 80.2555 84.4206 80.8861V83.121C84.4153 83.8968 83.5713 83.8572 82.5395 83.8572Z" fill="#B59FFF"/>
<path opacity="0.3" d="M80.1914 81.9652V80.8939C80.1914 80.2633 80.71 79.7461 81.3423 79.7461H83.2658C83.8981 79.7461 84.4167 80.2633 84.4167 80.8939V82.733L80.1914 81.9652Z" fill="#7360FC"/>
<path d="M82.3003 81.418C80.1758 81.418 78.4375 79.6844 78.4375 77.5656V73.6895C78.4375 71.5706 80.1758 70.8477 82.3003 70.8477C84.4249 70.8477 86.1632 71.5706 86.1632 73.6895V77.5656C86.1658 79.6844 84.4249 81.418 82.3003 81.418Z" fill="#B59FFF"/>
<path d="M86.5735 73.6861H77.6758L78.6918 70.8152L85.5337 70.707L86.5735 73.6861Z" fill="#373382"/>
<path d="M86.1658 72.9375H78.4375V73.7555H86.1658V72.9375Z" fill="#FF2475"/>
<path d="M36.125 42.2773L43.943 48.038" stroke="#AFACC9" stroke-width="0.3" stroke-dasharray="1 1"/>
<path d="M59.9922 48.8605L75.3822 33.3789" stroke="#AFACC9" stroke-width="0.3" stroke-dasharray="1 1"/>
<path d="M71.793 69.875L62.7406 62.88" stroke="#AFACC9" stroke-width="0.3" stroke-dasharray="1 1"/>
<path d="M46.8203 62.0277L31.3644 76.9258" stroke="#AFACC9" stroke-width="0.3" stroke-dasharray="1 1"/>
<path d="M80.9826 40.7455C87.6487 40.7455 93.053 35.3416 93.0534 28.6755C93.0538 22.0094 87.6502 16.6055 80.9841 16.6055C74.318 16.6055 68.9137 22.0094 68.9133 28.6755C68.9129 35.3416 74.3165 40.7455 80.9826 40.7455Z" fill="#080345"/>
<path d="M80.4201 40.1948C87.0862 40.1948 92.4905 34.7908 92.4909 28.1247C92.4913 21.4586 87.0877 16.0547 80.4216 16.0547C73.7555 16.0547 68.3512 21.4586 68.3508 28.1247C68.3504 34.7908 73.754 40.1948 80.4201 40.1948Z" fill="#7360FC"/>
<path opacity="0.3" d="M91.7212 23.8633L71.4023 36.1459C73.2756 38.2566 75.8291 39.6442 78.6192 40.0676C81.4092 40.491 84.2594 39.9234 86.6745 38.4635C89.0896 37.0036 90.9169 34.7437 91.8388 32.0764C92.7608 29.4091 92.7191 26.5031 91.7212 23.8633Z" fill="#17144F"/>
<path d="M87.6129 33.6103C88.1826 31.1962 86.6876 28.7774 84.2737 28.2076C81.8599 27.6378 79.4412 29.1329 78.8714 31.547C78.3017 33.961 79.7967 36.3799 82.2106 36.9496C84.6244 37.5194 87.0431 36.0243 87.6129 33.6103Z" fill="#373382"/>
<path d="M81.9957 33.6142C82.5654 31.2001 81.0704 28.7813 78.6566 28.2115C76.2427 27.6418 73.824 29.1368 73.2542 31.5509C72.6845 33.9649 74.1795 36.3838 76.5934 36.9535C79.0073 37.5233 81.426 36.0282 81.9957 33.6142Z" fill="#373382"/>
<path d="M83.4792 33.543H77.3978C76.4768 33.5458 75.5943 33.913 74.9431 34.5643C74.2919 35.2155 73.9247 36.098 73.9219 37.0191V38.2976C75.8665 39.5437 78.1276 40.206 80.4371 40.206C82.7467 40.206 85.0078 39.5437 86.9524 38.2976V37.0191C86.9499 36.0984 86.5833 35.2161 85.9325 34.5648C85.2818 33.9135 84.3998 33.5462 83.4792 33.543Z" fill="#B59FFF"/>
<path d="M77.3978 33.543C76.4768 33.5458 75.5943 33.913 74.9431 34.5643C74.2919 35.2155 73.9247 36.098 73.9219 37.0191C73.9219 37.0191 74.5733 38.1773 75.0557 38.9423C76.9249 39.8712 79.0028 40.3001 81.087 40.1871C83.1712 40.0741 85.1905 39.4231 86.9484 38.2976L77.3978 33.543Z" fill="#00C7BA"/>
<path d="M73.9219 37.0158C73.9219 37.0158 74.5733 38.174 75.0557 38.939C75.8521 39.3361 76.6902 39.6434 77.5545 39.8553C76.3263 38.583 75.1861 37.2283 74.1422 35.8008C73.9958 36.1891 73.9212 36.6008 73.9219 37.0158Z" fill="#FFBE44"/>
<path opacity="0.25" d="M78.2852 37.0469C79.5514 37.9929 80.6515 39.1079 81.78 40.1297C82.1286 40.0909 82.4719 40.0378 82.8098 39.9702C81.2718 38.985 79.8339 37.9078 78.2852 37.0469Z" fill="#373382"/>
<path d="M77.3996 33.543C77.112 33.5426 76.8255 33.5784 76.5469 33.6497C77.628 34.1985 78.6078 34.9391 79.7673 35.5635C81.7323 36.6353 83.5784 37.8827 85.4623 39.1139C85.976 38.8785 86.4728 38.6076 86.9489 38.303L77.3996 33.543Z" fill="#FFBE44"/>
<path d="M76.7769 28.9399L75.543 26.7883C74.497 24.9665 74.7065 22.6513 76.1349 21.1119C76.6825 20.5182 77.3469 20.0442 78.0865 19.7198C78.8261 19.3953 79.6249 19.2274 80.4325 19.2266C81.9189 19.2274 83.3493 19.7942 84.4327 20.8119C85.2374 21.5785 85.7544 22.5982 85.8971 23.7004C86.0398 24.8027 85.7995 25.9205 85.2166 26.8667L83.9543 28.9413L76.7769 28.9399Z" fill="#373382"/>
<path d="M80.6703 34.2799H80.2C79.1689 34.2799 78.3242 34.3177 78.3242 33.542V31.3025C78.3253 30.9978 78.4468 30.7059 78.6622 30.4904C78.8777 30.2749 79.1696 30.1534 79.4743 30.1523H81.3974C81.702 30.1534 81.9937 30.275 82.2089 30.4905C82.4242 30.706 82.5454 30.9979 82.5461 31.3025V33.542C82.5421 34.3177 81.7015 34.2799 80.6703 34.2799Z" fill="#B59FFF"/>
<path opacity="0.3" d="M78.3242 32.3769V31.3025C78.3253 30.9978 78.4468 30.7059 78.6622 30.4904C78.8777 30.2749 79.1696 30.1534 79.4743 30.1523H81.3974C81.702 30.1534 81.9937 30.275 82.2089 30.4905C82.4242 30.706 82.5454 30.9979 82.5461 31.3025V33.1446L78.3242 32.3769Z" fill="#7360FC"/>
<path d="M80.4327 31.8291C79.4091 31.8259 78.4283 31.4177 77.7047 30.6937C76.981 29.9697 76.5732 28.9888 76.5703 27.9651V24.0795C76.5703 21.9549 78.3083 21.2305 80.4327 21.2305C82.5572 21.2305 84.2965 21.9549 84.2965 24.0795V27.9651C84.2933 28.9889 83.8852 29.9699 83.1613 30.6938C82.4374 31.4177 81.4565 31.8259 80.4327 31.8291Z" fill="#B59FFF"/>
<path d="M84.7024 24.0806H75.8086L76.8235 21.2032L83.6645 21.0938L84.7024 24.0806Z" fill="#373382"/>
<path d="M84.2965 23.3281H76.5703V24.1471H84.2965V23.3281Z" fill="#FFBE44"/>
<path d="M25.7112 96.0019C32.3797 96.0019 37.7856 90.5957 37.7856 83.9268C37.7856 77.2578 32.3797 71.8516 25.7112 71.8516C19.0426 71.8516 13.6367 77.2578 13.6367 83.9268C13.6367 90.5957 19.0426 96.0019 25.7112 96.0019Z" fill="#080345"/>
<path d="M25.1721 95.459C31.8406 95.459 37.2465 90.0527 37.2465 83.3838C37.2465 76.7148 31.8406 71.3086 25.1721 71.3086C18.5036 71.3086 13.0977 76.7148 13.0977 83.3838C13.0977 90.0527 18.5036 95.459 25.1721 95.459Z" fill="#7360FC"/>
<path opacity="0.3" d="M36.4649 79.1094L16.1367 91.3995C18.0105 93.5129 20.5656 94.9027 23.3579 95.327C26.1501 95.7514 29.0028 95.1836 31.4198 93.7223C33.8367 92.2611 35.6651 89.9988 36.5868 87.329C37.5086 84.6592 37.4655 81.7507 36.4649 79.1094Z" fill="#17144F"/>
<path d="M30.6347 82.9727C30.9344 81.1263 29.6807 79.3866 27.8345 79.0869C25.9882 78.7872 24.2486 80.041 23.9489 81.8873C23.6492 83.7337 24.9029 85.4734 26.7492 85.7731C28.5954 86.0728 30.3351 84.819 30.6347 82.9727Z" fill="#373382"/>
<path d="M25.4499 84.8207C26.7724 83.498 26.7724 81.3536 25.4499 80.0309C24.1273 78.7082 21.983 78.7082 20.6604 80.0309C19.3378 81.3536 19.3378 83.498 20.6604 84.8207C21.983 86.1433 24.1273 86.1433 25.4499 84.8207Z" fill="#373382"/>
<path d="M28.2096 88.7891H22.1257C21.2041 88.7919 20.3211 89.1594 19.6696 89.8112C19.018 90.4631 18.6509 91.3463 18.6484 92.2679V93.5469C20.5938 94.7935 22.8558 95.4561 25.1663 95.4561C27.4767 95.4561 29.7388 94.7935 31.6841 93.5469V92.2679C31.6813 91.3468 31.3144 90.4642 30.6635 89.8126C30.0127 89.1609 29.1306 88.793 28.2096 88.7891Z" fill="#B59FFF"/>
<path d="M21.7982 88.8086C20.9389 88.8946 20.142 89.2962 19.5616 89.9358C18.9812 90.5754 18.6587 91.4075 18.6562 92.2712V93.5502C20.6002 94.8 22.8631 95.4628 25.1741 95.4593H25.2106C24.0966 93.2339 22.9677 91.0124 21.7982 88.8086Z" fill="#00C7BA"/>
<path d="M29.2541 88.9531C28.1968 91.1164 27.1234 93.2459 26.1445 95.4186C28.1204 95.2637 30.0271 94.6217 31.6944 93.5501V92.2711C31.6918 91.5307 31.454 90.8104 31.0154 90.214C30.5767 89.6177 29.96 89.1761 29.2541 88.9531Z" fill="#00C7BA"/>
<path d="M22.1335 88.7891C21.2119 88.7919 20.3289 89.1594 19.6774 89.8112C19.0259 90.4631 18.6587 91.3462 18.6562 92.2679C18.6562 92.2679 19.3079 93.4266 19.7906 94.1919C21.6605 95.1212 23.7392 95.5502 25.8242 95.4372C27.9092 95.3241 29.9294 94.6729 31.6879 93.5469L22.1335 88.7891Z" fill="#FFBE44"/>
<path d="M18.6563 92.2702C18.6563 92.2702 19.3079 93.4289 19.7906 94.1942C20.5872 94.5916 21.4256 94.8991 22.2903 95.1109C21.0612 93.8383 19.9206 92.4831 18.8766 91.0547C18.7301 91.4432 18.6555 91.855 18.6563 92.2702Z" fill="#FF2475"/>
<path opacity="0.25" d="M23.0117 92.3047C24.2772 93.2511 25.379 94.3666 26.5079 95.3874C26.8567 95.3495 27.2001 95.2954 27.5381 95.2278C25.9996 94.2435 24.5597 93.1714 23.0117 92.3047Z" fill="#373382"/>
<path d="M22.1279 88.7891C21.8398 88.7893 21.5528 88.8252 21.2734 88.8959C22.355 89.4462 23.3365 90.1871 24.4965 90.8117C26.4609 91.8826 28.3091 93.1319 30.1937 94.3622C30.708 94.1273 31.2049 93.8562 31.6809 93.551L22.1279 88.7891Z" fill="#FF2475"/>
<path d="M21.5067 83.5242L20.2737 81.7205C19.2273 80.1913 19.4369 78.2498 20.8659 76.9572C21.9394 75.9851 23.4711 75.3753 25.1651 75.3753C26.6096 75.3606 28.0176 75.8288 29.1656 76.7058C30.8353 78.0159 31.1395 80.1467 29.9498 81.7841L28.6884 83.5242H21.5067Z" fill="#373382"/>
<path d="M25.4056 89.5302H24.9351C23.9036 89.5302 23.0586 89.5694 23.0586 88.7919V86.5516C23.0593 86.247 23.1806 85.9551 23.396 85.7397C23.6113 85.5244 23.9032 85.4031 24.2078 85.4023H26.1316C26.4363 85.4031 26.7283 85.5243 26.9439 85.7397C27.1595 85.955 27.2811 86.2469 27.2821 86.5516V88.7919C27.2821 89.5694 26.4372 89.5302 25.4056 89.5302Z" fill="white"/>
<path opacity="0.3" d="M23.0586 87.6226V86.5477C23.0593 86.2431 23.1806 85.9512 23.396 85.7358C23.6113 85.5205 23.9032 85.3992 24.2078 85.3984H26.1316C26.4363 85.3992 26.7283 85.5204 26.9439 85.7357C27.1595 85.9511 27.2811 86.243 27.2821 86.5477V88.3932L23.0586 87.6226Z" fill="#7360FC"/>
<path d="M25.17 87.086C24.1459 87.0831 23.1647 86.6751 22.4404 85.9511C21.7162 85.2271 21.3079 84.2459 21.3047 83.2218V79.3292C21.3047 77.2038 23.0447 76.4805 25.17 76.4805C27.2953 76.4805 29.0339 77.2038 29.0339 79.3292V83.2178C29.0321 84.2424 28.6246 85.2247 27.9005 85.9496C27.1763 86.6745 26.1946 87.0831 25.17 87.086Z" fill="#B59FFF"/>
<path d="M21.1211 83.8283H21.8539L23.8061 85.6873C23.8472 85.722 23.8958 85.7466 23.948 85.7593C24.0002 85.772 24.0547 85.7724 24.1071 85.7605C24.1595 85.7486 24.2085 85.7246 24.2501 85.6906C24.2917 85.6566 24.3248 85.6133 24.3469 85.5643L24.647 84.9031H25.7692L25.9922 85.5156C26.0113 85.5678 26.0426 85.6147 26.0836 85.6523C26.1245 85.6899 26.1739 85.7171 26.2275 85.7317C26.2812 85.7463 26.3375 85.7478 26.3919 85.736C26.4462 85.7243 26.4969 85.6997 26.5398 85.6644L28.4988 83.6484H29.3492L26.9021 91.9325C26.793 92.1761 26.6143 92.382 26.3883 92.5242C26.1624 92.6664 25.8995 92.7386 25.6326 92.7315H24.3469C24.0694 92.7384 23.7965 92.6597 23.5652 92.5061C23.334 92.3525 23.1556 92.1315 23.0544 91.873L21.1211 83.8283Z" fill="#373382"/>
<path d="M26.8943 83.664C26.8101 83.5751 26.7087 83.5043 26.5961 83.456C26.4836 83.4076 26.3624 83.3827 26.24 83.3828H24.139C24.0143 83.3827 23.8909 83.4085 23.7766 83.4585C23.6624 83.5086 23.5597 83.5818 23.4752 83.6735L22.418 84.8254L22.7952 85.2243L24.0782 83.9926H26.2927L27.6163 85.2243L27.9948 84.8254L26.8943 83.664Z" fill="#373382"/>
<path d="M68.526 58.0355C69.8428 49.8879 64.3054 42.2155 56.1577 40.8987C48.0101 39.5819 40.3378 45.1194 39.021 53.267C37.7042 61.4146 43.2416 69.087 51.3893 70.4038C59.5369 71.7206 67.2093 66.1831 68.526 58.0355Z" fill="#CC8825"/>
<path d="M59.2425 68.3934C66.7232 65.2949 70.2755 56.7187 67.1769 49.238C64.0783 41.7573 55.5022 38.205 48.0215 41.3036C40.5408 44.4022 36.9885 52.9783 40.0871 60.459C43.1857 67.9397 51.7618 71.492 59.2425 68.3934Z" fill="#FFD55F"/>
<path d="M53.6285 42.1953C51.118 42.1894 48.6622 42.9287 46.5723 44.3198C44.4824 45.7108 42.8525 47.6909 41.889 50.0092C40.9255 52.3275 40.6718 54.8796 41.1602 57.3421C41.6485 59.8047 42.8568 62.0669 44.632 63.8421C46.4072 65.6173 48.6694 66.8256 51.1319 67.3139C53.5945 67.8022 56.1466 67.5486 58.4649 66.5851C60.7831 65.6216 62.7632 63.9916 64.1543 61.9017C65.5453 59.8118 66.2847 57.356 66.2787 54.8455C66.2707 51.4929 64.9354 48.28 62.5648 45.9093C60.1941 43.5387 56.9811 42.2033 53.6285 42.1953ZM53.6285 66.0163C51.4191 66.0163 49.2594 65.3612 47.4223 64.1337C45.5853 62.9063 44.1535 61.1616 43.308 59.1204C42.4625 57.0792 42.2413 54.8331 42.6723 52.6662C43.1034 50.4993 44.1673 48.5088 45.7296 46.9466C47.2918 45.3843 49.2823 44.3204 51.4492 43.8894C53.6161 43.4583 55.8622 43.6796 57.9034 44.525C59.9446 45.3705 61.6892 46.8023 62.9167 48.6394C64.1442 50.4764 64.7993 52.6362 64.7993 54.8455C64.7993 57.8082 63.6224 60.6496 61.5275 62.7445C59.4325 64.8394 56.5912 66.0163 53.6285 66.0163Z" fill="#D8962B"/>
<path opacity="0.4" d="M53.6297 40.1797C50.73 40.1797 47.8955 41.0395 45.4845 42.6505C43.0735 44.2615 41.1944 46.5512 40.0847 49.2301C38.9751 51.9091 38.6848 54.8569 39.2505 57.7008C39.8162 60.5448 41.2125 63.1571 43.2628 65.2075C45.3132 67.2578 47.9255 68.6542 50.7695 69.2199C53.6134 69.7856 56.5613 69.4952 59.2402 68.3856C61.9191 67.2759 64.2088 65.3968 65.8198 62.9858C67.4308 60.5748 68.2906 57.7403 68.2906 54.8406C68.2906 50.9523 66.746 47.2232 63.9965 44.4738C61.2471 41.7243 57.518 40.1797 53.6297 40.1797ZM53.6297 67.4908C51.129 67.4908 48.6844 66.7496 46.6048 65.361C44.5251 63.9723 42.9037 61.9983 41.9454 59.6886C40.987 57.3788 40.7347 54.8368 41.2204 52.3838C41.7061 49.9307 42.9079 47.6766 44.674 45.9063C46.4402 44.1359 48.6914 42.9287 51.1433 42.4372C53.5952 41.9457 56.1378 42.1919 58.4498 43.1447C60.7619 44.0976 62.7396 45.7143 64.1333 47.7906C65.5269 49.8669 66.2739 52.3098 66.2799 54.8104C66.2799 58.1683 64.9481 61.389 62.5766 63.7662C60.2051 66.1433 56.9875 67.4828 53.6297 67.4908Z" fill="#D8962B"/>
<path d="M57.4362 59.5415C56.6444 60.2457 55.6429 60.6701 54.5862 60.7491V62.5968H52.9437V60.7853C52.1554 60.749 51.3755 60.6069 50.625 60.3627C49.984 60.1703 49.3812 59.8679 48.8438 59.469L49.7495 57.4643C50.1991 57.7908 50.6932 58.0511 51.2168 58.2372C51.7711 58.4488 52.3525 58.5809 52.9437 58.6297V55.8823C52.2694 55.7381 51.6088 55.5361 50.9692 55.2784C50.4432 55.0571 49.9789 54.711 49.6166 54.2701C49.235 53.7616 49.0428 53.1359 49.0732 52.5008C49.0679 52.0617 49.1536 51.6262 49.3251 51.222C49.4966 50.8177 49.7501 50.4533 50.0695 50.152C50.8632 49.4356 51.8766 49.0098 52.9437 48.9443V47.1328H54.5862V48.9443C55.7652 49.0006 56.9122 49.3469 57.9253 49.9527L57.1041 51.9755C56.3328 51.5194 55.4756 51.2275 54.5862 51.1181V53.9138C55.253 54.0563 55.9058 54.2584 56.5365 54.5176C57.0602 54.7344 57.5211 55.079 57.877 55.52C58.2588 56.0214 58.4513 56.6416 58.4205 57.2711C58.4188 57.6965 58.3306 58.117 58.1614 58.5073C57.9922 58.8976 57.7455 59.2494 57.4362 59.5415ZM52.038 53.0141C52.3068 53.2224 52.6149 53.3744 52.9437 53.4609V51.1241C52.5965 51.1877 52.2754 51.3514 52.0199 51.5951C51.9238 51.6943 51.8481 51.8115 51.7974 51.94C51.7466 52.0685 51.7217 52.2057 51.724 52.3438C51.7207 52.4723 51.7474 52.5997 51.8019 52.716C51.8564 52.8324 51.9372 52.9344 52.038 53.0141ZM55.4738 58.1346C55.5649 58.0426 55.6365 57.9331 55.6842 57.8127C55.732 57.6923 55.7549 57.5636 55.7515 57.4341C55.7563 57.3058 55.7316 57.1781 55.6792 57.0609C55.6269 56.9436 55.5483 56.84 55.4496 56.7578C55.1881 56.5495 54.8887 56.3937 54.568 56.2989V58.5693C54.9049 58.5127 55.2189 58.362 55.4738 58.1346Z" fill="#D8962B"/>
<path opacity="0.3" d="M53.6291 40.1799C52.84 40.1866 52.0526 40.2553 51.2742 40.3852L39.1976 52.4617C39.0681 53.2422 38.9994 54.0316 38.9923 54.8227C38.9857 56.2536 39.1891 57.6777 39.5962 59.0495L57.862 40.7837C56.4882 40.3761 55.062 40.1726 53.6291 40.1799ZM59.2508 41.303L40.0913 60.4504C40.7481 62.0234 41.6737 63.47 42.8267 64.7255L63.5198 44.0323C62.2651 42.8828 60.8207 41.9594 59.2508 41.303Z" fill="white"/>
</g>
</svg>
