<svg width="30" height="24" viewBox="0 0 30 24" fill="none" xmlns="http://www.w3.org/2000/svg">
<path d="M17.1511 15.341C17.1511 15.341 18.3308 15.682 19.5482 16.935C20.7655 18.188 21.6397 19.3285 22.2099 19.6319C22.7802 19.9354 23.4648 20.3156 23.4648 20.3156C23.4648 20.3156 21.2965 23.998 17.7982 23.998C13.8619 23.998 11.6511 22.2229 10.0449 21.3696C8.50074 20.5538 6.62492 19.5161 3.99909 19.7054C1.37327 19.8946 -0.000915527 21.3369 -0.000915527 21.3369C-0.000915527 21.3369 0.325882 19.2861 1.67229 18.0738C3.0187 16.8616 3.87818 16.9317 3.87818 16.9317C3.87818 16.9317 2.16739 15.6608 1.90105 14.3131C1.67393 13.171 2.17392 11.5117 2.17392 11.5117C2.17392 11.5117 3.2785 13.6947 4.40432 14.7112C6.67067 16.762 8.51707 16.2873 9.8112 16.1796C11.1053 16.0719 17.1511 15.341 17.1511 15.341Z" fill="#3481D9"/>
<path d="M22.1443 21.7544C22.0149 21.5921 21.9445 21.3908 21.9445 21.1833C21.9445 20.9759 22.0149 20.7746 22.1443 20.6123C22.331 20.3654 22.4386 20.068 22.4531 19.759L22.2129 19.6301C21.9914 19.4946 21.7891 19.33 21.6116 19.1406C21.7243 19.289 21.782 19.4718 21.775 19.6578C21.7802 19.8653 21.71 20.0675 21.5773 20.2272C21.3736 20.5018 21.2637 20.8344 21.2637 21.176C21.2637 21.5176 21.3736 21.8502 21.5773 22.1247C21.6308 22.1983 21.6768 22.277 21.7146 22.3597C21.8992 22.1965 22.0708 22.0334 22.2276 21.8702C22.1999 21.8327 22.1704 21.7903 22.1443 21.7544Z" fill="#00C7BA"/>
<path d="M20.3193 21.7543C20.1899 21.592 20.1194 21.3907 20.1194 21.1832C20.1194 20.9758 20.1899 20.7745 20.3193 20.6122C20.5229 20.3376 20.6328 20.0051 20.6328 19.6634C20.6328 19.3218 20.5229 18.9892 20.3193 18.7147C20.1868 18.5555 20.1166 18.3538 20.1216 18.1469C20.114 17.9821 20.1592 17.8193 20.2506 17.6819C20.0987 17.5187 19.9385 17.3442 19.7735 17.168L19.7539 17.1973C19.5493 17.4714 19.4387 17.8042 19.4387 18.1461C19.4387 18.488 19.5493 18.8207 19.7539 19.0948C19.8833 19.2571 19.9537 19.4584 19.9537 19.6659C19.9537 19.8733 19.8833 20.0746 19.7539 20.2369C19.5493 20.511 19.4387 20.8438 19.4387 21.1857C19.4387 21.5275 19.5493 21.8603 19.7539 22.1344C19.8833 22.2967 19.9537 22.498 19.9537 22.7055C19.9537 22.9129 19.8833 23.1142 19.7539 23.2765C19.6599 23.407 19.583 23.549 19.5251 23.6991C19.8824 23.5686 20.2265 23.4047 20.5529 23.2096C20.6325 22.9659 20.6529 22.7068 20.6122 22.4537C20.5716 22.2006 20.4712 21.9609 20.3193 21.7543Z" fill="#00C7BA"/>
<path d="M18.8123 22.6996C18.8183 22.3568 18.7077 22.022 18.4985 21.75C18.3692 21.5877 18.2987 21.3864 18.2987 21.179C18.2987 20.9715 18.3692 20.7702 18.4985 20.6079C18.7022 20.3334 18.8121 20.0008 18.8121 19.6592C18.8121 19.3176 18.7022 18.985 18.4985 18.7105C18.3692 18.5482 18.2987 18.3469 18.2987 18.1394C18.2987 17.932 18.3692 17.7307 18.4985 17.5684C18.7074 17.2969 18.818 16.9627 18.8123 16.6204C18.8131 16.488 18.7977 16.356 18.7665 16.2272C18.4275 15.9647 18.0629 15.7368 17.6783 15.5469C17.7339 15.7282 17.8201 15.8987 17.9332 16.051C18.0626 16.2133 18.133 16.4146 18.133 16.6221C18.133 16.8295 18.0626 17.0308 17.9332 17.1931C17.7295 17.4676 17.6196 17.8002 17.6196 18.1419C17.6196 18.4835 17.7295 18.8161 17.9332 19.0906C18.0626 19.2529 18.133 19.4542 18.133 19.6616C18.133 19.8691 18.0626 20.0704 17.9332 20.2327C17.7295 20.5072 17.6196 20.8398 17.6196 21.1814C17.6196 21.5231 17.7295 21.8557 17.9332 22.1302C18.0626 22.2925 18.133 22.4938 18.133 22.7012C18.133 22.9087 18.0626 23.11 17.9332 23.2723C17.7733 23.4856 17.6704 23.736 17.6341 23.9999H17.7975C17.9755 23.9996 18.1534 23.9892 18.3302 23.9689C18.3667 23.8546 18.4219 23.7471 18.4936 23.6508C18.705 23.3791 18.8174 23.0436 18.8123 22.6996Z" fill="#00C7BA"/>
<path d="M16.9917 22.7025C16.9972 22.3595 16.886 22.0247 16.6763 21.753C16.548 21.5902 16.4783 21.3891 16.4783 21.1819C16.4783 20.9748 16.548 20.7737 16.6763 20.6109C16.881 20.3368 16.9915 20.004 16.9915 19.6622C16.9915 19.3203 16.881 18.9875 16.6763 18.7134C16.548 18.5506 16.4783 18.3495 16.4783 18.1424C16.4783 17.9352 16.548 17.7341 16.6763 17.5713C16.881 17.2972 16.9915 16.9645 16.9915 16.6226C16.9915 16.2807 16.881 15.9479 16.6763 15.6738C16.6159 15.5908 16.5654 15.501 16.526 15.4062L15.8414 15.4878C15.8945 15.6919 15.986 15.884 16.111 16.054C16.2404 16.2163 16.3108 16.4176 16.3108 16.625C16.3108 16.8325 16.2404 17.0338 16.111 17.1961C15.9073 17.4706 15.7974 17.8032 15.7974 18.1448C15.7974 18.4864 15.9073 18.819 16.111 19.0936C16.2404 19.2559 16.3108 19.4572 16.3108 19.6646C16.3108 19.872 16.2404 20.0733 16.111 20.2356C15.9073 20.5102 15.7974 20.8428 15.7974 21.1844C15.7974 21.526 15.9073 21.8586 16.111 22.1331C16.2404 22.2954 16.3108 22.4967 16.3108 22.7042C16.3108 22.9116 16.2404 23.1129 16.111 23.2752C15.9845 23.4469 15.8924 23.6414 15.8397 23.8479C16.0603 23.8838 16.2874 23.9148 16.5211 23.9393C16.5626 23.8377 16.6175 23.7423 16.6845 23.6554C16.8921 23.3817 17.0004 23.0457 16.9917 22.7025Z" fill="#00C7BA"/>
<path d="M14.854 21.7538C14.7246 21.5915 14.6541 21.3902 14.6541 21.1828C14.6541 20.9753 14.7246 20.774 14.854 20.6117C15.0576 20.3372 15.1675 20.0046 15.1675 19.663C15.1675 19.3213 15.0576 18.9887 14.854 18.7142C14.7246 18.5519 14.6541 18.3506 14.6541 18.1432C14.6541 17.9357 14.7246 17.7344 14.854 17.5721C15.0576 17.2976 15.1675 16.965 15.1675 16.6234C15.1675 16.2818 15.0576 15.9492 14.854 15.6746L14.8099 15.6094L14.0827 15.6942C14.1383 15.8211 14.2067 15.9419 14.287 16.0548C14.4163 16.2171 14.4868 16.4184 14.4868 16.6258C14.4868 16.8333 14.4163 17.0346 14.287 17.1969C14.0833 17.4714 13.9734 17.804 13.9734 18.1456C13.9734 18.4872 14.0833 18.8198 14.287 19.0944C14.4163 19.2567 14.4868 19.458 14.4868 19.6654C14.4868 19.8728 14.4163 20.0742 14.287 20.2365C14.0833 20.511 13.9734 20.8436 13.9734 21.1852C13.9734 21.5268 14.0833 21.8594 14.287 22.1339C14.4163 22.2962 14.4868 22.4976 14.4868 22.705C14.4868 22.9124 14.4163 23.1137 14.287 23.276C14.2526 23.3282 14.2151 23.3837 14.1791 23.4392C14.3981 23.511 14.6252 23.5779 14.8621 23.6382C15.0633 23.3649 15.1719 23.0345 15.1719 22.6952C15.1719 22.3559 15.0633 22.0255 14.8621 21.7522L14.854 21.7538Z" fill="#00C7BA"/>
<path d="M13.0335 21.7579C12.9041 21.5956 12.8336 21.3943 12.8336 21.1868C12.8336 20.9794 12.9041 20.7781 13.0335 20.6158C13.2371 20.3413 13.347 20.0087 13.347 19.667C13.347 19.3254 13.2371 18.9928 13.0335 18.7183C12.9041 18.556 12.8336 18.3547 12.8336 18.1473C12.8336 17.9398 12.9041 17.7385 13.0335 17.5762C13.2424 17.3047 13.3529 16.9706 13.3472 16.6283C13.3546 16.3396 13.2749 16.0553 13.1184 15.8125L12.3635 15.899C12.3978 15.9577 12.4338 16.0116 12.4681 16.0621C12.5975 16.2244 12.6679 16.4257 12.6679 16.6332C12.6679 16.8406 12.5975 17.0419 12.4681 17.2042C12.2645 17.4787 12.1545 17.8113 12.1545 18.153C12.1545 18.4946 12.2645 18.8272 12.4681 19.1017C12.5975 19.264 12.6679 19.4653 12.6679 19.6727C12.6679 19.8802 12.5975 20.0815 12.4681 20.2438C12.2645 20.5183 12.1545 20.8509 12.1545 21.1925C12.1545 21.5342 12.2645 21.8668 12.4681 22.1413C12.6008 22.301 12.671 22.5033 12.6658 22.7107C12.6658 22.7516 12.6631 22.7925 12.6576 22.8331C12.8635 22.931 13.0743 23.0289 13.2965 23.1202C13.3313 22.9865 13.3483 22.8488 13.3472 22.7107C13.3539 22.3668 13.2433 22.0307 13.0335 21.7579Z" fill="#00C7BA"/>
<path d="M11.0117 21.1785C11.0067 20.9716 11.0769 20.77 11.2094 20.6108C11.413 20.3362 11.5229 20.0036 11.5229 19.662C11.5229 19.3204 11.413 18.9878 11.2094 18.7133C11.08 18.551 11.0096 18.3497 11.0096 18.1422C11.0096 17.9348 11.08 17.7335 11.2094 17.5712C11.4183 17.2997 11.5289 16.9656 11.5231 16.6233C11.5278 16.4089 11.4854 16.1962 11.3989 16L10.662 16.0816C10.7846 16.235 10.8483 16.4271 10.8417 16.6233C10.847 16.8302 10.7767 17.032 10.644 17.191C10.4404 17.4656 10.3304 17.7981 10.3304 18.1398C10.3304 18.4814 10.4404 18.814 10.644 19.0885C10.7734 19.2508 10.8438 19.4521 10.8438 19.6596C10.8438 19.867 10.7734 20.0683 10.644 20.2306C10.4351 20.5021 10.3245 20.8362 10.3303 21.1785C10.3297 21.3026 10.3434 21.4263 10.3711 21.5473C10.6979 21.7349 11.0509 21.9486 11.4381 22.1705C11.3806 22.0203 11.3037 21.8783 11.2094 21.748C11.0767 21.5883 11.0065 21.386 11.0117 21.1785Z" fill="#00C7BA"/>
<path d="M9.69906 19.6643C9.70393 19.3222 9.59343 18.9883 9.38533 18.7164C9.25595 18.5541 9.18551 18.3528 9.18551 18.1454C9.18551 17.9379 9.25595 17.7366 9.38533 17.5743C9.59343 17.3024 9.70393 16.9686 9.69906 16.6264C9.70066 16.478 9.68085 16.3302 9.64024 16.1875C9.42292 16.2103 9.18926 16.2381 8.94253 16.2609C8.99536 16.3753 9.02054 16.5005 9.01605 16.6264C9.0213 16.8333 8.95104 17.0351 8.81834 17.1942C8.6147 17.4687 8.50479 17.8013 8.50479 18.1429C8.50479 18.4845 8.6147 18.8171 8.81834 19.0917C8.94772 19.254 9.01816 19.4553 9.01816 19.6627C9.01816 19.8701 8.94772 20.0714 8.81834 20.2337C8.7289 20.3588 8.65485 20.4941 8.59776 20.6367C8.81017 20.7346 9.01606 20.8358 9.21541 20.9386C9.25008 20.821 9.30541 20.7105 9.37881 20.6123C9.58924 20.3412 9.70206 20.0073 9.69906 19.6643Z" fill="#00C7BA"/>
<path d="M7.57341 18.7135C7.44403 18.5512 7.37359 18.3499 7.37359 18.1424C7.37359 17.935 7.44403 17.7337 7.57341 17.5714C7.7823 17.2999 7.8929 16.9658 7.88714 16.6235C7.88735 16.5101 7.87639 16.397 7.85445 16.2857C7.59675 16.2691 7.34063 16.2337 7.08812 16.1797C7.17141 16.3123 7.21243 16.4671 7.20576 16.6235C7.21027 16.8303 7.14009 17.0318 7.00805 17.1912C6.80342 17.4654 6.69288 17.7981 6.69288 18.14C6.69288 18.4819 6.80342 18.8146 7.00805 19.0887C7.13984 19.2483 7.20998 19.4497 7.20576 19.6565C7.21106 19.7937 7.18005 19.9299 7.11588 20.0514C7.33974 20.1183 7.55542 20.1933 7.76948 20.2716C7.85292 20.0774 7.89413 19.8678 7.89039 19.6565C7.89411 19.3155 7.78242 18.9832 7.57341 18.7135Z" fill="#00C7BA"/>
<path d="M5.74893 18.7125C5.61955 18.5502 5.5491 18.3489 5.5491 18.1415C5.5491 17.9341 5.61955 17.7327 5.74893 17.5704C5.95256 17.2959 6.0625 16.9633 6.0625 16.6217C6.0625 16.2801 5.95256 15.9475 5.74893 15.6729C5.4408 15.5038 5.14682 15.3101 4.86984 15.0938V15.1052C4.86407 15.4475 4.97467 15.7816 5.18357 16.0531C5.31295 16.2154 5.38339 16.4167 5.38339 16.6241C5.38339 16.8316 5.31295 17.0329 5.18357 17.1952C4.97993 17.4697 4.87002 17.8023 4.87002 18.1439C4.87002 18.4856 4.97993 18.8182 5.18357 19.0927C5.316 19.2519 5.38623 19.4536 5.38128 19.6605C5.38128 19.68 5.38128 19.6964 5.38128 19.7127C5.6133 19.7339 5.8388 19.7665 6.05775 19.804C6.06031 19.7562 6.06031 19.7083 6.05775 19.6605C6.06492 19.3187 5.95607 18.9846 5.74893 18.7125Z" fill="#00C7BA"/>
<path d="M3.92582 18.7126C3.79699 18.55 3.7269 18.3488 3.7269 18.1415C3.7269 17.9343 3.79699 17.733 3.92582 17.5705C4.12946 17.296 4.23937 16.9634 4.23937 16.6218C4.23937 16.2801 4.12946 15.9475 3.92582 15.673C3.79644 15.5107 3.72598 15.3094 3.72598 15.102C3.72598 14.8945 3.79644 14.6932 3.92582 14.5309C3.96503 14.4738 4.00588 14.4102 4.04673 14.34C3.88333 14.1508 3.70849 13.9419 3.54672 13.7266C3.52255 13.882 3.45773 14.0283 3.35881 14.1508C3.15517 14.4253 3.04525 14.7579 3.04525 15.0995C3.04525 15.4411 3.15517 15.7737 3.35881 16.0483C3.49122 16.2081 3.56144 16.4103 3.55654 16.6177C3.55735 16.6313 3.55735 16.6449 3.55654 16.6585C3.74935 16.8216 3.88333 16.9211 3.88333 16.9211C3.75001 16.9228 3.61753 16.9426 3.48954 16.9799C3.45251 17.0513 3.41047 17.12 3.36372 17.1855C3.16008 17.46 3.05016 17.7926 3.05016 18.1342C3.05016 18.4758 3.16008 18.8084 3.36372 19.083C3.49615 19.2421 3.56637 19.4438 3.56142 19.6507C3.56142 19.6817 3.56142 19.7111 3.56142 19.7388C3.70685 19.7192 3.85392 19.7029 4.00752 19.6915L4.24608 19.6817C4.24608 19.6703 4.24608 19.6621 4.24608 19.6507C4.24776 19.311 4.13496 18.9806 3.92582 18.7126Z" fill="#00C7BA"/>
<path d="M22.9093 6.72145C23.1074 6.56004 23.3615 6.48351 23.6159 6.50858C23.8703 6.53365 24.1045 6.65829 24.2672 6.85524L27.4143 10.6731C27.5777 10.8623 27.5139 11.4252 27.3244 11.5802L26.9388 11.8967C26.8151 11.997 26.6569 12.0444 26.4984 12.0289C26.3399 12.0133 26.194 11.9359 26.0923 11.8135L22.7753 8.07727C22.6137 7.87948 22.537 7.62583 22.5621 7.37176C22.5873 7.1177 22.7121 6.88389 22.9093 6.72145Z" fill="#3481D9"/>
<path d="M24.7031 9.34375L23.9711 13.377V16.1587C23.9711 17.043 24.3878 18.6387 23.4629 20.3159C21.4302 19.4708 21.0806 18.6664 20.0185 17.4346C21.6231 14.6153 23.0528 12.1304 24.7031 9.34375Z" fill="#A897FF"/>
<path d="M23.4077 3.55796C23.1659 2.90534 22.8358 2.14341 22.692 1.81873V1.78936C22.3652 0.764749 21.9306 0.454755 20.9502 0.423755C19.9698 0.394387 19.1528 0.704376 19.1299 1.68168L19.0744 3.47638C19.0624 3.92257 19.2186 4.35698 19.5123 4.69352L19.8162 6.44417L21.8816 6.50781L21.6692 5.11283C21.932 4.97772 22.1571 4.77951 22.3243 4.53601C22.4914 4.29252 22.5953 4.01138 22.6267 3.71786L23.2443 3.7358C23.3407 3.73417 23.4404 3.6428 23.4077 3.55796Z" fill="#3481D9"/>
<path d="M22.2612 3.70312L22.6484 3.71455L22.6109 3.93318L22.235 3.92176L21.3543 4.71796L21.222 4.56948" fill="#D9D8E1"/>
<path d="M22.2793 0.286861C20.1666 -0.414706 18.2205 0.0666017 18.3855 2.89734C18.1803 3.15282 18.0752 3.47408 18.0898 3.80123C18.1339 4.51911 18.2956 4.74753 17.9688 5.10647C17.642 5.46541 17.7613 5.92225 17.8185 6.0854C17.8757 6.24856 17.2532 6.6646 17.2809 7.31559H19.9476L19.879 4.54195C19.9051 4.42795 19.9182 4.31137 19.9182 4.19443C19.9182 3.28729 20.1388 2.97566 20.5081 2.66893C20.8774 2.3622 20.6584 1.61495 20.6584 1.61495C21.109 1.59435 21.5547 1.51313 21.9835 1.37348C22.6911 1.14996 22.2793 0.286861 22.2793 0.286861Z" fill="#D9D8E1"/>
<path d="M22.4375 1.97656L22.4244 2.24903L21.7087 2.29307L21.328 2.45134L21.2904 2.29471L21.6842 2.04834L22.4375 1.97656Z" fill="#D9D8E1"/>
<path d="M21.7259 2.70472C21.7259 2.70472 22.1491 2.29683 22.4727 2.70472C22.4727 2.70472 22.1851 3.01961 21.7259 2.70472Z" fill="white"/>
<path d="M22.2038 2.84194C22.1135 2.84194 22.0404 2.76889 22.0404 2.67878C22.0404 2.58867 22.1135 2.51562 22.2038 2.51562C22.294 2.51562 22.3672 2.58867 22.3672 2.67878C22.3672 2.76889 22.294 2.84194 22.2038 2.84194Z" fill="#373382"/>
<path d="M21.9375 4.19531L21.864 4.72068L21.462 4.67989L21.5045 4.51183L21.9375 4.19531Z" fill="#D9D8E1"/>
<path d="M26.7525 12.2908C26.2394 12.1554 25.9486 11.5631 26.0989 10.9758L27.8032 5.33059C27.8281 5.20674 27.9009 5.09769 28.0058 5.02713C28.1108 4.95656 28.2393 4.93018 28.3636 4.95371L28.8538 5.08259C29.0142 5.13936 29.1461 5.25634 29.2215 5.40868C29.2968 5.56101 29.3097 5.73669 29.2574 5.89837L27.9715 11.4701C27.813 12.0509 27.2656 12.4197 26.7525 12.2908Z" fill="#3481D9"/>
<path d="M28.2076 3.70808C28.2288 3.71338 28.2487 3.72286 28.2661 3.73597C28.2836 3.74909 28.2982 3.76556 28.3092 3.78442C28.3201 3.80328 28.3272 3.82415 28.33 3.84578C28.3327 3.86742 28.3311 3.88939 28.3252 3.91039L28.1357 4.62011H28.1602L28.2599 4.64785L28.3628 4.2628L28.3775 4.20733L28.6716 3.0995C28.6812 3.06381 28.7045 3.03335 28.7365 3.01484C28.7685 2.99633 28.8066 2.99128 28.8424 3.0008C28.8781 3.01032 28.9086 3.03363 28.9272 3.06561C28.9457 3.09758 28.9508 3.13559 28.9412 3.17129L28.6896 4.10943L28.8138 4.14207L29.0834 3.1305C29.0943 3.09659 29.1178 3.06817 29.1492 3.05113C29.1805 3.03408 29.2172 3.02973 29.2516 3.03896C29.2861 3.04819 29.3156 3.07029 29.3342 3.1007C29.3528 3.13111 29.3589 3.16749 29.3514 3.20229L29.0818 4.21386L29.1929 4.24322L29.4216 3.38503C29.4312 3.34933 29.4545 3.31887 29.4865 3.30036C29.5185 3.28185 29.5566 3.2768 29.5924 3.28632C29.6281 3.29584 29.6586 3.31915 29.6772 3.35113C29.6957 3.3831 29.7008 3.42112 29.6912 3.45681L29.4625 4.31501L29.5 4.3248C29.5249 4.33162 29.549 4.34091 29.572 4.35254L29.7354 3.76355C29.745 3.72941 29.7671 3.70018 29.7975 3.68172C29.8278 3.66326 29.864 3.65693 29.8987 3.66402C29.9328 3.67361 29.962 3.69584 29.9802 3.72616C29.9984 3.75649 30.0044 3.79263 29.9968 3.82718L29.7517 4.75064L29.6863 4.99048L29.6291 5.20748C29.5701 5.42654 29.4267 5.61337 29.2301 5.7271C29.0335 5.84084 28.7998 5.87222 28.5801 5.81441L28.3301 5.74752H28.3187L28.1193 5.69531C27.9663 5.65364 27.8359 5.55327 27.7566 5.41605C27.6774 5.27884 27.6556 5.1159 27.6961 4.96274V4.92684L27.7125 4.86648L27.9935 3.81576C27.9997 3.79417 28.0104 3.7741 28.0247 3.75681C28.0391 3.73951 28.0569 3.72537 28.077 3.71526C28.0971 3.70515 28.1191 3.69929 28.1415 3.69805C28.164 3.69682 28.1865 3.70023 28.2076 3.70808Z" fill="#3481D9"/>
<path d="M23.0657 6.19531H17.5249C16.7961 6.19531 16.1997 6.71415 16.1997 7.34882L16.7242 11.0198C16.7242 11.0198 16.3974 13.4834 17.2454 17.3355C17.7547 16.8379 18.189 16.2691 18.5347 15.6469H19.9105C21.2318 13.627 22.5663 11.611 23.9138 9.59873L24.3827 7.34882C24.3909 6.71415 23.7945 6.19531 23.0657 6.19531Z" fill="#FF2972"/>
<path d="M25.7109 8.5378L24.3678 6.90625L18.2845 15.8798C18.2845 15.8798 17.2763 17.154 17.0753 17.7071C16.8499 18.6675 16.3933 19.5585 15.7452 20.3029C18.8874 19.8836 19.9528 17.606 19.9544 17.606L25.7109 8.5378Z" fill="#FFBE44"/>
<path d="M17.1711 14.9838C17.1711 14.4535 17.6613 14.0195 18.2774 14.0195L24.1793 14.2121C24.3052 14.2044 24.429 14.2465 24.5241 14.3292C24.6192 14.4119 24.6779 14.5286 24.6875 14.6542V15.1535C24.6741 15.3234 24.5946 15.4814 24.4661 15.5936C24.3375 15.7058 24.1701 15.7633 23.9996 15.7539L18.2806 15.9464C17.6695 15.9464 17.1711 15.5124 17.1711 14.9838Z" fill="#3481D9"/>
<path d="M25.846 14.1821C25.846 14.2253 25.8288 14.2668 25.7982 14.2974C25.7675 14.328 25.726 14.3452 25.6826 14.3452H24.9473C24.9473 14.3452 24.9473 14.3615 24.9473 14.3697V14.4774H26.5503C26.5871 14.4774 26.6225 14.492 26.6485 14.518C26.6746 14.544 26.6892 14.5793 26.6892 14.616C26.6892 14.6528 26.6746 14.6881 26.6485 14.7141C26.6225 14.7401 26.5871 14.7547 26.5503 14.7547H25.5699V14.882H26.6189C26.6558 14.882 26.6911 14.8966 26.7171 14.9226C26.7432 14.9486 26.7578 14.9839 26.7578 15.0207C26.7578 15.0574 26.7432 15.0927 26.7171 15.1187C26.6911 15.1447 26.6558 15.1594 26.6189 15.1594H25.5699V15.2752H26.4588C26.4956 15.2752 26.5309 15.2898 26.557 15.3158C26.583 15.3418 26.5977 15.3771 26.5977 15.4139C26.5977 15.4507 26.583 15.4859 26.557 15.5119C26.5309 15.5379 26.4956 15.5526 26.4588 15.5526H25.5699V15.5917C25.5724 15.6172 25.5724 15.6429 25.5699 15.6684H26.181C26.2177 15.6688 26.2528 15.6836 26.2787 15.7095C26.3047 15.7354 26.3195 15.7704 26.3199 15.8071C26.3195 15.8437 26.3047 15.8788 26.2787 15.9047C26.2528 15.9306 26.2177 15.9453 26.181 15.9458H24.7513C24.5239 15.9453 24.3059 15.8549 24.1452 15.6944C23.9844 15.5339 23.8939 15.3162 23.8934 15.0892V14.6144C23.8939 14.4557 23.9572 14.3037 24.0695 14.1915C24.1819 14.0793 24.3342 14.0161 24.4931 14.0156H25.681C25.7029 14.0154 25.7246 14.0196 25.7448 14.0279C25.765 14.0362 25.7834 14.0485 25.7988 14.064C25.8142 14.0795 25.8263 14.098 25.8344 14.1182C25.8425 14.1385 25.8465 14.1602 25.846 14.1821Z" fill="#3481D9"/>
<path d="M19.5009 3.30531L19.9911 3.17969L20.5924 4.25814C20.6412 4.34518 20.7123 4.41767 20.7985 4.46814C20.8846 4.51861 20.9827 4.54524 21.0826 4.5453H21.978C22.0378 4.54173 22.0955 4.52271 22.1457 4.4901C22.1958 4.45749 22.2366 4.41241 22.264 4.3593L22.3359 4.21572H22.4911L23.1055 7.24878C23.1274 7.34863 23.1262 7.45215 23.102 7.55148C23.0778 7.6508 23.0313 7.74331 22.9659 7.82197C22.9005 7.90063 22.818 7.96337 22.7247 8.0054C22.6314 8.04744 22.5297 8.06767 22.4274 8.06455L21.898 8.04823C21.8634 8.04551 21.8302 8.03386 21.8015 8.0144C21.7729 7.99495 21.7498 7.96837 21.7346 7.93729L20.4878 5.33986L19.5009 3.30531Z" fill="#D9D8E1"/>
</svg>
