<svg width="108" height="108" viewBox="0 0 108 108" fill="none" xmlns="http://www.w3.org/2000/svg">
<g style="mix-blend-mode:luminosity">
<rect x="11.2383" y="40.5547" width="47.9339" height="40.4438" fill="#3317A5" stroke="#D9D8E1" stroke-width="2"/>
<g style="mix-blend-mode:multiply">
<rect x="35.2031" y="42.0508" width="22.4702" height="37.4504" fill="#AFACC9"/>
</g>
<rect x="10.2383" y="34.5586" width="49.9339" height="4.99339" fill="#D9D8E1"/>
<rect x="45.1914" y="37.0547" width="12.4835" height="2.49669" rx="1.24835" fill="#6C679D"/>
<path d="M27.2309 70.0165L18.2578 61.0434L19.0806 60.2206C19.3445 59.9489 25.6474 53.6149 27.2387 52.0625L28.8687 53.7314C27.6268 54.9345 23.3576 59.2193 21.549 61.0434L28.8765 68.3709L27.2309 70.0165Z" fill="#937DFF"/>
<path d="M42.4542 70.0321L40.8242 68.3632C42.0661 67.1523 46.3353 62.8675 48.1439 61.0434L40.8164 53.7159L42.462 52.0703L51.4351 61.0434L50.6123 61.8662C50.3717 62.1379 44.0455 68.4719 42.4542 70.0321Z" fill="#937DFF"/>
<path d="M37.411 48.2934L30.0391 73.1328L32.2715 73.7954L39.6434 48.956L37.411 48.2934Z" fill="#937DFF"/>
<circle cx="13.9827" cy="38.303" r="1.24835" fill="#6C679D"/>
<circle cx="17.7249" cy="38.303" r="1.24835" fill="#6C679D"/>
<circle cx="21.4749" cy="38.303" r="1.24835" fill="#6C679D"/>
<g filter="url(#filter0_d_6934_137923)">
<path d="M72.9545 94.0019H54.8631C53.6514 94.0019 52.6797 93.0182 52.6797 91.8185V75.7186C52.6797 74.5069 53.6634 73.5352 54.8631 73.5352H72.9665C74.1782 73.5352 75.1499 74.5189 75.1499 75.7186V91.8065C75.1499 93.0182 74.1662 94.0019 72.9545 94.0019Z" fill="#FFBE44"/>
<path d="M57.5218 69.8823L57.5219 69.8852L57.59 73.4216C57.602 74.0482 58.1142 74.5495 58.7405 74.5495C59.3755 74.5495 59.8913 74.0348 59.8913 73.3995V69.8823C59.8913 67.4618 61.8602 65.4929 64.2808 65.4929C66.37 65.4929 68.1229 66.9598 68.5563 68.9177C68.6868 69.507 69.1703 70.0323 69.8135 70.0323H69.8897C70.5175 70.0323 71.062 69.5156 70.963 68.8634C70.4699 65.6144 67.6566 63.1234 64.2808 63.1234C60.5599 63.1234 57.5219 66.15 57.5218 69.8823Z" fill="#FFBE44" stroke="#FFBE44" stroke-width="0.3"/>
<path d="M66.45 81.0082C66.45 79.7005 65.3823 78.6328 64.0746 78.6328C62.7669 78.6328 61.6992 79.7005 61.6992 81.0082C61.6992 81.752 62.0471 82.3998 62.575 82.8437L62.0471 89.586H66.0901L65.5142 82.8797C66.0901 82.4478 66.45 81.776 66.45 81.0082Z" fill="#373382"/>
</g>
<path d="M76.321 65.83C77.0655 65.6559 77.3318 65.3414 77.3318 65.3414C77.5622 65.0251 77.7067 64.6544 77.7512 64.2656L77.9902 64.3306C78.1643 65.0772 78.4788 65.3414 78.4788 65.3414C78.7946 65.5728 79.1655 65.7174 79.5546 65.7608L79.4896 65.9999C78.7431 66.176 78.4788 66.4885 78.4788 66.4885C78.2477 66.8052 78.1031 67.1767 78.0594 67.5663L77.8204 67.4992C77.6442 66.7548 77.3318 66.4885 77.3318 66.4885C77.0145 66.2584 76.6433 66.114 76.2539 66.0691L76.321 65.83Z" fill="white"/>
<path d="M85.0994 58.1269C85.5957 57.9528 85.7733 57.6383 85.7733 57.6383C85.9269 57.3219 86.0232 56.9513 86.0529 56.5625L86.2122 56.6275C86.3283 57.374 86.538 57.6383 86.538 57.6383C86.7485 57.8697 86.9958 58.0143 87.2552 58.0577L87.2118 58.2967C86.7141 58.4729 86.538 58.7853 86.538 58.7853C86.3839 59.102 86.2875 59.4736 86.2584 59.8632L86.099 59.7961C85.9816 59.0517 85.7733 58.7853 85.7733 58.7853C85.5617 58.5553 85.3143 58.4108 85.0547 58.3659L85.0994 58.1269Z" fill="white"/>
<path d="M81.7986 36.123C82.2949 35.9489 82.4725 35.6344 82.4725 35.6344C82.6261 35.318 82.7224 34.9474 82.7521 34.5586L82.9115 34.6236C83.0275 35.3701 83.2372 35.6344 83.2372 35.6344C83.4477 35.8658 83.695 36.0104 83.9544 36.0538L83.911 36.2928C83.4133 36.469 83.2372 36.7814 83.2372 36.7814C83.0831 37.0981 82.9867 37.4697 82.9576 37.8593L82.7982 37.7922C82.6808 37.0478 82.4725 36.7814 82.4725 36.7814C82.261 36.5514 82.0135 36.4069 81.7539 36.362L81.7986 36.123Z" fill="white"/>
<path d="M76.3434 50.9491C77.336 50.717 77.6911 50.2976 77.6911 50.2976C77.9983 49.8759 78.1909 49.3817 78.2503 48.8633L78.569 48.95C78.8011 49.9453 79.2205 50.2976 79.2205 50.2976C79.6415 50.6062 80.1361 50.799 80.6549 50.8569L80.5682 51.1756C79.5728 51.4105 79.2205 51.8271 79.2205 51.8271C78.9123 52.2493 78.7195 52.7447 78.6613 53.2642L78.3425 53.1748C78.1077 52.1822 77.6911 51.8271 77.6911 51.8271C77.268 51.5203 76.773 51.3277 76.2539 51.2679L76.3434 50.9491Z" fill="white"/>
<path d="M87.3697 45.9667C88.6104 45.6766 89.0543 45.1523 89.0543 45.1523C89.4383 44.6251 89.6791 44.0074 89.7533 43.3594L90.1517 43.4677C90.4418 44.712 90.966 45.1523 90.966 45.1523C91.4923 45.538 92.1105 45.779 92.759 45.8513L92.6507 46.2498C91.4064 46.5434 90.966 47.0641 90.966 47.0641C90.5808 47.592 90.3399 48.2111 90.267 48.8606L89.8686 48.7487C89.575 47.508 89.0543 47.0641 89.0543 47.0641C88.5254 46.6807 87.9067 46.4399 87.2578 46.3651L87.3697 45.9667Z" fill="white"/>
</g>
<defs>
<filter id="filter0_d_6934_137923" x="49.6797" y="59.9727" width="28.4688" height="37.0273" filterUnits="userSpaceOnUse" color-interpolation-filters="sRGB">
<feFlood flood-opacity="0" result="BackgroundImageFix"/>
<feColorMatrix in="SourceAlpha" type="matrix" values="0 0 0 0 0 0 0 0 0 0 0 0 0 0 0 0 0 0 127 0" result="hardAlpha"/>
<feOffset/>
<feGaussianBlur stdDeviation="1.5"/>
<feColorMatrix type="matrix" values="0 0 0 0 0.0313726 0 0 0 0 0.0117647 0 0 0 0 0.270588 0 0 0 0.7 0"/>
<feBlend mode="normal" in2="BackgroundImageFix" result="effect1_dropShadow_6934_137923"/>
<feBlend mode="normal" in="SourceGraphic" in2="effect1_dropShadow_6934_137923" result="shape"/>
</filter>
</defs>
</svg>
