<svg width="16" height="16" viewBox="0 0 16 16" fill="none" xmlns="http://www.w3.org/2000/svg">
<path d="M8.00016 1.33337C4.32016 1.33337 1.3335 4.32004 1.3335 8.00004C1.3335 11.68 4.32016 14.6667 8.00016 14.6667C11.6802 14.6667 14.6668 11.68 14.6668 8.00004C14.6668 4.32004 11.6802 1.33337 8.00016 1.33337ZM8.00016 13.3334C5.0535 13.3334 2.66683 10.9467 2.66683 8.00004C2.66683 5.05337 5.0535 2.66671 8.00016 2.66671C10.9468 2.66671 13.3335 5.05337 13.3335 8.00004C13.3335 10.9467 10.9468 13.3334 8.00016 13.3334Z" fill="#937DFF"/>
<path d="M4.66699 9C5.21928 9 5.66699 8.55228 5.66699 8C5.66699 7.44772 5.21928 7 4.66699 7C4.11471 7 3.66699 7.44772 3.66699 8C3.66699 8.55228 4.11471 9 4.66699 9Z" fill="#937DFF"/>
<path d="M8 9C8.55228 9 9 8.55228 9 8C9 7.44772 8.55228 7 8 7C7.44772 7 7 7.44772 7 8C7 8.55228 7.44772 9 8 9Z" fill="#937DFF"/>
<path d="M11.3335 9C11.8858 9 12.3335 8.55228 12.3335 8C12.3335 7.44772 11.8858 7 11.3335 7C10.7812 7 10.3335 7.44772 10.3335 8C10.3335 8.55228 10.7812 9 11.3335 9Z" fill="#937DFF"/>
</svg>
