<svg width="24" height="24" viewBox="0 0 24 24" fill="none" xmlns="http://www.w3.org/2000/svg">
<path fill-rule="evenodd" clip-rule="evenodd" d="M9.68762 12.5414L9.88208 12.6234L17.7704 4.04883L19.4439 5.58839L18.471 6.64593L20.5861 8.59172L19.0465 10.2652L16.9315 8.31943L11.556 14.1625L11.6531 14.3492C12.4159 15.8155 12.2353 17.669 11.0602 18.9463C9.55786 20.5794 7.01633 20.6761 5.39285 19.1825C3.75928 17.6797 3.65378 15.1487 5.15661 13.5151C6.33243 12.237 8.15389 11.8946 9.68762 12.5414ZM6.93242 17.509C7.636 18.1563 8.73948 18.1103 9.38675 17.4067C10.034 16.7031 9.98802 15.5997 9.28444 14.9524C8.58086 14.3051 7.47738 14.3511 6.83011 15.0547C6.18284 15.7583 6.22884 16.8617 6.93242 17.509Z" fill="white"/>
</svg>
