<svg width="30" height="30" viewBox="0 0 30 30" fill="none" xmlns="http://www.w3.org/2000/svg">
<g filter="url(#filter0_d)">
<path d="M8.79989 19.0599C8.72989 19.0599 8.64989 19.0699 8.57989 19.0799C5.78989 19.4199 5.28989 23.2799 5.09989 24.4599C5.08989 24.5399 5.17989 24.5899 5.23989 24.5299C5.60989 24.1799 5.99989 23.9299 6.24989 23.7799C6.06989 24.9599 6.04989 26.0699 6.24989 26.6699C6.26989 26.7299 6.33989 26.7399 6.38989 26.6999C7.11989 26.0099 7.80989 25.5899 8.44989 25.3299C8.22989 25.7599 8.13989 26.1499 8.09989 26.3799C8.08989 26.4499 8.16989 26.4999 8.22989 26.4599C9.56989 25.4599 10.4899 24.8699 11.0699 24.6699C11.4399 24.5799 11.8399 24.3099 12.0999 24.0399C13.2699 22.7999 12.7299 21.5199 11.3899 20.2599C10.5799 19.4999 9.66989 19.0299 8.81989 19.0499C8.81989 19.0599 8.80989 19.0599 8.79989 19.0599Z" fill="#FF3F25"/>
<path opacity="0.35" d="M7.18978 25.12C7.99978 24.24 8.27978 23.72 8.95978 23.25C8.74978 23.47 8.75978 24.11 8.95978 24.56C8.97978 24.6 9.03978 24.61 9.06978 24.58C10.0498 23.46 10.9798 23.36 11.9198 23.1L11.8698 23.09C11.9898 23.07 12.0798 23.03 12.1498 22.95C12.7698 22.29 12.1898 21.03 11.4098 20.29C10.6298 19.55 9.26978 19.14 8.22978 19.86C6.42978 21.11 6.69978 23.64 7.06978 25.08C7.08978 25.14 7.14978 25.16 7.18978 25.12Z" fill="#FFBE44"/>
<path d="M8.4501 23.0198C9.0601 22.3998 9.6401 22.0998 10.1701 21.9598C9.9401 22.2898 9.6901 22.7198 9.6901 23.0298C9.6901 23.1098 9.7801 23.1398 9.8401 23.0898C10.5701 22.3098 11.0101 22.2598 11.6501 22.0298L11.6201 22.0198C11.7001 21.9998 11.7701 21.9598 11.8201 21.9098C12.2901 21.4198 11.8801 20.7098 11.3801 20.2498C10.8801 19.7798 10.0501 19.4298 9.2901 19.9898C8.0201 20.9298 8.1701 22.0298 8.3001 22.9798C8.3201 23.0498 8.4001 23.0698 8.4501 23.0198Z" fill="#FFBE44"/>
<path d="M25.9802 4.60004L26.4502 3.89004C26.6002 3.66004 26.5602 3.35004 26.3602 3.17004C26.1602 2.99004 25.8602 2.98004 25.6502 3.14004L24.9502 3.67004L25.9802 4.60004Z" fill="#D9D8E1"/>
<path d="M11.73 12.3401C11.73 12.3401 7.81003 11.7801 3.87003 15.8401C3.55003 16.1701 3.65003 16.8201 4.10003 16.8801C6.06003 17.1401 8.08003 17.1301 9.79003 17.2901C10.18 14.8701 11.01 13.3701 11.73 12.3401Z" fill="#D9D8E1"/>
<path d="M18.6099 18.5801C18.6099 18.5801 19.5499 22.4301 15.8899 26.7401C15.5899 27.0901 14.9399 27.0601 14.8399 26.6101C14.3899 24.6801 14.1999 22.6701 13.8799 20.9901C16.2499 20.3701 17.6599 19.4001 18.6099 18.5801Z" fill="#D9D8E1"/>
<path opacity="0.5" d="M3.8798 15.84C3.5598 16.17 3.6598 16.82 4.1098 16.88C6.0698 17.14 9.3398 17.16 11.0398 17.32C11.4198 14.9 8.5098 14.72 3.8798 15.84Z" fill="#7360FC"/>
<path opacity="0.5" d="M15.9002 26.7401C15.6002 27.0901 14.9502 27.0601 14.8502 26.6101C14.4002 24.6801 14.0602 21.4301 13.7402 19.7501C16.0902 19.1401 17.2902 20.7601 15.9002 26.7401Z" fill="#7360FC"/>
<path d="M19.0702 18.3001C14.9302 22.8701 12.5602 22.2801 10.6002 20.5001C8.64019 18.7201 7.82019 16.4301 11.9702 11.8601C12.0702 11.7501 14.7502 8.80008 14.8502 8.69008C18.9302 4.33008 23.7002 2.22008 25.6102 3.95008C27.5202 5.68008 25.8802 10.6301 21.9402 15.1201C21.8402 15.2401 19.1602 18.1901 19.0702 18.3001Z" fill="#7360FC"/>
<path d="M18.1002 12.2301C19.4802 13.4901 20.9102 14.4301 22.5202 14.4401C26.0302 10.1501 27.4202 5.61015 25.6002 3.96015C23.7802 2.31015 19.4002 4.14015 15.4702 8.05015C15.6402 9.65015 16.7202 10.9801 18.1002 12.2301Z" fill="#A897FF"/>
<path d="M20.6901 11.2001C21.6953 11.2001 22.5101 10.3852 22.5101 9.38006C22.5101 8.3749 21.6953 7.56006 20.6901 7.56006C19.685 7.56006 18.8701 8.3749 18.8701 9.38006C18.8701 10.3852 19.685 11.2001 20.6901 11.2001Z" fill="#D9D8E1"/>
<path d="M20.6902 11.56C20.1502 11.56 19.6302 11.36 19.2202 10.99C18.7902 10.6 18.5302 10.06 18.5102 9.47999C18.4902 8.89999 18.6802 8.33999 19.0702 7.90999C19.8802 7.01999 21.2602 6.94999 22.1602 7.75999C22.5902 8.14999 22.8502 8.68999 22.8702 9.26999C22.9002 9.84999 22.7002 10.41 22.3102 10.84C21.9202 11.27 21.3802 11.53 20.8002 11.55C20.7602 11.56 20.7202 11.56 20.6902 11.56ZM19.6102 8.39999C19.0702 8.98999 19.1202 9.90999 19.7102 10.45C20.0002 10.71 20.3702 10.84 20.7602 10.82C21.1502 10.8 21.5002 10.63 21.7602 10.35C22.3002 9.75999 22.2502 8.83999 21.6602 8.29999C21.0702 7.75999 20.1502 7.80999 19.6102 8.39999Z" fill="#7360FC"/>
</g>
<defs>
<filter id="filter0_d" x="0" y="0" width="30" height="30" filterUnits="userSpaceOnUse" color-interpolation-filters="sRGB">
<feFlood flood-opacity="0" result="BackgroundImageFix"/>
<feColorMatrix in="SourceAlpha" type="matrix" values="0 0 0 0 0 0 0 0 0 0 0 0 0 0 0 0 0 0 127 0"/>
<feOffset/>
<feGaussianBlur stdDeviation="1.5"/>
<feColorMatrix type="matrix" values="0 0 0 0 0.0313726 0 0 0 0 0.0117647 0 0 0 0 0.270588 0 0 0 0.7 0"/>
<feBlend mode="normal" in2="BackgroundImageFix" result="effect1_dropShadow"/>
<feBlend mode="normal" in="SourceGraphic" in2="effect1_dropShadow" result="shape"/>
</filter>
</defs>
</svg>
