<svg width="16" height="16" viewBox="0 0 16 16" fill="none" xmlns="http://www.w3.org/2000/svg">
<path d="M7.9935 1.33337C4.3135 1.33337 1.3335 4.32004 1.3335 8.00004C1.3335 11.68 4.3135 14.6667 7.9935 14.6667C11.6802 14.6667 14.6668 11.68 14.6668 8.00004C14.6668 4.32004 11.6802 1.33337 7.9935 1.33337ZM8.00016 13.3334C5.0535 13.3334 2.66683 10.9467 2.66683 8.00004C2.66683 5.05337 5.0535 2.66671 8.00016 2.66671C10.9468 2.66671 13.3335 5.05337 13.3335 8.00004C13.3335 10.9467 10.9468 13.3334 8.00016 13.3334ZM8.3335 4.66671H7.3335V8.66671L10.8335 10.7667L11.3335 9.94671L8.3335 8.16671V4.66671Z" fill="#FFBE44"/>
</svg>
