<svg width="24" height="24" viewBox="0 0 24 24" fill="none" xmlns="http://www.w3.org/2000/svg">
<path d="M11.9398 23.35C3.55978 22.16 4.09978 16.11 4.27978 4.54999L11.9398 0.649994" fill="#DB9A31"/>
<path d="M11.9399 23.35C20.3199 22.16 20.0799 15.14 19.5999 4.54999L11.9399 0.649994" fill="#AA670E"/>
<path d="M17.2498 6.26999L11.9398 3.42999L6.62978 6.26999C6.30978 12.44 5.67978 19.99 11.9398 20.57C18.2098 19.99 17.3498 11.6 17.2498 6.26999Z" fill="#FFBE44"/>
<path opacity="0.61" d="M11.9398 3.42999L6.62979 6.26999C6.59979 6.96999 6.55979 7.68999 6.52979 8.40999C8.84979 6.86999 11.2398 5.47999 13.6498 4.32999L11.9398 3.42999Z" fill="#FFDC48"/>
<g opacity="0.3">
<path opacity="0.3" d="M17.2498 6.27L13.6398 4.34C11.2398 5.48 8.83979 6.87 6.51979 8.42C6.44979 9.98 6.40979 11.56 6.49979 13.04C10.0798 10.65 13.7298 8.58 17.2498 6.27C17.2498 6.28 17.2498 6.27 17.2498 6.27Z" fill="#E09D32"/>
</g>
<path opacity="0.61" d="M17.25 6.28C13.73 8.58 10.08 10.66 6.5 13.04C6.62 14.92 6.95 16.64 7.71 17.97C10.75 15.69 13.97 13.59 17.32 11.63C17.38 9.76 17.28 7.88 17.25 6.28Z" fill="#FFDC48"/>
<g opacity="0.3">
<path opacity="0.3" d="M7.71973 17.97C8.53973 19.4 9.85973 20.38 11.9397 20.57C16.3197 20.16 17.2097 15.94 17.3297 11.62C13.9797 13.59 10.7597 15.69 7.71973 17.97Z" fill="#E09D32"/>
</g>
<path d="M11.9398 1.58999L18.7798 5.07999C19.2698 16.06 19.0898 21.43 11.9398 22.51C4.82978 21.45 4.90978 16.67 5.08978 6.26999L5.10978 5.07999L11.9398 1.58999ZM11.9398 0.649994L4.27978 4.54999C4.09978 16.12 3.55978 22.16 11.9398 23.35C20.3198 22.16 20.0798 15.14 19.5998 4.54999L11.9398 0.649994Z" fill="#F4D178"/>
<path opacity="0.22" d="M11.9399 23.35C20.3199 22.16 20.0799 15.14 19.5999 4.54999L11.9399 0.649994" fill="#AA670E"/>
</svg>
