<svg width="30" height="30" viewBox="0 0 30 30" fill="none" xmlns="http://www.w3.org/2000/svg">
<g filter="url(#filter0_d)">
<path d="M15.8601 10.67C15.7301 10.75 15.6001 10.83 15.4701 10.92C10.4301 14.33 5.72008 21.8 4.22008 24.12C4.12008 24.27 4.23008 24.27 4.38008 24.11C5.36008 23.1 5.41008 23.05 5.99008 22.53C4.51008 24.83 4.21008 26.07 3.96008 26.95C3.94008 27.03 4.04008 26.99 4.16008 26.87C6.07008 24.9 7.02008 23.99 8.38008 22.87C7.59008 23.86 7.67008 24.13 7.38008 24.58C7.29008 24.72 7.38008 24.73 7.52008 24.59C10.7901 21.44 12.9301 19.46 14.1001 18.53C14.8101 18 15.7601 17.12 16.4701 16.36C19.6701 12.96 20.0501 11.19 19.0501 10.25C18.4501 9.67997 17.3801 9.74997 15.9201 10.64C15.9001 10.65 15.8801 10.66 15.8601 10.67Z" fill="#A897FF"/>
<path d="M7.96008 22.3C10.0501 20.06 10.6001 19.38 12.1201 17.95C11.6001 18.51 11.3701 19.17 11.2901 19.75C11.2801 19.81 11.3701 19.77 11.4501 19.68C14.0201 16.9 15.5901 15.89 17.3301 14.6L17.2701 14.62C17.4801 14.48 17.6701 14.32 17.8501 14.13C19.4401 12.45 19.6501 10.82 19.0701 10.28C18.4901 9.73 16.6901 10.25 14.3801 12.42C10.3801 16.17 8.53008 20.23 7.81008 22.35C7.78008 22.42 7.87008 22.39 7.96008 22.3Z" fill="#D9D8E1"/>
<path d="M11.87 17.5899C13.4 15.9899 13.94 15.7199 14.9 15.0099C14.24 15.7699 14.1 15.9799 13.82 16.5099C13.75 16.6399 13.87 16.6199 14.01 16.4699C15.87 14.4899 16.62 13.9999 17.85 13.0399L17.81 13.0599C17.96 12.9499 18.1 12.8299 18.23 12.6899C19.42 11.4299 19.4 10.6099 19.03 10.2599C18.66 9.90991 17.65 10.0599 15.94 11.6899C13.06 14.4399 12.31 16.1699 11.67 17.6599C11.63 17.7599 11.74 17.7199 11.87 17.5899Z" fill="white"/>
<path d="M17.3598 7.54001L18.9498 3.20001C19.0498 2.93001 19.4298 2.94001 19.5198 3.21001L20.9698 7.60001C21.0098 7.72001 21.1198 7.80001 21.2398 7.81001L25.8598 7.98001C26.1498 7.99001 26.2598 8.36001 26.0298 8.52001L22.2998 11.25C22.1998 11.32 22.1498 11.45 22.1898 11.58L23.4498 16.03C23.5298 16.3 23.2198 16.52 22.9798 16.36L19.2298 13.65C19.1298 13.58 18.9898 13.57 18.8898 13.64L15.0498 16.22C14.8098 16.38 14.5098 16.15 14.5998 15.88L15.9998 11.48C16.0398 11.36 15.9998 11.23 15.8998 11.15L12.2598 8.29001C12.0398 8.11001 12.1598 7.75001 12.4398 7.75001L17.0698 7.73001C17.1998 7.74001 17.3098 7.66001 17.3598 7.54001Z" fill="#A897FF"/>
<path d="M19.6298 7.91008L22.4798 5.93008C22.6598 5.81008 22.8898 5.98008 22.8298 6.18008L21.8298 9.50008C21.7998 9.59008 21.8298 9.69008 21.9098 9.75008L24.6798 11.8501C24.8498 11.9801 24.7598 12.2501 24.5498 12.2601L21.0798 12.3301C20.9898 12.3301 20.8998 12.3901 20.8698 12.4801L19.7298 15.7601C19.6598 15.9601 19.3698 15.9601 19.2998 15.7601L18.1598 12.4801C18.1298 12.3901 18.0498 12.3301 17.9498 12.3301L14.4798 12.2601C14.2698 12.2601 14.1798 11.9801 14.3498 11.8501L17.1198 9.75008C17.1998 9.69008 17.2298 9.60008 17.1998 9.50008L16.1998 6.18008C16.1398 5.98008 16.3698 5.81008 16.5498 5.93008L19.3998 7.91008C19.4498 7.97008 19.5498 7.97008 19.6298 7.91008Z" fill="white"/>
</g>
<defs>
<filter id="filter0_d" x="0" y="0" width="30" height="30" filterUnits="userSpaceOnUse" color-interpolation-filters="sRGB">
<feFlood flood-opacity="0" result="BackgroundImageFix"/>
<feColorMatrix in="SourceAlpha" type="matrix" values="0 0 0 0 0 0 0 0 0 0 0 0 0 0 0 0 0 0 127 0"/>
<feOffset/>
<feGaussianBlur stdDeviation="1.5"/>
<feColorMatrix type="matrix" values="0 0 0 0 0.0313726 0 0 0 0 0.0117647 0 0 0 0 0.270588 0 0 0 0.7 0"/>
<feBlend mode="normal" in2="BackgroundImageFix" result="effect1_dropShadow"/>
<feBlend mode="normal" in="SourceGraphic" in2="effect1_dropShadow" result="shape"/>
</filter>
</defs>
</svg>
