<svg width="30" height="26" viewBox="0 0 30 26" fill="none" xmlns="http://www.w3.org/2000/svg">
<g filter="url(#filter0_d)">
<path d="M10.73 4.08003C3.37 5.11003 3 11.25 3 11.25C3.24 10.52 4.06 9.52003 4.06 9.52003L4 10.66C4.31 9.30003 6.3 6.29003 12.5 6.58003C20.79 6.97003 24.08 11.98 22.16 15.57C21.35 17.09 19.62 17.69 17.9 17.87L16.07 19.19L16.57 20.94C19.87 21.04 25.32 20.57 26.64 16.52C28.56 10.61 22.64 2.90003 10.73 4.08003Z" fill="#A897FF"/>
<path opacity="0.64" d="M26.1598 13.1401C24.5398 6.0401 16.0498 4.6101 11.4998 4.9201C6.94982 5.2401 5.56982 7.6201 5.56982 7.6201C14.1098 2.8001 21.1598 8.7401 21.1598 8.7401C28.7498 16.2601 19.8598 18.3001 16.6498 18.7701L16.0698 19.1901L16.3998 20.3501C20.6198 20.1601 27.3898 18.5401 26.1598 13.1401Z" fill="white"/>
<path d="M12.2899 16.4601L13.3499 13.6101C13.4199 13.4301 13.6699 13.4401 13.7299 13.6201L14.6899 16.5001C14.7199 16.5801 14.7899 16.6301 14.8699 16.6401L17.9499 16.7501C18.1399 16.7601 18.2099 17.0001 18.0599 17.1101L15.5699 18.9001C15.4999 18.9501 15.4699 19.0301 15.4999 19.1101L16.3399 22.0301C16.3899 22.2101 16.1799 22.3501 16.0299 22.2401L13.5299 20.4701C13.4599 20.4201 13.3699 20.4201 13.2999 20.4701L10.7399 22.1601C10.5799 22.2601 10.3799 22.1101 10.4399 21.9401L11.3799 19.0501C11.4099 18.9701 11.3799 18.8901 11.3099 18.8301L8.87993 16.9601C8.72993 16.8401 8.80993 16.6101 8.99993 16.6101L12.0799 16.6001C12.1799 16.5901 12.2599 16.5401 12.2899 16.4601Z" fill="#A897FF"/>
<path d="M13.7998 16.7099L15.6998 15.4099C15.8198 15.3299 15.9698 15.4399 15.9298 15.5699L15.2598 17.7499C15.2398 17.8099 15.2598 17.8699 15.3098 17.9099L17.1498 19.2799C17.2598 19.3599 17.1998 19.5399 17.0598 19.5499L14.7498 19.5999C14.6898 19.5999 14.6298 19.6399 14.6098 19.6999L13.8498 21.8499C13.7998 21.9799 13.6098 21.9799 13.5698 21.8499L12.8098 19.6999C12.7898 19.6399 12.7298 19.5999 12.6698 19.5999L10.3598 19.5499C10.2198 19.5499 10.1598 19.3699 10.2698 19.2799L12.1098 17.9099C12.1598 17.8699 12.1798 17.8099 12.1598 17.7499L11.4998 15.5699C11.4598 15.4399 11.6098 15.3299 11.7298 15.4099L13.6298 16.7099C13.6798 16.7399 13.7498 16.7399 13.7998 16.7099Z" fill="white"/>
</g>
<defs>
<filter id="filter0_d" x="0" y="-2" width="30" height="30" filterUnits="userSpaceOnUse" color-interpolation-filters="sRGB">
<feFlood flood-opacity="0" result="BackgroundImageFix"/>
<feColorMatrix in="SourceAlpha" type="matrix" values="0 0 0 0 0 0 0 0 0 0 0 0 0 0 0 0 0 0 127 0"/>
<feOffset/>
<feGaussianBlur stdDeviation="1.5"/>
<feColorMatrix type="matrix" values="0 0 0 0 0.0313726 0 0 0 0 0.0117647 0 0 0 0 0.270588 0 0 0 0.7 0"/>
<feBlend mode="normal" in2="BackgroundImageFix" result="effect1_dropShadow"/>
<feBlend mode="normal" in="SourceGraphic" in2="effect1_dropShadow" result="shape"/>
</filter>
</defs>
</svg>
