<svg width="48" height="48" viewBox="0 0 48 48" fill="none" xmlns="http://www.w3.org/2000/svg">
<path d="M10.8757 15.251L37.124 15.251C37.6075 15.251 37.9995 14.859 37.9995 14.3755C37.9995 13.8919 37.6075 13.4999 37.124 13.4999L10.8757 13.4999C10.3922 13.4999 10.0002 13.8919 10.0002 14.3755C10.0002 14.859 10.3922 15.251 10.8757 15.251Z" fill="#FFBE44"/>
<path d="M15.2421 16.9998L11.75 23.9996H18.7498L15.2421 16.9998Z" stroke="#CD9B54" stroke-width="0.5"/>
<path d="M32.7416 16.9998L29.2495 23.9996H36.2493L32.7416 16.9998Z" stroke="#CD9B54" stroke-width="0.5"/>
<path d="M25.7494 11.75H22.2495V37.9993H25.7494V11.75Z" fill="#CD9B54"/>
<path d="M23.9962 13.4999C24.9608 13.4999 25.7428 12.7164 25.7428 11.75C25.7428 10.7835 24.9608 10 23.9962 10C23.0315 10 22.2495 10.7835 22.2495 11.75C22.2495 12.7164 23.0315 13.4999 23.9962 13.4999Z" fill="#CD9B54"/>
<path d="M33.0034 37.9993H14.943C14.826 38.0034 14.711 37.9682 14.6163 37.8993C14.5216 37.8303 14.4527 37.7316 14.4206 37.6188C14.3884 37.5061 14.3948 37.3858 14.4389 37.2771C14.4829 37.1684 14.562 37.0777 14.6636 37.0193L23.9732 31.4019L33.2829 37.0193C33.3844 37.0777 33.4635 37.1684 33.5075 37.2771C33.5516 37.3858 33.558 37.5061 33.5259 37.6188C33.4937 37.7316 33.4248 37.8303 33.3301 37.8993C33.2354 37.9682 33.1204 38.0034 33.0034 37.9993V37.9993Z" fill="#FFBE44"/>
<path d="M33.0043 37.9993C29.719 37.9993 26.5791 37.9507 23.9741 37.9993V31.4019L33.2838 37.0193C33.3853 37.0777 33.4644 37.1684 33.5084 37.2771C33.5525 37.3858 33.5589 37.5061 33.5268 37.6188C33.4946 37.7316 33.4257 37.8303 33.331 37.8993C33.2363 37.9682 33.1213 38.0034 33.0043 37.9993Z" fill="#E29D1B"/>
<path d="M20.4799 22.3719C20.4799 23.7642 19.9279 25.0996 18.9452 26.0841C17.9625 27.0687 16.6297 27.6218 15.24 27.6218C13.8502 27.6218 12.5174 27.0687 11.5348 26.0841C10.5521 25.0996 10 23.7642 10 22.3719H20.4799Z" fill="#FFBE44"/>
<path d="M37.9999 22.3719C37.9999 23.7642 37.4479 25.0996 36.4652 26.0841C35.4825 27.0687 34.1497 27.6218 32.76 27.6218C31.3703 27.6218 30.0374 27.0687 29.0548 26.0841C28.0721 25.0996 27.52 23.7642 27.52 22.3719H37.9999Z" fill="#FFBE44"/>
<circle cx="24" cy="24" r="23" stroke="#8BCF51" stroke-width="2"/>
</svg>
