<svg width="24" height="24" viewBox="0 0 24 24" fill="none" xmlns="http://www.w3.org/2000/svg">
<path d="M0.750549 4.50091L23.2491 4.50091C23.6635 4.50091 23.9995 4.16492 23.9995 3.75045C23.9995 3.33599 23.6635 3 23.2491 3L0.750547 3C0.336082 3 9.34454e-05 3.33599 9.34273e-05 3.75045C9.34092e-05 4.16492 0.336084 4.50091 0.750549 4.50091Z" fill="#FFBE44"/>
<path d="M4.49322 5.99976L1.5 11.9996H7.49985L4.49322 5.99976Z" stroke="#CD9B54" stroke-width="0.5"/>
<path d="M19.4927 5.99976L16.4995 11.9996H22.4994L19.4927 5.99976Z" stroke="#CD9B54" stroke-width="0.5"/>
<path d="M13.4994 1.5H10.4995V23.9995H13.4994V1.5Z" fill="#CD9B54"/>
<path d="M11.9966 2.99993C12.8235 2.99993 13.4938 2.32837 13.4938 1.49996C13.4938 0.671557 12.8235 0 11.9966 0C11.1698 0 10.4995 0.671557 10.4995 1.49996C10.4995 2.32837 11.1698 2.99993 11.9966 2.99993Z" fill="#CD9B54"/>
<path d="M19.7174 23.9993H4.23707C4.1368 24.0029 4.03822 23.9727 3.95706 23.9136C3.87589 23.8545 3.81682 23.7699 3.78925 23.6732C3.76169 23.5766 3.76722 23.4735 3.80497 23.3803C3.84272 23.2872 3.91052 23.2094 3.99754 23.1594L11.9772 18.3445L19.9569 23.1594C20.044 23.2094 20.1118 23.2872 20.1495 23.3803C20.1873 23.4735 20.1928 23.5766 20.1652 23.6732C20.1377 23.7699 20.0786 23.8545 19.9974 23.9136C19.9163 23.9727 19.8177 24.0029 19.7174 23.9993Z" fill="#FFBE44"/>
<path d="M19.7177 23.9993C16.9017 23.9993 14.2104 23.9577 11.9775 23.9994V18.3445L19.9572 23.1594C20.0443 23.2094 20.1121 23.2872 20.1498 23.3803C20.1876 23.4735 20.1931 23.5766 20.1655 23.6732C20.138 23.7699 20.0789 23.8545 19.9977 23.9136C19.9166 23.9727 19.818 24.0029 19.7177 23.9993Z" fill="#E29D1B"/>
<path d="M8.98279 10.6045C8.98279 11.7979 8.50959 12.9425 7.66729 13.7864C6.82499 14.6303 5.68258 15.1044 4.49139 15.1044C3.3002 15.1044 2.15781 14.6303 1.31551 13.7864C0.473207 12.9425 0 11.7979 0 10.6045H8.98279Z" fill="#FFBE44"/>
<path d="M23.9999 10.6045C23.9999 11.7979 23.5267 12.9425 22.6844 13.7864C21.8421 14.6303 20.6997 15.1044 19.5085 15.1044C18.3173 15.1044 17.1749 14.6303 16.3326 13.7864C15.4903 12.9425 15.0171 11.7979 15.0171 10.6045H23.9999Z" fill="#FFBE44"/>
</svg>
