<svg width="92" height="92" viewBox="0 0 92 92" fill="none" xmlns="http://www.w3.org/2000/svg">
<path d="M45.9999 91.1658C70.9441 91.1658 91.1653 70.9446 91.1653 46.0004C91.1653 21.0562 70.9441 0.834961 45.9999 0.834961C21.0557 0.834961 0.834473 21.0562 0.834473 46.0004C0.834473 70.9446 21.0557 91.1658 45.9999 91.1658Z" fill="#7360FC"/>
<path d="M63.8281 34.4877C61.8041 34.4877 60.1547 36.1437 60.1547 38.1611V54.5371C59.9772 54.524 59.7998 54.5108 59.6158 54.5108H57.3158C57.2764 54.5108 57.2369 54.5174 57.1975 54.5174V45.6328V44.3711V18.8279C57.1975 17.1259 55.8044 15.7394 54.1089 15.7394C52.4135 15.7394 51.0204 17.1325 51.0204 18.8279V40.4545H48.1881V17.1325C48.1881 15.4305 46.7949 14.0439 45.0995 14.0439C43.4041 14.0439 42.0109 15.4371 42.0109 17.1325V40.4545H39.4349V20.6679C39.4349 18.9659 38.0418 17.5794 36.3464 17.5794C34.6509 17.5794 33.2578 18.9725 33.2578 20.6679V40.4611H32.3904C31.8055 40.4611 31.2338 40.5334 30.6884 40.6517V27.0554C30.6884 25.3534 29.2952 23.9668 27.5998 23.9668C25.8978 23.9668 24.5112 25.3599 24.5112 27.0554V48.3402V53.8537V58.8677C24.5112 69.3622 33.1001 77.9511 43.5947 77.9511H49.3315C49.4301 77.9511 49.5287 77.938 49.6338 77.938H54.1944C61.5215 77.938 67.5212 71.9448 67.5212 64.6111V63.7897V62.3965V38.1611C67.5015 36.1371 65.8521 34.4877 63.8281 34.4877Z" fill="#B59FFF"/>
</svg>
