<svg width="48" height="48" viewBox="0 0 48 48" fill="none" xmlns="http://www.w3.org/2000/svg">
<path d="M33.0596 35.1339C33.0596 36.7165 29.0061 37.9999 24.0064 37.9999C22.7935 38.0032 21.5818 37.9231 20.3795 37.7604C17.1847 37.318 14.9526 36.308 14.9526 35.1356L16.1808 27.7621H31.8314L33.0596 35.1339Z" fill="#FFBE44"/>
<path d="M16.7823 36.8617C15.6339 36.3814 14.9526 35.7833 14.9526 35.1356L16.1808 27.7621H17.875C16.125 34.4997 16.7823 36.8617 16.7823 36.8617Z" fill="#E29D1B"/>
<path d="M24.0064 31.3046C29.8089 31.3046 34.5127 26.5359 34.5127 20.6535C34.5127 14.771 29.8089 10.0023 24.0064 10.0023C18.2039 10.0023 13.5 14.771 13.5 20.6535C13.5 26.5359 18.2039 31.3046 24.0064 31.3046Z" fill="#937DFF"/>
<path d="M23.1606 10.0362C23.4395 10.0137 23.7216 10.0017 24.0064 10.0017C29.8087 10.0017 34.5122 14.7701 34.5122 20.6529C34.5122 24.2721 32.732 27.4694 30.0111 29.3942C31.9312 26.9541 28.294 26.4972 26.5798 25.7498C25.9748 25.4859 25.4291 25.0999 24.976 24.6152C24.523 24.1305 24.1722 23.5573 23.9449 22.9306C23.7176 22.3039 23.6187 21.6368 23.6542 20.97C23.7869 18.4327 25.842 16.3985 28.3469 16.322C28.7087 16.3106 29.0705 16.3401 29.4257 16.41C30.6097 16.6435 31.4749 15.2923 30.7559 14.3107C29.8644 13.0897 28.7252 12.0765 27.4151 11.3392C26.105 10.6018 24.6543 10.1575 23.1606 10.0362Z" fill="#B59FFF"/>
<path d="M18.1496 20.6523C18.1496 15.5799 21.6476 11.3359 26.3312 10.2625C25.5683 10.0876 24.7885 9.99959 24.0064 10C18.2035 10 13.5 14.7689 13.5 20.6512C13.5 26.5334 18.2035 31.3034 24.0064 31.3034C24.7885 31.3036 25.5682 31.2155 26.3312 31.0409C21.6476 29.9681 18.1496 25.7247 18.1496 20.6523Z" fill="#4D4D9E"/>
<path d="M33.5225 16.123L34.7442 15.8725C35.3208 15.7544 35.3208 14.9188 34.7442 14.8007L33.5236 14.5497C32.9351 14.4288 32.3948 14.1347 31.9701 13.7043C31.5455 13.2738 31.2555 12.7261 31.1362 12.1295L30.8875 10.8909C30.7705 10.3069 29.9468 10.3069 29.8298 10.8909L29.5827 12.1289C29.4631 12.7258 29.1726 13.2738 28.7475 13.7043C28.3224 14.1347 27.7816 14.4286 27.1927 14.5492L25.972 14.8002C25.3954 14.9183 25.3954 15.7539 25.972 15.872L27.1927 16.123C27.7812 16.2439 28.3216 16.538 28.7463 16.9684C29.1709 17.3989 29.4611 17.9466 29.5806 18.5432L29.8276 19.7813C29.9447 20.3653 30.7683 20.3653 30.8854 19.7813L31.133 18.5432C31.2524 17.9463 31.5428 17.3984 31.9678 16.9679C32.3928 16.5374 32.9336 16.2435 33.5225 16.123Z" fill="#FFBE44"/>
<path d="M28.2163 22.2028L28.5728 22.1296C29.0437 22.0328 29.0437 21.3509 28.5728 21.2546L28.2163 21.1808C27.7771 21.0901 27.374 20.8702 27.0575 20.5486C26.7409 20.2269 26.5248 19.8179 26.4363 19.3724L26.364 19.011C26.2685 18.5341 25.5959 18.5341 25.501 19.011L25.4276 19.3724C25.3385 19.8179 25.1219 20.2269 24.8048 20.5484C24.4878 20.8698 24.0843 21.0894 23.6449 21.1797L23.2878 21.253C22.8175 21.3498 22.8175 22.0317 23.2878 22.1279L23.6449 22.2012C24.0843 22.2917 24.4877 22.5113 24.8047 22.8327C25.1217 23.1541 25.3384 23.563 25.4276 24.0085L25.4999 24.3705C25.5954 24.8473 26.268 24.8473 26.3629 24.3705L26.4352 24.0085C26.5245 23.5635 26.741 23.155 27.0577 22.8339C27.3744 22.5128 27.7774 22.2933 28.2163 22.2028Z" fill="#FFD992"/>
<path d="M23.0079 17.5308L23.2229 17.4873C23.5068 17.4297 23.5068 17.0242 23.2229 16.9669L23.0079 16.923C22.7431 16.8691 22.5 16.7383 22.3091 16.5471C22.1182 16.3558 21.9879 16.1125 21.9345 15.8476L21.8909 15.6327C21.8334 15.3491 21.4278 15.3491 21.3705 15.6327L21.3263 15.8476C21.2725 16.1125 21.1419 16.3558 20.9507 16.5469C20.7596 16.7381 20.5163 16.8687 20.2513 16.9224L20.036 16.966C19.7523 17.0235 19.7523 17.429 20.036 17.4863L20.2513 17.5299C20.5162 17.5837 20.7595 17.7143 20.9507 17.9054C21.1418 18.0965 21.2725 18.3397 21.3263 18.6046L21.3699 18.8199C21.4274 19.1035 21.833 19.1035 21.8903 18.8199L21.9339 18.6046C21.9877 18.34 22.1183 18.0971 22.3092 17.9061C22.5002 17.7152 22.7432 17.5847 23.0079 17.5308Z" fill="#FFD992"/>
<circle cx="24" cy="24" r="23" stroke="#8BCF51" stroke-width="2"/>
</svg>
