<svg width="19" height="24" viewBox="0 0 19 24" fill="none" xmlns="http://www.w3.org/2000/svg">
<path d="M16.7654 21.5433C16.7654 22.8998 13.2909 23.9998 9.00549 23.9998C7.96585 24.0027 6.92722 23.9341 5.89672 23.7945C3.15828 23.4153 1.24512 22.5496 1.24512 21.5447L2.29787 15.2246H15.7127L16.7654 21.5433Z" fill="#FFBE44"/>
<path d="M2.81344 23.0242C1.82904 22.6126 1.24512 22.0999 1.24512 21.5447L2.29787 15.2246H3.74997C2.24999 20.9997 2.81344 23.0242 2.81344 23.0242Z" fill="#E29D1B"/>
<path d="M9.00546 18.2611C13.979 18.2611 18.0109 14.1736 18.0109 9.13152C18.0109 4.0894 13.979 0.00195312 9.00546 0.00195312C4.03188 0.00195312 0 4.0894 0 9.13152C0 14.1736 4.03188 18.2611 9.00546 18.2611Z" fill="#937DFF"/>
<path d="M8.28076 0.0309936C8.51979 0.0117764 8.76159 0.00146484 9.00571 0.00146484C13.9791 0.00146484 18.0107 4.08863 18.0107 9.13104C18.0107 12.2332 16.4848 14.9738 14.1525 16.6236C15.7984 14.5321 12.6808 14.1404 11.2115 13.4998C10.6929 13.2737 10.2251 12.9428 9.83682 12.5273C9.44852 12.1119 9.14779 11.6206 8.95299 11.0834C8.75819 10.5462 8.6734 9.97439 8.7038 9.40289C8.81754 7.22807 10.5791 5.48446 12.7262 5.41884C13.0362 5.40907 13.3463 5.43438 13.6508 5.4943C14.6657 5.69444 15.4073 4.53625 14.791 3.69492C14.0268 2.64836 13.0504 1.77986 11.9274 1.14787C10.8045 0.515871 9.56104 0.135039 8.28076 0.0309936Z" fill="#B59FFF"/>
<path d="M3.98537 9.13051C3.98537 4.78274 6.98365 1.14506 10.9981 0.224983C10.3442 0.0751116 9.67588 -0.000348553 9.00546 1.21029e-06C4.03161 1.21029e-06 0 4.08764 0 9.12957C0 14.1715 4.03161 18.2601 9.00546 18.2601C9.67586 18.2602 10.3442 18.1847 10.9981 18.0351C6.98365 17.1155 3.98537 13.4783 3.98537 9.13051Z" fill="#4D4D9E"/>
<path d="M17.1623 5.24826L18.2095 5.03359C18.7038 4.93234 18.7038 4.21615 18.2095 4.11491L17.1633 3.89977C16.6588 3.79612 16.1957 3.54407 15.8318 3.17511C15.4678 2.80615 15.2192 2.33664 15.117 1.82525L14.9038 0.763622C14.8035 0.263038 14.0975 0.263038 13.9972 0.763622L13.7854 1.82479C13.6829 2.33644 13.4339 2.8061 13.0695 3.17507C12.7052 3.54405 12.2416 3.79595 11.7368 3.8993L10.6905 4.11444C10.1963 4.21568 10.1963 4.93188 10.6905 5.03312L11.7368 5.24826C12.2413 5.35194 12.7044 5.60399 13.0684 5.97294C13.4324 6.34188 13.6812 6.81137 13.7836 7.32277L13.9953 8.38394C14.0956 8.88452 14.8016 8.88452 14.902 8.38394L15.1142 7.32277C15.2165 6.81113 15.4654 6.34145 15.8297 5.97247C16.194 5.60348 16.6576 5.35158 17.1623 5.24826Z" fill="#FFBE44"/>
<path d="M12.6142 10.4596L12.9198 10.3968C13.3234 10.3139 13.3234 9.72939 12.9198 9.6469L12.6142 9.58362C12.2377 9.50588 11.8923 9.3174 11.6209 9.04171C11.3495 8.76603 11.1643 8.41538 11.0885 8.03359L11.0265 7.72377C10.9447 7.31506 10.3681 7.31506 10.2868 7.72377L10.2239 8.03359C10.1475 8.41544 9.96183 8.76602 9.69007 9.04153C9.41831 9.31703 9.0725 9.50525 8.69584 9.58268L8.38977 9.64549C7.98661 9.72845 7.98661 10.3129 8.38977 10.3954L8.69584 10.4582C9.07245 10.5358 9.4182 10.724 9.68994 10.9995C9.96168 11.275 10.1474 11.6255 10.2239 12.0073L10.2858 12.3176C10.3677 12.7263 10.9442 12.7263 11.0256 12.3176L11.0875 12.0073C11.1641 11.6259 11.3496 11.2758 11.6211 11.0006C11.8926 10.7253 12.238 10.5372 12.6142 10.4596Z" fill="#FFD992"/>
<path d="M8.14962 6.45505L8.3339 6.4177C8.57729 6.36837 8.57729 6.02078 8.3339 5.97172L8.14962 5.93409C7.92262 5.88786 7.71429 5.77577 7.55066 5.61182C7.38702 5.44787 7.27535 5.23934 7.22959 5.0123L7.19223 4.82805C7.14288 4.58499 6.79522 4.58499 6.74616 4.82805L6.70824 5.0123C6.66218 5.23938 6.55023 5.44787 6.38635 5.61171C6.22248 5.77555 6.01395 5.88748 5.78682 5.93353L5.60225 5.97088C5.35914 6.02022 5.35914 6.36781 5.60225 6.41687L5.78682 6.45422C6.01392 6.50033 6.22241 6.61229 6.38627 6.77612C6.55014 6.93995 6.66212 7.1484 6.70824 7.37545L6.7456 7.55998C6.79495 7.80304 7.14261 7.80304 7.19167 7.55998L7.22903 7.37545C7.27518 7.14863 7.38708 6.94041 7.55078 6.77674C7.71448 6.61307 7.92275 6.50119 8.14962 6.45505Z" fill="#FFD992"/>
</svg>
