<svg width="36" height="28" viewBox="0 0 36 28" fill="none" xmlns="http://www.w3.org/2000/svg">
<path d="M30.2947 7.4913C30.1561 6.93761 29.8739 6.4303 29.4765 6.02061C29.0791 5.61092 28.5806 5.31335 28.0314 5.15797C26.0247 4.66797 17.9981 4.66797 17.9981 4.66797C17.9981 4.66797 9.9714 4.66797 7.96473 5.20464C7.41552 5.36002 6.91704 5.65758 6.51963 6.06728C6.12223 6.47697 5.83998 6.98428 5.7014 7.53797C5.33415 9.57445 5.1545 11.6403 5.16473 13.7096C5.15164 15.7945 5.33129 17.8762 5.7014 19.928C5.85418 20.4645 6.14275 20.9525 6.53923 21.3449C6.93571 21.7372 7.42669 22.0208 7.96473 22.168C9.9714 22.7046 17.9981 22.7046 17.9981 22.7046C17.9981 22.7046 26.0247 22.7046 28.0314 22.168C28.5806 22.0126 29.0791 21.715 29.4765 21.3053C29.8739 20.8956 30.1561 20.3883 30.2947 19.8346C30.6591 17.8135 30.8388 15.7634 30.8314 13.7096C30.8445 11.6247 30.6648 9.54312 30.2947 7.4913Z" fill="#A897FF"/>
<path d="M15.375 17.5206L22.0833 13.7056L15.375 9.89062V17.5206Z" fill="#0F0A45" stroke="#0F0A45" stroke-width="0.5" stroke-linecap="round" stroke-linejoin="round"/>
</svg>
