<svg width="92" height="92" viewBox="0 0 92 92" fill="none" xmlns="http://www.w3.org/2000/svg">
<g clip-path="url(#clip0)">
<path opacity="0.3" fill-rule="evenodd" clip-rule="evenodd" d="M46 0C55.0979 0 63.9916 2.69785 71.5562 7.7524C79.1209 12.8069 85.0168 19.9912 88.4985 28.3966C91.9801 36.802 92.891 46.051 91.1161 54.9742C89.3412 63.8973 84.9601 72.0937 78.5269 78.5269C72.0937 84.9601 63.8973 89.3412 54.9742 91.1161C46.051 92.891 36.802 91.9801 28.3966 88.4985C19.9912 85.0168 12.8069 79.1209 7.7524 71.5562C2.69785 63.9916 0 55.0979 0 46C0 33.8 4.84641 22.0998 13.4731 13.4731C22.0998 4.84641 33.8 0 46 0V0Z" fill="#8676E8"/>
<g opacity="0.3">
<path opacity="0.3" d="M37.1899 59.56L25.6299 48L26.6899 46.94C27.0299 46.59 35.1499 38.43 37.1999 36.43L39.2999 38.58C37.6999 40.13 32.1999 45.65 29.8699 48L39.3099 57.44L37.1899 59.56Z" fill="#160E6B"/>
<path opacity="0.8" d="M56.7999 59.58L54.6999 57.43C56.2999 55.87 61.7999 50.35 64.1299 48L54.6899 38.56L56.8099 36.44L68.3699 48L67.3099 49.06C66.9999 49.41 58.8499 57.57 56.7999 59.58Z" fill="#0F0A45"/>
<path opacity="0.8" d="M50.3092 31.5723L40.812 63.5727L43.688 64.4263L53.1852 32.4259L50.3092 31.5723Z" fill="#0F0A45"/>
</g>
<path d="M36.1899 57.56L24.6299 46L25.6899 44.94C26.0299 44.59 34.1499 36.43 36.1999 34.43L38.2999 36.58C36.6999 38.13 31.1999 43.65 28.8699 46L38.3099 55.44L36.1899 57.56Z" fill="#FF2972"/>
<path d="M55.7999 57.58L53.6999 55.43C55.2999 53.87 60.7999 48.35 63.1299 46L53.6899 36.56L55.8099 34.44L67.3699 46L66.3099 47.06C65.9999 47.41 57.8499 55.57 55.7999 57.58Z" fill="#FFBE44"/>
<path d="M49.3072 29.5719L39.8101 61.5724L42.6861 62.4259L52.1833 30.4255L49.3072 29.5719Z" fill="#00C7BA"/>
</g>
<defs>
<clipPath id="clip0">
<rect width="92" height="92" fill="white"/>
</clipPath>
</defs>
</svg>
