<svg width="92" height="92" viewBox="0 0 92 92" fill="none" xmlns="http://www.w3.org/2000/svg">
<g clip-path="url(#clip0)">
<path opacity="0.3" fill-rule="evenodd" clip-rule="evenodd" d="M46 0C55.0979 0 63.9916 2.69785 71.5562 7.7524C79.1209 12.8069 85.0168 19.9912 88.4985 28.3966C91.9801 36.802 92.891 46.051 91.1161 54.9742C89.3412 63.8973 84.9601 72.0937 78.5269 78.5269C72.0937 84.9601 63.8973 89.3412 54.9742 91.1161C46.051 92.891 36.802 91.9801 28.3966 88.4985C19.9912 85.0168 12.8069 79.1209 7.7524 71.5562C2.69785 63.9916 0 55.0979 0 46C0 33.8 4.84641 22.0998 13.4731 13.4731C22.0998 4.84641 33.8 0 46 0V0Z" fill="#8676E8"/>
<path d="M74 67H18V70H74V67Z" fill="#00C7BA"/>
<path opacity="0.3" d="M38 67.22V49.93L28 55.68V67.22" fill="#0F0A45"/>
<path opacity="0.3" d="M54 67.22V42.54L44 48.54V67.22" fill="#0F0A45"/>
<path opacity="0.3" d="M70 67.22V32.64L60 38.64V67.22" fill="#0F0A45"/>
<path d="M35 67.22V51.82H25V67.22" fill="white"/>
<path d="M51 67.22V44.13H41V67.22" fill="#FFBE44"/>
<path d="M67 67.22V34.5H57V67.22" fill="#FF2972"/>
<path d="M19.1598 42L18.8398 39C38.6898 36.82 52.4898 30.28 66.4398 16.43L68.5598 18.56C54.0698 32.94 39.7598 39.73 19.1598 42Z" fill="#00C7BA"/>
</g>
<defs>
<clipPath id="clip0">
<rect width="92" height="92" fill="white"/>
</clipPath>
</defs>
</svg>
