<svg width="92" height="92" viewBox="0 0 92 92" fill="none" xmlns="http://www.w3.org/2000/svg">
<g clip-path="url(#clip0)">
<path opacity="0.3" fill-rule="evenodd" clip-rule="evenodd" d="M46 0C55.0979 0 63.9916 2.69785 71.5562 7.7524C79.1209 12.8069 85.0168 19.9912 88.4985 28.3966C91.9801 36.802 92.891 46.051 91.1161 54.9742C89.3412 63.8973 84.9601 72.0937 78.5269 78.5269C72.0937 84.9601 63.8973 89.3412 54.9742 91.1161C46.051 92.891 36.802 91.9801 28.3966 88.4985C19.9912 85.0168 12.8069 79.1209 7.7524 71.5562C2.69785 63.9916 0 55.0979 0 46C0 33.8 4.84641 22.0998 13.4731 13.4731C22.0998 4.84641 33.8 0 46 0V0Z" fill="#8676E8"/>
<path opacity="0.3" d="M64.1001 68.05H27.1001V71.05H64.1001V68.05Z" fill="#0F0A45"/>
<path d="M35.6299 64.09H32.6299V69.25H35.6299V64.09Z" fill="#FF2972"/>
<path d="M59.6299 64.09H56.6299V69.25H59.6299V64.09Z" fill="#FF2972"/>
<path d="M64.5 26.75H27.5V63.75H64.5V26.75Z" fill="white"/>
<path d="M64.5 34.24V63.75H27.5V56.52L64.5 34.24Z" fill="#00C7BA"/>
<path d="M58.3799 44H51.7799C51.4382 42.6093 50.595 41.3938 49.4121 40.5867C48.2292 39.7797 46.7898 39.4379 45.3704 39.627C43.9509 39.8161 42.6513 40.5228 41.7209 41.6114C40.7905 42.7001 40.295 44.0939 40.3293 45.5255C40.3637 46.9571 40.9255 48.3256 41.907 49.3684C42.8886 50.4111 44.2206 51.0546 45.6475 51.1754C47.0744 51.2962 48.4957 50.8858 49.6386 50.0229C50.7814 49.16 51.5653 47.9055 51.8399 46.5H58.3799V44Z" fill="#373382"/>
<path d="M46.13 42.46C46.7075 42.46 47.2721 42.6313 47.7522 42.9521C48.2324 43.273 48.6067 43.729 48.8277 44.2626C49.0487 44.7961 49.1065 45.3832 48.9939 45.9497C48.8812 46.5161 48.6031 47.0364 48.1947 47.4447C47.7864 47.8531 47.2661 48.1312 46.6996 48.2439C46.1332 48.3566 45.5461 48.2987 45.0125 48.0777C44.479 47.8567 44.0229 47.4825 43.7021 47.0023C43.3812 46.5221 43.21 45.9575 43.21 45.38C43.2087 44.9962 43.2833 44.6159 43.4296 44.261C43.5758 43.9061 43.7909 43.5837 44.0623 43.3123C44.3337 43.0409 44.6561 42.8259 45.011 42.6796C45.3658 42.5333 45.7462 42.4587 46.13 42.46Z" fill="#FFBE44"/>
</g>
<defs>
<clipPath id="clip0">
<rect width="92" height="92" fill="white"/>
</clipPath>
</defs>
</svg>
