<svg width="92" height="92" viewBox="0 0 92 92" fill="none" xmlns="http://www.w3.org/2000/svg">
<g clip-path="url(#clip0)">
<path opacity="0.3" fill-rule="evenodd" clip-rule="evenodd" d="M46 0C55.0979 0 63.9916 2.69785 71.5562 7.7524C79.1209 12.8069 85.0168 19.9912 88.4985 28.3966C91.9801 36.802 92.891 46.051 91.1161 54.9742C89.3412 63.8973 84.9601 72.0937 78.5269 78.5269C72.0937 84.9601 63.8973 89.3412 54.9742 91.1161C46.051 92.891 36.802 91.9801 28.3966 88.4985C19.9912 85.0168 12.8069 79.1209 7.7524 71.5562C2.69785 63.9916 0 55.0979 0 46C0 33.8 4.84641 22.0998 13.4731 13.4731C22.0998 4.84641 33.8 0 46 0V0Z" fill="#8676E8"/>
<path opacity="0.3" d="M58.7402 38.4C57.9534 38.4074 57.168 38.4709 56.3902 38.59C56.3902 38.2 56.4502 37.82 56.4502 37.43C56.4502 34.1645 55.4812 30.9724 53.6659 28.2579C51.8507 25.5434 49.2708 23.4286 46.2529 22.1813C43.235 20.9339 39.9148 20.6101 36.7128 21.2508C33.5107 21.8915 30.5708 23.468 28.2653 25.7805C25.9597 28.0931 24.3922 31.0378 23.7612 34.2418C23.1302 37.4457 23.4641 40.7649 24.7206 43.779C25.9771 46.7931 28.0997 49.3666 30.8197 51.1736C33.5397 52.9806 36.7347 53.9399 40.0002 53.93C40.8645 53.9224 41.727 53.8488 42.5802 53.71C42.5802 54.02 42.5302 54.34 42.5302 54.66C42.529 56.7586 42.9366 58.8373 43.7302 60.78C45.6469 60.9672 47.466 61.715 48.9602 62.93C50.221 63.9881 51.8143 64.5681 53.4602 64.5681C55.1061 64.5681 56.6994 63.9881 57.9602 62.93C59.7549 61.5055 61.9789 60.7302 64.2702 60.7302C66.5615 60.7302 68.7855 61.5055 70.5802 62.93C71.0815 63.307 71.6133 63.6415 72.1702 63.93C73.8699 61.4868 74.866 58.6237 75.0498 55.6531C75.2336 52.6825 74.598 49.7185 73.2123 47.0844C71.8267 44.4503 69.7442 42.2474 67.1922 40.716C64.6401 39.1845 61.7164 38.3834 58.7402 38.4Z" fill="#0F0A45"/>
<path d="M66.1598 61.24C66.1598 61.24 63.3698 59.09 57.2598 63.48C51.1498 67.87 50.1198 62 43.2598 60.87H41.4298C39.3607 58.4565 38.0329 55.4967 37.606 52.3464C37.1791 49.1962 37.6713 45.9897 39.0235 43.1126C40.3757 40.2355 42.5302 37.8103 45.228 36.1286C47.9258 34.4468 51.0519 33.5803 54.2305 33.6331C57.4091 33.6858 60.5047 34.6557 63.1452 36.4261C65.7857 38.1964 67.8585 40.6919 69.1144 43.6123C70.3703 46.5327 70.7558 49.7538 70.2245 52.8881C69.6933 56.0224 68.2679 58.9365 66.1198 61.28" fill="white"/>
<path d="M54.0002 33.62C51.2314 33.6116 48.5051 34.3015 46.0735 35.6257C43.6419 36.9499 41.5833 38.8658 40.0882 41.1962C38.593 43.5267 37.7095 46.1964 37.5194 48.9587C37.3292 51.721 37.8385 54.4867 39.0002 57C48.3502 51.29 57.8902 45.56 67.2202 40C65.6196 38.0318 63.6055 36.44 61.3208 35.3374C59.0361 34.2348 56.5368 33.6485 54.0002 33.62Z" fill="#FF2972"/>
<path d="M74.9998 66.16C73.0441 66.1945 71.1414 65.5235 69.6398 64.27C68.0987 63.0281 66.179 62.3509 64.1998 62.3509C62.2206 62.3509 60.3009 63.0281 58.7598 64.27C57.2408 65.4923 55.3496 66.1587 53.3998 66.1587C51.4501 66.1587 49.5589 65.4923 48.0398 64.27C46.4987 63.0281 44.579 62.3509 42.5998 62.3509C40.6206 62.3509 38.7009 63.0281 37.1598 64.27C35.6583 65.5235 33.7555 66.1945 31.7998 66.16V63.16C33.1329 63.1892 34.4271 62.7102 35.4198 61.82C37.4709 60.2192 39.998 59.3498 42.5998 59.3498C45.2016 59.3498 47.7287 60.2192 49.7798 61.82C50.7877 62.6846 52.0718 63.1599 53.3998 63.1599C54.7278 63.1599 56.0119 62.6846 57.0198 61.82C59.0709 60.2192 61.598 59.3498 64.1998 59.3498C66.8016 59.3498 69.3287 60.2192 71.3798 61.82C72.3725 62.7102 73.6668 63.1892 74.9998 63.16V66.16Z" fill="#00C7BA"/>
<path d="M53.4 75.55C51.4286 75.596 49.5083 74.9203 48 73.65C46.4589 72.4081 44.5392 71.731 42.56 71.731C40.5808 71.731 38.6611 72.4081 37.12 73.65C35.6041 74.8793 33.7117 75.5501 31.76 75.5501C29.8083 75.5501 27.9159 74.8793 26.4 73.65C24.8882 72.3837 22.9719 71.7024 21 71.73V68.73C23.6055 68.6886 26.1428 69.5627 28.17 71.2C29.1768 72.0712 30.4636 72.5506 31.795 72.5506C33.1264 72.5506 34.4132 72.0712 35.42 71.2C37.4711 69.5992 39.9982 68.7298 42.6 68.7298C45.2018 68.7298 47.7289 69.5992 49.78 71.2C50.7852 72.0704 52.0703 72.5495 53.4 72.5495C54.7297 72.5495 56.0148 72.0704 57.02 71.2C59.0511 69.5628 61.5915 68.6888 64.2 68.73V71.73C62.2141 71.6909 60.2814 72.373 58.76 73.65C57.2621 74.9111 55.3577 75.5862 53.4 75.55Z" fill="#FF2972"/>
<path d="M34.9702 49.45C44.0829 49.45 51.4702 42.0627 51.4702 32.95C51.4702 23.8373 44.0829 16.45 34.9702 16.45C25.8575 16.45 18.4702 23.8373 18.4702 32.95C18.4702 42.0627 25.8575 49.45 34.9702 49.45Z" fill="white"/>
<path d="M35.0001 16.45C32.2257 16.4404 29.4937 17.1314 27.0574 18.4589C24.6211 19.7865 22.5595 21.7076 21.0636 24.0443C19.5676 26.3809 18.6858 29.0574 18.4999 31.8257C18.314 34.5939 18.83 37.3643 20.0001 39.88C29.3501 34.17 38.8901 28.44 48.2201 22.83C46.6195 20.8618 44.6055 19.27 42.3208 18.1674C40.0361 17.0648 37.5368 16.4785 35.0001 16.45Z" fill="#FFBE44"/>
<path d="M36.25 38.68H30V36.18H36.21C36.21 36.18 37.39 36.18 37.39 35.11C37.3985 34.9497 37.3734 34.7894 37.3163 34.6394C37.2591 34.4894 37.1712 34.353 37.0582 34.239C36.9451 34.1251 36.8095 34.036 36.66 33.9776C36.5104 33.9192 36.3504 33.8928 36.19 33.9H33.72C32.7681 33.8506 31.8714 33.4376 31.2151 32.7464C30.5587 32.0551 30.1928 31.1382 30.1928 30.185C30.1928 29.2318 30.5587 28.3149 31.2151 27.6236C31.8714 26.9324 32.7681 26.5194 33.72 26.47H39.31V29H33.73C33.5667 28.998 33.4048 29.0302 33.2548 29.0945C33.1047 29.1589 32.9697 29.2539 32.8586 29.3735C32.7474 29.4931 32.6626 29.6347 32.6094 29.7891C32.5563 29.9435 32.536 30.1073 32.55 30.27C32.5655 30.5848 32.7022 30.8814 32.9315 31.0976C33.1608 31.3139 33.4648 31.433 33.78 31.43H36.25C37.2154 31.43 38.1412 31.8135 38.8239 32.4961C39.5065 33.1788 39.89 34.1046 39.89 35.07C39.89 36.0354 39.5065 36.9612 38.8239 37.6439C38.1412 38.3265 37.2154 38.71 36.25 38.71V38.68Z" fill="#373382"/>
<path d="M36.2202 23.88H33.7202V28.95H36.2202V23.88Z" fill="#373382"/>
<path d="M36.2202 36.18H33.7202V41.25H36.2202V36.18Z" fill="#373382"/>
</g>
<defs>
<clipPath id="clip0">
<rect width="92" height="92" fill="white"/>
</clipPath>
</defs>
</svg>
