<svg width="92" height="92" viewBox="0 0 92 92" fill="none" xmlns="http://www.w3.org/2000/svg">
<g clip-path="url(#clip0)">
<path opacity="0.3" fill-rule="evenodd" clip-rule="evenodd" d="M46 0C55.0979 0 63.9916 2.69785 71.5562 7.7524C79.1209 12.8069 85.0168 19.9912 88.4985 28.3966C91.9801 36.802 92.891 46.051 91.1161 54.9742C89.3412 63.8973 84.9601 72.0937 78.5269 78.5269C72.0937 84.9601 63.8973 89.3412 54.9742 91.1161C46.051 92.891 36.802 91.9801 28.3966 88.4985C19.9912 85.0168 12.8069 79.1209 7.7524 71.5562C2.69785 63.9916 0 55.0979 0 46C0 33.8 4.84641 22.0998 13.4731 13.4731C22.0998 4.84641 33.8 0 46 0V0Z" fill="#8676E8"/>
<g opacity="0.3">
<path opacity="0.3" d="M71.4098 69.12H23.8398V23.62H26.8398V66.12H71.4098V69.12Z" fill="#160E6B"/>
<path opacity="0.8" d="M32.63 58.26L30.5 56.15L45.18 41.35L53.87 50.16L64.42 39.5L66.55 41.61L53.87 54.43L45.17 45.62L32.63 58.26Z" fill="#160E6B"/>
</g>
<path d="M70.4098 67.12H22.8398V21.62H25.8398V64.12H70.4098V67.12Z" fill="#00C7BA"/>
<path d="M31.4502 56.08L29.6802 54.32L44.1802 39.71L52.8702 48.52L63.5902 37.67L65.3702 39.43L52.8702 52.08L44.1702 43.26L31.4502 56.08Z" fill="white"/>
</g>
<defs>
<clipPath id="clip0">
<rect width="92" height="92" fill="white"/>
</clipPath>
</defs>
</svg>
