<svg width="92" height="92" viewBox="0 0 92 92" fill="none" xmlns="http://www.w3.org/2000/svg">
<g clip-path="url(#clip0)">
<path opacity="0.3" fill-rule="evenodd" clip-rule="evenodd" d="M46 0C55.0979 0 63.9916 2.69785 71.5562 7.7524C79.1209 12.8069 85.0168 19.9912 88.4985 28.3966C91.9801 36.802 92.891 46.051 91.1161 54.9742C89.3412 63.8973 84.9601 72.0937 78.5269 78.5269C72.0937 84.9601 63.8973 89.3412 54.9742 91.1161C46.051 92.891 36.802 91.9801 28.3966 88.4985C19.9912 85.0168 12.8069 79.1209 7.7524 71.5562C2.69785 63.9916 0 55.0979 0 46C0 33.8 4.84641 22.0998 13.4731 13.4731C22.0998 4.84641 33.8 0 46 0V0Z" fill="#8676E8"/>
<path opacity="0.3" d="M72.5 30.5H25.5V67.5H72.5V30.5Z" fill="#0F0A45"/>
<path d="M69.5 27.5H22.5V64.5H69.5V27.5Z" fill="white"/>
<path d="M45 41H31V55H45V41Z" fill="#FF2972"/>
<path d="M46 48.5C44.3189 48.5 42.6755 48.0015 41.2777 47.0675C39.8798 46.1335 38.7904 44.806 38.147 43.2528C37.5037 41.6996 37.3354 39.9906 37.6633 38.3417C37.9913 36.6929 38.8009 35.1783 39.9896 33.9896C41.1783 32.8009 42.6929 31.9913 44.3417 31.6633C45.9906 31.3354 47.6996 31.5037 49.2528 32.147C50.806 32.7904 52.1335 33.8798 53.0675 35.2777C54.0015 36.6755 54.5 38.3189 54.5 40C54.4974 42.2535 53.601 44.414 52.0075 46.0075C50.414 47.601 48.2535 48.4974 46 48.5ZM46 34.5C44.9122 34.5 43.8488 34.8226 42.9444 35.4269C42.0399 36.0313 41.3349 36.8903 40.9187 37.8952C40.5024 38.9002 40.3935 40.0061 40.6057 41.073C40.8179 42.1399 41.3417 43.1199 42.1109 43.8891C42.8801 44.6583 43.8601 45.1821 44.927 45.3943C45.9939 45.6065 47.0998 45.4976 48.1048 45.0813C49.1098 44.6651 49.9687 43.9601 50.5731 43.0556C51.1774 42.1512 51.5 41.0878 51.5 40C51.4974 38.5421 50.917 37.1447 49.8862 36.1138C48.8553 35.083 47.4579 34.5026 46 34.5Z" fill="#00C7BA"/>
<path d="M48 59.34L55.5 46.41L63 59.34H48Z" fill="#FFBE44"/>
</g>
<defs>
<clipPath id="clip0">
<rect width="92" height="92" fill="white"/>
</clipPath>
</defs>
</svg>
