<svg width="92" height="92" viewBox="0 0 92 92" fill="none" xmlns="http://www.w3.org/2000/svg">
<g clip-path="url(#clip0)">
<path opacity="0.3" fill-rule="evenodd" clip-rule="evenodd" d="M46 0C55.0979 0 63.9916 2.69785 71.5562 7.7524C79.1209 12.8069 85.0168 19.9912 88.4985 28.3966C91.9801 36.802 92.891 46.051 91.1161 54.9742C89.3412 63.8973 84.9601 72.0937 78.5269 78.5269C72.0937 84.9601 63.8973 89.3412 54.9742 91.1161C46.051 92.891 36.802 91.9801 28.3966 88.4985C19.9912 85.0168 12.8069 79.1209 7.7524 71.5562C2.69785 63.9916 0 55.0979 0 46C0 33.8 4.84641 22.0998 13.4731 13.4731C22.0998 4.84641 33.8 0 46 0V0Z" fill="#8676E8"/>
<g opacity="0.3">
<path opacity="0.3" d="M73.06 69.12H25.5V23.62H28.5V66.12H73.06V69.12Z" fill="#160E6B"/>
<path opacity="0.8" d="M66.5401 55.98L55.9901 45.31L47.3001 54.12L32.6201 39.33L34.7501 37.22L47.3001 49.86L55.9901 41.04L68.6701 53.87L66.5401 55.98Z" fill="#0F0A45"/>
</g>
<path d="M72.06 67.12H24.5V21.62H27.5V64.12H72.06V67.12Z" fill="#FF2972"/>
<path d="M65.7198 53.8L54.9898 42.95L46.2998 51.77L31.7998 37.15L33.5798 35.39L46.2998 48.21L54.9898 39.4L67.4998 52.04L65.7198 53.8Z" fill="white"/>
</g>
<defs>
<clipPath id="clip0">
<rect width="92" height="92" fill="white"/>
</clipPath>
</defs>
</svg>
