<svg width="92" height="92" viewBox="0 0 92 92" fill="none" xmlns="http://www.w3.org/2000/svg">
<g clip-path="url(#clip0)">
<path opacity="0.3" fill-rule="evenodd" clip-rule="evenodd" d="M46 0C55.0979 0 63.9916 2.69785 71.5562 7.7524C79.1209 12.8069 85.0168 19.9912 88.4985 28.3966C91.9801 36.802 92.891 46.051 91.1161 54.9742C89.3412 63.8973 84.9601 72.0937 78.5269 78.5269C72.0937 84.9601 63.8973 89.3412 54.9742 91.1161C46.051 92.891 36.802 91.9801 28.3966 88.4985C19.9912 85.0168 12.8069 79.1209 7.7524 71.5562C2.69785 63.9916 0 55.0979 0 46C0 33.8 4.84641 22.0998 13.4731 13.4731C22.0998 4.84641 33.8 0 46 0V0Z" fill="#8676E8"/>
<path opacity="0.3" d="M67.5298 64.06H35.0898V67.06H67.5298V64.06Z" fill="#0F0A45"/>
<path fill-rule="evenodd" clip-rule="evenodd" d="M31.7998 25.52V39.99L52.4098 42.87L49.2298 25.39L31.7998 25.52Z" fill="#373382"/>
<path d="M51.3502 24.15H30.1802C29.7881 24.15 29.4702 24.4679 29.4702 24.86V25.94C29.4702 26.3321 29.7881 26.65 30.1802 26.65H51.3502C51.7423 26.65 52.0602 26.3321 52.0602 25.94V24.86C52.0602 24.4679 51.7423 24.15 51.3502 24.15Z" fill="#FFBE44"/>
<path d="M33.2998 25.52H30.2998V36.99H33.2998V25.52Z" fill="#FFBE44"/>
<path d="M53.78 44.48L43.04 43.83L43.22 40.84L50.23 41.26L47.75 25.63L50.71 25.15L53.48 42.09L53.4 42.11L53.78 44.48Z" fill="#FFBE44"/>
<path d="M44.0698 41.09L45.8598 43.16C46.0298 43.35 49.8598 47.93 47.6398 56.01L47.1998 57.6H61.6098H62.3798L62.7298 56.93C62.7298 56.85 63.7298 55.07 66.9598 54.5L67.9598 54.32V43.13C67.9598 42.5996 67.7491 42.0909 67.374 41.7158C66.999 41.3407 66.4903 41.13 65.9598 41.13L44.0698 41.09Z" fill="#FFBE44"/>
<path opacity="0.3" d="M45.5598 41.09H44.0698L45.8598 43.16C46.0298 43.35 49.8598 47.93 47.6398 56.01L47.1998 57.6H61.6098H62.3798L62.7298 56.93C62.7298 56.85 63.7298 55.07 66.9598 54.5H67.0598C59.8898 50.07 52.7598 45.58 45.5598 41.09Z" fill="#160E6B"/>
<path d="M62.1799 41.09H59.6799V35.51C59.6684 34.7537 59.7937 34.0016 60.0499 33.29C60.4092 32.2169 61.1013 31.2864 62.0257 30.6336C62.9501 29.9808 64.0585 29.6397 65.1899 29.66L66.4399 29.61L66.5399 32.11H65.2899C64.6527 32.0719 64.021 32.2481 63.4955 32.6105C62.9699 32.9729 62.5808 33.5008 62.3899 34.11C62.242 34.5409 62.1709 34.9945 62.1799 35.45V41.09Z" fill="#00C7BA"/>
<path d="M35.1902 36C31.1457 35.9867 27.2615 37.5807 24.3922 40.4313C21.5229 43.2818 19.9035 47.1554 19.8902 51.2C19.877 55.2445 21.4709 59.1287 24.3215 61.998C27.172 64.8673 31.0457 66.4867 35.0902 66.5H35.1702C39.2148 66.5 43.0937 64.8933 45.9536 62.0334C48.8135 59.1734 50.4202 55.2945 50.4202 51.25C50.4202 47.2054 48.8135 43.3265 45.9536 40.4666C43.0937 37.6067 39.2148 36 35.1702 36H35.1902Z" fill="white"/>
<path opacity="0.3" d="M35.1902 36C31.1457 35.9867 27.2615 37.5807 24.3922 40.4313C21.5229 43.2818 19.9035 47.1554 19.8902 51.2C19.877 55.2445 21.4709 59.1287 24.3215 61.998C27.172 64.8673 31.0457 66.4867 35.0902 66.5H35.1702C39.2148 66.5 43.0937 64.8933 45.9536 62.0334C48.8135 59.1734 50.4202 55.2945 50.4202 51.25C50.4202 47.2054 48.8135 43.3265 45.9536 40.4666C43.0937 37.6067 39.2148 36 35.1702 36H35.1902Z" fill="#160E6B"/>
<path d="M34.63 36C32.6995 35.9934 30.7867 36.3672 29.0007 37.0998C27.2147 37.8325 25.5905 38.9098 24.2209 40.2702C21.4547 43.0176 19.8932 46.7513 19.88 50.65C19.8667 54.5487 21.4027 58.2929 24.1501 61.0591C26.8976 63.8253 30.6313 65.3867 34.53 65.4H34.61C38.5087 65.4 42.2477 63.8512 45.0044 61.0945C47.7612 58.3377 49.31 54.5987 49.31 50.7C49.31 46.8013 47.7612 43.0623 45.0044 40.3055C42.2477 37.5487 38.5087 36 34.61 36H34.63Z" fill="white"/>
<path d="M66.7498 51.43C65.2076 51.4615 63.7091 51.9472 62.4416 52.8262C61.1742 53.7053 60.1943 54.9387 59.6244 56.372C59.0546 57.8054 58.9202 59.3749 59.2382 60.8843C59.5561 62.3936 60.3121 63.7756 61.4117 64.8573C62.5113 65.939 63.9055 66.6723 65.4198 66.9655C66.9342 67.2586 68.5013 67.0986 69.9251 66.5053C71.3489 65.9121 72.5661 64.9121 73.4243 63.6304C74.2825 62.3488 74.7435 60.8424 74.7498 59.3C74.7419 58.2569 74.5284 57.2256 74.1213 56.2652C73.7143 55.3048 73.1218 54.4341 72.3777 53.703C71.6336 52.972 70.7526 52.3949 69.7852 52.0048C68.8177 51.6148 67.7828 51.4194 66.7398 51.43H66.7498Z" fill="white"/>
<path opacity="0.3" d="M66.7498 51.43C65.2076 51.4615 63.7091 51.9472 62.4416 52.8262C61.1742 53.7053 60.1943 54.9387 59.6244 56.372C59.0546 57.8054 58.9202 59.3749 59.2382 60.8843C59.5561 62.3936 60.3121 63.7756 61.4117 64.8573C62.5113 65.939 63.9055 66.6723 65.4198 66.9655C66.9342 67.2586 68.5013 67.0986 69.9251 66.5053C71.3489 65.9121 72.5661 64.9121 73.4243 63.6304C74.2825 62.3488 74.7435 60.8424 74.7498 59.3C74.7419 58.2569 74.5284 57.2256 74.1213 56.2652C73.7143 55.3048 73.1218 54.4341 72.3777 53.703C71.6336 52.972 70.7526 52.3949 69.7852 52.0048C68.8177 51.6148 67.7828 51.4194 66.7398 51.43H66.7498Z" fill="#160E6B"/>
<path d="M66.3699 51.43C64.9015 51.4615 63.4748 51.9252 62.2685 52.7632C61.0621 53.6011 60.1296 54.7761 59.5875 56.1413C59.0453 57.5064 58.9177 59.001 59.2205 60.4383C59.5234 61.8756 60.2432 63.1917 61.29 64.2221C62.3368 65.2524 63.6642 65.9513 65.1061 66.2313C66.548 66.5113 68.0404 66.36 69.3968 65.7963C70.7531 65.2326 71.9132 64.2816 72.732 63.0621C73.5507 61.8426 73.9917 60.4088 73.9999 58.94C73.9934 57.9455 73.7907 56.9621 73.4035 56.046C73.0163 55.13 72.4521 54.2994 71.7433 53.6017C71.0345 52.9041 70.1951 52.3532 69.273 51.9805C68.3509 51.6078 67.3644 51.4208 66.3699 51.43Z" fill="white"/>
<path d="M66.7401 57.41C66.4501 57.39 66.1592 57.4299 65.8853 57.5272C65.6114 57.6244 65.3604 57.777 65.1479 57.9753C64.9354 58.1737 64.766 58.4136 64.6502 58.6802C64.5344 58.9468 64.4746 59.2343 64.4746 59.525C64.4746 59.8157 64.5344 60.1032 64.6502 60.3698C64.766 60.6364 64.9354 60.8763 65.1479 61.0747C65.3604 61.273 65.6114 61.4255 65.8853 61.5228C66.1592 61.6201 66.4501 61.6599 66.7401 61.64C67.0301 61.6599 67.3211 61.6201 67.595 61.5228C67.8689 61.4255 68.1199 61.273 68.3323 61.0747C68.5448 60.8763 68.7142 60.6364 68.83 60.3698C68.9459 60.1032 69.0056 59.8157 69.0056 59.525C69.0056 59.2343 68.9459 58.9468 68.83 58.6802C68.7142 58.4136 68.5448 58.1737 68.3323 57.9753C68.1199 57.777 67.8689 57.6244 67.595 57.5272C67.3211 57.4299 67.0301 57.39 66.7401 57.41Z" fill="#FF2972"/>
<path d="M35.18 45.79C33.7346 45.79 32.3483 46.3642 31.3262 47.3863C30.3042 48.4083 29.73 49.7946 29.73 51.24C29.73 52.6854 30.3042 54.0717 31.3262 55.0937C32.3483 56.1158 33.7346 56.69 35.18 56.69C36.6254 56.69 38.0116 56.1158 39.0337 55.0937C40.0558 54.0717 40.63 52.6854 40.63 51.24C40.63 49.7946 40.0558 48.4083 39.0337 47.3863C38.0116 46.3642 36.6254 45.79 35.18 45.79Z" fill="#FF2972"/>
</g>
<defs>
<clipPath id="clip0">
<rect width="92" height="92" fill="white"/>
</clipPath>
</defs>
</svg>
