<svg width="24" height="24" viewBox="0 0 24 24" fill="none" xmlns="http://www.w3.org/2000/svg">
<path d="M12.48 24C18.8423 24 24 18.8423 24 12.48C24 6.11769 18.8423 0.960007 12.48 0.960007C6.11767 0.960007 0.959991 6.11769 0.959991 12.48C0.959991 18.8423 6.11767 24 12.48 24Z" fill="#17144F"/>
<path d="M11.52 23.04C17.8823 23.04 23.04 17.8823 23.04 11.52C23.04 5.15768 17.8823 0 11.52 0C5.15768 0 0 5.15768 0 11.52C0 17.8823 5.15768 23.04 11.52 23.04Z" fill="#373382"/>
<path d="M14.38 10.43V16.62L14.39 19.72L17.26 17.99V8.7L14.38 10.43Z" fill="white"/>
<path opacity="0.5" d="M17.26 8.7L14.38 6.98L11.52 8.7L14.4 10.43L17.26 8.7Z" fill="white"/>
<path d="M8.63998 6.78L8.64998 10.43L11.52 8.71V5.05L8.63998 6.78Z" fill="white"/>
<path opacity="0.5" d="M11.52 5.05L8.64 3.33L5.78 5.05L8.66 6.78L11.52 5.05Z" fill="white"/>
<path opacity="0.5" d="M11.52 8.71001H11.51L8.64999 10.43L11.52 12.15V8.71001Z" fill="white"/>
<path d="M11.52 14.81C11.52 13.78 10.98 12.82 10.09 12.29C9.45999 11.91 8.64999 12.37 8.64999 13.13V17.33L11.52 15.61V14.81Z" fill="white"/>
<path opacity="0.5" d="M11.52 15.61L11.51 15.6L8.64999 17.32L11.52 19.05V15.61Z" fill="white"/>
</svg>
