<svg width="160" height="160" viewBox="0 0 160 160" fill="none" xmlns="http://www.w3.org/2000/svg">
<path d="M79.9996 159.915C123.937 159.915 159.585 124.165 159.585 79.9987C159.585 35.832 123.937 0.0820312 79.9996 0.0820312C36.0617 0.0820312 0.414062 35.832 0.414062 79.9987C0.414062 124.165 36.0617 159.915 79.9996 159.915Z" fill="#84D044"/>
<path d="M96.6615 123.082V104.582C96.6615 99.332 92.5993 95.082 87.6252 95.082H72.5371C67.563 95.082 63.5009 99.332 63.5009 104.582V123.082C53.8014 123.499 34.4853 129.665 32.1641 143.832C45.5112 153.915 62.0086 159.915 79.9983 159.915C97.9879 159.915 114.568 153.915 127.915 143.749C126.506 136.749 118.962 123.999 96.6615 123.082Z" fill="#B59FFF"/>
<path d="M79.9974 159.915C97.987 159.915 114.567 153.915 127.914 143.749C98.0699 137.332 76.2668 132.082 51.3964 125.582C42.6917 128.582 33.7383 134.499 32.2461 143.832C45.5103 153.915 62.0907 159.915 79.9974 159.915Z" fill="#FF2475"/>
<path d="M117.552 150.415C121.2 148.499 124.599 146.249 127.915 143.749C98.0701 137.332 76.267 132.082 51.3965 125.582C48.4949 126.582 45.6763 127.832 43.0234 129.499L117.552 150.415Z" fill="#FFBE44"/>
<path d="M99.3971 22.4141C99.3971 22.4141 92.8478 15.6641 65.4074 14.6641L54.1328 25.9141C43.6872 36.1641 46.5888 57.5807 47.252 67.4141C49.2416 97.5807 63.0033 97.2474 75.024 94.4141C76.4333 94.0807 77.8427 93.4141 79.0862 92.5807C80.5784 93.4141 82.0706 94.0807 83.5629 94.4141C95.5836 97.3307 112.081 100.164 111.335 67.4141C111.169 56.2474 115.563 30.0807 99.3971 22.4141Z" fill="#373382"/>
<path d="M79.9157 114.082C64.2473 114.082 51.4805 90.4987 51.4805 82.082V54.6654C51.4805 37.082 64.3302 30.082 79.9157 30.082C95.5841 30.082 108.351 40.2487 108.351 57.832L107.936 81.332C107.936 89.832 95.5012 114.082 79.9157 114.082Z" fill="#B59FFF"/>
<path d="M79.9157 114.081C64.2473 114.081 51.4805 90.4974 51.4805 82.0807V56.7474L59.3561 53.9141L76.4338 55.2474L74.1126 81.3307L76.5996 85.6641H80.4131L79.9157 114.081Z" fill="#8B79E0"/>
<path d="M50.1562 83H51.3998C52.6433 83 53.8039 83.5 54.7158 84.5L66.7366 103.667C68.5604 105.583 74.9438 106.167 75.6899 104.417L76.0215 96H84.4775L84.7262 104.75C85.3065 106.583 92.1044 105.583 93.5138 104.333L104.871 83.0833C105.783 82.0833 107.027 81.5 108.353 81.5H110.426L98.7366 116.917C97.2443 120.917 95.9179 128 91.6899 128H68.6433C64.1666 128 62.4257 120.667 61.0993 116.417L50.1562 83Z" fill="#373382"/>
<path d="M94.0942 85.7474C92.6848 84.2474 90.6952 83.4141 88.7056 83.4141H80.3325H79.6693H71.3791C69.3066 83.4141 67.317 84.2474 65.9076 85.8307L62.4258 90.4141L65.576 93.7474L70.8817 88.4974H79.8351H80.1667H89.1201L94.4258 93.7474L97.576 90.4141L94.0942 85.7474Z" fill="#373382"/>
<path d="M86.135 53.75L85.5547 57.75L102.218 55.8333L109.43 58.5L109.679 56.3333L101.638 53L86.135 53.75Z" fill="#373382"/>
<path d="M75.2732 53.75L74.8587 57.75L58.1955 55.8333L50.9831 58.5L50.7344 56.3333L58.7758 53L75.2732 53.75Z" fill="#373382"/>
<path d="M84.3117 84.5H76.0215C74.9438 84.5 73.949 84.0833 73.2858 83.25C72.5397 82.5 72.2081 81.4167 72.3739 80.3333L74.8609 50.75L76.9335 50.9167L74.4464 80.5C74.3635 81 74.5293 81.4167 74.8609 81.8333C75.1925 82.1667 75.607 82.4167 76.1044 82.4167H84.3946C84.892 82.4167 85.3065 82.25 85.6381 81.9167C85.9697 81.5833 86.1355 81.1667 86.0526 80.6667L84.5604 60.9167L86.6329 60.75L87.9594 80.5C88.0423 81.5 87.6278 82.5833 86.9645 83.3333C86.3013 84.0833 85.3065 84.5 84.3117 84.5Z" fill="#8B79E0"/>
<path d="M85.8858 92.4141H74.1967C73.1189 92.4141 72.207 91.4974 72.207 90.4141C72.207 89.3307 73.1189 88.4141 74.1967 88.4141H85.9687C87.0464 88.4141 87.9583 89.3307 87.9583 90.4141C87.8754 91.5807 86.9635 92.4141 85.8858 92.4141Z" fill="#B59FFF"/>
<path d="M83.4798 96.4141H76.599C75.5213 96.4141 74.6094 95.4974 74.6094 94.4141C74.6094 93.3307 75.5213 92.4141 76.599 92.4141H83.4798C84.5576 92.4141 85.4695 93.3307 85.4695 94.4141C85.3866 95.4974 84.5576 96.4141 83.4798 96.4141Z" fill="#B59FFF"/>
<path d="M89.1172 69.3314L101.138 66.6647C101.138 66.6647 100.309 63.6647 95.998 63.3314C92.5162 62.998 89.4488 65.8314 89.1172 69.3314Z" fill="#8B79E0"/>
<path d="M100.641 66.747C100.641 66.747 94.5058 62.3304 89.1172 69.4137C89.1172 69.4137 95.8322 72.997 100.641 66.747Z" fill="white"/>
<path d="M94.8395 70.3307C96.2488 70.3307 97.4094 69.1641 97.4094 67.7474C97.4094 66.3307 96.2488 65.1641 94.8395 65.1641C93.4302 65.1641 92.2695 66.3307 92.2695 67.7474C92.2695 69.1641 93.4302 70.3307 94.8395 70.3307Z" fill="#373382"/>
<path d="M72.8684 69.3314L60.8477 66.6647C60.8477 66.6647 61.6767 63.6647 65.9875 63.3314C69.4694 62.998 72.5368 65.8314 72.8684 69.3314Z" fill="#6860CC"/>
<path d="M61.3477 66.747C61.3477 66.747 67.4824 62.3304 72.871 69.4137C72.871 69.4137 66.073 72.997 61.3477 66.747Z" fill="white"/>
<path d="M67.1481 70.3307C68.5574 70.3307 69.718 69.1641 69.718 67.7474C69.718 66.3307 68.5574 65.1641 67.1481 65.1641C65.7387 65.1641 64.5781 66.3307 64.5781 67.7474C64.5781 69.1641 65.7387 70.3307 67.1481 70.3307Z" fill="#373382"/>
<path d="M48.9936 81.0833H47.5014C46.4236 81.0833 45.5117 80.1667 45.5117 79.0833V70C45.5117 68.9167 46.4236 68 47.5014 68H49.1594C49.3252 68 49.4081 68.1667 49.4081 68.25V80.5833C49.491 80.8333 49.3252 81.0833 48.9936 81.0833Z" fill="#8B79E0"/>
<path d="M112.247 81.0833H110.755C110.507 81.0833 110.258 80.8333 110.258 80.5833V68.5C110.258 68.1667 110.507 68 110.755 68H112.165C113.242 68 114.154 68.9167 114.154 70V79.0833C114.154 80.1667 113.325 81.0833 112.247 81.0833Z" fill="#B59FFF"/>
<path d="M72.207 30.0807L85.3055 37.0807H94.1759L89.7822 28.9141L72.207 30.0807Z" fill="#373382"/>
</svg>
