<svg width="160" height="160" viewBox="0 0 160 160" fill="none" xmlns="http://www.w3.org/2000/svg">
<g clip-path="url(#clip0_6767_136847)">
<path d="M80 159.918C124.167 159.918 160 124.085 160 79.918C160 35.7513 124.167 -0.0820312 80 -0.0820312C35.8333 -0.0820312 0 35.7513 0 79.918C0 124.085 35.8333 159.918 80 159.918Z" fill="#F8BB48"/>
<path d="M96.6654 123.168V104.668C96.6654 99.418 92.582 95.168 87.582 95.168H72.4154C67.4154 95.168 63.332 99.418 63.332 104.668V123.168C53.582 123.585 34.1654 129.751 31.832 143.918C45.2487 154.001 61.832 160.001 79.9154 160.001C97.9987 160.001 114.665 154.001 128.082 143.835C126.749 136.751 119.082 124.085 96.6654 123.168Z" fill="#B59FFF"/>
<path d="M79.918 159.915C98.0013 159.915 114.668 153.915 128.085 143.749C98.0846 137.332 76.168 132.082 51.168 125.582C42.418 128.582 33.418 134.499 31.918 143.832C45.2513 153.915 61.918 159.915 79.918 159.915Z" fill="white"/>
<path d="M117.749 150.415C121.415 148.499 124.832 146.249 128.165 143.749C98.1654 137.332 76.2487 132.082 51.2487 125.582C48.332 126.582 45.4987 127.832 42.832 129.499L117.749 150.415Z" fill="#7360FC"/>
<path d="M81.918 129.335H78.2513C70.2513 129.335 63.668 129.585 63.668 123.918V107.418C63.668 102.751 67.668 98.918 72.5846 98.918H87.5013C92.418 98.918 96.418 102.751 96.418 107.418V123.918C96.5013 129.585 89.918 129.335 81.918 129.335Z" fill="#B59FFF"/>
<path opacity="0.3" d="M63.668 116.082V107.749C63.668 102.832 67.668 98.832 72.5846 98.832H87.5013C92.418 98.832 96.418 102.832 96.418 107.749V122.082L63.668 116.082Z" fill="#373382"/>
<path d="M115.168 44.832C114.835 41.4987 114.002 37.4987 111.918 33.9154C110.335 30.9154 108.168 28.4987 105.168 26.9154C101.252 24.582 95.8349 23.1654 88.4183 23.6654C62.8349 25.332 61.0016 15.082 61.0016 15.082C61.0016 15.082 46.2516 25.832 44.2516 42.4154C44.2516 42.4987 44.2516 42.582 44.2516 42.6654C43.2516 48.582 44.3349 63.1654 44.0016 71.7487C43.4183 83.332 58.0016 96.082 71.6683 92.7487C74.8349 91.9987 77.7516 90.332 80.4183 88.082C85.0016 91.7487 90.5016 93.7487 96.4183 92.2487C109.752 88.9154 114.585 79.9154 114.918 67.082C115.002 63.4154 115.918 50.082 115.168 44.832Z" fill="#373382"/>
<path d="M80.082 111.832C63.582 111.832 50.082 89.7487 50.082 81.832V51.7487C50.082 35.2487 63.582 33.332 80.082 33.332C96.582 33.332 110.082 35.332 110.082 51.7487V90.332C110.082 98.1654 96.582 111.832 80.082 111.832Z" fill="#B59FFF"/>
<path d="M80.082 111.835C63.582 111.835 50.082 98.918 50.082 91.0013V58.168L60.4987 53.668L76.4154 56.7513L73.9154 81.168L76.4987 85.2513H80.4987L80.082 111.835Z" fill="#8B79E0"/>
<path d="M49.418 86.5833H52.3346C53.5846 86.5833 54.8346 87.0833 55.7513 87.9167L56.0846 101C57.418 102.167 72.8346 101.667 73.5846 100.083L75.918 95H84.668L86.418 99.75C87.0846 101.5 103.001 102.083 104.418 100.917V86.75C105.335 85.75 106.668 85.25 108.001 85.25H110.085L109.251 110.75C107.751 114.5 89.418 116.917 85.0013 116.917H75.0846C70.5013 116.917 52.168 114.25 50.7513 110.25L49.418 86.5833Z" fill="#373382"/>
<path d="M93.4987 85.3346C92.1654 83.918 90.332 83.168 88.4154 83.168H80.4987H79.9154H72.082C70.1654 83.168 68.2487 84.0013 66.9154 85.418L63.332 102.668L67.9154 102.001L70.2487 87.918H80.082H80.332H88.7487L91.9987 102.668H96.4154L93.4987 85.3346Z" fill="#373382"/>
<path d="M73.5846 53.4987L74.8346 59.2487L58.8346 57.2487L51.918 59.6654L51.668 56.2487L58.8346 52.582L73.5846 53.4987Z" fill="#373382"/>
<path d="M88.0833 53.4154L86.5 59.082L102.25 57.2487L109.083 59.7487L109.333 56.332L102.333 52.582L88.0833 53.4154Z" fill="#373382"/>
<path d="M84.2483 84.168H76.4149C75.4149 84.168 74.4983 83.7513 73.8316 83.0013C73.1649 82.2513 72.8316 81.2513 72.9149 80.3346L75.2483 52.668L77.1649 52.8346L74.8316 80.5013C74.7483 81.0013 74.9149 81.418 75.2483 81.7513C75.5816 82.0846 75.9983 82.2513 76.4149 82.2513H84.2483C84.6649 82.2513 85.0816 82.0846 85.4149 81.7513C85.7483 81.418 85.8316 81.0013 85.8316 80.5846L84.5816 62.168L86.4983 62.0013L87.7483 80.418C87.8316 81.418 87.4983 82.3346 86.8316 83.0013C86.0816 83.7513 85.1649 84.168 84.2483 84.168Z" fill="#8B79E0"/>
<path d="M85.7487 91.5846H74.6654C73.6654 91.5846 72.832 90.7513 72.832 89.7513C72.832 88.7513 73.6654 87.918 74.6654 87.918H85.6654C86.6654 87.918 87.4987 88.7513 87.4987 89.7513C87.582 90.7513 86.7487 91.5846 85.7487 91.5846Z" fill="#B59FFF"/>
<path d="M83.418 95.3346H77.0013C76.0013 95.3346 75.168 94.5013 75.168 93.5013C75.168 92.5013 76.0013 91.668 77.0013 91.668H83.418C84.418 91.668 85.2513 92.5013 85.2513 93.5013C85.3346 94.5013 84.5013 95.3346 83.418 95.3346Z" fill="#B59FFF"/>
<path d="M90.582 70.5827L104.415 67.416C104.415 67.416 103.499 63.9993 98.4987 63.5827C94.4154 63.2493 90.832 66.416 90.582 70.5827Z" fill="#8B79E0"/>
<path d="M103.833 67.5007C103.833 67.5007 96.75 62.4174 90.5 70.5841C90.5833 70.5841 98.3333 74.6674 103.833 67.5007Z" fill="white"/>
<path d="M97.168 71.668C98.8346 71.668 100.168 70.3346 100.168 68.668C100.168 67.0013 98.8346 65.668 97.168 65.668C95.5013 65.668 94.168 67.0013 94.168 68.668C94.168 70.3346 95.5013 71.668 97.168 71.668Z" fill="#373382"/>
<path d="M71.6654 70.5827L57.832 67.416C57.832 67.416 58.7487 63.9993 63.7487 63.5827C67.832 63.2493 71.4154 66.416 71.6654 70.5827Z" fill="#6860CC"/>
<path d="M58.418 67.5007C58.418 67.5007 65.5013 62.4174 71.7513 70.5841C71.668 70.5841 63.918 74.6674 58.418 67.5007Z" fill="white"/>
<path d="M65.168 71.668C66.8346 71.668 68.168 70.3346 68.168 68.668C68.168 67.0013 66.8346 65.668 65.168 65.668C63.5013 65.668 62.168 67.0013 62.168 68.668C62.168 70.3346 63.5013 71.668 65.168 71.668Z" fill="#373382"/>
<path d="M48.168 80.9167H46.7513C45.7513 80.9167 44.918 80.0833 44.918 79.0833V73.5833C44.918 72.5833 45.7513 71.75 46.7513 71.75H48.3346C48.5013 71.75 48.5846 71.8333 48.5846 72V80.4167C48.668 80.75 48.418 80.9167 48.168 80.9167Z" fill="#8B79E0"/>
<path d="M113.165 80.9167H111.749C111.499 80.9167 111.332 80.75 111.332 80.5V72.25C111.332 72 111.582 71.75 111.832 71.75H113.165C114.165 71.75 114.999 72.5833 114.999 73.5833V79.0833C115.082 80.0833 114.165 80.9167 113.165 80.9167Z" fill="#B59FFF"/>
<path d="M57.168 34.6681C57.168 34.6681 71.7513 42.9181 111.251 45.5014C111.251 45.5014 111.585 26.5014 57.168 34.6681Z" fill="#373382"/>
<path d="M55.4154 34.5L48.582 56.25L49.9987 39.0833L55.4154 34.5Z" fill="#373382"/>
</g>
<defs>
<clipPath id="clip0_6767_136847">
<rect width="160" height="160" fill="white"/>
</clipPath>
</defs>
</svg>
