<svg width="160" height="160" viewBox="0 0 160 160" fill="none" xmlns="http://www.w3.org/2000/svg">
<g clip-path="url(#clip0_6767_136848)">
<path d="M80 159.984C124.174 159.984 159.984 124.174 159.984 80C159.984 35.8258 124.174 0.015625 80 0.015625C35.8258 0.015625 0.015625 35.8258 0.015625 80C0.015625 124.174 35.8258 159.984 80 159.984Z" fill="#2271CB"/>
<path d="M81.562 17.3537C78.6058 16.4881 75.1089 16.3131 70.962 17.0412C41.6433 22.1006 41.462 61.3006 44.4276 74.9881C47.3933 88.6756 57.7089 121.56 68.8651 124.232C82.7089 127.554 112.674 106.604 118.053 79.1569C120.743 65.4131 119.89 14.1819 81.562 17.3537Z" fill="#FFD55F"/>
<path d="M96.7195 123.122V104.616C96.7195 99.3625 92.632 95.1094 87.6289 95.1094H72.4539C67.4539 95.1094 63.3664 99.3625 63.3664 104.616V123.122C53.6102 123.538 34.182 129.709 31.8477 143.884C45.2727 153.978 61.907 159.684 80.0008 159.684C98.0945 159.684 115.098 153.603 128.154 143.797C126.735 136.803 119.148 124.059 96.7195 123.122Z" fill="#B59FFF"/>
<path opacity="0.3" d="M63.4766 116.042V98.8984C63.4766 96.4949 64.4314 94.1898 66.1309 92.4903C67.8305 90.7907 70.1355 89.8359 72.5391 89.8359H87.6797C90.0832 89.8359 92.3883 90.7907 94.0878 92.4903C95.7874 94.1898 96.7422 96.4949 96.7422 98.8984V122.133L63.4766 116.042Z" fill="#373382"/>
<path d="M80.0016 160C98.0953 160 114.377 154.172 127.814 144C97.7984 137.578 76.2109 132.069 51.1953 125.562C42.4453 128.562 33.3516 134.566 31.8516 143.906C45.7469 154.321 62.6363 159.966 80.0016 160Z" fill="#FF2475"/>
<path d="M117.728 150.481C121.378 148.544 124.863 146.313 128.15 143.809C98.1219 137.387 76.2031 132.134 51.1875 125.625C48.2399 126.606 45.4142 127.92 42.7656 129.544L117.728 150.481Z" fill="#FFB133"/>
<path d="M79.9971 160C80.6534 160 81.3086 159.992 81.9628 159.975L70.9721 111.162L48.7471 34.3125C48.7471 34.3125 33.8721 60.5125 40.1034 111.731C41.5878 123.919 41.3534 137.881 39.6346 149.066C51.8742 156.242 65.809 160.017 79.9971 160Z" fill="#FFD55F"/>
<path d="M79.3734 113.251C63.1641 113.251 49.8984 89.4539 49.8984 80.9664L52.6859 45.1914C54.3734 33.2633 63.1703 28.6133 79.3734 28.6133C95.5859 28.6133 107.811 35.1445 108.848 45.3789V80.9664C108.855 89.4539 95.5922 113.251 79.3734 113.251Z" fill="#B59FFF"/>
<path d="M79.3734 113.253C63.1641 113.253 49.8984 89.4563 49.8984 80.9688L51.8984 55.3125L63.0172 51.75L75.7484 53.9375L74.1234 80.9406L75.8797 82.5813H79.8484L79.3734 113.253Z" fill="#8B79E0"/>
<path d="M73.4375 50.859L72.9656 55.3152C72.9656 55.3152 65.3844 53.4402 59.1062 54.4808C52.8281 55.5215 52.6094 56.2746 52.6094 56.2746L53.1719 54.3996C55.2681 53.2035 57.4845 52.2314 59.7844 51.4996C63.4781 50.3152 73.4375 50.859 73.4375 50.859Z" fill="#FFD55F"/>
<path d="M87.5 50.8547L87.975 55.311C87.975 55.311 94.9563 53.0235 101.303 53.5047C102.789 53.588 104.229 54.0517 105.484 54.8516L105.919 53.5047C105.919 53.5047 104.853 52.6391 101.159 51.4829C97.4656 50.3266 87.5 50.8547 87.5 50.8547Z" fill="#FFD55F"/>
<path d="M82.9101 83.4094H76.3632C75.9242 83.3956 75.4953 83.2745 75.1139 83.0566C74.7326 82.8387 74.4105 82.5306 74.1757 82.1594C73.6048 81.3024 73.3456 80.2753 73.4414 79.25L75.3882 49.4531L77.0039 49.6281L75.0539 79.4469C75.0016 79.9084 75.1121 80.3738 75.3664 80.7625C75.4694 80.928 75.6118 81.0653 75.7808 81.1624C75.9499 81.2594 76.1403 81.3132 76.3351 81.3188H82.882C83.0722 81.313 83.2581 81.2614 83.4241 81.1684C83.59 81.0754 83.731 80.9436 83.8351 80.7844C84.0877 80.4184 84.2099 79.9782 84.182 79.5344L83.1226 59.6469L84.7382 59.5063L85.7976 79.3938C85.8603 80.3924 85.5851 81.3831 85.0164 82.2063C84.7849 82.5586 84.4735 82.8512 84.1074 83.0603C83.7414 83.2694 83.3312 83.389 82.9101 83.4094Z" fill="#8B79E0"/>
<path d="M110.045 65.1094H112.53C112.848 65.1094 113.153 65.2358 113.378 65.4608C113.603 65.6859 113.73 65.9911 113.73 66.3094V76.35C113.73 76.5076 113.699 76.6636 113.638 76.8092C113.578 76.9548 113.49 77.0871 113.378 77.1985C113.267 77.31 113.134 77.3984 112.989 77.4587C112.843 77.519 112.687 77.55 112.53 77.55H110.002C109.924 77.55 109.851 77.5194 109.796 77.4649C109.742 77.4104 109.711 77.3365 109.711 77.2594V65.4312C109.711 65.3484 109.744 65.2689 109.802 65.2103C109.861 65.1517 109.941 65.1187 110.023 65.1187L110.045 65.1094Z" fill="#B59FFF"/>
<path d="M88.1836 67.7621V67.8121L103.215 64.3121C103.215 64.3121 103.012 61.1559 97.4148 60.709C92.768 60.3121 88.5211 63.1246 88.1836 67.7621Z" fill="#8B79E0"/>
<path d="M103.211 64.3014C103.211 64.3014 95.1703 58.5702 88.1797 67.8014C88.1797 67.8139 96.9484 72.4608 103.211 64.3014Z" fill="white"/>
<path d="M98.8734 64.8867C98.7227 64.2391 98.3832 63.6509 97.8979 63.1964C97.4126 62.742 96.8034 62.4417 96.1473 62.3337C95.4913 62.2257 94.818 62.3148 94.2126 62.5897C93.6072 62.8646 93.097 63.3129 92.7466 63.8779C92.3962 64.443 92.2213 65.0993 92.2442 65.7637C92.267 66.4282 92.4865 67.071 92.8748 67.6106C93.2631 68.1503 93.8029 68.5626 94.4257 68.7953C95.0485 69.028 95.7264 69.0707 96.3734 68.9179C97.2388 68.7136 97.9879 68.1746 98.4565 67.4189C98.9251 66.6633 99.0751 65.7527 98.8734 64.8867Z" fill="#373382"/>
<path d="M98.1977 63.5261C98.1559 63.3672 98.0679 63.2242 97.9449 63.1152C97.8218 63.0062 97.6693 62.9362 97.5064 62.9139C97.3436 62.8916 97.1778 62.9181 97.03 62.9901C96.8822 63.062 96.7591 63.1761 96.6761 63.318C96.5932 63.4599 96.5542 63.6232 96.564 63.7872C96.5738 63.9513 96.6321 64.1087 96.7313 64.2397C96.8306 64.3707 96.9665 64.4693 97.1218 64.523C97.2772 64.5768 97.4449 64.5833 97.6039 64.5418C97.7096 64.5141 97.8089 64.4659 97.8959 64.3999C97.983 64.3339 98.0562 64.2514 98.1114 64.157C98.1665 64.0627 98.2025 63.9584 98.2173 63.8502C98.2321 63.7419 98.2255 63.6318 98.1977 63.5261Z" fill="white"/>
<path d="M94.8594 62.8648C94.8594 62.8648 97.8469 61.4679 104.109 61.7585L103.213 64.3023C103.213 64.3023 99.5312 61.6617 94.8594 62.8648Z" fill="#373382"/>
<path d="M72.125 67.6143V67.6518L57.0938 64.1518C57.0938 64.1518 57.2969 60.9987 62.8937 60.5487C67.5406 60.1768 71.7875 62.9674 72.125 67.6143Z" fill="#B59FFF"/>
<path d="M57.0977 64.1478C57.0977 64.1478 65.1383 58.4197 72.1289 67.6478C72.1289 67.6478 63.3633 72.3103 57.0977 64.1478Z" fill="white"/>
<path d="M61.4397 64.7328C61.5909 64.0863 61.9304 63.4991 62.4154 63.0455C62.9003 62.592 63.5089 62.2925 64.1641 62.185C64.8193 62.0774 65.4917 62.1666 66.0962 62.4413C66.7007 62.7159 67.2102 63.1637 67.5601 63.728C67.9101 64.2923 68.0848 64.9477 68.0621 65.6113C68.0395 66.2749 67.8205 66.9169 67.433 67.456C67.0454 67.9951 66.5066 68.4071 65.8848 68.64C65.263 68.8728 64.5861 68.916 63.9397 68.7641C63.0739 68.5605 62.3243 68.0216 61.8555 67.2657C61.3868 66.5099 61.2372 65.5989 61.4397 64.7328Z" fill="#373382"/>
<path d="M66.8859 64.8969C67.345 64.8969 67.7172 64.5247 67.7172 64.0656C67.7172 63.6065 67.345 63.2344 66.8859 63.2344C66.4268 63.2344 66.0547 63.6065 66.0547 64.0656C66.0547 64.5247 66.4268 64.8969 66.8859 64.8969Z" fill="white"/>
<path d="M65.45 62.7155C65.45 62.7155 62.4625 61.3155 56.2031 61.6061L57.0969 64.1499C57.0969 64.1499 60.7781 61.5092 65.45 62.7155Z" fill="#373382"/>
<path d="M77.0977 95.4297H84.6351L79.382 105.545L77.0977 95.4297Z" fill="#8B79E0"/>
<path d="M85.4797 82.5156H74.0859V87.4594H85.4797V82.5156Z" fill="#8B79E0"/>
<path d="M88.0472 89.1627C88.0522 88.3018 87.7621 87.4653 87.2253 86.7923C86.6884 86.1193 85.9372 85.6507 85.0968 85.4643C84.2564 85.2779 83.3774 85.3852 82.6065 85.7681C81.8355 86.1511 81.219 86.7866 80.8597 87.5689C80.5744 86.9577 80.1304 86.4342 79.5738 86.0532C79.0173 85.6721 78.3687 85.4473 77.6957 85.4024C77.0227 85.3574 76.35 85.4939 75.7477 85.7976C75.1454 86.1013 74.6357 86.561 74.2717 87.1289C73.9077 87.6967 73.7028 88.3519 73.6783 89.0259C73.6538 89.7 73.8106 90.3682 74.1325 90.961C74.4543 91.5538 74.9293 92.0493 75.508 92.3959C76.0866 92.7425 76.7477 92.9274 77.4222 92.9314C77.2112 93.4119 77.1047 93.9317 77.1097 94.4564C77.1088 95.018 77.2334 95.5727 77.4744 96.0799C77.7155 96.5872 78.0668 97.0341 78.5028 97.3882C78.9387 97.7422 79.4483 97.9942 79.9942 98.126C80.5401 98.2578 81.1086 98.2659 81.658 98.1497C82.2075 98.0335 82.724 97.796 83.1699 97.4545C83.6157 97.1131 83.9797 96.6763 84.235 96.1761C84.4904 95.6759 84.6307 95.125 84.6458 94.5636C84.6609 94.0022 84.5503 93.4446 84.3222 92.9314C85.3138 92.9191 86.2608 92.5167 86.9579 91.8113C87.6551 91.106 88.0464 90.1544 88.0472 89.1627Z" fill="#B59FFF"/>
<path d="M70.9766 88.4766C70.9766 91.7797 74.8766 95.5078 80.3516 95.5078C85.8266 95.5078 90.7703 91.7797 90.7703 88.4766H70.9766Z" fill="white"/>
<path d="M72.6875 92.3693C74.3344 94.16 77.0625 95.4943 80.3344 95.4943C81.8197 95.4882 83.2927 95.2239 84.6875 94.7131C83.6728 93.9049 82.5256 93.2789 81.2969 92.8631C78.6719 91.7506 75.3406 91.1943 72.6875 92.3693Z" fill="#FFA9CC"/>
<path d="M46.7516 63.0078H49.3766C49.423 63.0078 49.4675 63.0263 49.5003 63.0591C49.5331 63.0919 49.5516 63.1364 49.5516 63.1828V75.1516C49.5516 75.2344 49.5186 75.3139 49.46 75.3725C49.4014 75.4311 49.3219 75.4641 49.2391 75.4641H46.7391C46.4208 75.4641 46.1156 75.3376 45.8905 75.1126C45.6655 74.8876 45.5391 74.5823 45.5391 74.2641V64.2109C45.5391 63.8927 45.6655 63.5875 45.8905 63.3624C46.1156 63.1374 46.4208 63.0109 46.7391 63.0109L46.7516 63.0078Z" fill="#8B79E0"/>
<path d="M112.672 74.375C113.24 74.375 113.796 74.5436 114.269 74.8595C114.742 75.1754 115.11 75.6244 115.328 76.1498C115.546 76.6751 115.603 77.2532 115.492 77.8109C115.381 78.3686 115.107 78.8808 114.705 79.2829C114.303 79.685 113.79 79.9588 113.233 80.0697C112.675 80.1807 112.097 80.1237 111.572 79.9061C111.046 79.6885 110.597 79.32 110.281 78.8473C109.965 78.3745 109.797 77.8186 109.797 77.25C109.798 76.4878 110.101 75.757 110.64 75.218C111.179 74.679 111.91 74.3758 112.672 74.375ZM112.672 79.15C113.048 79.15 113.416 79.0383 113.73 78.829C114.043 78.6198 114.286 78.3224 114.43 77.9744C114.574 77.6265 114.612 77.2437 114.538 76.8744C114.465 76.5052 114.283 76.1661 114.016 75.9001C113.75 75.634 113.411 75.453 113.041 75.3799C112.672 75.3069 112.289 75.345 111.941 75.4895C111.594 75.634 111.297 75.8784 111.088 76.1918C110.879 76.5052 110.768 76.8735 110.769 77.25C110.768 77.5004 110.817 77.7486 110.912 77.9802C111.007 78.2118 111.147 78.4224 111.324 78.5997C111.501 78.7771 111.711 78.9179 111.942 79.0139C112.173 79.1099 112.421 79.1594 112.672 79.1594V79.15Z" fill="white"/>
<path d="M46.8516 74.375C47.4202 74.375 47.976 74.5436 48.4488 74.8595C48.9216 75.1754 49.2901 75.6244 49.5077 76.1498C49.7253 76.6751 49.7823 77.2532 49.6713 77.8109C49.5604 78.3686 49.2866 78.8808 48.8845 79.2829C48.4824 79.685 47.9701 79.9588 47.4125 80.0697C46.8548 80.1807 46.2767 80.1237 45.7513 79.9061C45.226 79.6885 44.777 79.32 44.4611 78.8473C44.1452 78.3745 43.9766 77.8186 43.9766 77.25C43.9774 76.4878 44.2806 75.757 44.8195 75.218C45.3585 74.679 46.0893 74.3758 46.8516 74.375ZM46.8516 79.15C47.2281 79.15 47.5962 79.0383 47.9092 78.829C48.2222 78.6198 48.4662 78.3224 48.6101 77.9744C48.7541 77.6265 48.7916 77.2437 48.7179 76.8744C48.6442 76.5052 48.4626 76.1661 48.1962 75.9001C47.9297 75.634 47.5903 75.453 47.2209 75.3799C46.8516 75.3069 46.4688 75.345 46.1211 75.4895C45.7734 75.634 45.4764 75.8784 45.2677 76.1918C45.0589 76.5052 44.9478 76.8735 44.9484 77.25C44.9476 77.5004 44.9962 77.7486 45.0915 77.9802C45.1868 78.2118 45.3268 78.4224 45.5036 78.5997C45.6804 78.7771 45.8905 78.9179 46.1218 79.0139C46.3531 79.1099 46.6011 79.1594 46.8516 79.1594V79.15Z" fill="white"/>
</g>
<defs>
<clipPath id="clip0_6767_136848">
<rect width="160" height="160" fill="white"/>
</clipPath>
</defs>
</svg>
