<svg width="160" height="160" viewBox="0 0 160 160" fill="none" xmlns="http://www.w3.org/2000/svg">
<g clip-path="url(#clip0_6767_136845)">
<path d="M79.918 159.832C124.085 159.832 159.918 123.999 159.918 79.832C159.918 35.6654 124.085 -0.167969 79.918 -0.167969C35.7513 -0.167969 -0.0820312 35.6654 -0.0820312 79.832C-0.0820313 123.999 35.7513 159.832 79.918 159.832Z" fill="#5537D3"/>
<path d="M96.6654 123.082V104.582C96.6654 99.332 92.582 95.082 87.582 95.082H72.4154C67.4154 95.082 63.332 99.332 63.332 104.582V123.082C53.582 123.499 34.1654 129.665 31.832 143.832C45.2487 153.915 61.832 159.915 79.9154 159.915C97.9987 159.915 114.665 153.915 128.082 143.749C126.665 136.749 119.082 123.999 96.6654 123.082Z" fill="#B59FFF"/>
<path opacity="0.3" d="M63.918 116.082V107.749C63.918 102.832 67.918 98.832 72.8346 98.832H87.7513C92.668 98.832 96.668 102.832 96.668 107.749V122.082L63.918 116.082Z" fill="#373382"/>
<path d="M79.918 159.833C98.0013 159.833 114.668 153.833 128.085 143.667C98.0846 137.25 76.168 132 51.168 125.5C42.418 128.5 33.418 134.417 31.918 143.75C45.2513 153.917 61.918 159.833 79.918 159.833Z" fill="white"/>
<path d="M117.667 150.415C121.333 148.499 124.75 146.249 128.083 143.749C98.0833 137.332 76.1667 132.082 51.1667 125.582C48.25 126.582 45.4167 127.832 42.75 129.499L117.667 150.415Z" fill="#FF2475"/>
<g opacity="0.3">
<path opacity="0.3" d="M66.168 109V102C66.168 97.9167 69.5013 94.5 73.668 94.5H86.168C90.2513 94.5 93.668 97.8333 93.668 102V114L66.168 109Z" fill="#7360FC"/>
</g>
<path d="M91.3344 62.0831C88.5844 50.4998 102.334 22.8331 68.251 27.6664C43.751 31.0831 44.6677 60.2498 45.501 72.0831C47.5844 101 62.0843 100.75 74.751 97.9998C87.4177 95.1664 94.0844 73.6664 91.3344 62.0831Z" fill="#7F4333"/>
<path d="M56.832 63.3333C57.4154 75.25 71.082 95.25 83.7487 98C96.4154 100.75 113.665 103.5 112.999 72.0833C112.749 60.1667 115.582 31.3333 91.082 28L56.832 63.3333Z" fill="#7F4333"/>
<path d="M79.75 116.832C65.9167 109.165 49 94.1654 49 86.082V55.2487C49 38.332 62.8333 30.582 79.75 30.582C96.6667 30.582 110.5 38.4154 110.5 55.2487V86.1654C110.5 94.1654 93.5 113.415 79.75 116.832Z" fill="#B59FFF"/>
<path d="M79.75 116.833C64.6667 107.417 49 94.1667 49 86.1667V61.8333L59.6667 57.25L76 60.4167L73.5 85.4167L76.1667 89.5833H80.3333L79.75 116.833Z" fill="#8B79E0"/>
<path d="M50.082 91.0013H51.332C52.6654 91.0013 53.9154 91.5013 54.832 92.418L69.9154 108.835C71.332 110.001 73.9987 111.168 74.7487 109.501L75.582 99.5013H84.4987L84.7487 109.585C85.4154 111.418 88.7487 110.335 90.2487 109.085L104.749 91.0013C105.749 90.0013 106.999 89.418 108.415 89.418H110.582L98.082 112.085C96.4987 115.918 89.4987 120.335 84.9987 120.335H74.7487C69.9987 120.335 61.9154 115.918 60.4987 111.835L50.082 91.0013Z" fill="#7F4333"/>
<path d="M93.5 89.668C92.1667 88.2513 90.25 87.418 88.3333 87.418H80.25H79.6667H71.6667C69.6667 87.418 67.75 88.2513 66.4167 89.7513L64.25 93.418L68.75 94.7513L71.25 92.3346H79.9167H80.25H88.9167L91.5833 94.8346L96.1667 92.3346L93.5 89.668Z" fill="#7F4333"/>
<path d="M73.1667 56.9987L74.4167 62.9154L58.0833 60.832L51 63.332L50.75 59.832L58.0833 56.082L73.1667 56.9987Z" fill="#7F4333"/>
<path d="M88.0013 57.0013L86.418 62.8346L102.501 61.0013L109.501 63.5013L109.751 60.0013L102.585 56.168L88.0013 57.0013Z" fill="#7F4333"/>
<path d="M83.9983 88.418H75.9983C74.9983 88.418 73.9983 88.0013 73.3316 87.2513C72.6649 86.5013 72.3316 85.5013 72.4149 84.5013L74.8316 56.168L76.8316 56.3346L74.4149 84.668C74.3316 85.168 74.4983 85.5846 74.8316 85.918C75.1649 86.2513 75.5816 86.418 75.9983 86.418H83.9983C84.4149 86.418 84.8316 86.2513 85.1649 85.918C85.4982 85.5846 85.5816 85.168 85.5816 84.7513L84.3316 65.8346L86.3316 65.668L87.6649 84.5846C87.7482 85.5846 87.4149 86.5846 86.7482 87.2513C85.9983 88.0013 84.9983 88.418 83.9983 88.418Z" fill="#8B79E0"/>
<path d="M85.582 96.0833H74.2487C73.1654 96.0833 72.332 95.25 72.332 94.1667C72.332 93.1667 73.1654 92.25 74.2487 92.25H85.582C86.6654 92.25 87.4987 93.0833 87.4987 94.1667C87.4987 95.25 86.582 96.0833 85.582 96.0833Z" fill="#B59FFF"/>
<path d="M83.25 99.8333H76.6667C75.5833 99.8333 74.75 99 74.75 97.9167C74.75 96.9167 75.5833 96 76.6667 96H83.25C84.3333 96 85.1667 96.8333 85.1667 97.9167C85.0833 99 84.25 99.8333 83.25 99.8333Z" fill="#B59FFF"/>
<path d="M72.1667 73.5013L58 70.2513C58 70.2513 59.25 67.5013 64.3333 67.418C67.5833 67.418 71.9167 69.3346 72.1667 73.5013Z" fill="#6860CC"/>
<path d="M58.582 70.3333C58.582 70.3333 65.9154 65.1666 72.2487 73.4999C72.1654 73.5833 64.2487 76.25 58.582 70.3333Z" fill="white"/>
<path d="M65.3333 73.9987C66.9167 73.9987 68.1667 72.7487 68.1667 71.1654C68.1667 69.582 66.9167 68.332 65.3333 68.332C63.75 68.332 62.5 69.582 62.5 71.1654C62.5833 72.6654 63.8333 73.9987 65.3333 73.9987Z" fill="#373382"/>
<path d="M89.5 73.5013L103.667 70.2513C103.667 70.2513 102.417 67.5013 97.3333 67.418C94.0833 67.418 89.8333 69.3346 89.5 73.5013Z" fill="#8B79E0"/>
<path d="M103.167 70.3333C103.167 70.3333 95.8333 65.1666 89.5 73.4999C89.5 73.5833 97.4167 76.25 103.167 70.3333Z" fill="white"/>
<path d="M96.3333 73.9987C97.9167 73.9987 99.1667 72.7487 99.1667 71.1654C99.1667 69.582 97.9167 68.332 96.3333 68.332C94.75 68.332 93.5 69.582 93.5 71.1654C93.5 72.6654 94.75 73.9987 96.3333 73.9987Z" fill="#373382"/>
<path d="M47.0833 85.1667H45.6667C44.5833 85.1667 43.75 84.3333 43.75 83.25V74.1667C43.75 73.0833 44.5833 72.25 45.6667 72.25H47.3333C47.5 72.25 47.5833 72.3333 47.5833 72.5V84.5833C47.5833 84.9167 47.3333 85.1667 47.0833 85.1667Z" fill="#8B79E0"/>
<path d="M113.667 85.1654H112.25C112 85.1654 111.75 84.9987 111.75 84.6654V72.832C111.75 72.582 112 72.332 112.25 72.332H113.667C114.75 72.332 115.583 73.1654 115.583 74.2487V83.332C115.583 84.332 114.75 85.1654 113.667 85.1654Z" fill="#B59FFF"/>
<path d="M66.9998 36.0829L110.583 52.9995C113.083 54.1662 113.583 53.9995 115 51.9162L117.583 45.9995C118.916 43.9162 117.75 35.1662 110.583 31.4162L79.5831 17.2495C77.0831 16.0829 73.9165 16.8329 72.5831 18.9162L64.9998 30.3329C63.5831 32.3329 64.4998 34.9162 66.9998 36.0829Z" fill="#FFBE44"/>
<path d="M93.9989 36.0842L50.4156 53.0008C47.9156 54.1675 47.4156 54.0008 45.9989 51.9175L43.3322 45.9175C41.9989 43.8342 43.1656 35.0842 50.3322 31.3342L81.3322 17.1675C83.8322 16.0008 86.9989 16.7508 88.3322 18.8342L95.9156 30.2508C97.4156 32.3342 96.4989 34.9175 93.9989 36.0842Z" fill="#FFBE44"/>
<path d="M103.834 16.3332L92.334 9.99985C92.2507 9.99985 92.1673 9.91651 92.084 9.91651C80.834 4.58318 70.6673 9.33318 68.7507 10.1665L57.084 16.3332C51.5007 19.2499 50.584 26.0832 51.6673 27.6665L53.6673 32.2499C54.7507 33.8332 55.1673 33.9165 57.084 33.0832L80.4173 23.9998L103.751 33.0832C105.667 33.9999 106.084 33.8332 107.167 32.2499L109.167 27.6665C110.334 26.0832 109.417 19.2499 103.834 16.3332Z" fill="#FFBE44"/>
<g opacity="0.5">
<path opacity="0.5" d="M52.8346 30.25L68.8346 23.5L51.918 28.0833L52.8346 30.25Z" fill="#A07030"/>
</g>
<g opacity="0.5">
<path opacity="0.5" d="M108.165 30.2487L87.332 22.832L108.999 28.2487L108.165 30.2487Z" fill="#A07030"/>
</g>
<g opacity="0.2">
<path opacity="0.2" d="M47.582 53.9167L48.832 57.25L80.4987 41.6667L110.499 56.1667L111.749 53.4167L80.4987 41.25L47.582 53.9167Z" fill="#17144F"/>
</g>
<g opacity="0.5">
<path opacity="0.5" d="M44.4154 48.3333L80.9154 30.25L43.082 45.25L44.4154 48.3333Z" fill="#A07030"/>
</g>
<g opacity="0.5">
<path opacity="0.5" d="M117.835 45.5L116.501 48.4167L95.668 39L118.335 45.5" fill="#A07030"/>
</g>
</g>
<defs>
<clipPath id="clip0_6767_136845">
<rect width="160" height="160" fill="white"/>
</clipPath>
</defs>
</svg>
