<svg width="160" height="160" viewBox="0 0 160 160" fill="none" xmlns="http://www.w3.org/2000/svg">
<g clip-path="url(#clip0_6767_136846)">
<path d="M80 159.918C124.167 159.918 160 124.085 160 79.918C160 35.7513 124.167 -0.0820312 80 -0.0820312C35.8333 -0.0820312 0 35.7513 0 79.918C0 124.085 35.8333 159.918 80 159.918Z" fill="#F32B6F"/>
<path d="M81.9167 131.919H78.1667C69.9167 131.919 63.25 132.253 63.25 126.086V108.253C63.25 103.253 67.3333 99.0859 72.4167 99.0859H87.75C92.75 99.0859 96.9167 103.169 96.9167 108.253V126.086C96.8333 132.253 90.0833 131.919 81.9167 131.919Z" fill="#B59FFF"/>
<path d="M96.7513 123.086V104.586C96.7513 99.3359 92.668 95.0859 87.668 95.0859H72.5013C67.5013 95.0859 63.418 99.3359 63.418 104.586V123.086C53.668 123.503 34.2513 129.669 31.918 143.836C45.3346 153.919 61.918 159.919 80.0013 159.919C98.0846 159.919 114.751 153.919 128.168 143.753C126.835 136.753 119.168 124.003 96.7513 123.086Z" fill="#B59FFF"/>
<path d="M80 159.919C98.0833 159.919 114.75 153.919 128.167 143.753C98.1667 137.336 76.25 132.086 51.25 125.586C42.5 128.586 33.5 134.503 32 143.836C45.3333 153.919 62 159.919 80 159.919Z" fill="white"/>
<path d="M117.835 150.419C121.501 148.503 124.918 146.253 128.251 143.753C98.2513 137.336 76.3346 132.086 51.3346 125.586C48.418 126.586 45.5846 127.836 42.918 129.503L117.835 150.419Z" fill="#FFBE44"/>
<g opacity="0.5">
<path opacity="0.5" d="M63.25 116.835V108.335C63.25 103.335 67.3333 99.168 72.4167 99.168H87.75C92.75 99.168 96.9167 103.251 96.9167 108.335V123.001L63.25 116.835Z" fill="#373382"/>
</g>
<path d="M90.9168 23.333C85.2501 22.333 80.7501 22.833 77.0835 24.4164C74.7501 24.2497 72.1668 24.333 69.2501 24.833C40.0835 29.9997 42.1668 63.4164 45.1668 77.333C48.0835 91.2497 62.9168 100.416 78.1668 97.6663C78.8335 97.583 79.5001 97.4163 80.1668 97.2497C80.8335 97.4163 81.4168 97.583 82.0835 97.6663C97.3335 100.333 112.167 91.2497 115.083 77.333C118.167 63.4997 120.167 28.4997 90.9168 23.333Z" fill="#373382"/>
<path d="M79.9987 116.003C62.332 116.003 47.832 92.3359 47.832 83.9193L50.9154 44.3359C52.7487 32.5026 62.332 31.8359 79.9987 31.8359C97.6654 31.8359 109.499 34.1693 110.665 44.3359L112.165 83.9193C112.165 92.3359 97.7487 116.003 79.9987 116.003Z" fill="#B59FFF"/>
<path d="M79.9987 116C62.332 116 47.832 92.3333 47.832 83.9167L49.832 57.4167L60.082 54L75.9987 57.0833L73.332 83.25L76.082 85.5833H80.4154L79.9987 116Z" fill="#8B79E0"/>
<path d="M86.418 54.0026L87.168 59.5859L102.251 57.5026L108.751 59.2526L108.001 56.5859L101.585 52.8359L86.418 54.0026Z" fill="#373382"/>
<path d="M75.6654 54.0013L74.9154 59.5846L59.832 57.5013L53.332 59.3346L54.1654 56.668L60.582 52.918L75.6654 54.0013Z" fill="#373382"/>
<path d="M84.5004 86.3333H76.0837C75.0004 86.3333 74.0004 85.9167 73.3337 85.0833C72.5837 84.3333 72.2504 83.25 72.4171 82.1667L74.9171 52.5L77.0004 52.6667L74.5004 82.3333C74.4171 82.8333 74.5837 83.25 74.9171 83.6667C75.2504 84 75.6671 84.25 76.1671 84.25H84.5837C85.0837 84.25 85.5004 84.0833 85.8337 83.75C86.1671 83.4167 86.3337 83 86.2504 82.5L84.9171 62.75L87.0004 62.5833L88.3337 82.3333C88.4171 83.3333 88.0004 84.4167 87.3337 85.1667C86.5004 85.8333 85.5004 86.3333 84.5004 86.3333Z" fill="#8B79E0"/>
<path d="M86.0833 94.3359H74.25C73.1667 94.3359 72.25 93.4193 72.25 92.3359C72.25 91.2526 73.1667 90.3359 74.25 90.3359H86.0833C87.1667 90.3359 88.0833 91.2526 88.0833 92.3359C88.0833 93.4193 87.1667 94.3359 86.0833 94.3359Z" fill="#B59FFF"/>
<path d="M83.6667 98.25H76.75C75.6667 98.25 74.75 97.3333 74.75 96.25C74.75 95.1667 75.6667 94.25 76.75 94.25H83.6667C84.75 94.25 85.6667 95.1667 85.6667 96.25C85.6667 97.3333 84.75 98.25 83.6667 98.25Z" fill="#B59FFF"/>
<path d="M90.25 71.9179L103.417 68.9179C103.417 68.9179 102.5 65.6679 97.8333 65.2513C93.8333 64.9179 90.5 68.0013 90.25 71.9179Z" fill="#8B79E0"/>
<path d="M102.835 69.0006C102.835 69.0006 96.0846 64.1673 90.168 71.9173C90.2513 71.9173 97.5846 75.834 102.835 69.0006Z" fill="white"/>
<path d="M96.4154 72.9167C97.9987 72.9167 99.2487 71.6667 99.2487 70.0833C99.2487 68.5 97.9987 67.25 96.4154 67.25C94.832 67.25 93.582 68.5 93.582 70.0833C93.582 71.6667 94.9154 72.9167 96.4154 72.9167Z" fill="#373382"/>
<path d="M71.4167 71.3336L58.25 68.3336C58.25 68.3336 59.1667 65.0836 63.8333 64.6669C67.75 64.4169 71.0833 67.4169 71.4167 71.3336Z" fill="#6860CC"/>
<path d="M58.75 68.4186C58.75 68.4186 65.5 63.5853 71.4167 71.3353C71.4167 71.3353 64.0833 75.2519 58.75 68.4186Z" fill="white"/>
<path d="M65.1654 72.3346C66.7487 72.3346 67.9987 71.0846 67.9987 69.5013C67.9987 67.918 66.7487 66.668 65.1654 66.668C63.582 66.668 62.332 67.918 62.332 69.5013C62.332 71.0846 63.582 72.3346 65.1654 72.3346Z" fill="#373382"/>
<path d="M45.832 82.8333H44.332C43.2487 82.8333 42.332 81.9167 42.332 80.8333V75C42.332 73.9167 43.2487 73 44.332 73H46.082C46.2487 73 46.332 73.1667 46.332 73.25V82.3333C46.332 82.6667 46.082 82.8333 45.832 82.8333Z" fill="#8B79E0"/>
<path d="M115.5 82.8359H114C113.75 82.8359 113.5 82.5859 113.5 82.3359V73.5859C113.5 73.2526 113.75 73.0859 114 73.0859H115.5C116.583 73.0859 117.5 74.0026 117.5 75.0859V80.9193C117.5 82.0026 116.583 82.8359 115.5 82.8359Z" fill="#B59FFF"/>
<path d="M47 42.5026C47.0833 41.3359 54.5833 18.9193 54.5833 18.9193L59.75 16.3359L60 23.0026L61.6667 15.8359H71.25L72.1667 24.5026L74.4167 15.8359L95.4167 16.3359L98.8333 25.5026L98.6667 16.5859L104.917 16.3359L107 24.5026L108.75 17.2526L113.583 41.9193L80.1667 43.1693L47 42.5026Z" fill="#373382"/>
<path d="M77.75 98.25H85.25L80 108.333L77.75 98.25Z" fill="#8B79E0"/>
<path d="M86.0833 85.418H74.75V90.3346H86.0833V85.418Z" fill="#8B79E0"/>
</g>
<defs>
<clipPath id="clip0_6767_136846">
<rect width="160" height="160" fill="white"/>
</clipPath>
</defs>
</svg>
