<svg width="172" height="140" viewBox="0 0 172 140" fill="none" xmlns="http://www.w3.org/2000/svg">
<path d="M85.864 139.728C124.449 139.728 155.728 108.449 155.728 69.864C155.728 31.2792 124.449 0 85.864 0C47.2792 0 16 31.2792 16 69.864C16 108.449 47.2792 139.728 85.864 139.728Z" fill="#00C7BA"/>
<path opacity="0.3" d="M151.207 45.1445L33.5853 116.229C53.228 138.383 85.6528 146.37 114.166 133.728C148.257 118.623 164.27 79.5798 151.207 45.1445Z" fill="#17144F"/>
<path d="M98.1143 83.937C108.937 83.937 117.71 75.1636 117.71 64.3412C117.71 53.5188 108.937 44.7455 98.1143 44.7455C87.2919 44.7455 78.5186 53.5188 78.5186 64.3412C78.5186 75.1636 87.2919 83.937 98.1143 83.937Z" fill="#373382"/>
<path d="M73.6138 83.937C84.4362 83.937 93.2095 75.1636 93.2095 64.3412C93.2095 53.5188 84.4362 44.7455 73.6138 44.7455C62.7914 44.7455 54.0181 53.5188 54.0181 64.3412C54.0181 75.1636 62.7914 83.937 73.6138 83.937Z" fill="#373382"/>
<path d="M103.457 101.155H68.2709C57.2019 101.155 48.1433 110.213 48.1433 121.282V128.682C59.0246 135.676 71.9632 139.728 85.8562 139.728C99.7492 139.728 112.696 135.676 123.569 128.682V121.282C123.577 110.213 114.518 101.155 103.457 101.155Z" fill="#FF2475"/>
<path d="M64.696 70.6855L57.5539 60.2501C51.4992 51.4026 52.7117 40.1693 60.9802 32.6909C67.1914 27.0742 76.0545 23.5384 85.8563 23.5384C94.7819 23.5384 102.933 26.4641 109.011 31.2359C118.672 38.816 120.425 51.1445 113.548 60.6177L106.242 70.6855H64.696Z" fill="#373382"/>
<path d="M87.2252 105.426H84.5107C78.5342 105.426 73.6529 105.653 73.6529 101.155V88.1926C73.6529 84.5316 76.6489 81.5433 80.3021 81.5433H91.4337C95.0947 81.5433 98.083 84.5394 98.083 88.1926V101.155C98.083 105.653 93.1938 105.426 87.2252 105.426Z" fill="white"/>
<path opacity="0.3" d="M73.6451 94.4116V88.1926C73.6451 84.5316 76.6411 81.5433 80.2943 81.5433H91.4259C95.0869 81.5433 98.0752 84.5394 98.0752 88.1926V98.8548L73.6451 94.4116Z" fill="#7360FC"/>
<path d="M85.8641 91.2512C73.5669 91.2512 63.5069 81.1913 63.5069 68.8941V46.404C63.5069 34.1068 73.5669 32.3858 85.8641 32.3858C98.1613 32.3858 108.221 34.1068 108.221 46.404V68.8941C108.221 81.1913 98.1613 91.2512 85.8641 91.2512Z" fill="#B59FFF"/>
<path d="M95.3764 70.9905C94.6958 70.2709 93.7415 69.8641 92.748 69.8641H86.1848H85.7389H79.207C78.19 69.8641 77.2278 70.2865 76.5395 71.0375L69.945 78.2108L72.1353 80.5264L79.5512 73.3999H85.8484H86.0596H92.3568L100.015 80.5264L102.206 78.2108L95.3764 70.9905Z" fill="#373382"/>
<path d="M104.732 36.8837H67.1132L72.589 12.0547H99.2564L104.732 36.8837Z" fill="#FFBE44"/>
<path d="M86.216 123.16C83.2982 123.16 80.5133 122.589 77.971 121.556C78.7689 127.54 79.5668 133.525 80.3647 139.501C82.1796 139.642 84.0101 139.72 85.864 139.72C87.6867 139.72 89.4937 139.65 91.2851 139.509C91.7075 133.478 92.482 127.54 93.7258 121.838C91.379 122.698 88.8523 123.16 86.216 123.16Z" fill="#FFBE44"/>
<path d="M62.4274 72.4299H66.6673L77.9475 83.186C78.9645 84.0387 80.5133 83.6788 81.0609 82.4742L82.7975 78.6489H89.2982L90.5811 82.1925C91.0583 83.4989 92.6854 83.937 93.7493 83.053L105.084 71.3895H110.005L102.792 119.327C101.658 122.104 98.7245 123.95 95.4468 123.95H76.0779C72.6516 123.95 69.6242 121.939 68.5994 118.982L62.4274 72.4299Z" fill="#373382"/>
<path d="M102.002 68.6281C101.971 68.5029 101.932 68.3699 101.877 68.2447L101.713 67.8849L94.5002 51.9815C93.9213 50.6985 92.3959 50.1275 91.113 50.7064C89.8301 51.2852 89.259 52.8107 89.8379 54.0936L94.5784 64.5446C94.2733 64.6307 93.9761 64.7246 93.6788 64.8575L93.272 65.0453C93.0687 65.1392 92.8731 65.2408 92.6853 65.3504L89.9944 59.413L82.4064 42.6725C81.9136 41.593 80.6385 41.108 79.559 41.6008C78.4794 42.0936 77.9944 43.3687 78.4872 44.4483L84.7063 58.177L82.907 58.9906L76.1952 44.1901C75.7024 43.1106 74.4273 42.6256 73.3478 43.1184C72.2682 43.6112 71.7832 44.8863 72.2761 45.9658L78.9879 60.7663L77.353 61.5094L71.6581 48.9463C71.1653 47.8667 69.8902 47.3817 68.8106 47.8746C67.7311 48.3674 67.2461 49.6425 67.7389 50.722L73.4416 63.3087C72.8941 63.6137 72.4012 63.997 71.9788 64.4273L67.9423 55.5173C67.4573 54.4378 66.1744 53.9528 65.0949 54.4456C64.0154 54.9384 63.5304 56.2213 64.0232 57.293L70.6255 71.8666L72.0023 74.9096C75.6633 82.9904 85.2695 86.6045 93.3503 82.9435C93.7414 82.7636 94.1012 82.5524 94.4376 82.3177L94.4846 82.4194L96.6123 81.4572C101.494 79.2434 103.801 73.6033 102.002 68.6281Z" fill="#373382"/>
<path d="M128.372 125.303L102.659 74.3152C103.598 72.117 103.739 69.5903 102.878 67.2122C102.847 67.0949 102.808 66.9697 102.761 66.8524L102.604 66.5082L95.8223 51.5356C95.2747 50.3309 93.8431 49.7912 92.6306 50.3388C91.4259 50.8864 90.8862 52.3179 91.4338 53.5304L95.8927 63.3635C95.6111 63.4417 95.3216 63.5356 95.0478 63.6607L94.6645 63.8328C94.4768 63.9189 94.289 64.0128 94.1169 64.1223L91.5824 58.5291L84.4403 42.7743C83.9788 41.7573 82.7741 41.3036 81.7571 41.7652C80.7402 42.2267 80.2865 43.4314 80.748 44.4483L86.5994 57.3635L84.9097 58.1301L78.5968 44.198C78.1353 43.1811 76.9306 42.7273 75.9136 43.1889C74.8967 43.6504 74.443 44.8551 74.9045 45.872L81.2174 59.8042L79.6763 60.5004L74.3178 48.6804C73.8563 47.6634 72.6516 47.2097 71.6346 47.6713C70.6177 48.1328 70.164 49.3375 70.6255 50.3544L75.9919 62.1979C75.4756 62.4873 75.014 62.8394 74.6151 63.2461L70.8133 54.8603C70.3517 53.8433 69.147 53.3896 68.1301 53.8511C67.1132 54.3127 66.6594 55.5174 67.121 56.5343L73.34 70.2474L74.6385 73.1105C76.0623 76.2474 78.4403 78.6489 81.2643 80.1665L106.977 136.419C119.173 133.736 128.372 125.303 128.372 125.303Z" fill="#B9ACFC"/>
</svg>
