<svg width="360" height="360" viewBox="0 0 360 360" fill="none" xmlns="http://www.w3.org/2000/svg">
<rect width="360" height="360" fill="#231D65"/>
<path d="M238.687 259.707H121.785C85.0077 259.707 54.9219 283.254 54.9219 312.034V359.991H305.539V312.034C305.539 283.254 275.45 259.707 238.687 259.707Z" fill="#181350"/>
<path opacity="0.38" d="M71.8026 277.377C61.3116 286.623 54.9219 298.774 54.9219 312.036V359.992H230.431C228.454 359.858 226.474 359.7 224.492 359.521C166.467 354.373 96.815 334.6 71.8026 277.377Z" fill="#373382"/>
<path opacity="0.38" d="M57.8595 296.725C55.9245 301.597 54.9278 306.791 54.9219 312.034V359.99H107.416C83.6985 345.135 65.1965 324.373 57.8595 296.725Z" fill="#373382"/>
<path d="M251.95 260.754C251.134 287.178 219.338 308.43 180.23 308.43C141.122 308.43 109.33 287.178 108.51 260.754C78.0376 265.607 54.9375 286.809 54.9375 312.035V359.991H305.555V312.035C305.54 286.809 282.423 265.618 251.95 260.754Z" fill="#4420D8"/>
<path d="M108.509 260.754C104.91 261.325 101.354 262.139 97.8652 263.191C99.7314 292.993 135.888 316.764 180.225 316.764C224.563 316.764 260.719 292.993 262.589 263.191C259.1 262.139 255.544 261.325 251.945 260.754C251.129 287.178 219.333 308.43 180.225 308.43C141.117 308.43 109.328 287.178 108.509 260.754Z" fill="#3317A5"/>
<g opacity="0.8">
<path d="M110.166 144.033V200.84C111.334 206.645 114.343 210.034 119.44 210.695H127.533C129.834 210.695 132.04 211.609 133.667 213.235C135.293 214.862 136.207 217.068 136.207 219.368V228.096C136.206 228.545 136.294 228.991 136.466 229.407C136.638 229.822 136.89 230.2 137.208 230.518C137.526 230.836 137.904 231.088 138.319 231.26C138.735 231.431 139.18 231.519 139.63 231.518H143.106C144.014 231.518 144.885 231.158 145.527 230.516C146.169 229.874 146.529 229.003 146.529 228.096V213.464C146.529 212.727 146.822 212.022 147.342 211.501C147.863 210.98 148.569 210.688 149.305 210.688H153.622C153.986 210.688 154.347 210.76 154.683 210.899C155.019 211.039 155.325 211.244 155.582 211.501C155.839 211.759 156.043 212.065 156.182 212.402C156.32 212.739 156.391 213.099 156.391 213.464V228.096C156.391 228.546 156.479 228.991 156.652 229.407C156.824 229.823 157.077 230.2 157.395 230.518C157.714 230.836 158.092 231.088 158.508 231.26C158.924 231.431 159.37 231.519 159.82 231.518H163.296C164.204 231.518 165.075 231.158 165.717 230.516C166.358 229.874 166.719 229.003 166.719 228.096V213.464C166.719 212.727 167.011 212.022 167.532 211.501C168.053 210.98 168.759 210.688 169.495 210.688H173.805C174.541 210.688 175.247 210.98 175.768 211.501C176.288 212.022 176.58 212.727 176.58 213.464V228.096C176.58 229.003 176.941 229.874 177.583 230.516C178.225 231.158 179.096 231.518 180.003 231.518H180.924V198.284C176.56 198.284 172.197 196.897 172.197 194.355C172.197 189.264 175.093 180.59 180.924 180.59V71.0332H180.877C110.166 70.9999 110.166 144.033 110.166 144.033ZM148.998 187.803C142.926 187.801 137.103 185.387 132.81 181.093C128.517 176.799 126.106 170.976 126.106 164.904C126.106 158.832 128.517 153.008 132.81 148.714C137.103 144.42 142.926 142.007 148.998 142.005C155.071 142.005 160.895 144.417 165.19 148.712C169.484 153.006 171.897 158.831 171.897 164.904C171.897 170.977 169.484 176.801 165.19 181.096C160.895 185.39 155.071 187.803 148.998 187.803Z" fill="#5749A2"/>
<path d="M180.932 71V180.557C186.77 180.557 189.666 188.924 189.666 194.321C189.666 196.99 185.302 198.325 180.932 198.251V231.525H183.494C183.943 231.525 184.388 231.437 184.804 231.265C185.219 231.093 185.596 230.841 185.914 230.523C186.232 230.205 186.484 229.828 186.656 229.412C186.828 228.997 186.917 228.552 186.917 228.102V213.47C186.917 212.734 187.209 212.028 187.73 211.508C188.25 210.987 188.956 210.695 189.692 210.695H194.002C194.739 210.695 195.445 210.987 195.965 211.508C196.486 212.028 196.778 212.734 196.778 213.47V228.102C196.778 228.552 196.867 228.997 197.039 229.412C197.211 229.828 197.463 230.205 197.781 230.523C198.098 230.841 198.476 231.093 198.891 231.265C199.306 231.437 199.751 231.525 200.201 231.525H203.677C204.127 231.526 204.573 231.438 204.989 231.267C205.405 231.095 205.783 230.843 206.102 230.525C206.42 230.207 206.673 229.83 206.845 229.414C207.018 228.998 207.106 228.553 207.106 228.102V213.47C207.106 213.106 207.177 212.746 207.315 212.409C207.454 212.072 207.658 211.766 207.915 211.508C208.172 211.25 208.478 211.046 208.814 210.906C209.151 210.767 209.511 210.695 209.876 210.695H214.192C214.557 210.695 214.918 210.767 215.255 210.906C215.591 211.046 215.897 211.25 216.155 211.508C216.413 211.766 216.617 212.072 216.757 212.408C216.896 212.745 216.968 213.106 216.968 213.47V228.102C216.968 228.552 217.057 228.997 217.229 229.412C217.401 229.828 217.653 230.205 217.97 230.523C218.288 230.841 218.666 231.093 219.081 231.265C219.496 231.437 219.941 231.525 220.391 231.525H223.867C224.317 231.526 224.762 231.438 225.178 231.267C225.594 231.095 225.971 230.843 226.289 230.525C226.607 230.207 226.859 229.829 227.031 229.413C227.203 228.998 227.291 228.552 227.29 228.102V219.375C227.29 217.075 228.204 214.869 229.83 213.242C231.457 211.615 233.663 210.702 235.964 210.702H243.476C248.294 210.214 251.483 208.033 251.596 202.588V144.04C251.596 144.04 251.603 71.0334 180.932 71ZM212.865 187.803C206.8 187.796 200.985 185.383 196.697 181.093C192.409 176.804 189.998 170.989 189.992 164.924C189.992 158.852 192.404 153.028 196.697 148.734C200.99 144.44 206.813 142.027 212.885 142.025C218.954 142.03 224.774 144.445 229.064 148.739C233.354 153.033 235.763 158.854 235.763 164.924C235.758 170.994 233.343 176.813 229.049 181.103C224.756 185.393 218.934 187.803 212.865 187.803V187.803Z" fill="#6C5DBB"/>
</g>
</svg>
