<svg width="76" height="40" viewBox="0 0 76 40" fill="none" xmlns="http://www.w3.org/2000/svg">
<path d="M75.8882 23.4991C75.8882 14.064 58.4781 0.210938 37.9969 0.210938C17.5156 0.210938 0.105469 14.0574 0.105469 23.4991H75.8882Z" fill="black"/>
<path d="M38.0238 40.0007C58.9396 40.0007 75.8952 23.4993 75.8952 23.4993C75.8952 23.4993 58.9396 6.99805 38.0238 6.99805C17.1079 6.99805 0.152344 23.4993 0.152344 23.4993C0.152344 23.4993 17.1079 40.0007 38.0238 40.0007Z" fill="white"/>
<path d="M21.5371 23.4982C21.5358 20.2331 22.5023 17.041 24.3141 14.326C26.126 11.6109 28.7019 9.49487 31.7158 8.24569C34.7296 6.99651 38.046 6.67033 41.2452 7.30845C44.4443 7.94656 47.3824 9.52028 49.6877 11.8304C51.9929 14.1406 53.5616 17.0833 54.1952 20.2862C54.8289 23.489 54.499 26.8081 53.2473 29.8232C51.9956 32.8384 49.8784 35.4141 47.1637 37.2243C44.4489 39.0346 41.2586 39.9981 37.9966 39.9928C33.63 39.9858 29.4445 38.2451 26.3587 35.1527C23.2729 32.0603 21.5389 27.8688 21.5371 23.4982Z" fill="#FFBE44"/>
<path d="M28.5967 23.4994C28.5967 21.6322 29.1502 19.807 30.1872 18.2549C31.2241 16.7027 32.6979 15.4934 34.4219 14.7801C36.1458 14.0668 38.0425 13.8815 39.8718 14.2477C41.701 14.6139 43.3806 15.5152 44.6978 16.8373C46.0151 18.1595 46.9107 19.8432 47.2714 21.6751C47.6321 23.5071 47.4417 25.405 46.7241 27.1285C46.0066 28.8521 44.7943 30.3238 43.2406 31.3573C41.687 32.3909 39.8619 32.9397 37.9964 32.9345C35.501 32.9274 33.1102 31.9303 31.3482 30.1616C29.5862 28.393 28.5967 25.9972 28.5967 23.4994Z" fill="#0F0A45"/>
<path d="M33.4834 23.4995C33.4834 22.5996 33.7504 21.7199 34.2504 20.972C34.7505 20.2241 35.4612 19.6416 36.2924 19.2984C37.1236 18.9553 38.0379 18.8669 38.9193 19.0444C39.8008 19.2219 40.6097 19.6574 41.2436 20.2956C41.8775 20.9338 42.3078 21.7461 42.48 22.6294C42.6522 23.5126 42.5585 24.4272 42.2107 25.2571C41.863 26.0871 41.2769 26.795 40.5268 27.2911C39.7766 27.7873 38.8962 28.0493 37.9971 28.044C36.7976 28.037 35.6495 27.5551 34.8038 26.7036C33.9581 25.8521 33.4834 24.7002 33.4834 23.4995Z" fill="#00C7BA"/>
</svg>
