<svg width="564" height="564" viewBox="0 0 564 564" fill="none" xmlns="http://www.w3.org/2000/svg">
<rect x="11" y="11" width="538" height="538" rx="20" fill="#160E6B"/>
<path d="M378.013 197.46C380.547 184.566 376.205 169.964 369.731 166.708C359.058 109.181 330.146 91.5353 296.08 86.8536C234.215 78.3702 197.106 107.659 191.146 170.096C175.484 183.913 181.014 198.934 181.014 198.939C169.694 265.067 204.158 285.745 266.022 324.599C271.117 322.118 275.919 319.075 280.338 315.527C282.507 317.262 284.769 318.878 287.114 320.368C293.042 309.534 356.953 289.581 363.75 278.853C390.393 237.194 384.428 232.725 378.013 197.46Z" fill="#38336D"/>
<path d="M367.705 399.118H193.002C138.041 399.118 93.0791 434.308 93.0791 477.319V548.987H467.612V477.319C467.612 434.308 422.646 399.118 367.705 399.118Z" fill="#181350"/>
<path opacity="0.38" d="M118.306 425.525C102.628 439.342 93.0791 457.502 93.0791 477.321V548.989H355.368C352.412 548.788 349.454 548.553 346.492 548.284C259.776 540.591 155.686 511.042 118.306 425.525Z" fill="#373382"/>
<path opacity="0.38" d="M97.4692 454.439C94.5775 461.721 93.088 469.483 93.0791 477.318V548.986H171.529C136.084 526.786 108.434 495.759 97.4692 454.439Z" fill="#373382"/>
<path d="M387.524 400.685C386.304 440.174 338.787 471.934 280.342 471.934C221.898 471.934 174.386 440.174 173.161 400.685C127.621 407.938 93.0996 439.623 93.0996 477.321V548.989H467.633V477.321C467.612 439.623 433.063 407.954 387.524 400.685Z" fill="#0F0A45"/>
<path d="M173.162 400.685C167.784 401.537 162.469 402.754 157.256 404.327C160.045 448.865 214.078 484.388 280.338 484.388C346.598 484.388 400.632 448.865 403.426 404.327C398.212 402.755 392.898 401.538 387.52 400.685C386.3 440.174 338.783 471.934 280.338 471.934C221.893 471.934 174.387 440.174 173.162 400.685Z" fill="#38336D"/>
<path d="M285.624 415.714H275.063C251.85 415.714 232.863 416.583 232.863 399.118V332.842C232.863 318.627 244.496 322.89 258.711 322.89H301.976C316.196 322.89 327.829 318.649 327.829 332.842V399.118C327.829 416.583 308.853 415.714 285.624 415.714Z" fill="#181350"/>
<path d="M232.863 372.921V313.978C232.863 299.758 244.496 299.917 258.711 299.917H301.976C316.196 299.917 327.829 299.758 327.829 313.978V390.196L232.863 372.921Z" fill="#373382"/>
<path d="M280.343 121.174C239.278 121.174 193.458 148.092 193.458 185.244V272.644C193.458 320.431 241.028 359.529 280.343 359.529C319.658 359.529 367.228 320.431 367.228 272.644V185.265C367.228 148.092 321.408 121.174 280.343 121.174Z" fill="#181350"/>
<g style="mix-blend-mode:multiply" opacity="0.3">
<path d="M280.343 121.174C239.278 121.174 193.458 148.092 193.458 185.244V272.644C193.458 320.431 241.028 359.529 280.343 359.529" fill="#181350"/>
</g>
<path d="M402.11 199.172C402.11 199.172 393.346 200.736 386.003 215.418C386.003 215.418 383.034 212.894 380.17 218.636C379.497 219.983 373.601 233.482 371.258 244.59C369.079 250.952 367.652 257.564 367.546 264.144C367.546 264.144 364.726 280.713 376.104 280.967C387.482 281.222 396.612 270.411 396.867 258.99C397.471 231.037 413.695 195.423 402.11 199.172Z" fill="#181350"/>
<path d="M384.143 214.876C383.04 214.972 381.587 215.783 380.161 218.636C379.487 219.982 373.591 233.481 371.248 244.589C369.069 250.952 367.642 257.563 367.536 264.143C367.536 264.143 364.716 280.712 376.094 280.967C378.012 281.011 379.925 280.743 381.757 280.172C375.617 275.972 374.647 269.668 373.602 264.202C371.63 247.187 375.659 230.677 384.143 214.876Z" fill="#181350"/>
<path d="M380.717 246.769C380.717 246.769 373.014 270.628 379.546 272.95C386.078 275.273 389.885 260.994 389.418 256.164C388.951 251.334 384.948 257.511 384.948 257.511C384.948 257.511 390.903 244.786 388.893 244.229C386.884 243.672 384.514 247.819 384.514 247.819C384.514 247.819 389.529 236.578 386.067 236.541C382.605 236.504 380.717 246.769 380.717 246.769Z" fill="#181350"/>
<path d="M158.576 199.173C158.576 199.173 167.346 200.737 174.684 215.419C174.684 215.419 177.658 212.895 180.516 218.637C181.189 219.984 187.085 233.483 189.429 244.591C191.608 250.953 193.034 257.565 193.14 264.145C193.14 264.145 195.961 280.714 184.588 280.968C173.215 281.223 164.074 270.412 163.825 258.991C163.215 231.038 146.991 195.424 158.576 199.173Z" fill="#181350"/>
<path d="M176.551 214.876C177.654 214.972 179.106 215.783 180.533 218.636C181.206 219.982 187.102 233.481 189.445 244.589C191.625 250.952 193.051 257.563 193.157 264.143C193.157 264.143 195.978 280.712 184.605 280.967C182.69 281.01 180.781 280.741 178.953 280.172C185.092 275.972 186.063 269.668 187.107 264.202C189.058 247.187 185.05 230.677 176.551 214.876Z" fill="#181350"/>
<path d="M179.971 246.769C179.971 246.769 187.675 270.628 181.143 272.95C174.61 275.273 170.809 260.994 171.27 256.164C171.731 251.334 175.74 257.511 175.74 257.511C175.74 257.511 169.786 244.786 171.795 244.229C173.804 243.672 176.175 247.819 176.175 247.819C176.175 247.819 171.164 236.578 174.626 236.541C178.089 236.504 179.971 246.769 179.971 246.769Z" fill="#181350"/>
<path d="M323.613 141.26C356.947 156.397 366.995 184.488 366.995 184.488L366.899 159.409C366.995 137.05 343.369 83.1807 267.189 96.6692C263.917 96.6109 235.132 96.5844 214.311 113.885L213.972 114.034L214.046 114.097C189.656 134.33 193.119 185.718 193.119 185.718L194.068 184.53C210.61 178.39 218.367 154.059 218.367 154.059L220.027 161.508C231.787 153.513 236.527 136.896 238.001 130.226C258.098 141.566 279.655 150.095 302.071 155.575C297.617 151.609 292.029 146.18 286.695 141.032C294.011 144.592 301.738 147.238 309.701 148.911L300.613 134.065L300.756 134.091C308.542 135.911 316.183 138.307 323.613 141.26V141.26Z" fill="#373382"/>
<path d="M378.681 112.887L370.59 108.412L374.45 97.744C377.928 91.4504 374.98 64.6537 356.651 53.0103L319.235 28.0004C318.974 27.8653 318.703 27.7518 318.423 27.6611C281.648 6.4528 248.362 25.2752 242.238 28.6632L204.036 53.0103C185.723 64.6749 182.759 91.4504 186.237 97.744L189.949 108.03L181.996 112.425C158.391 127.425 154.573 161.963 159.059 170.07L167.542 193.574C167.728 193.913 167.908 194.231 168.072 194.544L167.823 194.624L178.083 212.295C180.203 215.901 185.368 215.948 187.531 211.924L201.804 188.447L279.856 151.862L358.634 188.781L372.653 211.94C373.147 212.756 373.844 213.429 374.676 213.893C375.509 214.357 376.448 214.597 377.401 214.588C378.354 214.58 379.289 214.323 380.113 213.844C380.937 213.365 381.622 212.679 382.101 211.855L389.095 199.804C390.362 198.706 391.581 196.819 393.114 194.046L401.597 170.547C406.104 162.424 402.286 127.886 378.681 112.887Z" fill="#38336D"/>
<path opacity="0.2" d="M176.832 200.599C176.832 200.599 222.578 190.313 240.202 181.21C257.827 172.106 280.371 153.771 280.371 153.771C280.371 153.771 307.512 175.918 320.365 181.379C333.217 186.84 374.923 196.389 374.923 196.389L280.371 152.075L176.832 200.599Z" fill="#160E6B"/>
<g style="mix-blend-mode:multiply">
<path opacity="0.51" d="M280.345 152.078L323.366 128.78L290.217 156.706L280.345 152.078Z" fill="#0F0A45"/>
<path opacity="0.42" d="M189.959 108.489L242.238 81.8462L186.842 99.8786L189.959 108.489Z" fill="#0F0A45"/>
<path opacity="0.42" d="M370.728 108.489L302.724 79.2271L373.634 100.467L370.728 108.489Z" fill="#0F0A45"/>
<path opacity="0.42" d="M162.42 179.804L281.722 108.491L158.104 167.864L162.42 179.804Z" fill="#0F0A45"/>
<path opacity="0.42" d="M402.488 168.261L398.093 180.281L329.86 143.044L402.488 168.261Z" fill="#0F0A45"/>
</g>
<path d="M317.664 283.645C315.806 281.685 313.569 280.125 311.089 279.058C308.608 277.991 305.937 277.441 303.237 277.441H256.902C254.151 277.442 251.43 278.013 248.911 279.119C246.392 280.225 244.13 281.842 242.268 283.868L233.048 296.152L241.388 304.97L255.56 290.909H304.409L318.645 304.986L326.985 296.168L317.664 283.645Z" fill="#38336D"/>
<path d="M193.288 277.719H198.834C200.591 277.73 202.329 278.093 203.943 278.787C205.558 279.481 207.017 280.492 208.235 281.759L242.019 334.457C247.109 339.663 265.105 341.27 267.114 336.514L267.978 316.546H291.811L292.437 337.389C294.176 342.532 315.957 339.658 319.88 336.164L351.757 277.719C352.983 276.336 354.487 275.226 356.171 274.463C357.854 273.699 359.68 273.298 361.528 273.287H367.281L350.59 384.901C346.417 395.834 342.722 403.092 330.702 403.092L235.89 402.562C223.324 402.562 216.188 394.646 212.439 383.018L193.288 277.719Z" fill="#38336D"/>
<g filter="url(#filter0_d_6116:101791)">
<rect x="11.5337" y="11.5337" width="536.933" height="536.933" rx="19.4663" stroke="#D9D8E1" stroke-width="1.06746" shape-rendering="crispEdges"/>
</g>
<defs>
<filter id="filter0_d_6116:101791" x="0.325397" y="0.325397" width="563.619" height="563.619" filterUnits="userSpaceOnUse" color-interpolation-filters="sRGB">
<feFlood flood-opacity="0" result="BackgroundImageFix"/>
<feColorMatrix in="SourceAlpha" type="matrix" values="0 0 0 0 0 0 0 0 0 0 0 0 0 0 0 0 0 0 127 0" result="hardAlpha"/>
<feMorphology radius="4.26984" operator="dilate" in="SourceAlpha" result="effect1_dropShadow_6116:101791"/>
<feOffset dx="2.13492" dy="2.13492"/>
<feGaussianBlur stdDeviation="4.26984"/>
<feComposite in2="hardAlpha" operator="out"/>
<feColorMatrix type="matrix" values="0 0 0 0 0 0 0 0 0 0 0 0 0 0 0 0 0 0 0.3 0"/>
<feBlend mode="normal" in2="BackgroundImageFix" result="effect1_dropShadow_6116:101791"/>
<feBlend mode="normal" in="SourceGraphic" in2="effect1_dropShadow_6116:101791" result="shape"/>
</filter>
</defs>
</svg>
