<svg width="30" height="27" viewBox="0 0 30 27" fill="none" xmlns="http://www.w3.org/2000/svg">
<g clip-path="url(#clip0)" filter="url(#filter0_d)">
<path d="M20.9205 8.18018H25.5205C26.1305 8.18018 26.5305 8.81018 26.2805 9.36018L25.6605 10.7202C25.3405 11.4302 24.6305 11.8902 23.8505 11.8902H20.7505C20.7005 11.8902 20.6505 11.8502 20.6605 11.7902L20.8305 8.27018C20.8305 8.21018 20.8705 8.18018 20.9205 8.18018Z" fill="#7360FC"/>
<path d="M9.08013 8.18018H4.48013C3.87013 8.18018 3.47013 8.81018 3.72013 9.36018L4.34013 10.7202C4.66013 11.4302 5.37013 11.8902 6.15013 11.8902H9.25013C9.30013 11.8902 9.35013 11.8502 9.34013 11.7902L9.17013 8.26018C9.17013 8.21018 9.13013 8.18018 9.08013 8.18018Z" fill="#7360FC"/>
<path d="M19.2703 6.47021H10.7403C9.25031 6.47021 8.02031 6.69022 8.02031 8.19022L6.82031 11.8802C7.01031 12.8002 7.82031 14.5402 8.49031 16.0402C8.90031 16.9602 9.17031 17.9402 9.28031 18.9402L9.63031 21.9202C9.63031 23.4102 11.4903 23.9702 12.9803 23.9702H17.0103C18.5003 23.9702 20.0403 23.5302 20.3503 22.1302L20.6103 18.9602C20.7003 17.9302 20.9503 16.9202 21.3403 15.9602C22.1703 13.9702 22.6703 12.9102 22.9603 11.8802L21.9703 8.19022C21.9903 6.70022 20.7603 6.47021 19.2703 6.47021Z" fill="#A897FF"/>
<path d="M9.37988 19.6904L9.63988 21.9104C9.63988 23.4004 11.4999 23.9604 12.9899 23.9604H17.0199C18.5099 23.9604 20.0499 23.5204 20.3599 22.1204L20.5499 19.8504C18.0299 17.7304 14.0399 17.5004 9.37988 19.6904Z" fill="#DFDCFF"/>
<path d="M15.8105 20.8203C15.8105 20.8203 18.3805 19.9703 18.5305 20.0003C18.6705 20.0403 18.3105 22.2203 15.8105 20.8203Z" fill="#5656B7"/>
<path d="M14.4598 20.8203C14.4598 20.8203 11.8898 19.9703 11.7398 20.0003C11.5998 20.0403 11.9598 22.2203 14.4598 20.8203Z" fill="#5656B7"/>
<path d="M12 14.6402L11.51 12.8102C10.81 10.4202 8.99 10.4302 8.99 10.4302C8.98 11.0602 9.08 11.5302 9.24 11.8802L8.5 11.5802L12 14.6402Z" fill="#DFDCFF"/>
<path d="M20.8305 11.8802C20.9905 11.5302 21.0905 11.0602 21.0705 10.4302C21.0705 10.4302 19.2505 10.4202 18.5505 12.8102L18.0605 14.6402L21.5705 11.5802L20.8305 11.8802Z" fill="#DFDCFF"/>
<path d="M10.2798 12.83C10.705 12.83 11.0498 12.4718 11.0498 12.03C11.0498 11.5882 10.705 11.23 10.2798 11.23C9.85451 11.23 9.50977 11.5882 9.50977 12.03C9.50977 12.4718 9.85451 12.83 10.2798 12.83Z" fill="#17144F"/>
<path d="M10.6395 11.88C10.7499 11.88 10.8395 11.7949 10.8395 11.69C10.8395 11.5851 10.7499 11.5 10.6395 11.5C10.529 11.5 10.4395 11.5851 10.4395 11.69C10.4395 11.7949 10.529 11.88 10.6395 11.88Z" fill="white"/>
<path d="M19.8198 12.83C20.2451 12.83 20.5898 12.4718 20.5898 12.03C20.5898 11.5882 20.2451 11.23 19.8198 11.23C19.3945 11.23 19.0498 11.5882 19.0498 12.03C19.0498 12.4718 19.3945 12.83 19.8198 12.83Z" fill="#17144F"/>
<path d="M20.1795 11.88C20.2899 11.88 20.3795 11.7949 20.3795 11.69C20.3795 11.5851 20.2899 11.5 20.1795 11.5C20.069 11.5 19.9795 11.5851 19.9795 11.69C19.9795 11.7949 20.069 11.88 20.1795 11.88Z" fill="white"/>
<path d="M10.0203 6.53004C10.0203 6.53004 5.56031 5.63004 4.98031 5.15004C4.40031 4.67004 4.64031 3.04004 4.22031 3.04004C3.99031 3.04004 2.15031 4.14004 3.40031 7.29004C4.27031 9.48004 7.98031 8.93004 7.98031 8.93004L10.0203 6.53004Z" fill="#DFDCFF"/>
<path d="M19.9805 6.49C19.9805 6.49 24.4405 5.59 25.0205 5.11C25.6005 4.64 25.3605 3 25.7805 3C26.0105 3 27.8505 4.1 26.6005 7.25C25.7305 9.44 22.0205 8.89 22.0205 8.89L19.9805 6.49Z" fill="#DFDCFF"/>
<path d="M17.7196 17.8501C17.4796 17.4401 17.3696 16.9501 17.4196 16.4701L17.8696 12.5601C18.0396 11.0901 18.7896 9.7501 19.9596 8.8301L21.1596 7.8901L19.9696 6.4901L16.7996 6.1301L17.1796 5.7401L14.4596 5.9201L15.0096 5.3501C15.0096 5.3501 11.1996 6.2601 10.2396 6.4601C10.1196 6.4801 10.0496 6.4901 10.0296 6.4901L8.84961 7.9001L9.67961 8.5501L10.2096 8.9701C11.3696 9.8701 12.1196 11.2001 12.2996 12.6601L12.7396 16.2701L12.7596 16.4301C12.8296 16.9701 12.6896 17.5001 12.3896 17.9501L9.69961 19.5301L9.37961 19.6901L9.48961 19.6601L9.45961 19.6801L9.82961 19.5601L12.4696 18.7801C12.8196 18.6201 13.2096 18.5401 13.5896 18.5401H16.5096C16.9596 18.5401 17.3996 18.6501 17.7996 18.8601L20.5496 19.8501L20.3296 19.7101L20.6396 19.8301L17.7196 17.8501Z" fill="#7360FC"/>
</g>
<defs>
<filter id="filter0_d" x="0" y="-1" width="30" height="30" filterUnits="userSpaceOnUse" color-interpolation-filters="sRGB">
<feFlood flood-opacity="0" result="BackgroundImageFix"/>
<feColorMatrix in="SourceAlpha" type="matrix" values="0 0 0 0 0 0 0 0 0 0 0 0 0 0 0 0 0 0 127 0"/>
<feOffset/>
<feGaussianBlur stdDeviation="1.5"/>
<feColorMatrix type="matrix" values="0 0 0 0 0.0313726 0 0 0 0 0.0117647 0 0 0 0 0.270588 0 0 0 0.7 0"/>
<feBlend mode="normal" in2="BackgroundImageFix" result="effect1_dropShadow"/>
<feBlend mode="normal" in="SourceGraphic" in2="effect1_dropShadow" result="shape"/>
</filter>
<clipPath id="clip0">
<rect width="24" height="24" fill="white" transform="translate(3 2)"/>
</clipPath>
</defs>
</svg>
