<svg width="76" height="92" viewBox="0 0 76 92" fill="none" xmlns="http://www.w3.org/2000/svg">
<path d="M12.6896 21.0363L11.0298 34.6847" stroke="#17154E" stroke-width="1.85" stroke-miterlimit="10"/>
<path d="M9.13281 22.7861L9.88369 36.5122" stroke="#17154E" stroke-width="1.85" stroke-miterlimit="10"/>
<path d="M6.0506 87.8394L10.2001 89.4725C10.5558 89.6281 10.8325 89.8614 11.0301 90.1724C11.2277 90.4835 11.3067 90.8335 11.2672 91.2223V91.4556L3.28424 91.3001L6.0506 87.8394Z" fill="#B59FFF"/>
<path d="M11.267 92V90.9112H0.00390625V92" fill="#373382"/>
<path d="M6.36664 91.2223L7.86838 88.5782L9.17252 89.0837L8.22406 91.2223H6.36664Z" fill="#373382"/>
<path d="M14.5076 60.426L6.40614 61.7092L0.12255 89.1226C-0.351684 91.1834 0.557261 90.9501 2.73083 90.9501H5.2996L14.0334 61.8647L14.5076 60.426Z" fill="#B59FFF"/>
<path d="M21.3838 87.2172L27.1141 89.5114C27.4698 89.6669 27.7465 89.9002 27.9441 90.2113C28.1417 90.5224 28.2207 90.8723 28.1812 91.2612V91.4945L20.1982 91.339L21.3838 87.2172Z" fill="#B59FFF"/>
<path d="M28.181 92V90.9112H16.918V92" fill="#373382"/>
<path d="M23.3203 91.2223L24.8221 88.5782L26.1262 89.0837L25.1777 91.2223H23.3203Z" fill="#373382"/>
<path d="M16.7603 61.1648L11.3066 62.0203L16.9974 89.1226C17.037 91.3001 17.9459 91.0668 19.6057 90.9501H22.1745L18.9339 62.1758L16.7603 61.1648Z" fill="#B59FFF"/>
<path d="M12.0572 32.0794C13.2428 32.0406 14.3889 31.5351 15.1792 30.6796C16.0092 29.8242 16.4044 28.6965 16.3648 27.53L16.2068 23.0972C15.2188 20.6086 14.0727 19.9087 11.583 20.0253C10.3974 20.0642 9.25133 20.5697 8.46094 21.4252C7.63103 22.2806 7.23584 23.4083 7.23584 24.5748L7.35439 27.8411C7.39391 28.4243 7.51247 29.0076 7.74959 29.5131C7.9867 30.0186 8.34238 30.5241 8.7771 30.9129C9.21181 31.3018 9.72557 31.6128 10.2788 31.8073C10.8321 32.0017 11.4644 32.0794 12.0572 32.0794Z" fill="#B59FFF"/>
<path d="M20.8704 73.4134C9.84444 76.7185 1.46631 73.4523 1.46631 73.4523C1.46631 73.4523 3.00757 61.0093 4.39075 55.2156C4.82546 53.3491 5.18114 52.1826 5.33922 49.7718C5.02306 44.6391 5.37873 38.3398 5.37873 38.3398C5.81345 35.929 7.59182 34.1792 9.72587 34.1014H16.0095C19.0525 33.9848 20.3961 37.6788 19.8033 41.1395L18.3016 54.5934C18.2621 54.5545 20.159 65.4032 20.8704 73.4134Z" fill="white"/>
<path d="M16.0093 22.7084C16.0093 22.7084 17.3529 25.197 18.3409 27.2967C18.42 27.53 18.1828 27.7244 17.9457 27.7633L16.2069 27.8411L16.0093 22.7084Z" fill="#B59FFF"/>
<path d="M8.54004 30.1741L9.76514 35.0346L14.9817 34.8402L13.8752 30.0186L8.54004 30.1741Z" fill="#B59FFF"/>
<path d="M8.46143 27.2967L9.92364 27.2578L11.5835 29.7464C11.6625 29.8631 11.7811 29.9797 11.9391 30.0575C12.0972 30.1352 12.2158 30.1741 12.3739 30.1352L14.9426 29.9797C15.1007 29.9408 15.2193 29.9019 15.3378 29.8242C15.4564 29.7464 15.5354 29.6297 15.6145 29.4742L15.7725 29.0854H16.1677L18.2227 36.4734C18.3018 36.7067 18.3018 36.9789 18.2623 37.2122C18.2227 37.4455 18.1042 37.6788 17.9461 37.9121C17.788 38.1065 17.5904 38.3009 17.3928 38.4176C17.1557 38.5342 16.9186 38.612 16.642 38.612L16.0492 38.6509C15.733 38.6509 15.4169 38.612 15.1402 38.4565C14.8636 38.3009 14.6265 38.1065 14.5079 37.8343L11.2673 32.235L8.46143 27.2967Z" fill="#373382"/>
<path d="M7.74974 30.6796C9.60716 30.6796 11.1484 29.202 11.1484 27.3356C11.1484 25.4691 9.64668 23.9915 7.74974 23.9915C5.85281 23.9915 4.35107 25.4691 4.35107 27.3356C4.39059 29.202 5.89233 30.6796 7.74974 30.6796Z" fill="#373382"/>
<path d="M16.3652 28.3466L15.4167 28.3855L14.2707 29.5131L13.915 29.1631L14.8634 28.0744C14.9425 27.9966 15.0215 27.9188 15.1401 27.88C15.2191 27.8411 15.3377 27.8022 15.4562 27.8022L16.4442 27.7633L16.3652 28.3466Z" fill="#373382"/>
<path d="M25.2175 40.7118L24.5457 38.3009C24.3085 37.4066 23.5972 36.8233 22.9649 36.9789L8.26364 36.4734C7.63133 36.6678 7.31517 37.5233 7.59181 38.4176L8.26364 40.8284C8.50076 41.7228 9.21211 42.306 9.84442 42.1116L24.5457 42.6171C25.178 42.5004 25.4941 41.6061 25.2175 40.7118Z" fill="#B59FFF"/>
<path d="M27.9047 30.9129L25.3359 30.6796C25.1778 30.6407 25.0593 30.6407 24.9012 30.6407C24.7431 30.6796 24.6246 30.7185 24.506 30.7963C24.3875 30.874 24.2689 30.9518 24.1899 31.1074C24.1108 31.224 24.0318 31.3407 24.0318 31.4962L19.8032 41.1006C19.7242 41.4506 20.396 41.8783 21.2654 42.0727L23.5971 42.5782C24.4665 42.7726 25.2174 42.656 25.2964 42.306C26.157 38.4954 27.1538 35.3846 27.9047 30.9129Z" fill="#B59FFF"/>
<path d="M9.52812 42.1893C11.0694 42.0338 12.1759 40.5562 11.9783 38.9231C11.7807 37.2899 10.3976 36.1234 8.85629 36.2789C7.31503 36.4345 6.20849 37.9121 6.40609 39.5452C6.60368 41.1784 7.98686 42.3449 9.52812 42.1893Z" fill="#B59FFF"/>
<path d="M14.1519 25.4691C14.1519 25.4691 15.1398 24.4581 15.9697 25.3914C15.9697 25.3914 15.3374 26.1691 14.1519 25.4691Z" fill="white"/>
<path d="M15.2981 25.7413C15.5352 25.7413 15.6933 25.5858 15.6933 25.3525C15.6933 25.1192 15.5352 24.9637 15.2981 24.9637C15.061 24.9637 14.9029 25.1192 14.9029 25.3525C14.9029 25.5858 15.1005 25.7413 15.2981 25.7413Z" fill="white"/>
<path d="M15.8118 23.7582V24.3026L14.0729 24.497L13.164 24.9248L13.0454 24.5359L13.9939 23.9138L15.8118 23.7582Z" fill="#373382"/>
<path d="M15.2981 25.7413C15.5352 25.7413 15.6933 25.5858 15.6933 25.3525C15.6933 25.1192 15.5352 24.9637 15.2981 24.9637C15.061 24.9637 14.9029 25.1192 14.9029 25.3525C14.9029 25.5858 15.1005 25.7413 15.2981 25.7413Z" fill="#373382"/>
<path d="M18.9733 50.0051L5.3391 49.7718L4.39062 54.4767L18.262 54.5545L18.9733 50.0051Z" fill="#FFBE44"/>
<path d="M20.5146 71.2358C20.5146 71.2358 15.061 73.8022 5.93196 72.6745L19.6452 63.8867L18.8943 58.9095L1.11058 71.197L0.873464 73.3745L0.24115 77.5351C0.24115 77.5351 14.7053 81.5013 21.6607 77.1073L20.5146 71.2358Z" fill="#FFBE44"/>
<path d="M50.4705 68.6695L47.7041 88.8115H52.2884L56.3193 68.6695H50.4705Z" fill="#B59FFF"/>
<path d="M48.2572 86.9451C48.2572 86.9451 47.3087 88.9282 46.795 89.1615C45.3327 89.8225 43.7915 90.328 42.1712 90.678C40.788 90.9113 41.0646 91.8056 41.0646 91.8056L51.893 91.8445C52.2486 90.8335 52.4067 89.7447 52.2882 88.6949C52.1301 87.1006 48.2572 86.9451 48.2572 86.9451Z" fill="#B59FFF"/>
<path d="M41.0255 91.9611H52.0514V91.5334H41.065V91.9611H41.0255Z" fill="#FFBE44"/>
<path d="M52.3278 88.7726L49.3638 91.5723H52.0116C52.0116 91.5723 52.6044 89.9391 52.3278 88.7726Z" fill="#FFBE44"/>
<path d="M52.0117 89.7058L47.8621 87.6838L47.5855 88.1505L51.5375 90.1724L52.0117 89.7058Z" fill="#FFBE44"/>
<path d="M46.9531 89.0448L47.2693 88.6559L50.4704 90.8335L50.0752 91.2612L46.9531 89.0448Z" fill="#FFBE44"/>
<path d="M43.0013 91.7667L42.8433 90.5613L43.4361 90.4058L43.6732 91.7667H43.0013Z" fill="#FFBE44"/>
<path d="M58.6508 68.6695L61.6148 88.8115H66.199L64.5392 68.6695H58.6508Z" fill="#B59FFF"/>
<path d="M62.1287 86.9451C62.1287 86.9451 61.1803 88.9282 60.6665 89.1615C59.2043 89.8225 57.663 90.328 56.0823 90.678C54.6991 90.9113 54.9757 91.8056 54.9757 91.8056L65.804 91.8445C66.1597 90.8335 66.3178 89.7447 66.1992 88.6949C66.0016 87.1006 62.1287 86.9451 62.1287 86.9451Z" fill="#B59FFF"/>
<path d="M54.9361 91.9611H65.9225V91.5334H54.9361V91.9611Z" fill="#FFBE44"/>
<path d="M66.1992 88.7726L63.2352 91.5723H65.883C65.9226 91.5723 66.5153 89.9391 66.1992 88.7726Z" fill="#FFBE44"/>
<path d="M65.9223 89.7058L61.7727 87.6838L61.4961 88.1505L65.448 90.1724L65.9223 89.7058Z" fill="#FFBE44"/>
<path d="M60.8247 89.0448L61.1409 88.6559L64.3419 90.8335L63.9467 91.2612L60.8247 89.0448Z" fill="#FFBE44"/>
<path d="M56.912 91.7667L56.7539 90.5613L57.3467 90.4058L57.5838 91.7667H56.912Z" fill="#FFBE44"/>
<path d="M44.6608 45.7278C45.214 45.5334 45.6488 45.1446 45.8859 44.6391C46.123 44.1336 46.1625 43.5503 45.9649 43.0448L41.6968 32.6239C41.6178 32.3905 41.4202 32.1961 41.1831 32.0795C40.9459 31.9628 40.6693 31.9628 40.4322 32.0406L39.4047 32.3905C39.0885 32.5072 38.8119 32.7405 38.6538 33.0516C38.4957 33.3627 38.4957 33.7126 38.6143 34.0626L41.9734 44.4446C42.171 44.989 42.5662 45.3779 43.08 45.6501C43.5542 45.9222 44.147 45.9222 44.6608 45.7278Z" fill="#B59FFF"/>
<path d="M52.8415 33.9848C52.4068 33.6348 51.8535 33.4793 51.2607 33.5182C50.6679 33.557 50.1937 33.8292 49.7985 34.257L42.8035 42.5782C42.4479 42.967 42.5664 44.2113 43.0011 44.5613L43.8706 45.2612C44.1472 45.4945 44.5029 45.5723 44.8585 45.5334C45.2142 45.4945 45.5304 45.339 45.7675 45.0668L53.1181 36.9011C53.4738 36.4734 53.6319 35.929 53.5923 35.3457C53.5528 34.7625 53.2762 34.3347 52.8415 33.9848Z" fill="#B59FFF"/>
<path d="M54.1062 53.4657H60.785C61.4568 53.4657 62.1287 53.1936 62.6029 52.7269C63.0771 52.2603 63.3538 51.5993 63.3538 50.9383L65.3297 35.3457C65.3297 34.6847 65.0531 34.0237 64.5789 33.557C64.1046 33.0904 63.4328 32.8182 62.761 32.8182H52.0512C51.3794 32.8182 50.7075 33.0904 50.2333 33.557C49.7591 34.0237 49.4824 34.6847 49.4824 35.3457L51.5374 46.5832V50.9383C51.5374 51.5993 51.8141 52.2603 52.2883 52.7269C52.8021 53.1936 53.4344 53.4657 54.1062 53.4657Z" fill="#FFBE44"/>
<path d="M57.5049 30.9129C55.3314 30.9907 53.632 31.1462 53.553 29.0076L53.2764 23.2527C53.9877 20.9975 54.9757 20.3364 57.1493 20.2587C59.3228 20.1809 61.1407 20.8808 61.1803 23.0194L61.2988 26.9078C61.3383 27.9188 60.9431 28.9298 60.2318 29.6686C59.56 30.4074 58.572 30.874 57.5049 30.9129Z" fill="#B59FFF"/>
<path d="M53.4742 22.9417C53.4742 22.9417 52.4467 25.2358 51.7353 27.1023C51.6563 27.2967 51.8934 27.4911 52.091 27.4911L53.6323 27.4522L53.4742 22.9417Z" fill="#B59FFF"/>
<path d="M60.4689 29.0465L59.718 33.3626L55.1338 33.5182L55.8056 29.202L60.4689 29.0465Z" fill="#B59FFF"/>
<path d="M60.39 26.519L59.2834 26.2468L57.9398 28.6188C57.8212 28.8132 57.6631 28.9687 57.5051 29.0854C57.3075 29.202 57.1099 29.2409 56.8728 29.2409H54.8968C54.6201 29.2409 54.225 29.3576 54.1064 29.1243L53.9483 28.8132H53.5926L52.3675 35.1513C52.328 35.3846 52.328 35.579 52.3675 35.8123C52.407 36.0456 52.5256 36.2401 52.6837 36.3956C52.8418 36.5511 52.9998 36.7067 53.237 36.7844C53.4346 36.8622 53.6717 36.94 53.9088 36.9011L55.0944 36.8622C55.1734 36.8622 55.2525 36.8233 55.3315 36.7844C55.4105 36.7456 55.4501 36.6678 55.4896 36.6289L58.2559 30.9518L60.39 26.519Z" fill="#373382"/>
<path d="M53.5136 27.9189L54.3435 27.88L56.3195 29.6298L56.6356 29.3187L54.8178 27.6078C54.7387 27.53 54.6597 27.4911 54.5806 27.4522C54.5016 27.4134 54.383 27.4134 54.304 27.4134L53.4346 27.4522L53.5136 27.9189Z" fill="#373382"/>
<path d="M62.3654 25.0803C62.7606 25.3914 63.0767 25.7802 63.2743 26.2079C63.4719 26.6357 63.5905 27.1412 63.5905 27.6078C63.5115 29.202 63.1558 29.6686 63.8671 30.4463C64.1042 30.7574 64.2623 31.1073 64.3414 31.4573C64.4204 31.8073 64.3414 32.235 64.2228 32.5849C64.1042 32.9349 65.4874 33.8292 65.4479 35.2679H59.4805L59.7966 22.5917L62.3654 25.0803Z" fill="#373382"/>
<path d="M54.2643 19.9476C54.2643 19.9476 53.3553 21.8529 54.8966 22.3195C55.845 22.6306 56.833 22.7861 57.821 22.8639C57.821 22.8639 57.3468 24.497 58.1767 25.1581C59.0066 25.8191 59.4808 26.519 59.4808 28.5021C59.4808 30.4852 60.785 30.4463 60.9035 28.9298C60.9035 28.9298 62.0101 28.4243 62.0496 26.2079C62.1286 23.9526 60.5478 20.2198 54.2643 19.9476Z" fill="#373382"/>
<path d="M53.6714 20.5697L61.4172 23.9138L62.2076 25.8191C62.2076 25.8191 63.5117 24.5748 63.3537 21.8918C63.1165 17.8479 63.2746 17.0702 63.2746 17.0702C63.2746 17.0702 61.2196 16.3314 58.7299 15.2037C56.6749 16.6425 54.9755 18.4311 53.6714 20.5697Z" fill="#FFBE44"/>
<path d="M53.6714 20.5697L61.4172 23.9138L62.2076 25.8191C62.2076 25.8191 63.5117 24.5748 63.3537 21.8918C63.1165 17.8479 63.2746 17.0702 63.2746 17.0702C63.2746 17.0702 61.2196 16.3314 58.7299 15.2037C56.6749 16.6425 54.9755 18.4311 53.6714 20.5697Z" fill="url(#paint0_linear_8747_125859)"/>
<path d="M63.0378 47.7498C63.0378 47.7498 66.0808 50.705 65.3299 59.415C64.5791 68.164 65.6856 72.4801 65.6856 72.4801L67.2664 79.6348L48.4946 77.9628L51.5771 48.3719L63.0378 47.7498Z" fill="#FFBE44"/>
<path d="M63.0378 47.7498C63.0378 47.7498 66.0808 50.705 65.3299 59.415C64.5791 68.164 65.6856 72.4801 65.6856 72.4801L67.2664 79.6348L48.4946 77.9628L51.5771 48.3719L63.0378 47.7498Z" fill="url(#paint1_linear_8747_125859)"/>
<path d="M58.9273 60.9704L61.6937 75.4353L65.4085 55.1767C65.4085 55.1767 65.4875 57.8208 65.3295 59.415C64.5786 68.1251 65.6851 72.4801 65.6851 72.4801L67.2659 79.6348L57.1489 78.7405L58.2555 72.5579L58.9273 60.9704Z" fill="#D8962B"/>
<path d="M52.0908 61.3981C52.0908 61.3981 53.3554 72.7523 53.8692 78.4683L50.1938 78.1183C51.2214 72.519 52.0908 61.3981 52.0908 61.3981Z" fill="#D8962B"/>
<path d="M66.3574 75.3576L48.9688 73.6078L48.5341 77.9239L67.3059 79.596L66.3574 75.3576Z" fill="white"/>
<path d="M49.6407 34.5292L46.6768 38.1065L62.445 63.3424L62.0894 53.4658L49.6407 34.5292Z" fill="white"/>
<path d="M46.6371 38.0676L48.4946 35.8512L47.2695 38.3009L49.9963 42.5004L51.5771 41.645L50.2729 42.9281L50.8657 43.9003L52.1699 43.0448L51.1029 44.2113L51.6956 45.1057L53.5926 43.7836L51.9328 45.4167L52.9998 47.2054L54.6991 46.3111L53.2369 47.5554L55.6871 51.366L54.8177 51.1327L46.6371 38.0676Z" fill="#DDD4D8"/>
<path d="M56.0029 53.0769H57.1885L61.7728 53.3102L61.4171 54.5545L58.4136 55.2933L61.8913 61.5925L61.5357 61.9036L56.0029 53.0769Z" fill="#DDD4D8"/>
<path d="M63.4723 52.0271C63.4723 51.4827 63.2352 50.9383 62.84 50.5495C62.4448 50.1606 61.8915 49.9273 61.3382 49.9273L49.9171 50.355C49.6405 50.355 49.4034 50.4717 49.2058 50.6272C49.0082 50.7828 48.9291 51.055 48.9291 51.3271V52.4159C48.9291 52.7659 49.0872 53.1158 49.3243 53.3491C49.5614 53.5824 49.9171 53.738 50.2728 53.738L61.3778 54.1657C61.931 54.1657 62.4843 53.9324 62.8795 53.5435C63.2352 53.1158 63.4723 52.5714 63.4723 52.0271Z" fill="#B59FFF"/>
<path d="M46.3207 50.2773C46.3207 50.3161 46.3207 50.355 46.3602 50.4328C46.3602 50.4717 46.3997 50.5106 46.4393 50.5494C46.4788 50.5883 46.5183 50.5883 46.5578 50.6272C46.5973 50.6661 46.6369 50.6661 46.7159 50.6661H48.3362V50.705V50.9383H44.7794C44.7004 50.9383 44.6214 50.9772 44.5818 51.0161C44.5423 51.0549 44.5028 51.1327 44.5028 51.2494C44.5028 51.366 44.5423 51.4049 44.5818 51.4827C44.6214 51.5216 44.7004 51.5604 44.7794 51.5604H46.953V51.8326H44.6214C44.5423 51.8326 44.4633 51.8715 44.4238 51.9104C44.3843 51.9493 44.3447 52.0659 44.3447 52.1437C44.3447 52.2215 44.3843 52.2992 44.4238 52.377C44.4633 52.4159 44.5423 52.4548 44.6214 52.4548H46.953V52.727H44.977C44.898 52.727 44.819 52.7658 44.7794 52.8047C44.7399 52.8436 44.7004 52.9603 44.7004 53.038C44.7004 53.1158 44.7399 53.1936 44.7794 53.2713C44.819 53.3102 44.9375 53.3491 44.977 53.3491H46.953V53.4269C46.953 53.4658 46.953 53.5435 46.953 53.5824H45.6094C45.5303 53.5824 45.4513 53.6213 45.4118 53.6602C45.3722 53.6991 45.3327 53.7768 45.3327 53.8935C45.3327 54.0101 45.3722 54.049 45.4118 54.1268C45.4513 54.1657 45.5303 54.2046 45.6094 54.2046H48.7709C49.2847 54.2046 49.7589 54.0101 50.1146 53.6602C50.4702 53.3102 50.6678 52.8436 50.6678 52.3381V51.2882C50.6678 50.9383 50.5098 50.6272 50.2726 50.355C50.0355 50.1217 49.6799 49.9662 49.3242 49.9662H46.6764C46.5973 49.9662 46.5183 50.0051 46.4393 50.0828C46.3602 50.1606 46.3207 50.1995 46.3207 50.2773Z" fill="#B59FFF"/>
<path d="M63.3934 32.2739L57.6235 33.5182L63.3934 83.4455L74.775 84.0287C74.775 84.0287 69.9141 54.5545 65.9226 48.6052C65.9226 48.5663 68.1357 34.4514 63.3934 32.2739Z" fill="#00C7BA"/>
<path d="M53.9087 23.6416L53.9482 24.2249L55.529 24.3026L56.3589 24.6526L56.4379 24.3026L55.5685 23.7583L53.9087 23.6416Z" fill="#373382"/>
<path d="M55.4895 25.197C55.4895 25.197 54.541 24.3026 53.8297 25.197C53.8297 25.197 54.462 25.8969 55.4895 25.197Z" fill="white"/>
<path d="M54.4226 25.508C54.6202 25.508 54.7782 25.3525 54.7782 25.1581C54.7782 24.9636 54.6202 24.8081 54.4226 24.8081C54.225 24.8081 54.0669 24.9636 54.0669 25.1581C54.0669 25.3525 54.225 25.508 54.4226 25.508Z" fill="#373382"/>
<path d="M55.0153 28.4632L55.1733 29.5909L56.0823 29.5131L56.0032 29.1631L55.0153 28.4632Z" fill="#373382"/>
<path d="M39.3653 29.2409C39.2862 29.2798 39.2072 29.3965 39.2072 29.4742C39.2072 29.552 39.2072 29.6686 39.2467 29.7464L40.1557 31.0685L40.1161 31.1074L39.9185 31.224L39.4443 30.4852L39.3653 30.3686L37.9426 28.2688C37.9031 28.191 37.824 28.1522 37.745 28.1522C37.6659 28.1522 37.5869 28.1522 37.5079 28.191C37.4288 28.2299 37.3893 28.3077 37.3893 28.3855C37.3893 28.4632 37.3893 28.541 37.4288 28.6188L38.6144 30.3686L38.3773 30.5241L37.1127 28.6188C37.0732 28.541 36.9941 28.5021 36.9151 28.5021C36.836 28.5021 36.757 28.5021 36.678 28.541C36.5989 28.5799 36.5594 28.6577 36.5594 28.7354C36.5594 28.8132 36.5594 28.891 36.5989 28.9687L37.8635 30.8741L37.6659 31.0296L36.5594 29.4353C36.5199 29.3965 36.5199 29.3576 36.4804 29.3576C36.4408 29.3576 36.4013 29.3187 36.3618 29.3187C36.3223 29.3187 36.2828 29.3187 36.2432 29.3187C36.2037 29.3187 36.1642 29.3576 36.1247 29.3576C36.0852 29.3965 36.0456 29.3965 36.0456 29.4353C36.0456 29.4742 36.0061 29.5131 36.0061 29.552C36.0061 29.5909 36.0061 29.6298 36.0061 29.6686C36.0061 29.7075 36.0456 29.7464 36.0456 29.7853L37.1522 31.3795L37.0732 31.4184C37.0336 31.4573 36.9941 31.4962 36.9546 31.5351L36.2037 30.4074C36.1642 30.3297 36.0852 30.2908 36.0061 30.2908C35.9271 30.2908 35.848 30.2908 35.769 30.3297C35.69 30.3686 35.6505 30.4463 35.6505 30.5241C35.6505 30.6019 35.6505 30.6796 35.69 30.7574L36.8756 32.5072L37.1917 32.9738L37.4683 33.3626C37.745 33.7904 38.1797 34.0626 38.6935 34.1792C39.2072 34.2959 39.6814 34.1792 40.1161 33.907L40.5904 33.5959H40.6299L41.0251 33.3626C41.3017 33.1682 41.4993 32.8571 41.5784 32.5461C41.6574 32.1961 41.5784 31.8462 41.3808 31.574L41.3413 31.4962L41.2622 31.3795L39.9185 29.3965C39.879 29.3576 39.8395 29.3187 39.8 29.2798C39.7605 29.2409 39.721 29.2409 39.6814 29.2409C39.6419 29.2409 39.6024 29.2409 39.5234 29.2409C39.4443 29.202 39.4048 29.202 39.3653 29.2409Z" fill="#B59FFF"/>
<path d="M53.434 28.3854C53.434 28.3854 54.1848 28.3077 54.3429 27.8411H53.3154L53.434 28.3854Z" fill="#070047"/>
<path d="M74.3798 82.3567L65.8041 82.0068L59.7181 33.3626L57.6235 33.5182L63.3143 81.929H63.2748L64.1047 89.1226L76.0001 90.1336L74.3798 82.3567Z" fill="url(#paint2_linear_8747_125859)"/>
<path d="M74.3798 82.3567L65.8041 82.0068L59.7181 33.3626L57.6235 33.5182L63.3143 81.929H63.2748L64.1047 89.1226L76.0001 90.1336L74.3798 82.3567Z" fill="url(#paint3_linear_8747_125859)"/>
<path d="M63.7095 32.4294L59.56 33.8292L57.663 33.5181H57.0703L62.7215 31.885L63.7095 32.4294Z" fill="#E01B6B"/>
<path d="M48.9293 73.6467L48.8503 77.4573L51.1424 77.7684L51.9328 74.9687V77.7684L52.9603 77.885L53.2765 76.2519V77.9628L54.3435 78.0406L54.6597 76.4074L54.7387 78.0406L61.1804 79.0905L48.4946 77.9628L48.9293 73.6467Z" fill="#DDD4D8"/>
<path d="M58.8089 14.6982L58.5322 15.3204L63.2746 17.3812L63.5512 16.7202L58.8089 14.6982Z" fill="#FFBE44"/>
<path d="M54.0274 19.9865L61.8522 23.2528L63.0773 24.4582C63.0378 24.7304 62.9588 25.0025 62.8007 25.2358C62.6426 25.4692 62.4846 25.6636 62.2474 25.858L61.299 24.3026L53.4741 20.9975C53.6322 20.6086 53.7903 20.2976 54.0274 19.9865Z" fill="#FFBE44"/>
<path d="M24.7038 27.9189C24.6247 27.9577 24.5852 28.0355 24.5457 28.1133L24.1505 30.6796C24.111 31.0296 24.19 31.3796 24.3876 31.6517C24.5852 31.9239 24.9014 32.1184 25.2571 32.1961L26.2846 32.3517C26.7983 32.4294 27.2725 32.3128 27.7073 32.0017C28.142 31.6906 28.3791 31.2629 28.4581 30.7963L28.9324 27.7244C28.9324 27.6467 28.9324 27.5689 28.8928 27.4911C28.8533 27.4134 28.7743 27.3745 28.6952 27.3745C28.6162 27.3745 28.5372 27.3745 28.4581 27.4134C28.3791 27.4523 28.3396 27.53 28.3396 27.6078L28.142 28.9298C28.1025 28.9298 28.0234 28.891 27.9839 28.891H27.9049L28.221 26.9856C28.221 26.9079 28.221 26.8301 28.1815 26.7523C28.142 26.6746 28.0629 26.6357 27.9839 26.6357C27.9049 26.6357 27.8258 26.6357 27.7468 26.6746C27.6677 26.7135 27.6282 26.7912 27.6282 26.869L27.3121 28.7743L27.0354 28.7354L27.3911 26.4801C27.3911 26.4024 27.3911 26.3246 27.3516 26.2468C27.3121 26.1691 27.233 26.1302 27.154 26.1302C27.0749 26.1302 26.9959 26.1302 26.9169 26.1691C26.8378 26.208 26.7983 26.2857 26.7983 26.3635L26.4426 28.6188L26.166 28.5799L26.5217 26.4801C26.5217 26.4024 26.5217 26.3246 26.4822 26.2468C26.4426 26.1691 26.3636 26.1302 26.2846 26.1302C26.2055 26.1302 26.1265 26.1302 26.0474 26.1691C25.9684 26.208 25.9289 26.2857 25.9289 26.3635L25.3756 29.8242L25.1385 29.7853H25.099L25.3361 28.2299C25.3361 28.1911 25.3361 28.1522 25.3361 28.0744C25.3361 28.0355 25.2966 27.9966 25.2966 27.9577C25.2966 27.9189 25.2175 27.88 25.178 27.88C25.1385 27.8411 25.099 27.8411 25.0595 27.8411C24.8619 27.8411 24.7828 27.8411 24.7038 27.9189Z" fill="#B59FFF"/>
<path d="M33.3189 13.4928C36.9857 13.4928 39.9582 10.5855 39.9582 6.99915C39.9582 3.4128 36.9857 0.505493 33.3189 0.505493C29.6521 0.505493 26.6796 3.4128 26.6796 6.99915C26.6796 10.5855 29.6521 13.4928 33.3189 13.4928Z" fill="#4420D8"/>
<path d="M33.319 12.9873C36.9857 12.9873 39.9582 10.08 39.9582 6.49366C39.9582 2.90731 36.9857 0 33.319 0C29.6522 0 26.6797 2.90731 26.6797 6.49366C26.6797 10.08 29.6522 12.9873 33.319 12.9873Z" fill="#FFBE44"/>
<path opacity="0.32" d="M38.3772 2.29416C40.7484 5.01605 40.3927 9.09889 37.5868 11.4319C34.781 13.765 30.6314 13.415 28.2603 10.6543" fill="#F9DA58"/>
<path d="M33.3192 11.5097C36.1566 11.5097 38.4567 9.26395 38.4567 6.49366C38.4567 3.72336 36.1566 1.4776 33.3192 1.4776C30.4818 1.4776 28.1816 3.72336 28.1816 6.49366C28.1816 9.26395 30.4818 11.5097 33.3192 11.5097Z" stroke="#EFD770" stroke-width="1.6852" stroke-miterlimit="10"/>
<path d="M18.6571 18.6255C20.7087 18.6255 22.3719 17.0065 22.3719 15.0093C22.3719 13.0121 20.7087 11.3931 18.6571 11.3931C16.6054 11.3931 14.9423 13.0121 14.9423 15.0093C14.9423 17.0065 16.6054 18.6255 18.6571 18.6255Z" fill="#4420D8"/>
<path d="M18.6571 18.3145C20.7088 18.3145 22.372 16.6954 22.372 14.6982C22.372 12.701 20.7088 11.082 18.6571 11.082C16.6055 11.082 14.9423 12.701 14.9423 14.6982C14.9423 16.6954 16.6055 18.3145 18.6571 18.3145Z" fill="#FFBE44"/>
<path opacity="0.32" d="M21.4627 12.3652C22.8064 13.8817 22.6088 16.1758 21.028 17.4979C19.4472 18.8199 17.1156 18.5866 15.8115 17.0702" fill="#F9DA58"/>
<path d="M18.6568 17.4979C20.2501 17.4979 21.5418 16.2444 21.5418 14.6982C21.5418 13.152 20.2501 11.8986 18.6568 11.8986C17.0635 11.8986 15.7719 13.152 15.7719 14.6982C15.7719 16.2444 17.0635 17.4979 18.6568 17.4979Z" stroke="#EFD770" stroke-width="0.9442" stroke-miterlimit="10"/>
<path d="M47.9808 18.6255C50.0325 18.6255 51.6956 17.0065 51.6956 15.0093C51.6956 13.0121 50.0325 11.3931 47.9808 11.3931C45.9292 11.3931 44.266 13.0121 44.266 15.0093C44.266 17.0065 45.9292 18.6255 47.9808 18.6255Z" fill="#4420D8"/>
<path d="M47.9809 18.3145C50.0325 18.3145 51.6957 16.6954 51.6957 14.6982C51.6957 12.701 50.0325 11.082 47.9809 11.082C45.9292 11.082 44.2661 12.701 44.2661 14.6982C44.2661 16.6954 45.9292 18.3145 47.9809 18.3145Z" fill="#FFBE44"/>
<path opacity="0.32" d="M50.826 12.3652C52.1697 13.8817 51.9721 16.1758 50.3913 17.4979C48.8105 18.8199 46.4789 18.5866 45.1747 17.0702" fill="#F9DA58"/>
<path d="M47.9811 17.4979C49.5744 17.4979 50.866 16.2444 50.866 14.6982C50.866 13.152 49.5744 11.8986 47.9811 11.8986C46.3878 11.8986 45.0961 13.152 45.0961 14.6982C45.0961 16.2444 46.3878 17.4979 47.9811 17.4979Z" stroke="#EFD770" stroke-width="0.9442" stroke-miterlimit="10"/>
<defs>
<linearGradient id="paint0_linear_8747_125859" x1="53.6635" y1="20.4998" x2="63.3776" y2="20.4998" gradientUnits="userSpaceOnUse">
<stop offset="0.0493" stop-color="#FDFF00" stop-opacity="0"/>
<stop offset="0.1442" stop-color="#FEE50E" stop-opacity="0.0998"/>
<stop offset="0.2718" stop-color="#FECA1D" stop-opacity="0.234"/>
<stop offset="0.41" stop-color="#FEB428" stop-opacity="0.3794"/>
<stop offset="0.5623" stop-color="#FFA531" stop-opacity="0.5395"/>
<stop offset="0.7394" stop-color="#FF9C36" stop-opacity="0.7258"/>
<stop offset="1" stop-color="#FF9937"/>
</linearGradient>
<linearGradient id="paint1_linear_8747_125859" x1="48.4907" y1="63.6787" x2="67.2822" y2="63.6787" gradientUnits="userSpaceOnUse">
<stop offset="0.0493" stop-color="#FDFF00" stop-opacity="0"/>
<stop offset="0.1442" stop-color="#FEE50E" stop-opacity="0.0998"/>
<stop offset="0.2718" stop-color="#FECA1D" stop-opacity="0.234"/>
<stop offset="0.41" stop-color="#FEB428" stop-opacity="0.3794"/>
<stop offset="0.5623" stop-color="#FFA531" stop-opacity="0.5395"/>
<stop offset="0.7394" stop-color="#FF9C36" stop-opacity="0.7258"/>
<stop offset="1" stop-color="#FF9937"/>
</linearGradient>
<linearGradient id="paint2_linear_8747_125859" x1="57.6275" y1="61.7539" x2="76.004" y2="61.7539" gradientUnits="userSpaceOnUse">
<stop offset="0.3101" stop-color="#D4007C"/>
<stop offset="1" stop-color="#FF00A4"/>
</linearGradient>
<linearGradient id="paint3_linear_8747_125859" x1="57.6275" y1="61.7539" x2="76.004" y2="61.7539" gradientUnits="userSpaceOnUse">
<stop offset="0.3101" stop-color="#D4007C"/>
<stop offset="0.4167" stop-color="#E4008B" stop-opacity="0.9845"/>
<stop offset="0.5668" stop-color="#F30099" stop-opacity="0.9628"/>
<stop offset="0.7418" stop-color="#FC00A1" stop-opacity="0.9374"/>
<stop offset="0.9995" stop-color="#FF00A4" stop-opacity="0.9"/>
</linearGradient>
</defs>
</svg>
