<svg width="140" height="140" viewBox="0 0 140 140" fill="none" xmlns="http://www.w3.org/2000/svg">
<path d="M71.5332 140C109.346 140 140 109.346 140 71.5332C140 33.72 109.346 3.06641 71.5332 3.06641C33.72 3.06641 3.06641 33.72 3.06641 71.5332C3.06641 109.346 33.72 140 71.5332 140Z" fill="#080345"/>
<path d="M68.4668 136.934C106.28 136.934 136.934 106.28 136.934 68.4668C136.934 30.6536 106.28 0 68.4668 0C30.6536 0 0 30.6536 0 68.4668C0 106.28 30.6536 136.934 68.4668 136.934Z" fill="#7360FC"/>
<path opacity="0.3" d="M132.503 44.2417L17.2336 113.904C36.4835 135.615 68.2598 143.442 96.2031 131.054C129.612 116.25 145.305 77.9883 132.503 44.2417Z" fill="#17144F"/>
<path d="M56.4614 82.2582C67.0674 82.2582 75.6652 73.6604 75.6652 63.0544C75.6652 52.4484 67.0674 43.8506 56.4614 43.8506C45.8554 43.8506 37.2576 52.4484 37.2576 63.0544C37.2576 73.6604 45.8554 82.2582 56.4614 82.2582Z" fill="#373382"/>
<path d="M85.7079 99.1316H51.2254C40.3777 99.1316 31.5002 108.009 31.5002 118.857V126.109C42.1639 132.962 54.8438 136.934 68.459 136.934C82.0741 136.934 94.7617 132.962 105.418 126.109V118.857C105.425 108.009 96.5479 99.1316 85.7079 99.1316Z" fill="white"/>
<path d="M49.3243 99.2312C39.3582 100.197 31.5081 108.653 31.5081 118.857V126.109C42.1717 132.962 54.8516 136.934 68.4668 136.934C68.5358 136.934 68.6048 136.926 68.6738 136.926C62.3568 124.315 55.9555 111.719 49.3243 99.2312Z" fill="#00C7BA"/>
<path d="M91.611 100.044C85.6238 112.279 79.5368 124.392 73.9558 136.703C85.4858 135.791 96.2108 132.019 105.426 126.101V118.849C105.426 110.063 99.5916 102.566 91.611 100.044Z" fill="#00C7BA"/>
<path d="M51.2254 99.1316C40.3777 99.1316 31.5002 108.009 31.5002 118.857C31.5002 118.857 35.1953 125.427 37.9322 129.766C47.1239 134.35 57.4886 136.934 68.459 136.934C82.0741 136.934 94.7617 132.962 105.418 126.109L51.2254 99.1316Z" fill="#FFBE44"/>
<path d="M31.5081 118.857C31.5081 118.857 35.2032 125.427 37.94 129.766C42.4094 131.996 47.1548 133.744 52.1148 134.963C45.1999 127.696 38.6299 120.152 32.7576 111.995C31.9527 114.134 31.5081 116.442 31.5081 118.857Z" fill="#FF2475"/>
<path opacity="0.25" d="M56.2239 119.033C63.3994 124.415 69.6474 130.724 76.0486 136.512C78.0189 136.297 79.9661 135.991 81.8903 135.607C73.1662 130.026 65.0017 123.909 56.2239 119.033Z" fill="#373382"/>
<path d="M51.2254 99.1316C49.5542 99.1316 47.9366 99.3463 46.3804 99.7372C52.498 102.85 58.079 107.051 64.6566 110.593C75.7955 116.672 86.2676 123.748 96.9542 130.732C99.8904 129.382 102.727 127.834 105.418 126.101L51.2254 99.1316Z" fill="#FF2475"/>
<path d="M91.151 30.6112C85.1943 25.9424 77.2062 23.0676 68.459 23.0676C58.8533 23.0676 50.1675 26.5251 44.0805 32.0371C35.9774 39.366 34.7968 50.3746 40.7227 59.0451L47.722 69.2718H62.3031C64.8866 76.823 72.0391 82.2583 80.472 82.2583C91.0743 82.2583 99.6758 73.6645 99.6758 63.0545C99.6758 60.2563 99.0701 57.6038 97.9969 55.212C101.677 46.7102 99.2465 36.9588 91.151 30.6112Z" fill="#373382"/>
<path d="M69.8006 103.317H67.1404C61.2835 103.317 56.4998 103.54 56.4998 99.1315V86.4286C56.4998 82.8408 59.4359 79.9124 63.016 79.9124H73.925C77.5128 79.9124 80.4413 82.8485 80.4413 86.4286V99.1315C80.4413 103.54 75.6499 103.317 69.8006 103.317Z" fill="white"/>
<path opacity="0.3" d="M56.4922 92.5232V86.4286C56.4922 82.8408 59.4283 79.9124 63.0085 79.9124H73.9174C77.5052 79.9124 80.4337 82.8485 80.4337 86.4286V96.8776L56.4922 92.5232Z" fill="#7360FC"/>
<path d="M68.4669 89.4261C56.4156 89.4261 46.5569 79.5673 46.5569 67.5161V45.4758C46.5569 33.4245 56.4156 29.3154 68.4669 29.3154C80.5181 29.3154 90.3768 33.4245 90.3768 45.4758V67.5161C90.3768 79.5673 80.5181 89.4261 68.4669 89.4261Z" fill="white"/>
<path d="M87.3026 69.9617L82.6722 74.7301L78.2489 70.0614C77.2829 69.0418 75.9413 68.4668 74.5384 68.4668H68.7734H68.3365H62.6175C61.1839 68.4668 59.8193 69.0648 58.8534 70.1227L54.131 75.259L49.6463 70.9813H45.4912L56.4462 116.603C57.4505 119.501 60.4173 121.471 63.7751 121.471H71.035C74.2471 121.471 77.1219 119.662 78.2335 116.94L92.1093 69.9617H87.3026ZM76.1943 81.392C75.144 82.2583 73.5495 81.829 73.0895 80.5487L71.8322 77.0759H65.4616L63.7597 80.8247C63.2231 82.0053 61.7052 82.3579 60.7086 81.5223L56.4845 77.4899L62.2802 71.9243H68.4515H68.6584H74.8297L80.3724 77.0836L76.1943 81.392Z" fill="#373382"/>
</svg>
