<svg width="140" height="140" viewBox="0 0 140 140" fill="none" xmlns="http://www.w3.org/2000/svg">
<path d="M71.5332 140C109.346 140 140 109.346 140 71.5332C140 33.72 109.346 3.06641 71.5332 3.06641C33.72 3.06641 3.06641 33.72 3.06641 71.5332C3.06641 109.346 33.72 140 71.5332 140Z" fill="#080345"/>
<path d="M68.4668 136.934C106.28 136.934 136.934 106.28 136.934 68.4668C136.934 30.6536 106.28 0 68.4668 0C30.6536 0 0 30.6536 0 68.4668C0 106.28 30.6536 136.934 68.4668 136.934Z" fill="#7360FC"/>
<path opacity="0.3" d="M132.503 44.2417L17.2336 113.904C36.4835 135.615 68.2598 143.442 96.2031 131.054C129.612 116.25 145.305 77.9883 132.503 44.2417Z" fill="#17144F"/>
<path d="M90.8445 69.0724L95.5975 61.2606C102.336 50.1829 100.619 35.7781 91.1511 26.916C85.1945 21.3427 77.214 17.9236 68.4592 17.9236C58.8535 17.9236 50.1677 22.048 44.0807 28.6179C35.9775 37.3574 34.7893 50.4896 40.7229 60.8236L45.545 69.2257C34.8813 72.2616 27.0618 82.0743 27.0618 93.7192C27.0618 107.787 38.4691 119.194 52.5365 119.194C58.5622 119.194 64.1048 117.093 68.4669 113.59C72.8289 117.093 78.3639 119.194 84.3972 119.194C98.4647 119.194 109.872 107.787 109.872 93.7192C109.864 81.8826 101.792 71.9319 90.8445 69.0724Z" fill="#373382"/>
<path d="M85.7079 99.1316H51.2254C40.3777 99.1316 31.5002 108.009 31.5002 118.857V126.109C42.1639 132.962 54.8438 136.934 68.459 136.934C82.0741 136.934 94.7617 132.962 105.418 126.109V118.857C105.425 108.009 96.5479 99.1316 85.7079 99.1316Z" fill="white"/>
<path d="M51.2254 99.1316C40.3777 99.1316 31.5002 108.009 31.5002 118.857C31.5002 118.857 35.1953 125.427 37.9322 129.766C47.1239 134.35 57.4886 136.934 68.459 136.934C82.0741 136.934 94.7617 132.962 105.418 126.109L51.2254 99.1316Z" fill="#00C7BA"/>
<path d="M31.5081 118.857C31.5081 118.857 35.2032 125.427 37.94 129.766C42.4094 131.996 47.1548 133.744 52.1148 134.963C45.1999 127.696 38.6299 120.152 32.7576 111.995C31.9527 114.134 31.5081 116.442 31.5081 118.857Z" fill="#FFBE44"/>
<path opacity="0.25" d="M56.2239 119.033C63.3994 124.415 69.6474 130.724 76.0486 136.512C78.0189 136.297 79.9661 135.991 81.8903 135.607C73.1662 130.026 65.0017 123.909 56.2239 119.033Z" fill="#373382"/>
<path d="M51.2254 99.1316C49.5542 99.1316 47.9366 99.3463 46.3804 99.7372C52.498 102.85 58.079 107.051 64.6566 110.593C75.7955 116.672 86.2676 123.748 96.9542 130.732C99.8904 129.382 102.727 127.834 105.418 126.101L51.2254 99.1316Z" fill="#FFBE44"/>
<path d="M56.4922 100.481V86.4286C56.4922 82.8408 59.4283 79.9124 63.0085 79.9124H73.9174C77.5052 79.9124 80.4337 82.8485 80.4337 86.4286V100.481H56.4922Z" fill="white"/>
<path opacity="0.3" d="M56.4922 92.5232V86.4286C56.4922 82.8408 59.4283 79.9124 63.0085 79.9124H73.9174C77.5052 79.9124 80.4337 82.8485 80.4337 86.4286V96.8776L56.4922 92.5232Z" fill="#7360FC"/>
<path d="M46.5491 67.5161C46.5491 79.5674 56.4078 89.4261 68.4591 89.4261C80.5103 89.4261 90.369 79.5674 90.369 67.5161V45.4758H46.5491V67.5161Z" fill="white"/>
<path d="M90.3767 41.1982H46.5491V45.844H90.3767V41.1982Z" fill="#FFBE44"/>
</svg>
