<svg width="28" height="28" viewBox="0 0 28 28" fill="none" xmlns="http://www.w3.org/2000/svg">
<path d="M11.6539 11.8533C10.8939 11.8533 10.2939 12.52 10.2939 13.3333C10.2939 14.1467 10.9073 14.8133 11.6539 14.8133C12.4139 14.8133 13.0139 14.1467 13.0139 13.3333C13.0273 12.52 12.4139 11.8533 11.6539 11.8533ZM16.5206 11.8533C15.7606 11.8533 15.1606 12.52 15.1606 13.3333C15.1606 14.1467 15.7739 14.8133 16.5206 14.8133C17.2806 14.8133 17.8806 14.1467 17.8806 13.3333C17.8806 12.52 17.2806 11.8533 16.5206 11.8533Z" fill="#7289DA"/>
<path d="M23.0004 0.666656H5.13372C3.62706 0.666656 2.40039 1.89332 2.40039 3.41332V21.44C2.40039 22.96 3.62706 24.1867 5.13372 24.1867H20.2537L19.5471 21.72L21.2537 23.3067L22.8671 24.8L25.7337 27.3333V3.41332C25.7337 1.89332 24.5071 0.666656 23.0004 0.666656ZM17.8537 18.08C17.8537 18.08 17.3737 17.5067 16.9737 17C18.7204 16.5067 19.3871 15.4133 19.3871 15.4133C18.8404 15.7733 18.3204 16.0267 17.8537 16.2C17.1871 16.48 16.5471 16.6667 15.9204 16.7733C14.6404 17.0133 13.4671 16.9467 12.4671 16.76C11.7071 16.6133 11.0537 16.4 10.5071 16.1867C10.2004 16.0667 9.86706 15.92 9.53372 15.7333C9.49372 15.7067 9.45372 15.6933 9.41372 15.6667C9.38706 15.6533 9.37372 15.64 9.36039 15.6267C9.12039 15.4933 8.98706 15.4 8.98706 15.4C8.98706 15.4 9.62706 16.4667 11.3204 16.9733C10.9204 17.48 10.4271 18.08 10.4271 18.08C7.48039 17.9867 6.36039 16.0533 6.36039 16.0533C6.36039 11.76 8.28039 8.27999 8.28039 8.27999C10.2004 6.83999 12.0271 6.87999 12.0271 6.87999L12.1604 7.03999C9.76039 7.73332 8.65372 8.78666 8.65372 8.78666C8.65372 8.78666 8.94706 8.62666 9.44039 8.39999C10.8671 7.77332 12.0004 7.59999 12.4671 7.55999C12.5471 7.54666 12.6137 7.53332 12.6937 7.53332C13.5071 7.42666 14.4271 7.39999 15.3871 7.50666C16.6537 7.65332 18.0137 8.02666 19.4004 8.78666C19.4004 8.78666 18.3471 7.78666 16.0804 7.09332L16.2671 6.87999C16.2671 6.87999 18.0937 6.83999 20.0137 8.27999C20.0137 8.27999 21.9337 11.76 21.9337 16.0533C21.9337 16.0533 20.8004 17.9867 17.8537 18.08Z" fill="#7289DA"/>
</svg>
