<svg width="244" height="200" viewBox="0 0 244 200" fill="none" xmlns="http://www.w3.org/2000/svg">
<path opacity="0.5" d="M208.105 118.347H41.8013C36.3873 118.347 32.0037 113.962 32.0037 108.559V93.2314C32.0037 87.8227 36.3929 83.4434 41.8013 83.4434H208.105C213.519 83.4434 217.902 87.8284 217.902 93.2314V108.559C217.902 113.962 213.519 118.347 208.105 118.347Z" fill="#7360FC"/>
<path d="M171.225 108.417C167.4 108.417 164.291 105.306 164.291 101.49C164.291 97.6733 167.405 94.5623 171.225 94.5623C175.045 94.5623 178.159 97.6733 178.159 101.49C178.159 105.306 175.051 108.417 171.225 108.417ZM171.225 95.6941C168.026 95.6941 165.43 98.2932 165.43 101.484C165.43 104.674 168.032 107.274 171.225 107.274C174.419 107.274 177.021 104.674 177.021 101.484C177.021 98.2932 174.425 95.6941 171.225 95.6941Z" fill="white"/>
<path d="M53.2327 107.848C56.7478 107.848 59.5974 105.001 59.5974 101.49C59.5974 97.9779 56.7478 95.1311 53.2327 95.1311C49.7175 95.1311 46.8679 97.9779 46.8679 101.49C46.8679 105.001 49.7175 107.848 53.2327 107.848Z" fill="#FF2475"/>
<path d="M189.375 107.848C192.89 107.848 195.739 105.001 195.739 101.49C195.739 97.9779 192.89 95.1311 189.375 95.1311C185.859 95.1311 183.01 97.9779 183.01 101.49C183.01 105.001 185.859 107.848 189.375 107.848Z" fill="white"/>
<path d="M90.8123 98.4013H73.1869C72.2817 98.4013 71.553 97.6676 71.553 96.769C71.553 95.8647 72.2874 95.1367 73.1869 95.1367H90.8123C91.7175 95.1367 92.4462 95.8704 92.4462 96.769C92.4519 97.6676 91.7175 98.4013 90.8123 98.4013Z" fill="#7360FC"/>
<path opacity="0.5" d="M102.09 103.389H73.1869C72.2817 103.389 71.553 102.655 71.553 101.757C71.553 100.853 72.2874 100.125 73.1869 100.125H102.09C102.995 100.125 103.724 100.858 103.724 101.757C103.724 102.661 102.99 103.389 102.09 103.389Z" fill="#7360FC"/>
<path opacity="0.5" d="M96.9323 108.366H73.1869C72.2817 108.366 71.553 107.632 71.553 106.733C71.553 105.829 72.2874 105.101 73.1869 105.101H96.9323C97.8374 105.101 98.5661 105.835 98.5661 106.733C98.5661 107.632 97.8374 108.366 96.9323 108.366Z" fill="#7360FC"/>
<path d="M138.856 98.4013H121.23C120.325 98.4013 119.596 97.6676 119.596 96.769C119.596 95.8647 120.331 95.1367 121.23 95.1367H138.856C139.761 95.1367 140.489 95.8704 140.489 96.769C140.495 97.6676 139.761 98.4013 138.856 98.4013Z" fill="#7360FC"/>
<path opacity="0.5" d="M150.133 103.389H121.23C120.325 103.389 119.596 102.655 119.596 101.757C119.596 100.853 120.331 100.125 121.23 100.125H150.133C151.039 100.125 151.767 100.858 151.767 101.757C151.767 102.661 151.039 103.389 150.133 103.389Z" fill="#7360FC"/>
<path opacity="0.5" d="M144.976 108.366H121.23C120.325 108.366 119.596 107.632 119.596 106.733C119.596 105.829 120.331 105.101 121.23 105.101H144.976C145.881 105.101 146.609 105.835 146.609 106.733C146.609 107.632 145.881 108.366 144.976 108.366Z" fill="#7360FC"/>
<path d="M183.955 164H17.6516C11.7764 164 7 159.228 7 153.359V138.031C7 132.162 11.7764 127.39 17.6516 127.39H183.955C189.83 127.39 194.606 132.162 194.606 138.031V153.359C194.606 159.228 189.83 164 183.955 164ZM17.6516 129.096C12.7214 129.096 8.70789 133.106 8.70789 138.031V153.359C8.70789 158.284 12.7214 162.294 17.6516 162.294H183.955C188.885 162.294 192.898 158.284 192.898 153.359V138.031C192.898 133.106 188.885 129.096 183.955 129.096H17.6516Z" fill="#7360FC"/>
<path d="M147.076 153.507C143.096 153.507 139.857 150.271 139.857 146.295C139.857 142.32 143.096 139.083 147.076 139.083C151.055 139.083 154.294 142.32 154.294 146.295C154.294 150.271 151.061 153.507 147.076 153.507ZM147.076 140.784C144.036 140.784 141.565 143.252 141.565 146.289C141.565 149.327 144.036 151.795 147.076 151.795C150.116 151.795 152.586 149.327 152.586 146.289C152.586 143.252 150.116 140.784 147.076 140.784Z" fill="#7360FC"/>
<path d="M29.0776 152.648C32.5928 152.648 35.4424 149.801 35.4424 146.289C35.4424 142.778 32.5928 139.931 29.0776 139.931C25.5625 139.931 22.7129 142.778 22.7129 146.289C22.7129 149.801 25.5625 152.648 29.0776 152.648Z" fill="#373382"/>
<path opacity="0.5" d="M165.225 152.648C168.74 152.648 171.59 149.801 171.59 146.289C171.59 142.778 168.74 139.931 165.225 139.931C161.71 139.931 158.86 142.778 158.86 146.289C158.86 149.801 161.71 152.648 165.225 152.648Z" fill="#7360FC"/>
<path d="M68.1995 143.065H50.5741C49.6689 143.065 48.9402 142.331 48.9402 141.432C48.9402 140.528 49.6746 139.8 50.5741 139.8H68.1995C69.1047 139.8 69.8334 140.534 69.8334 141.432C69.8334 142.331 69.1047 143.065 68.1995 143.065Z" fill="#7360FC"/>
<path opacity="0.5" d="M79.4716 148.052H50.5741C49.6689 148.052 48.9402 147.319 48.9402 146.42C48.9402 145.516 49.6746 144.788 50.5741 144.788H79.4773C80.3825 144.788 81.1112 145.522 81.1112 146.42C81.1112 147.324 80.3768 148.052 79.4716 148.052Z" fill="#7360FC"/>
<path opacity="0.5" d="M74.3138 153.029H50.5741C49.6689 153.029 48.9402 152.295 48.9402 151.397C48.9402 150.492 49.6746 149.764 50.5741 149.764H74.3195C75.2247 149.764 75.9534 150.498 75.9534 151.397C75.9534 152.295 75.219 153.029 74.3138 153.029Z" fill="#7360FC"/>
<path d="M116.242 143.065H98.6168C97.7116 143.065 96.9829 142.331 96.9829 141.432C96.9829 140.528 97.7173 139.8 98.6168 139.8H116.242C117.147 139.8 117.876 140.534 117.876 141.432C117.876 142.331 117.147 143.065 116.242 143.065Z" fill="#7360FC"/>
<path opacity="0.5" d="M127.515 148.052H98.6114C97.7062 148.052 96.9775 147.319 96.9775 146.42C96.9775 145.516 97.7119 144.788 98.6114 144.788H127.515C128.42 144.788 129.149 145.522 129.149 146.42C129.154 147.324 128.42 148.052 127.515 148.052Z" fill="#7360FC"/>
<path opacity="0.5" d="M122.357 153.029H98.6114C97.7062 153.029 96.9775 152.295 96.9775 151.397C96.9775 150.492 97.7119 149.764 98.6114 149.764H122.357C123.262 149.764 123.991 150.498 123.991 151.397C123.996 152.295 123.262 153.029 122.357 153.029Z" fill="#7360FC"/>
<path d="M225.348 73.6099H86.5764C80.7012 73.6099 75.9248 68.8382 75.9248 62.9687V47.6412C75.9248 41.7717 80.7069 37 86.5764 37H225.348C231.224 37 236 41.7717 236 47.6412V62.9687C236 68.8382 231.224 73.6099 225.348 73.6099ZM86.5764 38.7062C81.6462 38.7062 77.6327 42.7159 77.6327 47.6412V62.9687C77.6327 67.894 81.6462 71.9037 86.5764 71.9037H225.348C230.279 71.9037 234.292 67.894 234.292 62.9687V47.6412C234.292 42.7159 230.279 38.7062 225.348 38.7062H86.5764Z" fill="#00C7BA"/>
<path d="M53.2327 73.5361C62.3664 73.5361 69.7708 66.1389 69.7708 57.0141C69.7708 47.8893 62.3664 40.4922 53.2327 40.4922C44.0989 40.4922 36.6946 47.8893 36.6946 57.0141C36.6946 66.1389 44.0989 73.5361 53.2327 73.5361Z" fill="#080345"/>
<path d="M52.094 71.8298C61.2277 71.8298 68.6321 64.4327 68.6321 55.3078C68.6321 46.183 61.2277 38.7859 52.094 38.7859C42.9603 38.7859 35.5559 46.183 35.5559 55.3078C35.5559 64.4327 42.9603 71.8298 52.094 71.8298Z" fill="#00C7BA"/>
<path d="M48.5647 63.6115L44.2949 59.1753L45.9345 57.5999L48.6045 60.3753L60.1442 49.0005L61.7439 50.6214L48.5647 63.6115Z" fill="white"/>
<path d="M188.475 62.8323C184.649 62.8323 181.541 59.7213 181.541 55.9051C181.541 52.0888 184.655 48.9778 188.475 48.9778C192.301 48.9778 195.409 52.0888 195.409 55.9051C195.409 59.7213 192.295 62.8323 188.475 62.8323ZM188.475 50.1096C185.276 50.1096 182.68 52.7087 182.68 55.8994C182.68 59.09 185.281 61.6892 188.475 61.6892C191.669 61.6892 194.271 59.09 194.271 55.8994C194.271 52.7087 191.669 50.1096 188.475 50.1096Z" fill="white"/>
<path d="M206.619 62.8323C202.793 62.8323 199.685 59.7213 199.685 55.9051C199.685 52.0888 202.799 48.9778 206.619 48.9778C210.439 48.9778 213.553 52.0888 213.553 55.9051C213.553 59.7213 210.444 62.8323 206.619 62.8323ZM206.619 50.1096C203.419 50.1096 200.823 52.7087 200.823 55.8994C200.823 59.09 203.425 61.6892 206.619 61.6892C209.812 61.6892 212.414 59.09 212.414 55.8994C212.414 52.7087 209.818 50.1096 206.619 50.1096Z" fill="white"/>
<path d="M109.2 52.5551H91.5748C90.6696 52.5551 89.9409 51.8214 89.9409 50.9228C89.9409 50.0185 90.6753 49.2905 91.5748 49.2905H109.2C110.105 49.2905 110.834 50.0242 110.834 50.9228C110.834 51.8214 110.1 52.5551 109.2 52.5551Z" fill="white"/>
<path opacity="0.5" d="M120.473 57.5429H91.5694C90.6643 57.5429 89.9355 56.8092 89.9355 55.9106C89.9355 55.0063 90.6699 54.2783 91.5694 54.2783H120.473C121.378 54.2783 122.107 55.012 122.107 55.9106C122.112 56.8149 121.378 57.5429 120.473 57.5429Z" fill="white"/>
<path opacity="0.5" d="M115.315 62.5195H91.5694C90.6643 62.5195 89.9355 61.7858 89.9355 60.8872C89.9355 59.9829 90.6699 59.2549 91.5694 59.2549H115.315C116.22 59.2549 116.949 59.9886 116.949 60.8872C116.954 61.7858 116.22 62.5195 115.315 62.5195Z" fill="white"/>
<path d="M157.243 52.5551H139.618C138.712 52.5551 137.984 51.8214 137.984 50.9228C137.984 50.0185 138.718 49.2905 139.618 49.2905H157.243C158.148 49.2905 158.877 50.0242 158.877 50.9228C158.877 51.8214 158.142 52.5551 157.243 52.5551Z" fill="white"/>
<path opacity="0.5" d="M168.515 57.5429H139.612C138.707 57.5429 137.978 56.8092 137.978 55.9106C137.978 55.0063 138.713 54.2783 139.612 54.2783H168.515C169.421 54.2783 170.149 55.012 170.149 55.9106C170.155 56.8149 169.421 57.5429 168.515 57.5429Z" fill="white"/>
<path opacity="0.5" d="M163.358 62.5195H139.612C138.707 62.5195 137.978 61.7858 137.978 60.8872C137.978 59.9829 138.713 59.2549 139.612 59.2549H163.358C164.263 59.2549 164.991 59.9886 164.991 60.8872C164.997 61.7858 164.263 62.5195 163.358 62.5195Z" fill="white"/>
</svg>
