<svg width="244" height="200" viewBox="0 0 244 200" fill="none" xmlns="http://www.w3.org/2000/svg">
<path d="M188.033 151.426H53.4209C43.8998 151.426 36.1792 143.728 36.1792 134.235L36.0779 39.0759C36.066 30.1532 43.3215 22.9128 52.2703 22.9128H188.975C197.912 22.9128 205.162 30.1294 205.168 39.0402L205.269 134.241C205.275 143.734 197.554 151.426 188.033 151.426Z" fill="#080345"/>
<path d="M186.245 149.643H51.6323C42.1113 149.643 34.3907 141.945 34.3907 132.452L34.2893 37.2924C34.2774 28.3698 41.533 21.1294 50.4817 21.1294H187.187C196.124 21.1294 203.373 28.346 203.379 37.2568L203.481 132.458C203.486 141.951 195.766 149.643 186.245 149.643Z" fill="#080345"/>
<path opacity="0.5" d="M186.245 149.643H51.6323C42.1113 149.643 34.3907 141.945 34.3907 132.452L34.2893 37.2924C34.2774 28.3698 41.533 21.1294 50.4817 21.1294H187.187C196.124 21.1294 203.373 28.346 203.379 37.2568L203.481 132.458C203.486 141.951 195.766 149.643 186.245 149.643Z" fill="#7360FC"/>
<path d="M179.991 117.751H61.7854V48.7651H63.9853V115.557H179.991V117.751Z" fill="#00C7BA"/>
<path d="M72.4333 120.949H67.2107V123.333H72.4333V120.949Z" fill="#00C7BA"/>
<path d="M119.889 120.949H114.667V123.333H119.889V120.949Z" fill="#00C7BA"/>
<path d="M167.352 120.949H162.129V123.333H167.352V120.949Z" fill="#00C7BA"/>
<path d="M117.499 68.2275H117.058V68.6674H117.499V68.2275Z" fill="#FBBD37"/>
<path d="M117.499 114.232H117.058V113.358H117.499V114.232ZM117.499 112.484H117.058V111.61H117.499V112.484ZM117.499 110.73H117.058V109.857H117.499V110.73ZM117.499 108.977H117.058V108.103H117.499V108.977ZM117.499 107.223H117.058V106.349H117.499V107.223ZM117.499 105.47H117.058V104.596H117.499V105.47ZM117.499 103.716H117.058V102.842H117.499V103.716ZM117.499 101.968H117.058V101.094H117.499V101.968ZM117.499 100.215H117.058V99.3408H117.499V100.215ZM117.499 98.461H117.058V97.5872H117.499V98.461ZM117.499 96.7074H117.058V95.8336H117.499V96.7074ZM117.499 94.9538H117.058V94.08H117.499V94.9538ZM117.499 93.2061H117.058V92.3323H117.499V93.2061ZM117.499 91.4525H117.058V90.5787H117.499V91.4525ZM117.499 89.6989H117.058V88.825H117.499V89.6989ZM117.499 87.9453H117.058V87.0714H117.499V87.9453ZM117.499 86.1916H117.058V85.3178H117.499V86.1916ZM117.499 84.444H117.058V83.5701H117.499V84.444ZM117.499 82.6903H117.058V81.8165H117.499V82.6903ZM117.499 80.9367H117.058V80.0629H117.499V80.9367ZM117.499 79.1831H117.058V78.3093H117.499V79.1831ZM117.499 77.4295H117.058V76.5557H117.499V77.4295ZM117.499 75.6759H117.058V74.802H117.499V75.6759ZM117.499 73.9282H117.058V73.0544H117.499V73.9282ZM117.499 72.1746H117.058V71.3007H117.499V72.1746ZM117.499 70.421H117.058V69.5471H117.499V70.421Z" fill="#FBBD37"/>
<path d="M117.499 115.112H117.058V115.551H117.499V115.112Z" fill="#FBBD37"/>
<path d="M92.0774 84.4143H91.6362V84.8542H92.0774V84.4143Z" fill="white"/>
<path d="M92.0774 114.244H91.6362V113.376H92.0774V114.244ZM92.0774 112.52H91.6362V111.658H92.0774V112.52ZM92.0774 110.79H91.6362V109.928H92.0774V110.79ZM92.0774 109.06H91.6362V108.198H92.0774V109.06ZM92.0774 107.33H91.6362V106.468H92.0774V107.33ZM92.0774 105.6H91.6362V104.739H92.0774V105.6ZM92.0774 103.871H91.6362V103.009H92.0774V103.871ZM92.0774 102.141H91.6362V101.279H92.0774V102.141ZM92.0774 100.411H91.6362V99.549H92.0774V100.411ZM92.0774 98.6871H91.6362V97.8251H92.0774V98.6871ZM92.0774 96.9572H91.6362V96.0953H92.0774V96.9572ZM92.0774 95.2274H91.6362V94.3595H92.0774V95.2274ZM92.0774 93.4975H91.6362V92.6356H92.0774V93.4975ZM92.0774 91.7677H91.6362V90.8998H92.0774V91.7677ZM92.0774 90.0379H91.6362V89.1759H92.0774V90.0379ZM92.0774 88.308H91.6362V87.4401H92.0774V88.308ZM92.0774 86.5841H91.6362V85.7222H92.0774V86.5841Z" fill="white"/>
<path d="M92.0774 115.112H91.6362V115.551H92.0774V115.112Z" fill="white"/>
<path d="M155.762 59.2156H155.321V59.6555H155.762V59.2156Z" fill="white"/>
<path d="M155.762 114.232H155.321V113.352H155.762V114.232ZM155.762 112.472H155.321V111.592H155.762V112.472ZM155.762 110.707H155.321V109.827H155.762V110.707ZM155.762 108.947H155.321V108.067H155.762V108.947ZM155.762 107.187H155.321V106.308H155.762V107.187ZM155.762 105.428H155.321V104.548H155.762V105.428ZM155.762 103.668H155.321V102.788H155.762V103.668ZM155.762 101.909H155.321V101.029H155.762V101.909ZM155.762 100.149H155.321V99.2693H155.762V100.149ZM155.762 98.3836H155.321V97.5038H155.762V98.3836ZM155.762 96.6241H155.321V95.7443H155.762V96.6241ZM155.762 94.8645H155.321V93.9847H155.762V94.8645ZM155.762 93.1049H155.321V92.2251H155.762V93.1049ZM155.762 91.3454H155.321V90.4656H155.762V91.3454ZM155.762 89.5858H155.321V88.706H155.762V89.5858ZM155.762 87.8203H155.321V86.9405H155.762V87.8203ZM155.762 86.0607H155.321V85.1809H155.762V86.0607ZM155.762 84.3012H155.321V83.4214H155.762V84.3012ZM155.762 82.5416H155.321V81.6618H155.762V82.5416ZM155.762 80.782H155.321V79.9023H155.762V80.782ZM155.762 79.0225H155.321V78.1427H155.762V79.0225ZM155.762 77.2629H155.321V76.3831H155.762V77.2629ZM155.762 75.4974H155.321V74.6176H155.762V75.4974ZM155.762 73.7378H155.321V72.858H155.762V73.7378ZM155.762 71.9783H155.321V71.0985H155.762V71.9783ZM155.762 70.2187H155.321V69.3389H155.762V70.2187ZM155.762 68.4591H155.321V67.5794H155.762V68.4591ZM155.762 66.6996H155.321V65.8198H155.762V66.6996ZM155.762 64.9341H155.321V64.0543H155.762V64.9341ZM155.762 63.1745H155.321V62.2947H155.762V63.1745ZM155.762 61.4149H155.321V60.5352H155.762V61.4149Z" fill="white"/>
<path d="M155.762 115.112H155.321V115.551H155.762V115.112Z" fill="white"/>
<path d="M132.976 88.8487L117.147 69.018L91.6063 85.1631L80.4279 74.6295L69.5058 87.7609L68.5876 87.0059L80.3265 72.8938L91.7494 83.6651L117.409 67.4427L132.97 86.9405L155.869 58.1455L160.943 67.407L176.026 58.6983L176.622 59.7327L160.478 69.0477L155.684 60.2855L132.976 88.8487Z" fill="white"/>
<path d="M69.1246 105.719L68.9756 105.309L91.8452 96.8857L91.9108 96.9036L117.29 103.853L155.548 96.8917L155.589 96.8976L176.366 101.1L176.283 101.528L155.542 97.3375L117.267 104.304L91.8631 97.3435L69.1246 105.719Z" fill="#FF2475"/>
<path d="M117.278 70.8193C118.714 70.8193 119.878 69.6589 119.878 68.2275C119.878 66.7961 118.714 65.6357 117.278 65.6357C115.843 65.6357 114.679 66.7961 114.679 68.2275C114.679 69.6589 115.843 70.8193 117.278 70.8193Z" fill="#FFBE34"/>
<path d="M117.278 71.2592C115.603 71.2592 114.238 69.8979 114.238 68.2275C114.238 66.5571 115.603 65.1958 117.278 65.1958C118.954 65.1958 120.319 66.5571 120.319 68.2275C120.319 69.8979 118.954 71.2592 117.278 71.2592ZM117.278 66.0815C116.092 66.0815 115.12 67.0445 115.12 68.2334C115.12 69.4223 116.086 70.3853 117.278 70.3853C118.465 70.3853 119.437 69.4223 119.437 68.2334C119.437 67.0445 118.471 66.0815 117.278 66.0815Z" fill="white"/>
<path d="M113.791 165.319H22.4193C20.4162 165.319 18.7886 163.696 18.7886 161.698V150.446C18.7886 147.973 20.7977 145.963 23.2838 145.963H112.926C115.406 145.963 117.421 147.967 117.421 150.446V161.698C117.421 163.696 115.794 165.319 113.791 165.319Z" fill="#080345"/>
<path d="M29.7583 190C34.6775 190 38.6653 186.024 38.6653 181.119C38.6653 176.214 34.6775 172.238 29.7583 172.238C24.8391 172.238 20.8513 176.214 20.8513 181.119C20.8513 186.024 24.8391 190 29.7583 190Z" fill="#080345"/>
<path d="M76.1594 180.079H47.2683C45.8136 180.079 44.6272 178.902 44.6272 177.445C44.6272 175.995 45.8076 174.812 47.2683 174.812H76.1654C77.62 174.812 78.8064 175.989 78.8064 177.445C78.8005 178.902 77.62 180.079 76.1594 180.079Z" fill="#080345"/>
<path d="M94.5994 188.11H47.2683C45.8136 188.11 44.6272 186.933 44.6272 185.476C44.6272 184.026 45.8076 182.843 47.2683 182.843H94.5994C96.0541 182.843 97.2405 184.02 97.2405 185.476C97.2345 186.933 96.0541 188.11 94.5994 188.11Z" fill="#080345"/>
<path d="M112.002 163.535H20.6308C18.6276 163.535 17 161.912 17 159.915V148.662C17 146.189 19.0091 144.18 21.4952 144.18H111.138C113.618 144.18 115.633 146.183 115.633 148.662V159.915C115.633 161.912 114.005 163.535 112.002 163.535Z" fill="#7360FC"/>
<path d="M27.9697 188.217C32.8889 188.217 36.8767 184.241 36.8767 179.336C36.8767 174.431 32.8889 170.455 27.9697 170.455C23.0505 170.455 19.0627 174.431 19.0627 179.336C19.0627 184.241 23.0505 188.217 27.9697 188.217Z" fill="#00C7BA"/>
<path d="M74.3708 178.295H45.4797C44.025 178.295 42.8386 177.118 42.8386 175.662C42.8386 174.212 44.0191 173.029 45.4797 173.029H74.3768C75.8315 173.029 77.0179 174.206 77.0179 175.662C77.0119 177.118 75.8315 178.295 74.3708 178.295Z" fill="#080345"/>
<path d="M92.8108 186.326H45.4797C44.025 186.326 42.8386 185.149 42.8386 183.693C42.8386 182.243 44.0191 181.06 45.4797 181.06H92.8108C94.2655 181.06 95.4519 182.237 95.4519 183.693C95.4459 185.149 94.2655 186.326 92.8108 186.326Z" fill="#080345"/>
<path opacity="0.5" d="M74.3708 178.295H45.4797C44.025 178.295 42.8386 177.118 42.8386 175.662C42.8386 174.212 44.0191 173.029 45.4797 173.029H74.3768C75.8315 173.029 77.0179 174.206 77.0179 175.662C77.0119 177.118 75.8315 178.295 74.3708 178.295Z" fill="#7360FC"/>
<path opacity="0.5" d="M92.8108 186.326H45.4797C44.025 186.326 42.8386 185.149 42.8386 183.693C42.8386 182.243 44.0191 181.06 45.4797 181.06H92.8108C94.2655 181.06 95.4519 182.237 95.4519 183.693C95.4459 185.149 94.2655 186.326 92.8108 186.326Z" fill="#7360FC"/>
<path d="M219.846 37.5004H145.025C141.09 37.5004 137.87 34.2903 137.87 30.367V20.5111C137.87 16.5877 141.09 13.3777 145.025 13.3777H219.846C223.781 13.3777 227 16.5877 227 20.5111V30.367C227 34.2903 223.781 37.5004 219.846 37.5004Z" fill="#17144F"/>
<path d="M217.461 35.1227H142.64C138.705 35.1227 135.486 31.9127 135.486 27.9893V18.1334C135.486 14.21 138.705 11 142.64 11H217.461C221.396 11 224.615 14.21 224.615 18.1334V27.9893C224.615 31.9127 221.396 35.1227 217.461 35.1227Z" fill="#00C7BA"/>
</svg>
