<svg width="244" height="200" viewBox="0 0 244 200" fill="none" xmlns="http://www.w3.org/2000/svg">
<path opacity="0.5" d="M198.192 119.16H26.1365C20.5411 119.16 16 114.575 16 108.926V92.9006C16 87.2455 20.5411 82.6667 26.1365 82.6667H198.192C203.794 82.6667 208.329 87.2514 208.329 92.9006V108.926C208.329 114.575 203.788 119.16 198.192 119.16Z" fill="#7360FC"/>
<path d="M73.8211 98.3058H55.5859C54.6494 98.3058 53.8955 97.5387 53.8955 96.5992C53.8955 95.6537 54.6553 94.8926 55.5859 94.8926H73.8211C74.7576 94.8926 75.5115 95.6597 75.5115 96.5992C75.5115 97.5387 74.7576 98.3058 73.8211 98.3058Z" fill="#7360FC"/>
<path opacity="0.5" d="M85.4831 103.521H55.5859C54.6494 103.521 53.8955 102.754 53.8955 101.814C53.8955 100.869 54.6553 100.108 55.5859 100.108H85.489C86.4255 100.108 87.1794 100.875 87.1794 101.814C87.1794 102.76 86.4196 103.521 85.4831 103.521Z" fill="#7360FC"/>
<path opacity="0.5" d="M80.1468 108.724H55.5859C54.6494 108.724 53.8955 107.957 53.8955 107.017C53.8955 106.072 54.6553 105.311 55.5859 105.311H80.1527C81.0892 105.311 81.8431 106.078 81.8431 107.017C81.8431 107.957 81.0833 108.724 80.1468 108.724Z" fill="#7360FC"/>
<path d="M123.526 98.3058H105.291C104.354 98.3058 103.601 97.5387 103.601 96.5992C103.601 95.6537 104.36 94.8926 105.291 94.8926H123.526C124.463 94.8926 125.217 95.6597 125.217 96.5992C125.217 97.5387 124.463 98.3058 123.526 98.3058Z" fill="#7360FC"/>
<path opacity="0.5" d="M135.188 103.521H105.291C104.355 103.521 103.601 102.754 103.601 101.814C103.601 100.869 104.36 100.108 105.291 100.108H135.194C136.131 100.108 136.884 100.875 136.884 101.814C136.884 102.76 136.125 103.521 135.188 103.521Z" fill="#7360FC"/>
<path opacity="0.5" d="M129.858 108.724H105.291C104.355 108.724 103.601 107.957 103.601 107.017C103.601 106.072 104.36 105.311 105.291 105.311H129.858C130.794 105.311 131.548 106.078 131.548 107.017C131.548 107.957 130.788 108.724 129.858 108.724Z" fill="#7360FC"/>
<path d="M160.038 108.778C156.08 108.778 152.864 105.525 152.864 101.535C152.864 97.5447 156.086 94.292 160.038 94.292C163.996 94.292 167.212 97.5447 167.212 101.535C167.212 105.525 163.996 108.778 160.038 108.778ZM160.038 95.4753C156.728 95.4753 154.042 98.1929 154.042 101.529C154.042 104.865 156.733 107.582 160.038 107.582C163.342 107.582 166.034 104.865 166.034 101.529C166.034 98.1929 163.348 95.4753 160.038 95.4753Z" fill="#7360FC"/>
<path d="M37.9575 108.183C41.5942 108.183 44.5424 105.206 44.5424 101.535C44.5424 97.8632 41.5942 94.8867 37.9575 94.8867C34.3207 94.8867 31.3726 97.8632 31.3726 101.535C31.3726 105.206 34.3207 108.183 37.9575 108.183Z" fill="#FF2475"/>
<path d="M178.815 108.183C182.452 108.183 185.4 105.206 185.4 101.535C185.4 97.8632 182.452 94.8867 178.815 94.8867C175.178 94.8867 172.23 97.8632 172.23 101.535C172.23 105.206 175.178 108.183 178.815 108.183Z" fill="#7360FC"/>
<path d="M143.181 166H44.8074C39.2061 166 34.6709 161.415 34.6709 155.766V139.741C34.6709 134.086 39.212 129.507 44.8074 129.507H216.863C222.465 129.507 227 134.092 227 139.741V155.766C227 161.421 222.459 166 216.863 166H143.181Z" fill="#7360FC"/>
<path d="M178.709 155.624C174.751 155.624 171.535 152.371 171.535 148.381C171.535 144.385 174.756 141.138 178.709 141.138C182.667 141.138 185.882 144.391 185.882 148.381C185.882 152.371 182.667 155.624 178.709 155.624ZM178.709 142.322C175.398 142.322 172.713 145.039 172.713 148.375C172.713 151.717 175.404 154.428 178.709 154.428C182.013 154.428 184.704 151.711 184.704 148.375C184.704 145.039 182.019 142.322 178.709 142.322Z" fill="white"/>
<path d="M56.6284 155.023C60.2651 155.023 63.2133 152.047 63.2133 148.375C63.2133 144.703 60.2651 141.727 56.6284 141.727C52.9916 141.727 50.0435 144.703 50.0435 148.375C50.0435 152.047 52.9916 155.023 56.6284 155.023Z" fill="#373382"/>
<path d="M197.48 155.624C193.522 155.624 190.306 152.371 190.306 148.381C190.306 144.385 193.527 141.138 197.48 141.138C201.432 141.138 204.653 144.391 204.653 148.381C204.659 152.371 201.438 155.624 197.48 155.624ZM197.48 142.322C194.169 142.322 191.484 145.039 191.484 148.375C191.484 151.717 194.175 154.428 197.48 154.428C200.784 154.428 203.475 151.711 203.475 148.375C203.481 145.039 200.79 142.322 197.48 142.322Z" fill="white"/>
<path d="M92.8396 145.003H74.6045C73.668 145.003 72.9141 144.236 72.9141 143.297C72.9141 142.351 73.6739 141.59 74.6045 141.59H92.8396C93.7761 141.59 94.53 142.357 94.53 143.297C94.5359 144.236 93.7761 145.003 92.8396 145.003Z" fill="white"/>
<path opacity="0.5" d="M104.508 150.218H74.6045C73.668 150.218 72.9141 149.451 72.9141 148.512C72.9141 147.566 73.6739 146.805 74.6045 146.805H104.508C105.444 146.805 106.198 147.572 106.198 148.512C106.198 149.457 105.438 150.218 104.508 150.218Z" fill="white"/>
<path opacity="0.5" d="M99.1713 155.422H74.6045C73.668 155.422 72.9141 154.654 72.9141 153.715C72.9141 152.769 73.6739 152.008 74.6045 152.008H99.1713C100.108 152.008 100.862 152.775 100.862 153.715C100.862 154.654 100.108 155.422 99.1713 155.422Z" fill="white"/>
<path d="M142.544 145.003H124.309C123.373 145.003 122.619 144.236 122.619 143.297C122.619 142.351 123.379 141.59 124.309 141.59H142.544C143.481 141.59 144.235 142.357 144.235 143.297C144.241 144.236 143.481 145.003 142.544 145.003Z" fill="white"/>
<path opacity="0.5" d="M154.212 150.218H124.309C123.373 150.218 122.619 149.451 122.619 148.512C122.619 147.566 123.379 146.805 124.309 146.805H154.212C155.149 146.805 155.903 147.572 155.903 148.512C155.903 149.457 155.143 150.218 154.212 150.218Z" fill="white"/>
<path opacity="0.5" d="M148.876 155.422H124.309C123.373 155.422 122.619 154.654 122.619 153.715C122.619 152.769 123.379 152.008 124.309 152.008H148.876C149.813 152.008 150.567 152.775 150.567 153.715C150.567 154.654 149.813 155.422 148.876 155.422Z" fill="white"/>
<path d="M216.033 71.4933H72.4605C66.8592 71.4933 62.324 66.9086 62.324 61.2595V45.2338C62.324 39.5847 66.8651 35 72.4605 35H216.033C221.634 35 226.169 39.5847 226.169 45.2338V61.2595C226.169 66.9145 221.634 71.4933 216.033 71.4933Z" fill="#00C7BA"/>
<path d="M37.9576 72.3078C47.4073 72.3078 55.0678 64.5738 55.0678 55.0334C55.0678 45.493 47.4073 37.759 37.9576 37.759C28.5079 37.759 20.8474 45.493 20.8474 55.0334C20.8474 64.5738 28.5079 72.3078 37.9576 72.3078Z" fill="#080345"/>
<path d="M36.7796 70.5239C46.2293 70.5239 53.8898 62.7899 53.8898 53.2495C53.8898 43.7091 46.2293 35.9751 36.7796 35.9751C27.3299 35.9751 19.6694 43.7091 19.6694 53.2495C19.6694 62.7899 27.3299 70.5239 36.7796 70.5239Z" fill="#00C7BA"/>
<path d="M33.1278 61.9314L28.7163 57.2932L30.4126 55.646L33.175 58.5479L45.1138 46.655L46.7689 48.3438L33.1278 61.9314Z" fill="white"/>
<path d="M177.878 61.1169C173.92 61.1169 170.704 57.8642 170.704 53.8741C170.704 49.884 173.926 46.6313 177.878 46.6313C181.83 46.6313 185.052 49.884 185.052 53.8741C185.052 57.8642 181.836 61.1169 177.878 61.1169ZM177.878 47.8147C174.568 47.8147 171.882 50.5322 171.882 53.8682C171.882 57.2041 174.574 59.9216 177.878 59.9216C181.182 59.9216 183.874 57.2041 183.874 53.8682C183.874 50.5322 181.188 47.8147 177.878 47.8147Z" fill="white"/>
<path d="M196.655 61.1169C192.697 61.1169 189.481 57.8642 189.481 53.8741C189.481 49.884 192.703 46.6313 196.655 46.6313C200.613 46.6313 203.829 49.884 203.829 53.8741C203.829 57.8642 200.613 61.1169 196.655 61.1169ZM196.655 47.8147C193.345 47.8147 190.659 50.5322 190.659 53.8682C190.659 57.2041 193.351 59.9216 196.655 59.9216C199.96 59.9216 202.651 57.2041 202.651 53.8682C202.651 50.5322 199.96 47.8147 196.655 47.8147Z" fill="white"/>
<path d="M92.8396 50.3715H74.6045C73.668 50.3715 72.9141 49.6044 72.9141 48.6649C72.9141 47.7194 73.6739 46.9583 74.6045 46.9583H92.8396C93.7761 46.9583 94.53 47.7253 94.53 48.6649C94.5359 49.6044 93.7761 50.3715 92.8396 50.3715Z" fill="white"/>
<path opacity="0.5" d="M104.508 55.5866H74.6045C73.668 55.5866 72.9141 54.8195 72.9141 53.88C72.9141 52.9345 73.6739 52.1733 74.6045 52.1733H104.508C105.444 52.1733 106.198 52.9404 106.198 53.88C106.198 54.8255 105.438 55.5866 104.508 55.5866Z" fill="white"/>
<path opacity="0.5" d="M99.1713 60.7897H74.6045C73.668 60.7897 72.9141 60.0226 72.9141 59.0831C72.9141 58.1376 73.6739 57.3765 74.6045 57.3765H99.1713C100.108 57.3765 100.862 58.1436 100.862 59.0831C100.862 60.0226 100.108 60.7897 99.1713 60.7897Z" fill="white"/>
<path d="M142.545 50.3715H124.31C123.373 50.3715 122.619 49.6044 122.619 48.6649C122.619 47.7194 123.379 46.9583 124.31 46.9583H142.545C143.481 46.9583 144.235 47.7253 144.235 48.6649C144.241 49.6044 143.481 50.3715 142.545 50.3715Z" fill="white"/>
<path opacity="0.5" d="M154.213 55.5866H124.31C123.373 55.5866 122.619 54.8195 122.619 53.88C122.619 52.9345 123.379 52.1733 124.31 52.1733H154.213C155.149 52.1733 155.903 52.9404 155.903 53.88C155.903 54.8255 155.143 55.5866 154.213 55.5866Z" fill="white"/>
<path opacity="0.5" d="M148.876 60.7897H124.31C123.373 60.7897 122.619 60.0226 122.619 59.0831C122.619 58.1376 123.379 57.3765 124.31 57.3765H148.876C149.813 57.3765 150.567 58.1436 150.567 59.0831C150.567 60.0226 149.813 60.7897 148.876 60.7897Z" fill="white"/>
</svg>
