<svg width="132" height="132" viewBox="0 0 132 132" fill="none" xmlns="http://www.w3.org/2000/svg">
<g clip-path="url(#clip0)">
<path d="M60.2624 39.4964L60.002 39.2095L60.3246 38.9187L60.585 39.2056L60.2624 39.4964ZM61.0126 38.8257L60.7522 38.5388L61.1798 38.155L61.4402 38.4419L61.0126 38.8257ZM61.864 38.0542L61.6035 37.7673L62.0311 37.3835L62.2916 37.6704L61.864 38.0542ZM62.7192 37.2866L62.4587 36.9997L62.8863 36.6159L63.1467 36.9028L62.7192 37.2866ZM63.5744 36.519L63.3139 36.2321L63.7415 35.8483L64.002 36.1352L63.5744 36.519ZM64.4257 35.7514L64.1652 35.4645L64.5928 35.0807L64.8533 35.3676L64.4257 35.7514ZM65.2809 34.9838L65.0204 34.6969L65.448 34.3131L65.7085 34.6L65.2809 34.9838ZM66.1361 34.2162L65.8756 33.9293L66.3032 33.5455L66.5637 33.8324L66.1361 34.2162ZM66.9874 33.4486L66.7269 33.1617L67.1545 32.7779L67.415 33.0648L66.9874 33.4486ZM67.8426 32.681L67.5821 32.3941L68.0097 32.0103L68.2702 32.2972L67.8426 32.681ZM68.6978 31.9134L68.4373 31.6265L68.8649 31.2427L69.1254 31.5296L68.6978 31.9134ZM69.5491 31.1458L69.2886 30.8589L69.7162 30.4751L69.9767 30.762L69.5491 31.1458Z" fill="#373382"/>
<path d="M100.842 46.7924L100.64 46.4745L100.966 46.2651L101.168 46.583L100.842 46.7924ZM100.333 45.9938L100.025 45.5092L100.352 45.2998L100.659 45.7844L100.333 45.9938ZM99.7184 45.0246L99.4113 44.54L99.7378 44.3306L100.045 44.8152L99.7184 45.0246ZM99.1042 44.0554L98.7971 43.5708L99.1236 43.3614L99.4307 43.846L99.1042 44.0554ZM98.4861 43.0862L98.179 42.6016L98.5055 42.3922L98.8126 42.8768L98.4861 43.0862ZM97.8719 42.1209L97.5648 41.6363L97.8913 41.4269L98.1984 41.9115L97.8719 42.1209ZM97.2577 41.1517L96.9506 40.6671L97.2772 40.4577L97.5843 40.9423L97.2577 41.1517ZM96.6396 40.1825L96.3326 39.6979L96.6591 39.4885L96.9662 39.9731L96.6396 40.1825ZM96.0255 39.2133L95.7184 38.7287L96.0449 38.5193L96.352 39.0039L96.0255 39.2133ZM95.4074 38.2441L95.1003 37.7595L95.4268 37.5501L95.7339 38.0347L95.4074 38.2441ZM94.7932 37.2749L94.4861 36.7903L94.8126 36.581L95.1197 37.0655L94.7932 37.2749ZM94.179 36.3096L93.8719 35.825L94.1984 35.6156L94.5055 36.1002L94.179 36.3096ZM93.5609 35.3404L93.2538 34.8558L93.5804 34.6464L93.8875 35.131L93.5609 35.3404ZM92.9467 34.3712L92.6396 33.8866L92.9662 33.6772L93.2733 34.1618L92.9467 34.3712Z" fill="#373382"/>
<path d="M76.2392 69.8012L76.1848 69.4174L76.7524 69.336L76.8068 69.7198L76.2392 69.8012ZM77.3743 69.6422L77.3199 69.2584L77.8874 69.177L77.9419 69.5608L77.3743 69.6422ZM78.5133 69.4794L78.4589 69.0956L79.0264 69.0142L79.0808 69.398L78.5133 69.4794ZM79.6523 69.3204L79.5978 68.9366L80.1654 68.8552L80.2198 69.239L79.6523 69.3204ZM80.7912 69.1615L80.7368 68.7777L81.3043 68.6963L81.3588 69.0801L80.7912 69.1615ZM81.9302 68.9987L81.8758 68.6149L82.4433 68.5335L82.4977 68.9173L81.9302 68.9987ZM83.0692 68.8397L83.0147 68.4559L83.5823 68.3745L83.6367 68.7583L83.0692 68.8397ZM84.2081 68.6808L84.1537 68.297L84.7212 68.2156L84.7757 68.5994L84.2081 68.6808ZM85.3471 68.518L85.2927 68.1342L85.8602 68.0527L85.9146 68.4365L85.3471 68.518ZM86.4861 68.359L86.4316 67.9752L86.9992 67.8938L87.0536 68.2776L86.4861 68.359ZM87.625 68.2001L87.5706 67.8163L88.1382 67.7348L88.1926 68.1186L87.625 68.2001ZM88.7601 68.0372L88.7057 67.6534L89.2732 67.572L89.3277 67.9558L88.7601 68.0372Z" fill="#373382"/>
<path d="M83.8621 36.9958C93.611 36.9958 101.514 29.114 101.514 19.3913C101.514 9.66865 93.611 1.78687 83.8621 1.78687C74.1131 1.78687 66.21 9.66865 66.21 19.3913C66.21 29.114 74.1131 36.9958 83.8621 36.9958Z" fill="#080345"/>
<path d="M83.0691 36.2089C92.818 36.2089 100.721 28.3271 100.721 18.6045C100.721 8.88178 92.818 1 83.0691 1C73.3201 1 65.417 8.88178 65.417 18.6045C65.417 28.3271 73.3201 36.2089 83.0691 36.2089Z" fill="#00C7BA"/>
<path opacity="0.3" d="M99.5781 12.3745L69.8638 30.2852C74.8278 35.8678 83.0183 37.8798 90.2214 34.6931C98.8317 30.89 102.878 21.0507 99.5781 12.3745Z" fill="#17144F"/>
<path d="M87.5157 26.4858H78.6256C75.8306 26.4858 73.541 28.7693 73.541 31.5567V33.4214C76.2893 35.1814 79.5585 36.2049 83.0687 36.2049C86.5789 36.2049 89.8481 35.1814 92.5964 33.4214V31.5567C92.6003 28.7693 90.3107 26.4858 87.5157 26.4858Z" fill="#B59FFF"/>
<path d="M90.6802 15.1928C91.6287 13.0063 91.0067 10.5019 88.9193 8.86978C87.3838 7.66798 85.3235 6.9314 83.0689 6.9314C80.5927 6.9314 78.3537 7.81918 76.7832 9.23808C74.9678 10.878 74.5014 13.2312 75.4149 15.282C75.1622 15.8751 75.0223 16.5264 75.0223 17.2126C75.0223 19.938 77.238 22.1477 79.9708 22.1477C81.1447 22.1477 82.2176 21.7407 83.065 21.0584C83.9124 21.7368 84.9892 22.1477 86.1593 22.1477C88.892 22.1477 91.1078 19.938 91.1078 17.2126C91.1156 16.4915 90.9562 15.8092 90.6802 15.1928Z" fill="#373382"/>
<path d="M83.4151 27.5636H82.7271C81.2188 27.5636 79.9827 27.6218 79.9827 26.4859V23.2216C79.9827 22.299 80.7407 21.5469 81.662 21.5469H84.4764C85.4015 21.5469 86.1557 22.3028 86.1557 23.2216V26.4859C86.1595 27.6179 84.9234 27.5636 83.4151 27.5636Z" fill="white"/>
<path opacity="0.3" d="M79.9827 24.7879V23.2216C79.9827 22.299 80.7407 21.5469 81.662 21.5469H84.4764C85.4015 21.5469 86.1557 22.3028 86.1557 23.2216V25.9082L79.9827 24.7879Z" fill="#7360FC"/>
<path d="M83.0691 23.9932C79.9632 23.9932 77.4209 21.4578 77.4209 18.3602V12.6924C77.4209 9.59484 79.9632 9.16064 83.0691 9.16064C86.175 9.16064 88.7173 9.59484 88.7173 12.6924V18.3602C88.7212 21.4578 86.1789 23.9932 83.0691 23.9932Z" fill="#B59FFF"/>
<path d="M85.4754 18.8875C85.3044 18.7053 85.0634 18.6045 84.8107 18.6045H83.1509H83.0381H81.386C81.1295 18.6045 80.8846 18.713 80.7135 18.8991L79.0459 20.7057L79.5979 21.2872L81.4715 19.4923H83.0653H83.1198H84.7135L86.6494 21.2872L87.2014 20.7057L85.4754 18.8875Z" fill="#373382"/>
<path d="M104.344 17.674C104.725 17.674 104.725 17.0808 104.344 17.0808C103.963 17.0847 103.963 17.674 104.344 17.674Z" fill="#373382"/>
<path d="M87.8386 10.2925H78.3342L79.7142 4.03931H86.4547L87.8386 10.2925Z" fill="#FFBE44"/>
<path d="M88.7172 26.6333C88.6394 29.6261 86.1827 32.0336 83.1623 32.0336C80.1263 32.0336 77.6618 29.6067 77.6074 26.5945C75.2983 27.0713 73.5452 29.1221 73.5452 31.5606V33.4254C76.2935 35.1854 79.5627 36.2089 83.0729 36.2089C86.5831 36.2089 89.8523 35.1854 92.6006 33.4254V31.5606C92.6006 29.1803 90.9368 27.176 88.7172 26.6333Z" fill="#FF2475"/>
<path d="M83.1583 32.0296C82.4197 32.0296 81.72 31.8862 81.0747 31.6265C81.2768 33.1345 81.479 34.6426 81.6811 36.1507C82.1398 36.1856 82.6024 36.2049 83.0689 36.2049C83.5315 36.2049 83.9863 36.1856 84.4372 36.1507C84.546 34.631 84.7404 33.1345 85.0514 31.7001C84.4644 31.9133 83.8269 32.0296 83.1583 32.0296Z" fill="#FFBE44"/>
<path d="M77.1526 19.248H78.2216L81.071 21.9579C81.3275 22.1711 81.7201 22.0819 81.8562 21.7796L82.2954 20.8181H83.9359L84.2585 21.7098C84.379 22.0393 84.7911 22.1517 85.0593 21.9269L87.9242 18.9883H89.1681L87.345 31.0644C87.0573 31.7661 86.3188 32.2275 85.4869 32.2275H80.5967C79.7298 32.2275 78.9679 31.7196 78.7075 30.9753L77.1526 19.248Z" fill="#373382"/>
<path d="M108.263 81.6214C118.059 81.6214 126 73.7015 126 63.9317C126 54.1619 118.059 46.2419 108.263 46.2419C98.4663 46.2419 90.5249 54.1619 90.5249 63.9317C90.5249 73.7015 98.4663 81.6214 108.263 81.6214Z" fill="#080345"/>
<path d="M107.466 80.8268C117.262 80.8268 125.203 72.9068 125.203 63.137C125.203 53.3672 117.262 45.4473 107.466 45.4473C97.6694 45.4473 89.728 53.3672 89.728 63.137C89.728 72.9068 97.6694 80.8268 107.466 80.8268Z" fill="#FFBE44"/>
<path opacity="0.3" d="M124.057 56.8799L94.1946 74.8798C99.1819 80.4895 107.415 82.5093 114.653 79.3109C123.306 75.4845 127.372 65.5988 124.057 56.8799Z" fill="#17144F"/>
<path d="M111.932 71.061H102.999C100.189 71.061 97.8914 73.3522 97.8914 76.1551V78.0276C100.655 79.7993 103.94 80.8228 107.466 80.8228C110.991 80.8228 114.28 79.7954 117.04 78.0276V76.1551C117.044 73.3561 114.743 71.061 111.932 71.061Z" fill="#B59FFF"/>
<path d="M102.999 71.061C100.189 71.061 97.8914 73.3522 97.8914 76.1551C97.8914 76.1551 98.8476 77.8531 99.559 78.9735C101.942 80.1598 104.628 80.8266 107.47 80.8266C110.995 80.8266 114.284 79.7993 117.044 78.0315L102.999 71.061Z" fill="#FF2475"/>
<path d="M97.8914 76.1591C97.8914 76.1591 98.8476 77.8571 99.559 78.9775C100.717 79.5552 101.946 80.0049 103.232 80.3189C101.44 78.4425 99.7378 76.4925 98.2179 74.3835C98.008 74.9379 97.8914 75.5349 97.8914 76.1591Z" fill="#FFBE44"/>
<path opacity="0.25" d="M104.294 76.2017C106.152 77.5934 107.773 79.2217 109.429 80.7181C109.942 80.66 110.443 80.5824 110.941 80.4855C108.686 79.0433 106.572 77.4616 104.294 76.2017Z" fill="#373382"/>
<path d="M102.999 71.061C102.568 71.061 102.148 71.1153 101.744 71.2161C103.33 72.0225 104.776 73.108 106.478 74.0229C109.367 75.593 112.08 77.4228 114.848 79.2255C115.61 78.8766 116.34 78.4773 117.04 78.0276L102.999 71.061Z" fill="#FFBE44"/>
<path d="M114.066 61.9818L114.498 61.2762C116.243 58.4152 115.8 54.6934 113.347 52.4023C111.804 50.964 109.736 50.0801 107.47 50.0801C104.982 50.0801 102.731 51.1462 101.153 52.8442C99.0536 55.1044 98.7465 58.4927 100.282 61.1677L100.795 62.0632C99.9204 62.9587 99.3801 64.1761 99.3801 65.5252C99.3801 68.2661 101.608 70.4875 104.356 70.4875C105.534 70.4875 106.614 70.0765 107.466 69.3942C108.317 70.0765 109.398 70.4875 110.575 70.4875C113.324 70.4875 115.551 68.2661 115.551 65.5252C115.551 64.1334 114.984 62.8851 114.066 61.9818Z" fill="#373382"/>
<path d="M107.812 72.1427H107.124C105.607 72.1427 104.367 72.2009 104.367 71.0611V67.7775C104.367 66.8509 105.129 66.0911 106.058 66.0911H108.884C109.813 66.0911 110.575 66.8509 110.575 67.7775V71.0611C110.568 72.2009 109.328 72.1427 107.812 72.1427Z" fill="#B59FFF"/>
<path opacity="0.3" d="M104.364 69.3553V67.7814C104.364 66.8548 105.125 66.095 106.054 66.095H108.881C109.81 66.095 110.571 66.8548 110.571 67.7814V70.4835L104.364 69.3553Z" fill="#7360FC"/>
<path d="M107.465 68.5528C104.344 68.5528 101.79 66.0058 101.79 62.8927V57.1978C101.79 54.0847 104.344 53.0225 107.465 53.0225C110.587 53.0225 113.141 54.0847 113.141 57.1978V62.8927C113.145 66.0058 110.587 68.5528 107.465 68.5528Z" fill="#B59FFF"/>
<path d="M113.747 57.1977H100.674L102.167 52.9798L112.22 52.8208L113.747 57.1977Z" fill="#373382"/>
<path d="M113.145 56.093H101.79V57.2948H113.145V56.093Z" fill="#FF2475"/>
<path d="M42.2721 104.235C61.4459 104.235 76.9893 88.7333 76.9893 69.6113C76.9893 50.4893 61.4459 34.9878 42.2721 34.9878C23.0984 34.9878 7.55493 50.4893 7.55493 69.6113C7.55493 88.7333 23.0984 104.235 42.2721 104.235Z" fill="#080345"/>
<path d="M40.7172 102.684C59.891 102.684 75.4344 87.1826 75.4344 68.0605C75.4344 48.9385 59.891 33.437 40.7172 33.437C21.5434 33.437 6 48.9385 6 68.0605C6 87.1826 21.5434 102.684 40.7172 102.684Z" fill="#7360FC"/>
<path opacity="0.3" d="M73.1875 55.8059L14.7385 91.0381C24.4995 102.017 40.6122 105.975 54.7813 99.7104C71.722 92.2244 79.6792 72.8754 73.1875 55.8059Z" fill="#17144F"/>
<path d="M52.0642 68.3668L54.4743 64.4164C57.8913 58.8145 57.0205 51.53 52.2197 47.0484C49.1993 44.23 45.1488 42.501 40.7134 42.501C35.8427 42.501 31.4384 44.5867 28.3519 47.9091C24.2431 52.3286 23.6444 58.9695 26.6493 64.1954L29.0944 68.4444C23.6833 69.9796 19.7222 74.9419 19.7222 80.8307C19.7222 87.9446 25.5064 93.7132 32.6396 93.7132C35.695 93.7132 38.5055 92.651 40.7173 90.8793C42.9292 92.651 45.7358 93.7132 48.795 93.7132C55.9282 93.7132 61.7124 87.9446 61.7124 80.8307C61.7086 74.8411 57.6153 69.809 52.0642 68.3668Z" fill="#373382"/>
<path d="M49.4598 83.5676H31.9748C26.4744 83.5676 21.9729 88.0569 21.9729 93.5426V97.21C27.3801 100.676 33.8096 102.684 40.7134 102.684C47.6172 102.684 54.0506 100.676 59.4539 97.21V93.5426C59.4578 88.0569 54.9564 83.5676 49.4598 83.5676Z" fill="#B59FFF"/>
<path d="M31.9748 83.5676C26.4744 83.5676 21.9729 88.0569 21.9729 93.5426C21.9729 93.5426 23.8466 96.865 25.2343 99.0593C29.8952 101.378 35.1507 102.684 40.7134 102.684C47.6172 102.684 54.0506 100.676 59.4539 97.21L31.9748 83.5676Z" fill="#FF2475"/>
<path d="M21.9768 93.5425C21.9768 93.5425 23.8505 96.8649 25.2382 99.0591C27.5045 100.187 29.9107 101.071 32.4258 101.688C28.9195 98.0124 25.5881 94.1976 22.6104 90.0728C22.2023 91.1544 21.9768 92.3213 21.9768 93.5425Z" fill="#FFBE44"/>
<path opacity="0.25" d="M34.5093 93.6318C38.1478 96.3533 41.3159 99.5439 44.5618 102.471C45.5608 102.362 46.5481 102.207 47.5239 102.013C43.1001 99.1911 38.9602 96.0975 34.5093 93.6318Z" fill="#373382"/>
<path d="M31.9748 83.5676C31.1274 83.5676 30.3072 83.6762 29.5181 83.8739C32.6201 85.4479 35.45 87.5723 38.7853 89.3634C44.4335 92.4377 49.7435 96.016 55.1624 99.5477C56.6512 98.8654 58.0895 98.0823 59.4539 97.2061L31.9748 83.5676Z" fill="#FFBE44"/>
<path d="M34.645 84.3431V77.1439C34.645 75.3296 36.1338 73.8486 37.9492 73.8486H43.4808C45.3 73.8486 46.785 75.3334 46.785 77.1439V84.3431H34.645Z" fill="#B59FFF"/>
<path opacity="0.3" d="M34.645 80.2259V77.1439C34.645 75.3296 36.1338 73.8486 37.9492 73.8486H43.4808C45.3 73.8486 46.785 75.3334 46.785 77.1439V82.4279L34.645 80.2259Z" fill="#7360FC"/>
<path d="M29.6035 67.5759C29.6035 73.6702 34.6025 78.6558 40.7133 78.6558C46.8241 78.6558 51.8231 73.6702 51.8231 67.5759V56.4302H29.6035V67.5759Z" fill="#B59FFF"/>
<path d="M51.827 54.2708H29.6035V56.6201H51.827V54.2708Z" fill="#FFBE44"/>
<path d="M106.396 114.904H46.8163C45.5102 114.904 44.449 113.845 44.449 112.543V102.281H108.76V112.543C108.76 113.845 107.703 114.904 106.396 114.904Z" fill="#080345"/>
<path d="M51.6015 131C54.809 131 57.4091 128.407 57.4091 125.208C57.4091 122.009 54.809 119.416 51.6015 119.416C48.3941 119.416 45.7939 122.009 45.7939 125.208C45.7939 128.407 48.3941 131 51.6015 131Z" fill="#080345"/>
<path d="M83.5824 121.099H61.3005V124.53H83.5824V121.099Z" fill="#080345"/>
<path d="M95.6018 126.336H61.3005V129.767H95.6018V126.336Z" fill="#080345"/>
<path d="M108.764 96.3804H44.4534V102.281H108.764V96.3804Z" fill="#080345"/>
<path d="M105.23 113.74H45.6501C44.3439 113.74 43.2827 112.682 43.2827 111.38V101.118H107.594V111.38C107.594 112.682 106.536 113.74 105.23 113.74Z" fill="#7360FC"/>
<path d="M50.4353 129.837C53.6427 129.837 56.2428 127.244 56.2428 124.045C56.2428 120.846 53.6427 118.253 50.4353 118.253C47.2278 118.253 44.6277 120.846 44.6277 124.045C44.6277 127.244 47.2278 129.837 50.4353 129.837Z" fill="#00C7BA"/>
<path d="M82.4161 119.936H60.1343V123.367H82.4161V119.936Z" fill="#080345"/>
<path d="M94.4355 125.173H60.1343V128.604H94.4355V125.173Z" fill="#080345"/>
<path opacity="0.5" d="M82.4161 119.936H60.1343V123.367H82.4161V119.936Z" fill="#7360FC"/>
<path opacity="0.5" d="M94.4355 125.173H60.1343V128.604H94.4355V125.173Z" fill="#7360FC"/>
<path d="M107.598 95.2173H43.2871V101.118H107.598V95.2173Z" fill="#00C7BA"/>
</g>
<defs>
<clipPath id="clip0">
<rect width="120" height="130" fill="white" transform="translate(6 1)"/>
</clipPath>
</defs>
</svg>
