<svg width="24" height="24" viewBox="0 0 24 24" fill="none" xmlns="http://www.w3.org/2000/svg">
<path d="M11.9999 0.333344C5.55992 0.333344 0.333252 5.56001 0.333252 12C0.333252 18.44 5.55992 23.6667 11.9999 23.6667C18.4399 23.6667 23.6666 18.44 23.6666 12C23.6666 5.56001 18.4399 0.333344 11.9999 0.333344ZM6.24825 19.3267C6.74992 18.2767 9.80659 17.25 11.9999 17.25C14.1933 17.25 17.2616 18.2767 17.7516 19.3267C16.1649 20.5867 14.1699 21.3333 11.9999 21.3333C9.82992 21.3333 7.83492 20.5867 6.24825 19.3267ZM19.4199 17.635C17.7516 15.605 13.7033 14.9167 11.9999 14.9167C10.2966 14.9167 6.24825 15.605 4.57992 17.635C3.38992 16.0717 2.66659 14.1233 2.66659 12C2.66659 6.85501 6.85492 2.66668 11.9999 2.66668C17.1449 2.66668 21.3333 6.85501 21.3333 12C21.3333 14.1233 20.6099 16.0717 19.4199 17.635ZM11.9999 5.00001C9.73659 5.00001 7.91659 6.82001 7.91659 9.08334C7.91659 11.3467 9.73659 13.1667 11.9999 13.1667C14.2633 13.1667 16.0833 11.3467 16.0833 9.08334C16.0833 6.82001 14.2633 5.00001 11.9999 5.00001ZM11.9999 10.8333C11.0316 10.8333 10.2499 10.0517 10.2499 9.08334C10.2499 8.11501 11.0316 7.33334 11.9999 7.33334C12.9683 7.33334 13.7499 8.11501 13.7499 9.08334C13.7499 10.0517 12.9683 10.8333 11.9999 10.8333Z" fill="#937DFF"/>
</svg>
