<svg width="124" height="124" viewBox="0 0 124 124" fill="none" xmlns="http://www.w3.org/2000/svg">
<path d="M25.3474 47.5151C38.2163 47.5151 48.6485 37.111 48.6485 24.2768C48.6485 11.4427 38.2163 1.03857 25.3474 1.03857C12.4785 1.03857 2.04626 11.4427 2.04626 24.2768C2.04626 37.111 12.4785 47.5151 25.3474 47.5151Z" fill="#080345"/>
<path d="M24.3011 46.4765C37.17 46.4765 47.6023 36.0724 47.6023 23.2383C47.6023 10.4041 37.17 0 24.3011 0C11.4323 0 1 10.4041 1 23.2383C1 36.0724 11.4323 46.4765 24.3011 46.4765Z" fill="#00C7BA"/>
<path opacity="0.3" d="M46.0941 15.0146L6.87061 38.6572C13.4232 46.0263 24.2349 48.6822 33.7431 44.4757C45.1089 39.4555 50.4506 26.4675 46.0941 15.0146Z" fill="#17144F"/>
<path d="M30.1719 33.6421H18.4367C14.7473 33.6421 11.725 36.6563 11.725 40.3357V42.7972C15.3528 45.1205 19.6682 46.4715 24.3017 46.4715C28.9353 46.4715 33.2507 45.1205 36.8785 42.7972V40.3357C36.8836 36.6563 33.8613 33.6421 30.1719 33.6421Z" fill="#B59FFF"/>
<path d="M34.3474 18.7348C35.5994 15.8486 34.7784 12.5427 32.0229 10.3883C29.9961 8.8019 27.2765 7.82959 24.3003 7.82959C21.0317 7.82959 18.0761 9.00148 16.0031 10.8745C13.6068 13.0391 12.991 16.1454 14.1969 18.8525C13.8633 19.6355 13.6786 20.4952 13.6786 21.401C13.6786 24.9986 16.6034 27.9155 20.2107 27.9155C21.7604 27.9155 23.1766 27.3782 24.2952 26.4775C25.4138 27.3731 26.8352 27.9155 28.3797 27.9155C31.987 27.9155 34.9118 24.9986 34.9118 21.401C34.9221 20.4492 34.7117 19.5485 34.3474 18.7348Z" fill="#373382"/>
<path d="M24.7587 35.0648H23.8505C21.8595 35.0648 20.2278 35.1416 20.2278 33.6422V29.3333C20.2278 28.1153 21.2284 27.1226 22.4445 27.1226H26.1595C27.3808 27.1226 28.3763 28.1205 28.3763 29.3333V33.6422C28.3814 35.1365 26.7496 35.0648 24.7587 35.0648Z" fill="white"/>
<path opacity="0.3" d="M20.2278 31.4007V29.3333C20.2278 28.1153 21.2284 27.1226 22.4445 27.1226H26.1596C27.3808 27.1226 28.3763 28.1205 28.3763 29.3333V32.8797L20.2278 31.4007Z" fill="#7360FC"/>
<path d="M24.3016 30.3513C20.2017 30.3513 16.8458 27.0045 16.8458 22.9156V15.434C16.8458 11.3451 20.2017 10.772 24.3016 10.772C28.4015 10.772 31.7573 11.3451 31.7573 15.434V22.9156C31.7625 27.0045 28.4066 30.3513 24.3016 30.3513Z" fill="#B59FFF"/>
<path d="M27.4777 23.6119C27.252 23.3713 26.9338 23.2383 26.6003 23.2383H24.4092H24.2604H22.0796C21.741 23.2383 21.4177 23.3816 21.1919 23.6272L18.9906 26.0119L19.7192 26.7795L22.1925 24.4102H24.2963H24.3682H26.472L29.0274 26.7795L29.756 26.0119L27.4777 23.6119Z" fill="#373382"/>
<path d="M30.5978 12.2666H18.0519L19.8735 4.01221H28.7711L30.5978 12.2666Z" fill="#FFBE44"/>
<path d="M31.7582 33.8363C31.6556 37.787 28.4126 40.9649 24.4256 40.9649C20.4181 40.9649 17.1649 37.7614 17.093 33.7852C14.045 34.4146 11.7308 37.1217 11.7308 40.3406V42.8021C15.3586 45.1254 19.6741 46.4764 24.3076 46.4764C28.9412 46.4764 33.2566 45.1254 36.8844 42.8021V40.3406C36.8844 37.1985 34.6882 34.5528 31.7582 33.8363Z" fill="#FF2475"/>
<path d="M24.4196 40.9599C23.4446 40.9599 22.521 40.7706 21.6692 40.4277C21.936 42.4184 22.2028 44.4091 22.4697 46.3998C23.0752 46.4458 23.6858 46.4714 24.3015 46.4714C24.9122 46.4714 25.5125 46.4458 26.1078 46.3998C26.2514 44.3937 26.508 42.4184 26.9185 40.525C26.1437 40.8064 25.3021 40.9599 24.4196 40.9599Z" fill="#FFBE44"/>
<path d="M16.4922 24.088H17.9033L21.6645 27.6651C22.0032 27.9465 22.5214 27.8288 22.701 27.4297L23.2809 26.1605H25.4463L25.8722 27.3376C26.0312 27.7725 26.5752 27.9209 26.9292 27.6241L30.711 23.7451H32.353L29.9464 39.6859C29.5667 40.6122 28.5917 41.2211 27.4937 41.2211H21.0385C19.8942 41.2211 18.8885 40.5508 18.5447 39.5682L16.4922 24.088Z" fill="#373382"/>
<path d="M99.3861 124C112.317 124 122.8 113.545 122.8 100.649C122.8 87.7529 112.317 77.2983 99.3861 77.2983C86.4549 77.2983 75.972 87.7529 75.972 100.649C75.972 113.545 86.4549 124 99.3861 124Z" fill="#080345"/>
<path d="M98.3344 122.951C111.266 122.951 121.748 112.496 121.748 99.5999C121.748 86.7036 111.266 76.249 98.3344 76.249C85.4032 76.249 74.9204 86.7036 74.9204 99.5999C74.9204 112.496 85.4032 122.951 98.3344 122.951Z" fill="#FFBE44"/>
<path opacity="0.3" d="M120.234 91.3403L80.8158 115.101C87.3992 122.505 98.2673 125.172 107.822 120.95C119.244 115.899 124.611 102.849 120.234 91.3403Z" fill="#17144F"/>
<path d="M104.23 110.06H92.4388C88.7289 110.06 85.6963 113.084 85.6963 116.784V119.256C89.3446 121.595 93.6806 122.946 98.3346 122.946C102.989 122.946 107.33 121.59 110.973 119.256V116.784C110.978 113.09 107.94 110.06 104.23 110.06Z" fill="#B59FFF"/>
<path d="M92.4388 110.06C88.7289 110.06 85.6963 113.084 85.6963 116.784C85.6963 116.784 86.9586 119.026 87.8976 120.505C91.0431 122.071 94.5888 122.951 98.3398 122.951C102.994 122.951 107.335 121.595 110.978 119.261L92.4388 110.06Z" fill="#FF2475"/>
<path d="M85.6963 116.79C85.6963 116.79 86.9586 119.031 87.8976 120.51C89.4267 121.272 91.0482 121.866 92.7467 122.281C90.3811 119.804 88.1336 117.23 86.1273 114.446C85.8502 115.178 85.6963 115.966 85.6963 116.79Z" fill="#FFBE44"/>
<path opacity="0.25" d="M94.1477 116.846C96.6005 118.683 98.7402 120.832 100.926 122.808C101.603 122.731 102.265 122.628 102.922 122.5C99.946 120.597 97.1546 118.509 94.1477 116.846Z" fill="#373382"/>
<path d="M92.4377 110.06C91.8681 110.06 91.3139 110.132 90.7803 110.265C92.8738 111.329 94.7827 112.762 97.0302 113.97C100.843 116.042 104.424 118.458 108.078 120.837C109.084 120.377 110.048 119.85 110.972 119.256L92.4377 110.06Z" fill="#FFBE44"/>
<path d="M107.046 98.0748L107.615 97.1434C109.919 93.3667 109.334 88.454 106.096 85.4296C104.059 83.531 101.33 82.3643 98.338 82.3643C95.054 82.3643 92.083 83.7716 89.9997 86.013C87.2288 88.9965 86.8234 93.4691 88.8503 97.0001L89.5276 98.1822C88.3731 99.3644 87.6598 100.971 87.6598 102.752C87.6598 106.37 90.6 109.302 94.2278 109.302C95.7826 109.302 97.2091 108.76 98.3329 107.859C99.4566 108.76 100.883 109.302 102.438 109.302C106.066 109.302 109.006 106.37 109.006 102.752C109.006 100.915 108.257 99.2671 107.046 98.0748Z" fill="#373382"/>
<path d="M98.79 111.488H97.8817C95.8805 111.488 94.2437 111.565 94.2437 110.06V105.726C94.2437 104.503 95.2494 103.5 96.4757 103.5H100.206C101.433 103.5 102.438 104.503 102.438 105.726V110.06C102.428 111.565 100.791 111.488 98.79 111.488Z" fill="#B59FFF"/>
<path opacity="0.3" d="M94.2388 107.808V105.73C94.2388 104.507 95.2445 103.504 96.4709 103.504H100.201C101.428 103.504 102.433 104.507 102.433 105.73V109.297L94.2388 107.808Z" fill="#7360FC"/>
<path d="M98.3339 106.749C94.2135 106.749 90.8423 103.387 90.8423 99.2775V91.76C90.8423 87.6507 94.2135 86.2485 98.3339 86.2485C102.454 86.2485 105.826 87.6507 105.826 91.76V99.2775C105.831 103.387 102.454 106.749 98.3339 106.749Z" fill="#B59FFF"/>
<path d="M106.626 91.76H89.3699L91.3403 86.1922L104.61 85.9824L106.626 91.76Z" fill="#373382"/>
<path d="M105.831 90.3018H90.8423V91.8882H105.831V90.3018Z" fill="#FF2475"/>
<path d="M43.656 40.1758L80.856 78.3678" stroke="#6C679D" stroke-width="0.3" stroke-dasharray="1 1"/>
<rect x="59.3633" y="8.99951" width="64.3997" height="32.1999" rx="2" fill="#7360FC"/>
<path d="M62.54 8.99951H55.0069C54.5615 8.99951 54.3384 9.53808 54.6534 9.85307L62.1864 17.3861C62.5014 17.7011 63.04 17.478 63.04 17.0326V9.49951C63.04 9.22337 62.8161 8.99951 62.54 8.99951Z" fill="#7360FC"/>
<rect width="64.3997" height="32.1999" rx="2" transform="matrix(-1 0 0 1 65.3998 83.3901)" fill="#7360FC"/>
<path d="M62.2191 83.3901H69.7521C70.1976 83.3901 70.4207 83.9287 70.1057 84.2437L62.5726 91.7767C62.2576 92.0917 61.7191 91.8686 61.7191 91.4232V83.8901C61.7191 83.614 61.9429 83.3901 62.2191 83.3901Z" fill="#7360FC"/>
<path d="M22.6341 92.8918C23.4677 92.8918 24.1435 92.216 24.1435 91.3824C24.1435 90.5488 23.4677 89.873 22.6341 89.873C21.8005 89.873 21.1248 90.5488 21.1248 91.3824C21.1248 92.216 21.8005 92.8918 22.6341 92.8918Z" fill="#00C7BA"/>
<path d="M27.6659 92.8918C28.4995 92.8918 29.1752 92.216 29.1752 91.3824C29.1752 90.5488 28.4995 89.873 27.6659 89.873C26.8323 89.873 26.1565 90.5488 26.1565 91.3824C26.1565 92.216 26.8323 92.8918 27.6659 92.8918Z" fill="#00C7BA"/>
<path d="M32.6966 92.8918C33.5302 92.8918 34.206 92.216 34.206 91.3824C34.206 90.5488 33.5302 89.873 32.6966 89.873C31.863 89.873 31.1873 90.5488 31.1873 91.3824C31.1873 92.216 31.863 92.8918 32.6966 92.8918Z" fill="#00C7BA"/>
<path d="M11.5589 99.5602C14.475 99.5602 16.839 97.1962 16.839 94.2801C16.839 91.364 14.475 89 11.5589 89C8.64278 89 6.27881 91.364 6.27881 94.2801C6.27881 97.1962 8.64278 99.5602 11.5589 99.5602Z" fill="#00C7BA"/>
<path d="M44.6211 96.3301H21V99.9673H44.6211V96.3301Z" fill="#4420D8"/>
<path d="M69.2801 25.5597C72.1962 25.5597 74.5602 23.1957 74.5602 20.2796C74.5602 17.3635 72.1962 14.9995 69.2801 14.9995C66.364 14.9995 64 17.3635 64 20.2796C64 23.1957 66.364 25.5597 69.2801 25.5597Z" fill="#00C7BA"/>
<path d="M103.1 14.9839H79.4791V18.6211H103.1V14.9839Z" fill="#4420D8"/>
<path d="M115.842 20.5361H79.4791V24.1733H115.842V20.5361Z" fill="#4420D8"/>
</svg>
