<svg width="124" height="124" viewBox="0 0 124 124" fill="none" xmlns="http://www.w3.org/2000/svg">
<path d="M19 124C27.8366 124 35 116.837 35 108C35 99.1634 27.8366 92 19 92C10.1634 92 3 99.1634 3 108C3 116.837 10.1634 124 19 124Z" fill="#8BCF51"/>
<path d="M90.1511 105.709H47.8656C45.7364 105.709 44 103.986 44 101.854C44 99.7314 45.7277 98 47.8656 98H90.1598C92.2889 98 94.0254 99.7227 94.0254 101.854C94.0166 103.986 92.2889 105.709 90.1511 105.709Z" fill="#080345"/>
<path d="M117.14 117.463H47.8656C45.7364 117.463 44 115.74 44 113.608C44 111.485 45.7277 109.754 47.8656 109.754H117.14C119.269 109.754 121.006 111.477 121.006 113.608C120.997 115.74 119.269 117.463 117.14 117.463Z" fill="#080345"/>
<path opacity="0.5" d="M90.1511 105.709H47.8656C45.7364 105.709 44 103.986 44 101.854C44 99.7314 45.7277 98 47.8656 98H90.1598C92.2889 98 94.0254 99.7227 94.0254 101.854C94.0166 103.986 92.2889 105.709 90.1511 105.709Z" fill="#7360FC"/>
<path opacity="0.5" d="M117.14 117.463H47.8656C45.7364 117.463 44 115.74 44 113.608C44 111.485 45.7277 109.754 47.8656 109.754H117.14C119.269 109.754 121.006 111.477 121.006 113.608C120.997 115.74 119.269 117.463 117.14 117.463Z" fill="#7360FC"/>
<path d="M16.5 115.375H24C24.6916 115.375 25.2833 114.938 25.5333 114.308L28.05 108.139C28.125 107.938 28.1666 107.727 28.1666 107.5V105.75C28.1666 104.787 27.4166 104 26.5 104H21.2416L22.0333 100.001L22.0583 99.7212C22.0583 99.3625 21.9166 99.03 21.6916 98.7937L20.8083 97.875L15.3166 103.641C15.0166 103.956 14.8333 104.394 14.8333 104.875V113.625C14.8333 114.587 15.5833 115.375 16.5 115.375ZM16.5 104.875L20.1166 101.077L19 105.75H26.5V107.5L24 113.625H16.5V104.875ZM9.83331 104.875H13.1666V115.375H9.83331V104.875Z" fill="white"/>
<path d="M62.1283 63C75.6593 63 86.6283 52.031 86.6283 38.5C86.6283 24.969 75.6593 14 62.1283 14C48.5973 14 37.6283 24.969 37.6283 38.5C37.6283 52.031 48.5973 63 62.1283 63Z" fill="#FFBE44"/>
<path opacity="0.3" d="M85.0271 29.167L43.4624 54.5928C50.4043 62.5168 61.8641 65.3699 71.9387 60.852C83.9829 55.4471 89.6424 41.4829 85.0271 29.167Z" fill="#17144F" fill-opacity="0.6"/>
<path d="M64.5399 48.2042H55.2513V44.4888H64.4804C64.4804 44.4888 66.2341 44.4888 66.2341 42.8986C66.2468 42.6604 66.2095 42.4221 66.1245 42.1992C66.0396 41.9763 65.9089 41.7736 65.741 41.6042C65.573 41.4348 65.3714 41.3025 65.1492 41.2157C64.927 41.1289 64.689 41.0896 64.4507 41.1003H60.7799C59.3651 41.0269 58.0326 40.4132 57.0571 39.3858C56.0817 38.3585 55.5379 36.9959 55.5379 35.5792C55.5379 34.1626 56.0817 32.8 57.0571 31.7726C58.0326 30.7452 59.3651 30.1315 60.7799 30.0581H69.0876V33.8181H60.7947C60.5521 33.8151 60.3115 33.863 60.0885 33.9586C59.8654 34.0542 59.6649 34.1955 59.4997 34.3732C59.3345 34.551 59.2084 34.7614 59.1294 34.9909C59.0504 35.2203 59.0203 35.4638 59.0411 35.7055C59.0641 36.1734 59.2673 36.6141 59.608 36.9355C59.9488 37.2569 60.4007 37.4339 60.8691 37.4295H64.5399C65.9746 37.4295 67.3506 37.9994 68.3651 39.0139C69.3796 40.0285 69.9495 41.4044 69.9495 42.8391C69.9495 44.2739 69.3796 45.6498 68.3651 46.6643C67.3506 47.6788 65.9746 48.2488 64.5399 48.2488V48.2042Z" fill="white"/>
<path d="M64.4967 26.209H60.7812V33.7439H64.4967V26.209Z" fill="white"/>
<path d="M64.4967 44.4888H60.7812V52.0236H64.4967V44.4888Z" fill="white"/>
<path d="M27.7761 55.7267C30.9224 62.0152 35.7308 67.3219 41.6795 71.071C47.6283 74.8202 54.4902 76.8685 61.5207 76.9939C68.5513 77.1192 75.4818 75.3167 81.5605 71.782C87.6391 68.2473 92.6336 63.1154 96.0021 56.9431L90.7368 54.0696C87.8932 59.2803 83.6768 63.6127 78.5452 66.5967C73.4136 69.5807 67.5628 71.1024 61.6277 70.9966C55.6925 70.8907 49.8997 69.1615 44.8777 65.9965C39.8557 62.8315 35.7965 58.3515 33.1404 53.0428L27.7761 55.7267Z" fill="#7360FC"/>
<path d="M27.7065 49.2231L36.0177 52.9583L25.5312 58.0716L27.7065 49.2231Z" fill="#7360FC"/>
<path d="M96.638 21.2733C93.5608 15.1229 88.8924 9.9091 83.118 6.1738C77.3436 2.43851 70.6741 0.318122 63.8028 0.0330802C56.9315 -0.251962 50.1092 1.30875 44.0453 4.55295C37.9814 7.79716 32.8972 12.6064 29.3212 18.4808L34.4447 21.5998C37.4636 16.6406 41.7557 12.5806 46.8749 9.84188C51.9941 7.10312 57.7534 5.78557 63.5541 6.02621C69.3549 6.26684 74.9853 8.05687 79.8601 11.2102C84.7348 14.3635 88.6759 18.7651 91.2737 23.9572L96.638 21.2733Z" fill="#7360FC"/>
<path d="M96.106 27.5152L87.7948 23.78L98.2813 18.6666L96.106 27.5152Z" fill="#7360FC"/>
</svg>
