<svg width="124" height="124" viewBox="0 0 124 124" fill="none" xmlns="http://www.w3.org/2000/svg">
<rect x="50.916" y="1" width="58.5802" height="58.5802" rx="29.2901" stroke="#8BCF51" stroke-width="2"/>
<g clip-path="url(#clip0)" filter="url(#filter0_d)">
<path d="M90.4791 22.083H98.4618C99.5203 22.083 100.214 23.1763 99.7806 24.1307L98.7047 26.4908C98.1494 27.723 96.9173 28.5212 95.5637 28.5212H90.1841C90.0973 28.5212 90.0105 28.4518 90.0279 28.3477L90.3229 22.2392C90.3229 22.1351 90.3923 22.083 90.4791 22.083Z" fill="#7360FC"/>
<path d="M69.9324 22.083H61.9497C60.8911 22.083 60.197 23.1763 60.6308 24.1307L61.7068 26.4908C62.2621 27.723 63.4942 28.5212 64.8478 28.5212H70.2274C70.3142 28.5212 70.4009 28.4518 70.3836 28.3477L70.0886 22.2218C70.0886 22.1351 70.0192 22.083 69.9324 22.083Z" fill="#7360FC"/>
<path d="M87.616 19.1157H72.8133C70.2276 19.1157 68.0931 19.4975 68.0931 22.1006L66.0106 28.5041C66.3403 30.1006 67.746 33.1201 68.9087 35.7232C69.6202 37.3197 70.0887 39.0204 70.2796 40.7558L70.887 45.9272C70.887 48.5129 74.1148 49.4847 76.7005 49.4847H83.694C86.2797 49.4847 88.9522 48.7211 89.4902 46.2916L89.9414 40.7905C90.0975 39.003 90.5314 37.2503 91.2082 35.5844C92.6485 32.131 93.5162 30.2915 94.0195 28.5041L92.3015 22.1006C92.3362 19.5149 90.2017 19.1157 87.616 19.1157Z" fill="#A897FF"/>
<path d="M70.4532 42.0574L70.9044 45.91C70.9044 48.4957 74.1322 49.4675 76.7179 49.4675H83.7114C86.2971 49.4675 88.9696 48.7039 89.5075 46.2744L89.8373 42.3351C85.4641 38.6561 78.54 38.257 70.4532 42.0574Z" fill="#DFDCFF"/>
<path d="M81.6114 44.0181C81.6114 44.0181 86.0713 42.543 86.3316 42.5951C86.5745 42.6645 85.9498 46.4476 81.6114 44.0181Z" fill="#5656B7"/>
<path d="M79.2688 44.0181C79.2688 44.0181 74.8089 42.543 74.5486 42.5951C74.3057 42.6645 74.9304 46.4476 79.2688 44.0181Z" fill="#5656B7"/>
<path d="M74.9996 33.2937L74.1492 30.118C72.9345 25.9704 69.7761 25.9878 69.7761 25.9878C69.7588 27.0811 69.9323 27.8967 70.21 28.5041L68.9258 27.9835L74.9996 33.2937Z" fill="#DFDCFF"/>
<path d="M90.323 28.5041C90.6006 27.8967 90.7742 27.0811 90.7394 25.9878C90.7394 25.9878 87.5811 25.9704 86.3663 30.118L85.516 33.2937L91.6071 27.9835L90.323 28.5041Z" fill="#DFDCFF"/>
<path d="M72.0149 30.1526C72.7529 30.1526 73.3512 29.531 73.3512 28.7643C73.3512 27.9975 72.7529 27.376 72.0149 27.376C71.277 27.376 70.6787 27.9975 70.6787 28.7643C70.6787 29.531 71.277 30.1526 72.0149 30.1526Z" fill="#17144F"/>
<path d="M72.6398 28.5042C72.8315 28.5042 72.9869 28.3565 72.9869 28.1744C72.9869 27.9923 72.8315 27.8447 72.6398 27.8447C72.4481 27.8447 72.2927 27.9923 72.2927 28.1744C72.2927 28.3565 72.4481 28.5042 72.6398 28.5042Z" fill="white"/>
<path d="M88.5704 30.1526C89.3083 30.1526 89.9066 29.531 89.9066 28.7643C89.9066 27.9975 89.3083 27.376 88.5704 27.376C87.8324 27.376 87.2341 27.9975 87.2341 28.7643C87.2341 29.531 87.8324 30.1526 88.5704 30.1526Z" fill="#17144F"/>
<path d="M89.1952 28.5042C89.3869 28.5042 89.5423 28.3565 89.5423 28.1744C89.5423 27.9923 89.3869 27.8447 89.1952 27.8447C89.0035 27.8447 88.8481 27.9923 88.8481 28.1744C88.8481 28.3565 89.0035 28.5042 89.1952 28.5042Z" fill="white"/>
<path d="M71.5638 19.22C71.5638 19.22 63.824 17.6582 62.8175 16.8252C61.811 15.9922 62.2275 13.1636 61.4986 13.1636C61.0995 13.1636 57.9064 15.0725 60.0756 20.5389C61.5854 24.3394 68.0236 23.3849 68.0236 23.3849L71.5638 19.22Z" fill="#DFDCFF"/>
<path d="M88.8481 19.1507C88.8481 19.1507 96.5879 17.5888 97.5944 16.7559C98.6009 15.9402 98.1844 13.0942 98.9133 13.0942C99.3124 13.0942 102.506 15.0031 100.336 20.4696C98.8265 24.27 92.3883 23.3156 92.3883 23.3156L88.8481 19.1507Z" fill="#DFDCFF"/>
<path d="M84.9264 38.8645C84.5099 38.153 84.319 37.3026 84.4057 36.4697L85.1867 29.6844C85.4817 27.1334 86.7832 24.808 88.8136 23.2114L90.896 21.5802L88.8309 19.1507L83.3298 18.526L83.9893 17.8492L79.2691 18.1615L80.2235 17.1724C80.2235 17.1724 73.6117 18.7515 71.9458 19.0986C71.7375 19.1333 71.6161 19.1507 71.5814 19.1507L69.5336 21.5976L70.974 22.7255L71.8937 23.4544C73.9068 25.0162 75.2083 27.3243 75.5207 29.8579L76.2842 36.1226L76.3189 36.4003C76.4404 37.3374 76.1974 38.2571 75.6768 39.038L71.0087 41.7799L70.4534 42.0576L70.6443 42.0055L70.5922 42.0402L71.2343 41.832L75.8157 40.4784C76.423 40.2007 77.0998 40.0619 77.7593 40.0619H82.8266C83.6075 40.0619 84.371 40.2528 85.0652 40.6172L89.8374 42.3352L89.4557 42.0923L89.9936 42.3005L84.9264 38.8645Z" fill="#7360FC"/>
</g>
<rect x="14" y="64.4199" width="58.5802" height="58.5802" rx="29.2901" stroke="#FF2972" stroke-width="2"/>
<g filter="url(#filter1_d)">
<path d="M27.7239 83.5061C25.9712 81.3195 26.0406 77.9876 28.2272 76.2523C30.4137 74.5169 32.4094 76.3564 34.1621 78.5429C35.9148 80.7295 36.4181 81.736 34.2142 83.4888C32.0103 85.2415 29.4766 85.71 27.7239 83.5061Z" fill="#A57A2F"/>
<path d="M34.1099 80.8855C32.6869 79.8096 29.9103 77.2065 29.9103 77.2065L31.073 79.5666C31.073 79.5666 28.7823 78.699 29.0773 79.046C29.407 79.4105 31.0903 80.6426 31.0903 80.6426L28.6261 81.2152C28.6261 81.2152 30.8821 83.6621 31.368 83.558C31.8539 83.4539 34.1099 80.8855 34.1099 80.8855Z" fill="#B68D3D"/>
<path d="M58.301 83.5061C60.0538 81.3195 59.9843 77.9876 57.7978 76.2349C55.6112 74.4822 53.6155 76.339 51.8628 78.5256C50.1101 80.7122 49.6242 81.736 51.8108 83.4714C53.9973 85.2415 56.5483 85.71 58.301 83.5061Z" fill="#A57A2F"/>
<path d="M51.915 80.8855C53.338 79.8096 56.1146 77.2065 56.1146 77.2065L54.9519 79.5666C54.9519 79.5666 57.2426 78.699 56.9476 79.046C56.6352 79.4105 54.9519 80.6252 54.9519 80.6252L57.3988 81.1979C57.3988 81.1979 55.1428 83.6448 54.6569 83.5406C54.171 83.4539 51.915 80.8855 51.915 80.8855Z" fill="#B68D3D"/>
<path d="M56.9301 104.955L57.0516 104.765C58.0581 103.914 59.4984 102.699 59.4984 102.699L58.2837 102.786L60.1926 99.732L57.8672 95.4803C57.8672 95.4803 57.711 92.2352 57.3813 90.4825C56.3054 84.6343 54.7088 80.4 51.4637 80.4C50.9084 80.4 43.8975 80.3306 43.2901 80.3306C42.7001 80.3306 36.8692 80.4 36.3139 80.4C32.4787 80.4 30.3616 84.6343 29.2336 90.4825C28.9039 92.2178 28.8345 95.3936 28.8345 95.3936L26.3702 99.732L28.4527 102.89L26.8908 102.699C26.8908 102.699 28.2965 103.758 29.4418 104.626H27.6197C27.6197 104.626 30.674 106.986 31.7499 107.819L31.9408 108.114C31.9408 108.114 38.084 110.161 43.2901 112.799C48.4962 110.161 54.9518 107.975 55.0038 107.958C55.0212 107.958 55.0559 107.94 55.0559 107.94L55.1947 107.715C56.2012 106.916 59.724 104.14 59.724 104.14L56.9301 104.955Z" fill="#B68D3D"/>
<path d="M46.8824 85.4149L50.2838 80.3997L46.4486 80.3824L36.2967 80.3477L39.1427 85.4149L38.7089 97.3369H47.5072C47.4898 97.3369 46.8651 85.5711 46.8824 85.4149Z" fill="#A57A2F"/>
<path d="M52.3139 92.3912C54.327 89.8576 54.9344 86.2654 54.9344 86.2654C53.6502 86.4042 50.943 88.0701 50.943 88.0701L53.4246 85.4844L50.943 87.0636L51.4289 85.12L46.084 90.6038C45.5113 91.3153 47.3508 92.3218 47.0905 92.5647C47.0905 92.5647 42.8562 94.1613 45.7195 94.6819C44.1577 96.0181 43.5156 96.7643 43.2553 97.1635C42.995 96.7643 42.3703 96.0355 40.8605 94.734C44.4007 94.2828 39.8366 92.5647 39.8366 92.5647C39.5416 92.2871 40.0449 92.4433 39.3507 91.5929L40.3052 89.9096L37.4939 87.0289L35.5503 84.9985L35.9494 86.9769L33.5373 85.2588L35.8974 87.9487C35.8974 87.9487 33.4331 86.543 32.496 86.3521L32.4266 86.3174L32.4613 86.3521C32.3051 86.3174 32.1316 86.3001 31.9754 86.2827C31.9754 86.2827 32.5828 89.8749 34.5958 92.4086C32.5134 92.3565 30.9168 92.7903 31.1772 92.8077C33.4678 92.8945 41.4332 96.7123 43.0818 97.5105C43.0471 97.632 43.0818 97.6667 43.0818 97.6667C43.0818 97.6667 43.1338 97.632 43.238 97.5973C43.3247 97.6494 43.3942 97.6667 43.3942 97.6667C43.3942 97.6667 43.4289 97.632 43.3942 97.5105C45.0428 96.7123 53.0081 92.8945 55.2988 92.8077C55.5764 92.7903 54.2055 92.4086 52.3139 92.3912Z" fill="#A57A2F"/>
<path d="M36.2444 93.8491C37.0974 93.8491 37.7888 93.0799 37.7888 92.1311C37.7888 91.1823 37.0974 90.4131 36.2444 90.4131C35.3914 90.4131 34.6999 91.1823 34.6999 92.1311C34.6999 93.0799 35.3914 93.8491 36.2444 93.8491Z" fill="#17144F"/>
<path d="M36.9731 91.8188C37.2031 91.8188 37.3896 91.6323 37.3896 91.4023C37.3896 91.1723 37.2031 90.9858 36.9731 90.9858C36.743 90.9858 36.5566 91.1723 36.5566 91.4023C36.5566 91.6323 36.743 91.8188 36.9731 91.8188Z" fill="white"/>
<path d="M50.2486 93.8491C51.1016 93.8491 51.7931 93.0799 51.7931 92.1311C51.7931 91.1823 51.1016 90.4131 50.2486 90.4131C49.3956 90.4131 48.7042 91.1823 48.7042 92.1311C48.7042 93.0799 49.3956 93.8491 50.2486 93.8491Z" fill="#17144F"/>
<path d="M50.9773 91.8188C51.2074 91.8188 51.3938 91.6323 51.3938 91.4023C51.3938 91.1723 51.2074 90.9858 50.9773 90.9858C50.7473 90.9858 50.5609 91.1723 50.5609 91.4023C50.5609 91.6323 50.7473 91.8188 50.9773 91.8188Z" fill="white"/>
<path d="M49.1904 98.0659C47.7327 85.3977 47.0906 83.4367 43.4463 83.2632C43.4289 83.2632 43.3942 83.2632 43.3769 83.2632C43.3595 83.2632 43.3248 83.2632 43.3075 83.2632C39.6632 83.4367 39.3161 84.0962 37.3551 99.2459C36.6436 104.678 38.7955 107.853 40.8779 107.853C40.8953 107.853 45.7196 107.853 45.7543 107.853C47.8888 108.114 49.9886 105.025 49.1904 98.0659Z" fill="#DABA7D"/>
<path d="M45.0777 96.6426H41.5028C40.8087 96.6426 40.236 97.2153 40.236 97.9094V98.5862C40.236 99.2803 40.8087 99.853 41.5028 99.853H45.0777C45.7718 99.853 46.3445 99.2803 46.3445 98.5862V97.9094C46.3445 97.2153 45.7718 96.6426 45.0777 96.6426ZM41.5549 98.0135C41.954 97.8573 42.5961 98.8812 42.5961 98.8812C41.3293 98.9506 41.1731 98.1697 41.5549 98.0135ZM43.9844 98.8812C43.9844 98.8812 44.6265 97.8573 45.0256 98.0135C45.4074 98.1697 45.2512 98.9506 43.9844 98.8812Z" fill="#17144F"/>
<path d="M44.1407 102.248H42.44C42.3185 102.248 42.2144 102.144 42.2144 102.022V101.953C42.2144 101.831 42.3185 101.727 42.44 101.727H44.1407C44.2621 101.727 44.3663 101.831 44.3663 101.953V102.022C44.3663 102.144 44.2621 102.248 44.1407 102.248Z" fill="#17144F"/>
</g>
<path d="M30.9848 60.5801C39.3491 60.5801 46.1298 53.7995 46.1298 45.4351C46.1298 37.0707 39.3491 30.29 30.9848 30.29C22.6204 30.29 15.8397 37.0707 15.8397 45.4351C15.8397 53.7995 22.6204 60.5801 30.9848 60.5801Z" fill="#8BCF51"/>
<path d="M27.7529 53.0466L23.8428 48.9802L25.3443 47.536L27.7894 50.0802L38.357 39.6533L39.822 41.1392L27.7529 53.0466Z" fill="white"/>
<path d="M92.5114 124C100.876 124 107.656 117.219 107.656 108.855C107.656 100.491 100.876 93.71 92.5114 93.71C84.1471 93.71 77.3664 100.491 77.3664 108.855C77.3664 117.219 84.1471 124 92.5114 124Z" fill="#FF2972"/>
<rect width="18.8467" height="1.88467" transform="matrix(0.706761 0.707452 -0.706761 0.707452 86.9402 101.96)" fill="white"/>
<rect width="18.8467" height="1.88467" transform="matrix(-0.706761 0.707452 -0.706761 -0.707452 100.26 103.293)" fill="white"/>
<defs>
<filter id="filter0_d" x="56.3817" y="8.35889" width="47.6489" height="47.6489" filterUnits="userSpaceOnUse" color-interpolation-filters="sRGB">
<feFlood flood-opacity="0" result="BackgroundImageFix"/>
<feColorMatrix in="SourceAlpha" type="matrix" values="0 0 0 0 0 0 0 0 0 0 0 0 0 0 0 0 0 0 127 0" result="hardAlpha"/>
<feOffset/>
<feGaussianBlur stdDeviation="1.5"/>
<feColorMatrix type="matrix" values="0 0 0 0 0.0313726 0 0 0 0 0.0117647 0 0 0 0 0.270588 0 0 0 0.7 0"/>
<feBlend mode="normal" in2="BackgroundImageFix" result="effect1_dropShadow"/>
<feBlend mode="normal" in="SourceGraphic" in2="effect1_dropShadow" result="shape"/>
</filter>
<filter id="filter1_d" x="19.4656" y="69.8857" width="47.6489" height="47.6489" filterUnits="userSpaceOnUse" color-interpolation-filters="sRGB">
<feFlood flood-opacity="0" result="BackgroundImageFix"/>
<feColorMatrix in="SourceAlpha" type="matrix" values="0 0 0 0 0 0 0 0 0 0 0 0 0 0 0 0 0 0 127 0" result="hardAlpha"/>
<feOffset/>
<feGaussianBlur stdDeviation="1.5"/>
<feColorMatrix type="matrix" values="0 0 0 0 0.0313726 0 0 0 0 0.0117647 0 0 0 0 0.270588 0 0 0 0.7 0"/>
<feBlend mode="normal" in2="BackgroundImageFix" result="effect1_dropShadow"/>
<feBlend mode="normal" in="SourceGraphic" in2="effect1_dropShadow" result="shape"/>
</filter>
<clipPath id="clip0">
<rect width="41.6489" height="41.6489" fill="white" transform="translate(59.3817 11.3589)"/>
</clipPath>
</defs>
</svg>
