<svg width="156" height="156" viewBox="0 0 156 156" fill="none" xmlns="http://www.w3.org/2000/svg">
<path d="M82.9126 21.7219C82.9126 20.5573 84.297 18.5356 85.0222 16.8105C85.8133 18.5356 87.1318 20.5573 87.1318 21.7219C87.1318 22.8866 86.1869 23.8315 85.0222 23.8315C83.8575 23.8315 82.9126 22.8866 82.9126 21.7219Z" fill="#FFBE34"/>
<path d="M80.6053 27.3474C79.6713 26.6442 78.8912 24.3258 77.9463 22.7217C79.8032 23.1282 82.2094 23.282 83.1324 23.9852C84.0663 24.6884 84.2531 26.0069 83.5499 26.9299C82.8577 27.8638 81.5392 28.0506 80.6053 27.3474Z" fill="#FFBE34"/>
<path d="M80.6053 32.3801C79.6713 31.6769 78.8912 29.3586 77.9463 27.7544C79.8032 28.1609 82.2094 28.3148 83.1324 29.018C84.0663 29.7212 84.2531 31.0396 83.5499 31.9626C82.8577 32.8855 81.5392 33.0723 80.6053 32.3801Z" fill="#FFBE34"/>
<path d="M80.6053 37.4006C79.6713 36.6974 78.8912 34.3791 77.9463 32.7749C79.8032 33.1814 82.2094 33.3353 83.1324 34.0385C84.0663 34.7417 84.2531 36.0602 83.5499 36.9831C82.8577 37.917 81.5392 38.1038 80.6053 37.4006Z" fill="#FFBE34"/>
<path d="M89.7908 27.3474C90.7247 26.6442 91.5048 24.3258 92.4497 22.7217C90.5929 23.1282 88.1866 23.282 87.2637 23.9852C86.3297 24.6884 86.1429 26.0069 86.8461 26.9299C87.5493 27.8528 88.8568 28.0506 89.7908 27.3474Z" fill="#FFBE34"/>
<path d="M89.7908 32.3801C90.7247 31.6769 91.5048 29.3586 92.4497 27.7544C90.5929 28.1609 88.1866 28.3148 87.2637 29.018C86.3297 29.7212 86.1429 31.0396 86.8461 31.9626C87.5383 32.8855 88.8568 33.0723 89.7908 32.3801Z" fill="#FFBE34"/>
<path d="M89.7908 37.4006C90.7247 36.6974 91.5048 34.3791 92.4497 32.7749C90.5929 33.1814 88.1866 33.3353 87.2637 34.0385C86.3297 34.7417 86.1429 36.0602 86.8461 36.9831C87.5493 37.906 88.8568 38.1038 89.7908 37.4006Z" fill="#FFBE34"/>
<path d="M75.1555 4.9114C75.1555 3.74673 76.5399 1.72503 77.2651 0C78.0562 1.72503 79.3747 3.74673 79.3747 4.9114C79.3747 6.07607 78.4298 7.02099 77.2651 7.02099C76.1004 7.02099 75.1555 6.07607 75.1555 4.9114Z" fill="#FFBE34"/>
<path d="M72.859 10.5481C71.9251 9.84489 71.145 7.52653 70.2001 5.92236C72.057 6.3289 74.4632 6.48272 75.3862 7.18592C76.3091 7.88912 76.5069 9.20761 75.8037 10.1306C75.1005 11.0535 73.782 11.2513 72.859 10.5481Z" fill="#FFBE34"/>
<path d="M72.859 15.5803C71.9251 14.8771 71.145 12.5588 70.2001 10.9546C72.057 11.3611 74.4632 11.515 75.3862 12.2181C76.3091 12.9213 76.5069 14.2398 75.8037 15.1628C75.1005 16.0857 73.782 16.2725 72.859 15.5803Z" fill="#FFBE34"/>
<path d="M72.859 20.6018C71.9251 19.8986 71.145 17.5802 70.2001 15.9761C72.057 16.3826 74.4632 16.5364 75.3862 17.2396C76.3201 17.9428 76.5069 19.2613 75.8037 20.1843C75.1005 21.1072 73.782 21.305 72.859 20.6018Z" fill="#FFBE34"/>
<path d="M82.0337 10.5481C82.9677 9.84489 83.7478 7.52653 84.6927 5.92236C82.8358 6.3289 80.4296 6.48272 79.5066 7.18592C78.5837 7.88912 78.3859 9.20761 79.0891 10.1306C79.7813 11.0535 81.0998 11.2513 82.0337 10.5481Z" fill="#FFBE34"/>
<path d="M82.0337 15.5803C82.9677 14.8771 83.7478 12.5588 84.6927 10.9546C82.8358 11.3611 80.4296 11.515 79.5066 12.2181C78.5837 12.9213 78.3859 14.2398 79.0891 15.1628C79.7813 16.0857 81.0998 16.2725 82.0337 15.5803Z" fill="#FFBE34"/>
<path d="M82.0336 20.6018C82.9675 19.8986 83.7476 17.5802 84.6925 15.9761C82.8356 16.3826 80.4294 16.5364 79.5065 17.2396C78.5725 17.9428 78.3857 19.2613 79.0889 20.1843C79.7811 21.1072 81.0996 21.305 82.0336 20.6018Z" fill="#FFBE34"/>
<path d="M70.222 26.7983H69.0684V94.0416H70.222V26.7983Z" fill="#FFBE34"/>
<path d="M67.3875 23.8758C67.3875 22.7111 68.7719 20.6894 69.497 18.9644C70.2881 20.6894 71.6066 22.7111 71.6066 23.8758C71.6066 25.0404 70.6617 25.9853 69.497 25.9853C68.3324 25.9744 67.3875 25.0404 67.3875 23.8758Z" fill="#FFBE34"/>
<path d="M65.091 29.5012C64.157 28.798 63.3769 26.4797 62.432 24.8755C64.2889 25.282 66.6951 25.4358 67.6181 26.139C68.552 26.8422 68.7388 28.1607 68.0356 29.0837C67.3434 30.0176 66.0139 30.2044 65.091 29.5012Z" fill="#FFBE34"/>
<path d="M65.091 34.5339C64.157 33.8307 63.3769 31.5124 62.432 29.9082C64.2889 30.3147 66.6951 30.4686 67.6181 31.1718C68.552 31.875 68.7388 33.1935 68.0356 34.1164C67.3324 35.0393 66.0139 35.2261 65.091 34.5339Z" fill="#FFBE34"/>
<path d="M65.091 39.5544C64.157 38.8512 63.3769 36.5329 62.432 34.9287C64.2889 35.3352 66.6951 35.4891 67.6181 36.1923C68.552 36.8955 68.7388 38.214 68.0356 39.1369C67.3324 40.0599 66.0139 40.2576 65.091 39.5544Z" fill="#FFBE34"/>
<path d="M74.2656 29.5012C75.1996 28.798 75.9797 26.4797 76.9246 24.8755C75.0677 25.282 72.6615 25.4358 71.7385 26.139C70.8046 26.8422 70.6178 28.1607 71.321 29.0837C72.0132 30.0176 73.3427 30.2044 74.2656 29.5012Z" fill="#FFBE34"/>
<path d="M74.2656 34.5339C75.1996 33.8307 75.9797 31.5124 76.9246 29.9082C75.0677 30.3147 72.6615 30.4686 71.7385 31.1718C70.8046 31.875 70.6178 33.1935 71.321 34.1164C72.0242 35.0393 73.3427 35.2261 74.2656 34.5339Z" fill="#FFBE34"/>
<path d="M74.2656 39.5544C75.1996 38.8512 75.9797 36.5329 76.9246 34.9287C75.0677 35.3352 72.6615 35.4891 71.7385 36.1923C70.8046 36.8955 70.6178 38.214 71.321 39.1369C72.0242 40.0599 73.3427 40.2576 74.2656 39.5544Z" fill="#FFBE34"/>
<path d="M85.7474 24.6338H84.5938V93.4593H85.7474V24.6338Z" fill="#FFBE34"/>
<path d="M83.1545 42.7305H82.0009V91.8444H83.1545V42.7305Z" fill="#FFBE34"/>
<path d="M80.5723 42.7305H79.4186V91.8444H80.5723V42.7305Z" fill="#FFBE34"/>
<path d="M75.3972 42.7305H74.2435V91.8444H75.3972V42.7305Z" fill="#FFBE34"/>
<path d="M72.8152 42.7305H71.6615V91.8444H72.8152V42.7305Z" fill="#FFBE34"/>
<path d="M67.651 42.7305H66.4973V91.8444H67.651V42.7305Z" fill="#FFBE34"/>
<path d="M88.1866 42.7305H87.033V91.8444H88.1866V42.7305Z" fill="#FFBE34"/>
<path d="M77.9902 7.83447H76.8365V93.0313H77.9902V7.83447Z" fill="#FFBE34"/>
<path d="M88.2745 63.8809H66.1567V66.375H88.2745V63.8809Z" fill="#FFBE34"/>
<path d="M63.7506 82.2514L62.7947 78.7134C62.4321 77.3949 61.4102 76.5269 60.5093 76.7906L39.2156 76.0654C38.3146 76.3291 37.8641 77.6257 38.2267 78.9551L39.1826 82.4931C39.5452 83.8116 40.567 84.6796 41.468 84.4159L62.7507 85.1411C63.6627 84.8664 64.1022 83.5699 63.7506 82.2514Z" fill="#373382"/>
<path d="M67.4096 70.0009L64.0474 69.2538C62.7948 68.9681 61.6851 69.1549 61.5972 69.6603L55.8178 82.8453C55.7299 83.3507 56.6748 83.999 57.9384 84.2736L61.3005 85.0208C62.5531 85.3065 63.6628 85.1197 63.7507 84.6143L69.5302 71.4293C69.6181 70.9239 68.6621 70.2756 67.4096 70.0009Z" fill="#373382"/>
<path d="M41.0143 84.4305C43.245 84.1757 44.8316 82.0289 44.5582 79.6354C44.2848 77.242 42.2548 75.5084 40.0242 75.7632C37.7935 76.018 36.2069 78.1649 36.4803 80.5583C36.7537 82.9517 38.7837 84.6854 41.0143 84.4305Z" fill="#373382"/>
<path d="M65.5856 72.8355C67.8161 73.209 69.4312 72.7695 69.7389 70.3853C70.0575 68.012 68.5083 65.7705 66.2888 65.3969C64.0583 65.0234 62.0037 66.6385 61.685 69.0228C61.3664 71.3851 63.3661 72.4509 65.5856 72.8355Z" fill="#373382"/>
<path d="M33.3045 149.88L39.2927 152.297C40.3145 152.704 40.9078 153.769 40.8199 154.868L40.787 155.242L29.2501 155.033L33.3045 149.88Z" fill="#B59FFF"/>
<path d="M40.8198 156V154.407H24.5144V156" fill="#373382"/>
<path d="M33.7659 154.846L35.9304 150.946L37.8312 151.715L36.4578 154.846H33.7659Z" fill="#373382"/>
<path d="M45.5114 109.424L33.7658 111.303L24.6901 151.715C24.0089 154.769 25.3384 154.417 28.4698 154.417H32.2055L44.8631 111.511L45.5114 109.424Z" fill="#B59FFF"/>
<path d="M55.4661 148.924L63.7726 152.297C64.7945 152.704 65.3878 153.769 65.2999 154.868L65.2669 155.242L53.7301 155.033L55.4661 148.924Z" fill="#B59FFF"/>
<path d="M65.3109 155.999V154.406H49.0165V155.999" fill="#373382"/>
<path d="M58.2679 154.846L60.4325 150.945L62.3333 151.714L60.9489 154.846H58.2679Z" fill="#373382"/>
<path d="M48.8076 110.512L40.9296 111.765L49.1921 151.704C49.2361 154.945 50.5766 154.594 52.9499 154.407H56.6856L52.0269 111.963L48.8076 110.512Z" fill="#B59FFF"/>
<path d="M41.9845 67.5837C45.5664 67.4408 48.3792 64.4083 48.2363 60.8264L47.9836 54.2889C46.5443 50.63 44.8742 49.6082 41.2922 49.74C37.7103 49.8829 34.8316 51.2124 34.9745 54.7833L35.2272 61.3208C35.359 64.9137 38.4025 67.7265 41.9845 67.5837Z" fill="#B59FFF"/>
<path d="M54.73 128.575C38.7762 133.432 26.635 128.608 26.635 128.608C26.635 128.608 28.8874 110.27 30.8542 101.733C32.821 93.1957 35.2712 77.0771 35.2712 77.0771C35.8974 73.5171 38.4905 70.9461 41.578 70.8252L47.654 70.5945C52.06 70.4187 54.0158 75.8685 53.1258 80.9447L50.9722 100.777C50.9722 100.777 53.7411 116.797 54.73 128.575Z" fill="#00C7BA"/>
<path d="M47.6759 53.8164C47.6759 53.8164 49.6536 57.4972 51.0271 60.5517C51.1699 60.8704 50.8293 61.211 50.4777 61.222L47.9726 61.3208L47.6759 53.8164Z" fill="#B59FFF"/>
<path d="M36.9192 64.8257L38.6662 71.9786L46.2146 71.6819L44.6214 64.584L36.9192 64.8257Z" fill="#B59FFF"/>
<path d="M36.7544 60.6067L38.842 60.5298L41.2373 64.1996C41.49 64.5842 41.9185 64.7929 42.369 64.7709L46.0937 64.5292C46.5332 64.4743 46.9068 64.1886 47.0826 63.7821L47.3133 63.2327L47.8737 63.2107L50.8843 74.1213C51.3238 75.6595 50.214 77.1978 48.6209 77.2527L47.7419 77.2857C46.8189 77.3186 45.9619 76.8462 45.5114 76.0441L40.8417 67.8035L36.7544 60.6067Z" fill="#373382"/>
<path d="M35.7547 65.5948C38.4611 65.5948 40.6551 63.4008 40.6551 60.6944C40.6551 57.9879 38.4611 55.7939 35.7547 55.7939C33.0482 55.7939 30.8542 57.9879 30.8542 60.6944C30.8542 63.4008 33.0482 65.5948 35.7547 65.5948Z" fill="#373382"/>
<path d="M43.9293 51.8497C43.8194 48.982 41.4571 48.1579 38.5894 48.2678C35.7216 48.3777 33.4912 50.8938 33.6011 53.7615C33.7109 56.6292 36.0732 57.3544 38.941 57.2445C41.7977 57.1347 44.0392 54.7174 43.9293 51.8497Z" fill="#373382"/>
<path d="M48.2252 62.1229L46.8518 62.1778L45.1707 63.8699L44.6543 63.3645L46.0387 61.7823C46.2585 61.5406 46.5551 61.3867 46.8848 61.3757L48.3021 61.3208L48.2252 62.1229Z" fill="#373382"/>
<path d="M51.983 94.041L51.6533 104.226H30.2827L32.2275 93.7114L51.983 94.041Z" fill="#373382"/>
<path d="M61.0587 80.3622L60.1028 76.8242C59.7402 75.5057 58.7183 74.6377 57.8174 74.9014L36.5347 74.1763C35.6337 74.44 35.1832 75.7365 35.5458 77.066L36.5017 80.6039C36.8643 81.9224 37.8861 82.7904 38.7871 82.5267L60.0698 83.2519C60.9708 82.9772 61.4213 81.6807 61.0587 80.3622Z" fill="#B59FFF"/>
<path d="M64.7174 68.1113L62.2233 67.474C60.9707 67.1883 60.2565 67.9245 60.1686 68.4299L53.1257 80.9446C53.0378 81.4501 53.9827 82.0983 55.2462 82.373L58.6084 83.1202C59.861 83.4058 60.9707 83.219 61.0586 82.7136L66.838 69.5287C66.9259 69.0342 65.97 68.386 64.7174 68.1113Z" fill="#B59FFF"/>
<path d="M38.3224 82.5414C40.5531 82.2865 42.1397 80.1397 41.8663 77.7463C41.5929 75.3529 39.5629 73.6192 37.3323 73.874C35.1016 74.1289 33.515 76.2757 33.7884 78.6691C34.0619 81.0625 36.0918 82.7962 38.3224 82.5414Z" fill="#B59FFF"/>
<path d="M60.6521 67.6168L63.9923 64.1338C64.6845 63.4086 65.5855 62.9142 66.5743 62.7054L69.1674 62.167C69.8926 62.0132 70.5518 62.6065 70.4749 63.3427L70.0134 68.0673C69.9805 68.4409 69.7607 68.7595 69.4201 68.9353L66.2118 70.5834L60.6521 67.6168Z" fill="#B59FFF"/>
<path d="M91.1532 82.2524L92.1091 78.7144C92.4717 77.3959 93.4935 76.5279 94.3945 76.7916L115.677 76.0664C116.578 76.3301 117.029 77.6266 116.666 78.9561L115.71 82.4941C115.348 83.8126 114.326 84.6806 113.425 84.4169L92.1421 85.1311C91.2411 84.8674 90.8016 83.5708 91.1532 82.2524Z" fill="#373382"/>
<path d="M87.4944 70.0014L90.8565 69.2543C92.1091 68.9686 93.2188 69.1554 93.3067 69.6608L99.0861 82.8458C99.174 83.3512 98.2291 83.9994 96.9656 84.2741L93.6034 85.0213C92.3508 85.3069 91.2411 85.1202 91.1532 84.6147L85.3738 71.4298C85.2859 70.9244 86.2418 70.2761 87.4944 70.0014Z" fill="#373382"/>
<path d="M118.418 80.5594C118.692 78.166 117.105 76.0191 114.875 75.7643C112.644 75.5095 110.614 77.2431 110.341 79.6365C110.067 82.03 111.654 84.1768 113.884 84.4316C116.115 84.6865 118.145 82.9528 118.418 80.5594Z" fill="#373382"/>
<path d="M89.3182 72.836C87.0878 73.2095 85.4726 72.77 85.165 70.3857C84.8463 68.0125 86.3956 65.771 88.615 65.3974C90.8455 65.0239 92.9001 66.639 93.2188 69.0233C93.5374 71.3856 91.5377 72.4514 89.3182 72.836Z" fill="#373382"/>
<path d="M121.599 149.88L115.611 152.297C114.589 152.704 113.996 153.769 114.084 154.868L114.117 155.242L125.654 155.033L121.599 149.88Z" fill="#B59FFF"/>
<path d="M114.084 156V154.407H130.389V156" fill="#373382"/>
<path d="M121.138 154.846L118.973 150.946L117.073 151.715L118.446 154.846H121.138Z" fill="#373382"/>
<path d="M109.392 109.424L121.138 111.303L130.214 151.715C130.895 154.769 129.565 154.417 126.434 154.417H122.698L110.03 111.5L109.392 109.424Z" fill="#B59FFF"/>
<path d="M99.4376 148.924L91.131 152.297C90.1092 152.704 89.5159 153.769 89.6038 154.868L89.6368 155.242L101.174 155.033L99.4376 148.924Z" fill="#B59FFF"/>
<path d="M89.593 155.999V154.406H105.887V155.999" fill="#373382"/>
<path d="M96.6359 154.845L94.4714 150.945L92.5706 151.714L93.955 154.845H96.6359Z" fill="#373382"/>
<path d="M106.096 110.512L113.974 111.765L105.712 151.704C105.668 154.945 104.327 154.594 101.954 154.407H98.2181L102.877 111.963L106.096 110.512Z" fill="#B59FFF"/>
<path d="M112.919 67.5837C109.338 67.4408 106.525 64.4083 106.668 60.8264L106.92 54.2889C108.36 50.63 110.03 49.6082 113.612 49.74C117.194 49.8829 120.072 51.2124 119.929 54.7833L119.677 61.3208C119.545 64.9137 116.501 67.7265 112.919 67.5837Z" fill="#B59FFF"/>
<path d="M100.174 128.575C116.128 133.432 128.269 128.608 128.269 128.608C128.269 128.608 126.016 110.27 124.05 101.733C122.083 93.2067 119.633 77.0771 119.633 77.0771C119.006 73.5171 116.413 70.9461 113.326 70.8252L107.25 70.5945C102.844 70.4187 100.888 75.8685 101.778 80.9447L103.932 100.766C103.932 100.777 101.163 116.797 100.174 128.575Z" fill="#FF2475"/>
<path d="M107.228 53.8164C107.228 53.8164 105.25 57.4972 103.877 60.5517C103.734 60.8704 104.074 61.211 104.426 61.222L106.931 61.3208L107.228 53.8164Z" fill="#B59FFF"/>
<path d="M117.984 64.8257L116.237 71.9786L108.689 71.6819L110.282 64.584L117.984 64.8257Z" fill="#B59FFF"/>
<path d="M118.149 60.6067L116.062 60.5298L113.667 64.1996C113.414 64.5842 112.985 64.7929 112.535 64.7709L108.81 64.5292C108.371 64.4743 107.997 64.1886 107.821 63.7821L107.59 63.2327L107.03 63.2107L104.02 74.1213C103.58 75.6595 104.69 77.1978 106.283 77.2527L107.162 77.2857C108.085 77.3186 108.942 76.8462 109.392 76.0441L114.062 67.8035L118.149 60.6067Z" fill="#373382"/>
<path d="M119.149 65.5948C121.856 65.5948 124.05 63.4008 124.05 60.6944C124.05 57.9879 121.856 55.7939 119.149 55.7939C116.443 55.7939 114.249 57.9879 114.249 60.6944C114.249 63.4008 116.443 65.5948 119.149 65.5948Z" fill="#373382"/>
<path d="M110.975 51.8497C111.084 48.982 113.447 48.1579 116.315 48.2678C119.182 48.3777 121.413 50.8938 121.303 53.7615C121.193 56.6292 118.831 57.3544 115.963 57.2445C113.095 57.1347 110.865 54.7174 110.975 51.8497Z" fill="#373382"/>
<path d="M106.678 62.1229L108.052 62.1778L109.733 63.8699L110.249 63.3645L108.865 61.7823C108.645 61.5406 108.348 61.3867 108.019 61.3757L106.601 61.3208L106.678 62.1229Z" fill="#373382"/>
<path d="M102.921 94.041L103.25 104.226H124.621L122.676 93.7114L102.921 94.041Z" fill="#373382"/>
<path d="M93.8449 80.3627L94.8008 76.8247C95.1634 75.5062 96.1852 74.6382 97.0862 74.9019L118.369 74.1768C119.27 74.4405 119.72 75.737 119.358 77.0665L118.402 80.6044C118.039 81.9229 117.017 82.7909 116.116 82.5272L94.8337 83.2524C93.9328 82.9777 93.4823 81.6812 93.8449 80.3627Z" fill="#B59FFF"/>
<path d="M90.1862 68.1113L92.6804 67.474C93.933 67.1883 94.1747 67.3861 94.7351 68.4299L101.778 80.9446C101.866 81.4501 100.921 82.0983 99.6574 82.373L96.2953 83.1202C95.0427 83.4058 93.933 83.219 93.8451 82.7136L88.0657 69.5287C87.9778 69.0342 88.9337 68.386 90.1862 68.1113Z" fill="#B59FFF"/>
<path d="M121.106 78.6668C121.379 76.2734 119.793 74.1265 117.562 73.8717C115.332 73.6169 113.302 75.3505 113.028 77.744C112.755 80.1374 114.341 82.2842 116.572 82.5391C118.803 82.7939 120.833 81.0602 121.106 78.6668Z" fill="#B59FFF"/>
<path d="M94.1198 67.6168L90.7796 64.1338C90.0874 63.4086 89.1864 62.9142 88.1976 62.7054L85.6045 62.167C84.8793 62.0132 84.2201 62.6065 84.297 63.3427L84.7585 68.0673C84.7915 68.4409 85.0112 68.7595 85.3518 68.9353L88.5602 70.5834L94.1198 67.6168Z" fill="#B59FFF"/>
</svg>
