<svg width="72" height="84" viewBox="0 0 72 84" fill="none" xmlns="http://www.w3.org/2000/svg">
<path d="M30.6856 44.0122L31.6658 42.3396C32.0334 41.7136 31.9794 41.0094 31.5433 40.7649L23.9222 32.4803C23.486 32.2357 22.8293 32.5487 22.4519 33.1747L21.4717 34.8473C21.1041 35.4684 21.163 36.1775 21.5991 36.4172L29.2202 44.7311C29.6662 44.9463 30.318 44.648 30.6856 44.0122Z" fill="#373382"/>
<path d="M36.6709 40.8538L35.6907 39.3083C35.328 38.7312 34.8477 38.384 34.6272 38.5356L27.5207 41.2254C27.2953 41.377 27.408 41.9737 27.7658 42.5508L28.746 44.0962C29.1038 44.6733 29.584 45.0205 29.8095 44.8689L36.9159 42.2035C37.1414 42.0275 37.0336 41.4308 36.6709 40.8538Z" fill="#373382"/>
<path d="M24.5641 35.826C25.3662 34.8372 25.2677 33.4308 24.3442 32.6848C23.4206 31.9387 22.0216 32.1355 21.2195 33.1243C20.4173 34.1131 20.5158 35.5195 21.4394 36.2655C22.363 37.0115 23.7619 36.8148 24.5641 35.826Z" fill="#373382"/>
<path d="M34.9234 41.2235C35.6046 42.2016 36.3937 42.6467 37.3739 41.8838C37.8587 41.5351 38.1914 41.0145 38.3035 40.4287C38.4156 39.843 38.2987 39.2366 37.9767 38.7342C37.8048 38.501 37.5872 38.305 37.3371 38.1582C37.087 38.0114 36.8097 37.9168 36.5218 37.8802C36.234 37.8436 35.9417 37.8658 35.6628 37.9453C35.3838 38.0249 35.1239 38.1602 34.8989 38.343C33.904 39.0913 34.2422 40.2454 34.9234 41.2235Z" fill="#373382"/>
<path d="M22.1432 13.4273L35.4641 29.2042L42.7078 35.963L32.6068 44.2573L22.305 29.3509L12.6157 22.4748L22.1432 13.4273Z" fill="#FFBE44"/>
<path d="M21 14.5119L32.7722 28.5184L41.7165 36.7737" stroke="#FFDB45" stroke-width="0.94" stroke-miterlimit="10"/>
<path d="M14.0449 21.1189L23.2293 28.3276L34.2075 42.9405" stroke="#FFDB45" stroke-width="0.94" stroke-miterlimit="10"/>
<path d="M36.3262 41.1316L24.8824 27.487L16.0361 19.2269" stroke="#FFDB45" stroke-width="0.94" stroke-miterlimit="10"/>
<path d="M17.8296 17.5259L26.1809 26.7691L38.2667 39.6068" stroke="#FFDB45" stroke-width="0.94" stroke-miterlimit="10"/>
<path d="M19.6475 15.7951L27.4008 25.3708L39.9767 38.2036" stroke="#FFDB45" stroke-width="0.94" stroke-miterlimit="10"/>
<path d="M34.2058 27.7128L25.6929 34.2514" stroke="#17154E" stroke-width="1.17" stroke-miterlimit="10"/>
<path d="M24.3406 52.4032L19.9517 46.4305" stroke="#17154E" stroke-width="1.17" stroke-miterlimit="10"/>
<path d="M22.7781 46.4126L27.4438 56.6094C27.6863 56.9627 27.8499 57.3639 27.9235 57.7858C27.997 58.2077 27.9789 58.6404 27.8702 59.0547C27.76 59.5297 27.5329 59.9698 27.2095 60.3353C26.886 60.7007 26.4764 60.98 26.0176 61.1478L16.2794 64.1457L14.9316 60.6001C15.0787 60.0181 15.4462 59.935 15.9608 59.7589L22.7781 57.6119L16.6813 48.0216L22.7781 46.4126Z" fill="#B59FFF"/>
<path d="M9.30771 70.3932L12.4738 71.6697C12.7356 71.7815 12.9551 71.9734 13.1004 72.2178C13.2458 72.4622 13.3095 72.7464 13.2824 73.0293V73.2249L7.17578 73.1173L9.30771 70.3932Z" fill="#B59FFF"/>
<path d="M13.2825 73.6247V72.7835H4.65674V73.6247" fill="#373382"/>
<path d="M9.55518 73.0142L10.702 70.9553L11.7067 71.3612L10.9814 73.0142H9.55518Z" fill="#373382"/>
<path d="M16.6835 64.0262L14.7231 66.9116C14.5568 67.1406 14.3222 67.3112 14.0528 67.3991C13.7834 67.4869 13.4931 67.4875 13.2234 67.4007L13.0322 67.342L14.9534 60.593L16.6835 64.0262Z" fill="#B59FFF"/>
<path d="M12.6147 67.2943L13.443 67.4703L15.0114 60.1883L14.1831 60.0123" fill="#373382"/>
<path d="M14.0021 63.785L15.7762 65.3304L15.1685 66.2303L13.7031 65.1739L14.0021 63.785Z" fill="#373382"/>
<path d="M15.7727 49.0482L9.55333 50.0263L4.76507 71.3589C4.4024 72.9728 5.09834 72.8261 6.75487 72.8261H8.71527L15.4296 50.1241L15.7727 49.0482Z" fill="#B59FFF"/>
<path d="M23.9035 26.6872C24.7969 26.8775 25.7296 26.7071 26.4974 26.2131C27.2652 25.7191 27.8057 24.9418 28.0007 24.0511L28.7261 20.6669C28.4663 18.608 27.7459 17.8646 25.8933 17.4636C24.0407 17.0674 22.3842 17.3755 21.9725 19.2242L21.2471 22.6035C21.1502 23.0459 21.1422 23.503 21.2235 23.9485C21.3049 24.3939 21.474 24.8189 21.721 25.1987C21.9681 25.5785 22.2882 25.9056 22.6628 26.1611C23.0374 26.4166 23.4591 26.5954 23.9035 26.6872Z" fill="#B59FFF"/>
<path d="M27.8007 55.186C20.41 59.2598 7.15771 55.367 7.15771 55.367C7.15771 55.367 9.93657 46.0456 12.0587 41.9375C14.1808 37.8295 19.2092 30.6893 19.2092 30.6893C19.9983 28.9531 21.6597 27.975 23.2672 28.3174L26.4186 28.9923C28.6975 29.4813 29.8248 32.3716 28.6975 34.8609L24.1592 44.8816C24.1592 44.8816 26.3941 51.2345 27.8007 55.186Z" fill="#FF2475"/>
<path d="M28.6344 20.3892C28.6344 20.3892 29.1687 22.5313 29.4725 24.2772C29.5019 24.4582 29.2814 24.5902 29.1 24.5511L27.8013 24.2723L28.6344 20.3892Z" fill="#B59FFF"/>
<path d="M21.673 24.6097L21.6338 28.5026L25.535 29.3388L25.6526 25.4949L21.673 24.6097Z" fill="#B59FFF"/>
<path d="M22.1396 22.4293L23.2228 22.664L23.9677 24.855C24.0037 24.9647 24.0679 25.0631 24.1539 25.1403C24.2399 25.2175 24.3447 25.2709 24.4578 25.2951L26.4182 25.6619C26.5328 25.6752 26.649 25.6588 26.7555 25.6143C26.8619 25.5697 26.9551 25.4985 27.0259 25.4076L27.2121 25.1582L27.5062 25.2169L27.6189 31.198C27.6247 31.3948 27.5856 31.5904 27.5046 31.77C27.4236 31.9495 27.3028 32.1084 27.1513 32.2346C26.9998 32.3608 26.8216 32.4511 26.6301 32.4985C26.4386 32.546 26.2388 32.5495 26.0457 32.5087L25.5899 32.4109C25.3575 32.3592 25.1435 32.2455 24.9708 32.0818C24.7982 31.9181 24.6733 31.7107 24.6097 31.4817L23.2963 26.6547L22.1396 22.4293Z" fill="#373382"/>
<path d="M21.6161 24.9382C23.0507 24.9382 24.2136 23.7778 24.2136 22.3463C24.2136 20.9147 23.0507 19.7543 21.6161 19.7543C20.1815 19.7543 19.0186 20.9147 19.0186 22.3463C19.0186 23.7778 20.1815 24.9382 21.6161 24.9382Z" fill="#373382"/>
<path d="M26.9718 18.8879C27.2904 17.4208 26.1877 16.6725 24.6978 16.3546C23.9769 16.2126 23.2291 16.3592 22.6156 16.7628C22.0022 17.1663 21.5724 17.7943 21.419 18.5114C21.1004 19.9785 22.213 20.6779 23.698 20.9958C24.4121 21.1483 25.1577 21.0121 25.7714 20.617C26.3851 20.2219 26.8168 19.6001 26.9718 18.8879Z" fill="#373382"/>
<path d="M27.8243 24.7132L27.1136 24.5567L26.0305 25.2023L25.8345 24.8746L26.751 24.2486C26.8219 24.2004 26.9019 24.1669 26.9861 24.1501C27.0703 24.1333 27.157 24.1336 27.2411 24.1508L27.9713 24.3073L27.8243 24.7132Z" fill="#373382"/>
<path d="M26.0166 40.6849L24.5169 45.8542L10.5933 44.6462C11.208 42.7258 12.1973 40.9457 13.5044 39.4084L26.0166 40.6849Z" fill="#373382"/>
<path d="M32.0119 35.7295L31.9874 33.7733C31.9874 33.0495 31.561 32.4724 31.0611 32.492L20.2447 29.3327C19.7546 29.3327 19.3478 29.9587 19.3576 30.6825L19.387 32.6387C19.387 33.3576 19.8085 33.9347 20.3084 33.92L31.1249 37.0744C31.6248 37.0598 32.0217 36.4533 32.0119 35.7295Z" fill="#B59FFF"/>
<path d="M35.4969 29.9315L33.8698 29.1099C33.2621 28.8018 32.674 28.7529 32.5612 28.9974L27.8661 34.9883C27.7534 35.2328 28.1553 35.6877 28.763 35.9958L30.3901 36.8223C30.9978 37.1304 31.5859 37.1793 31.6987 36.9299L36.3938 30.9536C36.5065 30.6944 36.1292 30.2396 35.4969 29.9315Z" fill="#B59FFF"/>
<path d="M23.2668 32.3497C23.4453 31.0903 22.6363 29.9348 21.46 29.7688C20.2836 29.6028 19.1852 30.4892 19.0068 31.7486C18.8283 33.008 19.6372 34.1636 20.8136 34.3296C21.99 34.4956 23.0883 33.6092 23.2668 32.3497Z" fill="#B59FFF"/>
<path d="M34.1925 31.1453C35.2854 31.6344 36.1529 31.6344 36.643 30.4362C36.8775 29.8874 36.8924 29.2697 36.6845 28.7103C36.4767 28.1509 36.0619 27.6922 35.5255 27.4285C35.2575 27.3181 34.9699 27.2631 34.6799 27.2667C34.39 27.2703 34.1038 27.3325 33.8386 27.4495C33.5735 27.5665 33.3348 27.7359 33.137 27.9475C32.9392 28.159 32.7864 28.4084 32.6879 28.6805C32.2076 29.8591 33.0995 30.6612 34.1925 31.1453Z" fill="#B59FFF"/>
<path d="M50.6566 45.0355L51.1467 43.1624C51.3329 42.468 51.8818 42.0131 52.3572 42.1501L63.6295 41.7686C64.1196 41.9104 64.3401 42.5951 64.1539 43.2945L63.6638 45.1627C63.4776 45.862 62.9287 46.3168 62.4533 46.175L51.181 46.5564C50.7056 46.4195 50.4704 45.7299 50.6566 45.0355Z" fill="#373382"/>
<path d="M48.4212 37.5285L49.9356 36.7754C50.6021 36.6286 51.7489 38.1154 51.798 38.3795L54.8562 45.3436C54.9052 45.6126 54.4004 45.9549 53.7387 46.1016L51.9548 46.4978C51.2931 46.6445 50.7099 46.5467 50.6609 46.2826L48.1761 38.8734C48.1271 38.6044 47.7595 37.6801 48.4212 37.5285Z" fill="#373382"/>
<path d="M65.0915 44.1451C65.2363 42.8811 64.3966 41.7474 63.216 41.6128C62.0355 41.4781 60.9611 42.3936 60.8163 43.6575C60.6716 44.9214 61.5112 46.0552 62.6918 46.1898C63.8724 46.3245 64.9468 45.409 65.0915 44.1451Z" fill="#373382"/>
<path d="M64.4362 30.0734L63.8726 40.7788" stroke="#17154E" stroke-width="1.17" stroke-miterlimit="10"/>
<path d="M66.7746 80.7666L63.6085 82.043C63.3462 82.1542 63.1263 82.346 62.9809 82.5905C62.8354 82.8351 62.772 83.1196 62.7999 83.4026V83.5982L68.9114 83.4907L66.7746 80.7666Z" fill="#B59FFF"/>
<path d="M62.7959 84V83.1588H71.4265V84" fill="#373382"/>
<path d="M66.5265 83.3875L65.3846 81.3286L64.375 81.7345L65.1052 83.3875H66.5265Z" fill="#373382"/>
<path d="M60.3076 59.3935L66.5221 60.3716L71.3299 81.7188C71.6926 83.3327 70.982 83.1469 69.3254 83.1469H67.365L60.6409 60.489L60.3076 59.3935Z" fill="#B59FFF"/>
<path d="M55.038 80.2585L50.6271 82.0436C50.3648 82.1547 50.1449 82.3466 49.9994 82.5911C49.854 82.8357 49.7905 83.1202 49.8184 83.4032V83.5988L55.9299 83.4912L55.038 80.2585Z" fill="#B59FFF"/>
<path d="M49.8276 83.9995V83.1583H58.4583V83.9995" fill="#373382"/>
<path d="M53.5641 83.3889L52.4173 81.33L51.4077 81.7359L52.138 83.3889H53.5641Z" fill="#373382"/>
<path d="M58.5677 59.9668L62.7384 60.627L58.3618 81.7297C58.3373 83.4414 57.6267 83.2605 56.372 83.1578H54.4116L56.8621 60.7346L58.5677 59.9668Z" fill="#B59FFF"/>
<path d="M62.1801 37.3124C61.267 37.2755 60.4057 36.8791 59.7848 36.21C59.1639 35.5409 58.8339 34.6536 58.867 33.7423L59.0042 30.2847C59.7639 28.3285 60.651 27.815 62.5427 27.8883C62.9955 27.9034 63.4408 28.0079 63.8529 28.1956C64.2649 28.3833 64.6357 28.6506 64.9437 28.9821C65.2517 29.3135 65.4909 29.7026 65.6475 30.1268C65.804 30.551 65.8748 31.0019 65.8558 31.4535L65.7578 34.0113C65.7183 34.9212 65.3201 35.7786 64.65 36.3969C63.9799 37.0152 63.0922 37.3442 62.1801 37.3124Z" fill="#B59FFF"/>
<path d="M55.4355 69.5121C63.88 72.0747 70.3101 69.5121 70.3101 69.5121C70.3101 69.5121 69.1142 59.8239 68.0752 55.3295C67.0362 50.8351 65.7375 42.3011 65.7375 42.3011C65.4042 40.4231 64.0319 39.0635 62.395 39L59.175 38.8777C56.8421 38.7897 55.8031 41.6653 56.2785 44.3453L57.4155 54.8209C57.4155 54.8209 55.96 63.2864 55.4355 69.5121Z" fill="#FFBE44"/>
<path d="M59.1719 30.0153C59.1719 30.0153 58.128 31.9715 57.3978 33.5756C57.3194 33.7419 57.5056 33.9229 57.6918 33.9278L59.02 33.9816L59.1719 30.0153Z" fill="#B59FFF"/>
<path d="M64.8605 35.8239L63.9293 39.6043L59.9399 39.4527L60.778 35.6968L64.8605 35.8239Z" fill="#B59FFF"/>
<path d="M64.946 33.6015L63.8433 33.5575L62.5739 35.5137C62.5101 35.6123 62.421 35.692 62.3158 35.7445C62.2106 35.7969 62.0932 35.8203 61.9759 35.812L60.0155 35.6849C59.9016 35.6688 59.7936 35.624 59.7018 35.5547C59.6101 35.4854 59.5376 35.3938 59.4912 35.2887L59.3686 35.0002H59.0696L57.4621 40.7368C57.4077 40.9259 57.3971 41.1249 57.4312 41.3187C57.4652 41.5125 57.5431 41.696 57.6588 41.8553C57.7745 42.0146 57.9251 42.1455 58.099 42.2381C58.273 42.3307 58.4658 42.3826 58.6629 42.3898H59.1285C59.3666 42.3993 59.6029 42.3431 59.8112 42.2275C60.0195 42.1119 60.192 41.9414 60.3096 41.7345L62.7601 37.3819L64.946 33.6015Z" fill="#373382"/>
<path d="M65.475 36.237C66.9095 36.237 68.0725 35.0766 68.0725 33.645C68.0725 32.2135 66.9095 31.053 65.475 31.053C64.0404 31.053 62.8774 32.2135 62.8774 33.645C62.8774 35.0766 64.0404 36.237 65.475 36.237Z" fill="#373382"/>
<path d="M58.8718 34.4027H59.5971L60.4891 35.2977L60.7635 35.0287L60.0284 34.1924C59.9118 34.065 59.7501 33.9879 59.5775 33.9772H58.8276L58.8718 34.4027Z" fill="#373382"/>
<path d="M56.8848 51.2636L57.0612 56.6383H68.3776L67.3434 51.0875L56.8848 51.2636Z" fill="white"/>
<path d="M52.0787 44.0357L52.5688 42.1626C52.76 41.4681 53.304 41.0084 53.7794 41.1503L65.0517 40.7688C65.5418 40.9106 65.7672 41.5953 65.5761 42.2897L65.086 44.1628C64.8948 44.8622 64.3508 45.317 63.8705 45.1752L52.5982 45.5566C52.1228 45.4197 51.8876 44.7301 52.0787 44.0357Z" fill="#B59FFF"/>
<path d="M50.1391 37.5617L51.923 37.1655C52.5847 37.0188 53.1679 37.1166 53.2169 37.3807L56.28 44.3449C56.329 44.6138 55.8242 44.9513 55.1577 45.1029L53.3786 45.499C52.7121 45.6457 52.1289 45.5479 52.0799 45.2838L50.3106 38.5006C50.2616 38.2317 49.4774 37.7084 50.1391 37.5617Z" fill="#B59FFF"/>
<path d="M66.5139 43.1396C66.6587 41.8756 65.819 40.7418 64.6384 40.6072C63.4578 40.4726 62.3834 41.3881 62.2387 42.652C62.0939 43.9159 62.9336 45.0497 64.1142 45.1843C65.2947 45.319 66.3691 44.4035 66.5139 43.1396Z" fill="#B59FFF"/>
<path d="M27.531 73.5065H0V82.6647H27.531V73.5065Z" fill="#FFBE44"/>
<path d="M47.4791 73.5065H28.7261V82.6647H47.4791V73.5065Z" fill="#FFBE44"/>
<path d="M51.8705 72.7123H21.1475V64.7811L51.8705 62.7578V72.7123Z" fill="#FFBE44"/>
<path d="M21.1475 65.5438L51.8705 63.951" stroke="#FFDB45" stroke-width="0.94" stroke-miterlimit="10"/>
<path d="M21.1475 67.1369L51.8705 65.9424" stroke="#FFDB45" stroke-width="0.94" stroke-miterlimit="10"/>
<path d="M21.1475 68.7292L51.8705 67.5347" stroke="#FFDB45" stroke-width="0.94" stroke-miterlimit="10"/>
<path d="M21.1475 70.3212L51.8705 69.923" stroke="#FFDB45" stroke-width="0.94" stroke-miterlimit="10"/>
<path d="M51.8705 71.9154L21.1475 71.5172" stroke="#FFDB45" stroke-width="0.94" stroke-miterlimit="10"/>
<path d="M0 74.7017H27.531" stroke="#FFDB45" stroke-width="0.94" stroke-miterlimit="10"/>
<path d="M0 75.8969H27.531" stroke="#FFDB45" stroke-width="0.94" stroke-miterlimit="10"/>
<path d="M0 77.4892H27.531" stroke="#FFDB45" stroke-width="0.94" stroke-miterlimit="10"/>
<path d="M0 79.0814H27.531" stroke="#FFDB45" stroke-width="0.94" stroke-miterlimit="10"/>
<path d="M0 80.6737H27.531" stroke="#FFDB45" stroke-width="0.94" stroke-miterlimit="10"/>
<path d="M0 81.8688H27.531" stroke="#FFDB45" stroke-width="0.94" stroke-miterlimit="10"/>
<path d="M28.7261 74.7017H47.4791" stroke="#FFDB45" stroke-width="0.94" stroke-miterlimit="10"/>
<path d="M28.7261 75.8969H47.4791" stroke="#FFDB45" stroke-width="0.94" stroke-miterlimit="10"/>
<path d="M28.7261 77.4892H47.4791" stroke="#FFDB45" stroke-width="0.94" stroke-miterlimit="10"/>
<path d="M28.7261 79.0814H47.4791" stroke="#FFDB45" stroke-width="0.94" stroke-miterlimit="10"/>
<path d="M28.7261 80.6737H47.4791" stroke="#FFDB45" stroke-width="0.94" stroke-miterlimit="10"/>
<path d="M28.7261 81.8688H47.4791" stroke="#FFDB45" stroke-width="0.94" stroke-miterlimit="10"/>
<path d="M39.1037 73.5065L38.3057 82.6647" stroke="#17154E" stroke-width="1.1" stroke-linecap="round" stroke-linejoin="round"/>
<path d="M36.7104 73.9076L39.9024 83.0657" stroke="#17154E" stroke-width="1.1" stroke-linecap="round" stroke-linejoin="round"/>
<path d="M17.5557 73.5065L14.7627 82.6647" stroke="#17154E" stroke-width="1.1" stroke-linecap="round" stroke-linejoin="round"/>
<path d="M14.7627 73.5065L16.7577 82.6647" stroke="#17154E" stroke-width="1.1" stroke-linecap="round" stroke-linejoin="round"/>
<path d="M37.5087 63.5522L35.5137 72.7103" stroke="#17154E" stroke-width="1.08" stroke-linecap="round" stroke-linejoin="round"/>
<path d="M33.5145 63.951L31.9185 72.711" stroke="#17154E" stroke-width="1.08" stroke-linecap="round" stroke-linejoin="round"/>
<path d="M31.9185 63.951L37.9034 73.1092" stroke="#17154E" stroke-width="1.08" stroke-linecap="round" stroke-linejoin="round"/>
<path d="M46.8222 34.3773C46.8005 34.4122 46.7864 34.4509 46.7805 34.4911C46.7746 34.5314 46.7772 34.5723 46.788 34.6116C46.7988 34.6509 46.8176 34.6877 46.8434 34.7199C46.8693 34.752 46.9015 34.779 46.9383 34.799L48.195 35.5358C48.1884 35.5498 48.1799 35.5628 48.1697 35.5746L48.0688 35.7346L47.3874 35.3371L47.2915 35.2789L45.3081 34.1301C45.2784 34.1113 45.245 34.0984 45.2101 34.0921C45.1751 34.0858 45.1392 34.0863 45.1044 34.0935C45.0696 34.1007 45.0367 34.1145 45.0075 34.1341C44.9784 34.1537 44.9536 34.1787 44.9346 34.2076C44.8998 34.2676 44.8908 34.3382 44.9097 34.4044C44.9286 34.4706 44.9738 34.527 45.0355 34.5615L46.696 35.531L46.5698 35.7297L44.7731 34.7021C44.744 34.6799 44.7104 34.6639 44.6744 34.6552C44.6384 34.6464 44.6009 34.6451 44.5643 34.6513C44.5278 34.6575 44.493 34.6711 44.4623 34.6912C44.4316 34.7112 44.4057 34.7373 44.3863 34.7677C44.3669 34.7981 44.3544 34.8321 44.3497 34.8675C44.345 34.9028 44.3481 34.9388 44.3589 34.9729C44.3697 35.007 44.3879 35.0385 44.4123 35.0654C44.4368 35.0922 44.4668 35.1138 44.5006 35.1286L46.3175 36.1563L46.2064 36.3356L44.6924 35.4437C44.6328 35.4084 44.561 35.3972 44.4929 35.4126C44.4248 35.4281 44.3658 35.4689 44.329 35.5261C44.2922 35.5833 44.2805 35.6523 44.2966 35.7177C44.3127 35.7832 44.3552 35.8398 44.4148 35.8751L45.9289 36.7671L45.8935 36.8252C45.8692 36.8653 45.849 36.9075 45.833 36.9513L44.7883 36.3405C44.7285 36.3033 44.6559 36.2901 44.5861 36.3037C44.5163 36.3173 44.4548 36.3566 44.4148 36.4132C44.3797 36.4738 44.3706 36.5452 44.3895 36.6122C44.4083 36.6792 44.4536 36.7365 44.5157 36.7719L46.1509 37.7414L46.5749 37.9886L46.9584 38.2164C47.3317 38.4443 47.7836 38.5213 48.2157 38.4305C48.6477 38.3397 49.0249 38.0885 49.2649 37.7317L49.5223 37.3293L49.7242 37.0143C49.8759 36.7562 49.9155 36.451 49.8342 36.1651C49.7529 35.8791 49.5574 35.6356 49.2902 35.4873L49.2296 35.4486L49.1185 35.3856L47.2613 34.2901C47.1906 34.2472 47.1053 34.2323 47.0234 34.2486C46.9415 34.2649 46.8694 34.311 46.8222 34.3773Z" fill="#373382"/>
<path d="M50.0155 34.7778C49.9736 34.8492 49.9628 34.9337 49.9855 35.0128C50.0082 35.0919 50.0625 35.1591 50.1365 35.1998L51.392 35.9371C51.3818 35.9489 51.3733 35.962 51.3668 35.9759L51.266 36.136L50.5853 35.7383L50.4844 35.68L48.528 34.5255C48.4673 34.49 48.3948 34.4783 48.3254 34.4927C48.2559 34.5072 48.1949 34.5467 48.1549 34.6031C48.1201 34.6631 48.1112 34.7338 48.13 34.8C48.1489 34.8663 48.194 34.9227 48.2557 34.9572L49.9146 35.9274L49.7886 36.1263L47.9986 35.0737C47.9695 35.0515 47.9359 35.0355 47.9 35.0267C47.864 35.018 47.8265 35.0167 47.79 35.0229C47.7535 35.0291 47.7187 35.0427 47.6881 35.0627C47.6574 35.0828 47.6315 35.1089 47.6121 35.1393C47.5927 35.1697 47.5803 35.2038 47.5755 35.2392C47.5708 35.2746 47.5739 35.3105 47.5847 35.3447C47.5955 35.3788 47.6137 35.4103 47.6381 35.4372C47.6625 35.4641 47.6926 35.4857 47.7263 35.5006L49.5163 36.5532L49.4003 36.7327L47.8876 35.8401C47.858 35.8213 47.8247 35.8084 47.7897 35.8021C47.7548 35.7958 47.7189 35.7963 47.6841 35.8035C47.6494 35.8107 47.6165 35.8246 47.5874 35.8442C47.5582 35.8638 47.5335 35.8888 47.5145 35.9177C47.4797 35.9777 47.4708 36.0484 47.4897 36.1146C47.5085 36.1809 47.5537 36.2373 47.6154 36.2719L49.128 37.1644L49.0877 37.2226C49.0634 37.2627 49.0432 37.305 49.0272 37.3488L47.9834 36.7375C47.9538 36.7187 47.9205 36.7058 47.8855 36.6995C47.8506 36.6932 47.8147 36.6937 47.7799 36.7009C47.7452 36.7082 47.7123 36.722 47.6832 36.7416C47.654 36.7612 47.6293 36.7862 47.6103 36.8152C47.5755 36.8751 47.5666 36.9458 47.5855 37.0121C47.6043 37.0783 47.6495 37.1348 47.7112 37.1693L49.3449 38.1395L49.7684 38.3869L50.1516 38.6149C50.5253 38.8432 50.9776 38.9203 51.4101 38.8295C51.8425 38.7387 52.2202 38.4872 52.461 38.1298L52.7131 37.7271L52.9148 37.4118C53.0664 37.1536 53.1059 36.8481 53.0247 36.562C52.9435 36.2758 52.7481 36.0321 52.4811 35.8838L52.4156 35.845L52.3097 35.7819L50.4491 34.6904C50.3793 34.6478 50.2949 34.6331 50.2139 34.6494C50.1329 34.6657 50.0617 34.7117 50.0155 34.7778Z" fill="#B59FFF"/>
<path d="M60.6111 32.0018C60.6111 32.0018 59.8466 31.2046 59.2046 31.9431C59.3883 32.1283 59.6354 32.2373 59.8963 32.2482C60.1572 32.259 60.4126 32.171 60.6111 32.0018Z" fill="white"/>
<path d="M59.7096 32.225C59.8774 32.225 60.0135 32.0893 60.0135 31.9218C60.0135 31.7543 59.8774 31.6186 59.7096 31.6186C59.5418 31.6186 59.4058 31.7543 59.4058 31.9218C59.4058 32.0893 59.5418 32.225 59.7096 32.225Z" fill="white"/>
<path d="M59.3359 30.6725V31.0931L60.6788 31.2349L61.3796 31.5626L61.4629 31.274L60.7425 30.7801L59.3359 30.6725Z" fill="#373382"/>
<path d="M59.7072 32.2212C59.875 32.2212 60.011 32.0855 60.011 31.918C60.011 31.7506 59.875 31.6148 59.7072 31.6148C59.5394 31.6148 59.4033 31.7506 59.4033 31.918C59.4033 32.0855 59.5394 32.2212 59.7072 32.2212Z" fill="#373382"/>
<path d="M27.9354 22.0915C27.9354 22.0915 27.1708 21.2943 26.5288 22.0279C26.7119 22.2138 26.9587 22.3237 27.2196 22.3355C27.4805 22.3473 27.7362 22.2601 27.9354 22.0915Z" fill="white"/>
<path d="M27.0387 22.3157C27.2066 22.3157 27.3426 22.18 27.3426 22.0125C27.3426 21.845 27.2066 21.7093 27.0387 21.7093C26.8709 21.7093 26.7349 21.845 26.7349 22.0125C26.7349 22.18 26.8709 22.3157 27.0387 22.3157Z" fill="white"/>
<path d="M28.3383 21.1439L28.2452 21.5596L26.9023 21.4129L26.1475 21.584L26.1279 21.2808L26.9366 20.9482L28.3383 21.1439Z" fill="#373382"/>
<path d="M27.4269 22.3172C27.5947 22.3172 27.7308 22.1814 27.7308 22.014C27.7308 21.8465 27.5947 21.7108 27.4269 21.7108C27.2591 21.7108 27.123 21.8465 27.123 22.014C27.123 22.1814 27.2591 22.3172 27.4269 22.3172Z" fill="#373382"/>
<path d="M63.7181 28.2065C63.7181 28.2065 62.1465 26.4835 61.0987 27.0264C60.0509 27.5692 60.2657 28.5133 60.2657 28.5133L63.8386 28.2419" fill="#373382"/>
<path d="M64.7794 28.9119C64.7794 28.9119 67.5885 31.0352 67.823 32.5849C68.0575 34.1345 63.043 32.6535 63.043 32.6535L64.7794 28.9119Z" fill="#373382"/>
<path d="M59.2316 29.309L64.2398 29.9085L63.9367 30.5036L59.0527 29.9085L59.2316 29.309Z" fill="#FFBE44"/>
<path d="M48.3036 28.779C49.6122 28.779 50.673 27.7204 50.673 26.4146C50.673 25.1088 49.6122 24.0502 48.3036 24.0502C46.9949 24.0502 45.9341 25.1088 45.9341 26.4146C45.9341 27.7204 46.9949 28.779 48.3036 28.779Z" fill="#4420D8"/>
<path d="M48.3036 28.5861C49.6122 28.5861 50.673 27.5275 50.673 26.2217C50.673 24.9158 49.6122 23.8572 48.3036 23.8572C46.9949 23.8572 45.9341 24.9158 45.9341 26.2217C45.9341 27.5275 46.9949 28.5861 48.3036 28.5861Z" fill="#FFBE44"/>
<rect x="37.4053" y="15.3453" width="21.8153" height="21.7688"/>
<path opacity="0.32" d="M50.1126 24.6945C50.3135 24.9315 50.4657 25.2057 50.5605 25.5014C50.6553 25.797 50.6908 26.1085 50.665 26.4178C50.6392 26.7272 50.5525 27.0285 50.41 27.3045C50.2675 27.5804 50.0719 27.8257 49.8344 28.0262C49.5969 28.2268 49.3222 28.3787 49.0259 28.4732C48.7295 28.5678 48.4174 28.6032 48.1074 28.5775C47.7974 28.5517 47.4955 28.4652 47.2189 28.323C46.9423 28.1808 46.6966 27.9857 46.4956 27.7487" fill="#F9DA58"/>
<path d="M48.304 28.059C49.3211 28.059 50.1456 27.2363 50.1456 26.2214C50.1456 25.2064 49.3211 24.3837 48.304 24.3837C47.2869 24.3837 46.4624 25.2064 46.4624 26.2214C46.4624 27.2363 47.2869 28.059 48.304 28.059Z" stroke="#EFD770" stroke-width="1.01" stroke-miterlimit="10"/>
<path d="M48.3036 21.1078C49.6122 21.1078 50.673 20.0492 50.673 18.7433C50.673 17.4375 49.6122 16.3789 48.3036 16.3789C46.9949 16.3789 45.9341 17.4375 45.9341 18.7433C45.9341 20.0492 46.9949 21.1078 48.3036 21.1078Z" fill="#4420D8"/>
<path d="M48.3036 20.9148C49.6122 20.9148 50.673 19.8562 50.673 18.5504C50.673 17.2446 49.6122 16.186 48.3036 16.186C46.9949 16.186 45.9341 17.2446 45.9341 18.5504C45.9341 19.8562 46.9949 20.9148 48.3036 20.9148Z" fill="#FFBE44"/>
<rect x="37.4053" y="7.67383" width="21.8153" height="21.7688"/>
<path opacity="0.32" d="M50.1126 17.0233C50.3135 17.2602 50.4657 17.5344 50.5605 17.8301C50.6553 18.1258 50.6908 18.4372 50.665 18.7466C50.6392 19.056 50.5525 19.3572 50.41 19.6332C50.2675 19.9092 50.0719 20.1544 49.8344 20.355C49.5969 20.5555 49.3222 20.7074 49.0259 20.802C48.7295 20.8966 48.4174 20.932 48.1074 20.9062C47.7974 20.8804 47.4955 20.794 47.2189 20.6518C46.9423 20.5096 46.6966 20.3144 46.4956 20.0774" fill="#F9DA58"/>
<path d="M48.304 20.3877C49.3211 20.3877 50.1456 19.565 50.1456 18.55C50.1456 17.5351 49.3211 16.7123 48.304 16.7123C47.2869 16.7123 46.4624 17.5351 46.4624 18.55C46.4624 19.565 47.2869 20.3877 48.304 20.3877Z" stroke="#EFD770" stroke-width="1.01" stroke-miterlimit="10"/>
<path d="M48.3036 13.4339C49.6122 13.4339 50.673 12.3753 50.673 11.0694C50.673 9.76361 49.6122 8.70502 48.3036 8.70502C46.9949 8.70502 45.9341 9.76361 45.9341 11.0694C45.9341 12.3753 46.9949 13.4339 48.3036 13.4339Z" fill="#4420D8"/>
<path d="M48.3036 13.241C49.6122 13.241 50.673 12.1824 50.673 10.8766C50.673 9.57074 49.6122 8.51215 48.3036 8.51215C46.9949 8.51215 45.9341 9.57074 45.9341 10.8766C45.9341 12.1824 46.9949 13.241 48.3036 13.241Z" fill="#FFBE44"/>
<rect x="37.4053" width="21.8153" height="21.7688"/>
<path opacity="0.32" d="M50.1126 9.34943C50.3135 9.58641 50.4657 9.86058 50.5605 10.1563C50.6553 10.452 50.6908 10.7634 50.665 11.0728C50.6392 11.3821 50.5525 11.6834 50.41 11.9594C50.2675 12.2353 50.0719 12.4806 49.8344 12.6811C49.5969 12.8817 49.3222 13.0336 49.0259 13.1281C48.7295 13.2227 48.4174 13.2581 48.1074 13.2324C47.7974 13.2066 47.4955 13.1201 47.2189 12.9779C46.9423 12.8357 46.6966 12.6406 46.4956 12.4036" fill="#F9DA58"/>
<path d="M48.304 12.7138C49.3211 12.7138 50.1456 11.8911 50.1456 10.8761C50.1456 9.86121 49.3211 9.03845 48.304 9.03845C47.2869 9.03845 46.4624 9.86121 46.4624 10.8761C46.4624 11.8911 47.2869 12.7138 48.304 12.7138Z" stroke="#EFD770" stroke-width="1.01" stroke-miterlimit="10"/>
</svg>
