<svg width="140" height="140" viewBox="0 0 140 140" fill="none" xmlns="http://www.w3.org/2000/svg">
<mask id="mask0_5315_83262" style="mask-type:alpha" maskUnits="userSpaceOnUse" x="0" y="0" width="140" height="140">
<circle cx="70" cy="70" r="70" fill="#6C679D"/>
</mask>
<g mask="url(#mask0_5315_83262)">
<g clip-path="url(#clip0_5315_83262)">
<path d="M145 -5H-5V145H145V-5Z" fill="#00C7BA"/>
<path d="M145.243 100.265L69.9999 54.7793L-5.24278 99.9337V145.198H145.243V100.265Z" fill="#FFBE34"/>
<path d="M30.0734 111.316L72.6911 136.927L115.353 111.316L72.8896 85.728L30.0734 111.316Z" fill="#B9E300"/>
<path opacity="0.3" d="M41.5219 111.316L72.713 130.044L103.882 111.316L72.8454 92.6104L41.5219 111.316Z" fill="#160E6B"/>
<path d="M45.1616 113.257V88.1984C45.1061 86.8616 45.4145 85.5348 46.054 84.3596C46.6935 83.1843 47.6401 82.2048 48.7928 81.5254C49.9454 80.846 51.2609 80.4924 52.5988 80.5021C53.9368 80.5119 55.2469 80.8847 56.3896 81.5808C59.9848 83.7382 62.9596 86.7904 65.0241 90.4399C67.0885 94.0893 68.172 98.2114 68.169 102.404V127.11L72.7572 129.868V82.3308L40.5293 62.9631V110.522L45.1616 113.257Z" fill="white"/>
<path d="M40.5293 62.9632L72.7572 82.3308L105.007 62.9632L72.9116 43.6396L40.5293 62.9632Z" fill="#B9E300"/>
<path d="M49.772 104.897V92.7205C49.7088 91.381 50.0124 90.0496 50.65 88.8699C51.2877 87.6902 52.2352 86.7069 53.3905 86.026C54.5458 85.3451 55.865 84.9924 57.2059 85.0059C58.5469 85.0195 59.8587 85.3988 61 86.1029C61.7058 86.544 62.3897 87.0293 63.0514 87.5367C61.2318 85.1602 58.9881 83.141 56.4338 81.5808C55.2911 80.8847 53.981 80.5119 52.643 80.5021C51.3051 80.4924 49.9896 80.8461 48.837 81.5254C47.6843 82.2048 46.7377 83.1844 46.0982 84.3596C45.4587 85.5348 45.1503 86.8616 45.2058 88.1985V113.257L49.8161 110.544V104.919L49.772 104.897Z" fill="#080345"/>
<path d="M72.7573 82.3308V129.868L77.3897 127.132V115.309C77.3897 101.125 78.7794 87.669 89.125 81.8675C90.2745 81.1794 91.5878 80.8127 92.9276 80.8058C94.2674 80.799 95.5844 81.1522 96.7409 81.8285C97.8974 82.5048 98.851 83.4795 99.502 84.6505C100.153 85.8215 100.477 87.1459 100.441 88.4852V113.544L104.985 110.853V62.9631L72.7573 82.3308Z" fill="#080345"/>
<path d="M91.1545 81.0294C92.6361 81.6093 93.8902 82.6533 94.7292 84.0052C95.5682 85.3571 95.947 86.9443 95.8089 88.5294V110.721L100.419 113.544V88.5294C100.461 87.374 100.233 86.2247 99.7541 85.1724C99.2751 84.1202 98.558 83.1937 97.6594 82.4663C96.7608 81.7388 95.7053 81.2303 94.5763 80.9809C93.4474 80.7315 92.2759 80.7481 91.1545 81.0294Z" fill="#4420D8"/>
<path d="M50.8969 38.9411L72.338 51.8014L93.8233 38.9411L72.338 26.0808L50.8969 38.9411Z" fill="#B9E300"/>
<path d="M50.9189 62.125L72.338 74.9853V51.8015L50.8969 38.9412L50.9189 62.125Z" fill="white"/>
<path d="M55.1983 64.7499L68.0365 72.4705V64.5955C68.0429 62.305 67.4548 60.052 66.3296 58.0568C65.2045 56.0617 63.5808 54.3927 61.6174 53.2131C60.9787 52.8312 60.251 52.6233 59.507 52.6103C58.7629 52.5972 58.0284 52.7794 57.3767 53.1388C56.725 53.4981 56.1789 54.022 55.7928 54.6582C55.4067 55.2943 55.1941 56.0206 55.1762 56.7646L55.1983 64.7499Z" fill="#B9E300"/>
<path opacity="0.3" d="M55.1983 64.7499L68.0365 72.4705V64.5955C68.0429 62.305 67.4548 60.052 66.3296 58.0568C65.2045 56.0617 63.5808 54.3927 61.6174 53.2131C60.9787 52.8312 60.251 52.6233 59.507 52.6103C58.7629 52.5972 58.0284 52.7794 57.3767 53.1388C56.725 53.4981 56.1789 54.022 55.7928 54.6582C55.4067 55.2943 55.1941 56.0206 55.1762 56.7646L55.1983 64.7499Z" fill="#160E6B"/>
<path d="M55.1983 64.7499L66.2277 58.1322C65.1046 56.1435 63.4859 54.4793 61.5291 53.3014C60.8991 52.9436 60.1883 52.7525 59.4638 52.7463C58.7393 52.74 58.0252 52.9187 57.3891 53.2654C56.753 53.6122 56.2159 54.1156 55.8287 54.7279C55.4414 55.3402 55.2169 56.0412 55.1762 56.7646L55.1983 64.7499Z" fill="#080345"/>
<path d="M93.7792 62.1029L72.338 74.9853V51.8015L93.8233 38.9412L93.7792 62.1029Z" fill="#080345"/>
<path d="M85.1104 22.8823L71.7868 30.9338V45.4044L85.1104 37.3529V22.8823Z" fill="#080345"/>
<path d="M85.1104 22.8824L71.7868 30.9339V14.9192L85.1104 22.8824Z" fill="#B9E300"/>
<path opacity="0.3" d="M85.1104 22.8824L71.7868 30.9339V14.9192L85.1104 22.8824Z" fill="#160E6B"/>
<path d="M58.4412 22.8823L71.7868 30.9338V45.4044L58.4412 37.3529V22.8823Z" fill="white"/>
<path d="M58.4412 22.8824L71.7868 30.9339V14.9192L58.4412 22.8824Z" fill="#B9E300"/>
<path d="M63.3824 33.8677V36.9118L66.2941 38.6324V33.5588C65.2132 33.6471 64.2426 33.7353 63.3824 33.8677Z" fill="#4C1ADC"/>
<path d="M66.1838 35.0588L63.3824 36.9117V31.5294C63.3866 31.3611 63.4345 31.1968 63.5214 31.0526C63.6083 30.9084 63.7312 30.7893 63.878 30.707C64.0249 30.6246 64.1906 30.5819 64.359 30.583C64.5273 30.5841 64.6925 30.629 64.8382 30.7132C65.2816 30.9718 65.6494 31.3421 65.9048 31.7872C66.1603 32.2324 66.2945 32.7367 66.2941 33.25L66.1838 35.0588Z" fill="#080345"/>
<path d="M86.7205 107.61C86.7871 107.639 86.8623 107.642 86.931 107.618C86.9996 107.594 87.0565 107.545 87.0902 107.48C87.1238 107.416 87.1317 107.341 87.1122 107.271C87.0927 107.201 87.0473 107.141 86.9852 107.103C85.0882 105.625 82.1543 103.573 81.0293 103.816C79.3308 104.191 78.4926 106.64 82.5955 106.86C83.9976 106.927 85.3846 107.179 86.7205 107.61Z" fill="#36521D"/>
<path d="M87.2057 107.257C87.235 107.324 87.2379 107.399 87.2137 107.468C87.1896 107.536 87.1403 107.593 87.0758 107.627C87.0113 107.661 86.9365 107.668 86.8664 107.649C86.7963 107.629 86.7362 107.584 86.6984 107.522C85.1409 105.831 84.0335 103.775 83.4778 101.544C83.4778 99.8676 86.3234 99.0293 86.4998 103.132C86.5552 104.532 86.7925 105.919 87.2057 107.257Z" fill="#36521D"/>
<path d="M87.1177 107.5C87.0766 107.553 87.0193 107.591 86.9546 107.609C86.8898 107.627 86.821 107.623 86.7587 107.598C86.6964 107.573 86.6439 107.528 86.6091 107.471C86.5744 107.413 86.5593 107.346 86.5662 107.279C87.0515 104.941 87.9338 101.456 88.9485 100.904C90.4927 100.088 92.7206 101.39 89.7427 104.235C88.7266 105.202 87.8438 106.3 87.1177 107.5Z" fill="#36521D"/>
<path d="M86.9852 107.654C86.915 107.687 86.8349 107.69 86.7625 107.663C86.6901 107.636 86.6314 107.581 86.5992 107.511C86.567 107.441 86.5641 107.361 86.5909 107.288C86.6178 107.216 86.6724 107.157 86.7426 107.125C88.7279 105.779 91.772 103.882 92.8749 104.191C94.5735 104.676 95.2573 107.169 91.1543 107.147C89.7483 107.131 88.3463 107.301 86.9852 107.654Z" fill="#36521D"/>
<path d="M58.1985 117.338C58.2658 117.376 58.3454 117.386 58.4199 117.365C58.4943 117.345 58.5575 117.295 58.5955 117.228C58.6336 117.161 58.6433 117.081 58.6226 117.007C58.6019 116.932 58.5525 116.869 58.4853 116.831C56.5882 115.375 53.6544 113.302 52.5294 113.566C50.8088 113.941 49.9705 116.39 54.0735 116.588C55.4756 116.655 56.8626 116.907 58.1985 117.338Z" fill="#36521D"/>
<path d="M58.7058 117.007C58.7351 117.074 58.738 117.149 58.7138 117.218C58.6897 117.287 58.6404 117.343 58.5759 117.377C58.5114 117.411 58.4366 117.419 58.3665 117.399C58.2964 117.38 58.2363 117.334 58.1984 117.272C56.6399 115.578 55.5258 113.524 54.9558 111.294C54.9558 109.596 57.8014 108.757 57.9999 112.86C58.0466 114.268 58.284 115.663 58.7058 117.007Z" fill="#36521D"/>
<path d="M58.5956 117.25C58.5615 117.309 58.5078 117.353 58.444 117.376C58.3802 117.399 58.3105 117.398 58.2471 117.374C58.1837 117.351 58.1307 117.305 58.0976 117.246C58.0645 117.187 58.0534 117.118 58.0662 117.052C58.5515 114.691 59.4338 111.228 60.4265 110.677C61.9926 109.838 64.1985 111.162 61.2426 113.985C60.2207 114.953 59.3307 116.05 58.5956 117.25Z" fill="#36521D"/>
<path d="M58.4633 117.405C58.4286 117.419 58.3913 117.427 58.3536 117.427C58.316 117.427 58.2787 117.419 58.2438 117.405C58.209 117.391 58.1774 117.37 58.1507 117.343C58.124 117.317 58.1028 117.285 58.0883 117.25C58.0738 117.215 58.0663 117.178 58.0663 117.141C58.0662 117.103 58.0735 117.066 58.0879 117.031C58.1022 116.996 58.1233 116.964 58.1498 116.938C58.1764 116.911 58.208 116.89 58.2427 116.875C60.206 115.508 63.2501 113.611 64.353 113.941C66.0516 114.405 66.7354 116.897 62.6324 116.875C61.2254 116.866 59.8234 117.044 58.4633 117.405Z" fill="#36521D"/>
</g>
<path d="M-3 -3H143V-7H-3V-3ZM143 -3V143H147V-3H143ZM143 143H-3V147H143V143ZM-3 143V-3H-7V143H-3ZM-3 143H-3H-7C-7 145.209 -5.20914 147 -3 147V143ZM143 143V147C145.209 147 147 145.209 147 143H143ZM143 -3H147C147 -5.20914 145.209 -7 143 -7V-3ZM-3 -7C-5.20914 -7 -7 -5.20914 -7 -3H-3V-3V-7Z" fill="#38336D"/>
</g>
<defs>
<clipPath id="clip0_5315_83262">
<path d="M-5 -3C-5 -4.10457 -4.10457 -5 -3 -5H143C144.105 -5 145 -4.10457 145 -3V143C145 144.105 144.105 145 143 145H-3C-4.10457 145 -5 144.105 -5 143V-3Z" fill="white"/>
</clipPath>
</defs>
</svg>
