<svg width="140" height="140" viewBox="0 0 140 140" fill="none" xmlns="http://www.w3.org/2000/svg">
<mask id="mask0_5315_83266" style="mask-type:alpha" maskUnits="userSpaceOnUse" x="0" y="0" width="140" height="140">
<circle cx="70" cy="70" r="70" fill="#6C679D"/>
</mask>
<g mask="url(#mask0_5315_83266)">
<path d="M145 -5H-5V145H145V-5Z" fill="#FF2475"/>
<path d="M144.89 100.11L70.0001 54.8457L-4.88965 99.8016V144.846H144.89V100.11Z" fill="#B9E300"/>
<path opacity="0.3" d="M69.9999 129.868L95.0587 115.088L69.9778 100.044L44.941 114.824L69.9999 129.868Z" fill="#160E6B"/>
<path d="M48.5808 116.985V74.6323C48.5287 73.591 48.7614 72.5551 49.254 71.6361C49.7466 70.7172 50.4804 69.9499 51.3765 69.4168C52.2725 68.8837 53.297 68.6049 54.3396 68.6105C55.3823 68.6161 56.4037 68.9058 57.294 69.4485C60.0802 71.1285 62.3851 73.4999 63.9852 76.3329C65.5852 79.1658 66.4261 82.3641 66.4263 85.6176V127.728L69.9999 129.934V70L44.9852 55.0662V114.868L48.5808 116.985Z" fill="#8061DB"/>
<path d="M44.9852 55.0662L69.9999 70.0883L95.0146 55.0662L70.1102 40.0442L44.9852 55.0662Z" fill="#B9E300"/>
<path d="M52.1322 35.7648L69.9999 46.4633L87.8675 35.7648L69.9999 25.0442L52.1322 35.7648Z" fill="#B9E300"/>
<path d="M52.1543 55.0662L69.9999 65.7868V46.4633L52.1322 35.7427L52.1543 55.0662Z" fill="#8061DB"/>
<path d="M55.7059 57.272L66.4265 63.6911V57.0735C66.4308 55.1854 65.9503 53.3278 65.0311 51.6786C64.1118 50.0293 62.7846 48.6437 61.1765 47.6544C60.6409 47.3294 60.0285 47.1528 59.4021 47.1428C58.7757 47.1328 58.1579 47.2896 57.6122 47.5973C57.0665 47.9049 56.6125 48.3523 56.2969 48.8934C55.9813 49.4346 55.8153 50.05 55.8162 50.6764L55.7059 57.272Z" fill="#B9E300"/>
<path d="M55.7059 57.272L64.9926 51.6691C64.0828 50.028 62.7693 48.6462 61.1765 47.6544C60.6409 47.3294 60.0285 47.1528 59.4021 47.1428C58.7757 47.1328 58.1579 47.2896 57.6122 47.5973C57.0665 47.9049 56.6125 48.3523 56.2969 48.8934C55.9813 49.4346 55.8153 50.05 55.8162 50.6764L55.7059 57.272Z" fill="#080345"/>
<path d="M87.8456 55.0441L70 65.7867V46.4632L87.8676 35.7646L87.8456 55.0441Z" fill="#080345"/>
<path d="M52.1542 110.5V78.1398C52.1021 77.0985 52.3349 76.0626 52.8275 75.1437C53.3201 74.2247 54.0539 73.4574 54.95 72.9243C55.846 72.3912 56.8705 72.1124 57.9131 72.118C58.9558 72.1236 59.9772 72.4133 60.8675 72.956C61.4189 73.2869 61.9484 73.684 62.4557 74.059C61.035 72.2163 59.2848 70.6531 57.2939 69.4487C56.4036 68.906 55.3822 68.6163 54.3396 68.6107C53.2969 68.6051 52.2725 68.8838 51.3764 69.4169C50.4804 69.95 49.7466 70.7173 49.254 71.6363C48.7614 72.5553 48.5286 73.5911 48.5807 74.6325V116.985L52.1542 114.78V110.368V110.5Z" fill="#080345"/>
<path d="M70 70V129.779L73.5735 127.574V95.6765C73.5735 84.647 74.6544 74.2353 82.6838 69.7353C83.577 69.1895 84.6011 68.8955 85.6478 68.8844C86.6944 68.8734 87.7246 69.1457 88.6291 69.6726C89.5335 70.1994 90.2786 70.9612 90.7853 71.877C91.292 72.7929 91.5415 73.8288 91.5074 74.875V117.206L95.0368 115.11V55.0662L70 70Z" fill="#080345"/>
<path d="M84.2499 69.0736C85.3979 69.5213 86.3704 70.328 87.0223 71.3735C87.6743 72.419 87.9708 73.6473 87.8676 74.8751V115L91.4411 117.206V74.8751C91.4718 73.9795 91.2938 73.0889 90.9212 72.2739C90.5485 71.4589 89.9914 70.7417 89.2939 70.179C88.5964 69.6163 87.7777 69.2235 86.9023 69.0317C86.0269 68.8398 85.1188 68.8542 84.2499 69.0736Z" fill="#8061DB"/>
<path d="M-3 -3H143V-7H-3V-3ZM143 -3V143H147V-3H143ZM143 143H-3V147H143V143ZM-3 143V-3H-7V143H-3ZM-3 143H-3H-7C-7 145.209 -5.20914 147 -3 147V143ZM143 143V147C145.209 147 147 145.209 147 143H143ZM143 -3H147C147 -5.20914 145.209 -7 143 -7V-3ZM-3 -7C-5.20914 -7 -7 -5.20914 -7 -3H-3V-3V-7Z" fill="#38336D"/>
</g>
</svg>
