<svg width="140" height="140" viewBox="0 0 140 140" fill="none" xmlns="http://www.w3.org/2000/svg">
<mask id="mask0_5315_83258" style="mask-type:alpha" maskUnits="userSpaceOnUse" x="0" y="0" width="140" height="140">
<circle cx="70" cy="70" r="70" fill="#6C679D"/>
</mask>
<g mask="url(#mask0_5315_83258)">
<path d="M144.824 -4.82349H-4.82343V144.824H144.824V-4.82349Z" fill="#FFBE34"/>
<path d="M95.3014 93.7352L95.3455 24.4705L70.397 9.95581V55.2205V130.044L93.8234 115.971V116.037L120.25 100.132L120.338 78.647L95.3014 93.7352Z" fill="white"/>
<path d="M70.3972 54.4485V130.022L45.4045 114.978L45.4486 39.4485L70.3972 54.4485Z" fill="#FF2475"/>
<path d="M95.3897 63.7354V78.6471V93.6912L120.338 78.7133L95.3897 63.7354Z" fill="#7AC936"/>
<path d="M33.0295 62.5662L33.0516 70.022V77.5441L20.5663 70.0662L33.0295 62.5662Z" fill="#7AC936"/>
<path d="M78.25 83.8308L86.522 78.9117V53.6323C86.522 51.5367 84.2059 50.2352 82.375 51.3161C79.8162 52.8381 78.2279 55.5955 78.2279 58.5514V83.8308H78.25Z" fill="#080345"/>
<path d="M78.25 73.9705L86.522 78.9117V53.6323C86.522 51.5367 84.2059 50.2352 82.375 51.3161C79.8162 52.8381 78.2279 55.5955 78.2279 58.5514V73.9705H78.25Z" fill="#FF2475"/>
<path d="M57.9779 47.6104V122.478L33.0073 107.434L33.0514 32.6104L57.9779 47.6104Z" fill="#FF2475"/>
<path d="M58 17.6323L33.0515 32.5882L57.9779 47.5882L58 17.6323Z" fill="#7AC936"/>
<path d="M20.6763 70.022V77.169L33.2719 84.7793L33.0513 77.7426L20.6763 70.022Z" fill="#FF2475"/>
<path d="M70.3972 9.95581V55.2205L45.4266 43.6176L45.4487 25.022L70.3972 9.95581Z" fill="#FF2475"/>
<path d="M57.8678 101.169L45.4266 93.7131V71.7866C45.4266 68.5881 48.9119 66.6249 51.6472 68.2572C55.5075 70.5734 57.8678 74.7425 57.8678 79.2425V101.169Z" fill="#080345"/>
<path d="M57.8678 85.9043L45.4266 93.7131V71.7866C45.4266 68.5881 48.9119 66.6249 51.6472 68.2572C55.5075 70.5734 57.8678 74.7425 57.8678 79.2425V85.9043Z" fill="#FFBE34"/>
<path d="M109.375 68.8308H106.441V81.3823H109.375V68.8308Z" fill="#838148"/>
<path d="M116.919 61.2647C116.919 66.2279 112.882 70.2647 107.919 70.2647C102.956 70.2647 98.9193 66.2279 98.9193 61.2647C98.9193 56.3015 102.956 36.3162 107.919 36.3162C112.882 36.3162 116.919 56.2794 116.919 61.2647Z" fill="#283410"/>
<path d="M105.338 69.0514L107.809 67.1102L110.279 69.0514L112.75 67.1102L113.875 67.9926C114.206 67.7058 114.515 67.397 114.779 67.0661L112.75 65.4558L110.279 67.397L107.809 65.4558L105.338 67.397L102.868 65.4558L100.971 66.9558C101.257 67.2867 101.544 67.6176 101.853 67.9043L102.846 67.1102L105.338 69.0514Z" fill="#36521D"/>
<path d="M102.868 62.4559L105.338 64.3971L107.809 62.4559L110.28 64.3971L112.75 62.4559L115.221 64.3971L116.721 63.2059C116.853 62.6103 116.919 62.0147 116.941 61.375L115.221 62.7427L112.75 60.8015L110.28 62.7427L107.809 60.8015L105.338 62.7427L102.868 60.8015L100.419 62.7427L98.9413 61.5736C98.9634 62.2133 99.0516 62.8309 99.206 63.4486L100.419 64.4192L102.868 62.4559Z" fill="#36521D"/>
<path d="M102.868 57.8015L105.338 59.7426L107.809 57.8015L110.28 59.7426L112.75 57.8015L115.221 59.7426L116.743 58.5294C116.677 58.0662 116.611 57.5588 116.544 57.0294L115.221 58.0662L112.75 56.125L110.28 58.0662L107.809 56.125L105.338 58.0662L102.868 56.125L100.419 58.0662L99.2943 57.1838C99.2061 57.7132 99.1399 58.2206 99.0958 58.6838L100.419 59.7426L102.868 57.8015Z" fill="#36521D"/>
<path d="M102.868 53.1471L105.338 55.0883L107.809 53.1471L110.279 55.0883L112.75 53.1471L115.221 55.0883L116.081 54.4044C115.993 53.9412 115.904 53.4559 115.794 52.9706L115.221 53.4338L112.75 51.4927L110.279 53.4338L107.809 51.4927L105.338 53.4338L102.868 51.4927L100.419 53.4338L100.022 53.125C99.9117 53.6103 99.8235 54.0956 99.7353 54.5588L100.397 55.0883L102.868 53.1471Z" fill="#36521D"/>
<path d="M105.338 50.4558L107.809 48.5146L110.28 50.4558L112.75 48.5146L115.221 50.4558L115.243 50.4337C115.088 49.7499 114.912 49.0661 114.735 48.3823L112.772 46.8381L110.302 48.7793L107.831 46.8381L105.36 48.7793L102.868 46.8381L101.191 48.1617C100.993 48.8675 100.816 49.5514 100.662 50.2352L102.868 48.4925L105.338 50.4558Z" fill="#36521D"/>
<path d="M105.338 45.8014L107.809 43.8602L110.28 45.8014L112.75 43.8602L113.522 44.4779C113.258 43.7058 112.971 42.9558 112.684 42.2499L110.28 44.147L107.809 42.2058L105.338 44.147L103.088 42.3602C102.846 42.9558 102.625 43.5735 102.405 44.2132L102.868 43.8382L105.338 45.8014Z" fill="#36521D"/>
<path d="M107.787 39.1838L110.258 41.125L111.669 40C111.449 39.5809 111.25 39.2059 111.03 38.8529L110.258 39.4485L107.787 37.5073L105.316 39.4485L104.699 38.9632C104.478 39.3161 104.28 39.7132 104.059 40.1103L105.316 41.1029L107.787 39.1838Z" fill="#36521D"/>
<path d="M-3 -3H143V-7H-3V-3ZM143 -3V143H147V-3H143ZM143 143H-3V147H143V143ZM-3 143V-3H-7V143H-3ZM-3 143H-3H-7C-7 145.209 -5.20914 147 -3 147V143ZM143 143V147C145.209 147 147 145.209 147 143H143ZM143 -3H147C147 -5.20914 145.209 -7 143 -7V-3ZM-3 -7C-5.20914 -7 -7 -5.20914 -7 -3H-3V-3V-7Z" fill="#38336D"/>
</g>
</svg>
